G75*
%MOIN*%
%OFA0B0*%
%FSLAX25Y25*%
%IPPOS*%
%LPD*%
%AMOC8*
5,1,8,0,0,1.08239X$1,22.5*
%
%ADD10C,0.00000*%
%ADD11C,0.00300*%
%ADD12C,0.00400*%
%ADD13C,0.00600*%
%ADD14C,0.00500*%
%ADD15R,0.01772X0.03543*%
%ADD16C,0.01600*%
D10*
X0002707Y0075410D02*
X0002407Y0399711D01*
X0241028Y0400011D01*
X0241328Y0075710D01*
X0002707Y0075410D01*
D11*
X0160760Y0097353D02*
X0161377Y0096736D01*
X0162612Y0096736D01*
X0163229Y0097353D01*
X0163229Y0097970D01*
X0162612Y0098587D01*
X0161995Y0098587D01*
X0162612Y0098587D02*
X0163229Y0099205D01*
X0163229Y0099822D01*
X0162612Y0100439D01*
X0161377Y0100439D01*
X0160760Y0099822D01*
X0164443Y0100439D02*
X0164443Y0097970D01*
X0165678Y0096736D01*
X0166912Y0097970D01*
X0166912Y0100439D01*
X0168127Y0099822D02*
X0168744Y0100439D01*
X0169978Y0100439D01*
X0170595Y0099822D01*
X0170595Y0099205D01*
X0169978Y0098587D01*
X0170595Y0097970D01*
X0170595Y0097353D01*
X0169978Y0096736D01*
X0168744Y0096736D01*
X0168127Y0097353D01*
X0169361Y0098587D02*
X0169978Y0098587D01*
X0169978Y0106578D02*
X0168127Y0106578D01*
X0168127Y0110282D01*
X0169978Y0110282D01*
X0170595Y0109664D01*
X0170595Y0107196D01*
X0169978Y0106578D01*
X0166912Y0106578D02*
X0166912Y0110282D01*
X0164443Y0110282D02*
X0164443Y0106578D01*
X0163229Y0107196D02*
X0163229Y0108430D01*
X0161995Y0108430D01*
X0163229Y0109664D02*
X0162612Y0110282D01*
X0161377Y0110282D01*
X0160760Y0109664D01*
X0160760Y0107196D01*
X0161377Y0106578D01*
X0162612Y0106578D01*
X0163229Y0107196D01*
X0164443Y0110282D02*
X0166912Y0106578D01*
D12*
X0181848Y0106779D02*
X0184150Y0106779D01*
X0184917Y0107546D01*
X0184917Y0109081D01*
X0184150Y0109848D01*
X0181848Y0109848D01*
X0181848Y0105244D01*
X0186452Y0105244D02*
X0188754Y0105244D01*
X0189521Y0106011D01*
X0189521Y0106779D01*
X0188754Y0107546D01*
X0186452Y0107546D01*
X0186452Y0105244D02*
X0186452Y0109848D01*
X0188754Y0109848D01*
X0189521Y0109081D01*
X0189521Y0108313D01*
X0188754Y0107546D01*
X0191056Y0108313D02*
X0192591Y0109848D01*
X0192591Y0105244D01*
X0194125Y0105244D02*
X0191056Y0105244D01*
X0195660Y0107546D02*
X0198729Y0107546D01*
X0197962Y0105244D02*
X0197962Y0109848D01*
X0195660Y0107546D01*
X0195776Y0115487D02*
X0195009Y0116254D01*
X0195009Y0117021D01*
X0195776Y0117789D01*
X0197311Y0117789D01*
X0198078Y0117021D01*
X0198078Y0116254D01*
X0197311Y0115487D01*
X0195776Y0115487D01*
X0195776Y0117789D02*
X0195009Y0118556D01*
X0195009Y0119323D01*
X0195776Y0120091D01*
X0197311Y0120091D01*
X0198078Y0119323D01*
X0198078Y0118556D01*
X0197311Y0117789D01*
X0193474Y0116254D02*
X0193474Y0119323D01*
X0192707Y0120091D01*
X0190405Y0120091D01*
X0190405Y0115487D01*
X0192707Y0115487D01*
X0193474Y0116254D01*
X0188870Y0117789D02*
X0188103Y0117021D01*
X0185801Y0117021D01*
X0185801Y0115487D02*
X0185801Y0120091D01*
X0188103Y0120091D01*
X0188870Y0119323D01*
X0188870Y0117789D01*
X0188654Y0125129D02*
X0186352Y0125129D01*
X0186352Y0129733D01*
X0188654Y0129733D01*
X0189421Y0128966D01*
X0189421Y0125896D01*
X0188654Y0125129D01*
X0190956Y0125129D02*
X0194025Y0125129D01*
X0192491Y0125129D02*
X0192491Y0129733D01*
X0190956Y0128198D01*
X0195560Y0128966D02*
X0196327Y0129733D01*
X0197862Y0129733D01*
X0198629Y0128966D01*
X0195560Y0125896D01*
X0196327Y0125129D01*
X0197862Y0125129D01*
X0198629Y0125896D01*
X0198629Y0128966D01*
X0195560Y0128966D02*
X0195560Y0125896D01*
X0194960Y0135156D02*
X0198029Y0138225D01*
X0198029Y0138993D01*
X0197262Y0139760D01*
X0195727Y0139760D01*
X0194960Y0138993D01*
X0194960Y0135156D02*
X0198029Y0135156D01*
X0193425Y0135156D02*
X0190356Y0135156D01*
X0191891Y0135156D02*
X0191891Y0139760D01*
X0190356Y0138225D01*
X0188821Y0138993D02*
X0188821Y0135923D01*
X0188054Y0135156D01*
X0185752Y0135156D01*
X0185752Y0139760D01*
X0188054Y0139760D01*
X0188821Y0138993D01*
X0188254Y0145798D02*
X0185952Y0145798D01*
X0185952Y0150402D01*
X0188254Y0150402D01*
X0189021Y0149635D01*
X0189021Y0146566D01*
X0188254Y0145798D01*
X0190556Y0145798D02*
X0193625Y0145798D01*
X0192091Y0145798D02*
X0192091Y0150402D01*
X0190556Y0148868D01*
X0195160Y0148100D02*
X0198229Y0148100D01*
X0197462Y0145798D02*
X0197462Y0150402D01*
X0195160Y0148100D01*
X0193709Y0155441D02*
X0196778Y0158510D01*
X0196778Y0159278D01*
X0196011Y0160045D01*
X0194476Y0160045D01*
X0193709Y0159278D01*
X0192174Y0159278D02*
X0191407Y0160045D01*
X0189872Y0160045D01*
X0189105Y0159278D01*
X0189105Y0156208D01*
X0189872Y0155441D01*
X0191407Y0155441D01*
X0192174Y0156208D01*
X0192174Y0157743D01*
X0190639Y0157743D01*
X0187570Y0157743D02*
X0187570Y0159278D01*
X0186803Y0160045D01*
X0184501Y0160045D01*
X0184501Y0155441D01*
X0184501Y0156976D02*
X0186803Y0156976D01*
X0187570Y0157743D01*
X0193709Y0155441D02*
X0196778Y0155441D01*
X0195611Y0165083D02*
X0195611Y0169687D01*
X0193309Y0167385D01*
X0196378Y0167385D01*
X0191774Y0167385D02*
X0191774Y0165851D01*
X0191007Y0165083D01*
X0189472Y0165083D01*
X0188705Y0165851D01*
X0188705Y0168920D01*
X0189472Y0169687D01*
X0191007Y0169687D01*
X0191774Y0168920D01*
X0191774Y0167385D02*
X0190239Y0167385D01*
X0187170Y0167385D02*
X0186403Y0166618D01*
X0184101Y0166618D01*
X0184101Y0165083D02*
X0184101Y0169687D01*
X0186403Y0169687D01*
X0187170Y0168920D01*
X0187170Y0167385D01*
X0185101Y0175326D02*
X0185101Y0179930D01*
X0187403Y0179930D01*
X0188170Y0179163D01*
X0188170Y0177628D01*
X0187403Y0176861D01*
X0185101Y0176861D01*
X0189705Y0176093D02*
X0190472Y0175326D01*
X0192007Y0175326D01*
X0192774Y0176093D01*
X0192774Y0177628D01*
X0191239Y0177628D01*
X0189705Y0179163D02*
X0190472Y0179930D01*
X0192007Y0179930D01*
X0192774Y0179163D01*
X0194309Y0177628D02*
X0196611Y0177628D01*
X0197378Y0176861D01*
X0197378Y0176093D01*
X0196611Y0175326D01*
X0195076Y0175326D01*
X0194309Y0176093D01*
X0194309Y0177628D01*
X0195843Y0179163D01*
X0197378Y0179930D01*
X0197111Y0185753D02*
X0195576Y0185753D01*
X0194809Y0186520D01*
X0194809Y0187287D01*
X0195576Y0188055D01*
X0197111Y0188055D01*
X0197878Y0187287D01*
X0197878Y0186520D01*
X0197111Y0185753D01*
X0197111Y0188055D02*
X0197878Y0188822D01*
X0197878Y0189589D01*
X0197111Y0190357D01*
X0195576Y0190357D01*
X0194809Y0189589D01*
X0194809Y0188822D01*
X0195576Y0188055D01*
X0193274Y0188055D02*
X0193274Y0186520D01*
X0192507Y0185753D01*
X0190972Y0185753D01*
X0190205Y0186520D01*
X0190205Y0189589D01*
X0190972Y0190357D01*
X0192507Y0190357D01*
X0193274Y0189589D01*
X0193274Y0188055D02*
X0191739Y0188055D01*
X0188670Y0188055D02*
X0187903Y0187287D01*
X0185601Y0187287D01*
X0185601Y0185753D02*
X0185601Y0190357D01*
X0187903Y0190357D01*
X0188670Y0189589D01*
X0188670Y0188055D01*
X0190672Y0195895D02*
X0192207Y0195895D01*
X0192974Y0196663D01*
X0194509Y0196663D02*
X0194509Y0195895D01*
X0194509Y0196663D02*
X0197578Y0199732D01*
X0197578Y0200499D01*
X0194509Y0200499D01*
X0192974Y0199732D02*
X0192207Y0200499D01*
X0190672Y0200499D01*
X0189905Y0199732D01*
X0189905Y0196663D01*
X0190672Y0195895D01*
X0188370Y0198197D02*
X0187603Y0197430D01*
X0185301Y0197430D01*
X0185301Y0195895D02*
X0185301Y0200499D01*
X0187603Y0200499D01*
X0188370Y0199732D01*
X0188370Y0198197D01*
X0190972Y0205538D02*
X0192507Y0205538D01*
X0193274Y0206305D01*
X0194809Y0206305D02*
X0195576Y0205538D01*
X0197111Y0205538D01*
X0197878Y0206305D01*
X0197878Y0209374D01*
X0197111Y0210142D01*
X0195576Y0210142D01*
X0194809Y0209374D01*
X0194809Y0208607D01*
X0195576Y0207840D01*
X0197878Y0207840D01*
X0193274Y0209374D02*
X0192507Y0210142D01*
X0190972Y0210142D01*
X0190205Y0209374D01*
X0190205Y0206305D01*
X0190972Y0205538D01*
X0188670Y0207840D02*
X0188670Y0209374D01*
X0187903Y0210142D01*
X0185601Y0210142D01*
X0185601Y0205538D01*
X0185601Y0207072D02*
X0187903Y0207072D01*
X0188670Y0207840D01*
X0190289Y0215880D02*
X0190289Y0218950D01*
X0191824Y0220484D01*
X0193358Y0218950D01*
X0193358Y0215880D01*
X0194893Y0216648D02*
X0195660Y0215880D01*
X0197195Y0215880D01*
X0197962Y0216648D01*
X0197962Y0219717D01*
X0197195Y0220484D01*
X0195660Y0220484D01*
X0194893Y0219717D01*
X0194893Y0218950D01*
X0195660Y0218182D01*
X0197962Y0218182D01*
X0193358Y0218182D02*
X0190289Y0218182D01*
X0188754Y0218182D02*
X0187987Y0217415D01*
X0185685Y0217415D01*
X0185685Y0215880D02*
X0185685Y0220484D01*
X0187987Y0220484D01*
X0188754Y0219717D01*
X0188754Y0218182D01*
X0187336Y0225723D02*
X0187336Y0228792D01*
X0188871Y0230327D01*
X0190405Y0228792D01*
X0190405Y0225723D01*
X0191940Y0225723D02*
X0195009Y0225723D01*
X0193475Y0225723D02*
X0193475Y0230327D01*
X0191940Y0228792D01*
X0190405Y0228025D02*
X0187336Y0228025D01*
X0185802Y0228025D02*
X0185802Y0229559D01*
X0185034Y0230327D01*
X0182732Y0230327D01*
X0182732Y0225723D01*
X0182732Y0227257D02*
X0185034Y0227257D01*
X0185802Y0228025D01*
X0187454Y0235565D02*
X0187454Y0238635D01*
X0188989Y0240169D01*
X0190524Y0238635D01*
X0190524Y0235565D01*
X0192058Y0235565D02*
X0195128Y0235565D01*
X0193593Y0235565D02*
X0193593Y0240169D01*
X0192058Y0238635D01*
X0190524Y0237867D02*
X0187454Y0237867D01*
X0185920Y0237867D02*
X0185152Y0237100D01*
X0182850Y0237100D01*
X0182850Y0235565D02*
X0182850Y0240169D01*
X0185152Y0240169D01*
X0185920Y0239402D01*
X0185920Y0237867D01*
X0187052Y0245492D02*
X0187052Y0248561D01*
X0188587Y0250096D01*
X0190121Y0248561D01*
X0190121Y0245492D01*
X0191656Y0245492D02*
X0194725Y0245492D01*
X0193191Y0245492D02*
X0193191Y0250096D01*
X0191656Y0248561D01*
X0190121Y0247794D02*
X0187052Y0247794D01*
X0185517Y0247794D02*
X0184750Y0247027D01*
X0182448Y0247027D01*
X0182448Y0245492D02*
X0182448Y0250096D01*
X0184750Y0250096D01*
X0185517Y0249329D01*
X0185517Y0247794D01*
X0188019Y0255635D02*
X0189554Y0255635D01*
X0190321Y0256402D01*
X0191856Y0255635D02*
X0194925Y0255635D01*
X0193391Y0255635D02*
X0193391Y0260239D01*
X0191856Y0258704D01*
X0190321Y0259471D02*
X0189554Y0260239D01*
X0188019Y0260239D01*
X0187252Y0259471D01*
X0187252Y0256402D01*
X0188019Y0255635D01*
X0185717Y0257937D02*
X0185717Y0259471D01*
X0184950Y0260239D01*
X0182648Y0260239D01*
X0182648Y0255635D01*
X0182648Y0257169D02*
X0184950Y0257169D01*
X0185717Y0257937D01*
X0185801Y0265677D02*
X0185801Y0270281D01*
X0188103Y0270281D01*
X0188870Y0269514D01*
X0188870Y0267979D01*
X0188103Y0267212D01*
X0185801Y0267212D01*
X0190405Y0265677D02*
X0192707Y0265677D01*
X0193474Y0266444D01*
X0193474Y0269514D01*
X0192707Y0270281D01*
X0190405Y0270281D01*
X0190405Y0265677D01*
X0195009Y0266444D02*
X0198078Y0269514D01*
X0198078Y0266444D01*
X0197311Y0265677D01*
X0195776Y0265677D01*
X0195009Y0266444D01*
X0195009Y0269514D01*
X0195776Y0270281D01*
X0197311Y0270281D01*
X0198078Y0269514D01*
X0197878Y0278220D02*
X0194809Y0278220D01*
X0197878Y0281289D01*
X0197878Y0282056D01*
X0197111Y0282824D01*
X0195576Y0282824D01*
X0194809Y0282056D01*
X0193274Y0282056D02*
X0192507Y0282824D01*
X0190205Y0282824D01*
X0190205Y0278220D01*
X0192507Y0278220D01*
X0193274Y0278987D01*
X0193274Y0282056D01*
X0191607Y0285962D02*
X0192374Y0286730D01*
X0192374Y0289799D01*
X0191607Y0290566D01*
X0189305Y0290566D01*
X0189305Y0285962D01*
X0191607Y0285962D01*
X0193909Y0288264D02*
X0196978Y0288264D01*
X0196211Y0285962D02*
X0196211Y0290566D01*
X0193909Y0288264D01*
X0195176Y0295605D02*
X0196711Y0295605D01*
X0197478Y0296372D01*
X0197478Y0297139D01*
X0196711Y0297907D01*
X0194409Y0297907D01*
X0194409Y0296372D01*
X0195176Y0295605D01*
X0194409Y0297907D02*
X0195943Y0299441D01*
X0197478Y0300209D01*
X0192874Y0299441D02*
X0192107Y0300209D01*
X0189805Y0300209D01*
X0189805Y0295605D01*
X0192107Y0295605D01*
X0192874Y0296372D01*
X0192874Y0299441D01*
X0188270Y0299441D02*
X0188270Y0297907D01*
X0187503Y0297139D01*
X0185201Y0297139D01*
X0185201Y0295605D02*
X0185201Y0300209D01*
X0187503Y0300209D01*
X0188270Y0299441D01*
X0190772Y0305331D02*
X0192307Y0305331D01*
X0193074Y0306099D01*
X0193074Y0307633D01*
X0191539Y0307633D01*
X0190005Y0306099D02*
X0190772Y0305331D01*
X0190005Y0306099D02*
X0190005Y0309168D01*
X0190772Y0309935D01*
X0192307Y0309935D01*
X0193074Y0309168D01*
X0194609Y0309168D02*
X0194609Y0308401D01*
X0195376Y0307633D01*
X0197678Y0307633D01*
X0197678Y0306099D02*
X0197678Y0309168D01*
X0196911Y0309935D01*
X0195376Y0309935D01*
X0194609Y0309168D01*
X0194609Y0306099D02*
X0195376Y0305331D01*
X0196911Y0305331D01*
X0197678Y0306099D01*
X0197494Y0316274D02*
X0197494Y0320878D01*
X0195960Y0319343D01*
X0195960Y0316274D02*
X0199029Y0316274D01*
X0194425Y0316274D02*
X0191356Y0316274D01*
X0192891Y0316274D02*
X0192891Y0320878D01*
X0191356Y0319343D01*
X0189821Y0318576D02*
X0188287Y0318576D01*
X0189821Y0318576D02*
X0189821Y0317041D01*
X0189054Y0316274D01*
X0187519Y0316274D01*
X0186752Y0317041D01*
X0186752Y0320111D01*
X0187519Y0320878D01*
X0189054Y0320878D01*
X0189821Y0320111D01*
X0185217Y0320111D02*
X0185217Y0318576D01*
X0184450Y0317809D01*
X0182148Y0317809D01*
X0182148Y0316274D02*
X0182148Y0320878D01*
X0184450Y0320878D01*
X0185217Y0320111D01*
X0187435Y0325717D02*
X0186668Y0326484D01*
X0186668Y0329553D01*
X0187435Y0330320D01*
X0188970Y0330320D01*
X0189737Y0329553D01*
X0189737Y0328018D02*
X0188202Y0328018D01*
X0189737Y0328018D02*
X0189737Y0326484D01*
X0188970Y0325717D01*
X0187435Y0325717D01*
X0185133Y0328018D02*
X0184366Y0327251D01*
X0182064Y0327251D01*
X0182064Y0325717D02*
X0182064Y0330320D01*
X0184366Y0330320D01*
X0185133Y0329553D01*
X0185133Y0328018D01*
X0191272Y0328786D02*
X0192806Y0330320D01*
X0192806Y0325717D01*
X0191272Y0325717D02*
X0194341Y0325717D01*
X0195876Y0326484D02*
X0196643Y0325717D01*
X0198178Y0325717D01*
X0198945Y0326484D01*
X0198945Y0327251D01*
X0198178Y0328018D01*
X0197410Y0328018D01*
X0198178Y0328018D02*
X0198945Y0328786D01*
X0198945Y0329553D01*
X0198178Y0330320D01*
X0196643Y0330320D01*
X0195876Y0329553D01*
X0196843Y0335859D02*
X0196076Y0336626D01*
X0196843Y0335859D02*
X0198378Y0335859D01*
X0199145Y0336626D01*
X0199145Y0338161D01*
X0198378Y0338928D01*
X0197610Y0338928D01*
X0196076Y0338161D01*
X0196076Y0340463D01*
X0199145Y0340463D01*
X0197411Y0345702D02*
X0197411Y0350305D01*
X0195109Y0348004D01*
X0198178Y0348004D01*
X0193574Y0348771D02*
X0192807Y0348004D01*
X0190505Y0348004D01*
X0188970Y0348004D02*
X0188203Y0347236D01*
X0185901Y0347236D01*
X0185901Y0345702D02*
X0185901Y0350305D01*
X0188203Y0350305D01*
X0188970Y0349538D01*
X0188970Y0348004D01*
X0190505Y0345702D02*
X0190505Y0350305D01*
X0192807Y0350305D01*
X0193574Y0349538D01*
X0193574Y0348771D01*
X0192807Y0348004D02*
X0193574Y0347236D01*
X0193574Y0346469D01*
X0192807Y0345702D01*
X0190505Y0345702D01*
X0189170Y0340463D02*
X0187635Y0340463D01*
X0186868Y0339696D01*
X0186868Y0336626D01*
X0187635Y0335859D01*
X0189170Y0335859D01*
X0189937Y0336626D01*
X0189937Y0338161D01*
X0188402Y0338161D01*
X0189937Y0339696D02*
X0189170Y0340463D01*
X0191472Y0338928D02*
X0193006Y0340463D01*
X0193006Y0335859D01*
X0191472Y0335859D02*
X0194541Y0335859D01*
X0185333Y0338161D02*
X0184566Y0337394D01*
X0182264Y0337394D01*
X0182264Y0335859D02*
X0182264Y0340463D01*
X0184566Y0340463D01*
X0185333Y0339696D01*
X0185333Y0338161D01*
X0185701Y0355244D02*
X0185701Y0359848D01*
X0188003Y0359848D01*
X0188770Y0359081D01*
X0188770Y0357546D01*
X0188003Y0356779D01*
X0185701Y0356779D01*
X0190305Y0357546D02*
X0192607Y0357546D01*
X0193374Y0356779D01*
X0193374Y0356011D01*
X0192607Y0355244D01*
X0190305Y0355244D01*
X0190305Y0359848D01*
X0192607Y0359848D01*
X0193374Y0359081D01*
X0193374Y0358313D01*
X0192607Y0357546D01*
X0194909Y0357546D02*
X0197211Y0357546D01*
X0197978Y0356779D01*
X0197978Y0356011D01*
X0197211Y0355244D01*
X0195676Y0355244D01*
X0194909Y0356011D01*
X0194909Y0357546D01*
X0196443Y0359081D01*
X0197978Y0359848D01*
X0197538Y0365306D02*
X0196003Y0365306D01*
X0195236Y0366073D01*
X0198305Y0369142D01*
X0198305Y0366073D01*
X0197538Y0365306D01*
X0195236Y0366073D02*
X0195236Y0369142D01*
X0196003Y0369909D01*
X0197538Y0369909D01*
X0198305Y0369142D01*
X0197895Y0374929D02*
X0196360Y0374929D01*
X0195593Y0375696D01*
X0194058Y0375696D02*
X0193291Y0374929D01*
X0190989Y0374929D01*
X0190989Y0379533D01*
X0193291Y0379533D01*
X0194058Y0378766D01*
X0194058Y0377998D01*
X0193291Y0377231D01*
X0190989Y0377231D01*
X0189454Y0377231D02*
X0188687Y0376464D01*
X0186385Y0376464D01*
X0186385Y0374929D02*
X0186385Y0379533D01*
X0188687Y0379533D01*
X0189454Y0378766D01*
X0189454Y0377231D01*
X0193291Y0377231D02*
X0194058Y0376464D01*
X0194058Y0375696D01*
X0196360Y0377231D02*
X0198662Y0377231D01*
X0198662Y0375696D02*
X0198662Y0378766D01*
X0197895Y0379533D01*
X0196360Y0379533D01*
X0195593Y0378766D01*
X0195593Y0377998D01*
X0196360Y0377231D01*
X0197895Y0374929D02*
X0198662Y0375696D01*
X0193702Y0369909D02*
X0190632Y0369909D01*
X0192167Y0369909D02*
X0192167Y0365306D01*
X0189098Y0366073D02*
X0189098Y0369142D01*
X0188330Y0369909D01*
X0186796Y0369909D01*
X0186028Y0369142D01*
X0186028Y0366073D01*
X0186796Y0365306D01*
X0188330Y0365306D01*
X0189098Y0366073D01*
X0184494Y0366073D02*
X0184494Y0369142D01*
X0183726Y0369909D01*
X0182192Y0369909D01*
X0181424Y0369142D01*
X0181424Y0366073D01*
X0182192Y0365306D01*
X0183726Y0365306D01*
X0184494Y0366073D01*
X0179890Y0366073D02*
X0179122Y0365306D01*
X0176820Y0365306D01*
X0176820Y0369909D01*
X0179122Y0369909D01*
X0179890Y0369142D01*
X0179890Y0368375D01*
X0179122Y0367607D01*
X0176820Y0367607D01*
X0179122Y0367607D02*
X0179890Y0366840D01*
X0179890Y0366073D01*
X0186472Y0385418D02*
X0186472Y0390022D01*
X0188774Y0390022D01*
X0189542Y0389255D01*
X0189542Y0387720D01*
X0188774Y0386953D01*
X0186472Y0386953D01*
X0191076Y0387720D02*
X0192611Y0387720D01*
X0191076Y0385418D02*
X0194146Y0385418D01*
X0195680Y0385418D02*
X0198750Y0385418D01*
X0197215Y0385418D02*
X0197215Y0390022D01*
X0195680Y0388487D01*
X0194146Y0390022D02*
X0191076Y0390022D01*
X0191076Y0385418D01*
X0219934Y0385456D02*
X0219934Y0390060D01*
X0222236Y0390060D01*
X0223003Y0389293D01*
X0223003Y0387758D01*
X0222236Y0386991D01*
X0219934Y0386991D01*
X0220734Y0379817D02*
X0223036Y0379817D01*
X0223803Y0379050D01*
X0223803Y0377515D01*
X0223036Y0376748D01*
X0220734Y0376748D01*
X0220734Y0375213D02*
X0220734Y0379817D01*
X0225338Y0379817D02*
X0225338Y0375213D01*
X0227640Y0375213D01*
X0228407Y0375981D01*
X0228407Y0376748D01*
X0227640Y0377515D01*
X0225338Y0377515D01*
X0227640Y0377515D02*
X0228407Y0378283D01*
X0228407Y0379050D01*
X0227640Y0379817D01*
X0225338Y0379817D01*
X0224538Y0385456D02*
X0227607Y0385456D01*
X0229142Y0386223D02*
X0229142Y0389293D01*
X0229909Y0390060D01*
X0231444Y0390060D01*
X0232211Y0389293D01*
X0229142Y0386223D01*
X0229909Y0385456D01*
X0231444Y0385456D01*
X0232211Y0386223D01*
X0232211Y0389293D01*
X0227607Y0390060D02*
X0224538Y0390060D01*
X0224538Y0385456D01*
X0224538Y0387758D02*
X0226072Y0387758D01*
X0230709Y0379817D02*
X0229942Y0379050D01*
X0229942Y0378283D01*
X0230709Y0377515D01*
X0232244Y0377515D01*
X0233011Y0376748D01*
X0233011Y0375981D01*
X0232244Y0375213D01*
X0230709Y0375213D01*
X0229942Y0375981D01*
X0229942Y0376748D01*
X0230709Y0377515D01*
X0232244Y0377515D02*
X0233011Y0378283D01*
X0233011Y0379050D01*
X0232244Y0379817D01*
X0230709Y0379817D01*
X0232211Y0370475D02*
X0229142Y0370475D01*
X0227607Y0369707D02*
X0227607Y0368940D01*
X0226840Y0368173D01*
X0224538Y0368173D01*
X0223003Y0368173D02*
X0222236Y0367405D01*
X0219934Y0367405D01*
X0219934Y0365871D02*
X0219934Y0370475D01*
X0222236Y0370475D01*
X0223003Y0369707D01*
X0223003Y0368173D01*
X0224538Y0365871D02*
X0224538Y0370475D01*
X0226840Y0370475D01*
X0227607Y0369707D01*
X0226840Y0368173D02*
X0227607Y0367405D01*
X0227607Y0366638D01*
X0226840Y0365871D01*
X0224538Y0365871D01*
X0224838Y0360448D02*
X0227140Y0360448D01*
X0227907Y0359681D01*
X0227907Y0358913D01*
X0227140Y0358146D01*
X0224838Y0358146D01*
X0223303Y0358146D02*
X0223303Y0359681D01*
X0222536Y0360448D01*
X0220234Y0360448D01*
X0220234Y0355844D01*
X0220234Y0357379D02*
X0222536Y0357379D01*
X0223303Y0358146D01*
X0224838Y0355844D02*
X0224838Y0360448D01*
X0227140Y0358146D02*
X0227907Y0357379D01*
X0227907Y0356611D01*
X0227140Y0355844D01*
X0224838Y0355844D01*
X0224954Y0350605D02*
X0227255Y0350605D01*
X0228023Y0349838D01*
X0228023Y0349071D01*
X0227255Y0348304D01*
X0224954Y0348304D01*
X0223419Y0348304D02*
X0222652Y0347536D01*
X0220350Y0347536D01*
X0220350Y0346002D02*
X0220350Y0350605D01*
X0222652Y0350605D01*
X0223419Y0349838D01*
X0223419Y0348304D01*
X0224954Y0346002D02*
X0224954Y0350605D01*
X0227255Y0348304D02*
X0228023Y0347536D01*
X0228023Y0346769D01*
X0227255Y0346002D01*
X0224954Y0346002D01*
X0225621Y0340563D02*
X0224854Y0339796D01*
X0224854Y0336726D01*
X0225621Y0335959D01*
X0227155Y0335959D01*
X0227923Y0336726D01*
X0227923Y0338261D01*
X0226388Y0338261D01*
X0227923Y0339796D02*
X0227155Y0340563D01*
X0225621Y0340563D01*
X0223319Y0339796D02*
X0223319Y0338261D01*
X0222552Y0337494D01*
X0220250Y0337494D01*
X0220250Y0335959D02*
X0220250Y0340563D01*
X0222552Y0340563D01*
X0223319Y0339796D01*
X0222052Y0330320D02*
X0219750Y0330320D01*
X0219750Y0325717D01*
X0219750Y0327251D02*
X0222052Y0327251D01*
X0222819Y0328018D01*
X0222819Y0329553D01*
X0222052Y0330320D01*
X0224354Y0329553D02*
X0224354Y0326484D01*
X0225121Y0325717D01*
X0226655Y0325717D01*
X0227423Y0326484D01*
X0227423Y0328018D01*
X0225888Y0328018D01*
X0224354Y0329553D02*
X0225121Y0330320D01*
X0226655Y0330320D01*
X0227423Y0329553D01*
X0228957Y0328786D02*
X0230492Y0330320D01*
X0230492Y0325717D01*
X0228957Y0325717D02*
X0232027Y0325717D01*
X0233561Y0325717D02*
X0236631Y0328786D01*
X0236631Y0329553D01*
X0235863Y0330320D01*
X0234329Y0330320D01*
X0233561Y0329553D01*
X0233561Y0325717D02*
X0236631Y0325717D01*
X0236200Y0320007D02*
X0236967Y0319240D01*
X0233898Y0316170D01*
X0234665Y0315403D01*
X0236200Y0315403D01*
X0236967Y0316170D01*
X0236967Y0319240D01*
X0236200Y0320007D02*
X0234665Y0320007D01*
X0233898Y0319240D01*
X0233898Y0316170D01*
X0232363Y0315403D02*
X0229294Y0315403D01*
X0230828Y0315403D02*
X0230828Y0320007D01*
X0229294Y0318472D01*
X0227759Y0317705D02*
X0227759Y0316170D01*
X0226992Y0315403D01*
X0225457Y0315403D01*
X0224690Y0316170D01*
X0224690Y0319240D01*
X0225457Y0320007D01*
X0226992Y0320007D01*
X0227759Y0319240D01*
X0227759Y0317705D02*
X0226224Y0317705D01*
X0223155Y0317705D02*
X0222388Y0316938D01*
X0220086Y0316938D01*
X0220086Y0315403D02*
X0220086Y0320007D01*
X0222388Y0320007D01*
X0223155Y0319240D01*
X0223155Y0317705D01*
X0223154Y0309670D02*
X0220852Y0309670D01*
X0220852Y0305066D01*
X0220852Y0306601D02*
X0223154Y0306601D01*
X0223921Y0307368D01*
X0223921Y0308903D01*
X0223154Y0309670D01*
X0225456Y0309670D02*
X0225456Y0305066D01*
X0227758Y0305066D01*
X0228525Y0305833D01*
X0228525Y0308903D01*
X0227758Y0309670D01*
X0225456Y0309670D01*
X0230060Y0309670D02*
X0233129Y0309670D01*
X0233129Y0308903D01*
X0230060Y0305833D01*
X0230060Y0305066D01*
X0230057Y0300209D02*
X0230057Y0297907D01*
X0231592Y0298674D01*
X0232359Y0298674D01*
X0233127Y0297907D01*
X0233127Y0296372D01*
X0232359Y0295605D01*
X0230825Y0295605D01*
X0230057Y0296372D01*
X0228523Y0296372D02*
X0227755Y0295605D01*
X0225454Y0295605D01*
X0225454Y0300209D01*
X0227755Y0300209D01*
X0228523Y0299441D01*
X0228523Y0296372D01*
X0230057Y0300209D02*
X0233127Y0300209D01*
X0232359Y0290366D02*
X0230825Y0290366D01*
X0230057Y0289599D01*
X0228523Y0289599D02*
X0228523Y0286530D01*
X0227755Y0285762D01*
X0225454Y0285762D01*
X0225454Y0290366D01*
X0227755Y0290366D01*
X0228523Y0289599D01*
X0230057Y0286530D02*
X0230825Y0285762D01*
X0232359Y0285762D01*
X0233127Y0286530D01*
X0233127Y0287297D01*
X0232359Y0288064D01*
X0231592Y0288064D01*
X0232359Y0288064D02*
X0233127Y0288831D01*
X0233127Y0289599D01*
X0232359Y0290366D01*
X0231592Y0280524D02*
X0231592Y0275920D01*
X0230057Y0275920D02*
X0233127Y0275920D01*
X0230057Y0278989D02*
X0231592Y0280524D01*
X0228523Y0279756D02*
X0228523Y0276687D01*
X0227755Y0275920D01*
X0225454Y0275920D01*
X0225454Y0280524D01*
X0227755Y0280524D01*
X0228523Y0279756D01*
X0223919Y0279756D02*
X0223919Y0278222D01*
X0223152Y0277454D01*
X0220850Y0277454D01*
X0220850Y0275920D02*
X0220850Y0280524D01*
X0223152Y0280524D01*
X0223919Y0279756D01*
X0223152Y0287297D02*
X0220850Y0287297D01*
X0220850Y0285762D02*
X0220850Y0290366D01*
X0223152Y0290366D01*
X0223919Y0289599D01*
X0223919Y0288064D01*
X0223152Y0287297D01*
X0220850Y0295605D02*
X0220850Y0300209D01*
X0223152Y0300209D01*
X0223919Y0299441D01*
X0223919Y0297907D01*
X0223152Y0297139D01*
X0220850Y0297139D01*
X0220850Y0270681D02*
X0223152Y0270681D01*
X0223919Y0269914D01*
X0223919Y0268379D01*
X0223152Y0267612D01*
X0220850Y0267612D01*
X0220850Y0266077D02*
X0220850Y0270681D01*
X0225454Y0269914D02*
X0225454Y0266844D01*
X0226221Y0266077D01*
X0227755Y0266077D01*
X0228523Y0266844D01*
X0230057Y0266077D02*
X0233127Y0266077D01*
X0234661Y0266077D02*
X0237731Y0269146D01*
X0237731Y0269914D01*
X0236963Y0270681D01*
X0235429Y0270681D01*
X0234661Y0269914D01*
X0231592Y0270681D02*
X0231592Y0266077D01*
X0234661Y0266077D02*
X0237731Y0266077D01*
X0236963Y0260839D02*
X0235429Y0260839D01*
X0234661Y0260071D01*
X0234661Y0257002D01*
X0237731Y0260071D01*
X0237731Y0257002D01*
X0236963Y0256235D01*
X0235429Y0256235D01*
X0234661Y0257002D01*
X0233127Y0256235D02*
X0230057Y0256235D01*
X0231592Y0256235D02*
X0231592Y0260839D01*
X0230057Y0259304D01*
X0228523Y0260071D02*
X0227755Y0260839D01*
X0226221Y0260839D01*
X0225454Y0260071D01*
X0225454Y0257002D01*
X0226221Y0256235D01*
X0227755Y0256235D01*
X0228523Y0257002D01*
X0223919Y0258537D02*
X0223919Y0260071D01*
X0223152Y0260839D01*
X0220850Y0260839D01*
X0220850Y0256235D01*
X0220850Y0257769D02*
X0223152Y0257769D01*
X0223919Y0258537D01*
X0223152Y0250996D02*
X0223919Y0250229D01*
X0223919Y0248694D01*
X0223152Y0247927D01*
X0220850Y0247927D01*
X0220850Y0246392D02*
X0220850Y0250996D01*
X0223152Y0250996D01*
X0225454Y0249461D02*
X0226988Y0250996D01*
X0228523Y0249461D01*
X0228523Y0246392D01*
X0230057Y0246392D02*
X0233127Y0246392D01*
X0231592Y0246392D02*
X0231592Y0250996D01*
X0230057Y0249461D01*
X0228523Y0248694D02*
X0225454Y0248694D01*
X0225454Y0249461D02*
X0225454Y0246392D01*
X0226988Y0240169D02*
X0225454Y0238635D01*
X0225454Y0235565D01*
X0225454Y0237867D02*
X0228523Y0237867D01*
X0228523Y0238635D02*
X0228523Y0235565D01*
X0230057Y0235565D02*
X0233127Y0235565D01*
X0234661Y0235565D02*
X0237731Y0238635D01*
X0237731Y0239402D01*
X0236963Y0240169D01*
X0235429Y0240169D01*
X0234661Y0239402D01*
X0231592Y0240169D02*
X0231592Y0235565D01*
X0234661Y0235565D02*
X0237731Y0235565D01*
X0236963Y0230327D02*
X0235429Y0230327D01*
X0234661Y0229559D01*
X0234661Y0226490D01*
X0237731Y0229559D01*
X0237731Y0226490D01*
X0236963Y0225723D01*
X0235429Y0225723D01*
X0234661Y0226490D01*
X0233127Y0225723D02*
X0230057Y0225723D01*
X0228523Y0225723D02*
X0228523Y0228792D01*
X0226988Y0230327D01*
X0225454Y0228792D01*
X0225454Y0225723D01*
X0225454Y0228025D02*
X0228523Y0228025D01*
X0230057Y0228792D02*
X0231592Y0230327D01*
X0231592Y0225723D01*
X0230825Y0220484D02*
X0232359Y0220484D01*
X0233127Y0219717D01*
X0233127Y0218950D01*
X0232359Y0218182D01*
X0230825Y0218182D01*
X0230057Y0218950D01*
X0230057Y0219717D01*
X0230825Y0220484D01*
X0230825Y0218182D02*
X0230057Y0217415D01*
X0230057Y0216648D01*
X0230825Y0215880D01*
X0232359Y0215880D01*
X0233127Y0216648D01*
X0233127Y0217415D01*
X0232359Y0218182D01*
X0228523Y0218182D02*
X0225454Y0218182D01*
X0225454Y0218950D02*
X0226988Y0220484D01*
X0228523Y0218950D01*
X0228523Y0215880D01*
X0225454Y0215880D02*
X0225454Y0218950D01*
X0223919Y0219717D02*
X0223919Y0218182D01*
X0223152Y0217415D01*
X0220850Y0217415D01*
X0220850Y0215880D02*
X0220850Y0220484D01*
X0223152Y0220484D01*
X0223919Y0219717D01*
X0220850Y0225723D02*
X0220850Y0230327D01*
X0223152Y0230327D01*
X0223919Y0229559D01*
X0223919Y0228025D01*
X0223152Y0227257D01*
X0220850Y0227257D01*
X0220850Y0235565D02*
X0220850Y0240169D01*
X0223152Y0240169D01*
X0223919Y0239402D01*
X0223919Y0237867D01*
X0223152Y0237100D01*
X0220850Y0237100D01*
X0226988Y0240169D02*
X0228523Y0238635D01*
X0230057Y0238635D02*
X0231592Y0240169D01*
X0236963Y0246392D02*
X0236963Y0250996D01*
X0234661Y0248694D01*
X0237731Y0248694D01*
X0237731Y0260071D02*
X0236963Y0260839D01*
X0230057Y0269146D02*
X0231592Y0270681D01*
X0228523Y0269914D02*
X0227755Y0270681D01*
X0226221Y0270681D01*
X0225454Y0269914D01*
X0236963Y0230327D02*
X0237731Y0229559D01*
X0232359Y0210642D02*
X0230825Y0210642D01*
X0230057Y0209874D01*
X0230057Y0209107D01*
X0230825Y0208340D01*
X0232359Y0208340D01*
X0233127Y0207572D01*
X0233127Y0206805D01*
X0232359Y0206038D01*
X0230825Y0206038D01*
X0230057Y0206805D01*
X0230057Y0207572D01*
X0230825Y0208340D01*
X0232359Y0208340D02*
X0233127Y0209107D01*
X0233127Y0209874D01*
X0232359Y0210642D01*
X0228523Y0209874D02*
X0227755Y0210642D01*
X0226221Y0210642D01*
X0225454Y0209874D01*
X0225454Y0206805D01*
X0226221Y0206038D01*
X0227755Y0206038D01*
X0228523Y0206805D01*
X0223919Y0208340D02*
X0223919Y0209874D01*
X0223152Y0210642D01*
X0220850Y0210642D01*
X0220850Y0206038D01*
X0220850Y0207572D02*
X0223152Y0207572D01*
X0223919Y0208340D01*
X0223152Y0200799D02*
X0223919Y0200032D01*
X0223919Y0198497D01*
X0223152Y0197730D01*
X0220850Y0197730D01*
X0220850Y0196195D02*
X0220850Y0200799D01*
X0223152Y0200799D01*
X0225454Y0200032D02*
X0225454Y0196963D01*
X0226221Y0196195D01*
X0227755Y0196195D01*
X0228523Y0196963D01*
X0230057Y0196963D02*
X0230825Y0196195D01*
X0232359Y0196195D01*
X0233127Y0196963D01*
X0233127Y0197730D01*
X0232359Y0198497D01*
X0230057Y0198497D01*
X0230057Y0196963D01*
X0230057Y0198497D02*
X0231592Y0200032D01*
X0233127Y0200799D01*
X0228523Y0200032D02*
X0227755Y0200799D01*
X0226221Y0200799D01*
X0225454Y0200032D01*
X0226221Y0190957D02*
X0225454Y0190189D01*
X0225454Y0187120D01*
X0226221Y0186353D01*
X0227755Y0186353D01*
X0228523Y0187120D01*
X0228523Y0188655D01*
X0226988Y0188655D01*
X0228523Y0190189D02*
X0227755Y0190957D01*
X0226221Y0190957D01*
X0223919Y0190189D02*
X0223919Y0188655D01*
X0223152Y0187887D01*
X0220850Y0187887D01*
X0220850Y0186353D02*
X0220850Y0190957D01*
X0223152Y0190957D01*
X0223919Y0190189D01*
X0230057Y0190957D02*
X0233127Y0190957D01*
X0233127Y0190189D01*
X0230057Y0187120D01*
X0230057Y0186353D01*
X0230057Y0180130D02*
X0230057Y0177828D01*
X0231592Y0178595D01*
X0232359Y0178595D01*
X0233127Y0177828D01*
X0233127Y0176293D01*
X0232359Y0175526D01*
X0230825Y0175526D01*
X0230057Y0176293D01*
X0228523Y0176293D02*
X0228523Y0177828D01*
X0226988Y0177828D01*
X0225454Y0179363D02*
X0226221Y0180130D01*
X0227755Y0180130D01*
X0228523Y0179363D01*
X0230057Y0180130D02*
X0233127Y0180130D01*
X0228523Y0176293D02*
X0227755Y0175526D01*
X0226221Y0175526D01*
X0225454Y0176293D01*
X0225454Y0179363D01*
X0223919Y0179363D02*
X0223919Y0177828D01*
X0223152Y0177061D01*
X0220850Y0177061D01*
X0220850Y0175526D02*
X0220850Y0180130D01*
X0223152Y0180130D01*
X0223919Y0179363D01*
X0223152Y0170287D02*
X0220850Y0170287D01*
X0220850Y0165683D01*
X0220850Y0167218D02*
X0223152Y0167218D01*
X0223919Y0167985D01*
X0223919Y0169520D01*
X0223152Y0170287D01*
X0225454Y0169520D02*
X0225454Y0166451D01*
X0226221Y0165683D01*
X0227755Y0165683D01*
X0228523Y0166451D01*
X0228523Y0167985D01*
X0226988Y0167985D01*
X0225454Y0169520D02*
X0226221Y0170287D01*
X0227755Y0170287D01*
X0228523Y0169520D01*
X0230057Y0169520D02*
X0230825Y0170287D01*
X0232359Y0170287D01*
X0233127Y0169520D01*
X0233127Y0168753D01*
X0232359Y0167985D01*
X0233127Y0167218D01*
X0233127Y0166451D01*
X0232359Y0165683D01*
X0230825Y0165683D01*
X0230057Y0166451D01*
X0231592Y0167985D02*
X0232359Y0167985D01*
X0231592Y0160445D02*
X0230057Y0158910D01*
X0228523Y0159678D02*
X0228523Y0156608D01*
X0227755Y0155841D01*
X0225454Y0155841D01*
X0225454Y0160445D01*
X0227755Y0160445D01*
X0228523Y0159678D01*
X0230057Y0155841D02*
X0233127Y0155841D01*
X0231592Y0155841D02*
X0231592Y0160445D01*
X0234661Y0160445D02*
X0234661Y0158143D01*
X0236196Y0158910D01*
X0236963Y0158910D01*
X0237731Y0158143D01*
X0237731Y0156608D01*
X0236963Y0155841D01*
X0235429Y0155841D01*
X0234661Y0156608D01*
X0234661Y0160445D02*
X0237731Y0160445D01*
X0236963Y0150602D02*
X0235429Y0150602D01*
X0234661Y0149835D01*
X0236196Y0148300D02*
X0236963Y0148300D01*
X0237731Y0147533D01*
X0237731Y0146766D01*
X0236963Y0145998D01*
X0235429Y0145998D01*
X0234661Y0146766D01*
X0233127Y0145998D02*
X0230057Y0145998D01*
X0231592Y0145998D02*
X0231592Y0150602D01*
X0230057Y0149068D01*
X0228523Y0149835D02*
X0227755Y0150602D01*
X0225454Y0150602D01*
X0225454Y0145998D01*
X0227755Y0145998D01*
X0228523Y0146766D01*
X0228523Y0149835D01*
X0223919Y0149835D02*
X0223919Y0148300D01*
X0223152Y0147533D01*
X0220850Y0147533D01*
X0220850Y0145998D02*
X0220850Y0150602D01*
X0223152Y0150602D01*
X0223919Y0149835D01*
X0220850Y0155841D02*
X0220850Y0160445D01*
X0223152Y0160445D01*
X0223919Y0159678D01*
X0223919Y0158143D01*
X0223152Y0157376D01*
X0220850Y0157376D01*
X0220850Y0140760D02*
X0223152Y0140760D01*
X0223919Y0139993D01*
X0223919Y0138458D01*
X0223152Y0137691D01*
X0220850Y0137691D01*
X0220850Y0136156D02*
X0220850Y0140760D01*
X0225454Y0140760D02*
X0225454Y0136156D01*
X0227755Y0136156D01*
X0228523Y0136923D01*
X0228523Y0139993D01*
X0227755Y0140760D01*
X0225454Y0140760D01*
X0230057Y0139225D02*
X0231592Y0140760D01*
X0231592Y0136156D01*
X0230057Y0136156D02*
X0233127Y0136156D01*
X0234661Y0136156D02*
X0237731Y0136156D01*
X0236196Y0136156D02*
X0236196Y0140760D01*
X0234661Y0139225D01*
X0232359Y0130917D02*
X0230825Y0130917D01*
X0230057Y0130150D01*
X0230057Y0129383D01*
X0230825Y0128615D01*
X0233127Y0128615D01*
X0233127Y0127081D02*
X0233127Y0130150D01*
X0232359Y0130917D01*
X0233127Y0127081D02*
X0232359Y0126313D01*
X0230825Y0126313D01*
X0230057Y0127081D01*
X0228523Y0127081D02*
X0228523Y0130150D01*
X0227755Y0130917D01*
X0225454Y0130917D01*
X0225454Y0126313D01*
X0227755Y0126313D01*
X0228523Y0127081D01*
X0223919Y0128615D02*
X0223919Y0130150D01*
X0223152Y0130917D01*
X0220850Y0130917D01*
X0220850Y0126313D01*
X0220850Y0127848D02*
X0223152Y0127848D01*
X0223919Y0128615D01*
X0223152Y0120091D02*
X0220850Y0120091D01*
X0220850Y0115487D01*
X0220850Y0117021D02*
X0223152Y0117021D01*
X0223919Y0117789D01*
X0223919Y0119323D01*
X0223152Y0120091D01*
X0225454Y0120091D02*
X0225454Y0115487D01*
X0227755Y0115487D01*
X0228523Y0116254D01*
X0228523Y0117021D01*
X0227755Y0117789D01*
X0225454Y0117789D01*
X0227755Y0117789D02*
X0228523Y0118556D01*
X0228523Y0119323D01*
X0227755Y0120091D01*
X0225454Y0120091D01*
X0230057Y0118556D02*
X0231592Y0120091D01*
X0231592Y0115487D01*
X0230057Y0115487D02*
X0233127Y0115487D01*
X0234661Y0116254D02*
X0235429Y0115487D01*
X0236963Y0115487D01*
X0237731Y0116254D01*
X0237731Y0117789D01*
X0236963Y0118556D01*
X0236196Y0118556D01*
X0234661Y0117789D01*
X0234661Y0120091D01*
X0237731Y0120091D01*
X0236963Y0110248D02*
X0235429Y0110248D01*
X0234661Y0109481D01*
X0236196Y0107946D02*
X0236963Y0107946D01*
X0237731Y0107179D01*
X0237731Y0106411D01*
X0236963Y0105644D01*
X0235429Y0105644D01*
X0234661Y0106411D01*
X0233127Y0105644D02*
X0230057Y0105644D01*
X0231592Y0105644D02*
X0231592Y0110248D01*
X0230057Y0108713D01*
X0228523Y0108713D02*
X0227755Y0107946D01*
X0225454Y0107946D01*
X0223919Y0107946D02*
X0223152Y0107179D01*
X0220850Y0107179D01*
X0220850Y0105644D02*
X0220850Y0110248D01*
X0223152Y0110248D01*
X0223919Y0109481D01*
X0223919Y0107946D01*
X0225454Y0105644D02*
X0227755Y0105644D01*
X0228523Y0106411D01*
X0228523Y0107179D01*
X0227755Y0107946D01*
X0228523Y0108713D02*
X0228523Y0109481D01*
X0227755Y0110248D01*
X0225454Y0110248D01*
X0225454Y0105644D01*
X0225454Y0100405D02*
X0228523Y0095802D01*
X0228523Y0100405D01*
X0230057Y0100405D02*
X0232359Y0100405D01*
X0233127Y0099638D01*
X0233127Y0096569D01*
X0232359Y0095802D01*
X0230057Y0095802D01*
X0230057Y0100405D01*
X0225454Y0100405D02*
X0225454Y0095802D01*
X0223919Y0096569D02*
X0223919Y0098104D01*
X0222384Y0098104D01*
X0220850Y0099638D02*
X0221617Y0100405D01*
X0223152Y0100405D01*
X0223919Y0099638D01*
X0223919Y0096569D02*
X0223152Y0095802D01*
X0221617Y0095802D01*
X0220850Y0096569D01*
X0220850Y0099638D01*
X0236963Y0107946D02*
X0237731Y0108713D01*
X0237731Y0109481D01*
X0236963Y0110248D01*
X0236963Y0148300D02*
X0237731Y0149068D01*
X0237731Y0149835D01*
X0236963Y0150602D01*
X0198062Y0099505D02*
X0196527Y0099505D01*
X0195760Y0098738D01*
X0198062Y0099505D02*
X0198829Y0098738D01*
X0198829Y0097971D01*
X0195760Y0094902D01*
X0198829Y0094902D01*
X0194225Y0094902D02*
X0191156Y0094902D01*
X0192691Y0094902D02*
X0192691Y0099505D01*
X0191156Y0097971D01*
X0189621Y0097971D02*
X0188854Y0097204D01*
X0186552Y0097204D01*
X0185017Y0097204D02*
X0184250Y0096436D01*
X0181948Y0096436D01*
X0181948Y0094902D02*
X0181948Y0099505D01*
X0184250Y0099505D01*
X0185017Y0098738D01*
X0185017Y0097204D01*
X0186552Y0099505D02*
X0188854Y0099505D01*
X0189621Y0098738D01*
X0189621Y0097971D01*
X0188854Y0097204D02*
X0189621Y0096436D01*
X0189621Y0095669D01*
X0188854Y0094902D01*
X0186552Y0094902D01*
X0186552Y0099505D01*
X0181748Y0125129D02*
X0181748Y0129733D01*
X0184050Y0129733D01*
X0184817Y0128966D01*
X0184817Y0127431D01*
X0184050Y0126664D01*
X0181748Y0126664D01*
X0181148Y0135156D02*
X0181148Y0139760D01*
X0183450Y0139760D01*
X0184217Y0138993D01*
X0184217Y0137458D01*
X0183450Y0136691D01*
X0181148Y0136691D01*
X0181348Y0145798D02*
X0181348Y0150402D01*
X0183650Y0150402D01*
X0184417Y0149635D01*
X0184417Y0148100D01*
X0183650Y0147333D01*
X0181348Y0147333D01*
X0189705Y0176093D02*
X0189705Y0179163D01*
X0196544Y0225723D02*
X0199613Y0225723D01*
X0198079Y0225723D02*
X0198079Y0230327D01*
X0196544Y0228792D01*
X0197429Y0235565D02*
X0196662Y0236333D01*
X0197429Y0235565D02*
X0198964Y0235565D01*
X0199731Y0236333D01*
X0199731Y0237100D01*
X0198964Y0237867D01*
X0198197Y0237867D01*
X0198964Y0237867D02*
X0199731Y0238635D01*
X0199731Y0239402D01*
X0198964Y0240169D01*
X0197429Y0240169D01*
X0196662Y0239402D01*
X0197027Y0245492D02*
X0196260Y0246259D01*
X0197027Y0245492D02*
X0198562Y0245492D01*
X0199329Y0246259D01*
X0199329Y0247794D01*
X0198562Y0248561D01*
X0197794Y0248561D01*
X0196260Y0247794D01*
X0196260Y0250096D01*
X0199329Y0250096D01*
X0199529Y0255635D02*
X0196460Y0255635D01*
X0197994Y0255635D02*
X0197994Y0260239D01*
X0196460Y0258704D01*
X0185601Y0278220D02*
X0185601Y0282824D01*
X0187903Y0282824D01*
X0188670Y0282056D01*
X0188670Y0280522D01*
X0187903Y0279754D01*
X0185601Y0279754D01*
X0184701Y0285962D02*
X0184701Y0290566D01*
X0187003Y0290566D01*
X0187770Y0289799D01*
X0187770Y0288264D01*
X0187003Y0287497D01*
X0184701Y0287497D01*
X0185401Y0305331D02*
X0185401Y0309935D01*
X0187703Y0309935D01*
X0188470Y0309168D01*
X0188470Y0307633D01*
X0187703Y0306866D01*
X0185401Y0306866D01*
X0229457Y0335959D02*
X0232527Y0335959D01*
X0230992Y0335959D02*
X0230992Y0340563D01*
X0229457Y0339028D01*
X0230325Y0346002D02*
X0229557Y0346769D01*
X0230325Y0346002D02*
X0231859Y0346002D01*
X0232627Y0346769D01*
X0232627Y0347536D01*
X0231859Y0348304D01*
X0231092Y0348304D01*
X0231859Y0348304D02*
X0232627Y0349071D01*
X0232627Y0349838D01*
X0231859Y0350605D01*
X0230325Y0350605D01*
X0229557Y0349838D01*
X0230209Y0355844D02*
X0229442Y0356611D01*
X0230209Y0355844D02*
X0231744Y0355844D01*
X0232511Y0356611D01*
X0232511Y0358146D01*
X0231744Y0358913D01*
X0230976Y0358913D01*
X0229442Y0358146D01*
X0229442Y0360448D01*
X0232511Y0360448D01*
X0229142Y0365871D02*
X0229142Y0366638D01*
X0232211Y0369707D01*
X0232211Y0370475D01*
X0236363Y0340563D02*
X0234061Y0338261D01*
X0237131Y0338261D01*
X0236363Y0335959D02*
X0236363Y0340563D01*
X0064502Y0358930D02*
X0061433Y0358930D01*
X0063735Y0361232D01*
X0063735Y0356628D01*
X0059898Y0356628D02*
X0056829Y0356628D01*
X0058364Y0356628D02*
X0058364Y0361232D01*
X0056829Y0359698D01*
X0055294Y0360465D02*
X0054527Y0361232D01*
X0052992Y0361232D01*
X0052225Y0360465D01*
X0052225Y0357396D01*
X0052992Y0356628D01*
X0054527Y0356628D01*
X0055294Y0357396D01*
X0050691Y0358930D02*
X0049923Y0358163D01*
X0047621Y0358163D01*
X0047621Y0356628D02*
X0047621Y0361232D01*
X0049923Y0361232D01*
X0050691Y0360465D01*
X0050691Y0358930D01*
X0052225Y0366471D02*
X0054527Y0366471D01*
X0055294Y0367238D01*
X0055294Y0368005D01*
X0054527Y0368773D01*
X0052225Y0368773D01*
X0050691Y0368005D02*
X0050691Y0371075D01*
X0052225Y0371075D02*
X0052225Y0366471D01*
X0050691Y0368005D02*
X0049156Y0366471D01*
X0047621Y0368005D01*
X0047621Y0371075D01*
X0052225Y0371075D02*
X0054527Y0371075D01*
X0055294Y0370307D01*
X0055294Y0369540D01*
X0054527Y0368773D01*
X0056829Y0368773D02*
X0059898Y0368773D01*
X0059898Y0369540D02*
X0059898Y0366471D01*
X0059898Y0369540D02*
X0058364Y0371075D01*
X0056829Y0369540D01*
X0056829Y0366471D01*
X0061433Y0371075D02*
X0064502Y0371075D01*
X0062968Y0371075D02*
X0062968Y0366471D01*
X0059131Y0376313D02*
X0057596Y0376313D01*
X0056829Y0377081D01*
X0056829Y0378615D02*
X0058364Y0379383D01*
X0059131Y0379383D01*
X0059898Y0378615D01*
X0059898Y0377081D01*
X0059131Y0376313D01*
X0056829Y0378615D02*
X0056829Y0380917D01*
X0059898Y0380917D01*
X0058737Y0385762D02*
X0057203Y0385762D01*
X0056435Y0386530D01*
X0054901Y0385762D02*
X0051831Y0385762D01*
X0051831Y0390366D01*
X0054901Y0390366D01*
X0056435Y0389599D02*
X0057203Y0390366D01*
X0058737Y0390366D01*
X0059505Y0389599D01*
X0059505Y0388831D01*
X0058737Y0388064D01*
X0059505Y0387297D01*
X0059505Y0386530D01*
X0058737Y0385762D01*
X0058737Y0388064D02*
X0057970Y0388064D01*
X0055294Y0380917D02*
X0052225Y0380917D01*
X0052225Y0376313D01*
X0055294Y0376313D01*
X0053760Y0378615D02*
X0052225Y0378615D01*
X0050691Y0378615D02*
X0050691Y0380150D01*
X0049923Y0380917D01*
X0047621Y0380917D01*
X0047621Y0376313D01*
X0047621Y0377848D02*
X0049923Y0377848D01*
X0050691Y0378615D01*
X0047228Y0385762D02*
X0047228Y0390366D01*
X0049530Y0390366D01*
X0050297Y0389599D01*
X0050297Y0388064D01*
X0049530Y0387297D01*
X0047228Y0387297D01*
X0051831Y0388064D02*
X0053366Y0388064D01*
X0052225Y0350405D02*
X0055294Y0350405D01*
X0056829Y0349638D02*
X0057596Y0350405D01*
X0059131Y0350405D01*
X0059898Y0349638D01*
X0056829Y0346569D01*
X0057596Y0345802D01*
X0059131Y0345802D01*
X0059898Y0346569D01*
X0059898Y0349638D01*
X0056829Y0349638D02*
X0056829Y0346569D01*
X0053760Y0348104D02*
X0052225Y0348104D01*
X0050691Y0348104D02*
X0049923Y0347336D01*
X0047621Y0347336D01*
X0047621Y0345802D02*
X0047621Y0350405D01*
X0049923Y0350405D01*
X0050691Y0349638D01*
X0050691Y0348104D01*
X0052225Y0350405D02*
X0052225Y0345802D01*
X0052225Y0340563D02*
X0055294Y0340563D01*
X0056829Y0339796D02*
X0057596Y0340563D01*
X0059131Y0340563D01*
X0059898Y0339796D01*
X0059898Y0339028D01*
X0056829Y0335959D01*
X0059898Y0335959D01*
X0059131Y0330720D02*
X0056829Y0328418D01*
X0059898Y0328418D01*
X0059131Y0326117D02*
X0059131Y0330720D01*
X0055294Y0330720D02*
X0052225Y0330720D01*
X0052225Y0326117D01*
X0052225Y0328418D02*
X0053760Y0328418D01*
X0050691Y0328418D02*
X0050691Y0329953D01*
X0049923Y0330720D01*
X0047621Y0330720D01*
X0047621Y0326117D01*
X0047621Y0327651D02*
X0049923Y0327651D01*
X0050691Y0328418D01*
X0049923Y0320878D02*
X0047621Y0320878D01*
X0047621Y0316274D01*
X0047621Y0317809D02*
X0049923Y0317809D01*
X0050691Y0318576D01*
X0050691Y0320111D01*
X0049923Y0320878D01*
X0052225Y0320878D02*
X0052225Y0316274D01*
X0052225Y0318576D02*
X0053760Y0318576D01*
X0052225Y0320878D02*
X0055294Y0320878D01*
X0056829Y0318576D02*
X0059131Y0318576D01*
X0059898Y0317809D01*
X0059898Y0317041D01*
X0059131Y0316274D01*
X0057596Y0316274D01*
X0056829Y0317041D01*
X0056829Y0318576D01*
X0058364Y0320111D01*
X0059898Y0320878D01*
X0059131Y0311035D02*
X0059898Y0310268D01*
X0059898Y0309501D01*
X0059131Y0308733D01*
X0057596Y0308733D01*
X0056829Y0309501D01*
X0056829Y0310268D01*
X0057596Y0311035D01*
X0059131Y0311035D01*
X0059131Y0308733D02*
X0059898Y0307966D01*
X0059898Y0307199D01*
X0059131Y0306431D01*
X0057596Y0306431D01*
X0056829Y0307199D01*
X0056829Y0307966D01*
X0057596Y0308733D01*
X0055294Y0311035D02*
X0052225Y0311035D01*
X0052225Y0306431D01*
X0052225Y0308733D02*
X0053760Y0308733D01*
X0050691Y0308733D02*
X0050691Y0310268D01*
X0049923Y0311035D01*
X0047621Y0311035D01*
X0047621Y0306431D01*
X0047621Y0307966D02*
X0049923Y0307966D01*
X0050691Y0308733D01*
X0049923Y0300209D02*
X0047621Y0300209D01*
X0047621Y0295605D01*
X0047621Y0297139D02*
X0049923Y0297139D01*
X0050691Y0297907D01*
X0050691Y0299441D01*
X0049923Y0300209D01*
X0052225Y0300209D02*
X0052225Y0295605D01*
X0052225Y0297907D02*
X0053760Y0297907D01*
X0052225Y0300209D02*
X0055294Y0300209D01*
X0056829Y0298674D02*
X0058364Y0300209D01*
X0058364Y0295605D01*
X0059898Y0295605D02*
X0056829Y0295605D01*
X0055294Y0290366D02*
X0055294Y0285762D01*
X0056829Y0285762D02*
X0059898Y0285762D01*
X0058364Y0285762D02*
X0058364Y0290366D01*
X0056829Y0288831D01*
X0055294Y0288064D02*
X0052225Y0288064D01*
X0050691Y0288064D02*
X0049923Y0287297D01*
X0047621Y0287297D01*
X0047621Y0285762D02*
X0047621Y0290366D01*
X0049923Y0290366D01*
X0050691Y0289599D01*
X0050691Y0288064D01*
X0052225Y0285762D02*
X0052225Y0290366D01*
X0052692Y0281392D02*
X0051925Y0280625D01*
X0051925Y0277555D01*
X0052692Y0276788D01*
X0054227Y0276788D01*
X0054994Y0277555D01*
X0056529Y0277555D02*
X0059598Y0280625D01*
X0059598Y0277555D01*
X0058831Y0276788D01*
X0057296Y0276788D01*
X0056529Y0277555D01*
X0056529Y0280625D01*
X0057296Y0281392D01*
X0058831Y0281392D01*
X0059598Y0280625D01*
X0054994Y0280625D02*
X0054227Y0281392D01*
X0052692Y0281392D01*
X0050391Y0280625D02*
X0050391Y0279090D01*
X0049623Y0278323D01*
X0047321Y0278323D01*
X0047321Y0276788D02*
X0047321Y0281392D01*
X0049623Y0281392D01*
X0050391Y0280625D01*
X0049580Y0270684D02*
X0047278Y0270684D01*
X0047278Y0266080D01*
X0047278Y0267615D02*
X0049580Y0267615D01*
X0050347Y0268382D01*
X0050347Y0269917D01*
X0049580Y0270684D01*
X0051882Y0269917D02*
X0051882Y0266848D01*
X0052649Y0266080D01*
X0054184Y0266080D01*
X0054951Y0266848D01*
X0056486Y0266080D02*
X0059555Y0269150D01*
X0059555Y0269917D01*
X0058788Y0270684D01*
X0057253Y0270684D01*
X0056486Y0269917D01*
X0054951Y0269917D02*
X0054184Y0270684D01*
X0052649Y0270684D01*
X0051882Y0269917D01*
X0056486Y0266080D02*
X0059555Y0266080D01*
X0059045Y0260484D02*
X0059813Y0259717D01*
X0056743Y0256648D01*
X0057511Y0255880D01*
X0059045Y0255880D01*
X0059813Y0256648D01*
X0059813Y0259717D01*
X0059045Y0260484D02*
X0057511Y0260484D01*
X0056743Y0259717D01*
X0056743Y0256648D01*
X0055209Y0255880D02*
X0055209Y0258950D01*
X0053674Y0260484D01*
X0052139Y0258950D01*
X0052139Y0255880D01*
X0052139Y0258182D02*
X0055209Y0258182D01*
X0057068Y0250984D02*
X0056301Y0250217D01*
X0057068Y0250984D02*
X0058603Y0250984D01*
X0059370Y0250217D01*
X0059370Y0249450D01*
X0056301Y0246380D01*
X0059370Y0246380D01*
X0054766Y0246380D02*
X0054766Y0249450D01*
X0053231Y0250984D01*
X0051697Y0249450D01*
X0051697Y0246380D01*
X0051697Y0248682D02*
X0054766Y0248682D01*
X0050162Y0248682D02*
X0049395Y0247915D01*
X0047093Y0247915D01*
X0047093Y0246380D02*
X0047093Y0250984D01*
X0049395Y0250984D01*
X0050162Y0250217D01*
X0050162Y0248682D01*
X0047535Y0255880D02*
X0047535Y0260484D01*
X0049837Y0260484D01*
X0050605Y0259717D01*
X0050605Y0258182D01*
X0049837Y0257415D01*
X0047535Y0257415D01*
X0047621Y0240169D02*
X0049923Y0240169D01*
X0050691Y0239402D01*
X0050691Y0237867D01*
X0049923Y0237100D01*
X0047621Y0237100D01*
X0047621Y0235565D02*
X0047621Y0240169D01*
X0052225Y0238635D02*
X0052225Y0235565D01*
X0052225Y0237867D02*
X0055294Y0237867D01*
X0055294Y0238635D02*
X0055294Y0235565D01*
X0056829Y0237867D02*
X0059898Y0237867D01*
X0059131Y0235565D02*
X0059131Y0240169D01*
X0056829Y0237867D01*
X0055294Y0238635D02*
X0053760Y0240169D01*
X0052225Y0238635D01*
X0053160Y0230327D02*
X0054694Y0228792D01*
X0054694Y0225723D01*
X0056229Y0226490D02*
X0056996Y0225723D01*
X0058531Y0225723D01*
X0059298Y0226490D01*
X0059298Y0227257D01*
X0058531Y0228025D01*
X0056229Y0228025D01*
X0056229Y0226490D01*
X0056229Y0228025D02*
X0057764Y0229559D01*
X0059298Y0230327D01*
X0054694Y0228025D02*
X0051625Y0228025D01*
X0051625Y0228792D02*
X0053160Y0230327D01*
X0051625Y0228792D02*
X0051625Y0225723D01*
X0050091Y0228025D02*
X0049323Y0227257D01*
X0047021Y0227257D01*
X0047021Y0225723D02*
X0047021Y0230327D01*
X0049323Y0230327D01*
X0050091Y0229559D01*
X0050091Y0228025D01*
X0049523Y0220484D02*
X0047221Y0220484D01*
X0047221Y0215880D01*
X0047221Y0217415D02*
X0049523Y0217415D01*
X0050291Y0218182D01*
X0050291Y0219717D01*
X0049523Y0220484D01*
X0051825Y0219717D02*
X0051825Y0216648D01*
X0052592Y0215880D01*
X0054127Y0215880D01*
X0054894Y0216648D01*
X0056429Y0218182D02*
X0059498Y0218182D01*
X0058731Y0215880D02*
X0058731Y0220484D01*
X0056429Y0218182D01*
X0054894Y0219717D02*
X0054127Y0220484D01*
X0052592Y0220484D01*
X0051825Y0219717D01*
X0051625Y0210642D02*
X0053927Y0210642D01*
X0054694Y0209874D01*
X0054694Y0209107D01*
X0053927Y0208340D01*
X0051625Y0208340D01*
X0050091Y0208340D02*
X0049323Y0207572D01*
X0047021Y0207572D01*
X0047021Y0206038D02*
X0047021Y0210642D01*
X0049323Y0210642D01*
X0050091Y0209874D01*
X0050091Y0208340D01*
X0051625Y0206038D02*
X0051625Y0210642D01*
X0053927Y0208340D02*
X0054694Y0207572D01*
X0054694Y0206805D01*
X0053927Y0206038D01*
X0051625Y0206038D01*
X0056229Y0206805D02*
X0059298Y0209874D01*
X0059298Y0206805D01*
X0058531Y0206038D01*
X0056996Y0206038D01*
X0056229Y0206805D01*
X0056229Y0209874D01*
X0056996Y0210642D01*
X0058531Y0210642D01*
X0059298Y0209874D01*
X0058131Y0199899D02*
X0056596Y0199899D01*
X0055829Y0199132D01*
X0054294Y0199132D02*
X0054294Y0198365D01*
X0053527Y0197597D01*
X0051225Y0197597D01*
X0049691Y0197597D02*
X0048923Y0196830D01*
X0046621Y0196830D01*
X0046621Y0195295D02*
X0046621Y0199899D01*
X0048923Y0199899D01*
X0049691Y0199132D01*
X0049691Y0197597D01*
X0051225Y0195295D02*
X0051225Y0199899D01*
X0053527Y0199899D01*
X0054294Y0199132D01*
X0053527Y0197597D02*
X0054294Y0196830D01*
X0054294Y0196063D01*
X0053527Y0195295D01*
X0051225Y0195295D01*
X0051561Y0189697D02*
X0054631Y0189697D01*
X0056165Y0188162D02*
X0057700Y0189697D01*
X0057700Y0185093D01*
X0056165Y0185093D02*
X0059235Y0185093D01*
X0060769Y0185093D02*
X0063839Y0188162D01*
X0063839Y0188930D01*
X0063071Y0189697D01*
X0061537Y0189697D01*
X0060769Y0188930D01*
X0060769Y0185093D02*
X0063839Y0185093D01*
X0062711Y0180130D02*
X0060409Y0177828D01*
X0063478Y0177828D01*
X0062711Y0175526D02*
X0062711Y0180130D01*
X0057339Y0180130D02*
X0057339Y0175526D01*
X0055805Y0175526D02*
X0058874Y0175526D01*
X0055805Y0178595D02*
X0057339Y0180130D01*
X0054270Y0180130D02*
X0051201Y0180130D01*
X0051201Y0175526D01*
X0051201Y0177828D02*
X0052735Y0177828D01*
X0049666Y0177828D02*
X0048899Y0177061D01*
X0046597Y0177061D01*
X0046597Y0175526D02*
X0046597Y0180130D01*
X0048899Y0180130D01*
X0049666Y0179363D01*
X0049666Y0177828D01*
X0051561Y0185093D02*
X0051561Y0189697D01*
X0050027Y0188930D02*
X0050027Y0187395D01*
X0049259Y0186628D01*
X0046957Y0186628D01*
X0046957Y0185093D02*
X0046957Y0189697D01*
X0049259Y0189697D01*
X0050027Y0188930D01*
X0051561Y0187395D02*
X0053096Y0187395D01*
X0055829Y0195295D02*
X0058898Y0198365D01*
X0058898Y0199132D01*
X0058131Y0199899D01*
X0058898Y0195295D02*
X0055829Y0195295D01*
X0056484Y0170012D02*
X0058018Y0170012D01*
X0058786Y0169244D01*
X0055717Y0166175D01*
X0056484Y0165408D01*
X0058018Y0165408D01*
X0058786Y0166175D01*
X0058786Y0169244D01*
X0056484Y0170012D02*
X0055717Y0169244D01*
X0055717Y0166175D01*
X0054182Y0166175D02*
X0054182Y0167710D01*
X0052647Y0167710D01*
X0051113Y0169244D02*
X0051113Y0166175D01*
X0051880Y0165408D01*
X0053415Y0165408D01*
X0054182Y0166175D01*
X0054182Y0169244D02*
X0053415Y0170012D01*
X0051880Y0170012D01*
X0051113Y0169244D01*
X0049578Y0169244D02*
X0049578Y0167710D01*
X0048811Y0166943D01*
X0046509Y0166943D01*
X0046509Y0165408D02*
X0046509Y0170012D01*
X0048811Y0170012D01*
X0049578Y0169244D01*
X0048935Y0160245D02*
X0046633Y0160245D01*
X0046633Y0155641D01*
X0046633Y0157176D02*
X0048935Y0157176D01*
X0049702Y0157943D01*
X0049702Y0159478D01*
X0048935Y0160245D01*
X0051237Y0160245D02*
X0051237Y0155641D01*
X0054306Y0155641D01*
X0055841Y0155641D02*
X0055841Y0156408D01*
X0058910Y0159478D01*
X0058910Y0160245D01*
X0055841Y0160245D01*
X0054306Y0160245D02*
X0051237Y0160245D01*
X0051237Y0157943D02*
X0052772Y0157943D01*
X0053982Y0150202D02*
X0050913Y0150202D01*
X0050913Y0145598D01*
X0053982Y0145598D01*
X0055517Y0146366D02*
X0056284Y0145598D01*
X0057818Y0145598D01*
X0058586Y0146366D01*
X0058586Y0149435D01*
X0057818Y0150202D01*
X0056284Y0150202D01*
X0055517Y0149435D01*
X0055517Y0148668D01*
X0056284Y0147900D01*
X0058586Y0147900D01*
X0052447Y0147900D02*
X0050913Y0147900D01*
X0049378Y0147900D02*
X0048611Y0147133D01*
X0046309Y0147133D01*
X0046309Y0145598D02*
X0046309Y0150202D01*
X0048611Y0150202D01*
X0049378Y0149435D01*
X0049378Y0147900D01*
X0048986Y0140423D02*
X0046684Y0140423D01*
X0046684Y0135819D01*
X0046684Y0137354D02*
X0048986Y0137354D01*
X0049754Y0138121D01*
X0049754Y0139655D01*
X0048986Y0140423D01*
X0051288Y0140423D02*
X0051288Y0135819D01*
X0054357Y0135819D01*
X0055892Y0135819D02*
X0058961Y0135819D01*
X0057427Y0135819D02*
X0057427Y0140423D01*
X0055892Y0138888D01*
X0054357Y0140423D02*
X0051288Y0140423D01*
X0051288Y0138121D02*
X0052823Y0138121D01*
X0051376Y0129857D02*
X0051376Y0125254D01*
X0054445Y0125254D01*
X0055980Y0125254D02*
X0059049Y0125254D01*
X0057514Y0125254D02*
X0057514Y0129857D01*
X0055980Y0128323D01*
X0054445Y0129857D02*
X0051376Y0129857D01*
X0049841Y0129090D02*
X0049841Y0127555D01*
X0049074Y0126788D01*
X0046772Y0126788D01*
X0046772Y0125254D02*
X0046772Y0129857D01*
X0049074Y0129857D01*
X0049841Y0129090D01*
X0051376Y0127555D02*
X0052910Y0127555D01*
X0051663Y0120503D02*
X0051663Y0115899D01*
X0054732Y0115899D01*
X0056267Y0115899D02*
X0059336Y0115899D01*
X0057802Y0115899D02*
X0057802Y0120503D01*
X0056267Y0118968D01*
X0054732Y0120503D02*
X0051663Y0120503D01*
X0050128Y0119736D02*
X0050128Y0118201D01*
X0049361Y0117434D01*
X0047059Y0117434D01*
X0047059Y0115899D02*
X0047059Y0120503D01*
X0049361Y0120503D01*
X0050128Y0119736D01*
X0051663Y0118201D02*
X0053198Y0118201D01*
X0053729Y0109920D02*
X0051427Y0109920D01*
X0051427Y0105317D01*
X0053729Y0105317D01*
X0054496Y0106084D01*
X0054496Y0106851D01*
X0053729Y0107618D01*
X0051427Y0107618D01*
X0049892Y0107618D02*
X0049125Y0106851D01*
X0046823Y0106851D01*
X0046823Y0105317D02*
X0046823Y0109920D01*
X0049125Y0109920D01*
X0049892Y0109153D01*
X0049892Y0107618D01*
X0053729Y0107618D02*
X0054496Y0108386D01*
X0054496Y0109153D01*
X0053729Y0109920D01*
X0056031Y0108386D02*
X0057565Y0109920D01*
X0057565Y0105317D01*
X0056031Y0105317D02*
X0059100Y0105317D01*
X0060635Y0105317D02*
X0063704Y0105317D01*
X0062169Y0105317D02*
X0062169Y0109920D01*
X0060635Y0108386D01*
X0058357Y0100181D02*
X0056055Y0100181D01*
X0056055Y0095577D01*
X0058357Y0095577D01*
X0059124Y0096344D01*
X0059124Y0099414D01*
X0058357Y0100181D01*
X0054520Y0100181D02*
X0054520Y0095577D01*
X0051451Y0100181D01*
X0051451Y0095577D01*
X0049917Y0096344D02*
X0049917Y0097879D01*
X0048382Y0097879D01*
X0049917Y0096344D02*
X0049149Y0095577D01*
X0047615Y0095577D01*
X0046847Y0096344D01*
X0046847Y0099414D01*
X0047615Y0100181D01*
X0049149Y0100181D01*
X0049917Y0099414D01*
X0061638Y0115899D02*
X0060871Y0116667D01*
X0061638Y0115899D02*
X0063173Y0115899D01*
X0063940Y0116667D01*
X0063940Y0118201D01*
X0063173Y0118968D01*
X0062405Y0118968D01*
X0060871Y0118201D01*
X0060871Y0120503D01*
X0063940Y0120503D01*
X0062885Y0125254D02*
X0061351Y0125254D01*
X0060583Y0126021D01*
X0062118Y0127555D02*
X0062885Y0127555D01*
X0063653Y0126788D01*
X0063653Y0126021D01*
X0062885Y0125254D01*
X0062885Y0127555D02*
X0063653Y0128323D01*
X0063653Y0129090D01*
X0062885Y0129857D01*
X0061351Y0129857D01*
X0060583Y0129090D01*
X0060496Y0135819D02*
X0063565Y0135819D01*
X0062031Y0135819D02*
X0062031Y0140423D01*
X0060496Y0138888D01*
X0025101Y0139008D02*
X0025101Y0135939D01*
X0024333Y0135172D01*
X0022799Y0135172D01*
X0022031Y0135939D01*
X0025101Y0139008D01*
X0024333Y0139776D01*
X0022799Y0139776D01*
X0022031Y0139008D01*
X0022031Y0135939D01*
X0020497Y0135172D02*
X0017428Y0135172D01*
X0018962Y0135172D02*
X0018962Y0139776D01*
X0017428Y0138241D01*
X0015893Y0139776D02*
X0012824Y0139776D01*
X0012824Y0135172D01*
X0015893Y0135172D01*
X0014358Y0137474D02*
X0012824Y0137474D01*
X0011289Y0137474D02*
X0010522Y0136706D01*
X0008220Y0136706D01*
X0008220Y0135172D02*
X0008220Y0139776D01*
X0010522Y0139776D01*
X0011289Y0139008D01*
X0011289Y0137474D01*
X0010522Y0129833D02*
X0008220Y0129833D01*
X0008220Y0125229D01*
X0008220Y0126764D02*
X0010522Y0126764D01*
X0011289Y0127531D01*
X0011289Y0129066D01*
X0010522Y0129833D01*
X0012824Y0129833D02*
X0012824Y0125229D01*
X0015893Y0125229D01*
X0017428Y0125229D02*
X0020497Y0125229D01*
X0022031Y0125229D02*
X0025101Y0128298D01*
X0025101Y0129066D01*
X0024333Y0129833D01*
X0022799Y0129833D01*
X0022031Y0129066D01*
X0018962Y0129833D02*
X0018962Y0125229D01*
X0022031Y0125229D02*
X0025101Y0125229D01*
X0024433Y0119891D02*
X0022131Y0117589D01*
X0025201Y0117589D01*
X0024433Y0115287D02*
X0024433Y0119891D01*
X0019062Y0119891D02*
X0019062Y0115287D01*
X0017528Y0115287D02*
X0020597Y0115287D01*
X0017528Y0118356D02*
X0019062Y0119891D01*
X0015993Y0119891D02*
X0012924Y0119891D01*
X0012924Y0115287D01*
X0015993Y0115287D01*
X0014458Y0117589D02*
X0012924Y0117589D01*
X0011389Y0117589D02*
X0010622Y0116821D01*
X0008320Y0116821D01*
X0008320Y0115287D02*
X0008320Y0119891D01*
X0010622Y0119891D01*
X0011389Y0119123D01*
X0011389Y0117589D01*
X0010322Y0110248D02*
X0011089Y0109481D01*
X0011089Y0107946D01*
X0010322Y0107179D01*
X0008020Y0107179D01*
X0008020Y0105644D02*
X0008020Y0110248D01*
X0010322Y0110248D01*
X0012624Y0110248D02*
X0012624Y0105644D01*
X0014926Y0105644D01*
X0015693Y0106411D01*
X0015693Y0107179D01*
X0014926Y0107946D01*
X0012624Y0107946D01*
X0014926Y0107946D02*
X0015693Y0108713D01*
X0015693Y0109481D01*
X0014926Y0110248D01*
X0012624Y0110248D01*
X0017228Y0108713D02*
X0018762Y0110248D01*
X0018762Y0105644D01*
X0017228Y0105644D02*
X0020297Y0105644D01*
X0021831Y0106411D02*
X0021831Y0109481D01*
X0022599Y0110248D01*
X0024133Y0110248D01*
X0024901Y0109481D01*
X0021831Y0106411D01*
X0022599Y0105644D01*
X0024133Y0105644D01*
X0024901Y0106411D01*
X0024901Y0109481D01*
X0021114Y0100305D02*
X0018812Y0100305D01*
X0018812Y0095702D01*
X0021114Y0095702D01*
X0021881Y0096469D01*
X0021881Y0099538D01*
X0021114Y0100305D01*
X0017277Y0100305D02*
X0017277Y0095702D01*
X0014208Y0100305D01*
X0014208Y0095702D01*
X0012673Y0096469D02*
X0012673Y0098004D01*
X0011139Y0098004D01*
X0012673Y0099538D02*
X0011906Y0100305D01*
X0010371Y0100305D01*
X0009604Y0099538D01*
X0009604Y0096469D01*
X0010371Y0095702D01*
X0011906Y0095702D01*
X0012673Y0096469D01*
X0012824Y0127531D02*
X0014358Y0127531D01*
X0015893Y0129833D02*
X0012824Y0129833D01*
X0017428Y0128298D02*
X0018962Y0129833D01*
X0019361Y0145098D02*
X0016292Y0145098D01*
X0016292Y0149702D01*
X0019361Y0149702D01*
X0020896Y0148935D02*
X0020896Y0148168D01*
X0021663Y0147400D01*
X0023198Y0147400D01*
X0023965Y0146633D01*
X0023965Y0145866D01*
X0023198Y0145098D01*
X0021663Y0145098D01*
X0020896Y0145866D01*
X0020896Y0146633D01*
X0021663Y0147400D01*
X0023198Y0147400D02*
X0023965Y0148168D01*
X0023965Y0148935D01*
X0023198Y0149702D01*
X0021663Y0149702D01*
X0020896Y0148935D01*
X0017827Y0147400D02*
X0016292Y0147400D01*
X0014757Y0147400D02*
X0013990Y0146633D01*
X0011688Y0146633D01*
X0011688Y0145098D02*
X0011688Y0149702D01*
X0013990Y0149702D01*
X0014757Y0148935D01*
X0014757Y0147400D01*
X0016459Y0155041D02*
X0017994Y0155041D01*
X0018761Y0155808D01*
X0018761Y0157343D01*
X0017227Y0157343D01*
X0018761Y0158878D02*
X0017994Y0159645D01*
X0016459Y0159645D01*
X0015692Y0158878D01*
X0015692Y0155808D01*
X0016459Y0155041D01*
X0014157Y0157343D02*
X0014157Y0158878D01*
X0013390Y0159645D01*
X0011088Y0159645D01*
X0011088Y0155041D01*
X0011088Y0156576D02*
X0013390Y0156576D01*
X0014157Y0157343D01*
X0020296Y0158110D02*
X0021831Y0159645D01*
X0021831Y0155041D01*
X0023365Y0155041D02*
X0020296Y0155041D01*
X0020497Y0165683D02*
X0017428Y0165683D01*
X0018962Y0165683D02*
X0018962Y0170287D01*
X0017428Y0168753D01*
X0015893Y0170287D02*
X0012824Y0170287D01*
X0012824Y0165683D01*
X0012824Y0167985D02*
X0014358Y0167985D01*
X0011289Y0167985D02*
X0010522Y0167218D01*
X0008220Y0167218D01*
X0008220Y0165683D02*
X0008220Y0170287D01*
X0010522Y0170287D01*
X0011289Y0169520D01*
X0011289Y0167985D01*
X0013124Y0175026D02*
X0013124Y0179630D01*
X0016193Y0179630D01*
X0017728Y0178095D02*
X0019262Y0179630D01*
X0019262Y0175026D01*
X0017728Y0175026D02*
X0020797Y0175026D01*
X0022331Y0175793D02*
X0023099Y0175026D01*
X0024633Y0175026D01*
X0025401Y0175793D01*
X0025401Y0176561D01*
X0024633Y0177328D01*
X0023866Y0177328D01*
X0024633Y0177328D02*
X0025401Y0178095D01*
X0025401Y0178863D01*
X0024633Y0179630D01*
X0023099Y0179630D01*
X0022331Y0178863D01*
X0022516Y0185253D02*
X0025585Y0185253D01*
X0024050Y0185253D02*
X0024050Y0189857D01*
X0022516Y0188322D01*
X0020981Y0185253D02*
X0017912Y0185253D01*
X0019446Y0185253D02*
X0019446Y0189857D01*
X0017912Y0188322D01*
X0016377Y0189857D02*
X0013308Y0189857D01*
X0013308Y0185253D01*
X0013308Y0187555D02*
X0014842Y0187555D01*
X0011773Y0187555D02*
X0011773Y0189089D01*
X0011006Y0189857D01*
X0008704Y0189857D01*
X0008704Y0185253D01*
X0008704Y0186787D02*
X0011006Y0186787D01*
X0011773Y0187555D01*
X0010822Y0179630D02*
X0008520Y0179630D01*
X0008520Y0175026D01*
X0008520Y0176561D02*
X0010822Y0176561D01*
X0011589Y0177328D01*
X0011589Y0178863D01*
X0010822Y0179630D01*
X0013124Y0177328D02*
X0014658Y0177328D01*
X0022031Y0170287D02*
X0022031Y0167985D01*
X0023566Y0168753D01*
X0024333Y0168753D01*
X0025101Y0167985D01*
X0025101Y0166451D01*
X0024333Y0165683D01*
X0022799Y0165683D01*
X0022031Y0166451D01*
X0022031Y0170287D02*
X0025101Y0170287D01*
X0024050Y0195195D02*
X0020980Y0195195D01*
X0022515Y0195195D02*
X0022515Y0199799D01*
X0020980Y0198265D01*
X0019446Y0198265D02*
X0018678Y0197497D01*
X0016376Y0197497D01*
X0014842Y0197497D02*
X0014074Y0196730D01*
X0011772Y0196730D01*
X0011772Y0195195D02*
X0011772Y0199799D01*
X0014074Y0199799D01*
X0014842Y0199032D01*
X0014842Y0197497D01*
X0016376Y0195195D02*
X0018678Y0195195D01*
X0019446Y0195963D01*
X0019446Y0196730D01*
X0018678Y0197497D01*
X0019446Y0198265D02*
X0019446Y0199032D01*
X0018678Y0199799D01*
X0016376Y0199799D01*
X0016376Y0195195D01*
X0016144Y0204938D02*
X0015376Y0205705D01*
X0015376Y0208774D01*
X0016144Y0209542D01*
X0017678Y0209542D01*
X0018446Y0208774D01*
X0019980Y0209542D02*
X0019980Y0207240D01*
X0021515Y0208007D01*
X0022282Y0208007D01*
X0023050Y0207240D01*
X0023050Y0205705D01*
X0022282Y0204938D01*
X0020748Y0204938D01*
X0019980Y0205705D01*
X0018446Y0205705D02*
X0017678Y0204938D01*
X0016144Y0204938D01*
X0013842Y0207240D02*
X0013842Y0208774D01*
X0013074Y0209542D01*
X0010772Y0209542D01*
X0010772Y0204938D01*
X0010772Y0206472D02*
X0013074Y0206472D01*
X0013842Y0207240D01*
X0019980Y0209542D02*
X0023050Y0209542D01*
X0020265Y0215280D02*
X0020265Y0216048D01*
X0023334Y0219117D01*
X0023334Y0219884D01*
X0020265Y0219884D01*
X0018730Y0218350D02*
X0018730Y0215280D01*
X0018730Y0217582D02*
X0015661Y0217582D01*
X0015661Y0218350D02*
X0017195Y0219884D01*
X0018730Y0218350D01*
X0015661Y0218350D02*
X0015661Y0215280D01*
X0014126Y0217582D02*
X0013359Y0216815D01*
X0011057Y0216815D01*
X0011057Y0215280D02*
X0011057Y0219884D01*
X0013359Y0219884D01*
X0014126Y0219117D01*
X0014126Y0217582D01*
X0016061Y0225523D02*
X0016061Y0228592D01*
X0017595Y0230127D01*
X0019130Y0228592D01*
X0019130Y0225523D01*
X0020665Y0226290D02*
X0021432Y0225523D01*
X0022966Y0225523D01*
X0023734Y0226290D01*
X0023734Y0227825D01*
X0022966Y0228592D01*
X0022199Y0228592D01*
X0020665Y0227825D01*
X0020665Y0230127D01*
X0023734Y0230127D01*
X0023566Y0235365D02*
X0022032Y0235365D01*
X0021265Y0236133D01*
X0019730Y0235365D02*
X0019730Y0238435D01*
X0018195Y0239969D01*
X0016661Y0238435D01*
X0016661Y0235365D01*
X0016661Y0237667D02*
X0019730Y0237667D01*
X0021265Y0239202D02*
X0022032Y0239969D01*
X0023566Y0239969D01*
X0024334Y0239202D01*
X0024334Y0238435D01*
X0023566Y0237667D01*
X0024334Y0236900D01*
X0024334Y0236133D01*
X0023566Y0235365D01*
X0023566Y0237667D02*
X0022799Y0237667D01*
X0022578Y0245092D02*
X0022578Y0249696D01*
X0021043Y0248161D01*
X0019509Y0248161D02*
X0019509Y0245092D01*
X0021043Y0245092D02*
X0024113Y0245092D01*
X0019509Y0247394D02*
X0016439Y0247394D01*
X0016439Y0248161D02*
X0017974Y0249696D01*
X0019509Y0248161D01*
X0016439Y0248161D02*
X0016439Y0245092D01*
X0014137Y0246627D02*
X0011835Y0246627D01*
X0011835Y0245092D02*
X0011835Y0249696D01*
X0014137Y0249696D01*
X0014905Y0248929D01*
X0014905Y0247394D01*
X0014137Y0246627D01*
X0014359Y0239969D02*
X0012057Y0239969D01*
X0012057Y0235365D01*
X0012057Y0236900D02*
X0014359Y0236900D01*
X0015126Y0237667D01*
X0015126Y0239202D01*
X0014359Y0239969D01*
X0013759Y0230127D02*
X0011457Y0230127D01*
X0011457Y0225523D01*
X0011457Y0227057D02*
X0013759Y0227057D01*
X0014526Y0227825D01*
X0014526Y0229359D01*
X0013759Y0230127D01*
X0016061Y0227825D02*
X0019130Y0227825D01*
X0018441Y0255235D02*
X0016907Y0255235D01*
X0016139Y0256002D01*
X0016139Y0259071D01*
X0016907Y0259839D01*
X0018441Y0259839D01*
X0019209Y0259071D01*
X0020743Y0259071D02*
X0021511Y0259839D01*
X0023045Y0259839D01*
X0023813Y0259071D01*
X0023813Y0258304D01*
X0023045Y0257537D01*
X0023813Y0256769D01*
X0023813Y0256002D01*
X0023045Y0255235D01*
X0021511Y0255235D01*
X0020743Y0256002D01*
X0019209Y0256002D02*
X0018441Y0255235D01*
X0022278Y0257537D02*
X0023045Y0257537D01*
X0022978Y0265377D02*
X0022978Y0269981D01*
X0021443Y0268446D01*
X0019909Y0269214D02*
X0019141Y0269981D01*
X0017607Y0269981D01*
X0016839Y0269214D01*
X0016839Y0266144D01*
X0017607Y0265377D01*
X0019141Y0265377D01*
X0019909Y0266144D01*
X0021443Y0265377D02*
X0024513Y0265377D01*
X0021782Y0275720D02*
X0021782Y0280324D01*
X0023316Y0280324D02*
X0020247Y0280324D01*
X0018713Y0279556D02*
X0017945Y0280324D01*
X0016411Y0280324D01*
X0015643Y0279556D01*
X0015643Y0278789D01*
X0016411Y0278022D01*
X0017945Y0278022D01*
X0018713Y0277254D01*
X0018713Y0276487D01*
X0017945Y0275720D01*
X0016411Y0275720D01*
X0015643Y0276487D01*
X0014109Y0275720D02*
X0012574Y0277254D01*
X0013341Y0277254D02*
X0011039Y0277254D01*
X0011039Y0275720D02*
X0011039Y0280324D01*
X0013341Y0280324D01*
X0014109Y0279556D01*
X0014109Y0278022D01*
X0013341Y0277254D01*
X0009505Y0275720D02*
X0009505Y0280324D01*
X0006435Y0280324D02*
X0006435Y0275720D01*
X0009505Y0275720D02*
X0006435Y0280324D01*
X0010872Y0285762D02*
X0010872Y0290366D01*
X0013174Y0290366D01*
X0013942Y0289599D01*
X0013942Y0288064D01*
X0013174Y0287297D01*
X0010872Y0287297D01*
X0015476Y0288064D02*
X0018546Y0288064D01*
X0020080Y0286530D02*
X0020080Y0289599D01*
X0020848Y0290366D01*
X0022382Y0290366D01*
X0023150Y0289599D01*
X0020080Y0286530D01*
X0020848Y0285762D01*
X0022382Y0285762D01*
X0023150Y0286530D01*
X0023150Y0289599D01*
X0018546Y0290366D02*
X0018546Y0285762D01*
X0015476Y0285762D02*
X0015476Y0290366D01*
X0016576Y0295605D02*
X0016576Y0300209D01*
X0019646Y0300209D01*
X0021180Y0299441D02*
X0021180Y0298674D01*
X0021948Y0297907D01*
X0024250Y0297907D01*
X0024250Y0299441D02*
X0023482Y0300209D01*
X0021948Y0300209D01*
X0021180Y0299441D01*
X0021180Y0296372D02*
X0021948Y0295605D01*
X0023482Y0295605D01*
X0024250Y0296372D01*
X0024250Y0299441D01*
X0020980Y0305447D02*
X0020980Y0306215D01*
X0024050Y0309284D01*
X0024050Y0310051D01*
X0020980Y0310051D01*
X0019446Y0310051D02*
X0016376Y0310051D01*
X0016376Y0305447D01*
X0016376Y0307749D02*
X0017911Y0307749D01*
X0014842Y0307749D02*
X0014842Y0309284D01*
X0014074Y0310051D01*
X0011772Y0310051D01*
X0011772Y0305447D01*
X0011772Y0306982D02*
X0014074Y0306982D01*
X0014842Y0307749D01*
X0014274Y0300209D02*
X0011972Y0300209D01*
X0011972Y0295605D01*
X0011972Y0297139D02*
X0014274Y0297139D01*
X0015042Y0297907D01*
X0015042Y0299441D01*
X0014274Y0300209D01*
X0016576Y0297907D02*
X0018111Y0297907D01*
X0016176Y0315290D02*
X0016176Y0319894D01*
X0019246Y0319894D01*
X0020780Y0319894D02*
X0020780Y0317592D01*
X0022315Y0318359D01*
X0023082Y0318359D01*
X0023850Y0317592D01*
X0023850Y0316057D01*
X0023082Y0315290D01*
X0021548Y0315290D01*
X0020780Y0316057D01*
X0017711Y0317592D02*
X0016176Y0317592D01*
X0014642Y0317592D02*
X0013874Y0316824D01*
X0011572Y0316824D01*
X0011572Y0315290D02*
X0011572Y0319894D01*
X0013874Y0319894D01*
X0014642Y0319126D01*
X0014642Y0317592D01*
X0012372Y0325017D02*
X0012372Y0329620D01*
X0014674Y0329620D01*
X0015442Y0328853D01*
X0015442Y0327318D01*
X0014674Y0326551D01*
X0012372Y0326551D01*
X0016976Y0327318D02*
X0018511Y0327318D01*
X0016976Y0325017D02*
X0016976Y0329620D01*
X0020046Y0329620D01*
X0021580Y0328853D02*
X0022348Y0329620D01*
X0023882Y0329620D01*
X0024650Y0328853D01*
X0024650Y0328086D01*
X0023882Y0327318D01*
X0024650Y0326551D01*
X0024650Y0325784D01*
X0023882Y0325017D01*
X0022348Y0325017D01*
X0021580Y0325784D01*
X0023115Y0327318D02*
X0023882Y0327318D01*
X0023850Y0319894D02*
X0020780Y0319894D01*
X0020880Y0335359D02*
X0023950Y0335359D01*
X0022415Y0335359D02*
X0022415Y0339963D01*
X0020880Y0338428D01*
X0019346Y0339963D02*
X0016276Y0339963D01*
X0016276Y0335359D01*
X0016276Y0337661D02*
X0017811Y0337661D01*
X0014742Y0337661D02*
X0014742Y0339196D01*
X0013974Y0339963D01*
X0011672Y0339963D01*
X0011672Y0335359D01*
X0011672Y0336894D02*
X0013974Y0336894D01*
X0014742Y0337661D01*
X0014726Y0344802D02*
X0015493Y0345569D01*
X0014726Y0344802D02*
X0013191Y0344802D01*
X0012424Y0345569D01*
X0012424Y0348638D01*
X0013191Y0349405D01*
X0014726Y0349405D01*
X0015493Y0348638D01*
X0017028Y0347871D02*
X0018562Y0349405D01*
X0018562Y0344802D01*
X0017028Y0344802D02*
X0020097Y0344802D01*
X0021631Y0345569D02*
X0022399Y0344802D01*
X0023933Y0344802D01*
X0024701Y0345569D01*
X0024701Y0347104D01*
X0023933Y0347871D01*
X0023166Y0347871D01*
X0021631Y0347104D01*
X0021631Y0349405D01*
X0024701Y0349405D01*
X0024333Y0355244D02*
X0022799Y0355244D01*
X0022031Y0356011D01*
X0020497Y0355244D02*
X0017428Y0355244D01*
X0018962Y0355244D02*
X0018962Y0359848D01*
X0017428Y0358313D01*
X0015893Y0359081D02*
X0015126Y0359848D01*
X0013591Y0359848D01*
X0012824Y0359081D01*
X0012824Y0356011D01*
X0013591Y0355244D01*
X0015126Y0355244D01*
X0015893Y0356011D01*
X0011289Y0357546D02*
X0010522Y0356779D01*
X0008220Y0356779D01*
X0008220Y0355244D02*
X0008220Y0359848D01*
X0010522Y0359848D01*
X0011289Y0359081D01*
X0011289Y0357546D01*
X0011172Y0365571D02*
X0011172Y0370175D01*
X0013474Y0370175D01*
X0014242Y0369407D01*
X0014242Y0367873D01*
X0013474Y0367105D01*
X0011172Y0367105D01*
X0015776Y0367873D02*
X0017311Y0367873D01*
X0015776Y0370175D02*
X0015776Y0365571D01*
X0018846Y0365571D01*
X0020380Y0366338D02*
X0021148Y0365571D01*
X0022682Y0365571D01*
X0023450Y0366338D01*
X0023450Y0367105D01*
X0022682Y0367873D01*
X0020380Y0367873D01*
X0020380Y0366338D01*
X0020380Y0367873D02*
X0021915Y0369407D01*
X0023450Y0370175D01*
X0023382Y0375513D02*
X0023382Y0380117D01*
X0021080Y0377815D01*
X0024150Y0377815D01*
X0019546Y0375513D02*
X0016476Y0375513D01*
X0016476Y0380117D01*
X0019546Y0380117D01*
X0018011Y0377815D02*
X0016476Y0377815D01*
X0014942Y0377815D02*
X0014174Y0377048D01*
X0011872Y0377048D01*
X0011872Y0375513D02*
X0011872Y0380117D01*
X0014174Y0380117D01*
X0014942Y0379350D01*
X0014942Y0377815D01*
X0015776Y0370175D02*
X0018846Y0370175D01*
X0022799Y0359848D02*
X0024333Y0359848D01*
X0025101Y0359081D01*
X0025101Y0358313D01*
X0024333Y0357546D01*
X0025101Y0356779D01*
X0025101Y0356011D01*
X0024333Y0355244D01*
X0024333Y0357546D02*
X0023566Y0357546D01*
X0022031Y0359081D02*
X0022799Y0359848D01*
X0010889Y0348638D02*
X0010889Y0347104D01*
X0010122Y0346336D01*
X0007820Y0346336D01*
X0007820Y0344802D02*
X0007820Y0349405D01*
X0010122Y0349405D01*
X0010889Y0348638D01*
X0012072Y0385456D02*
X0012072Y0390060D01*
X0014374Y0390060D01*
X0015142Y0389293D01*
X0015142Y0387758D01*
X0014374Y0386991D01*
X0012072Y0386991D01*
X0016676Y0387758D02*
X0018211Y0387758D01*
X0016676Y0390060D02*
X0016676Y0385456D01*
X0019746Y0385456D01*
X0021280Y0385456D02*
X0024350Y0388525D01*
X0024350Y0389293D01*
X0023582Y0390060D01*
X0022048Y0390060D01*
X0021280Y0389293D01*
X0019746Y0390060D02*
X0016676Y0390060D01*
X0021280Y0385456D02*
X0024350Y0385456D01*
X0047621Y0340563D02*
X0049923Y0340563D01*
X0050691Y0339796D01*
X0050691Y0338261D01*
X0049923Y0337494D01*
X0047621Y0337494D01*
X0047621Y0335959D02*
X0047621Y0340563D01*
X0052225Y0340563D02*
X0052225Y0335959D01*
X0052225Y0338261D02*
X0053760Y0338261D01*
X0062200Y0300209D02*
X0063735Y0300209D01*
X0064502Y0299441D01*
X0061433Y0296372D01*
X0062200Y0295605D01*
X0063735Y0295605D01*
X0064502Y0296372D01*
X0064502Y0299441D01*
X0062200Y0300209D02*
X0061433Y0299441D01*
X0061433Y0296372D01*
X0015305Y0269214D02*
X0015305Y0267679D01*
X0014537Y0266912D01*
X0012235Y0266912D01*
X0012235Y0265377D02*
X0012235Y0269981D01*
X0014537Y0269981D01*
X0015305Y0269214D01*
X0013837Y0259839D02*
X0011535Y0259839D01*
X0011535Y0255235D01*
X0011535Y0256769D02*
X0013837Y0256769D01*
X0014605Y0257537D01*
X0014605Y0259071D01*
X0013837Y0259839D01*
D13*
X0024753Y0259812D02*
X0024753Y0254812D01*
X0027253Y0252312D01*
X0042253Y0252312D01*
X0044753Y0249812D01*
X0044753Y0244812D01*
X0042253Y0242312D01*
X0027253Y0242312D01*
X0024753Y0244812D01*
X0024753Y0249812D01*
X0027253Y0252312D01*
X0024753Y0259812D02*
X0027253Y0262312D01*
X0042253Y0262312D01*
X0044753Y0259812D01*
X0044753Y0254812D01*
X0042253Y0252312D01*
X0042253Y0262312D02*
X0044753Y0264812D01*
X0044753Y0269812D01*
X0042253Y0272312D01*
X0027253Y0272312D01*
X0024753Y0274812D01*
X0024753Y0279812D01*
X0027253Y0282312D01*
X0042253Y0282312D01*
X0044753Y0279812D01*
X0044753Y0274812D01*
X0042253Y0272312D01*
X0042253Y0282312D02*
X0044753Y0284812D01*
X0044753Y0289812D01*
X0042253Y0292312D01*
X0027253Y0292312D01*
X0024753Y0294812D01*
X0024753Y0299812D01*
X0027253Y0302312D01*
X0042253Y0302312D01*
X0044753Y0299812D01*
X0044753Y0294812D01*
X0042253Y0292312D01*
X0042253Y0302312D02*
X0044753Y0304812D01*
X0044753Y0309812D01*
X0042253Y0312312D01*
X0027253Y0312312D01*
X0024753Y0314812D01*
X0024753Y0319812D01*
X0027253Y0322312D01*
X0042253Y0322312D01*
X0044753Y0319812D01*
X0044753Y0314812D01*
X0042253Y0312312D01*
X0042253Y0322312D02*
X0044753Y0324812D01*
X0044753Y0329812D01*
X0042253Y0332312D01*
X0027253Y0332312D01*
X0024753Y0329812D01*
X0024753Y0324812D01*
X0027253Y0322312D01*
X0027253Y0332312D02*
X0024753Y0334812D01*
X0024753Y0339812D01*
X0027253Y0342312D01*
X0042253Y0342312D01*
X0044753Y0339812D01*
X0044753Y0334812D01*
X0042253Y0332312D01*
X0042253Y0342312D02*
X0044753Y0344812D01*
X0044753Y0349812D01*
X0042253Y0352312D01*
X0027253Y0352312D01*
X0024753Y0349812D01*
X0024753Y0344812D01*
X0027253Y0342312D01*
X0027253Y0352312D02*
X0024753Y0354812D01*
X0024753Y0359812D01*
X0027253Y0362312D01*
X0042253Y0362312D01*
X0044753Y0359812D01*
X0044753Y0354812D01*
X0042253Y0352312D01*
X0042253Y0362312D02*
X0044753Y0364812D01*
X0044753Y0369812D01*
X0042253Y0372312D01*
X0027253Y0372312D01*
X0024753Y0369812D01*
X0024753Y0364812D01*
X0027253Y0362312D01*
X0027253Y0372312D02*
X0024753Y0374812D01*
X0024753Y0379812D01*
X0027253Y0382312D01*
X0042253Y0382312D01*
X0044753Y0379812D01*
X0044753Y0374812D01*
X0042253Y0372312D01*
X0042253Y0382312D02*
X0044753Y0384812D01*
X0044753Y0389812D01*
X0042253Y0392312D01*
X0027253Y0392312D01*
X0024753Y0389812D01*
X0024753Y0384812D01*
X0027253Y0382312D01*
X0027253Y0312312D02*
X0024753Y0309812D01*
X0024753Y0304812D01*
X0027253Y0302312D01*
X0027253Y0292312D02*
X0024753Y0289812D01*
X0024753Y0284812D01*
X0027253Y0282312D01*
X0027253Y0272312D02*
X0024753Y0269812D01*
X0024753Y0264812D01*
X0027253Y0262312D01*
X0027253Y0242312D02*
X0024753Y0239812D01*
X0024753Y0234812D01*
X0027253Y0232312D01*
X0042253Y0232312D01*
X0044753Y0229812D01*
X0044753Y0224812D01*
X0042253Y0222312D01*
X0027253Y0222312D01*
X0024753Y0224812D01*
X0024753Y0229812D01*
X0027253Y0232312D01*
X0027253Y0222312D02*
X0024753Y0219812D01*
X0024753Y0214812D01*
X0027253Y0212312D01*
X0042253Y0212312D01*
X0044753Y0209812D01*
X0044753Y0204812D01*
X0042253Y0202312D01*
X0044753Y0199812D01*
X0044753Y0194812D01*
X0042253Y0192312D01*
X0044753Y0189812D01*
X0044753Y0184812D01*
X0042253Y0182312D01*
X0044753Y0179812D01*
X0044753Y0174812D01*
X0042253Y0172312D01*
X0044753Y0169812D01*
X0044753Y0164812D01*
X0042253Y0162312D01*
X0044753Y0159812D01*
X0044753Y0154812D01*
X0042253Y0152312D01*
X0044753Y0149812D01*
X0044753Y0144812D01*
X0042253Y0142312D01*
X0044753Y0139812D01*
X0044753Y0134812D01*
X0042253Y0132312D01*
X0044753Y0129812D01*
X0044753Y0124812D01*
X0042253Y0122312D01*
X0044753Y0119812D01*
X0044753Y0114812D01*
X0042253Y0112312D01*
X0044753Y0109812D01*
X0044753Y0104812D01*
X0042253Y0102312D01*
X0044753Y0099812D01*
X0044753Y0094812D01*
X0042253Y0092312D01*
X0027253Y0092312D01*
X0024753Y0094812D01*
X0024753Y0099812D01*
X0027253Y0102312D01*
X0042253Y0102312D01*
X0042253Y0112312D02*
X0027253Y0112312D01*
X0024753Y0109812D01*
X0024753Y0104812D01*
X0027253Y0102312D01*
X0027253Y0112312D02*
X0024753Y0114812D01*
X0024753Y0119812D01*
X0027253Y0122312D01*
X0042253Y0122312D01*
X0042253Y0132312D02*
X0027253Y0132312D01*
X0024753Y0129812D01*
X0024753Y0124812D01*
X0027253Y0122312D01*
X0027253Y0132312D02*
X0024753Y0134812D01*
X0024753Y0139812D01*
X0027253Y0142312D01*
X0042253Y0142312D01*
X0042253Y0152312D02*
X0027253Y0152312D01*
X0024753Y0149812D01*
X0024753Y0144812D01*
X0027253Y0142312D01*
X0027253Y0152312D02*
X0024753Y0154812D01*
X0024753Y0159812D01*
X0027253Y0162312D01*
X0042253Y0162312D01*
X0042253Y0172312D02*
X0027253Y0172312D01*
X0024753Y0169812D01*
X0024753Y0164812D01*
X0027253Y0162312D01*
X0027253Y0172312D02*
X0024753Y0174812D01*
X0024753Y0179812D01*
X0027253Y0182312D01*
X0042253Y0182312D01*
X0042253Y0192312D02*
X0027253Y0192312D01*
X0024753Y0189812D01*
X0024753Y0184812D01*
X0027253Y0182312D01*
X0027253Y0192312D02*
X0024753Y0194812D01*
X0024753Y0199812D01*
X0027253Y0202312D01*
X0042253Y0202312D01*
X0042253Y0212312D02*
X0044753Y0214812D01*
X0044753Y0219812D01*
X0042253Y0222312D01*
X0042253Y0232312D02*
X0044753Y0234812D01*
X0044753Y0239812D01*
X0042253Y0242312D01*
X0027253Y0212312D02*
X0024753Y0209812D01*
X0024753Y0204812D01*
X0027253Y0202312D01*
X0091190Y0113532D02*
X0088690Y0111032D01*
X0088690Y0106032D01*
X0091190Y0103532D01*
X0096190Y0103532D01*
X0098690Y0106032D01*
X0098690Y0111032D01*
X0096190Y0113532D01*
X0091190Y0113532D01*
X0091190Y0103532D02*
X0088690Y0101032D01*
X0088690Y0096032D01*
X0091190Y0093532D01*
X0096190Y0093532D01*
X0098690Y0096032D01*
X0098690Y0101032D01*
X0096190Y0103532D01*
X0073899Y0087579D02*
X0073899Y0086511D01*
X0071764Y0084376D01*
X0071764Y0081173D01*
X0071764Y0084376D02*
X0069629Y0086511D01*
X0069629Y0087579D01*
X0067454Y0086511D02*
X0067454Y0084376D01*
X0066386Y0083308D01*
X0063184Y0083308D01*
X0063184Y0081173D02*
X0063184Y0087579D01*
X0066386Y0087579D01*
X0067454Y0086511D01*
X0065319Y0083308D02*
X0067454Y0081173D01*
X0061008Y0082241D02*
X0061008Y0086511D01*
X0059941Y0087579D01*
X0057806Y0087579D01*
X0056738Y0086511D01*
X0056738Y0082241D01*
X0057806Y0081173D01*
X0059941Y0081173D01*
X0061008Y0082241D01*
X0054563Y0081173D02*
X0054563Y0087579D01*
X0052428Y0085444D01*
X0050293Y0087579D01*
X0050293Y0081173D01*
X0048117Y0081173D02*
X0043847Y0081173D01*
X0043847Y0087579D01*
X0048117Y0087579D01*
X0045982Y0084376D02*
X0043847Y0084376D01*
X0041672Y0087579D02*
X0041672Y0081173D01*
X0039537Y0085444D02*
X0041672Y0087579D01*
X0039537Y0085444D02*
X0037402Y0087579D01*
X0037402Y0081173D01*
X0028781Y0081173D02*
X0024511Y0081173D01*
X0024511Y0087579D01*
X0028781Y0087579D01*
X0026646Y0084376D02*
X0024511Y0084376D01*
X0022335Y0085444D02*
X0021268Y0084376D01*
X0018065Y0084376D01*
X0018065Y0087579D02*
X0021268Y0087579D01*
X0022335Y0086511D01*
X0022335Y0085444D01*
X0021268Y0084376D02*
X0022335Y0083308D01*
X0022335Y0082241D01*
X0021268Y0081173D01*
X0018065Y0081173D01*
X0018065Y0087579D01*
X0015890Y0087579D02*
X0015890Y0081173D01*
X0013755Y0085444D02*
X0015890Y0087579D01*
X0013755Y0085444D02*
X0011620Y0087579D01*
X0011620Y0081173D01*
X0148650Y0096032D02*
X0151150Y0093532D01*
X0156150Y0093532D01*
X0158650Y0096032D01*
X0158650Y0101032D01*
X0156150Y0103532D01*
X0158650Y0106032D01*
X0158650Y0111032D01*
X0156150Y0113532D01*
X0151150Y0113532D01*
X0148650Y0111032D01*
X0148650Y0106032D01*
X0151150Y0103532D01*
X0156150Y0103532D01*
X0151150Y0103532D02*
X0148650Y0101032D01*
X0148650Y0096032D01*
X0158037Y0088257D02*
X0158037Y0081852D01*
X0161240Y0081852D01*
X0162307Y0082920D01*
X0162307Y0085055D01*
X0161240Y0086122D01*
X0158037Y0086122D01*
X0164483Y0086122D02*
X0164483Y0082920D01*
X0165550Y0081852D01*
X0168753Y0081852D01*
X0168753Y0080784D02*
X0167685Y0079717D01*
X0166618Y0079717D01*
X0168753Y0080784D02*
X0168753Y0086122D01*
X0177373Y0088257D02*
X0177373Y0081852D01*
X0180576Y0081852D01*
X0181644Y0082920D01*
X0181644Y0087190D01*
X0180576Y0088257D01*
X0177373Y0088257D01*
X0183819Y0082920D02*
X0184887Y0083987D01*
X0188089Y0083987D01*
X0188089Y0085055D02*
X0188089Y0081852D01*
X0184887Y0081852D01*
X0183819Y0082920D01*
X0184887Y0086122D02*
X0187022Y0086122D01*
X0188089Y0085055D01*
X0190264Y0086122D02*
X0190264Y0082920D01*
X0191332Y0081852D01*
X0192400Y0082920D01*
X0193467Y0081852D01*
X0194535Y0082920D01*
X0194535Y0086122D01*
X0196710Y0086122D02*
X0197778Y0086122D01*
X0197778Y0081852D01*
X0198845Y0081852D02*
X0196710Y0081852D01*
X0201007Y0082920D02*
X0201007Y0085055D01*
X0202075Y0086122D01*
X0205277Y0086122D01*
X0205277Y0088257D02*
X0205277Y0081852D01*
X0202075Y0081852D01*
X0201007Y0082920D01*
X0197778Y0088257D02*
X0197778Y0089325D01*
X0201426Y0092312D02*
X0198926Y0094812D01*
X0198926Y0099812D01*
X0201426Y0102312D01*
X0216426Y0102312D01*
X0218926Y0099812D01*
X0218926Y0094812D01*
X0216426Y0092312D01*
X0201426Y0092312D01*
X0201426Y0102312D02*
X0198926Y0104812D01*
X0198926Y0109812D01*
X0201426Y0112312D01*
X0216426Y0112312D01*
X0218926Y0109812D01*
X0218926Y0104812D01*
X0216426Y0102312D01*
X0216426Y0112312D02*
X0218926Y0114812D01*
X0218926Y0119812D01*
X0216426Y0122312D01*
X0201426Y0122312D01*
X0198926Y0119812D01*
X0198926Y0114812D01*
X0201426Y0112312D01*
X0201426Y0122312D02*
X0198926Y0124812D01*
X0198926Y0129812D01*
X0201426Y0132312D01*
X0216426Y0132312D01*
X0218926Y0129812D01*
X0218926Y0124812D01*
X0216426Y0122312D01*
X0216426Y0132312D02*
X0218926Y0134812D01*
X0218926Y0139812D01*
X0216426Y0142312D01*
X0201426Y0142312D01*
X0198926Y0139812D01*
X0198926Y0134812D01*
X0201426Y0132312D01*
X0201426Y0142312D02*
X0198926Y0144812D01*
X0198926Y0149812D01*
X0201426Y0152312D01*
X0216426Y0152312D01*
X0218926Y0149812D01*
X0218926Y0144812D01*
X0216426Y0142312D01*
X0216426Y0152312D02*
X0218926Y0154812D01*
X0218926Y0159812D01*
X0216426Y0162312D01*
X0201426Y0162312D01*
X0198926Y0159812D01*
X0198926Y0154812D01*
X0201426Y0152312D01*
X0201426Y0162312D02*
X0198926Y0164812D01*
X0198926Y0169812D01*
X0201426Y0172312D01*
X0216426Y0172312D01*
X0218926Y0169812D01*
X0218926Y0164812D01*
X0216426Y0162312D01*
X0216426Y0172312D02*
X0218926Y0174812D01*
X0218926Y0179812D01*
X0216426Y0182312D01*
X0201426Y0182312D01*
X0198926Y0179812D01*
X0198926Y0174812D01*
X0201426Y0172312D01*
X0201426Y0182312D02*
X0198926Y0184812D01*
X0198926Y0189812D01*
X0201426Y0192312D01*
X0216426Y0192312D01*
X0218926Y0189812D01*
X0218926Y0184812D01*
X0216426Y0182312D01*
X0216426Y0192312D02*
X0218926Y0194812D01*
X0218926Y0199812D01*
X0216426Y0202312D01*
X0201426Y0202312D01*
X0198926Y0199812D01*
X0198926Y0194812D01*
X0201426Y0192312D01*
X0201426Y0202312D02*
X0198926Y0204812D01*
X0198926Y0209812D01*
X0201426Y0212312D01*
X0216426Y0212312D01*
X0218926Y0209812D01*
X0218926Y0204812D01*
X0216426Y0202312D01*
X0216426Y0212312D02*
X0218926Y0214812D01*
X0218926Y0219812D01*
X0216426Y0222312D01*
X0201426Y0222312D01*
X0198926Y0224812D01*
X0198926Y0229812D01*
X0201426Y0232312D01*
X0216426Y0232312D01*
X0218926Y0229812D01*
X0218926Y0224812D01*
X0216426Y0222312D01*
X0216426Y0232312D02*
X0218926Y0234812D01*
X0218926Y0239812D01*
X0216426Y0242312D01*
X0201426Y0242312D01*
X0198926Y0244812D01*
X0198926Y0249812D01*
X0201426Y0252312D01*
X0216426Y0252312D01*
X0218926Y0249812D01*
X0218926Y0244812D01*
X0216426Y0242312D01*
X0216426Y0252312D02*
X0218926Y0254812D01*
X0218926Y0259812D01*
X0216426Y0262312D01*
X0201426Y0262312D01*
X0198926Y0264812D01*
X0198926Y0269812D01*
X0201426Y0272312D01*
X0216426Y0272312D01*
X0218926Y0269812D01*
X0218926Y0264812D01*
X0216426Y0262312D01*
X0216426Y0272312D02*
X0218926Y0274812D01*
X0218926Y0279812D01*
X0216426Y0282312D01*
X0201426Y0282312D01*
X0198926Y0284812D01*
X0198926Y0289812D01*
X0201426Y0292312D01*
X0216426Y0292312D01*
X0218926Y0289812D01*
X0218926Y0284812D01*
X0216426Y0282312D01*
X0216426Y0292312D02*
X0218926Y0294812D01*
X0218926Y0299812D01*
X0216426Y0302312D01*
X0201426Y0302312D01*
X0198926Y0304812D01*
X0198926Y0309812D01*
X0201426Y0312312D01*
X0216426Y0312312D01*
X0218926Y0309812D01*
X0218926Y0304812D01*
X0216426Y0302312D01*
X0216426Y0312312D02*
X0218926Y0314812D01*
X0218926Y0319812D01*
X0216426Y0322312D01*
X0201426Y0322312D01*
X0198926Y0324812D01*
X0198926Y0329812D01*
X0201426Y0332312D01*
X0216426Y0332312D01*
X0218926Y0329812D01*
X0218926Y0324812D01*
X0216426Y0322312D01*
X0216426Y0332312D02*
X0218926Y0334812D01*
X0218926Y0339812D01*
X0216426Y0342312D01*
X0201426Y0342312D01*
X0198926Y0339812D01*
X0198926Y0334812D01*
X0201426Y0332312D01*
X0201426Y0322312D02*
X0198926Y0319812D01*
X0198926Y0314812D01*
X0201426Y0312312D01*
X0201426Y0302312D02*
X0198926Y0299812D01*
X0198926Y0294812D01*
X0201426Y0292312D01*
X0201426Y0282312D02*
X0198926Y0279812D01*
X0198926Y0274812D01*
X0201426Y0272312D01*
X0201426Y0262312D02*
X0198926Y0259812D01*
X0198926Y0254812D01*
X0201426Y0252312D01*
X0201426Y0242312D02*
X0198926Y0239812D01*
X0198926Y0234812D01*
X0201426Y0232312D01*
X0201426Y0222312D02*
X0198926Y0219812D01*
X0198926Y0214812D01*
X0201426Y0212312D01*
X0214966Y0088257D02*
X0213898Y0087190D01*
X0213898Y0086122D01*
X0214966Y0085055D01*
X0217101Y0085055D01*
X0218168Y0083987D01*
X0218168Y0082920D01*
X0217101Y0081852D01*
X0214966Y0081852D01*
X0213898Y0082920D01*
X0218168Y0087190D02*
X0217101Y0088257D01*
X0214966Y0088257D01*
X0220343Y0086122D02*
X0224614Y0086122D01*
X0220343Y0081852D01*
X0224614Y0081852D01*
X0226789Y0081852D02*
X0226789Y0086122D01*
X0226789Y0083987D02*
X0228924Y0086122D01*
X0229992Y0086122D01*
X0232160Y0085055D02*
X0232160Y0082920D01*
X0233228Y0081852D01*
X0235363Y0081852D01*
X0236431Y0082920D01*
X0236431Y0085055D01*
X0235363Y0086122D01*
X0233228Y0086122D01*
X0232160Y0085055D01*
X0238606Y0086122D02*
X0238606Y0081852D01*
X0240741Y0081852D02*
X0240741Y0085055D01*
X0241808Y0086122D01*
X0242876Y0085055D01*
X0242876Y0081852D01*
X0245051Y0082920D02*
X0245051Y0085055D01*
X0246119Y0086122D01*
X0248254Y0086122D01*
X0249322Y0085055D01*
X0249322Y0083987D01*
X0245051Y0083987D01*
X0245051Y0082920D02*
X0246119Y0081852D01*
X0248254Y0081852D01*
X0251497Y0081852D02*
X0251497Y0088257D01*
X0254699Y0086122D02*
X0251497Y0083987D01*
X0254699Y0081852D01*
X0240741Y0085055D02*
X0239673Y0086122D01*
X0238606Y0086122D01*
X0216426Y0342312D02*
X0218926Y0344812D01*
X0218926Y0349812D01*
X0216426Y0352312D01*
X0201426Y0352312D01*
X0198926Y0349812D01*
X0198926Y0344812D01*
X0201426Y0342312D01*
X0201426Y0352312D02*
X0198926Y0354812D01*
X0198926Y0359812D01*
X0201426Y0362312D01*
X0216426Y0362312D01*
X0218926Y0359812D01*
X0218926Y0354812D01*
X0216426Y0352312D01*
X0216426Y0362312D02*
X0218926Y0364812D01*
X0218926Y0369812D01*
X0216426Y0372312D01*
X0201426Y0372312D01*
X0198926Y0369812D01*
X0198926Y0364812D01*
X0201426Y0362312D01*
X0201426Y0372312D02*
X0198926Y0374812D01*
X0198926Y0379812D01*
X0201426Y0382312D01*
X0216426Y0382312D01*
X0218926Y0379812D01*
X0218926Y0374812D01*
X0216426Y0372312D01*
X0216426Y0382312D02*
X0218926Y0384812D01*
X0218926Y0389812D01*
X0216426Y0392312D01*
X0201426Y0392312D01*
X0198926Y0389812D01*
X0198926Y0384812D01*
X0201426Y0382312D01*
D14*
X0145107Y0391761D02*
X0145107Y0335068D01*
X0089989Y0335068D01*
X0089989Y0394517D01*
X0093926Y0394517D01*
X0093928Y0394360D01*
X0093934Y0394203D01*
X0093944Y0394046D01*
X0093957Y0393890D01*
X0093975Y0393734D01*
X0093996Y0393578D01*
X0094022Y0393423D01*
X0094051Y0393269D01*
X0094084Y0393115D01*
X0094121Y0392963D01*
X0094161Y0392811D01*
X0094206Y0392660D01*
X0094254Y0392511D01*
X0094306Y0392363D01*
X0094361Y0392216D01*
X0094421Y0392070D01*
X0094483Y0391926D01*
X0094550Y0391784D01*
X0094620Y0391643D01*
X0094693Y0391504D01*
X0094770Y0391368D01*
X0094850Y0391232D01*
X0094934Y0391100D01*
X0095021Y0390969D01*
X0095111Y0390840D01*
X0095204Y0390714D01*
X0095300Y0390590D01*
X0095400Y0390468D01*
X0095502Y0390349D01*
X0095608Y0390233D01*
X0095716Y0390119D01*
X0095827Y0390008D01*
X0095941Y0389900D01*
X0096057Y0389794D01*
X0096176Y0389692D01*
X0096298Y0389592D01*
X0096422Y0389496D01*
X0096548Y0389403D01*
X0096677Y0389313D01*
X0096808Y0389226D01*
X0096940Y0389142D01*
X0097076Y0389062D01*
X0097212Y0388985D01*
X0097351Y0388912D01*
X0097492Y0388842D01*
X0097634Y0388775D01*
X0097778Y0388713D01*
X0097924Y0388653D01*
X0098071Y0388598D01*
X0098219Y0388546D01*
X0098368Y0388498D01*
X0098519Y0388453D01*
X0098671Y0388413D01*
X0098823Y0388376D01*
X0098977Y0388343D01*
X0099131Y0388314D01*
X0099286Y0388288D01*
X0099442Y0388267D01*
X0099598Y0388249D01*
X0099754Y0388236D01*
X0099911Y0388226D01*
X0100068Y0388220D01*
X0100225Y0388218D01*
X0100225Y0388217D02*
X0138414Y0388217D01*
X0138414Y0388218D02*
X0138523Y0388233D01*
X0138632Y0388253D01*
X0138741Y0388276D01*
X0138848Y0388303D01*
X0138955Y0388334D01*
X0139060Y0388368D01*
X0139164Y0388406D01*
X0139267Y0388448D01*
X0139368Y0388493D01*
X0139467Y0388542D01*
X0139565Y0388594D01*
X0139661Y0388650D01*
X0139754Y0388709D01*
X0139846Y0388771D01*
X0139936Y0388836D01*
X0140023Y0388905D01*
X0140108Y0388976D01*
X0140190Y0389050D01*
X0140269Y0389128D01*
X0140346Y0389207D01*
X0140420Y0389290D01*
X0140491Y0389375D01*
X0140559Y0389462D01*
X0140624Y0389552D01*
X0140686Y0389644D01*
X0140744Y0389738D01*
X0140799Y0389834D01*
X0140851Y0389932D01*
X0140900Y0390032D01*
X0140944Y0390133D01*
X0140986Y0390236D01*
X0141023Y0390340D01*
X0141057Y0390446D01*
X0141088Y0390552D01*
X0141114Y0390660D01*
X0141137Y0390768D01*
X0141156Y0390877D01*
X0141171Y0390987D01*
X0141183Y0391097D01*
X0141190Y0391208D01*
X0141194Y0391319D01*
X0141193Y0391429D01*
X0141189Y0391540D01*
X0141181Y0391651D01*
X0141169Y0391761D01*
X0141170Y0391761D02*
X0145107Y0391761D01*
X0143532Y0392784D02*
X0143530Y0392919D01*
X0143524Y0393054D01*
X0143515Y0393188D01*
X0143501Y0393322D01*
X0143484Y0393456D01*
X0143463Y0393590D01*
X0143438Y0393722D01*
X0143409Y0393854D01*
X0143377Y0393985D01*
X0143341Y0394115D01*
X0143301Y0394244D01*
X0143257Y0394371D01*
X0143210Y0394498D01*
X0143159Y0394623D01*
X0143105Y0394746D01*
X0143047Y0394868D01*
X0142986Y0394989D01*
X0142921Y0395107D01*
X0142853Y0395223D01*
X0142782Y0395338D01*
X0142708Y0395450D01*
X0142630Y0395561D01*
X0142549Y0395669D01*
X0142465Y0395774D01*
X0142378Y0395878D01*
X0142288Y0395978D01*
X0142196Y0396076D01*
X0142100Y0396172D01*
X0142002Y0396264D01*
X0141902Y0396354D01*
X0141798Y0396441D01*
X0141693Y0396525D01*
X0141585Y0396606D01*
X0141474Y0396684D01*
X0141362Y0396758D01*
X0141247Y0396829D01*
X0141131Y0396897D01*
X0141013Y0396962D01*
X0140892Y0397023D01*
X0140770Y0397081D01*
X0140647Y0397135D01*
X0140522Y0397186D01*
X0140395Y0397233D01*
X0140268Y0397277D01*
X0140139Y0397317D01*
X0140009Y0397353D01*
X0139878Y0397385D01*
X0139746Y0397414D01*
X0139614Y0397439D01*
X0139480Y0397460D01*
X0139346Y0397477D01*
X0139212Y0397491D01*
X0139078Y0397500D01*
X0138943Y0397506D01*
X0138808Y0397508D01*
X0138808Y0397509D02*
X0102587Y0397509D01*
X0102588Y0401053D02*
X0102453Y0401062D01*
X0102317Y0401067D01*
X0102182Y0401069D01*
X0102047Y0401067D01*
X0101911Y0401061D01*
X0101776Y0401051D01*
X0101642Y0401037D01*
X0101507Y0401019D01*
X0101374Y0400997D01*
X0101241Y0400972D01*
X0101108Y0400943D01*
X0100977Y0400910D01*
X0100847Y0400874D01*
X0100718Y0400833D01*
X0100589Y0400789D01*
X0100463Y0400742D01*
X0100337Y0400690D01*
X0100214Y0400636D01*
X0100091Y0400577D01*
X0099971Y0400515D01*
X0099852Y0400450D01*
X0099735Y0400382D01*
X0099621Y0400310D01*
X0099508Y0400235D01*
X0099398Y0400156D01*
X0099289Y0400075D01*
X0099184Y0399991D01*
X0099080Y0399903D01*
X0098979Y0399813D01*
X0098881Y0399720D01*
X0098786Y0399624D01*
X0098693Y0399525D01*
X0098603Y0399424D01*
X0098516Y0399320D01*
X0098432Y0399214D01*
X0098351Y0399105D01*
X0098274Y0398994D01*
X0098199Y0398881D01*
X0098128Y0398766D01*
X0098060Y0398649D01*
X0097995Y0398530D01*
X0097934Y0398409D01*
X0097876Y0398287D01*
X0097822Y0398162D01*
X0097772Y0398037D01*
X0097725Y0397910D01*
X0097681Y0397782D01*
X0097642Y0397652D01*
X0097606Y0397522D01*
X0097573Y0397390D01*
X0097545Y0397258D01*
X0097520Y0397125D01*
X0097500Y0396991D01*
X0097483Y0396856D01*
X0097469Y0396722D01*
X0097469Y0393178D02*
X0097483Y0393312D01*
X0097500Y0393447D01*
X0097520Y0393581D01*
X0097545Y0393714D01*
X0097573Y0393846D01*
X0097606Y0393978D01*
X0097642Y0394108D01*
X0097681Y0394238D01*
X0097725Y0394366D01*
X0097772Y0394493D01*
X0097822Y0394618D01*
X0097876Y0394743D01*
X0097934Y0394865D01*
X0097995Y0394986D01*
X0098060Y0395105D01*
X0098128Y0395222D01*
X0098199Y0395337D01*
X0098274Y0395450D01*
X0098351Y0395561D01*
X0098432Y0395670D01*
X0098516Y0395776D01*
X0098603Y0395880D01*
X0098693Y0395981D01*
X0098786Y0396080D01*
X0098881Y0396176D01*
X0098979Y0396269D01*
X0099080Y0396359D01*
X0099184Y0396447D01*
X0099289Y0396531D01*
X0099398Y0396612D01*
X0099508Y0396691D01*
X0099621Y0396766D01*
X0099735Y0396838D01*
X0099852Y0396906D01*
X0099971Y0396971D01*
X0100091Y0397033D01*
X0100214Y0397092D01*
X0100337Y0397146D01*
X0100463Y0397198D01*
X0100589Y0397245D01*
X0100718Y0397289D01*
X0100847Y0397330D01*
X0100977Y0397366D01*
X0101108Y0397399D01*
X0101241Y0397428D01*
X0101374Y0397453D01*
X0101507Y0397475D01*
X0101642Y0397493D01*
X0101776Y0397507D01*
X0101911Y0397517D01*
X0102047Y0397523D01*
X0102182Y0397525D01*
X0102317Y0397523D01*
X0102453Y0397518D01*
X0102588Y0397509D01*
X0102587Y0401052D02*
X0138808Y0401052D01*
X0138943Y0401050D01*
X0139078Y0401044D01*
X0139212Y0401035D01*
X0139346Y0401021D01*
X0139480Y0401004D01*
X0139614Y0400983D01*
X0139746Y0400958D01*
X0139878Y0400929D01*
X0140009Y0400897D01*
X0140139Y0400861D01*
X0140268Y0400821D01*
X0140395Y0400777D01*
X0140522Y0400730D01*
X0140647Y0400679D01*
X0140770Y0400625D01*
X0140892Y0400567D01*
X0141013Y0400506D01*
X0141131Y0400441D01*
X0141247Y0400373D01*
X0141362Y0400302D01*
X0141474Y0400228D01*
X0141585Y0400150D01*
X0141693Y0400069D01*
X0141798Y0399985D01*
X0141902Y0399898D01*
X0142002Y0399808D01*
X0142100Y0399716D01*
X0142196Y0399620D01*
X0142288Y0399522D01*
X0142378Y0399422D01*
X0142465Y0399318D01*
X0142549Y0399213D01*
X0142630Y0399105D01*
X0142708Y0398994D01*
X0142782Y0398882D01*
X0142853Y0398767D01*
X0142921Y0398651D01*
X0142986Y0398533D01*
X0143047Y0398412D01*
X0143105Y0398290D01*
X0143159Y0398167D01*
X0143210Y0398042D01*
X0143257Y0397915D01*
X0143301Y0397788D01*
X0143341Y0397659D01*
X0143377Y0397529D01*
X0143409Y0397398D01*
X0143438Y0397266D01*
X0143463Y0397134D01*
X0143484Y0397000D01*
X0143501Y0396866D01*
X0143515Y0396732D01*
X0143524Y0396598D01*
X0143530Y0396463D01*
X0143532Y0396328D01*
X0143532Y0411288D02*
X0143530Y0411423D01*
X0143524Y0411558D01*
X0143515Y0411692D01*
X0143501Y0411826D01*
X0143484Y0411960D01*
X0143463Y0412094D01*
X0143438Y0412226D01*
X0143409Y0412358D01*
X0143377Y0412489D01*
X0143341Y0412619D01*
X0143301Y0412748D01*
X0143257Y0412875D01*
X0143210Y0413002D01*
X0143159Y0413127D01*
X0143105Y0413250D01*
X0143047Y0413372D01*
X0142986Y0413493D01*
X0142921Y0413611D01*
X0142853Y0413727D01*
X0142782Y0413842D01*
X0142708Y0413954D01*
X0142630Y0414065D01*
X0142549Y0414173D01*
X0142465Y0414278D01*
X0142378Y0414382D01*
X0142288Y0414482D01*
X0142196Y0414580D01*
X0142100Y0414676D01*
X0142002Y0414768D01*
X0141902Y0414858D01*
X0141798Y0414945D01*
X0141693Y0415029D01*
X0141585Y0415110D01*
X0141474Y0415188D01*
X0141362Y0415262D01*
X0141247Y0415333D01*
X0141131Y0415401D01*
X0141013Y0415466D01*
X0140892Y0415527D01*
X0140770Y0415585D01*
X0140647Y0415639D01*
X0140522Y0415690D01*
X0140395Y0415737D01*
X0140268Y0415781D01*
X0140139Y0415821D01*
X0140009Y0415857D01*
X0139878Y0415889D01*
X0139746Y0415918D01*
X0139614Y0415943D01*
X0139480Y0415964D01*
X0139346Y0415981D01*
X0139212Y0415995D01*
X0139078Y0416004D01*
X0138943Y0416010D01*
X0138808Y0416012D01*
X0138808Y0416013D02*
X0102587Y0416013D01*
X0102588Y0416013D02*
X0102453Y0416022D01*
X0102317Y0416027D01*
X0102182Y0416029D01*
X0102047Y0416027D01*
X0101911Y0416021D01*
X0101776Y0416011D01*
X0101642Y0415997D01*
X0101507Y0415979D01*
X0101374Y0415957D01*
X0101241Y0415932D01*
X0101108Y0415903D01*
X0100977Y0415870D01*
X0100847Y0415834D01*
X0100718Y0415793D01*
X0100589Y0415749D01*
X0100463Y0415702D01*
X0100337Y0415650D01*
X0100214Y0415596D01*
X0100091Y0415537D01*
X0099971Y0415475D01*
X0099852Y0415410D01*
X0099735Y0415342D01*
X0099621Y0415270D01*
X0099508Y0415195D01*
X0099398Y0415116D01*
X0099289Y0415035D01*
X0099184Y0414951D01*
X0099080Y0414863D01*
X0098979Y0414773D01*
X0098881Y0414680D01*
X0098786Y0414584D01*
X0098693Y0414485D01*
X0098603Y0414384D01*
X0098516Y0414280D01*
X0098432Y0414174D01*
X0098351Y0414065D01*
X0098274Y0413954D01*
X0098199Y0413841D01*
X0098128Y0413726D01*
X0098060Y0413609D01*
X0097995Y0413490D01*
X0097934Y0413369D01*
X0097876Y0413247D01*
X0097822Y0413122D01*
X0097772Y0412997D01*
X0097725Y0412870D01*
X0097681Y0412742D01*
X0097642Y0412612D01*
X0097606Y0412482D01*
X0097573Y0412350D01*
X0097545Y0412218D01*
X0097520Y0412085D01*
X0097500Y0411951D01*
X0097483Y0411816D01*
X0097469Y0411682D01*
X0088887Y0189910D02*
X0161328Y0189910D01*
X0161328Y0149910D01*
X0088887Y0149910D01*
X0088887Y0189910D01*
X0152600Y0185009D02*
X0152602Y0185128D01*
X0152608Y0185246D01*
X0152618Y0185364D01*
X0152632Y0185482D01*
X0152649Y0185599D01*
X0152671Y0185716D01*
X0152697Y0185832D01*
X0152726Y0185947D01*
X0152759Y0186061D01*
X0152796Y0186173D01*
X0152837Y0186285D01*
X0152882Y0186395D01*
X0152930Y0186503D01*
X0152982Y0186610D01*
X0153037Y0186715D01*
X0153096Y0186818D01*
X0153158Y0186919D01*
X0153223Y0187018D01*
X0153292Y0187115D01*
X0153364Y0187209D01*
X0153439Y0187301D01*
X0153517Y0187390D01*
X0153598Y0187477D01*
X0153682Y0187561D01*
X0153769Y0187642D01*
X0153858Y0187720D01*
X0153950Y0187795D01*
X0154044Y0187867D01*
X0154141Y0187936D01*
X0154240Y0188001D01*
X0154341Y0188063D01*
X0154444Y0188122D01*
X0154549Y0188177D01*
X0154656Y0188229D01*
X0154764Y0188277D01*
X0154874Y0188322D01*
X0154986Y0188363D01*
X0155098Y0188400D01*
X0155212Y0188433D01*
X0155327Y0188462D01*
X0155443Y0188488D01*
X0155560Y0188510D01*
X0155677Y0188527D01*
X0155795Y0188541D01*
X0155913Y0188551D01*
X0156031Y0188557D01*
X0156150Y0188559D01*
X0156269Y0188557D01*
X0156387Y0188551D01*
X0156505Y0188541D01*
X0156623Y0188527D01*
X0156740Y0188510D01*
X0156857Y0188488D01*
X0156973Y0188462D01*
X0157088Y0188433D01*
X0157202Y0188400D01*
X0157314Y0188363D01*
X0157426Y0188322D01*
X0157536Y0188277D01*
X0157644Y0188229D01*
X0157751Y0188177D01*
X0157856Y0188122D01*
X0157959Y0188063D01*
X0158060Y0188001D01*
X0158159Y0187936D01*
X0158256Y0187867D01*
X0158350Y0187795D01*
X0158442Y0187720D01*
X0158531Y0187642D01*
X0158618Y0187561D01*
X0158702Y0187477D01*
X0158783Y0187390D01*
X0158861Y0187301D01*
X0158936Y0187209D01*
X0159008Y0187115D01*
X0159077Y0187018D01*
X0159142Y0186919D01*
X0159204Y0186818D01*
X0159263Y0186715D01*
X0159318Y0186610D01*
X0159370Y0186503D01*
X0159418Y0186395D01*
X0159463Y0186285D01*
X0159504Y0186173D01*
X0159541Y0186061D01*
X0159574Y0185947D01*
X0159603Y0185832D01*
X0159629Y0185716D01*
X0159651Y0185599D01*
X0159668Y0185482D01*
X0159682Y0185364D01*
X0159692Y0185246D01*
X0159698Y0185128D01*
X0159700Y0185009D01*
X0159698Y0184890D01*
X0159692Y0184772D01*
X0159682Y0184654D01*
X0159668Y0184536D01*
X0159651Y0184419D01*
X0159629Y0184302D01*
X0159603Y0184186D01*
X0159574Y0184071D01*
X0159541Y0183957D01*
X0159504Y0183845D01*
X0159463Y0183733D01*
X0159418Y0183623D01*
X0159370Y0183515D01*
X0159318Y0183408D01*
X0159263Y0183303D01*
X0159204Y0183200D01*
X0159142Y0183099D01*
X0159077Y0183000D01*
X0159008Y0182903D01*
X0158936Y0182809D01*
X0158861Y0182717D01*
X0158783Y0182628D01*
X0158702Y0182541D01*
X0158618Y0182457D01*
X0158531Y0182376D01*
X0158442Y0182298D01*
X0158350Y0182223D01*
X0158256Y0182151D01*
X0158159Y0182082D01*
X0158060Y0182017D01*
X0157959Y0181955D01*
X0157856Y0181896D01*
X0157751Y0181841D01*
X0157644Y0181789D01*
X0157536Y0181741D01*
X0157426Y0181696D01*
X0157314Y0181655D01*
X0157202Y0181618D01*
X0157088Y0181585D01*
X0156973Y0181556D01*
X0156857Y0181530D01*
X0156740Y0181508D01*
X0156623Y0181491D01*
X0156505Y0181477D01*
X0156387Y0181467D01*
X0156269Y0181461D01*
X0156150Y0181459D01*
X0156031Y0181461D01*
X0155913Y0181467D01*
X0155795Y0181477D01*
X0155677Y0181491D01*
X0155560Y0181508D01*
X0155443Y0181530D01*
X0155327Y0181556D01*
X0155212Y0181585D01*
X0155098Y0181618D01*
X0154986Y0181655D01*
X0154874Y0181696D01*
X0154764Y0181741D01*
X0154656Y0181789D01*
X0154549Y0181841D01*
X0154444Y0181896D01*
X0154341Y0181955D01*
X0154240Y0182017D01*
X0154141Y0182082D01*
X0154044Y0182151D01*
X0153950Y0182223D01*
X0153858Y0182298D01*
X0153769Y0182376D01*
X0153682Y0182457D01*
X0153598Y0182541D01*
X0153517Y0182628D01*
X0153439Y0182717D01*
X0153364Y0182809D01*
X0153292Y0182903D01*
X0153223Y0183000D01*
X0153158Y0183099D01*
X0153096Y0183200D01*
X0153037Y0183303D01*
X0152982Y0183408D01*
X0152930Y0183515D01*
X0152882Y0183623D01*
X0152837Y0183733D01*
X0152796Y0183845D01*
X0152759Y0183957D01*
X0152726Y0184071D01*
X0152697Y0184186D01*
X0152671Y0184302D01*
X0152649Y0184419D01*
X0152632Y0184536D01*
X0152618Y0184654D01*
X0152608Y0184772D01*
X0152602Y0184890D01*
X0152600Y0185009D01*
D15*
X0151879Y0191682D03*
X0155028Y0191682D03*
X0158178Y0191682D03*
X0148729Y0191682D03*
X0145580Y0191682D03*
X0142430Y0191682D03*
X0139280Y0191682D03*
X0136131Y0191682D03*
X0132981Y0191682D03*
X0129831Y0191682D03*
X0126682Y0191682D03*
X0123532Y0191682D03*
X0120383Y0191682D03*
X0117233Y0191682D03*
X0114083Y0191682D03*
X0110934Y0191682D03*
X0107784Y0191682D03*
X0104635Y0191682D03*
X0101485Y0191682D03*
X0098335Y0191682D03*
X0095186Y0191682D03*
X0092036Y0191682D03*
X0092036Y0148139D03*
X0095186Y0148139D03*
X0098335Y0148139D03*
X0101485Y0148139D03*
X0104635Y0148139D03*
X0107784Y0148139D03*
X0110934Y0148139D03*
X0114083Y0148139D03*
X0117233Y0148139D03*
X0120383Y0148139D03*
X0123532Y0148139D03*
X0126682Y0148139D03*
X0129831Y0148139D03*
X0132981Y0148139D03*
X0136131Y0148139D03*
X0139280Y0148139D03*
X0142430Y0148139D03*
X0145580Y0148139D03*
X0148729Y0148139D03*
X0151879Y0148139D03*
X0155028Y0148139D03*
X0158178Y0148139D03*
D16*
X0003769Y0001800D02*
X0003769Y0395501D01*
X0239989Y0395501D01*
X0239989Y0001800D01*
X0003769Y0001800D01*
M02*
