%
M48
M72
T01C0.01969
T02C0.04000
%
T01
X89007Y129110
X94307Y133810
X99407Y128010
X104707Y133410
X126607Y137810
X125207Y154910
X136682Y157548
X150507Y139810
X157607Y138710
X158307Y155910
X173454Y148729
X147307Y181510
X138807Y181510
X125007Y185810
X120107Y181710
X123307Y201910
X123807Y208810
X147107Y202510
X156707Y202810
X157607Y209210
X162207Y198610
X167307Y192810
X194007Y212510
X180146Y236918
X171091Y261328
X182154Y272351
X165607Y298210
X150540Y290461
X145407Y284110
X148707Y265310
X114398Y287706
X113407Y344210
X126907Y368810
X223375Y343335
X180207Y103210
X173007Y98010
T02
X29753Y97312
X29753Y107312
X29753Y117312
X29753Y127312
X29753Y137312
X29753Y147312
X29753Y157312
X29753Y167312
X29753Y177312
X29753Y187312
X29753Y197312
X29753Y207312
X29753Y217312
X29753Y227312
X29753Y237312
X29753Y247312
X29753Y257312
X29753Y267312
X29753Y277312
X29753Y287312
X29753Y297312
X29753Y307312
X29753Y317312
X29753Y327312
X29753Y337312
X29753Y347312
X29753Y357312
X29753Y367312
X29753Y377312
X29753Y387312
X39753Y387312
X39753Y377312
X39753Y367312
X39753Y357312
X39753Y347312
X39753Y337312
X39753Y327312
X39753Y317312
X39753Y307312
X39753Y297312
X39753Y287312
X39753Y277312
X39753Y267312
X39753Y257312
X39753Y247312
X39753Y237312
X39753Y227312
X39753Y217312
X39753Y207312
X39753Y197312
X39753Y187312
X39753Y177312
X39753Y167312
X39753Y157312
X39753Y147312
X39753Y137312
X39753Y127312
X39753Y117312
X39753Y107312
X39753Y97312
X93690Y98532
X93690Y108532
X153650Y108532
X153650Y98532
X203926Y97312
X203926Y107312
X203926Y117312
X203926Y127312
X203926Y137312
X203926Y147312
X203926Y157312
X203926Y167312
X203926Y177312
X203926Y187312
X203926Y197312
X203926Y207312
X203926Y217312
X203926Y227312
X203926Y237312
X203926Y247312
X203926Y257312
X203926Y267312
X203926Y277312
X203926Y287312
X203926Y297312
X203926Y307312
X203926Y317312
X203926Y327312
X203926Y337312
X203926Y347312
X203926Y357312
X203926Y367312
X203926Y377312
X203926Y387312
X213926Y387312
X213926Y377312
X213926Y367312
X213926Y357312
X213926Y347312
X213926Y337312
X213926Y327312
X213926Y317312
X213926Y307312
X213926Y297312
X213926Y287312
X213926Y277312
X213926Y267312
X213926Y257312
X213926Y247312
X213926Y237312
X213926Y227312
X213926Y217312
X213926Y207312
X213926Y197312
X213926Y187312
X213926Y177312
X213926Y167312
X213926Y157312
X213926Y147312
X213926Y137312
X213926Y127312
X213926Y117312
X213926Y107312
X213926Y97312
M30
