G75*
%MOIN*%
%OFA0B0*%
%FSLAX25Y25*%
%IPPOS*%
%LPD*%
%AMOC8*
5,1,8,0,0,1.08239X$1,22.5*
%
%ADD10C,0.00000*%
%ADD11C,0.06000*%
%ADD12OC8,0.06000*%
D10*
X0002707Y0075410D02*
X0002407Y0399711D01*
X0241028Y0400011D01*
X0241328Y0075710D01*
X0002707Y0075410D01*
D11*
X0090690Y0098532D02*
X0096690Y0098532D01*
X0096690Y0108532D02*
X0090690Y0108532D01*
X0150650Y0108532D02*
X0156650Y0108532D01*
X0156650Y0098532D02*
X0150650Y0098532D01*
D12*
X0203926Y0097312D03*
X0203926Y0107312D03*
X0203926Y0117312D03*
X0203926Y0127312D03*
X0203926Y0137312D03*
X0203926Y0147312D03*
X0203926Y0157312D03*
X0203926Y0167312D03*
X0203926Y0177312D03*
X0203926Y0187312D03*
X0203926Y0197312D03*
X0203926Y0207312D03*
X0203926Y0217312D03*
X0203926Y0227312D03*
X0203926Y0237312D03*
X0203926Y0247312D03*
X0203926Y0257312D03*
X0203926Y0267312D03*
X0203926Y0277312D03*
X0203926Y0287312D03*
X0203926Y0297312D03*
X0203926Y0307312D03*
X0203926Y0317312D03*
X0203926Y0327312D03*
X0203926Y0337312D03*
X0203926Y0347312D03*
X0203926Y0357312D03*
X0203926Y0367312D03*
X0203926Y0377312D03*
X0203926Y0387312D03*
X0213926Y0387312D03*
X0213926Y0377312D03*
X0213926Y0367312D03*
X0213926Y0357312D03*
X0213926Y0347312D03*
X0213926Y0337312D03*
X0213926Y0327312D03*
X0213926Y0317312D03*
X0213926Y0307312D03*
X0213926Y0297312D03*
X0213926Y0287312D03*
X0213926Y0277312D03*
X0213926Y0267312D03*
X0213926Y0257312D03*
X0213926Y0247312D03*
X0213926Y0237312D03*
X0213926Y0227312D03*
X0213926Y0217312D03*
X0213926Y0207312D03*
X0213926Y0197312D03*
X0213926Y0187312D03*
X0213926Y0177312D03*
X0213926Y0167312D03*
X0213926Y0157312D03*
X0213926Y0147312D03*
X0213926Y0137312D03*
X0213926Y0127312D03*
X0213926Y0117312D03*
X0213926Y0107312D03*
X0213926Y0097312D03*
X0039753Y0097312D03*
X0039753Y0107312D03*
X0039753Y0117312D03*
X0039753Y0127312D03*
X0039753Y0137312D03*
X0039753Y0147312D03*
X0039753Y0157312D03*
X0039753Y0167312D03*
X0039753Y0177312D03*
X0039753Y0187312D03*
X0039753Y0197312D03*
X0039753Y0207312D03*
X0039753Y0217312D03*
X0039753Y0227312D03*
X0039753Y0237312D03*
X0039753Y0247312D03*
X0039753Y0257312D03*
X0039753Y0267312D03*
X0039753Y0277312D03*
X0039753Y0287312D03*
X0039753Y0297312D03*
X0039753Y0307312D03*
X0039753Y0317312D03*
X0039753Y0327312D03*
X0039753Y0337312D03*
X0039753Y0347312D03*
X0039753Y0357312D03*
X0039753Y0367312D03*
X0039753Y0377312D03*
X0039753Y0387312D03*
X0029753Y0387312D03*
X0029753Y0377312D03*
X0029753Y0367312D03*
X0029753Y0357312D03*
X0029753Y0347312D03*
X0029753Y0337312D03*
X0029753Y0327312D03*
X0029753Y0317312D03*
X0029753Y0307312D03*
X0029753Y0297312D03*
X0029753Y0287312D03*
X0029753Y0277312D03*
X0029753Y0267312D03*
X0029753Y0257312D03*
X0029753Y0247312D03*
X0029753Y0237312D03*
X0029753Y0227312D03*
X0029753Y0217312D03*
X0029753Y0207312D03*
X0029753Y0197312D03*
X0029753Y0187312D03*
X0029753Y0177312D03*
X0029753Y0167312D03*
X0029753Y0157312D03*
X0029753Y0147312D03*
X0029753Y0137312D03*
X0029753Y0127312D03*
X0029753Y0117312D03*
X0029753Y0107312D03*
X0029753Y0097312D03*
M02*
