G75*
%MOIN*%
%OFA0B0*%
%FSLAX25Y25*%
%IPPOS*%
%LPD*%
%AMOC8*
5,1,8,0,0,1.08239X$1,22.5*
%
%ADD10C,0.00000*%
%ADD11C,0.06000*%
%ADD12OC8,0.06000*%
%ADD13OC8,0.05000*%
%ADD14C,0.01600*%
D10*
X0002707Y0075410D02*
X0002407Y0399711D01*
X0241028Y0400011D01*
X0241328Y0075710D01*
X0002707Y0075410D01*
D11*
X0090690Y0098532D02*
X0096690Y0098532D01*
X0096690Y0108532D02*
X0090690Y0108532D01*
X0150650Y0108532D02*
X0156650Y0108532D01*
X0156650Y0098532D02*
X0150650Y0098532D01*
D12*
X0203926Y0097312D03*
X0203926Y0107312D03*
X0203926Y0117312D03*
X0203926Y0127312D03*
X0203926Y0137312D03*
X0203926Y0147312D03*
X0203926Y0157312D03*
X0203926Y0167312D03*
X0203926Y0177312D03*
X0203926Y0187312D03*
X0203926Y0197312D03*
X0203926Y0207312D03*
X0203926Y0217312D03*
X0203926Y0227312D03*
X0203926Y0237312D03*
X0203926Y0247312D03*
X0203926Y0257312D03*
X0203926Y0267312D03*
X0203926Y0277312D03*
X0203926Y0287312D03*
X0203926Y0297312D03*
X0203926Y0307312D03*
X0203926Y0317312D03*
X0203926Y0327312D03*
X0203926Y0337312D03*
X0203926Y0347312D03*
X0203926Y0357312D03*
X0203926Y0367312D03*
X0203926Y0377312D03*
X0203926Y0387312D03*
X0213926Y0387312D03*
X0213926Y0377312D03*
X0213926Y0367312D03*
X0213926Y0357312D03*
X0213926Y0347312D03*
X0213926Y0337312D03*
X0213926Y0327312D03*
X0213926Y0317312D03*
X0213926Y0307312D03*
X0213926Y0297312D03*
X0213926Y0287312D03*
X0213926Y0277312D03*
X0213926Y0267312D03*
X0213926Y0257312D03*
X0213926Y0247312D03*
X0213926Y0237312D03*
X0213926Y0227312D03*
X0213926Y0217312D03*
X0213926Y0207312D03*
X0213926Y0197312D03*
X0213926Y0187312D03*
X0213926Y0177312D03*
X0213926Y0167312D03*
X0213926Y0157312D03*
X0213926Y0147312D03*
X0213926Y0137312D03*
X0213926Y0127312D03*
X0213926Y0117312D03*
X0213926Y0107312D03*
X0213926Y0097312D03*
X0039753Y0097312D03*
X0039753Y0107312D03*
X0039753Y0117312D03*
X0039753Y0127312D03*
X0039753Y0137312D03*
X0039753Y0147312D03*
X0039753Y0157312D03*
X0039753Y0167312D03*
X0039753Y0177312D03*
X0039753Y0187312D03*
X0039753Y0197312D03*
X0039753Y0207312D03*
X0039753Y0217312D03*
X0039753Y0227312D03*
X0039753Y0237312D03*
X0039753Y0247312D03*
X0039753Y0257312D03*
X0039753Y0267312D03*
X0039753Y0277312D03*
X0039753Y0287312D03*
X0039753Y0297312D03*
X0039753Y0307312D03*
X0039753Y0317312D03*
X0039753Y0327312D03*
X0039753Y0337312D03*
X0039753Y0347312D03*
X0039753Y0357312D03*
X0039753Y0367312D03*
X0039753Y0377312D03*
X0039753Y0387312D03*
X0029753Y0387312D03*
X0029753Y0377312D03*
X0029753Y0367312D03*
X0029753Y0357312D03*
X0029753Y0347312D03*
X0029753Y0337312D03*
X0029753Y0327312D03*
X0029753Y0317312D03*
X0029753Y0307312D03*
X0029753Y0297312D03*
X0029753Y0287312D03*
X0029753Y0277312D03*
X0029753Y0267312D03*
X0029753Y0257312D03*
X0029753Y0247312D03*
X0029753Y0237312D03*
X0029753Y0227312D03*
X0029753Y0217312D03*
X0029753Y0207312D03*
X0029753Y0197312D03*
X0029753Y0187312D03*
X0029753Y0177312D03*
X0029753Y0167312D03*
X0029753Y0157312D03*
X0029753Y0147312D03*
X0029753Y0137312D03*
X0029753Y0127312D03*
X0029753Y0117312D03*
X0029753Y0107312D03*
X0029753Y0097312D03*
D13*
X0089007Y0129110D03*
X0094307Y0133810D03*
X0099407Y0128010D03*
X0104707Y0133410D03*
X0126607Y0137810D03*
X0125207Y0154910D03*
X0136682Y0157548D03*
X0150507Y0139810D03*
X0157607Y0138710D03*
X0158307Y0155910D03*
X0173454Y0148729D03*
X0147307Y0181510D03*
X0138807Y0181510D03*
X0125007Y0185810D03*
X0120107Y0181710D03*
X0123307Y0201910D03*
X0123807Y0208810D03*
X0147107Y0202510D03*
X0156707Y0202810D03*
X0157607Y0209210D03*
X0162207Y0198610D03*
X0167307Y0192810D03*
X0194007Y0212510D03*
X0180146Y0236918D03*
X0171091Y0261328D03*
X0182154Y0272351D03*
X0165607Y0298210D03*
X0150540Y0290461D03*
X0145407Y0284110D03*
X0148707Y0265310D03*
X0114398Y0287706D03*
X0113407Y0344210D03*
X0126907Y0368810D03*
X0223375Y0343335D03*
X0180207Y0103210D03*
X0173007Y0098010D03*
D14*
X0184207Y0098010D01*
X0198807Y0112610D01*
X0219207Y0112610D01*
X0222107Y0115510D01*
X0222107Y0139131D01*
X0213926Y0147312D01*
X0218184Y0149842D02*
X0218580Y0150006D01*
X0219311Y0150737D01*
X0222911Y0154337D01*
X0223307Y0155293D01*
X0223307Y0170127D01*
X0222911Y0171083D01*
X0222180Y0171814D01*
X0219480Y0174514D01*
X0218524Y0174910D01*
X0218313Y0174910D01*
X0218726Y0175324D01*
X0218726Y0179300D01*
X0218416Y0179610D01*
X0223547Y0179610D01*
X0223698Y0179568D01*
X0224060Y0179610D01*
X0224424Y0179610D01*
X0224569Y0179670D01*
X0224725Y0179689D01*
X0225043Y0179867D01*
X0225380Y0180006D01*
X0225491Y0180117D01*
X0236839Y0186464D01*
X0237171Y0186600D01*
X0237286Y0186714D01*
X0237428Y0186794D01*
X0237650Y0187076D01*
X0237905Y0187329D01*
X0237968Y0187478D01*
X0238068Y0187605D01*
X0238166Y0187951D01*
X0238305Y0188283D01*
X0238306Y0188445D01*
X0238350Y0188601D01*
X0238308Y0188958D01*
X0238401Y0212917D01*
X0238526Y0078507D01*
X0005504Y0078214D01*
X0005210Y0396915D01*
X0238231Y0397208D01*
X0238327Y0292844D01*
X0238311Y0292883D01*
X0232093Y0299101D01*
X0232083Y0299124D01*
X0231728Y0299466D01*
X0231380Y0299814D01*
X0231357Y0299824D01*
X0231338Y0299842D01*
X0230880Y0300022D01*
X0230424Y0300210D01*
X0230399Y0300210D01*
X0230376Y0300219D01*
X0229883Y0300210D01*
X0229390Y0300210D01*
X0229367Y0300201D01*
X0218037Y0299989D01*
X0215914Y0302112D01*
X0211938Y0302112D01*
X0211607Y0301781D01*
X0211607Y0302748D01*
X0211540Y0302909D01*
X0211938Y0302512D01*
X0215914Y0302512D01*
X0218726Y0305324D01*
X0218726Y0309300D01*
X0215914Y0312112D01*
X0211938Y0312112D01*
X0209126Y0309300D01*
X0209126Y0305789D01*
X0208726Y0306189D01*
X0208726Y0309300D01*
X0205914Y0312112D01*
X0201938Y0312112D01*
X0199126Y0309300D01*
X0199126Y0305324D01*
X0201938Y0302512D01*
X0205049Y0302512D01*
X0205449Y0302112D01*
X0201938Y0302112D01*
X0199126Y0299300D01*
X0199126Y0295324D01*
X0201938Y0292512D01*
X0205914Y0292512D01*
X0206650Y0293248D01*
X0206691Y0293120D01*
X0206761Y0293038D01*
X0206803Y0292937D01*
X0207094Y0292646D01*
X0208461Y0291038D01*
X0208503Y0290937D01*
X0208794Y0290646D01*
X0209061Y0290332D01*
X0209158Y0290283D01*
X0209234Y0290206D01*
X0209615Y0290048D01*
X0209786Y0289960D01*
X0209126Y0289300D01*
X0209126Y0285324D01*
X0209639Y0284810D01*
X0208213Y0284810D01*
X0208726Y0285324D01*
X0208726Y0289300D01*
X0205914Y0292112D01*
X0201938Y0292112D01*
X0199126Y0289300D01*
X0199126Y0285324D01*
X0199639Y0284810D01*
X0195984Y0284810D01*
X0152007Y0328787D01*
X0152007Y0377127D01*
X0151611Y0378083D01*
X0143111Y0386583D01*
X0142380Y0387314D01*
X0141424Y0387710D01*
X0131890Y0387710D01*
X0130934Y0387314D01*
X0125434Y0381814D01*
X0124703Y0381083D01*
X0124307Y0380127D01*
X0124307Y0372291D01*
X0122607Y0370591D01*
X0122607Y0367029D01*
X0125126Y0364510D01*
X0128688Y0364510D01*
X0131207Y0367029D01*
X0131207Y0370591D01*
X0129507Y0372291D01*
X0129507Y0378533D01*
X0133484Y0382510D01*
X0139830Y0382510D01*
X0146807Y0375533D01*
X0146807Y0327193D01*
X0147203Y0326237D01*
X0147934Y0325506D01*
X0193434Y0280006D01*
X0194390Y0279610D01*
X0199436Y0279610D01*
X0199126Y0279300D01*
X0199126Y0275324D01*
X0201938Y0272512D01*
X0205914Y0272512D01*
X0208726Y0275324D01*
X0208726Y0279300D01*
X0208416Y0279610D01*
X0209436Y0279610D01*
X0209126Y0279300D01*
X0209126Y0275324D01*
X0211938Y0272512D01*
X0215449Y0272512D01*
X0215049Y0272112D01*
X0211938Y0272112D01*
X0209126Y0269300D01*
X0209126Y0265324D01*
X0211938Y0262512D01*
X0215914Y0262512D01*
X0218726Y0265324D01*
X0218726Y0268435D01*
X0223280Y0272989D01*
X0224011Y0273720D01*
X0224407Y0274676D01*
X0224407Y0282527D01*
X0224011Y0283483D01*
X0223811Y0283683D01*
X0223080Y0284414D01*
X0222124Y0284810D01*
X0218213Y0284810D01*
X0218726Y0285324D01*
X0218726Y0289300D01*
X0218216Y0289810D01*
X0219960Y0289810D01*
X0228707Y0281403D01*
X0228707Y0217905D01*
X0225848Y0215110D01*
X0218513Y0215110D01*
X0218726Y0215324D01*
X0218726Y0219300D01*
X0215914Y0222112D01*
X0211938Y0222112D01*
X0209126Y0219300D01*
X0209126Y0215324D01*
X0209339Y0215110D01*
X0208513Y0215110D01*
X0208726Y0215324D01*
X0208726Y0219300D01*
X0205914Y0222112D01*
X0201938Y0222112D01*
X0199126Y0219300D01*
X0199126Y0215324D01*
X0199339Y0215110D01*
X0197488Y0215110D01*
X0195788Y0216810D01*
X0192226Y0216810D01*
X0189707Y0214291D01*
X0189707Y0210729D01*
X0190524Y0209912D01*
X0190482Y0209912D01*
X0151213Y0249181D01*
X0151287Y0261809D01*
X0153007Y0263529D01*
X0153007Y0267091D01*
X0150488Y0269610D01*
X0146926Y0269610D01*
X0145807Y0268491D01*
X0145807Y0279810D01*
X0147188Y0279810D01*
X0149707Y0282329D01*
X0149707Y0285891D01*
X0147188Y0288410D01*
X0143626Y0288410D01*
X0141107Y0285891D01*
X0141107Y0285487D01*
X0141003Y0285383D01*
X0140956Y0285271D01*
X0140879Y0285177D01*
X0140760Y0284796D01*
X0140607Y0284427D01*
X0140607Y0284306D01*
X0140571Y0284190D01*
X0140607Y0283792D01*
X0140607Y0247113D01*
X0140606Y0246599D01*
X0140607Y0246596D01*
X0140607Y0246593D01*
X0140803Y0246119D01*
X0141000Y0245642D01*
X0141002Y0245640D01*
X0141003Y0245637D01*
X0141366Y0245274D01*
X0185031Y0201412D01*
X0185103Y0201237D01*
X0185503Y0200837D01*
X0186234Y0200106D01*
X0187190Y0199710D01*
X0199536Y0199710D01*
X0199126Y0199300D01*
X0199126Y0195324D01*
X0199839Y0194610D01*
X0190574Y0194610D01*
X0138605Y0245900D01*
X0138509Y0287412D01*
X0144969Y0295610D01*
X0162126Y0295610D01*
X0163826Y0293910D01*
X0167388Y0293910D01*
X0169907Y0296429D01*
X0169907Y0299991D01*
X0167388Y0302510D01*
X0163826Y0302510D01*
X0162126Y0300810D01*
X0144066Y0300810D01*
X0143914Y0300853D01*
X0143553Y0300810D01*
X0143190Y0300810D01*
X0143044Y0300750D01*
X0142887Y0300731D01*
X0142570Y0300553D01*
X0142234Y0300414D01*
X0142123Y0300303D01*
X0141985Y0300226D01*
X0141760Y0299940D01*
X0141503Y0299683D01*
X0141442Y0299537D01*
X0134407Y0290608D01*
X0134407Y0295327D01*
X0134011Y0296283D01*
X0131007Y0299287D01*
X0131007Y0336404D01*
X0131041Y0336814D01*
X0131007Y0336918D01*
X0131007Y0337027D01*
X0130850Y0337407D01*
X0130724Y0337799D01*
X0130653Y0337882D01*
X0130611Y0337983D01*
X0130321Y0338274D01*
X0130055Y0338587D01*
X0129957Y0338637D01*
X0129880Y0338714D01*
X0129500Y0338872D01*
X0117707Y0344925D01*
X0117707Y0345991D01*
X0115188Y0348510D01*
X0111626Y0348510D01*
X0109107Y0345991D01*
X0109107Y0342429D01*
X0111626Y0339910D01*
X0115188Y0339910D01*
X0115494Y0340216D01*
X0125807Y0334922D01*
X0125807Y0297693D01*
X0126203Y0296737D01*
X0126934Y0296006D01*
X0129207Y0293733D01*
X0129207Y0287313D01*
X0129108Y0240298D01*
X0129095Y0240265D01*
X0129107Y0239782D01*
X0129106Y0239299D01*
X0129119Y0239266D01*
X0129120Y0239231D01*
X0129316Y0238789D01*
X0129500Y0238342D01*
X0129525Y0238317D01*
X0129539Y0238285D01*
X0129888Y0237952D01*
X0130230Y0237609D01*
X0130262Y0237596D01*
X0154266Y0214710D01*
X0152884Y0214710D01*
X0058107Y0309487D01*
X0058107Y0334327D01*
X0057711Y0335283D01*
X0057482Y0335512D01*
X0057411Y0335683D01*
X0056680Y0336414D01*
X0048680Y0344414D01*
X0047724Y0344810D01*
X0044039Y0344810D01*
X0044553Y0345324D01*
X0044553Y0349300D01*
X0041741Y0352112D01*
X0038082Y0352112D01*
X0035780Y0354414D01*
X0034824Y0354810D01*
X0034039Y0354810D01*
X0034553Y0355324D01*
X0034553Y0359300D01*
X0031741Y0362112D01*
X0027765Y0362112D01*
X0024953Y0359300D01*
X0024953Y0355324D01*
X0025466Y0354810D01*
X0024890Y0354810D01*
X0023934Y0354414D01*
X0023203Y0353683D01*
X0020503Y0350983D01*
X0020107Y0350027D01*
X0020107Y0333793D01*
X0020503Y0332837D01*
X0021234Y0332106D01*
X0023234Y0330106D01*
X0024190Y0329710D01*
X0025363Y0329710D01*
X0024953Y0329300D01*
X0024953Y0325324D01*
X0027765Y0322512D01*
X0030529Y0322512D01*
X0030929Y0322112D01*
X0027765Y0322112D01*
X0024953Y0319300D01*
X0024953Y0315324D01*
X0024998Y0315278D01*
X0020403Y0310683D01*
X0020007Y0309727D01*
X0020007Y0284093D01*
X0020403Y0283137D01*
X0023334Y0280206D01*
X0024290Y0279810D01*
X0025463Y0279810D01*
X0024953Y0279300D01*
X0024953Y0275324D01*
X0027765Y0272512D01*
X0031741Y0272512D01*
X0034553Y0275324D01*
X0034553Y0279300D01*
X0034043Y0279810D01*
X0035463Y0279810D01*
X0034953Y0279300D01*
X0034953Y0275324D01*
X0037765Y0272512D01*
X0041741Y0272512D01*
X0044553Y0275324D01*
X0044553Y0279300D01*
X0044043Y0279810D01*
X0056130Y0279810D01*
X0122830Y0213110D01*
X0122026Y0213110D01*
X0119507Y0210591D01*
X0119507Y0210087D01*
X0103234Y0193814D01*
X0102503Y0193083D01*
X0102107Y0192127D01*
X0102107Y0174793D01*
X0102503Y0173837D01*
X0120361Y0155979D01*
X0120503Y0155637D01*
X0120563Y0155577D01*
X0120601Y0155500D01*
X0120907Y0155231D01*
X0120907Y0153129D01*
X0123426Y0150610D01*
X0126988Y0150610D01*
X0129507Y0153129D01*
X0129507Y0156691D01*
X0126988Y0159210D01*
X0124484Y0159210D01*
X0124380Y0159314D01*
X0107307Y0176387D01*
X0107307Y0190533D01*
X0121655Y0204881D01*
X0122026Y0204510D01*
X0125588Y0204510D01*
X0128107Y0207029D01*
X0128107Y0207833D01*
X0129507Y0206433D01*
X0129507Y0204287D01*
X0111903Y0186683D01*
X0111507Y0185727D01*
X0111507Y0180093D01*
X0111903Y0179137D01*
X0112634Y0178406D01*
X0116334Y0174706D01*
X0117290Y0174310D01*
X0127923Y0174310D01*
X0147600Y0154443D01*
X0147603Y0154437D01*
X0147963Y0154077D01*
X0148324Y0153713D01*
X0148330Y0153711D01*
X0148334Y0153706D01*
X0148806Y0153511D01*
X0149277Y0153313D01*
X0149284Y0153313D01*
X0149290Y0153310D01*
X0149801Y0153310D01*
X0150312Y0153308D01*
X0150318Y0153310D01*
X0154826Y0153310D01*
X0156526Y0151610D01*
X0160088Y0151610D01*
X0162607Y0154129D01*
X0162607Y0157691D01*
X0160088Y0160210D01*
X0156526Y0160210D01*
X0154826Y0158510D01*
X0150891Y0158510D01*
X0137592Y0171938D01*
X0143200Y0167740D01*
X0143434Y0167506D01*
X0143611Y0167433D01*
X0143763Y0167319D01*
X0144084Y0167237D01*
X0144390Y0167110D01*
X0144581Y0167110D01*
X0144765Y0167063D01*
X0145093Y0167110D01*
X0180830Y0167110D01*
X0195807Y0152133D01*
X0195807Y0144893D01*
X0196203Y0143937D01*
X0199003Y0141137D01*
X0199734Y0140406D01*
X0200086Y0140260D01*
X0199126Y0139300D01*
X0199126Y0136189D01*
X0178003Y0115066D01*
X0177607Y0114110D01*
X0177607Y0106691D01*
X0175907Y0104991D01*
X0175907Y0101429D01*
X0176726Y0100610D01*
X0176488Y0100610D01*
X0174788Y0102310D01*
X0171226Y0102310D01*
X0168707Y0099791D01*
X0168707Y0096229D01*
X0171226Y0093710D01*
X0174788Y0093710D01*
X0176488Y0095410D01*
X0184724Y0095410D01*
X0185680Y0095806D01*
X0199126Y0109252D01*
X0199126Y0105324D01*
X0201938Y0102512D01*
X0205914Y0102512D01*
X0208726Y0105324D01*
X0208726Y0109300D01*
X0208016Y0110010D01*
X0209836Y0110010D01*
X0209126Y0109300D01*
X0209126Y0105324D01*
X0211938Y0102512D01*
X0215914Y0102512D01*
X0218726Y0105324D01*
X0218726Y0109300D01*
X0218016Y0110010D01*
X0219724Y0110010D01*
X0220680Y0110406D01*
X0223580Y0113306D01*
X0224311Y0114037D01*
X0224707Y0114993D01*
X0224707Y0139648D01*
X0224311Y0140603D01*
X0218726Y0146189D01*
X0218726Y0149300D01*
X0218184Y0149842D01*
X0218744Y0150170D02*
X0238459Y0150170D01*
X0238461Y0148572D02*
X0218726Y0148572D01*
X0218726Y0146973D02*
X0238462Y0146973D01*
X0238464Y0145375D02*
X0219540Y0145375D01*
X0221138Y0143776D02*
X0238465Y0143776D01*
X0238467Y0142178D02*
X0222737Y0142178D01*
X0224321Y0140579D02*
X0238468Y0140579D01*
X0238470Y0138981D02*
X0224707Y0138981D01*
X0224707Y0137382D02*
X0238471Y0137382D01*
X0238473Y0135784D02*
X0224707Y0135784D01*
X0224707Y0134185D02*
X0238474Y0134185D01*
X0238476Y0132587D02*
X0224707Y0132587D01*
X0224707Y0130988D02*
X0238477Y0130988D01*
X0238479Y0129390D02*
X0224707Y0129390D01*
X0224707Y0127791D02*
X0238480Y0127791D01*
X0238482Y0126193D02*
X0224707Y0126193D01*
X0224707Y0124594D02*
X0238483Y0124594D01*
X0238485Y0122996D02*
X0224707Y0122996D01*
X0224707Y0121397D02*
X0238486Y0121397D01*
X0238488Y0119799D02*
X0224707Y0119799D01*
X0224707Y0118200D02*
X0238489Y0118200D01*
X0238491Y0116602D02*
X0224707Y0116602D01*
X0224707Y0115003D02*
X0238492Y0115003D01*
X0238493Y0113405D02*
X0223678Y0113405D01*
X0222080Y0111806D02*
X0238495Y0111806D01*
X0238496Y0110208D02*
X0220201Y0110208D01*
X0218726Y0108609D02*
X0238498Y0108609D01*
X0238499Y0107010D02*
X0218726Y0107010D01*
X0218726Y0105412D02*
X0238501Y0105412D01*
X0238502Y0103813D02*
X0217216Y0103813D01*
X0215914Y0102112D02*
X0214126Y0102112D01*
X0214126Y0097512D01*
X0213726Y0097512D01*
X0213726Y0102112D01*
X0211938Y0102112D01*
X0209126Y0099300D01*
X0209126Y0097512D01*
X0213726Y0097512D01*
X0213726Y0097112D01*
X0209126Y0097112D01*
X0209126Y0095324D01*
X0211938Y0092512D01*
X0213726Y0092512D01*
X0213726Y0097112D01*
X0214126Y0097112D01*
X0214126Y0097512D01*
X0218726Y0097512D01*
X0218726Y0099300D01*
X0215914Y0102112D01*
X0217410Y0100616D02*
X0238505Y0100616D01*
X0238507Y0099018D02*
X0218726Y0099018D01*
X0218726Y0097112D02*
X0214126Y0097112D01*
X0214126Y0092512D01*
X0215914Y0092512D01*
X0218726Y0095324D01*
X0218726Y0097112D01*
X0218726Y0095821D02*
X0238510Y0095821D01*
X0238508Y0097419D02*
X0214126Y0097419D01*
X0213726Y0097419D02*
X0208726Y0097419D01*
X0208726Y0095821D02*
X0209126Y0095821D01*
X0208726Y0095324D02*
X0205914Y0092512D01*
X0201938Y0092512D01*
X0199126Y0095324D01*
X0199126Y0099300D01*
X0201938Y0102112D01*
X0205914Y0102112D01*
X0208726Y0099300D01*
X0208726Y0095324D01*
X0207625Y0094222D02*
X0210227Y0094222D01*
X0211826Y0092624D02*
X0206026Y0092624D01*
X0208726Y0099018D02*
X0209126Y0099018D01*
X0210442Y0100616D02*
X0207410Y0100616D01*
X0207216Y0103813D02*
X0210636Y0103813D01*
X0209126Y0105412D02*
X0208726Y0105412D01*
X0208726Y0107010D02*
X0209126Y0107010D01*
X0209126Y0108609D02*
X0208726Y0108609D01*
X0213726Y0100616D02*
X0214126Y0100616D01*
X0214126Y0099018D02*
X0213726Y0099018D01*
X0213726Y0095821D02*
X0214126Y0095821D01*
X0214126Y0094222D02*
X0213726Y0094222D01*
X0213726Y0092624D02*
X0214126Y0092624D01*
X0216026Y0092624D02*
X0238513Y0092624D01*
X0238511Y0094222D02*
X0217625Y0094222D01*
X0201826Y0092624D02*
X0041853Y0092624D01*
X0041741Y0092512D02*
X0044553Y0095324D01*
X0044553Y0097112D01*
X0039953Y0097112D01*
X0039953Y0097512D01*
X0044553Y0097512D01*
X0044553Y0099300D01*
X0041741Y0102112D01*
X0039953Y0102112D01*
X0039953Y0097512D01*
X0039553Y0097512D01*
X0039553Y0102112D01*
X0037765Y0102112D01*
X0034953Y0099300D01*
X0034953Y0097512D01*
X0039553Y0097512D01*
X0039553Y0097112D01*
X0034953Y0097112D01*
X0034953Y0095324D01*
X0037765Y0092512D01*
X0039553Y0092512D01*
X0039553Y0097112D01*
X0039953Y0097112D01*
X0039953Y0092512D01*
X0041741Y0092512D01*
X0039953Y0092624D02*
X0039553Y0092624D01*
X0039553Y0094222D02*
X0039953Y0094222D01*
X0039953Y0095821D02*
X0039553Y0095821D01*
X0039753Y0097312D02*
X0076009Y0097312D01*
X0085707Y0107010D01*
X0092168Y0107010D01*
X0093690Y0108532D01*
X0093890Y0108609D02*
X0153450Y0108609D01*
X0153450Y0108732D02*
X0153450Y0108332D01*
X0145850Y0108332D01*
X0145850Y0108155D01*
X0145969Y0107408D01*
X0146202Y0106690D01*
X0146545Y0106017D01*
X0146989Y0105405D01*
X0147523Y0104871D01*
X0148135Y0104427D01*
X0148808Y0104084D01*
X0149526Y0103850D01*
X0150273Y0103732D01*
X0153450Y0103732D01*
X0153450Y0108332D01*
X0153850Y0108332D01*
X0153850Y0103732D01*
X0157028Y0103732D01*
X0157774Y0103850D01*
X0158493Y0104084D01*
X0159166Y0104427D01*
X0159777Y0104871D01*
X0160312Y0105405D01*
X0160756Y0106017D01*
X0161099Y0106690D01*
X0161332Y0107408D01*
X0161450Y0108155D01*
X0161450Y0108332D01*
X0153850Y0108332D01*
X0153850Y0108732D01*
X0153450Y0108732D01*
X0145850Y0108732D01*
X0145850Y0108910D01*
X0145969Y0109656D01*
X0146202Y0110375D01*
X0146545Y0111048D01*
X0146989Y0111659D01*
X0147523Y0112194D01*
X0148135Y0112638D01*
X0148808Y0112981D01*
X0149526Y0113214D01*
X0150273Y0113332D01*
X0153450Y0113332D01*
X0153450Y0108732D01*
X0153850Y0108732D02*
X0153850Y0113332D01*
X0157028Y0113332D01*
X0157774Y0113214D01*
X0158493Y0112981D01*
X0159166Y0112638D01*
X0159777Y0112194D01*
X0160312Y0111659D01*
X0160756Y0111048D01*
X0161099Y0110375D01*
X0161332Y0109656D01*
X0161450Y0108910D01*
X0161450Y0108732D01*
X0153850Y0108732D01*
X0153850Y0108609D02*
X0177607Y0108609D01*
X0177607Y0110208D02*
X0161153Y0110208D01*
X0160165Y0111806D02*
X0177607Y0111806D01*
X0177607Y0113405D02*
X0042634Y0113405D01*
X0041741Y0112512D02*
X0044553Y0115324D01*
X0044553Y0119300D01*
X0041741Y0122112D01*
X0037765Y0122112D01*
X0034953Y0119300D01*
X0034953Y0115324D01*
X0037765Y0112512D01*
X0041741Y0112512D01*
X0041741Y0112112D02*
X0037765Y0112112D01*
X0034953Y0109300D01*
X0034953Y0105324D01*
X0037765Y0102512D01*
X0041741Y0102512D01*
X0044553Y0105324D01*
X0044553Y0109300D01*
X0041741Y0112112D01*
X0042047Y0111806D02*
X0087175Y0111806D01*
X0087029Y0111659D02*
X0086584Y0111048D01*
X0086241Y0110375D01*
X0086008Y0109656D01*
X0085890Y0108910D01*
X0085890Y0108732D01*
X0093490Y0108732D01*
X0093490Y0108332D01*
X0093890Y0108332D01*
X0093890Y0108732D01*
X0101490Y0108732D01*
X0101490Y0108910D01*
X0101372Y0109656D01*
X0101138Y0110375D01*
X0100795Y0111048D01*
X0100351Y0111659D01*
X0099817Y0112194D01*
X0099205Y0112638D01*
X0098532Y0112981D01*
X0097814Y0113214D01*
X0097068Y0113332D01*
X0093890Y0113332D01*
X0093890Y0108732D01*
X0093490Y0108732D01*
X0093490Y0113332D01*
X0090312Y0113332D01*
X0089566Y0113214D01*
X0088847Y0112981D01*
X0088174Y0112638D01*
X0087563Y0112194D01*
X0087029Y0111659D01*
X0086187Y0110208D02*
X0043645Y0110208D01*
X0044553Y0108609D02*
X0093490Y0108609D01*
X0093490Y0108332D02*
X0085890Y0108332D01*
X0085890Y0108155D01*
X0086008Y0107408D01*
X0086241Y0106690D01*
X0086584Y0106017D01*
X0087029Y0105405D01*
X0087563Y0104871D01*
X0088174Y0104427D01*
X0088847Y0104084D01*
X0089566Y0103850D01*
X0090312Y0103732D01*
X0093490Y0103732D01*
X0093490Y0108332D01*
X0093890Y0108332D02*
X0093890Y0103732D01*
X0097068Y0103732D01*
X0097814Y0103850D01*
X0098532Y0104084D01*
X0099205Y0104427D01*
X0099817Y0104871D01*
X0100351Y0105405D01*
X0100795Y0106017D01*
X0101138Y0106690D01*
X0101372Y0107408D01*
X0101490Y0108155D01*
X0101490Y0108332D01*
X0093890Y0108332D01*
X0093890Y0107010D02*
X0093490Y0107010D01*
X0093490Y0105412D02*
X0093890Y0105412D01*
X0093890Y0103813D02*
X0093490Y0103813D01*
X0089799Y0103813D02*
X0043043Y0103813D01*
X0044553Y0105412D02*
X0087024Y0105412D01*
X0086137Y0107010D02*
X0044553Y0107010D01*
X0043236Y0100616D02*
X0086358Y0100616D01*
X0086621Y0101251D02*
X0085890Y0099487D01*
X0085890Y0097577D01*
X0086621Y0095813D01*
X0087971Y0094463D01*
X0089735Y0093732D01*
X0097645Y0093732D01*
X0099409Y0094463D01*
X0100759Y0095813D01*
X0101490Y0097577D01*
X0101490Y0099487D01*
X0100759Y0101251D01*
X0099409Y0102602D01*
X0097645Y0103332D01*
X0089735Y0103332D01*
X0087971Y0102602D01*
X0086621Y0101251D01*
X0087584Y0102215D02*
X0005482Y0102215D01*
X0005481Y0103813D02*
X0026463Y0103813D01*
X0027765Y0102512D02*
X0031741Y0102512D01*
X0034553Y0105324D01*
X0034553Y0109300D01*
X0031741Y0112112D01*
X0027765Y0112112D01*
X0024953Y0109300D01*
X0024953Y0105324D01*
X0027765Y0102512D01*
X0027765Y0102112D02*
X0024953Y0099300D01*
X0024953Y0097512D01*
X0029553Y0097512D01*
X0029553Y0102112D01*
X0027765Y0102112D01*
X0026269Y0100616D02*
X0005484Y0100616D01*
X0005485Y0099018D02*
X0024953Y0099018D01*
X0024953Y0097112D02*
X0024953Y0095324D01*
X0027765Y0092512D01*
X0029553Y0092512D01*
X0029553Y0097112D01*
X0024953Y0097112D01*
X0024953Y0095821D02*
X0005488Y0095821D01*
X0005487Y0097419D02*
X0029553Y0097419D01*
X0029553Y0097512D02*
X0029553Y0097112D01*
X0029953Y0097112D01*
X0029953Y0097512D01*
X0034553Y0097512D01*
X0034553Y0099300D01*
X0031741Y0102112D01*
X0029953Y0102112D01*
X0029953Y0097512D01*
X0029553Y0097512D01*
X0029953Y0097419D02*
X0039553Y0097419D01*
X0039953Y0097419D02*
X0085955Y0097419D01*
X0085890Y0099018D02*
X0044553Y0099018D01*
X0044553Y0095821D02*
X0086617Y0095821D01*
X0088552Y0094222D02*
X0043452Y0094222D01*
X0039953Y0099018D02*
X0039553Y0099018D01*
X0039553Y0100616D02*
X0039953Y0100616D01*
X0036463Y0103813D02*
X0033043Y0103813D01*
X0034553Y0105412D02*
X0034953Y0105412D01*
X0034953Y0107010D02*
X0034553Y0107010D01*
X0034553Y0108609D02*
X0034953Y0108609D01*
X0035860Y0110208D02*
X0033645Y0110208D01*
X0032047Y0111806D02*
X0037459Y0111806D01*
X0036872Y0113405D02*
X0032634Y0113405D01*
X0031741Y0112512D02*
X0034553Y0115324D01*
X0034553Y0119300D01*
X0031741Y0122112D01*
X0027765Y0122112D01*
X0024953Y0119300D01*
X0024953Y0115324D01*
X0027765Y0112512D01*
X0031741Y0112512D01*
X0034232Y0115003D02*
X0035273Y0115003D01*
X0034953Y0116602D02*
X0034553Y0116602D01*
X0034553Y0118200D02*
X0034953Y0118200D01*
X0035451Y0119799D02*
X0034054Y0119799D01*
X0032456Y0121397D02*
X0037050Y0121397D01*
X0037765Y0122512D02*
X0041741Y0122512D01*
X0044553Y0125324D01*
X0044553Y0129300D01*
X0044043Y0129810D01*
X0045130Y0129810D01*
X0059734Y0115206D01*
X0060690Y0114810D01*
X0129424Y0114810D01*
X0130380Y0115206D01*
X0131111Y0115937D01*
X0145684Y0130510D01*
X0152824Y0130510D01*
X0153780Y0130906D01*
X0154511Y0131637D01*
X0155720Y0132846D01*
X0155772Y0132870D01*
X0156084Y0133211D01*
X0156411Y0133537D01*
X0156433Y0133590D01*
X0157187Y0134410D01*
X0159388Y0134410D01*
X0161907Y0136929D01*
X0161907Y0140491D01*
X0159388Y0143010D01*
X0155826Y0143010D01*
X0154607Y0141791D01*
X0152288Y0144110D01*
X0148726Y0144110D01*
X0146857Y0142241D01*
X0141946Y0142010D01*
X0141490Y0142010D01*
X0141431Y0141986D01*
X0141368Y0141983D01*
X0140956Y0141789D01*
X0140534Y0141614D01*
X0140490Y0141570D01*
X0140432Y0141543D01*
X0140125Y0141205D01*
X0123030Y0124110D01*
X0101588Y0124110D01*
X0103707Y0126229D01*
X0103707Y0129110D01*
X0106488Y0129110D01*
X0109007Y0131629D01*
X0109007Y0135191D01*
X0107307Y0136891D01*
X0107307Y0165727D01*
X0106911Y0166683D01*
X0095111Y0178483D01*
X0094380Y0179214D01*
X0093424Y0179610D01*
X0044243Y0179610D01*
X0041741Y0182112D01*
X0038230Y0182112D01*
X0038630Y0182512D01*
X0041741Y0182512D01*
X0044553Y0185324D01*
X0044553Y0189300D01*
X0041741Y0192112D01*
X0037765Y0192112D01*
X0034953Y0189300D01*
X0034953Y0186189D01*
X0034553Y0185789D01*
X0034553Y0189300D01*
X0031741Y0192112D01*
X0027765Y0192112D01*
X0024953Y0189300D01*
X0024953Y0185324D01*
X0025537Y0184740D01*
X0025234Y0184614D01*
X0024503Y0183883D01*
X0016203Y0175583D01*
X0015807Y0174627D01*
X0015807Y0140693D01*
X0016203Y0139737D01*
X0016934Y0139006D01*
X0025734Y0130206D01*
X0025822Y0130170D01*
X0024953Y0129300D01*
X0024953Y0125324D01*
X0027765Y0122512D01*
X0031741Y0122512D01*
X0034553Y0125324D01*
X0034553Y0129300D01*
X0034043Y0129810D01*
X0035463Y0129810D01*
X0034953Y0129300D01*
X0034953Y0125324D01*
X0037765Y0122512D01*
X0037281Y0122996D02*
X0032225Y0122996D01*
X0033823Y0124594D02*
X0035682Y0124594D01*
X0034953Y0126193D02*
X0034553Y0126193D01*
X0034553Y0127791D02*
X0034953Y0127791D01*
X0035042Y0129390D02*
X0034463Y0129390D01*
X0027207Y0132410D02*
X0018407Y0141210D01*
X0018407Y0174110D01*
X0026707Y0182410D01*
X0034851Y0182410D01*
X0039753Y0187312D01*
X0042968Y0183739D02*
X0102107Y0183739D01*
X0102107Y0182141D02*
X0038258Y0182141D01*
X0039753Y0177312D02*
X0040054Y0177010D01*
X0092907Y0177010D01*
X0104707Y0165210D01*
X0104707Y0133410D01*
X0109007Y0134185D02*
X0133105Y0134185D01*
X0131507Y0132587D02*
X0109007Y0132587D01*
X0108366Y0130988D02*
X0129908Y0130988D01*
X0128310Y0129390D02*
X0106768Y0129390D01*
X0108415Y0135784D02*
X0134704Y0135784D01*
X0136302Y0137382D02*
X0107307Y0137382D01*
X0107307Y0138981D02*
X0137901Y0138981D01*
X0139499Y0140579D02*
X0107307Y0140579D01*
X0107307Y0142178D02*
X0145506Y0142178D01*
X0142007Y0139410D02*
X0124107Y0121510D01*
X0067807Y0121510D01*
X0047007Y0142310D01*
X0025707Y0142310D01*
X0022807Y0145210D01*
X0022807Y0170366D01*
X0029753Y0177312D01*
X0035051Y0172210D02*
X0029753Y0167312D01*
X0034407Y0162210D02*
X0029753Y0157556D01*
X0029753Y0157312D01*
X0034407Y0162210D02*
X0075707Y0162210D01*
X0094307Y0143610D01*
X0087807Y0137110D01*
X0087807Y0134610D01*
X0087307Y0134110D01*
X0087307Y0130810D01*
X0089007Y0129110D01*
X0094307Y0133810D02*
X0094307Y0139410D01*
X0097507Y0142210D01*
X0097607Y0156210D01*
X0086107Y0167710D01*
X0040151Y0167710D01*
X0039753Y0167312D01*
X0035051Y0172210D02*
X0089707Y0172210D01*
X0101707Y0159910D01*
X0102007Y0140410D01*
X0099707Y0138110D01*
X0099407Y0128010D01*
X0103707Y0127791D02*
X0126711Y0127791D01*
X0125113Y0126193D02*
X0103671Y0126193D01*
X0102072Y0124594D02*
X0123514Y0124594D01*
X0128907Y0117410D02*
X0061207Y0117410D01*
X0046207Y0132410D01*
X0027207Y0132410D01*
X0024952Y0130988D02*
X0005456Y0130988D01*
X0005457Y0129390D02*
X0025042Y0129390D01*
X0024953Y0127791D02*
X0005459Y0127791D01*
X0005460Y0126193D02*
X0024953Y0126193D01*
X0025682Y0124594D02*
X0005462Y0124594D01*
X0005463Y0122996D02*
X0027281Y0122996D01*
X0027050Y0121397D02*
X0005465Y0121397D01*
X0005466Y0119799D02*
X0025451Y0119799D01*
X0024953Y0118200D02*
X0005467Y0118200D01*
X0005469Y0116602D02*
X0024953Y0116602D01*
X0025273Y0115003D02*
X0005470Y0115003D01*
X0005472Y0113405D02*
X0026872Y0113405D01*
X0027459Y0111806D02*
X0005473Y0111806D01*
X0005475Y0110208D02*
X0025860Y0110208D01*
X0024953Y0108609D02*
X0005476Y0108609D01*
X0005478Y0107010D02*
X0024953Y0107010D01*
X0024953Y0105412D02*
X0005479Y0105412D01*
X0005490Y0094222D02*
X0026054Y0094222D01*
X0027652Y0092624D02*
X0005491Y0092624D01*
X0005493Y0091025D02*
X0238514Y0091025D01*
X0238516Y0089427D02*
X0005494Y0089427D01*
X0005496Y0087828D02*
X0238517Y0087828D01*
X0238519Y0086230D02*
X0005497Y0086230D01*
X0005499Y0084631D02*
X0238520Y0084631D01*
X0238522Y0083033D02*
X0005500Y0083033D01*
X0005502Y0081434D02*
X0238523Y0081434D01*
X0238525Y0079836D02*
X0005503Y0079836D01*
X0005504Y0078237D02*
X0024235Y0078237D01*
X0029553Y0092624D02*
X0029953Y0092624D01*
X0029953Y0092512D02*
X0031741Y0092512D01*
X0034553Y0095324D01*
X0034553Y0097112D01*
X0029953Y0097112D01*
X0029953Y0092512D01*
X0029953Y0094222D02*
X0029553Y0094222D01*
X0029553Y0095821D02*
X0029953Y0095821D01*
X0029953Y0099018D02*
X0029553Y0099018D01*
X0029553Y0100616D02*
X0029953Y0100616D01*
X0033236Y0100616D02*
X0036269Y0100616D01*
X0034953Y0099018D02*
X0034553Y0099018D01*
X0034553Y0095821D02*
X0034953Y0095821D01*
X0036054Y0094222D02*
X0033452Y0094222D01*
X0031853Y0092624D02*
X0037652Y0092624D01*
X0044232Y0115003D02*
X0060224Y0115003D01*
X0058339Y0116602D02*
X0044553Y0116602D01*
X0044553Y0118200D02*
X0056740Y0118200D01*
X0055142Y0119799D02*
X0044054Y0119799D01*
X0042456Y0121397D02*
X0053543Y0121397D01*
X0051945Y0122996D02*
X0042225Y0122996D01*
X0043823Y0124594D02*
X0050346Y0124594D01*
X0048748Y0126193D02*
X0044553Y0126193D01*
X0044553Y0127791D02*
X0047149Y0127791D01*
X0045551Y0129390D02*
X0044463Y0129390D01*
X0023354Y0132587D02*
X0005454Y0132587D01*
X0005453Y0134185D02*
X0021755Y0134185D01*
X0020157Y0135784D02*
X0005451Y0135784D01*
X0005450Y0137382D02*
X0018558Y0137382D01*
X0016960Y0138981D02*
X0005448Y0138981D01*
X0005447Y0140579D02*
X0015854Y0140579D01*
X0015807Y0142178D02*
X0005445Y0142178D01*
X0005444Y0143776D02*
X0015807Y0143776D01*
X0015807Y0145375D02*
X0005442Y0145375D01*
X0005441Y0146973D02*
X0015807Y0146973D01*
X0015807Y0148572D02*
X0005439Y0148572D01*
X0005438Y0150170D02*
X0015807Y0150170D01*
X0015807Y0151769D02*
X0005436Y0151769D01*
X0005435Y0153367D02*
X0015807Y0153367D01*
X0015807Y0154966D02*
X0005433Y0154966D01*
X0005432Y0156564D02*
X0015807Y0156564D01*
X0015807Y0158163D02*
X0005431Y0158163D01*
X0005429Y0159761D02*
X0015807Y0159761D01*
X0015807Y0161360D02*
X0005428Y0161360D01*
X0005426Y0162958D02*
X0015807Y0162958D01*
X0015807Y0164557D02*
X0005425Y0164557D01*
X0005423Y0166155D02*
X0015807Y0166155D01*
X0015807Y0167754D02*
X0005422Y0167754D01*
X0005420Y0169352D02*
X0015807Y0169352D01*
X0015807Y0170951D02*
X0005419Y0170951D01*
X0005417Y0172549D02*
X0015807Y0172549D01*
X0015807Y0174148D02*
X0005416Y0174148D01*
X0005414Y0175746D02*
X0016366Y0175746D01*
X0017965Y0177345D02*
X0005413Y0177345D01*
X0005411Y0178944D02*
X0019563Y0178944D01*
X0021162Y0180542D02*
X0005410Y0180542D01*
X0005408Y0182141D02*
X0022760Y0182141D01*
X0024359Y0183739D02*
X0005407Y0183739D01*
X0005405Y0185338D02*
X0024953Y0185338D01*
X0024953Y0186936D02*
X0005404Y0186936D01*
X0005402Y0188535D02*
X0024953Y0188535D01*
X0025786Y0190133D02*
X0005401Y0190133D01*
X0005399Y0191732D02*
X0027384Y0191732D01*
X0027765Y0192512D02*
X0024953Y0195324D01*
X0024953Y0199300D01*
X0027765Y0202112D01*
X0031741Y0202112D01*
X0034553Y0199300D01*
X0034553Y0195324D01*
X0031741Y0192512D01*
X0027765Y0192512D01*
X0026946Y0193330D02*
X0005398Y0193330D01*
X0005397Y0194929D02*
X0025348Y0194929D01*
X0024953Y0196527D02*
X0005395Y0196527D01*
X0005394Y0198126D02*
X0024953Y0198126D01*
X0025377Y0199724D02*
X0005392Y0199724D01*
X0005391Y0201323D02*
X0026975Y0201323D01*
X0027765Y0202512D02*
X0031741Y0202512D01*
X0034553Y0205324D01*
X0034553Y0209300D01*
X0031741Y0212112D01*
X0027765Y0212112D01*
X0024953Y0209300D01*
X0024953Y0205324D01*
X0027765Y0202512D01*
X0027355Y0202921D02*
X0005389Y0202921D01*
X0005388Y0204520D02*
X0025757Y0204520D01*
X0024953Y0206118D02*
X0005386Y0206118D01*
X0005385Y0207717D02*
X0024953Y0207717D01*
X0024968Y0209315D02*
X0005383Y0209315D01*
X0005382Y0210914D02*
X0026566Y0210914D01*
X0027765Y0212512D02*
X0031741Y0212512D01*
X0034553Y0215324D01*
X0034553Y0219300D01*
X0031741Y0222112D01*
X0027765Y0222112D01*
X0024953Y0219300D01*
X0024953Y0215324D01*
X0027765Y0212512D01*
X0027764Y0212512D02*
X0005380Y0212512D01*
X0005379Y0214111D02*
X0026166Y0214111D01*
X0024953Y0215709D02*
X0005377Y0215709D01*
X0005376Y0217308D02*
X0024953Y0217308D01*
X0024953Y0218906D02*
X0005374Y0218906D01*
X0005373Y0220505D02*
X0026158Y0220505D01*
X0027756Y0222103D02*
X0005371Y0222103D01*
X0005370Y0223702D02*
X0026575Y0223702D01*
X0027765Y0222512D02*
X0031741Y0222512D01*
X0034553Y0225324D01*
X0034553Y0229300D01*
X0031741Y0232112D01*
X0027765Y0232112D01*
X0024953Y0229300D01*
X0024953Y0225324D01*
X0027765Y0222512D01*
X0024976Y0225300D02*
X0005368Y0225300D01*
X0005367Y0226899D02*
X0024953Y0226899D01*
X0024953Y0228497D02*
X0005365Y0228497D01*
X0005364Y0230096D02*
X0025749Y0230096D01*
X0027347Y0231694D02*
X0005363Y0231694D01*
X0005361Y0233293D02*
X0026983Y0233293D01*
X0027765Y0232512D02*
X0031741Y0232512D01*
X0034553Y0235324D01*
X0034553Y0239300D01*
X0031741Y0242112D01*
X0027765Y0242112D01*
X0024953Y0239300D01*
X0024953Y0235324D01*
X0027765Y0232512D01*
X0025385Y0234891D02*
X0005360Y0234891D01*
X0005358Y0236490D02*
X0024953Y0236490D01*
X0024953Y0238088D02*
X0005357Y0238088D01*
X0005355Y0239687D02*
X0025340Y0239687D01*
X0026938Y0241285D02*
X0005354Y0241285D01*
X0005352Y0242884D02*
X0027392Y0242884D01*
X0027765Y0242512D02*
X0031741Y0242512D01*
X0034553Y0245324D01*
X0034553Y0249300D01*
X0031741Y0252112D01*
X0027765Y0252112D01*
X0024953Y0249300D01*
X0024953Y0245324D01*
X0027765Y0242512D01*
X0025794Y0244482D02*
X0005351Y0244482D01*
X0005349Y0246081D02*
X0024953Y0246081D01*
X0024953Y0247679D02*
X0005348Y0247679D01*
X0005346Y0249278D02*
X0024953Y0249278D01*
X0026529Y0250877D02*
X0005345Y0250877D01*
X0005343Y0252475D02*
X0083465Y0252475D01*
X0081867Y0254074D02*
X0043303Y0254074D01*
X0044553Y0255324D02*
X0041741Y0252512D01*
X0037765Y0252512D01*
X0034953Y0255324D01*
X0034953Y0259300D01*
X0037765Y0262112D01*
X0041741Y0262112D01*
X0044553Y0259300D01*
X0044553Y0255324D01*
X0044553Y0255672D02*
X0080268Y0255672D01*
X0078670Y0257271D02*
X0044553Y0257271D01*
X0044553Y0258869D02*
X0077071Y0258869D01*
X0075473Y0260468D02*
X0043385Y0260468D01*
X0041787Y0262066D02*
X0073874Y0262066D01*
X0072276Y0263665D02*
X0042894Y0263665D01*
X0041741Y0262512D02*
X0044553Y0265324D01*
X0044553Y0269300D01*
X0041741Y0272112D01*
X0037765Y0272112D01*
X0034953Y0269300D01*
X0034953Y0265324D01*
X0037765Y0262512D01*
X0041741Y0262512D01*
X0044492Y0265263D02*
X0070677Y0265263D01*
X0069079Y0266862D02*
X0044553Y0266862D01*
X0044553Y0268460D02*
X0067480Y0268460D01*
X0065882Y0270059D02*
X0043794Y0270059D01*
X0042196Y0271657D02*
X0064283Y0271657D01*
X0062685Y0273256D02*
X0042485Y0273256D01*
X0044083Y0274854D02*
X0061086Y0274854D01*
X0059488Y0276453D02*
X0044553Y0276453D01*
X0044553Y0278051D02*
X0057889Y0278051D01*
X0056291Y0279650D02*
X0044203Y0279650D01*
X0037021Y0273256D02*
X0032485Y0273256D01*
X0031741Y0272112D02*
X0027765Y0272112D01*
X0024953Y0269300D01*
X0024953Y0265324D01*
X0027765Y0262512D01*
X0031741Y0262512D01*
X0034553Y0265324D01*
X0034553Y0269300D01*
X0031741Y0272112D01*
X0032196Y0271657D02*
X0037310Y0271657D01*
X0035711Y0270059D02*
X0033794Y0270059D01*
X0034553Y0268460D02*
X0034953Y0268460D01*
X0034953Y0266862D02*
X0034553Y0266862D01*
X0034492Y0265263D02*
X0035013Y0265263D01*
X0036612Y0263665D02*
X0032894Y0263665D01*
X0031741Y0262112D02*
X0027765Y0262112D01*
X0024953Y0259300D01*
X0024953Y0255324D01*
X0027765Y0252512D01*
X0031741Y0252512D01*
X0034553Y0255324D01*
X0034553Y0259300D01*
X0031741Y0262112D01*
X0031787Y0262066D02*
X0037719Y0262066D01*
X0036120Y0260468D02*
X0033385Y0260468D01*
X0034553Y0258869D02*
X0034953Y0258869D01*
X0034953Y0257271D02*
X0034553Y0257271D01*
X0034553Y0255672D02*
X0034953Y0255672D01*
X0036203Y0254074D02*
X0033303Y0254074D01*
X0032976Y0250877D02*
X0036529Y0250877D01*
X0037765Y0252112D02*
X0034953Y0249300D01*
X0034953Y0245324D01*
X0037765Y0242512D01*
X0041741Y0242512D01*
X0044553Y0245324D01*
X0044553Y0249300D01*
X0041741Y0252112D01*
X0037765Y0252112D01*
X0034953Y0249278D02*
X0034553Y0249278D01*
X0034553Y0247679D02*
X0034953Y0247679D01*
X0034953Y0246081D02*
X0034553Y0246081D01*
X0033712Y0244482D02*
X0035794Y0244482D01*
X0037392Y0242884D02*
X0032113Y0242884D01*
X0032567Y0241285D02*
X0036938Y0241285D01*
X0037765Y0242112D02*
X0034953Y0239300D01*
X0034953Y0235324D01*
X0037765Y0232512D01*
X0041741Y0232512D01*
X0044553Y0235324D01*
X0044553Y0239300D01*
X0041741Y0242112D01*
X0037765Y0242112D01*
X0035340Y0239687D02*
X0034166Y0239687D01*
X0034553Y0238088D02*
X0034953Y0238088D01*
X0034953Y0236490D02*
X0034553Y0236490D01*
X0034121Y0234891D02*
X0035385Y0234891D01*
X0036983Y0233293D02*
X0032522Y0233293D01*
X0032158Y0231694D02*
X0037347Y0231694D01*
X0037765Y0232112D02*
X0034953Y0229300D01*
X0034953Y0225324D01*
X0037765Y0222512D01*
X0041741Y0222512D01*
X0044553Y0225324D01*
X0044553Y0229300D01*
X0041741Y0232112D01*
X0037765Y0232112D01*
X0035749Y0230096D02*
X0033757Y0230096D01*
X0034553Y0228497D02*
X0034953Y0228497D01*
X0034953Y0226899D02*
X0034553Y0226899D01*
X0034529Y0225300D02*
X0034976Y0225300D01*
X0036575Y0223702D02*
X0032931Y0223702D01*
X0031749Y0222103D02*
X0037756Y0222103D01*
X0037765Y0222112D02*
X0034953Y0219300D01*
X0034953Y0215324D01*
X0037765Y0212512D01*
X0041741Y0212512D01*
X0044553Y0215324D01*
X0044553Y0219300D01*
X0041741Y0222112D01*
X0037765Y0222112D01*
X0036158Y0220505D02*
X0033348Y0220505D01*
X0034553Y0218906D02*
X0034953Y0218906D01*
X0034953Y0217308D02*
X0034553Y0217308D01*
X0034553Y0215709D02*
X0034953Y0215709D01*
X0036166Y0214111D02*
X0033340Y0214111D01*
X0031741Y0212512D02*
X0037764Y0212512D01*
X0037765Y0212112D02*
X0034953Y0209300D01*
X0034953Y0205324D01*
X0037765Y0202512D01*
X0041741Y0202512D01*
X0044553Y0205324D01*
X0044553Y0209300D01*
X0041741Y0212112D01*
X0037765Y0212112D01*
X0036566Y0210914D02*
X0032939Y0210914D01*
X0034538Y0209315D02*
X0034968Y0209315D01*
X0034953Y0207717D02*
X0034553Y0207717D01*
X0034553Y0206118D02*
X0034953Y0206118D01*
X0035757Y0204520D02*
X0033749Y0204520D01*
X0032150Y0202921D02*
X0037355Y0202921D01*
X0037765Y0202112D02*
X0034953Y0199300D01*
X0034953Y0195324D01*
X0037765Y0192512D01*
X0041741Y0192512D01*
X0044553Y0195324D01*
X0044553Y0199300D01*
X0041741Y0202112D01*
X0037765Y0202112D01*
X0036975Y0201323D02*
X0032530Y0201323D01*
X0034129Y0199724D02*
X0035377Y0199724D01*
X0034953Y0198126D02*
X0034553Y0198126D01*
X0034553Y0196527D02*
X0034953Y0196527D01*
X0035348Y0194929D02*
X0034158Y0194929D01*
X0032559Y0193330D02*
X0036946Y0193330D01*
X0037384Y0191732D02*
X0032121Y0191732D01*
X0033720Y0190133D02*
X0035786Y0190133D01*
X0034953Y0188535D02*
X0034553Y0188535D01*
X0034553Y0186936D02*
X0034953Y0186936D01*
X0042121Y0191732D02*
X0102107Y0191732D01*
X0102107Y0190133D02*
X0043720Y0190133D01*
X0044553Y0188535D02*
X0102107Y0188535D01*
X0102107Y0186936D02*
X0044553Y0186936D01*
X0044553Y0185338D02*
X0102107Y0185338D01*
X0102107Y0180542D02*
X0043311Y0180542D01*
X0042559Y0193330D02*
X0102750Y0193330D01*
X0104349Y0194929D02*
X0044158Y0194929D01*
X0044553Y0196527D02*
X0105947Y0196527D01*
X0107546Y0198126D02*
X0044553Y0198126D01*
X0044129Y0199724D02*
X0109144Y0199724D01*
X0110743Y0201323D02*
X0042530Y0201323D01*
X0042150Y0202921D02*
X0112341Y0202921D01*
X0113940Y0204520D02*
X0043749Y0204520D01*
X0044553Y0206118D02*
X0115538Y0206118D01*
X0117137Y0207717D02*
X0044553Y0207717D01*
X0044538Y0209315D02*
X0118735Y0209315D01*
X0119829Y0210914D02*
X0042939Y0210914D01*
X0041741Y0212512D02*
X0121428Y0212512D01*
X0121830Y0214111D02*
X0043340Y0214111D01*
X0044553Y0215709D02*
X0120231Y0215709D01*
X0118633Y0217308D02*
X0044553Y0217308D01*
X0044553Y0218906D02*
X0117034Y0218906D01*
X0115436Y0220505D02*
X0043348Y0220505D01*
X0041749Y0222103D02*
X0113837Y0222103D01*
X0112239Y0223702D02*
X0042931Y0223702D01*
X0044529Y0225300D02*
X0110640Y0225300D01*
X0109042Y0226899D02*
X0044553Y0226899D01*
X0044553Y0228497D02*
X0107443Y0228497D01*
X0105845Y0230096D02*
X0043757Y0230096D01*
X0042158Y0231694D02*
X0104246Y0231694D01*
X0102647Y0233293D02*
X0042522Y0233293D01*
X0044121Y0234891D02*
X0101049Y0234891D01*
X0099450Y0236490D02*
X0044553Y0236490D01*
X0044553Y0238088D02*
X0097852Y0238088D01*
X0096253Y0239687D02*
X0044166Y0239687D01*
X0042567Y0241285D02*
X0094655Y0241285D01*
X0093056Y0242884D02*
X0042113Y0242884D01*
X0043712Y0244482D02*
X0091458Y0244482D01*
X0089859Y0246081D02*
X0044553Y0246081D01*
X0044553Y0247679D02*
X0088261Y0247679D01*
X0086662Y0249278D02*
X0044553Y0249278D01*
X0042976Y0250877D02*
X0085064Y0250877D01*
X0097536Y0270059D02*
X0129171Y0270059D01*
X0129174Y0271657D02*
X0095937Y0271657D01*
X0094339Y0273256D02*
X0129177Y0273256D01*
X0129181Y0274854D02*
X0092740Y0274854D01*
X0091142Y0276453D02*
X0129184Y0276453D01*
X0129188Y0278051D02*
X0089543Y0278051D01*
X0087945Y0279650D02*
X0129191Y0279650D01*
X0129194Y0281248D02*
X0086346Y0281248D01*
X0084748Y0282847D02*
X0129198Y0282847D01*
X0129201Y0284445D02*
X0083149Y0284445D01*
X0081550Y0286044D02*
X0129204Y0286044D01*
X0129207Y0287642D02*
X0079952Y0287642D01*
X0078353Y0289241D02*
X0129207Y0289241D01*
X0129207Y0290839D02*
X0076755Y0290839D01*
X0075156Y0292438D02*
X0129207Y0292438D01*
X0128904Y0294036D02*
X0073558Y0294036D01*
X0071959Y0295635D02*
X0127306Y0295635D01*
X0125998Y0297233D02*
X0070361Y0297233D01*
X0068762Y0298832D02*
X0125807Y0298832D01*
X0125807Y0300430D02*
X0067164Y0300430D01*
X0065565Y0302029D02*
X0125807Y0302029D01*
X0125807Y0303627D02*
X0063967Y0303627D01*
X0062368Y0305226D02*
X0125807Y0305226D01*
X0125807Y0306824D02*
X0060770Y0306824D01*
X0059171Y0308423D02*
X0125807Y0308423D01*
X0125807Y0310021D02*
X0058107Y0310021D01*
X0058107Y0311620D02*
X0125807Y0311620D01*
X0125807Y0313218D02*
X0058107Y0313218D01*
X0058107Y0314817D02*
X0125807Y0314817D01*
X0125807Y0316415D02*
X0058107Y0316415D01*
X0058107Y0318014D02*
X0125807Y0318014D01*
X0125807Y0319613D02*
X0058107Y0319613D01*
X0058107Y0321211D02*
X0125807Y0321211D01*
X0125807Y0322810D02*
X0058107Y0322810D01*
X0058107Y0324408D02*
X0125807Y0324408D01*
X0125807Y0326007D02*
X0058107Y0326007D01*
X0058107Y0327605D02*
X0125807Y0327605D01*
X0125807Y0329204D02*
X0058107Y0329204D01*
X0058107Y0330802D02*
X0125807Y0330802D01*
X0125807Y0332401D02*
X0058107Y0332401D01*
X0058107Y0333999D02*
X0125807Y0333999D01*
X0124492Y0335598D02*
X0057447Y0335598D01*
X0055898Y0337196D02*
X0121378Y0337196D01*
X0118264Y0338795D02*
X0054300Y0338795D01*
X0052701Y0340393D02*
X0111143Y0340393D01*
X0109545Y0341992D02*
X0051103Y0341992D01*
X0049504Y0343590D02*
X0109107Y0343590D01*
X0109107Y0345189D02*
X0044418Y0345189D01*
X0044553Y0346787D02*
X0109903Y0346787D01*
X0111501Y0348386D02*
X0044553Y0348386D01*
X0043869Y0349984D02*
X0146807Y0349984D01*
X0146807Y0348386D02*
X0115313Y0348386D01*
X0116911Y0346787D02*
X0146807Y0346787D01*
X0146807Y0345189D02*
X0117707Y0345189D01*
X0120308Y0343590D02*
X0146807Y0343590D01*
X0146807Y0341992D02*
X0123422Y0341992D01*
X0126536Y0340393D02*
X0146807Y0340393D01*
X0146807Y0338795D02*
X0129686Y0338795D01*
X0130937Y0337196D02*
X0146807Y0337196D01*
X0146807Y0335598D02*
X0131007Y0335598D01*
X0131007Y0333999D02*
X0146807Y0333999D01*
X0146807Y0332401D02*
X0131007Y0332401D01*
X0131007Y0330802D02*
X0146807Y0330802D01*
X0146807Y0329204D02*
X0131007Y0329204D01*
X0131007Y0327605D02*
X0146807Y0327605D01*
X0147434Y0326007D02*
X0131007Y0326007D01*
X0131007Y0324408D02*
X0149032Y0324408D01*
X0150631Y0322810D02*
X0131007Y0322810D01*
X0131007Y0321211D02*
X0152229Y0321211D01*
X0153828Y0319613D02*
X0131007Y0319613D01*
X0131007Y0318014D02*
X0155426Y0318014D01*
X0157025Y0316415D02*
X0131007Y0316415D01*
X0131007Y0314817D02*
X0158623Y0314817D01*
X0160222Y0313218D02*
X0131007Y0313218D01*
X0131007Y0311620D02*
X0161820Y0311620D01*
X0163419Y0310021D02*
X0131007Y0310021D01*
X0131007Y0308423D02*
X0165017Y0308423D01*
X0166616Y0306824D02*
X0131007Y0306824D01*
X0131007Y0305226D02*
X0168214Y0305226D01*
X0169813Y0303627D02*
X0131007Y0303627D01*
X0131007Y0302029D02*
X0163345Y0302029D01*
X0165607Y0298210D02*
X0143707Y0298210D01*
X0135907Y0288310D01*
X0136007Y0244810D01*
X0189507Y0192010D01*
X0209407Y0192010D01*
X0213926Y0187491D01*
X0213926Y0187312D01*
X0218726Y0178944D02*
X0238433Y0178944D01*
X0238431Y0180542D02*
X0226251Y0180542D01*
X0223907Y0182210D02*
X0235707Y0188810D01*
X0236107Y0291031D01*
X0236107Y0291410D01*
X0229907Y0297610D01*
X0213926Y0297312D01*
X0217596Y0300430D02*
X0238320Y0300430D01*
X0238322Y0298832D02*
X0232362Y0298832D01*
X0233961Y0297233D02*
X0238323Y0297233D01*
X0238325Y0295635D02*
X0235559Y0295635D01*
X0237158Y0294036D02*
X0238326Y0294036D01*
X0238319Y0302029D02*
X0215997Y0302029D01*
X0217030Y0303627D02*
X0238318Y0303627D01*
X0238316Y0305226D02*
X0218628Y0305226D01*
X0218726Y0306824D02*
X0238315Y0306824D01*
X0238313Y0308423D02*
X0218726Y0308423D01*
X0218005Y0310021D02*
X0238312Y0310021D01*
X0238310Y0311620D02*
X0216406Y0311620D01*
X0215914Y0312512D02*
X0218726Y0315324D01*
X0218726Y0319300D01*
X0215914Y0322112D01*
X0211938Y0322112D01*
X0209126Y0319300D01*
X0209126Y0315324D01*
X0211938Y0312512D01*
X0215914Y0312512D01*
X0216621Y0313218D02*
X0238309Y0313218D01*
X0238307Y0314817D02*
X0218219Y0314817D01*
X0218726Y0316415D02*
X0238306Y0316415D01*
X0238304Y0318014D02*
X0218726Y0318014D01*
X0218413Y0319613D02*
X0238303Y0319613D01*
X0238301Y0321211D02*
X0216815Y0321211D01*
X0215914Y0322512D02*
X0218726Y0325324D01*
X0218726Y0329300D01*
X0215914Y0332112D01*
X0211938Y0332112D01*
X0209126Y0329300D01*
X0209126Y0325324D01*
X0211938Y0322512D01*
X0215914Y0322512D01*
X0216212Y0322810D02*
X0238300Y0322810D01*
X0238298Y0324408D02*
X0217810Y0324408D01*
X0218726Y0326007D02*
X0238297Y0326007D01*
X0238295Y0327605D02*
X0218726Y0327605D01*
X0218726Y0329204D02*
X0238294Y0329204D01*
X0238292Y0330802D02*
X0217224Y0330802D01*
X0215914Y0332512D02*
X0218726Y0335324D01*
X0218726Y0339300D01*
X0215914Y0342112D01*
X0211938Y0342112D01*
X0209126Y0339300D01*
X0209126Y0335324D01*
X0211938Y0332512D01*
X0215914Y0332512D01*
X0217401Y0333999D02*
X0238289Y0333999D01*
X0238291Y0332401D02*
X0152007Y0332401D01*
X0152007Y0333999D02*
X0200450Y0333999D01*
X0199126Y0335324D02*
X0199126Y0339300D01*
X0201938Y0342112D01*
X0205914Y0342112D01*
X0208726Y0339300D01*
X0208726Y0335324D01*
X0205914Y0332512D01*
X0201938Y0332512D01*
X0199126Y0335324D01*
X0199126Y0335598D02*
X0152007Y0335598D01*
X0152007Y0337196D02*
X0199126Y0337196D01*
X0199126Y0338795D02*
X0152007Y0338795D01*
X0152007Y0340393D02*
X0200219Y0340393D01*
X0201818Y0341992D02*
X0152007Y0341992D01*
X0152007Y0343590D02*
X0200859Y0343590D01*
X0201938Y0342512D02*
X0205914Y0342512D01*
X0208726Y0345324D01*
X0208726Y0349300D01*
X0205914Y0352112D01*
X0201938Y0352112D01*
X0199126Y0349300D01*
X0199126Y0345324D01*
X0201938Y0342512D01*
X0199261Y0345189D02*
X0152007Y0345189D01*
X0152007Y0346787D02*
X0199126Y0346787D01*
X0199126Y0348386D02*
X0152007Y0348386D01*
X0152007Y0349984D02*
X0199810Y0349984D01*
X0201409Y0351583D02*
X0152007Y0351583D01*
X0152007Y0353181D02*
X0201268Y0353181D01*
X0201938Y0352512D02*
X0205914Y0352512D01*
X0208726Y0355324D01*
X0208726Y0359300D01*
X0205914Y0362112D01*
X0201938Y0362112D01*
X0199126Y0359300D01*
X0199126Y0355324D01*
X0201938Y0352512D01*
X0199670Y0354780D02*
X0152007Y0354780D01*
X0152007Y0356378D02*
X0199126Y0356378D01*
X0199126Y0357977D02*
X0152007Y0357977D01*
X0152007Y0359575D02*
X0199401Y0359575D01*
X0201000Y0361174D02*
X0152007Y0361174D01*
X0152007Y0362772D02*
X0201677Y0362772D01*
X0201938Y0362512D02*
X0205914Y0362512D01*
X0208726Y0365324D01*
X0208726Y0369300D01*
X0205914Y0372112D01*
X0201938Y0372112D01*
X0199126Y0369300D01*
X0199126Y0365324D01*
X0201938Y0362512D01*
X0200079Y0364371D02*
X0152007Y0364371D01*
X0152007Y0365969D02*
X0199126Y0365969D01*
X0199126Y0367568D02*
X0152007Y0367568D01*
X0152007Y0369166D02*
X0199126Y0369166D01*
X0200591Y0370765D02*
X0152007Y0370765D01*
X0152007Y0372363D02*
X0238254Y0372363D01*
X0238255Y0370765D02*
X0217261Y0370765D01*
X0215914Y0372112D02*
X0211938Y0372112D01*
X0209126Y0369300D01*
X0209126Y0365324D01*
X0211938Y0362512D01*
X0215914Y0362512D01*
X0218726Y0365324D01*
X0218726Y0369300D01*
X0215914Y0372112D01*
X0215914Y0372512D02*
X0218726Y0375324D01*
X0218726Y0379300D01*
X0215914Y0382112D01*
X0211938Y0382112D01*
X0209126Y0379300D01*
X0209126Y0375324D01*
X0211938Y0372512D01*
X0215914Y0372512D01*
X0217364Y0373962D02*
X0238252Y0373962D01*
X0238251Y0375560D02*
X0218726Y0375560D01*
X0218726Y0377159D02*
X0238249Y0377159D01*
X0238248Y0378757D02*
X0218726Y0378757D01*
X0217670Y0380356D02*
X0238247Y0380356D01*
X0238245Y0381954D02*
X0216072Y0381954D01*
X0215914Y0382512D02*
X0218726Y0385324D01*
X0218726Y0389300D01*
X0215914Y0392112D01*
X0211938Y0392112D01*
X0209126Y0389300D01*
X0209126Y0385324D01*
X0211938Y0382512D01*
X0215914Y0382512D01*
X0216955Y0383553D02*
X0238244Y0383553D01*
X0238242Y0385151D02*
X0218554Y0385151D01*
X0218726Y0386750D02*
X0238241Y0386750D01*
X0238239Y0388348D02*
X0218726Y0388348D01*
X0218079Y0389947D02*
X0238238Y0389947D01*
X0238236Y0391546D02*
X0216480Y0391546D01*
X0211371Y0391546D02*
X0206480Y0391546D01*
X0205914Y0392112D02*
X0201938Y0392112D01*
X0199126Y0389300D01*
X0199126Y0385324D01*
X0201938Y0382512D01*
X0205914Y0382512D01*
X0208726Y0385324D01*
X0208726Y0389300D01*
X0205914Y0392112D01*
X0208079Y0389947D02*
X0209773Y0389947D01*
X0209126Y0388348D02*
X0208726Y0388348D01*
X0208726Y0386750D02*
X0209126Y0386750D01*
X0209298Y0385151D02*
X0208554Y0385151D01*
X0206955Y0383553D02*
X0210897Y0383553D01*
X0211780Y0381954D02*
X0206072Y0381954D01*
X0205914Y0382112D02*
X0201938Y0382112D01*
X0199126Y0379300D01*
X0199126Y0375324D01*
X0201938Y0372512D01*
X0205914Y0372512D01*
X0208726Y0375324D01*
X0208726Y0379300D01*
X0205914Y0382112D01*
X0207670Y0380356D02*
X0210182Y0380356D01*
X0209126Y0378757D02*
X0208726Y0378757D01*
X0208726Y0377159D02*
X0209126Y0377159D01*
X0209126Y0375560D02*
X0208726Y0375560D01*
X0207364Y0373962D02*
X0210488Y0373962D01*
X0210591Y0370765D02*
X0207261Y0370765D01*
X0208726Y0369166D02*
X0209126Y0369166D01*
X0209126Y0367568D02*
X0208726Y0367568D01*
X0208726Y0365969D02*
X0209126Y0365969D01*
X0210079Y0364371D02*
X0207773Y0364371D01*
X0206175Y0362772D02*
X0211677Y0362772D01*
X0211938Y0362112D02*
X0209126Y0359300D01*
X0209126Y0355324D01*
X0211938Y0352512D01*
X0215914Y0352512D01*
X0218726Y0355324D01*
X0218726Y0359300D01*
X0215914Y0362112D01*
X0211938Y0362112D01*
X0211000Y0361174D02*
X0206852Y0361174D01*
X0208451Y0359575D02*
X0209401Y0359575D01*
X0209126Y0357977D02*
X0208726Y0357977D01*
X0208726Y0356378D02*
X0209126Y0356378D01*
X0209670Y0354780D02*
X0208182Y0354780D01*
X0206584Y0353181D02*
X0211268Y0353181D01*
X0211938Y0352112D02*
X0209126Y0349300D01*
X0209126Y0345324D01*
X0211938Y0342512D01*
X0215914Y0342512D01*
X0218726Y0345324D01*
X0218726Y0349300D01*
X0215914Y0352112D01*
X0211938Y0352112D01*
X0211409Y0351583D02*
X0206443Y0351583D01*
X0208042Y0349984D02*
X0209810Y0349984D01*
X0209126Y0348386D02*
X0208726Y0348386D01*
X0208726Y0346787D02*
X0209126Y0346787D01*
X0209261Y0345189D02*
X0208591Y0345189D01*
X0206993Y0343590D02*
X0210859Y0343590D01*
X0211818Y0341992D02*
X0206034Y0341992D01*
X0207633Y0340393D02*
X0210219Y0340393D01*
X0209126Y0338795D02*
X0208726Y0338795D01*
X0208726Y0337196D02*
X0209126Y0337196D01*
X0209126Y0335598D02*
X0208726Y0335598D01*
X0207401Y0333999D02*
X0210450Y0333999D01*
X0210628Y0330802D02*
X0207224Y0330802D01*
X0205914Y0332112D02*
X0201938Y0332112D01*
X0199126Y0329300D01*
X0199126Y0325324D01*
X0201938Y0322512D01*
X0205914Y0322512D01*
X0208726Y0325324D01*
X0208726Y0329300D01*
X0205914Y0332112D01*
X0208726Y0329204D02*
X0209126Y0329204D01*
X0209126Y0327605D02*
X0208726Y0327605D01*
X0208726Y0326007D02*
X0209126Y0326007D01*
X0210042Y0324408D02*
X0207810Y0324408D01*
X0206212Y0322810D02*
X0211640Y0322810D01*
X0211037Y0321211D02*
X0206815Y0321211D01*
X0205914Y0322112D02*
X0201938Y0322112D01*
X0199126Y0319300D01*
X0199126Y0315324D01*
X0201938Y0312512D01*
X0205914Y0312512D01*
X0208726Y0315324D01*
X0208726Y0319300D01*
X0205914Y0322112D01*
X0208413Y0319613D02*
X0209438Y0319613D01*
X0209126Y0318014D02*
X0208726Y0318014D01*
X0208726Y0316415D02*
X0209126Y0316415D01*
X0209633Y0314817D02*
X0208219Y0314817D01*
X0206621Y0313218D02*
X0211231Y0313218D01*
X0211446Y0311620D02*
X0206406Y0311620D01*
X0208005Y0310021D02*
X0209847Y0310021D01*
X0209126Y0308423D02*
X0208726Y0308423D01*
X0208726Y0306824D02*
X0209126Y0306824D01*
X0209007Y0302231D02*
X0203926Y0307312D01*
X0200822Y0303627D02*
X0177167Y0303627D01*
X0178765Y0302029D02*
X0201855Y0302029D01*
X0200256Y0300430D02*
X0180364Y0300430D01*
X0181962Y0298832D02*
X0199126Y0298832D01*
X0199126Y0297233D02*
X0183561Y0297233D01*
X0185159Y0295635D02*
X0199126Y0295635D01*
X0200413Y0294036D02*
X0186758Y0294036D01*
X0188356Y0292438D02*
X0207271Y0292438D01*
X0207187Y0290839D02*
X0208601Y0290839D01*
X0208726Y0289241D02*
X0209126Y0289241D01*
X0209126Y0287642D02*
X0208726Y0287642D01*
X0208726Y0286044D02*
X0209126Y0286044D01*
X0210707Y0292410D02*
X0209007Y0294410D01*
X0209007Y0302231D01*
X0211607Y0302029D02*
X0211855Y0302029D01*
X0210707Y0292410D02*
X0221007Y0292410D01*
X0231307Y0282510D01*
X0231307Y0216810D01*
X0226907Y0212510D01*
X0194007Y0212510D01*
X0191125Y0215709D02*
X0184685Y0215709D01*
X0186284Y0214111D02*
X0189707Y0214111D01*
X0189707Y0212512D02*
X0187882Y0212512D01*
X0189481Y0210914D02*
X0189707Y0210914D01*
X0189406Y0207312D02*
X0148607Y0248110D01*
X0148707Y0265310D01*
X0153007Y0265263D02*
X0199186Y0265263D01*
X0199126Y0265324D02*
X0201938Y0262512D01*
X0205914Y0262512D01*
X0208726Y0265324D01*
X0208726Y0269300D01*
X0205914Y0272112D01*
X0201938Y0272112D01*
X0199126Y0269300D01*
X0199126Y0265324D01*
X0199126Y0266862D02*
X0153007Y0266862D01*
X0151638Y0268460D02*
X0199126Y0268460D01*
X0199885Y0270059D02*
X0145807Y0270059D01*
X0145807Y0271657D02*
X0201483Y0271657D01*
X0201194Y0273256D02*
X0145807Y0273256D01*
X0145807Y0274854D02*
X0199595Y0274854D01*
X0199126Y0276453D02*
X0145807Y0276453D01*
X0145807Y0278051D02*
X0199126Y0278051D01*
X0194295Y0279650D02*
X0145807Y0279650D01*
X0148626Y0281248D02*
X0192192Y0281248D01*
X0190594Y0282847D02*
X0149707Y0282847D01*
X0149707Y0284445D02*
X0188995Y0284445D01*
X0187397Y0286044D02*
X0149555Y0286044D01*
X0147956Y0287642D02*
X0185798Y0287642D01*
X0184200Y0289241D02*
X0139950Y0289241D01*
X0141210Y0290839D02*
X0182601Y0290839D01*
X0181003Y0292438D02*
X0142469Y0292438D01*
X0143729Y0294036D02*
X0163700Y0294036D01*
X0167514Y0294036D02*
X0179404Y0294036D01*
X0177806Y0295635D02*
X0169113Y0295635D01*
X0169907Y0297233D02*
X0176207Y0297233D01*
X0174609Y0298832D02*
X0169907Y0298832D01*
X0169468Y0300430D02*
X0173010Y0300430D01*
X0171411Y0302029D02*
X0167870Y0302029D01*
X0173970Y0306824D02*
X0199126Y0306824D01*
X0199126Y0308423D02*
X0172371Y0308423D01*
X0170773Y0310021D02*
X0199847Y0310021D01*
X0201446Y0311620D02*
X0169174Y0311620D01*
X0167576Y0313218D02*
X0201231Y0313218D01*
X0199633Y0314817D02*
X0165977Y0314817D01*
X0164379Y0316415D02*
X0199126Y0316415D01*
X0199126Y0318014D02*
X0162780Y0318014D01*
X0161182Y0319613D02*
X0199438Y0319613D01*
X0201037Y0321211D02*
X0159583Y0321211D01*
X0157985Y0322810D02*
X0201640Y0322810D01*
X0200042Y0324408D02*
X0156386Y0324408D01*
X0154788Y0326007D02*
X0199126Y0326007D01*
X0199126Y0327605D02*
X0153189Y0327605D01*
X0152007Y0329204D02*
X0199126Y0329204D01*
X0200628Y0330802D02*
X0152007Y0330802D01*
X0149407Y0327710D02*
X0149407Y0376610D01*
X0140907Y0385110D01*
X0132407Y0385110D01*
X0126907Y0379610D01*
X0126907Y0368810D01*
X0123667Y0365969D02*
X0044553Y0365969D01*
X0044553Y0365324D02*
X0041741Y0362512D01*
X0037765Y0362512D01*
X0034953Y0365324D01*
X0034953Y0369300D01*
X0037765Y0372112D01*
X0041741Y0372112D01*
X0044553Y0369300D01*
X0044553Y0365324D01*
X0043600Y0364371D02*
X0146807Y0364371D01*
X0146807Y0365969D02*
X0130147Y0365969D01*
X0131207Y0367568D02*
X0146807Y0367568D01*
X0146807Y0369166D02*
X0131207Y0369166D01*
X0131034Y0370765D02*
X0146807Y0370765D01*
X0146807Y0372363D02*
X0129507Y0372363D01*
X0129507Y0373962D02*
X0146807Y0373962D01*
X0146780Y0375560D02*
X0129507Y0375560D01*
X0129507Y0377159D02*
X0145181Y0377159D01*
X0143583Y0378757D02*
X0129731Y0378757D01*
X0131330Y0380356D02*
X0141984Y0380356D01*
X0140386Y0381954D02*
X0132928Y0381954D01*
X0130370Y0386750D02*
X0044553Y0386750D01*
X0044553Y0385324D02*
X0041741Y0382512D01*
X0037765Y0382512D01*
X0034953Y0385324D01*
X0034953Y0389300D01*
X0037765Y0392112D01*
X0041741Y0392112D01*
X0044553Y0389300D01*
X0044553Y0385324D01*
X0044381Y0385151D02*
X0128771Y0385151D01*
X0127173Y0383553D02*
X0042782Y0383553D01*
X0041741Y0382112D02*
X0037765Y0382112D01*
X0034953Y0379300D01*
X0034953Y0375324D01*
X0037765Y0372512D01*
X0041741Y0372512D01*
X0044553Y0375324D01*
X0044553Y0379300D01*
X0041741Y0382112D01*
X0041898Y0381954D02*
X0125574Y0381954D01*
X0124402Y0380356D02*
X0043497Y0380356D01*
X0044553Y0378757D02*
X0124307Y0378757D01*
X0124307Y0377159D02*
X0044553Y0377159D01*
X0044553Y0375560D02*
X0124307Y0375560D01*
X0124307Y0373962D02*
X0043191Y0373962D01*
X0043088Y0370765D02*
X0122781Y0370765D01*
X0122607Y0369166D02*
X0044553Y0369166D01*
X0044553Y0367568D02*
X0122607Y0367568D01*
X0124307Y0372363D02*
X0005232Y0372363D01*
X0005234Y0370765D02*
X0026418Y0370765D01*
X0027765Y0372112D02*
X0024953Y0369300D01*
X0024953Y0365324D01*
X0027765Y0362512D01*
X0031741Y0362512D01*
X0034553Y0365324D01*
X0034553Y0369300D01*
X0031741Y0372112D01*
X0027765Y0372112D01*
X0027765Y0372512D02*
X0031741Y0372512D01*
X0034553Y0375324D01*
X0034553Y0379300D01*
X0031741Y0382112D01*
X0027765Y0382112D01*
X0024953Y0379300D01*
X0024953Y0375324D01*
X0027765Y0372512D01*
X0026314Y0373962D02*
X0005231Y0373962D01*
X0005229Y0375560D02*
X0024953Y0375560D01*
X0024953Y0377159D02*
X0005228Y0377159D01*
X0005226Y0378757D02*
X0024953Y0378757D01*
X0026009Y0380356D02*
X0005225Y0380356D01*
X0005223Y0381954D02*
X0027607Y0381954D01*
X0027765Y0382512D02*
X0031741Y0382512D01*
X0034553Y0385324D01*
X0034553Y0389300D01*
X0031741Y0392112D01*
X0027765Y0392112D01*
X0024953Y0389300D01*
X0024953Y0385324D01*
X0027765Y0382512D01*
X0026723Y0383553D02*
X0005222Y0383553D01*
X0005221Y0385151D02*
X0025125Y0385151D01*
X0024953Y0386750D02*
X0005219Y0386750D01*
X0005218Y0388348D02*
X0024953Y0388348D01*
X0025600Y0389947D02*
X0005216Y0389947D01*
X0005215Y0391546D02*
X0027198Y0391546D01*
X0032307Y0391546D02*
X0037198Y0391546D01*
X0035600Y0389947D02*
X0033906Y0389947D01*
X0034553Y0388348D02*
X0034953Y0388348D01*
X0034953Y0386750D02*
X0034553Y0386750D01*
X0034381Y0385151D02*
X0035125Y0385151D01*
X0036723Y0383553D02*
X0032782Y0383553D01*
X0031898Y0381954D02*
X0037607Y0381954D01*
X0036009Y0380356D02*
X0033497Y0380356D01*
X0034553Y0378757D02*
X0034953Y0378757D01*
X0034953Y0377159D02*
X0034553Y0377159D01*
X0034553Y0375560D02*
X0034953Y0375560D01*
X0036314Y0373962D02*
X0033191Y0373962D01*
X0033088Y0370765D02*
X0036418Y0370765D01*
X0034953Y0369166D02*
X0034553Y0369166D01*
X0034553Y0367568D02*
X0034953Y0367568D01*
X0034953Y0365969D02*
X0034553Y0365969D01*
X0033600Y0364371D02*
X0035906Y0364371D01*
X0037504Y0362772D02*
X0032001Y0362772D01*
X0032679Y0361174D02*
X0036827Y0361174D01*
X0037765Y0362112D02*
X0034953Y0359300D01*
X0034953Y0355324D01*
X0037765Y0352512D01*
X0041741Y0352512D01*
X0044553Y0355324D01*
X0044553Y0359300D01*
X0041741Y0362112D01*
X0037765Y0362112D01*
X0035228Y0359575D02*
X0034277Y0359575D01*
X0034553Y0357977D02*
X0034953Y0357977D01*
X0034953Y0356378D02*
X0034553Y0356378D01*
X0034898Y0354780D02*
X0035497Y0354780D01*
X0037013Y0353181D02*
X0037095Y0353181D01*
X0034307Y0352210D02*
X0039206Y0347312D01*
X0039753Y0347312D01*
X0039753Y0346956D01*
X0042270Y0351583D02*
X0146807Y0351583D01*
X0146807Y0353181D02*
X0042410Y0353181D01*
X0044009Y0354780D02*
X0146807Y0354780D01*
X0146807Y0356378D02*
X0044553Y0356378D01*
X0044553Y0357977D02*
X0146807Y0357977D01*
X0146807Y0359575D02*
X0044277Y0359575D01*
X0042679Y0361174D02*
X0146807Y0361174D01*
X0146807Y0362772D02*
X0042001Y0362772D01*
X0034307Y0352210D02*
X0025407Y0352210D01*
X0022707Y0349510D01*
X0022707Y0334310D01*
X0024707Y0332310D01*
X0045807Y0332310D01*
X0048607Y0329510D01*
X0048607Y0305910D01*
X0133307Y0221210D01*
X0144707Y0209510D01*
X0144807Y0206610D01*
X0144807Y0204110D01*
X0147107Y0202510D01*
X0146007Y0196310D02*
X0141407Y0199710D01*
X0141507Y0208010D01*
X0126107Y0223410D01*
X0126007Y0223410D01*
X0045307Y0304110D01*
X0045307Y0322310D01*
X0040306Y0327312D01*
X0039753Y0327312D01*
X0034807Y0321910D02*
X0029753Y0326965D01*
X0029753Y0327312D01*
X0027467Y0322810D02*
X0005278Y0322810D01*
X0005277Y0324408D02*
X0025868Y0324408D01*
X0024953Y0326007D02*
X0005275Y0326007D01*
X0005274Y0327605D02*
X0024953Y0327605D01*
X0024953Y0329204D02*
X0005272Y0329204D01*
X0005271Y0330802D02*
X0022538Y0330802D01*
X0020940Y0332401D02*
X0005269Y0332401D01*
X0005268Y0333999D02*
X0020107Y0333999D01*
X0020107Y0335598D02*
X0005266Y0335598D01*
X0005265Y0337196D02*
X0020107Y0337196D01*
X0020107Y0338795D02*
X0005263Y0338795D01*
X0005262Y0340393D02*
X0020107Y0340393D01*
X0020107Y0341992D02*
X0005260Y0341992D01*
X0005259Y0343590D02*
X0020107Y0343590D01*
X0020107Y0345189D02*
X0005258Y0345189D01*
X0005256Y0346787D02*
X0020107Y0346787D01*
X0020107Y0348386D02*
X0005255Y0348386D01*
X0005253Y0349984D02*
X0020107Y0349984D01*
X0021103Y0351583D02*
X0005252Y0351583D01*
X0005250Y0353181D02*
X0022701Y0353181D01*
X0024816Y0354780D02*
X0005249Y0354780D01*
X0005247Y0356378D02*
X0024953Y0356378D01*
X0024953Y0357977D02*
X0005246Y0357977D01*
X0005244Y0359575D02*
X0025228Y0359575D01*
X0026827Y0361174D02*
X0005243Y0361174D01*
X0005241Y0362772D02*
X0027504Y0362772D01*
X0025906Y0364371D02*
X0005240Y0364371D01*
X0005238Y0365969D02*
X0024953Y0365969D01*
X0024953Y0367568D02*
X0005237Y0367568D01*
X0005235Y0369166D02*
X0024953Y0369166D01*
X0034651Y0342210D02*
X0047207Y0342210D01*
X0055207Y0334210D01*
X0055207Y0334110D01*
X0055507Y0333810D01*
X0055507Y0308410D01*
X0151807Y0212110D01*
X0154707Y0212110D01*
X0157607Y0209210D01*
X0156707Y0202810D02*
X0052107Y0307410D01*
X0052107Y0332210D01*
X0047006Y0337312D01*
X0039753Y0337312D01*
X0034651Y0342210D02*
X0029753Y0337312D01*
X0034807Y0321910D02*
X0034807Y0293310D01*
X0035707Y0292410D01*
X0052207Y0292410D01*
X0138407Y0205810D01*
X0138407Y0202410D01*
X0138507Y0197710D01*
X0144407Y0193210D01*
X0149607Y0193210D01*
X0167307Y0192810D01*
X0162207Y0198610D02*
X0159807Y0196210D01*
X0159507Y0196210D01*
X0146007Y0196310D01*
X0136207Y0186610D02*
X0184107Y0186610D01*
X0188507Y0182210D01*
X0223907Y0182210D01*
X0229109Y0182141D02*
X0238430Y0182141D01*
X0238428Y0183739D02*
X0231967Y0183739D01*
X0234825Y0185338D02*
X0238427Y0185338D01*
X0238425Y0186936D02*
X0237540Y0186936D01*
X0238331Y0188535D02*
X0238424Y0188535D01*
X0238423Y0190133D02*
X0238312Y0190133D01*
X0238319Y0191732D02*
X0238421Y0191732D01*
X0238420Y0193330D02*
X0238325Y0193330D01*
X0238331Y0194929D02*
X0238418Y0194929D01*
X0238417Y0196527D02*
X0238337Y0196527D01*
X0238344Y0198126D02*
X0238415Y0198126D01*
X0238414Y0199724D02*
X0238350Y0199724D01*
X0238356Y0201323D02*
X0238412Y0201323D01*
X0238362Y0202921D02*
X0238411Y0202921D01*
X0238369Y0204520D02*
X0238409Y0204520D01*
X0238375Y0206118D02*
X0238408Y0206118D01*
X0238381Y0207717D02*
X0238406Y0207717D01*
X0238387Y0209315D02*
X0238405Y0209315D01*
X0238394Y0210914D02*
X0238403Y0210914D01*
X0238400Y0212512D02*
X0238402Y0212512D01*
X0228096Y0217308D02*
X0218726Y0217308D01*
X0218726Y0218906D02*
X0228707Y0218906D01*
X0228707Y0220505D02*
X0217521Y0220505D01*
X0215923Y0222103D02*
X0228707Y0222103D01*
X0228707Y0223702D02*
X0217104Y0223702D01*
X0215914Y0222512D02*
X0218726Y0225324D01*
X0218726Y0229300D01*
X0215914Y0232112D01*
X0211938Y0232112D01*
X0209126Y0229300D01*
X0209126Y0225324D01*
X0211938Y0222512D01*
X0215914Y0222512D01*
X0218703Y0225300D02*
X0228707Y0225300D01*
X0228707Y0226899D02*
X0218726Y0226899D01*
X0218726Y0228497D02*
X0228707Y0228497D01*
X0228707Y0230096D02*
X0217930Y0230096D01*
X0216332Y0231694D02*
X0228707Y0231694D01*
X0228707Y0233293D02*
X0216695Y0233293D01*
X0215914Y0232512D02*
X0218726Y0235324D01*
X0218726Y0239300D01*
X0215914Y0242112D01*
X0211938Y0242112D01*
X0209126Y0239300D01*
X0209126Y0235324D01*
X0211938Y0232512D01*
X0215914Y0232512D01*
X0218294Y0234891D02*
X0228707Y0234891D01*
X0228707Y0236490D02*
X0218726Y0236490D01*
X0218726Y0238088D02*
X0228707Y0238088D01*
X0228707Y0239687D02*
X0218339Y0239687D01*
X0216741Y0241285D02*
X0228707Y0241285D01*
X0228707Y0242884D02*
X0216286Y0242884D01*
X0215914Y0242512D02*
X0218726Y0245324D01*
X0218726Y0249300D01*
X0215914Y0252112D01*
X0211938Y0252112D01*
X0209126Y0249300D01*
X0209126Y0245324D01*
X0211938Y0242512D01*
X0215914Y0242512D01*
X0217885Y0244482D02*
X0228707Y0244482D01*
X0228707Y0246081D02*
X0218726Y0246081D01*
X0218726Y0247679D02*
X0228707Y0247679D01*
X0228707Y0249278D02*
X0218726Y0249278D01*
X0217149Y0250877D02*
X0228707Y0250877D01*
X0228707Y0252475D02*
X0151232Y0252475D01*
X0151223Y0250877D02*
X0200702Y0250877D01*
X0201938Y0252112D02*
X0199126Y0249300D01*
X0199126Y0245324D01*
X0201938Y0242512D01*
X0205914Y0242512D01*
X0208726Y0245324D01*
X0208726Y0249300D01*
X0205914Y0252112D01*
X0201938Y0252112D01*
X0201938Y0252512D02*
X0205914Y0252512D01*
X0208726Y0255324D01*
X0208726Y0259300D01*
X0205914Y0262112D01*
X0201938Y0262112D01*
X0199126Y0259300D01*
X0199126Y0255324D01*
X0201938Y0252512D01*
X0200376Y0254074D02*
X0151242Y0254074D01*
X0151251Y0255672D02*
X0199126Y0255672D01*
X0199126Y0257271D02*
X0151260Y0257271D01*
X0151270Y0258869D02*
X0199126Y0258869D01*
X0200294Y0260468D02*
X0151279Y0260468D01*
X0151544Y0262066D02*
X0201892Y0262066D01*
X0200785Y0263665D02*
X0153007Y0263665D01*
X0140607Y0263665D02*
X0138564Y0263665D01*
X0138560Y0265263D02*
X0140607Y0265263D01*
X0140607Y0266862D02*
X0138556Y0266862D01*
X0138553Y0268460D02*
X0140607Y0268460D01*
X0140607Y0270059D02*
X0138549Y0270059D01*
X0138545Y0271657D02*
X0140607Y0271657D01*
X0140607Y0273256D02*
X0138542Y0273256D01*
X0138538Y0274854D02*
X0140607Y0274854D01*
X0140607Y0276453D02*
X0138534Y0276453D01*
X0138531Y0278051D02*
X0140607Y0278051D01*
X0140607Y0279650D02*
X0138527Y0279650D01*
X0138523Y0281248D02*
X0140607Y0281248D01*
X0140607Y0282847D02*
X0138520Y0282847D01*
X0138516Y0284445D02*
X0140614Y0284445D01*
X0141260Y0286044D02*
X0138512Y0286044D01*
X0138691Y0287642D02*
X0142858Y0287642D01*
X0143207Y0283910D02*
X0145407Y0284110D01*
X0143207Y0283910D02*
X0143207Y0247110D01*
X0187307Y0202810D01*
X0187307Y0202710D01*
X0187707Y0202310D01*
X0208924Y0202310D01*
X0213926Y0207312D01*
X0218726Y0215709D02*
X0226461Y0215709D01*
X0211929Y0222103D02*
X0205923Y0222103D01*
X0205914Y0222512D02*
X0208726Y0225324D01*
X0208726Y0229300D01*
X0205914Y0232112D01*
X0201938Y0232112D01*
X0199126Y0229300D01*
X0199126Y0225324D01*
X0201938Y0222512D01*
X0205914Y0222512D01*
X0207104Y0223702D02*
X0210748Y0223702D01*
X0209149Y0225300D02*
X0208703Y0225300D01*
X0208726Y0226899D02*
X0209126Y0226899D01*
X0209126Y0228497D02*
X0208726Y0228497D01*
X0207930Y0230096D02*
X0209922Y0230096D01*
X0211520Y0231694D02*
X0206332Y0231694D01*
X0205914Y0232512D02*
X0208726Y0235324D01*
X0208726Y0239300D01*
X0205914Y0242112D01*
X0201938Y0242112D01*
X0199126Y0239300D01*
X0199126Y0235324D01*
X0201938Y0232512D01*
X0205914Y0232512D01*
X0206695Y0233293D02*
X0211157Y0233293D01*
X0209558Y0234891D02*
X0208294Y0234891D01*
X0208726Y0236490D02*
X0209126Y0236490D01*
X0209126Y0238088D02*
X0208726Y0238088D01*
X0208339Y0239687D02*
X0209513Y0239687D01*
X0211111Y0241285D02*
X0206741Y0241285D01*
X0206286Y0242884D02*
X0211566Y0242884D01*
X0209967Y0244482D02*
X0207885Y0244482D01*
X0208726Y0246081D02*
X0209126Y0246081D01*
X0209126Y0247679D02*
X0208726Y0247679D01*
X0208726Y0249278D02*
X0209126Y0249278D01*
X0210702Y0250877D02*
X0207149Y0250877D01*
X0207476Y0254074D02*
X0210376Y0254074D01*
X0209126Y0255324D02*
X0211938Y0252512D01*
X0215914Y0252512D01*
X0218726Y0255324D01*
X0218726Y0259300D01*
X0215914Y0262112D01*
X0211938Y0262112D01*
X0209126Y0259300D01*
X0209126Y0255324D01*
X0209126Y0255672D02*
X0208726Y0255672D01*
X0208726Y0257271D02*
X0209126Y0257271D01*
X0209126Y0258869D02*
X0208726Y0258869D01*
X0207558Y0260468D02*
X0210294Y0260468D01*
X0211892Y0262066D02*
X0205960Y0262066D01*
X0207067Y0263665D02*
X0210785Y0263665D01*
X0209186Y0265263D02*
X0208666Y0265263D01*
X0208726Y0266862D02*
X0209126Y0266862D01*
X0209126Y0268460D02*
X0208726Y0268460D01*
X0207967Y0270059D02*
X0209885Y0270059D01*
X0211483Y0271657D02*
X0206369Y0271657D01*
X0206658Y0273256D02*
X0211194Y0273256D01*
X0209595Y0274854D02*
X0208257Y0274854D01*
X0208726Y0276453D02*
X0209126Y0276453D01*
X0209126Y0278051D02*
X0208726Y0278051D01*
X0213926Y0267312D02*
X0221807Y0275193D01*
X0221807Y0282010D01*
X0221607Y0282210D01*
X0194907Y0282210D01*
X0149407Y0327710D01*
X0142273Y0300430D02*
X0131007Y0300430D01*
X0131462Y0298832D02*
X0140887Y0298832D01*
X0139627Y0297233D02*
X0133061Y0297233D01*
X0134280Y0295635D02*
X0138368Y0295635D01*
X0137109Y0294036D02*
X0134407Y0294036D01*
X0134407Y0292438D02*
X0135849Y0292438D01*
X0134590Y0290839D02*
X0134407Y0290839D01*
X0131807Y0287310D02*
X0131807Y0294810D01*
X0128407Y0298210D01*
X0128407Y0336510D01*
X0113407Y0344210D01*
X0142944Y0386750D02*
X0199126Y0386750D01*
X0199126Y0388348D02*
X0044553Y0388348D01*
X0043906Y0389947D02*
X0199773Y0389947D01*
X0201371Y0391546D02*
X0042307Y0391546D01*
X0005213Y0393144D02*
X0238235Y0393144D01*
X0238233Y0394743D02*
X0005212Y0394743D01*
X0005210Y0396341D02*
X0238232Y0396341D01*
X0238257Y0369166D02*
X0218726Y0369166D01*
X0218726Y0367568D02*
X0238258Y0367568D01*
X0238260Y0365969D02*
X0218726Y0365969D01*
X0217773Y0364371D02*
X0238261Y0364371D01*
X0238263Y0362772D02*
X0216175Y0362772D01*
X0216852Y0361174D02*
X0238264Y0361174D01*
X0238266Y0359575D02*
X0218451Y0359575D01*
X0218726Y0357977D02*
X0238267Y0357977D01*
X0238269Y0356378D02*
X0218726Y0356378D01*
X0218182Y0354780D02*
X0238270Y0354780D01*
X0238272Y0353181D02*
X0216584Y0353181D01*
X0216443Y0351583D02*
X0238273Y0351583D01*
X0238275Y0349984D02*
X0218042Y0349984D01*
X0218726Y0348386D02*
X0238276Y0348386D01*
X0238278Y0346787D02*
X0218726Y0346787D01*
X0218591Y0345189D02*
X0238279Y0345189D01*
X0238281Y0343590D02*
X0216993Y0343590D01*
X0216034Y0341992D02*
X0238282Y0341992D01*
X0238283Y0340393D02*
X0217633Y0340393D01*
X0218726Y0338795D02*
X0238285Y0338795D01*
X0238286Y0337196D02*
X0218726Y0337196D01*
X0218726Y0335598D02*
X0238288Y0335598D01*
X0220553Y0289241D02*
X0218726Y0289241D01*
X0218726Y0287642D02*
X0222216Y0287642D01*
X0223879Y0286044D02*
X0218726Y0286044D01*
X0223005Y0284445D02*
X0225542Y0284445D01*
X0224275Y0282847D02*
X0227205Y0282847D01*
X0228707Y0281248D02*
X0224407Y0281248D01*
X0224407Y0279650D02*
X0228707Y0279650D01*
X0228707Y0278051D02*
X0224407Y0278051D01*
X0224407Y0276453D02*
X0228707Y0276453D01*
X0228707Y0274854D02*
X0224407Y0274854D01*
X0223547Y0273256D02*
X0228707Y0273256D01*
X0228707Y0271657D02*
X0221948Y0271657D01*
X0220350Y0270059D02*
X0228707Y0270059D01*
X0228707Y0268460D02*
X0218751Y0268460D01*
X0218726Y0266862D02*
X0228707Y0266862D01*
X0228707Y0265263D02*
X0218666Y0265263D01*
X0217067Y0263665D02*
X0228707Y0263665D01*
X0228707Y0262066D02*
X0215960Y0262066D01*
X0217558Y0260468D02*
X0228707Y0260468D01*
X0228707Y0258869D02*
X0218726Y0258869D01*
X0218726Y0257271D02*
X0228707Y0257271D01*
X0228707Y0255672D02*
X0218726Y0255672D01*
X0217476Y0254074D02*
X0228707Y0254074D01*
X0210331Y0220505D02*
X0207521Y0220505D01*
X0208726Y0218906D02*
X0209126Y0218906D01*
X0209126Y0217308D02*
X0208726Y0217308D01*
X0208726Y0215709D02*
X0209126Y0215709D01*
X0203926Y0207312D02*
X0189406Y0207312D01*
X0185068Y0201323D02*
X0183773Y0201323D01*
X0183528Y0202921D02*
X0182153Y0202921D01*
X0181937Y0204520D02*
X0180533Y0204520D01*
X0180345Y0206118D02*
X0178913Y0206118D01*
X0178754Y0207717D02*
X0177294Y0207717D01*
X0177163Y0209315D02*
X0175674Y0209315D01*
X0175572Y0210914D02*
X0174054Y0210914D01*
X0173980Y0212512D02*
X0172435Y0212512D01*
X0172389Y0214111D02*
X0170815Y0214111D01*
X0170798Y0215709D02*
X0169195Y0215709D01*
X0169206Y0217308D02*
X0167576Y0217308D01*
X0167615Y0218906D02*
X0165956Y0218906D01*
X0166024Y0220505D02*
X0164336Y0220505D01*
X0164432Y0222103D02*
X0162716Y0222103D01*
X0162841Y0223702D02*
X0161097Y0223702D01*
X0161250Y0225300D02*
X0159477Y0225300D01*
X0159659Y0226899D02*
X0157857Y0226899D01*
X0158067Y0228497D02*
X0156238Y0228497D01*
X0156476Y0230096D02*
X0154618Y0230096D01*
X0154885Y0231694D02*
X0152998Y0231694D01*
X0153293Y0233293D02*
X0151379Y0233293D01*
X0151702Y0234891D02*
X0149759Y0234891D01*
X0150111Y0236490D02*
X0148139Y0236490D01*
X0148520Y0238088D02*
X0146519Y0238088D01*
X0146928Y0239687D02*
X0144900Y0239687D01*
X0145337Y0241285D02*
X0143280Y0241285D01*
X0143746Y0242884D02*
X0141660Y0242884D01*
X0142154Y0244482D02*
X0140041Y0244482D01*
X0140819Y0246081D02*
X0138604Y0246081D01*
X0138600Y0247679D02*
X0140607Y0247679D01*
X0140607Y0249278D02*
X0138597Y0249278D01*
X0138593Y0250877D02*
X0140607Y0250877D01*
X0140607Y0252475D02*
X0138589Y0252475D01*
X0138586Y0254074D02*
X0140607Y0254074D01*
X0140607Y0255672D02*
X0138582Y0255672D01*
X0138578Y0257271D02*
X0140607Y0257271D01*
X0140607Y0258869D02*
X0138575Y0258869D01*
X0138571Y0260468D02*
X0140607Y0260468D01*
X0140607Y0262066D02*
X0138567Y0262066D01*
X0129154Y0262066D02*
X0105528Y0262066D01*
X0103930Y0263665D02*
X0129157Y0263665D01*
X0129161Y0265263D02*
X0102331Y0265263D01*
X0100733Y0266862D02*
X0129164Y0266862D01*
X0129167Y0268460D02*
X0099134Y0268460D01*
X0107127Y0260468D02*
X0129151Y0260468D01*
X0129147Y0258869D02*
X0108725Y0258869D01*
X0110324Y0257271D02*
X0129144Y0257271D01*
X0129140Y0255672D02*
X0111922Y0255672D01*
X0113521Y0254074D02*
X0129137Y0254074D01*
X0129134Y0252475D02*
X0115119Y0252475D01*
X0116718Y0250877D02*
X0129130Y0250877D01*
X0129127Y0249278D02*
X0118316Y0249278D01*
X0119915Y0247679D02*
X0129124Y0247679D01*
X0129120Y0246081D02*
X0121513Y0246081D01*
X0123112Y0244482D02*
X0129117Y0244482D01*
X0129114Y0242884D02*
X0124710Y0242884D01*
X0126309Y0241285D02*
X0129110Y0241285D01*
X0129107Y0239687D02*
X0127907Y0239687D01*
X0129506Y0238088D02*
X0129745Y0238088D01*
X0131104Y0236490D02*
X0131422Y0236490D01*
X0132703Y0234891D02*
X0133098Y0234891D01*
X0134301Y0233293D02*
X0134775Y0233293D01*
X0135900Y0231694D02*
X0136452Y0231694D01*
X0137498Y0230096D02*
X0138128Y0230096D01*
X0139097Y0228497D02*
X0139805Y0228497D01*
X0140695Y0226899D02*
X0141482Y0226899D01*
X0142294Y0225300D02*
X0143158Y0225300D01*
X0143892Y0223702D02*
X0144835Y0223702D01*
X0145491Y0222103D02*
X0146512Y0222103D01*
X0147089Y0220505D02*
X0148188Y0220505D01*
X0148688Y0218906D02*
X0149865Y0218906D01*
X0150286Y0217308D02*
X0151542Y0217308D01*
X0151885Y0215709D02*
X0153218Y0215709D01*
X0165503Y0234891D02*
X0199558Y0234891D01*
X0199126Y0236490D02*
X0163904Y0236490D01*
X0162306Y0238088D02*
X0199126Y0238088D01*
X0199513Y0239687D02*
X0160707Y0239687D01*
X0159109Y0241285D02*
X0201111Y0241285D01*
X0201566Y0242884D02*
X0157510Y0242884D01*
X0155912Y0244482D02*
X0199967Y0244482D01*
X0199126Y0246081D02*
X0154313Y0246081D01*
X0152715Y0247679D02*
X0199126Y0247679D01*
X0199126Y0249278D02*
X0151214Y0249278D01*
X0167101Y0233293D02*
X0201157Y0233293D01*
X0201520Y0231694D02*
X0168700Y0231694D01*
X0170298Y0230096D02*
X0199922Y0230096D01*
X0199126Y0228497D02*
X0171897Y0228497D01*
X0173495Y0226899D02*
X0199126Y0226899D01*
X0199149Y0225300D02*
X0175094Y0225300D01*
X0176692Y0223702D02*
X0200748Y0223702D01*
X0201929Y0222103D02*
X0178291Y0222103D01*
X0179889Y0220505D02*
X0200331Y0220505D01*
X0199126Y0218906D02*
X0181488Y0218906D01*
X0183086Y0217308D02*
X0199126Y0217308D01*
X0199126Y0215709D02*
X0196889Y0215709D01*
X0199126Y0198126D02*
X0187012Y0198126D01*
X0187156Y0199724D02*
X0185392Y0199724D01*
X0188632Y0196527D02*
X0199126Y0196527D01*
X0199521Y0194929D02*
X0190251Y0194929D01*
X0185607Y0190710D02*
X0189006Y0187312D01*
X0203926Y0187312D01*
X0192907Y0172310D02*
X0218007Y0172310D01*
X0220707Y0169610D01*
X0220707Y0155810D01*
X0217107Y0152210D01*
X0208824Y0152210D01*
X0203926Y0147312D01*
X0201207Y0142610D02*
X0208628Y0142610D01*
X0213926Y0137312D01*
X0203926Y0137312D02*
X0180207Y0113593D01*
X0180207Y0103210D01*
X0177607Y0107010D02*
X0161203Y0107010D01*
X0160316Y0105412D02*
X0176328Y0105412D01*
X0175907Y0103813D02*
X0157541Y0103813D01*
X0157605Y0103332D02*
X0149696Y0103332D01*
X0147931Y0102602D01*
X0146581Y0101251D01*
X0145850Y0099487D01*
X0145850Y0097577D01*
X0146581Y0095813D01*
X0147931Y0094463D01*
X0149696Y0093732D01*
X0157605Y0093732D01*
X0159369Y0094463D01*
X0160720Y0095813D01*
X0161450Y0097577D01*
X0161450Y0099487D01*
X0160720Y0101251D01*
X0159369Y0102602D01*
X0157605Y0103332D01*
X0159756Y0102215D02*
X0171131Y0102215D01*
X0169532Y0100616D02*
X0160983Y0100616D01*
X0161450Y0099018D02*
X0168707Y0099018D01*
X0168707Y0097419D02*
X0161385Y0097419D01*
X0160723Y0095821D02*
X0169115Y0095821D01*
X0170714Y0094222D02*
X0158788Y0094222D01*
X0153850Y0103813D02*
X0153450Y0103813D01*
X0153450Y0105412D02*
X0153850Y0105412D01*
X0153850Y0107010D02*
X0153450Y0107010D01*
X0153450Y0110208D02*
X0153850Y0110208D01*
X0153850Y0111806D02*
X0153450Y0111806D01*
X0149760Y0103813D02*
X0097580Y0103813D01*
X0099795Y0102215D02*
X0147545Y0102215D01*
X0146318Y0100616D02*
X0101022Y0100616D01*
X0101490Y0099018D02*
X0145850Y0099018D01*
X0145916Y0097419D02*
X0101424Y0097419D01*
X0100762Y0095821D02*
X0146578Y0095821D01*
X0148512Y0094222D02*
X0098828Y0094222D01*
X0100356Y0105412D02*
X0146984Y0105412D01*
X0146098Y0107010D02*
X0101242Y0107010D01*
X0101192Y0110208D02*
X0146148Y0110208D01*
X0147136Y0111806D02*
X0100204Y0111806D01*
X0093890Y0111806D02*
X0093490Y0111806D01*
X0093490Y0110208D02*
X0093890Y0110208D01*
X0107307Y0143776D02*
X0148392Y0143776D01*
X0152622Y0143776D02*
X0196364Y0143776D01*
X0195807Y0145375D02*
X0107307Y0145375D01*
X0107307Y0146973D02*
X0195807Y0146973D01*
X0195807Y0148572D02*
X0107307Y0148572D01*
X0107307Y0150170D02*
X0195807Y0150170D01*
X0195807Y0151769D02*
X0160247Y0151769D01*
X0161845Y0153367D02*
X0194573Y0153367D01*
X0192975Y0154966D02*
X0162607Y0154966D01*
X0162607Y0156564D02*
X0191376Y0156564D01*
X0189778Y0158163D02*
X0162136Y0158163D01*
X0160537Y0159761D02*
X0188179Y0159761D01*
X0186580Y0161360D02*
X0148069Y0161360D01*
X0149652Y0159761D02*
X0156077Y0159761D01*
X0158307Y0155910D02*
X0149807Y0155910D01*
X0129007Y0176910D01*
X0117807Y0176910D01*
X0114107Y0180610D01*
X0114107Y0185210D01*
X0132107Y0203210D01*
X0132107Y0207510D01*
X0057207Y0282410D01*
X0024807Y0282410D01*
X0022607Y0284610D01*
X0022607Y0309210D01*
X0029753Y0316356D01*
X0029753Y0317312D01*
X0026864Y0321211D02*
X0005280Y0321211D01*
X0005281Y0319613D02*
X0025265Y0319613D01*
X0024953Y0318014D02*
X0005283Y0318014D01*
X0005284Y0316415D02*
X0024953Y0316415D01*
X0024537Y0314817D02*
X0005286Y0314817D01*
X0005287Y0313218D02*
X0022938Y0313218D01*
X0021340Y0311620D02*
X0005289Y0311620D01*
X0005290Y0310021D02*
X0020129Y0310021D01*
X0020007Y0308423D02*
X0005292Y0308423D01*
X0005293Y0306824D02*
X0020007Y0306824D01*
X0020007Y0305226D02*
X0005294Y0305226D01*
X0005296Y0303627D02*
X0020007Y0303627D01*
X0020007Y0302029D02*
X0005297Y0302029D01*
X0005299Y0300430D02*
X0020007Y0300430D01*
X0020007Y0298832D02*
X0005300Y0298832D01*
X0005302Y0297233D02*
X0020007Y0297233D01*
X0020007Y0295635D02*
X0005303Y0295635D01*
X0005305Y0294036D02*
X0020007Y0294036D01*
X0020007Y0292438D02*
X0005306Y0292438D01*
X0005308Y0290839D02*
X0020007Y0290839D01*
X0020007Y0289241D02*
X0005309Y0289241D01*
X0005311Y0287642D02*
X0020007Y0287642D01*
X0020007Y0286044D02*
X0005312Y0286044D01*
X0005314Y0284445D02*
X0020007Y0284445D01*
X0020694Y0282847D02*
X0005315Y0282847D01*
X0005317Y0281248D02*
X0022292Y0281248D01*
X0025302Y0279650D02*
X0005318Y0279650D01*
X0005320Y0278051D02*
X0024953Y0278051D01*
X0024953Y0276453D02*
X0005321Y0276453D01*
X0005323Y0274854D02*
X0025422Y0274854D01*
X0027021Y0273256D02*
X0005324Y0273256D01*
X0005326Y0271657D02*
X0027310Y0271657D01*
X0025711Y0270059D02*
X0005327Y0270059D01*
X0005328Y0268460D02*
X0024953Y0268460D01*
X0024953Y0266862D02*
X0005330Y0266862D01*
X0005331Y0265263D02*
X0025013Y0265263D01*
X0026612Y0263665D02*
X0005333Y0263665D01*
X0005334Y0262066D02*
X0027719Y0262066D01*
X0026120Y0260468D02*
X0005336Y0260468D01*
X0005337Y0258869D02*
X0024953Y0258869D01*
X0024953Y0257271D02*
X0005339Y0257271D01*
X0005340Y0255672D02*
X0024953Y0255672D01*
X0026203Y0254074D02*
X0005342Y0254074D01*
X0034083Y0274854D02*
X0035422Y0274854D01*
X0034953Y0276453D02*
X0034553Y0276453D01*
X0034553Y0278051D02*
X0034953Y0278051D01*
X0035302Y0279650D02*
X0034203Y0279650D01*
X0094651Y0178944D02*
X0102107Y0178944D01*
X0102107Y0177345D02*
X0096249Y0177345D01*
X0095111Y0178483D02*
X0095111Y0178483D01*
X0097848Y0175746D02*
X0102107Y0175746D01*
X0102374Y0174148D02*
X0099446Y0174148D01*
X0101045Y0172549D02*
X0103791Y0172549D01*
X0102643Y0170951D02*
X0105389Y0170951D01*
X0104242Y0169352D02*
X0106988Y0169352D01*
X0105840Y0167754D02*
X0108586Y0167754D01*
X0107130Y0166155D02*
X0110185Y0166155D01*
X0111783Y0164557D02*
X0107307Y0164557D01*
X0107307Y0162958D02*
X0113382Y0162958D01*
X0114980Y0161360D02*
X0107307Y0161360D01*
X0107307Y0159761D02*
X0116579Y0159761D01*
X0118178Y0158163D02*
X0107307Y0158163D01*
X0107307Y0156564D02*
X0119776Y0156564D01*
X0120907Y0154966D02*
X0107307Y0154966D01*
X0107307Y0153367D02*
X0120907Y0153367D01*
X0122267Y0151769D02*
X0107307Y0151769D01*
X0119137Y0164557D02*
X0137583Y0164557D01*
X0136000Y0166155D02*
X0117539Y0166155D01*
X0115940Y0167754D02*
X0134417Y0167754D01*
X0132833Y0169352D02*
X0114342Y0169352D01*
X0112743Y0170951D02*
X0131250Y0170951D01*
X0129667Y0172549D02*
X0111145Y0172549D01*
X0109546Y0174148D02*
X0128084Y0174148D01*
X0129007Y0181610D02*
X0144907Y0169710D01*
X0181907Y0169710D01*
X0198407Y0153210D01*
X0198407Y0145410D01*
X0201207Y0142610D01*
X0199561Y0140579D02*
X0161819Y0140579D01*
X0161907Y0138981D02*
X0199126Y0138981D01*
X0199126Y0137382D02*
X0161907Y0137382D01*
X0160762Y0135784D02*
X0198721Y0135784D01*
X0197122Y0134185D02*
X0156980Y0134185D01*
X0155460Y0132587D02*
X0195524Y0132587D01*
X0193925Y0130988D02*
X0153862Y0130988D01*
X0152307Y0133110D02*
X0154207Y0135010D01*
X0157607Y0138710D01*
X0154993Y0142178D02*
X0154221Y0142178D01*
X0150507Y0139810D02*
X0142007Y0139410D01*
X0144607Y0133110D02*
X0128907Y0117410D01*
X0129890Y0115003D02*
X0177977Y0115003D01*
X0179539Y0116602D02*
X0131775Y0116602D01*
X0133374Y0118200D02*
X0181137Y0118200D01*
X0182736Y0119799D02*
X0134972Y0119799D01*
X0136571Y0121397D02*
X0184334Y0121397D01*
X0185933Y0122996D02*
X0138169Y0122996D01*
X0139768Y0124594D02*
X0187531Y0124594D01*
X0189130Y0126193D02*
X0141366Y0126193D01*
X0142965Y0127791D02*
X0190728Y0127791D01*
X0192327Y0129390D02*
X0144563Y0129390D01*
X0144607Y0133110D02*
X0152307Y0133110D01*
X0160221Y0142178D02*
X0197963Y0142178D01*
X0197007Y0162010D02*
X0183207Y0175810D01*
X0145907Y0175710D01*
X0138807Y0181510D01*
X0135507Y0185910D02*
X0136207Y0186610D01*
X0135507Y0185910D02*
X0125007Y0185810D01*
X0129007Y0181610D02*
X0120107Y0181710D01*
X0115294Y0175746D02*
X0107948Y0175746D01*
X0107307Y0177345D02*
X0113695Y0177345D01*
X0112097Y0178944D02*
X0107307Y0178944D01*
X0107307Y0180542D02*
X0111507Y0180542D01*
X0111507Y0182141D02*
X0107307Y0182141D01*
X0107507Y0181610D02*
X0133507Y0155210D01*
X0133507Y0143010D01*
X0128407Y0137910D01*
X0126507Y0137910D01*
X0126607Y0137810D01*
X0128147Y0151769D02*
X0156367Y0151769D01*
X0149147Y0153367D02*
X0129507Y0153367D01*
X0129507Y0154966D02*
X0147083Y0154966D01*
X0145500Y0156564D02*
X0129507Y0156564D01*
X0128036Y0158163D02*
X0143916Y0158163D01*
X0142333Y0159761D02*
X0123933Y0159761D01*
X0122334Y0161360D02*
X0140750Y0161360D01*
X0139167Y0162958D02*
X0120736Y0162958D01*
X0122707Y0157110D02*
X0125207Y0154910D01*
X0122907Y0157110D02*
X0122707Y0157110D01*
X0122907Y0157110D02*
X0104707Y0175310D01*
X0104707Y0191610D01*
X0121907Y0208810D01*
X0123807Y0208810D01*
X0127196Y0206118D02*
X0129507Y0206118D01*
X0129507Y0204520D02*
X0125598Y0204520D01*
X0128141Y0202921D02*
X0119695Y0202921D01*
X0120607Y0201810D02*
X0107507Y0188710D01*
X0107507Y0181610D01*
X0107307Y0183739D02*
X0111507Y0183739D01*
X0111507Y0185338D02*
X0107307Y0185338D01*
X0107307Y0186936D02*
X0112156Y0186936D01*
X0113754Y0188535D02*
X0107307Y0188535D01*
X0107307Y0190133D02*
X0115353Y0190133D01*
X0116952Y0191732D02*
X0108505Y0191732D01*
X0110104Y0193330D02*
X0118550Y0193330D01*
X0120149Y0194929D02*
X0111702Y0194929D01*
X0113301Y0196527D02*
X0121747Y0196527D01*
X0123346Y0198126D02*
X0114899Y0198126D01*
X0116498Y0199724D02*
X0124944Y0199724D01*
X0126543Y0201323D02*
X0118096Y0201323D01*
X0120607Y0201810D02*
X0123307Y0201910D01*
X0122017Y0204520D02*
X0121293Y0204520D01*
X0128107Y0207717D02*
X0128224Y0207717D01*
X0147307Y0181510D02*
X0183707Y0181510D01*
X0192907Y0172310D01*
X0197007Y0162010D02*
X0208507Y0162010D01*
X0213206Y0157312D01*
X0213926Y0157312D01*
X0220343Y0151769D02*
X0238458Y0151769D01*
X0238457Y0153367D02*
X0221941Y0153367D01*
X0223172Y0154966D02*
X0238455Y0154966D01*
X0238454Y0156564D02*
X0223307Y0156564D01*
X0223307Y0158163D02*
X0238452Y0158163D01*
X0238451Y0159761D02*
X0223307Y0159761D01*
X0223307Y0161360D02*
X0238449Y0161360D01*
X0238448Y0162958D02*
X0223307Y0162958D01*
X0223307Y0164557D02*
X0238446Y0164557D01*
X0238445Y0166155D02*
X0223307Y0166155D01*
X0223307Y0167754D02*
X0238443Y0167754D01*
X0238442Y0169352D02*
X0223307Y0169352D01*
X0222966Y0170951D02*
X0238440Y0170951D01*
X0238439Y0172549D02*
X0221445Y0172549D01*
X0219846Y0174148D02*
X0238437Y0174148D01*
X0238436Y0175746D02*
X0218726Y0175746D01*
X0218726Y0177345D02*
X0238434Y0177345D01*
X0199126Y0108609D02*
X0198483Y0108609D01*
X0199126Y0107010D02*
X0196884Y0107010D01*
X0195286Y0105412D02*
X0199126Y0105412D01*
X0200636Y0103813D02*
X0193687Y0103813D01*
X0192089Y0102215D02*
X0238504Y0102215D01*
X0200442Y0100616D02*
X0190490Y0100616D01*
X0188892Y0099018D02*
X0199126Y0099018D01*
X0199126Y0097419D02*
X0187293Y0097419D01*
X0185695Y0095821D02*
X0199126Y0095821D01*
X0200227Y0094222D02*
X0175300Y0094222D01*
X0176482Y0100616D02*
X0176720Y0100616D01*
X0175907Y0102215D02*
X0174883Y0102215D01*
X0184982Y0162958D02*
X0146486Y0162958D01*
X0144902Y0164557D02*
X0183383Y0164557D01*
X0181785Y0166155D02*
X0143319Y0166155D01*
X0143182Y0167754D02*
X0141736Y0167754D01*
X0141046Y0169352D02*
X0140152Y0169352D01*
X0138910Y0170951D02*
X0138569Y0170951D01*
X0183207Y0190710D02*
X0131707Y0239810D01*
X0131807Y0287310D01*
X0175568Y0305226D02*
X0199224Y0305226D01*
X0200665Y0290839D02*
X0189955Y0290839D01*
X0191553Y0289241D02*
X0199126Y0289241D01*
X0199126Y0287642D02*
X0193152Y0287642D01*
X0194750Y0286044D02*
X0199126Y0286044D01*
X0200488Y0373962D02*
X0152007Y0373962D01*
X0152007Y0375560D02*
X0199126Y0375560D01*
X0199126Y0377159D02*
X0151994Y0377159D01*
X0150937Y0378757D02*
X0199126Y0378757D01*
X0200182Y0380356D02*
X0149338Y0380356D01*
X0147740Y0381954D02*
X0201780Y0381954D01*
X0200897Y0383553D02*
X0146141Y0383553D01*
X0144543Y0385151D02*
X0199298Y0385151D01*
X0185607Y0190710D02*
X0183207Y0190710D01*
M02*
