G75*
%MOIN*%
%OFA0B0*%
%FSLAX25Y25*%
%IPPOS*%
%LPD*%
%AMOC8*
5,1,8,0,0,1.08239X$1,22.5*
%
%ADD10C,0.00000*%
%ADD11R,0.07087X0.06299*%
%ADD12C,0.02165*%
%ADD13R,0.06299X0.07098*%
%ADD14R,0.07098X0.06299*%
%ADD15C,0.06000*%
%ADD16OC8,0.06000*%
%ADD17R,0.05512X0.07480*%
%ADD18R,0.07087X0.05512*%
%ADD19R,0.02756X0.05906*%
D10*
X0002707Y0075410D02*
X0002407Y0399711D01*
X0241028Y0400011D01*
X0241328Y0075710D01*
X0002707Y0075410D01*
D11*
X0109907Y0097798D03*
X0109907Y0108822D03*
X0119907Y0108822D03*
X0129907Y0108822D03*
X0129907Y0097798D03*
X0119907Y0097798D03*
X0139907Y0097798D03*
X0139907Y0108822D03*
D12*
X0139280Y0145481D02*
X0139280Y0145481D01*
X0139280Y0149615D01*
X0139280Y0149615D01*
X0139280Y0145481D01*
X0139280Y0147645D02*
X0139280Y0147645D01*
X0136131Y0145481D02*
X0136131Y0145481D01*
X0136131Y0149615D01*
X0136131Y0149615D01*
X0136131Y0145481D01*
X0136131Y0147645D02*
X0136131Y0147645D01*
X0132981Y0145481D02*
X0132981Y0145481D01*
X0132981Y0149615D01*
X0132981Y0149615D01*
X0132981Y0145481D01*
X0132981Y0147645D02*
X0132981Y0147645D01*
X0129831Y0145481D02*
X0129831Y0145481D01*
X0129831Y0149615D01*
X0129831Y0149615D01*
X0129831Y0145481D01*
X0129831Y0147645D02*
X0129831Y0147645D01*
X0126682Y0145481D02*
X0126682Y0145481D01*
X0126682Y0149615D01*
X0126682Y0149615D01*
X0126682Y0145481D01*
X0126682Y0147645D02*
X0126682Y0147645D01*
X0123532Y0145481D02*
X0123532Y0145481D01*
X0123532Y0149615D01*
X0123532Y0149615D01*
X0123532Y0145481D01*
X0123532Y0147645D02*
X0123532Y0147645D01*
X0120383Y0145481D02*
X0120383Y0145481D01*
X0120383Y0149615D01*
X0120383Y0149615D01*
X0120383Y0145481D01*
X0120383Y0147645D02*
X0120383Y0147645D01*
X0117233Y0145481D02*
X0117233Y0145481D01*
X0117233Y0149615D01*
X0117233Y0149615D01*
X0117233Y0145481D01*
X0117233Y0147645D02*
X0117233Y0147645D01*
X0114083Y0145481D02*
X0114083Y0145481D01*
X0114083Y0149615D01*
X0114083Y0149615D01*
X0114083Y0145481D01*
X0114083Y0147645D02*
X0114083Y0147645D01*
X0110934Y0145481D02*
X0110934Y0145481D01*
X0110934Y0149615D01*
X0110934Y0149615D01*
X0110934Y0145481D01*
X0110934Y0147645D02*
X0110934Y0147645D01*
X0107784Y0145481D02*
X0107784Y0145481D01*
X0107784Y0149615D01*
X0107784Y0149615D01*
X0107784Y0145481D01*
X0107784Y0147645D02*
X0107784Y0147645D01*
X0104635Y0145481D02*
X0104635Y0145481D01*
X0104635Y0149615D01*
X0104635Y0149615D01*
X0104635Y0145481D01*
X0104635Y0147645D02*
X0104635Y0147645D01*
X0101485Y0145481D02*
X0101485Y0145481D01*
X0101485Y0149615D01*
X0101485Y0149615D01*
X0101485Y0145481D01*
X0101485Y0147645D02*
X0101485Y0147645D01*
X0098335Y0145481D02*
X0098335Y0145481D01*
X0098335Y0149615D01*
X0098335Y0149615D01*
X0098335Y0145481D01*
X0098335Y0147645D02*
X0098335Y0147645D01*
X0095186Y0145481D02*
X0095186Y0145481D01*
X0095186Y0149615D01*
X0095186Y0149615D01*
X0095186Y0145481D01*
X0095186Y0147645D02*
X0095186Y0147645D01*
X0092036Y0145481D02*
X0092036Y0145481D01*
X0092036Y0149615D01*
X0092036Y0149615D01*
X0092036Y0145481D01*
X0092036Y0147645D02*
X0092036Y0147645D01*
X0092036Y0194339D02*
X0092036Y0194339D01*
X0092036Y0190205D01*
X0092036Y0190205D01*
X0092036Y0194339D01*
X0092036Y0192369D02*
X0092036Y0192369D01*
X0095186Y0194339D02*
X0095186Y0194339D01*
X0095186Y0190205D01*
X0095186Y0190205D01*
X0095186Y0194339D01*
X0095186Y0192369D02*
X0095186Y0192369D01*
X0098335Y0194339D02*
X0098335Y0194339D01*
X0098335Y0190205D01*
X0098335Y0190205D01*
X0098335Y0194339D01*
X0098335Y0192369D02*
X0098335Y0192369D01*
X0101485Y0194339D02*
X0101485Y0194339D01*
X0101485Y0190205D01*
X0101485Y0190205D01*
X0101485Y0194339D01*
X0101485Y0192369D02*
X0101485Y0192369D01*
X0104635Y0194339D02*
X0104635Y0194339D01*
X0104635Y0190205D01*
X0104635Y0190205D01*
X0104635Y0194339D01*
X0104635Y0192369D02*
X0104635Y0192369D01*
X0107784Y0194339D02*
X0107784Y0194339D01*
X0107784Y0190205D01*
X0107784Y0190205D01*
X0107784Y0194339D01*
X0107784Y0192369D02*
X0107784Y0192369D01*
X0110934Y0194339D02*
X0110934Y0194339D01*
X0110934Y0190205D01*
X0110934Y0190205D01*
X0110934Y0194339D01*
X0110934Y0192369D02*
X0110934Y0192369D01*
X0114083Y0194339D02*
X0114083Y0194339D01*
X0114083Y0190205D01*
X0114083Y0190205D01*
X0114083Y0194339D01*
X0114083Y0192369D02*
X0114083Y0192369D01*
X0117233Y0194339D02*
X0117233Y0194339D01*
X0117233Y0190205D01*
X0117233Y0190205D01*
X0117233Y0194339D01*
X0117233Y0192369D02*
X0117233Y0192369D01*
X0120383Y0194339D02*
X0120383Y0194339D01*
X0120383Y0190205D01*
X0120383Y0190205D01*
X0120383Y0194339D01*
X0120383Y0192369D02*
X0120383Y0192369D01*
X0123532Y0194339D02*
X0123532Y0194339D01*
X0123532Y0190205D01*
X0123532Y0190205D01*
X0123532Y0194339D01*
X0123532Y0192369D02*
X0123532Y0192369D01*
X0126682Y0194339D02*
X0126682Y0194339D01*
X0126682Y0190205D01*
X0126682Y0190205D01*
X0126682Y0194339D01*
X0126682Y0192369D02*
X0126682Y0192369D01*
X0129831Y0194339D02*
X0129831Y0194339D01*
X0129831Y0190205D01*
X0129831Y0190205D01*
X0129831Y0194339D01*
X0129831Y0192369D02*
X0129831Y0192369D01*
X0132981Y0194339D02*
X0132981Y0194339D01*
X0132981Y0190205D01*
X0132981Y0190205D01*
X0132981Y0194339D01*
X0132981Y0192369D02*
X0132981Y0192369D01*
X0136131Y0194339D02*
X0136131Y0194339D01*
X0136131Y0190205D01*
X0136131Y0190205D01*
X0136131Y0194339D01*
X0136131Y0192369D02*
X0136131Y0192369D01*
X0139280Y0194339D02*
X0139280Y0194339D01*
X0139280Y0190205D01*
X0139280Y0190205D01*
X0139280Y0194339D01*
X0139280Y0192369D02*
X0139280Y0192369D01*
X0142430Y0194339D02*
X0142430Y0194339D01*
X0142430Y0190205D01*
X0142430Y0190205D01*
X0142430Y0194339D01*
X0142430Y0192369D02*
X0142430Y0192369D01*
X0145580Y0194339D02*
X0145580Y0194339D01*
X0145580Y0190205D01*
X0145580Y0190205D01*
X0145580Y0194339D01*
X0145580Y0192369D02*
X0145580Y0192369D01*
X0148729Y0194339D02*
X0148729Y0194339D01*
X0148729Y0190205D01*
X0148729Y0190205D01*
X0148729Y0194339D01*
X0148729Y0192369D02*
X0148729Y0192369D01*
X0151879Y0194339D02*
X0151879Y0194339D01*
X0151879Y0190205D01*
X0151879Y0190205D01*
X0151879Y0194339D01*
X0151879Y0192369D02*
X0151879Y0192369D01*
X0155028Y0194339D02*
X0155028Y0194339D01*
X0155028Y0190205D01*
X0155028Y0190205D01*
X0155028Y0194339D01*
X0155028Y0192369D02*
X0155028Y0192369D01*
X0158178Y0194339D02*
X0158178Y0194339D01*
X0158178Y0190205D01*
X0158178Y0190205D01*
X0158178Y0194339D01*
X0158178Y0192369D02*
X0158178Y0192369D01*
X0158178Y0145481D02*
X0158178Y0145481D01*
X0158178Y0149615D01*
X0158178Y0149615D01*
X0158178Y0145481D01*
X0158178Y0147645D02*
X0158178Y0147645D01*
X0155028Y0145481D02*
X0155028Y0145481D01*
X0155028Y0149615D01*
X0155028Y0149615D01*
X0155028Y0145481D01*
X0155028Y0147645D02*
X0155028Y0147645D01*
X0151879Y0145481D02*
X0151879Y0145481D01*
X0151879Y0149615D01*
X0151879Y0149615D01*
X0151879Y0145481D01*
X0151879Y0147645D02*
X0151879Y0147645D01*
X0148729Y0145481D02*
X0148729Y0145481D01*
X0148729Y0149615D01*
X0148729Y0149615D01*
X0148729Y0145481D01*
X0148729Y0147645D02*
X0148729Y0147645D01*
X0145580Y0145481D02*
X0145580Y0145481D01*
X0145580Y0149615D01*
X0145580Y0149615D01*
X0145580Y0145481D01*
X0145580Y0147645D02*
X0145580Y0147645D01*
X0142430Y0145481D02*
X0142430Y0145481D01*
X0142430Y0149615D01*
X0142430Y0149615D01*
X0142430Y0145481D01*
X0142430Y0147645D02*
X0142430Y0147645D01*
D13*
X0073806Y0312710D03*
X0062609Y0312710D03*
D14*
X0088007Y0317209D03*
X0088007Y0306012D03*
X0099907Y0305912D03*
X0099907Y0317109D03*
X0112007Y0317009D03*
X0112007Y0305812D03*
X0127107Y0305712D03*
X0127107Y0316909D03*
X0139107Y0317009D03*
X0139107Y0305812D03*
X0151307Y0305712D03*
X0151307Y0316909D03*
X0167607Y0316809D03*
X0167607Y0305612D03*
D15*
X0156650Y0108532D02*
X0150650Y0108532D01*
X0150650Y0098532D02*
X0156650Y0098532D01*
X0096690Y0098532D02*
X0090690Y0098532D01*
X0090690Y0108532D02*
X0096690Y0108532D01*
D16*
X0039753Y0107312D03*
X0039753Y0097312D03*
X0029753Y0097312D03*
X0029753Y0107312D03*
X0029753Y0117312D03*
X0029753Y0127312D03*
X0029753Y0137312D03*
X0029753Y0147312D03*
X0029753Y0157312D03*
X0029753Y0167312D03*
X0029753Y0177312D03*
X0029753Y0187312D03*
X0029753Y0197312D03*
X0029753Y0207312D03*
X0029753Y0217312D03*
X0029753Y0227312D03*
X0029753Y0237312D03*
X0029753Y0247312D03*
X0029753Y0257312D03*
X0029753Y0267312D03*
X0029753Y0277312D03*
X0029753Y0287312D03*
X0029753Y0297312D03*
X0029753Y0307312D03*
X0029753Y0317312D03*
X0029753Y0327312D03*
X0029753Y0337312D03*
X0029753Y0347312D03*
X0029753Y0357312D03*
X0029753Y0367312D03*
X0029753Y0377312D03*
X0029753Y0387312D03*
X0039753Y0387312D03*
X0039753Y0377312D03*
X0039753Y0367312D03*
X0039753Y0357312D03*
X0039753Y0347312D03*
X0039753Y0337312D03*
X0039753Y0327312D03*
X0039753Y0317312D03*
X0039753Y0307312D03*
X0039753Y0297312D03*
X0039753Y0287312D03*
X0039753Y0277312D03*
X0039753Y0267312D03*
X0039753Y0257312D03*
X0039753Y0247312D03*
X0039753Y0237312D03*
X0039753Y0227312D03*
X0039753Y0217312D03*
X0039753Y0207312D03*
X0039753Y0197312D03*
X0039753Y0187312D03*
X0039753Y0177312D03*
X0039753Y0167312D03*
X0039753Y0157312D03*
X0039753Y0147312D03*
X0039753Y0137312D03*
X0039753Y0127312D03*
X0039753Y0117312D03*
X0203926Y0117312D03*
X0203926Y0127312D03*
X0203926Y0137312D03*
X0203926Y0147312D03*
X0203926Y0157312D03*
X0203926Y0167312D03*
X0203926Y0177312D03*
X0203926Y0187312D03*
X0203926Y0197312D03*
X0203926Y0207312D03*
X0203926Y0217312D03*
X0203926Y0227312D03*
X0203926Y0237312D03*
X0203926Y0247312D03*
X0203926Y0257312D03*
X0203926Y0267312D03*
X0203926Y0277312D03*
X0203926Y0287312D03*
X0203926Y0297312D03*
X0203926Y0307312D03*
X0203926Y0317312D03*
X0203926Y0327312D03*
X0203926Y0337312D03*
X0203926Y0347312D03*
X0203926Y0357312D03*
X0203926Y0367312D03*
X0203926Y0377312D03*
X0203926Y0387312D03*
X0213926Y0387312D03*
X0213926Y0377312D03*
X0213926Y0367312D03*
X0213926Y0357312D03*
X0213926Y0347312D03*
X0213926Y0337312D03*
X0213926Y0327312D03*
X0213926Y0317312D03*
X0213926Y0307312D03*
X0213926Y0297312D03*
X0213926Y0287312D03*
X0213926Y0277312D03*
X0213926Y0267312D03*
X0213926Y0257312D03*
X0213926Y0247312D03*
X0213926Y0237312D03*
X0213926Y0227312D03*
X0213926Y0217312D03*
X0213926Y0207312D03*
X0213926Y0197312D03*
X0213926Y0187312D03*
X0213926Y0177312D03*
X0213926Y0167312D03*
X0213926Y0157312D03*
X0213926Y0147312D03*
X0213926Y0137312D03*
X0213926Y0127312D03*
X0213926Y0117312D03*
X0213926Y0107312D03*
X0213926Y0097312D03*
X0203926Y0097312D03*
X0203926Y0107312D03*
D17*
X0143532Y0388217D03*
X0091564Y0391761D03*
D18*
X0113611Y0336643D03*
X0137233Y0336643D03*
D19*
X0114005Y0375225D03*
X0109674Y0376800D03*
X0118335Y0376800D03*
X0122666Y0378375D03*
X0126997Y0376800D03*
X0131328Y0378375D03*
X0135658Y0376800D03*
X0139989Y0376800D03*
M02*
