G75*
%MOIN*%
%OFA0B0*%
%FSLAX25Y25*%
%IPPOS*%
%LPD*%
%AMOC8*
5,1,8,0,0,1.08239X$1,22.5*
%
%ADD10C,0.00000*%
%ADD11R,0.07087X0.06299*%
%ADD12C,0.02165*%
%ADD13R,0.06299X0.07098*%
%ADD14R,0.07098X0.06299*%
%ADD15C,0.06000*%
%ADD16OC8,0.06000*%
%ADD17R,0.05512X0.07480*%
%ADD18R,0.07087X0.05512*%
%ADD19R,0.02756X0.05906*%
%ADD20C,0.01600*%
%ADD21OC8,0.05000*%
D10*
X0002707Y0075410D02*
X0002407Y0399711D01*
X0241028Y0400011D01*
X0241328Y0075710D01*
X0002707Y0075410D01*
D11*
X0109907Y0097798D03*
X0109907Y0108822D03*
X0119907Y0108822D03*
X0129907Y0108822D03*
X0129907Y0097798D03*
X0119907Y0097798D03*
X0139907Y0097798D03*
X0139907Y0108822D03*
D12*
X0139280Y0145481D02*
X0139280Y0145481D01*
X0139280Y0149615D01*
X0139280Y0149615D01*
X0139280Y0145481D01*
X0139280Y0147645D02*
X0139280Y0147645D01*
X0136131Y0145481D02*
X0136131Y0145481D01*
X0136131Y0149615D01*
X0136131Y0149615D01*
X0136131Y0145481D01*
X0136131Y0147645D02*
X0136131Y0147645D01*
X0132981Y0145481D02*
X0132981Y0145481D01*
X0132981Y0149615D01*
X0132981Y0149615D01*
X0132981Y0145481D01*
X0132981Y0147645D02*
X0132981Y0147645D01*
X0129831Y0145481D02*
X0129831Y0145481D01*
X0129831Y0149615D01*
X0129831Y0149615D01*
X0129831Y0145481D01*
X0129831Y0147645D02*
X0129831Y0147645D01*
X0126682Y0145481D02*
X0126682Y0145481D01*
X0126682Y0149615D01*
X0126682Y0149615D01*
X0126682Y0145481D01*
X0126682Y0147645D02*
X0126682Y0147645D01*
X0123532Y0145481D02*
X0123532Y0145481D01*
X0123532Y0149615D01*
X0123532Y0149615D01*
X0123532Y0145481D01*
X0123532Y0147645D02*
X0123532Y0147645D01*
X0120383Y0145481D02*
X0120383Y0145481D01*
X0120383Y0149615D01*
X0120383Y0149615D01*
X0120383Y0145481D01*
X0120383Y0147645D02*
X0120383Y0147645D01*
X0117233Y0145481D02*
X0117233Y0145481D01*
X0117233Y0149615D01*
X0117233Y0149615D01*
X0117233Y0145481D01*
X0117233Y0147645D02*
X0117233Y0147645D01*
X0114083Y0145481D02*
X0114083Y0145481D01*
X0114083Y0149615D01*
X0114083Y0149615D01*
X0114083Y0145481D01*
X0114083Y0147645D02*
X0114083Y0147645D01*
X0110934Y0145481D02*
X0110934Y0145481D01*
X0110934Y0149615D01*
X0110934Y0149615D01*
X0110934Y0145481D01*
X0110934Y0147645D02*
X0110934Y0147645D01*
X0107784Y0145481D02*
X0107784Y0145481D01*
X0107784Y0149615D01*
X0107784Y0149615D01*
X0107784Y0145481D01*
X0107784Y0147645D02*
X0107784Y0147645D01*
X0104635Y0145481D02*
X0104635Y0145481D01*
X0104635Y0149615D01*
X0104635Y0149615D01*
X0104635Y0145481D01*
X0104635Y0147645D02*
X0104635Y0147645D01*
X0101485Y0145481D02*
X0101485Y0145481D01*
X0101485Y0149615D01*
X0101485Y0149615D01*
X0101485Y0145481D01*
X0101485Y0147645D02*
X0101485Y0147645D01*
X0098335Y0145481D02*
X0098335Y0145481D01*
X0098335Y0149615D01*
X0098335Y0149615D01*
X0098335Y0145481D01*
X0098335Y0147645D02*
X0098335Y0147645D01*
X0095186Y0145481D02*
X0095186Y0145481D01*
X0095186Y0149615D01*
X0095186Y0149615D01*
X0095186Y0145481D01*
X0095186Y0147645D02*
X0095186Y0147645D01*
X0092036Y0145481D02*
X0092036Y0145481D01*
X0092036Y0149615D01*
X0092036Y0149615D01*
X0092036Y0145481D01*
X0092036Y0147645D02*
X0092036Y0147645D01*
X0092036Y0194339D02*
X0092036Y0194339D01*
X0092036Y0190205D01*
X0092036Y0190205D01*
X0092036Y0194339D01*
X0092036Y0192369D02*
X0092036Y0192369D01*
X0095186Y0194339D02*
X0095186Y0194339D01*
X0095186Y0190205D01*
X0095186Y0190205D01*
X0095186Y0194339D01*
X0095186Y0192369D02*
X0095186Y0192369D01*
X0098335Y0194339D02*
X0098335Y0194339D01*
X0098335Y0190205D01*
X0098335Y0190205D01*
X0098335Y0194339D01*
X0098335Y0192369D02*
X0098335Y0192369D01*
X0101485Y0194339D02*
X0101485Y0194339D01*
X0101485Y0190205D01*
X0101485Y0190205D01*
X0101485Y0194339D01*
X0101485Y0192369D02*
X0101485Y0192369D01*
X0104635Y0194339D02*
X0104635Y0194339D01*
X0104635Y0190205D01*
X0104635Y0190205D01*
X0104635Y0194339D01*
X0104635Y0192369D02*
X0104635Y0192369D01*
X0107784Y0194339D02*
X0107784Y0194339D01*
X0107784Y0190205D01*
X0107784Y0190205D01*
X0107784Y0194339D01*
X0107784Y0192369D02*
X0107784Y0192369D01*
X0110934Y0194339D02*
X0110934Y0194339D01*
X0110934Y0190205D01*
X0110934Y0190205D01*
X0110934Y0194339D01*
X0110934Y0192369D02*
X0110934Y0192369D01*
X0114083Y0194339D02*
X0114083Y0194339D01*
X0114083Y0190205D01*
X0114083Y0190205D01*
X0114083Y0194339D01*
X0114083Y0192369D02*
X0114083Y0192369D01*
X0117233Y0194339D02*
X0117233Y0194339D01*
X0117233Y0190205D01*
X0117233Y0190205D01*
X0117233Y0194339D01*
X0117233Y0192369D02*
X0117233Y0192369D01*
X0120383Y0194339D02*
X0120383Y0194339D01*
X0120383Y0190205D01*
X0120383Y0190205D01*
X0120383Y0194339D01*
X0120383Y0192369D02*
X0120383Y0192369D01*
X0123532Y0194339D02*
X0123532Y0194339D01*
X0123532Y0190205D01*
X0123532Y0190205D01*
X0123532Y0194339D01*
X0123532Y0192369D02*
X0123532Y0192369D01*
X0126682Y0194339D02*
X0126682Y0194339D01*
X0126682Y0190205D01*
X0126682Y0190205D01*
X0126682Y0194339D01*
X0126682Y0192369D02*
X0126682Y0192369D01*
X0129831Y0194339D02*
X0129831Y0194339D01*
X0129831Y0190205D01*
X0129831Y0190205D01*
X0129831Y0194339D01*
X0129831Y0192369D02*
X0129831Y0192369D01*
X0132981Y0194339D02*
X0132981Y0194339D01*
X0132981Y0190205D01*
X0132981Y0190205D01*
X0132981Y0194339D01*
X0132981Y0192369D02*
X0132981Y0192369D01*
X0136131Y0194339D02*
X0136131Y0194339D01*
X0136131Y0190205D01*
X0136131Y0190205D01*
X0136131Y0194339D01*
X0136131Y0192369D02*
X0136131Y0192369D01*
X0139280Y0194339D02*
X0139280Y0194339D01*
X0139280Y0190205D01*
X0139280Y0190205D01*
X0139280Y0194339D01*
X0139280Y0192369D02*
X0139280Y0192369D01*
X0142430Y0194339D02*
X0142430Y0194339D01*
X0142430Y0190205D01*
X0142430Y0190205D01*
X0142430Y0194339D01*
X0142430Y0192369D02*
X0142430Y0192369D01*
X0145580Y0194339D02*
X0145580Y0194339D01*
X0145580Y0190205D01*
X0145580Y0190205D01*
X0145580Y0194339D01*
X0145580Y0192369D02*
X0145580Y0192369D01*
X0148729Y0194339D02*
X0148729Y0194339D01*
X0148729Y0190205D01*
X0148729Y0190205D01*
X0148729Y0194339D01*
X0148729Y0192369D02*
X0148729Y0192369D01*
X0151879Y0194339D02*
X0151879Y0194339D01*
X0151879Y0190205D01*
X0151879Y0190205D01*
X0151879Y0194339D01*
X0151879Y0192369D02*
X0151879Y0192369D01*
X0155028Y0194339D02*
X0155028Y0194339D01*
X0155028Y0190205D01*
X0155028Y0190205D01*
X0155028Y0194339D01*
X0155028Y0192369D02*
X0155028Y0192369D01*
X0158178Y0194339D02*
X0158178Y0194339D01*
X0158178Y0190205D01*
X0158178Y0190205D01*
X0158178Y0194339D01*
X0158178Y0192369D02*
X0158178Y0192369D01*
X0158178Y0145481D02*
X0158178Y0145481D01*
X0158178Y0149615D01*
X0158178Y0149615D01*
X0158178Y0145481D01*
X0158178Y0147645D02*
X0158178Y0147645D01*
X0155028Y0145481D02*
X0155028Y0145481D01*
X0155028Y0149615D01*
X0155028Y0149615D01*
X0155028Y0145481D01*
X0155028Y0147645D02*
X0155028Y0147645D01*
X0151879Y0145481D02*
X0151879Y0145481D01*
X0151879Y0149615D01*
X0151879Y0149615D01*
X0151879Y0145481D01*
X0151879Y0147645D02*
X0151879Y0147645D01*
X0148729Y0145481D02*
X0148729Y0145481D01*
X0148729Y0149615D01*
X0148729Y0149615D01*
X0148729Y0145481D01*
X0148729Y0147645D02*
X0148729Y0147645D01*
X0145580Y0145481D02*
X0145580Y0145481D01*
X0145580Y0149615D01*
X0145580Y0149615D01*
X0145580Y0145481D01*
X0145580Y0147645D02*
X0145580Y0147645D01*
X0142430Y0145481D02*
X0142430Y0145481D01*
X0142430Y0149615D01*
X0142430Y0149615D01*
X0142430Y0145481D01*
X0142430Y0147645D02*
X0142430Y0147645D01*
D13*
X0073806Y0312710D03*
X0062609Y0312710D03*
D14*
X0088007Y0317209D03*
X0088007Y0306012D03*
X0099907Y0305912D03*
X0099907Y0317109D03*
X0112007Y0317009D03*
X0112007Y0305812D03*
X0127107Y0305712D03*
X0127107Y0316909D03*
X0139107Y0317009D03*
X0139107Y0305812D03*
X0151307Y0305712D03*
X0151307Y0316909D03*
X0167607Y0316809D03*
X0167607Y0305612D03*
D15*
X0156650Y0108532D02*
X0150650Y0108532D01*
X0150650Y0098532D02*
X0156650Y0098532D01*
X0096690Y0098532D02*
X0090690Y0098532D01*
X0090690Y0108532D02*
X0096690Y0108532D01*
D16*
X0039753Y0107312D03*
X0039753Y0097312D03*
X0029753Y0097312D03*
X0029753Y0107312D03*
X0029753Y0117312D03*
X0029753Y0127312D03*
X0029753Y0137312D03*
X0029753Y0147312D03*
X0029753Y0157312D03*
X0029753Y0167312D03*
X0029753Y0177312D03*
X0029753Y0187312D03*
X0029753Y0197312D03*
X0029753Y0207312D03*
X0029753Y0217312D03*
X0029753Y0227312D03*
X0029753Y0237312D03*
X0029753Y0247312D03*
X0029753Y0257312D03*
X0029753Y0267312D03*
X0029753Y0277312D03*
X0029753Y0287312D03*
X0029753Y0297312D03*
X0029753Y0307312D03*
X0029753Y0317312D03*
X0029753Y0327312D03*
X0029753Y0337312D03*
X0029753Y0347312D03*
X0029753Y0357312D03*
X0029753Y0367312D03*
X0029753Y0377312D03*
X0029753Y0387312D03*
X0039753Y0387312D03*
X0039753Y0377312D03*
X0039753Y0367312D03*
X0039753Y0357312D03*
X0039753Y0347312D03*
X0039753Y0337312D03*
X0039753Y0327312D03*
X0039753Y0317312D03*
X0039753Y0307312D03*
X0039753Y0297312D03*
X0039753Y0287312D03*
X0039753Y0277312D03*
X0039753Y0267312D03*
X0039753Y0257312D03*
X0039753Y0247312D03*
X0039753Y0237312D03*
X0039753Y0227312D03*
X0039753Y0217312D03*
X0039753Y0207312D03*
X0039753Y0197312D03*
X0039753Y0187312D03*
X0039753Y0177312D03*
X0039753Y0167312D03*
X0039753Y0157312D03*
X0039753Y0147312D03*
X0039753Y0137312D03*
X0039753Y0127312D03*
X0039753Y0117312D03*
X0203926Y0117312D03*
X0203926Y0127312D03*
X0203926Y0137312D03*
X0203926Y0147312D03*
X0203926Y0157312D03*
X0203926Y0167312D03*
X0203926Y0177312D03*
X0203926Y0187312D03*
X0203926Y0197312D03*
X0203926Y0207312D03*
X0203926Y0217312D03*
X0203926Y0227312D03*
X0203926Y0237312D03*
X0203926Y0247312D03*
X0203926Y0257312D03*
X0203926Y0267312D03*
X0203926Y0277312D03*
X0203926Y0287312D03*
X0203926Y0297312D03*
X0203926Y0307312D03*
X0203926Y0317312D03*
X0203926Y0327312D03*
X0203926Y0337312D03*
X0203926Y0347312D03*
X0203926Y0357312D03*
X0203926Y0367312D03*
X0203926Y0377312D03*
X0203926Y0387312D03*
X0213926Y0387312D03*
X0213926Y0377312D03*
X0213926Y0367312D03*
X0213926Y0357312D03*
X0213926Y0347312D03*
X0213926Y0337312D03*
X0213926Y0327312D03*
X0213926Y0317312D03*
X0213926Y0307312D03*
X0213926Y0297312D03*
X0213926Y0287312D03*
X0213926Y0277312D03*
X0213926Y0267312D03*
X0213926Y0257312D03*
X0213926Y0247312D03*
X0213926Y0237312D03*
X0213926Y0227312D03*
X0213926Y0217312D03*
X0213926Y0207312D03*
X0213926Y0197312D03*
X0213926Y0187312D03*
X0213926Y0177312D03*
X0213926Y0167312D03*
X0213926Y0157312D03*
X0213926Y0147312D03*
X0213926Y0137312D03*
X0213926Y0127312D03*
X0213926Y0117312D03*
X0213926Y0107312D03*
X0213926Y0097312D03*
X0203926Y0097312D03*
X0203926Y0107312D03*
D17*
X0143532Y0388217D03*
X0091564Y0391761D03*
D18*
X0113611Y0336643D03*
X0137233Y0336643D03*
D19*
X0114005Y0375225D03*
X0109674Y0376800D03*
X0118335Y0376800D03*
X0122666Y0378375D03*
X0126997Y0376800D03*
X0131328Y0378375D03*
X0135658Y0376800D03*
X0139989Y0376800D03*
D20*
X0139407Y0376218D01*
X0139407Y0348510D01*
X0147707Y0340210D01*
X0164607Y0340210D01*
X0181307Y0323510D01*
X0181307Y0306210D01*
X0168807Y0293710D01*
X0162507Y0293710D01*
X0159607Y0296610D01*
X0159607Y0308510D01*
X0156807Y0311310D01*
X0122707Y0311310D01*
X0119707Y0308310D01*
X0119707Y0301210D01*
X0116407Y0297910D01*
X0107995Y0297910D01*
X0099907Y0305912D01*
X0094495Y0311410D01*
X0082707Y0311410D01*
X0080407Y0309110D01*
X0080407Y0298310D01*
X0113207Y0265510D01*
X0113407Y0265510D01*
X0148707Y0265310D01*
X0150707Y0259410D02*
X0167807Y0271010D01*
X0174507Y0271210D01*
X0191906Y0257312D01*
X0203926Y0257312D01*
X0200605Y0254410D02*
X0107718Y0254410D01*
X0065107Y0297022D01*
X0065107Y0307761D01*
X0066035Y0307761D01*
X0066013Y0304229D01*
X0066008Y0304224D01*
X0066007Y0303319D01*
X0066001Y0302413D01*
X0066006Y0302408D01*
X0066006Y0302401D01*
X0066646Y0301760D01*
X0067282Y0301116D01*
X0067289Y0301116D01*
X0109807Y0258500D01*
X0109807Y0258499D01*
X0110457Y0257849D01*
X0111093Y0257211D01*
X0111095Y0257211D01*
X0111096Y0257210D01*
X0112010Y0257210D01*
X0112916Y0257209D01*
X0112917Y0257210D01*
X0150498Y0257210D01*
X0151188Y0257078D01*
X0151383Y0257210D01*
X0151618Y0257210D01*
X0152115Y0257707D01*
X0168483Y0268810D01*
X0168718Y0268810D01*
X0168745Y0268837D01*
X0173765Y0268987D01*
X0190437Y0255670D01*
X0190994Y0255112D01*
X0191135Y0255112D01*
X0191244Y0255024D01*
X0192028Y0255112D01*
X0199903Y0255112D01*
X0200605Y0254410D01*
X0199903Y0259512D02*
X0192676Y0259512D01*
X0175950Y0272873D01*
X0175352Y0273436D01*
X0175249Y0273433D01*
X0175168Y0273498D01*
X0174352Y0273407D01*
X0167983Y0273216D01*
X0167326Y0273342D01*
X0167131Y0273210D01*
X0114921Y0273210D01*
X0087957Y0300269D01*
X0087957Y0301462D01*
X0092136Y0301462D01*
X0092956Y0302282D01*
X0092956Y0309210D01*
X0093574Y0309210D01*
X0094958Y0307804D01*
X0094958Y0302182D01*
X0095778Y0301362D01*
X0101378Y0301362D01*
X0106443Y0296351D01*
X0107084Y0295710D01*
X0107091Y0295710D01*
X0107096Y0295705D01*
X0108001Y0295710D01*
X0117318Y0295710D01*
X0120618Y0299010D01*
X0121907Y0300299D01*
X0121907Y0307399D01*
X0122158Y0307650D01*
X0122158Y0301982D01*
X0122978Y0301162D01*
X0124907Y0301162D01*
X0124907Y0282841D01*
X0124882Y0281961D01*
X0124907Y0281935D01*
X0124907Y0281899D01*
X0125530Y0281276D01*
X0130106Y0276436D01*
X0130106Y0276401D01*
X0130728Y0275778D01*
X0131333Y0275138D01*
X0131369Y0275137D01*
X0131394Y0275112D01*
X0132275Y0275112D01*
X0133155Y0275087D01*
X0133181Y0275112D01*
X0198615Y0275112D01*
X0194607Y0271104D01*
X0194607Y0265099D01*
X0195896Y0263810D01*
X0199696Y0260010D01*
X0200402Y0260010D01*
X0199903Y0259512D01*
X0199238Y0260468D02*
X0191480Y0260468D01*
X0189479Y0262066D02*
X0197640Y0262066D01*
X0196041Y0263665D02*
X0187478Y0263665D01*
X0185477Y0265263D02*
X0194607Y0265263D01*
X0194607Y0266862D02*
X0183476Y0266862D01*
X0181475Y0268460D02*
X0194607Y0268460D01*
X0194607Y0270059D02*
X0179473Y0270059D01*
X0177472Y0271657D02*
X0195160Y0271657D01*
X0196807Y0270193D02*
X0203926Y0277312D01*
X0132306Y0277312D01*
X0127107Y0282810D01*
X0127107Y0305712D01*
X0122158Y0305226D02*
X0121907Y0305226D01*
X0121907Y0306824D02*
X0122158Y0306824D01*
X0122158Y0303627D02*
X0121907Y0303627D01*
X0121907Y0302029D02*
X0122158Y0302029D01*
X0121907Y0300430D02*
X0124907Y0300430D01*
X0124907Y0298832D02*
X0120440Y0298832D01*
X0118841Y0297233D02*
X0124907Y0297233D01*
X0124907Y0295635D02*
X0092575Y0295635D01*
X0090982Y0297233D02*
X0105551Y0297233D01*
X0103936Y0298832D02*
X0089389Y0298832D01*
X0087957Y0300430D02*
X0102320Y0300430D01*
X0097354Y0290839D02*
X0124907Y0290839D01*
X0124907Y0289241D02*
X0098947Y0289241D01*
X0100539Y0287642D02*
X0124907Y0287642D01*
X0124907Y0286044D02*
X0102132Y0286044D01*
X0103725Y0284445D02*
X0124907Y0284445D01*
X0124907Y0282847D02*
X0105318Y0282847D01*
X0106911Y0281248D02*
X0125556Y0281248D01*
X0127068Y0279650D02*
X0108504Y0279650D01*
X0110097Y0278051D02*
X0128579Y0278051D01*
X0130090Y0276453D02*
X0111690Y0276453D01*
X0113282Y0274854D02*
X0198357Y0274854D01*
X0196759Y0273256D02*
X0175544Y0273256D01*
X0174425Y0268460D02*
X0167967Y0268460D01*
X0167807Y0271010D02*
X0114007Y0271010D01*
X0085757Y0299360D01*
X0085757Y0303860D01*
X0086507Y0303910D01*
X0088007Y0306012D01*
X0092956Y0305226D02*
X0094958Y0305226D01*
X0094958Y0306824D02*
X0092956Y0306824D01*
X0092956Y0308423D02*
X0094349Y0308423D01*
X0094958Y0303627D02*
X0092956Y0303627D01*
X0092703Y0302029D02*
X0095111Y0302029D01*
X0094168Y0294036D02*
X0124907Y0294036D01*
X0124907Y0292438D02*
X0095761Y0292438D01*
X0087111Y0281248D02*
X0080880Y0281248D01*
X0079282Y0282847D02*
X0085516Y0282847D01*
X0083921Y0284445D02*
X0077683Y0284445D01*
X0076085Y0286044D02*
X0082327Y0286044D01*
X0080732Y0287642D02*
X0074486Y0287642D01*
X0072888Y0289241D02*
X0079137Y0289241D01*
X0077542Y0290839D02*
X0071289Y0290839D01*
X0069691Y0292438D02*
X0075947Y0292438D01*
X0074352Y0294036D02*
X0068092Y0294036D01*
X0066494Y0295635D02*
X0072757Y0295635D01*
X0071162Y0297233D02*
X0065107Y0297233D01*
X0065107Y0298832D02*
X0069568Y0298832D01*
X0067973Y0300430D02*
X0065107Y0300430D01*
X0065107Y0302029D02*
X0066378Y0302029D01*
X0066007Y0303627D02*
X0065107Y0303627D01*
X0065107Y0305226D02*
X0066019Y0305226D01*
X0066029Y0306824D02*
X0065107Y0306824D01*
X0068207Y0303310D02*
X0112007Y0259410D01*
X0150707Y0259410D01*
X0151679Y0257271D02*
X0188432Y0257271D01*
X0186431Y0258869D02*
X0153828Y0258869D01*
X0156185Y0260468D02*
X0184430Y0260468D01*
X0182429Y0262066D02*
X0158541Y0262066D01*
X0160897Y0263665D02*
X0180428Y0263665D01*
X0178427Y0265263D02*
X0163254Y0265263D01*
X0165610Y0266862D02*
X0176426Y0266862D01*
X0169297Y0273256D02*
X0167779Y0273256D01*
X0167198Y0273256D02*
X0114875Y0273256D01*
X0113907Y0271210D02*
X0114007Y0271010D01*
X0107844Y0260468D02*
X0101661Y0260468D01*
X0100062Y0262066D02*
X0106250Y0262066D01*
X0104655Y0263665D02*
X0098464Y0263665D01*
X0096865Y0265263D02*
X0103060Y0265263D01*
X0101465Y0266862D02*
X0095267Y0266862D01*
X0093668Y0268460D02*
X0099870Y0268460D01*
X0098275Y0270059D02*
X0092070Y0270059D01*
X0090471Y0271657D02*
X0096680Y0271657D01*
X0095085Y0273256D02*
X0088873Y0273256D01*
X0087274Y0274854D02*
X0093491Y0274854D01*
X0091896Y0276453D02*
X0085676Y0276453D01*
X0084077Y0278051D02*
X0090301Y0278051D01*
X0088706Y0279650D02*
X0082479Y0279650D01*
X0074559Y0271657D02*
X0064071Y0271657D01*
X0062473Y0273256D02*
X0072709Y0273256D01*
X0070859Y0274854D02*
X0060874Y0274854D01*
X0059276Y0276453D02*
X0069009Y0276453D01*
X0067160Y0278051D02*
X0057677Y0278051D01*
X0056079Y0279650D02*
X0065310Y0279650D01*
X0063460Y0281248D02*
X0054607Y0281248D01*
X0054607Y0281122D02*
X0054607Y0288899D01*
X0054608Y0288898D01*
X0055196Y0288310D01*
X0055288Y0288310D01*
X0105408Y0244998D01*
X0105996Y0244410D01*
X0106088Y0244410D01*
X0106158Y0244350D01*
X0106987Y0244410D01*
X0190479Y0244410D01*
X0194702Y0240704D01*
X0195296Y0240110D01*
X0195379Y0240110D01*
X0195441Y0240056D01*
X0196279Y0240110D01*
X0200502Y0240110D01*
X0199526Y0239134D01*
X0199526Y0235489D01*
X0200424Y0234591D01*
X0196410Y0234607D01*
X0196398Y0234619D01*
X0195501Y0234610D01*
X0194604Y0234614D01*
X0194592Y0234602D01*
X0194575Y0234602D01*
X0193947Y0233962D01*
X0193311Y0233330D01*
X0193311Y0233313D01*
X0184084Y0223910D01*
X0149213Y0223910D01*
X0148308Y0223915D01*
X0148303Y0223910D01*
X0148296Y0223910D01*
X0147655Y0223270D01*
X0130103Y0205910D01*
X0130096Y0205910D01*
X0129857Y0205671D01*
X0129780Y0205749D01*
X0127707Y0207916D01*
X0127707Y0210426D01*
X0125423Y0212710D01*
X0123018Y0212710D01*
X0054607Y0281122D01*
X0054607Y0282847D02*
X0061610Y0282847D01*
X0059761Y0284445D02*
X0054607Y0284445D01*
X0054607Y0286044D02*
X0057911Y0286044D01*
X0056061Y0287642D02*
X0054607Y0287642D01*
X0056107Y0290510D02*
X0106907Y0246610D01*
X0191307Y0246610D01*
X0196207Y0242310D01*
X0217407Y0242310D01*
X0220107Y0244810D01*
X0220107Y0258510D01*
X0216407Y0262210D01*
X0200607Y0262210D01*
X0196807Y0266010D01*
X0196807Y0270193D01*
X0199903Y0279512D02*
X0133253Y0279512D01*
X0129307Y0283686D01*
X0129307Y0301162D01*
X0131236Y0301162D01*
X0132056Y0301982D01*
X0132056Y0309110D01*
X0134158Y0309110D01*
X0134158Y0302082D01*
X0134978Y0301262D01*
X0136907Y0301262D01*
X0136907Y0289010D01*
X0136834Y0288202D01*
X0136907Y0288114D01*
X0136907Y0287999D01*
X0137481Y0287425D01*
X0141507Y0282594D01*
X0141507Y0282495D01*
X0141686Y0282316D01*
X0141808Y0281950D01*
X0142212Y0281748D01*
X0142500Y0281402D01*
X0142610Y0281392D01*
X0143792Y0280210D01*
X0147023Y0280210D01*
X0148722Y0281910D01*
X0179918Y0281910D01*
X0181207Y0283199D01*
X0198218Y0300210D01*
X0200602Y0300210D01*
X0199526Y0299134D01*
X0199526Y0295489D01*
X0202103Y0292912D01*
X0205749Y0292912D01*
X0208326Y0295489D01*
X0208326Y0299134D01*
X0207250Y0300210D01*
X0209118Y0300210D01*
X0210407Y0301499D01*
X0211207Y0302299D01*
X0211207Y0303808D01*
X0212103Y0302912D01*
X0215749Y0302912D01*
X0218326Y0305489D01*
X0218326Y0309134D01*
X0215749Y0311712D01*
X0212103Y0311712D01*
X0211060Y0310668D01*
X0209918Y0311810D01*
X0208507Y0313221D01*
X0208507Y0313222D01*
X0207283Y0314446D01*
X0208326Y0315489D01*
X0208326Y0319134D01*
X0205749Y0321712D01*
X0202103Y0321712D01*
X0199526Y0319134D01*
X0199526Y0315489D01*
X0200505Y0314510D01*
X0198218Y0314510D01*
X0156518Y0356210D01*
X0147507Y0356210D01*
X0147507Y0382122D01*
X0146861Y0382767D01*
X0146983Y0382800D01*
X0147393Y0383037D01*
X0147729Y0383372D01*
X0147966Y0383782D01*
X0148088Y0384240D01*
X0148088Y0387639D01*
X0144110Y0387639D01*
X0144110Y0388795D01*
X0142954Y0388795D01*
X0142954Y0387639D01*
X0138976Y0387639D01*
X0138976Y0384410D01*
X0134996Y0384410D01*
X0133521Y0382935D01*
X0133400Y0383005D01*
X0132942Y0383128D01*
X0131328Y0383128D01*
X0131328Y0378375D01*
X0131327Y0378375D01*
X0131327Y0383128D01*
X0129713Y0383128D01*
X0129255Y0383005D01*
X0128844Y0382768D01*
X0128509Y0382433D01*
X0128272Y0382022D01*
X0128150Y0381565D01*
X0128150Y0381153D01*
X0125444Y0381153D01*
X0125444Y0381907D01*
X0125007Y0382344D01*
X0125007Y0385022D01*
X0123718Y0386310D01*
X0122218Y0387810D01*
X0101899Y0387810D01*
X0101082Y0387878D01*
X0101001Y0387810D01*
X0100896Y0387810D01*
X0100316Y0387231D01*
X0097101Y0384510D01*
X0096996Y0384510D01*
X0096416Y0383931D01*
X0095790Y0383401D01*
X0095782Y0383296D01*
X0095707Y0383222D01*
X0095707Y0382402D01*
X0095639Y0381585D01*
X0095707Y0381504D01*
X0095707Y0366934D01*
X0059686Y0331589D01*
X0059643Y0331588D01*
X0059040Y0330955D01*
X0058416Y0330342D01*
X0058415Y0330299D01*
X0050945Y0322459D01*
X0050319Y0321833D01*
X0050319Y0321802D01*
X0050298Y0321780D01*
X0050319Y0320895D01*
X0050319Y0314866D01*
X0050243Y0312957D01*
X0050207Y0312922D01*
X0050207Y0312054D01*
X0050173Y0311187D01*
X0050207Y0311150D01*
X0050207Y0279299D01*
X0113496Y0216010D01*
X0113410Y0216010D01*
X0089301Y0216107D01*
X0089282Y0216125D01*
X0088393Y0216110D01*
X0087505Y0216114D01*
X0087486Y0216095D01*
X0087460Y0216095D01*
X0086841Y0215456D01*
X0086211Y0214830D01*
X0086211Y0214804D01*
X0071939Y0200053D01*
X0071307Y0199422D01*
X0071307Y0199400D01*
X0071292Y0199385D01*
X0071307Y0198492D01*
X0071307Y0176022D01*
X0054496Y0159210D01*
X0044077Y0159210D01*
X0041575Y0161712D01*
X0037930Y0161712D01*
X0035353Y0159134D01*
X0035353Y0155489D01*
X0036132Y0154710D01*
X0035061Y0154710D01*
X0034161Y0154719D01*
X0034152Y0154710D01*
X0034140Y0154710D01*
X0033503Y0154073D01*
X0031096Y0151712D01*
X0027930Y0151712D01*
X0025353Y0149134D01*
X0025353Y0145489D01*
X0027930Y0142912D01*
X0031575Y0142912D01*
X0034153Y0145489D01*
X0034153Y0148547D01*
X0035950Y0150310D01*
X0036529Y0150310D01*
X0035353Y0149134D01*
X0035353Y0145489D01*
X0036332Y0144510D01*
X0033840Y0144510D01*
X0031041Y0141712D01*
X0027930Y0141712D01*
X0025353Y0139134D01*
X0025353Y0135489D01*
X0026432Y0134410D01*
X0023596Y0134410D01*
X0015696Y0126510D01*
X0014407Y0125222D01*
X0014407Y0094999D01*
X0020907Y0088499D01*
X0020907Y0088399D01*
X0021207Y0088099D01*
X0022496Y0086810D01*
X0048918Y0086810D01*
X0055518Y0093410D01*
X0056807Y0094699D01*
X0056807Y0111899D01*
X0063018Y0118110D01*
X0064307Y0119399D01*
X0064307Y0123099D01*
X0089554Y0148345D01*
X0089554Y0146168D01*
X0079296Y0135910D01*
X0078007Y0134622D01*
X0078007Y0121622D01*
X0072807Y0116422D01*
X0072807Y0096399D01*
X0081907Y0087299D01*
X0081907Y0087299D01*
X0083196Y0086010D01*
X0176918Y0086010D01*
X0181018Y0090110D01*
X0182307Y0091399D01*
X0182307Y0099795D01*
X0184107Y0101595D01*
X0184107Y0104826D01*
X0181823Y0107110D01*
X0178592Y0107110D01*
X0176307Y0104826D01*
X0176307Y0101595D01*
X0177907Y0099995D01*
X0177907Y0093222D01*
X0175096Y0090410D01*
X0168518Y0090410D01*
X0172218Y0094110D01*
X0174623Y0094110D01*
X0176907Y0096395D01*
X0176907Y0099626D01*
X0174623Y0101910D01*
X0171392Y0101910D01*
X0169107Y0099626D01*
X0169107Y0097221D01*
X0165596Y0093710D01*
X0144492Y0093710D01*
X0144850Y0094069D01*
X0144850Y0096332D01*
X0146799Y0096332D01*
X0146920Y0096040D01*
X0148158Y0094802D01*
X0149775Y0094132D01*
X0157526Y0094132D01*
X0159143Y0094802D01*
X0160381Y0096040D01*
X0161050Y0097657D01*
X0161050Y0099407D01*
X0160381Y0101025D01*
X0159143Y0102262D01*
X0157526Y0102932D01*
X0149775Y0102932D01*
X0148158Y0102262D01*
X0146920Y0101025D01*
X0146799Y0100732D01*
X0144850Y0100732D01*
X0144850Y0101528D01*
X0144030Y0102348D01*
X0135784Y0102348D01*
X0134964Y0101528D01*
X0134964Y0099998D01*
X0134850Y0099998D01*
X0134850Y0101528D01*
X0134030Y0102348D01*
X0125784Y0102348D01*
X0124964Y0101528D01*
X0124964Y0099998D01*
X0124850Y0099998D01*
X0124850Y0101528D01*
X0124030Y0102348D01*
X0115784Y0102348D01*
X0114964Y0101528D01*
X0114964Y0099998D01*
X0114850Y0099998D01*
X0114850Y0101528D01*
X0114030Y0102348D01*
X0105784Y0102348D01*
X0104964Y0101528D01*
X0104964Y0099998D01*
X0100845Y0099998D01*
X0100420Y0101025D01*
X0099182Y0102262D01*
X0097565Y0102932D01*
X0089815Y0102932D01*
X0088197Y0102262D01*
X0086960Y0101025D01*
X0086738Y0100490D01*
X0084207Y0103022D01*
X0084207Y0111799D01*
X0086518Y0114110D01*
X0100818Y0114110D01*
X0102107Y0115399D01*
X0122707Y0135999D01*
X0122707Y0137799D01*
X0125732Y0140824D01*
X0125732Y0142754D01*
X0125841Y0142709D01*
X0126398Y0142598D01*
X0126682Y0142598D01*
X0126966Y0142598D01*
X0127523Y0142709D01*
X0128047Y0142927D01*
X0128519Y0143242D01*
X0128587Y0143309D01*
X0129338Y0142998D01*
X0130325Y0142998D01*
X0130781Y0143187D01*
X0130781Y0126725D01*
X0140507Y0116999D01*
X0141796Y0115710D01*
X0199526Y0115710D01*
X0199526Y0115489D01*
X0202103Y0112912D01*
X0205749Y0112912D01*
X0208326Y0115489D01*
X0208326Y0119134D01*
X0207550Y0119910D01*
X0209636Y0119910D01*
X0212637Y0122912D01*
X0215749Y0122912D01*
X0218326Y0125489D01*
X0218326Y0129134D01*
X0217450Y0130010D01*
X0217489Y0130010D01*
X0218057Y0129842D01*
X0218366Y0130010D01*
X0218718Y0130010D01*
X0219137Y0130429D01*
X0236766Y0140010D01*
X0237118Y0140010D01*
X0237537Y0140429D01*
X0238058Y0140712D01*
X0238158Y0141050D01*
X0238407Y0141299D01*
X0238407Y0141892D01*
X0238467Y0142094D01*
X0238526Y0078507D01*
X0005504Y0078214D01*
X0005210Y0396915D01*
X0087837Y0397018D01*
X0087703Y0396941D01*
X0087368Y0396606D01*
X0087131Y0396196D01*
X0087008Y0395738D01*
X0087008Y0392339D01*
X0090986Y0392339D01*
X0090986Y0391183D01*
X0087008Y0391183D01*
X0087008Y0387783D01*
X0087131Y0387326D01*
X0087368Y0386915D01*
X0087703Y0386580D01*
X0088113Y0386343D01*
X0088571Y0386220D01*
X0090986Y0386220D01*
X0090986Y0391183D01*
X0092142Y0391183D01*
X0092142Y0392339D01*
X0096120Y0392339D01*
X0096120Y0395738D01*
X0095997Y0396196D01*
X0095760Y0396606D01*
X0095425Y0396941D01*
X0095275Y0397028D01*
X0238231Y0397208D01*
X0238250Y0376099D01*
X0238163Y0376186D01*
X0238067Y0376518D01*
X0237542Y0376807D01*
X0237118Y0377231D01*
X0236773Y0377231D01*
X0218326Y0387399D01*
X0218326Y0389134D01*
X0215749Y0391712D01*
X0212103Y0391712D01*
X0209526Y0389134D01*
X0209526Y0385489D01*
X0212103Y0382912D01*
X0215749Y0382912D01*
X0216318Y0383481D01*
X0234007Y0373731D01*
X0234007Y0367051D01*
X0233774Y0367155D01*
X0233418Y0367510D01*
X0232974Y0367510D01*
X0218474Y0373955D01*
X0218118Y0374310D01*
X0217674Y0374310D01*
X0217309Y0374472D01*
X0218326Y0375489D01*
X0218326Y0379134D01*
X0215749Y0381712D01*
X0212103Y0381712D01*
X0209526Y0379134D01*
X0209526Y0375489D01*
X0210705Y0374310D01*
X0207147Y0374310D01*
X0208326Y0375489D01*
X0208326Y0379134D01*
X0205749Y0381712D01*
X0202103Y0381712D01*
X0200207Y0379815D01*
X0200207Y0380482D01*
X0202637Y0382912D01*
X0205749Y0382912D01*
X0208326Y0385489D01*
X0208326Y0389134D01*
X0205749Y0391712D01*
X0202103Y0391712D01*
X0199526Y0389134D01*
X0199526Y0386023D01*
X0195807Y0382304D01*
X0195807Y0371899D01*
X0197096Y0370610D01*
X0197796Y0369910D01*
X0200302Y0369910D01*
X0199526Y0369134D01*
X0199526Y0365489D01*
X0202103Y0362912D01*
X0205749Y0362912D01*
X0208326Y0365489D01*
X0208326Y0369134D01*
X0207550Y0369910D01*
X0210302Y0369910D01*
X0209526Y0369134D01*
X0209526Y0365489D01*
X0212103Y0362912D01*
X0215749Y0362912D01*
X0218326Y0365489D01*
X0218326Y0369134D01*
X0218198Y0369262D01*
X0230307Y0363881D01*
X0230307Y0286121D01*
X0221918Y0294510D01*
X0217347Y0294510D01*
X0218326Y0295489D01*
X0218326Y0299134D01*
X0215749Y0301712D01*
X0212103Y0301712D01*
X0209526Y0299134D01*
X0209526Y0295489D01*
X0210505Y0294510D01*
X0208929Y0294510D01*
X0208017Y0294511D01*
X0208017Y0294510D01*
X0208016Y0294510D01*
X0207355Y0293849D01*
X0205217Y0291712D01*
X0202103Y0291712D01*
X0199526Y0289134D01*
X0199526Y0285489D01*
X0202103Y0282912D01*
X0205749Y0282912D01*
X0208326Y0285489D01*
X0208326Y0288599D01*
X0209838Y0290110D01*
X0210502Y0290110D01*
X0209526Y0289134D01*
X0209526Y0285489D01*
X0210368Y0284647D01*
X0210213Y0284655D01*
X0210163Y0284610D01*
X0210096Y0284610D01*
X0209492Y0284007D01*
X0208163Y0282810D01*
X0208096Y0282810D01*
X0207492Y0282207D01*
X0206858Y0281636D01*
X0206855Y0281569D01*
X0206807Y0281522D01*
X0206807Y0280668D01*
X0206806Y0280654D01*
X0205749Y0281712D01*
X0202103Y0281712D01*
X0199903Y0279512D01*
X0200041Y0279650D02*
X0133123Y0279650D01*
X0131611Y0281248D02*
X0142754Y0281248D01*
X0141296Y0282847D02*
X0130100Y0282847D01*
X0129307Y0284445D02*
X0139964Y0284445D01*
X0138632Y0286044D02*
X0129307Y0286044D01*
X0129307Y0287642D02*
X0137264Y0287642D01*
X0136907Y0289241D02*
X0129307Y0289241D01*
X0129307Y0290839D02*
X0136907Y0290839D01*
X0136907Y0292438D02*
X0129307Y0292438D01*
X0129307Y0294036D02*
X0136907Y0294036D01*
X0136907Y0295635D02*
X0129307Y0295635D01*
X0129307Y0297233D02*
X0136907Y0297233D01*
X0136907Y0298832D02*
X0129307Y0298832D01*
X0129307Y0300430D02*
X0136907Y0300430D01*
X0134211Y0302029D02*
X0132056Y0302029D01*
X0132056Y0303627D02*
X0134158Y0303627D01*
X0134158Y0305226D02*
X0132056Y0305226D01*
X0132056Y0306824D02*
X0134158Y0306824D01*
X0134158Y0308423D02*
X0132056Y0308423D01*
X0137719Y0305898D02*
X0139107Y0305812D01*
X0139107Y0288910D01*
X0143607Y0283510D01*
X0145407Y0284110D01*
X0179007Y0284110D01*
X0197307Y0302410D01*
X0208207Y0302410D01*
X0209007Y0303210D01*
X0209007Y0309610D01*
X0206307Y0312310D01*
X0197307Y0312310D01*
X0155607Y0354010D01*
X0145307Y0354010D01*
X0145307Y0381210D01*
X0144307Y0382210D01*
X0135907Y0382210D01*
X0135607Y0381910D01*
X0135607Y0376851D01*
X0135658Y0376800D01*
X0132880Y0373622D02*
X0132880Y0373267D01*
X0133700Y0372447D01*
X0137207Y0372447D01*
X0137207Y0347599D01*
X0138496Y0346310D01*
X0146096Y0338710D01*
X0142176Y0338710D01*
X0142176Y0339978D01*
X0141356Y0340798D01*
X0133110Y0340798D01*
X0132290Y0339978D01*
X0132290Y0333307D01*
X0133110Y0332487D01*
X0141356Y0332487D01*
X0142176Y0333307D01*
X0142176Y0334310D01*
X0162296Y0334310D01*
X0173495Y0323111D01*
X0173495Y0307875D01*
X0172556Y0307865D01*
X0172556Y0309341D01*
X0171736Y0310161D01*
X0163478Y0310161D01*
X0162658Y0309341D01*
X0162658Y0301882D01*
X0163211Y0301329D01*
X0161807Y0299926D01*
X0161807Y0309422D01*
X0160518Y0310710D01*
X0157718Y0313510D01*
X0156256Y0313510D01*
X0156256Y0314669D01*
X0161185Y0314629D01*
X0161190Y0314624D01*
X0162096Y0314622D01*
X0162658Y0314618D01*
X0162658Y0313079D01*
X0163478Y0312259D01*
X0171736Y0312259D01*
X0172556Y0313079D01*
X0172556Y0320538D01*
X0171736Y0321358D01*
X0163478Y0321358D01*
X0162658Y0320538D01*
X0162658Y0319021D01*
X0162118Y0319022D01*
X0156256Y0319069D01*
X0156256Y0320638D01*
X0155436Y0321458D01*
X0147178Y0321458D01*
X0146358Y0320638D01*
X0146358Y0319149D01*
X0144056Y0319168D01*
X0144056Y0320738D01*
X0143236Y0321558D01*
X0134978Y0321558D01*
X0134158Y0320738D01*
X0134158Y0319048D01*
X0132056Y0319066D01*
X0132056Y0320638D01*
X0131236Y0321458D01*
X0122978Y0321458D01*
X0122158Y0320638D01*
X0122158Y0319019D01*
X0122011Y0319018D01*
X0121996Y0319003D01*
X0121974Y0319003D01*
X0121356Y0318358D01*
X0116956Y0313924D01*
X0116956Y0320738D01*
X0116136Y0321558D01*
X0114583Y0321558D01*
X0114583Y0332487D01*
X0117734Y0332487D01*
X0118554Y0333307D01*
X0118554Y0339978D01*
X0117734Y0340798D01*
X0117235Y0340798D01*
X0117216Y0341388D01*
X0117358Y0341987D01*
X0117187Y0342266D01*
X0117180Y0342468D01*
X0117307Y0342595D01*
X0117307Y0345826D01*
X0115023Y0348110D01*
X0111792Y0348110D01*
X0109507Y0345826D01*
X0109507Y0342595D01*
X0111303Y0340798D01*
X0109488Y0340798D01*
X0108668Y0339978D01*
X0108668Y0333307D01*
X0109488Y0332487D01*
X0110183Y0332487D01*
X0110183Y0321558D01*
X0107878Y0321558D01*
X0107058Y0320738D01*
X0107058Y0313923D01*
X0104856Y0316142D01*
X0104856Y0320838D01*
X0104036Y0321658D01*
X0095778Y0321658D01*
X0094958Y0320838D01*
X0094958Y0319358D01*
X0092956Y0319372D01*
X0092956Y0320938D01*
X0092136Y0321758D01*
X0083878Y0321758D01*
X0083058Y0320938D01*
X0083058Y0319365D01*
X0079021Y0319330D01*
X0079020Y0319331D01*
X0078117Y0319322D01*
X0077424Y0319316D01*
X0121618Y0363510D01*
X0122907Y0364799D01*
X0122907Y0370499D01*
X0123518Y0371110D01*
X0123518Y0371110D01*
X0124797Y0372389D01*
X0124797Y0372215D01*
X0123007Y0370426D01*
X0123007Y0367195D01*
X0125292Y0364910D01*
X0128523Y0364910D01*
X0130807Y0367195D01*
X0130807Y0370426D01*
X0129197Y0372036D01*
X0129197Y0372689D01*
X0129775Y0373267D01*
X0129775Y0373622D01*
X0131327Y0373622D01*
X0131327Y0378375D01*
X0131328Y0378375D01*
X0131307Y0378395D01*
X0131307Y0382010D01*
X0121557Y0391761D01*
X0091564Y0391761D01*
X0091564Y0365567D01*
X0048407Y0322410D01*
X0048407Y0196710D01*
X0044007Y0192310D01*
X0026007Y0192310D01*
X0022907Y0189210D01*
X0022907Y0137710D01*
X0013307Y0128110D01*
X0013307Y0094610D01*
X0023607Y0084310D01*
X0200924Y0084310D01*
X0213926Y0097312D01*
X0208728Y0102410D01*
X0200107Y0102410D01*
X0194085Y0108532D01*
X0153650Y0108532D01*
X0153361Y0108822D01*
X0139907Y0108822D01*
X0129907Y0108822D01*
X0119907Y0108822D01*
X0109907Y0108822D01*
X0109617Y0108532D01*
X0093690Y0108532D01*
X0097329Y0108532D01*
X0126607Y0137810D01*
X0126607Y0147473D01*
X0126682Y0147548D01*
X0126682Y0142598D01*
X0126682Y0147548D01*
X0126682Y0147548D01*
X0126682Y0146973D02*
X0126682Y0146973D01*
X0126682Y0145375D02*
X0126682Y0145375D01*
X0126682Y0143776D02*
X0126682Y0143776D01*
X0125732Y0142178D02*
X0130781Y0142178D01*
X0130781Y0140579D02*
X0125487Y0140579D01*
X0123889Y0138981D02*
X0130781Y0138981D01*
X0130781Y0137382D02*
X0122707Y0137382D01*
X0122492Y0135784D02*
X0130781Y0135784D01*
X0130781Y0134185D02*
X0120893Y0134185D01*
X0119295Y0132587D02*
X0130781Y0132587D01*
X0130781Y0130988D02*
X0117696Y0130988D01*
X0116098Y0129390D02*
X0130781Y0129390D01*
X0130781Y0127791D02*
X0114499Y0127791D01*
X0112901Y0126193D02*
X0131313Y0126193D01*
X0132981Y0127636D02*
X0142707Y0117910D01*
X0203328Y0117910D01*
X0203926Y0117312D01*
X0207662Y0119799D02*
X0210190Y0119799D01*
X0209526Y0119134D02*
X0209526Y0115489D01*
X0212103Y0112912D01*
X0215749Y0112912D01*
X0218326Y0115489D01*
X0218326Y0119134D01*
X0215749Y0121712D01*
X0212103Y0121712D01*
X0209526Y0119134D01*
X0209526Y0118200D02*
X0208326Y0118200D01*
X0208326Y0116602D02*
X0209526Y0116602D01*
X0210012Y0115003D02*
X0207840Y0115003D01*
X0206241Y0113405D02*
X0211611Y0113405D01*
X0212103Y0111712D02*
X0209526Y0109134D01*
X0209526Y0105489D01*
X0212103Y0102912D01*
X0215749Y0102912D01*
X0218326Y0105489D01*
X0218326Y0109134D01*
X0215749Y0111712D01*
X0212103Y0111712D01*
X0210599Y0110208D02*
X0207253Y0110208D01*
X0208326Y0109134D02*
X0205749Y0111712D01*
X0202103Y0111712D01*
X0199526Y0109134D01*
X0199526Y0105489D01*
X0202103Y0102912D01*
X0205749Y0102912D01*
X0208326Y0105489D01*
X0208326Y0109134D01*
X0208326Y0108609D02*
X0209526Y0108609D01*
X0209526Y0107010D02*
X0208326Y0107010D01*
X0208249Y0105412D02*
X0209603Y0105412D01*
X0211202Y0103813D02*
X0206650Y0103813D01*
X0205749Y0101712D02*
X0202103Y0101712D01*
X0199526Y0099134D01*
X0199526Y0095489D01*
X0202103Y0092912D01*
X0205749Y0092912D01*
X0208326Y0095489D01*
X0208326Y0099134D01*
X0205749Y0101712D01*
X0206844Y0100616D02*
X0210442Y0100616D01*
X0209126Y0099300D02*
X0209126Y0097512D01*
X0213726Y0097512D01*
X0213726Y0102112D01*
X0211938Y0102112D01*
X0209126Y0099300D01*
X0209126Y0099018D02*
X0208326Y0099018D01*
X0208326Y0097419D02*
X0213726Y0097419D01*
X0213726Y0097512D02*
X0213726Y0097112D01*
X0209126Y0097112D01*
X0209126Y0095324D01*
X0211938Y0092512D01*
X0213726Y0092512D01*
X0213726Y0097112D01*
X0214126Y0097112D01*
X0214126Y0097512D01*
X0213726Y0097512D01*
X0214126Y0097512D02*
X0214126Y0102112D01*
X0215914Y0102112D01*
X0218726Y0099300D01*
X0218726Y0097512D01*
X0214126Y0097512D01*
X0214126Y0097419D02*
X0238508Y0097419D01*
X0238510Y0095821D02*
X0218726Y0095821D01*
X0218726Y0095324D02*
X0218726Y0097112D01*
X0214126Y0097112D01*
X0214126Y0092512D01*
X0215914Y0092512D01*
X0218726Y0095324D01*
X0217625Y0094222D02*
X0238511Y0094222D01*
X0238513Y0092624D02*
X0216026Y0092624D01*
X0214126Y0092624D02*
X0213726Y0092624D01*
X0213726Y0094222D02*
X0214126Y0094222D01*
X0214126Y0095821D02*
X0213726Y0095821D01*
X0213726Y0099018D02*
X0214126Y0099018D01*
X0214126Y0100616D02*
X0213726Y0100616D01*
X0217410Y0100616D02*
X0238505Y0100616D01*
X0238507Y0099018D02*
X0218726Y0099018D01*
X0216650Y0103813D02*
X0238502Y0103813D01*
X0238504Y0102215D02*
X0184107Y0102215D01*
X0184107Y0103813D02*
X0201202Y0103813D01*
X0199603Y0105412D02*
X0183521Y0105412D01*
X0181922Y0107010D02*
X0199526Y0107010D01*
X0199526Y0108609D02*
X0153850Y0108609D01*
X0153850Y0108732D02*
X0161450Y0108732D01*
X0161450Y0108910D01*
X0161332Y0109656D01*
X0161099Y0110375D01*
X0160756Y0111048D01*
X0160312Y0111659D01*
X0159777Y0112194D01*
X0159166Y0112638D01*
X0158493Y0112981D01*
X0157774Y0113214D01*
X0157028Y0113332D01*
X0153850Y0113332D01*
X0153850Y0108732D01*
X0153450Y0108732D01*
X0153450Y0108332D01*
X0145850Y0108332D01*
X0145850Y0108155D01*
X0145969Y0107408D01*
X0146202Y0106690D01*
X0146545Y0106017D01*
X0146989Y0105405D01*
X0147523Y0104871D01*
X0148135Y0104427D01*
X0148808Y0104084D01*
X0149526Y0103850D01*
X0150273Y0103732D01*
X0153450Y0103732D01*
X0153450Y0108332D01*
X0153850Y0108332D01*
X0153850Y0103732D01*
X0157028Y0103732D01*
X0157774Y0103850D01*
X0158493Y0104084D01*
X0159166Y0104427D01*
X0159777Y0104871D01*
X0160312Y0105405D01*
X0160756Y0106017D01*
X0161099Y0106690D01*
X0161332Y0107408D01*
X0161450Y0108155D01*
X0161450Y0108332D01*
X0153850Y0108332D01*
X0153850Y0108732D01*
X0153450Y0108732D02*
X0153450Y0113332D01*
X0150273Y0113332D01*
X0149526Y0113214D01*
X0148808Y0112981D01*
X0148135Y0112638D01*
X0147523Y0112194D01*
X0146989Y0111659D01*
X0146545Y0111048D01*
X0146202Y0110375D01*
X0145969Y0109656D01*
X0145850Y0108910D01*
X0145850Y0108732D01*
X0153450Y0108732D01*
X0153450Y0108609D02*
X0140682Y0108609D01*
X0140682Y0108047D02*
X0140682Y0109597D01*
X0139132Y0109597D01*
X0139132Y0108047D01*
X0140682Y0108047D01*
X0140682Y0103872D01*
X0143687Y0103872D01*
X0144145Y0103995D01*
X0144556Y0104232D01*
X0144891Y0104567D01*
X0145128Y0104978D01*
X0145250Y0105435D01*
X0145250Y0108047D01*
X0140682Y0108047D01*
X0140682Y0107010D02*
X0139132Y0107010D01*
X0139132Y0108047D02*
X0139132Y0103872D01*
X0136127Y0103872D01*
X0135669Y0103995D01*
X0135259Y0104232D01*
X0134923Y0104567D01*
X0134907Y0104596D01*
X0134891Y0104567D01*
X0134556Y0104232D01*
X0134145Y0103995D01*
X0133687Y0103872D01*
X0130682Y0103872D01*
X0130682Y0108047D01*
X0129132Y0108047D01*
X0129132Y0103872D01*
X0126127Y0103872D01*
X0125669Y0103995D01*
X0125259Y0104232D01*
X0124923Y0104567D01*
X0124907Y0104596D01*
X0124891Y0104567D01*
X0124556Y0104232D01*
X0124145Y0103995D01*
X0123687Y0103872D01*
X0120682Y0103872D01*
X0120682Y0108047D01*
X0119132Y0108047D01*
X0119132Y0103872D01*
X0116127Y0103872D01*
X0115669Y0103995D01*
X0115259Y0104232D01*
X0114923Y0104567D01*
X0114907Y0104596D01*
X0114891Y0104567D01*
X0114556Y0104232D01*
X0114145Y0103995D01*
X0113687Y0103872D01*
X0110682Y0103872D01*
X0110682Y0108047D01*
X0109132Y0108047D01*
X0109132Y0103872D01*
X0106127Y0103872D01*
X0105669Y0103995D01*
X0105259Y0104232D01*
X0104923Y0104567D01*
X0104686Y0104978D01*
X0104564Y0105435D01*
X0104564Y0108047D01*
X0109132Y0108047D01*
X0109132Y0109597D01*
X0104564Y0109597D01*
X0104564Y0112209D01*
X0104686Y0112666D01*
X0104923Y0113077D01*
X0105259Y0113412D01*
X0105669Y0113649D01*
X0106127Y0113772D01*
X0109132Y0113772D01*
X0109132Y0109597D01*
X0110682Y0109597D01*
X0110682Y0113772D01*
X0113687Y0113772D01*
X0114145Y0113649D01*
X0114556Y0113412D01*
X0114891Y0113077D01*
X0114907Y0113049D01*
X0114923Y0113077D01*
X0115259Y0113412D01*
X0115669Y0113649D01*
X0116127Y0113772D01*
X0119132Y0113772D01*
X0119132Y0109597D01*
X0119132Y0108047D01*
X0110682Y0108047D01*
X0110682Y0109597D01*
X0115250Y0109597D01*
X0119132Y0109597D01*
X0120682Y0109597D01*
X0120682Y0113772D01*
X0123687Y0113772D01*
X0124145Y0113649D01*
X0124556Y0113412D01*
X0124891Y0113077D01*
X0124907Y0113049D01*
X0124923Y0113077D01*
X0125259Y0113412D01*
X0125669Y0113649D01*
X0126127Y0113772D01*
X0129132Y0113772D01*
X0129132Y0109597D01*
X0129132Y0108047D01*
X0120682Y0108047D01*
X0120682Y0109597D01*
X0125250Y0109597D01*
X0129132Y0109597D01*
X0130682Y0109597D01*
X0130682Y0113772D01*
X0133687Y0113772D01*
X0134145Y0113649D01*
X0134556Y0113412D01*
X0134891Y0113077D01*
X0134907Y0113049D01*
X0134923Y0113077D01*
X0135259Y0113412D01*
X0135669Y0113649D01*
X0136127Y0113772D01*
X0139132Y0113772D01*
X0139132Y0109597D01*
X0135250Y0109597D01*
X0130682Y0109597D01*
X0130682Y0108047D01*
X0139132Y0108047D01*
X0139132Y0108609D02*
X0130682Y0108609D01*
X0129132Y0108609D02*
X0120682Y0108609D01*
X0119132Y0108609D02*
X0110682Y0108609D01*
X0109132Y0108609D02*
X0093890Y0108609D01*
X0093890Y0108732D02*
X0101490Y0108732D01*
X0101490Y0108910D01*
X0101372Y0109656D01*
X0101138Y0110375D01*
X0100795Y0111048D01*
X0100351Y0111659D01*
X0099817Y0112194D01*
X0099205Y0112638D01*
X0098532Y0112981D01*
X0097814Y0113214D01*
X0097068Y0113332D01*
X0093890Y0113332D01*
X0093890Y0108732D01*
X0093890Y0108332D01*
X0101490Y0108332D01*
X0101490Y0108155D01*
X0101372Y0107408D01*
X0101138Y0106690D01*
X0100795Y0106017D01*
X0100351Y0105405D01*
X0099817Y0104871D01*
X0099205Y0104427D01*
X0098532Y0104084D01*
X0097814Y0103850D01*
X0097068Y0103732D01*
X0093890Y0103732D01*
X0093890Y0108332D01*
X0093490Y0108332D01*
X0093490Y0103732D01*
X0090312Y0103732D01*
X0089566Y0103850D01*
X0088847Y0104084D01*
X0088174Y0104427D01*
X0087563Y0104871D01*
X0087029Y0105405D01*
X0086584Y0106017D01*
X0086241Y0106690D01*
X0086008Y0107408D01*
X0085890Y0108155D01*
X0085890Y0108332D01*
X0093490Y0108332D01*
X0093490Y0108732D01*
X0085890Y0108732D01*
X0085890Y0108910D01*
X0086008Y0109656D01*
X0086241Y0110375D01*
X0086584Y0111048D01*
X0087029Y0111659D01*
X0087563Y0112194D01*
X0088174Y0112638D01*
X0088847Y0112981D01*
X0089566Y0113214D01*
X0090312Y0113332D01*
X0093490Y0113332D01*
X0093490Y0108732D01*
X0093890Y0108732D01*
X0093490Y0108609D02*
X0084207Y0108609D01*
X0084207Y0110208D02*
X0086187Y0110208D01*
X0087175Y0111806D02*
X0084214Y0111806D01*
X0085813Y0113405D02*
X0105251Y0113405D01*
X0104564Y0111806D02*
X0100204Y0111806D01*
X0101192Y0110208D02*
X0104564Y0110208D01*
X0104564Y0107010D02*
X0101242Y0107010D01*
X0100356Y0105412D02*
X0104570Y0105412D01*
X0105651Y0102215D02*
X0099230Y0102215D01*
X0100589Y0100616D02*
X0104964Y0100616D01*
X0109132Y0105412D02*
X0110682Y0105412D01*
X0110682Y0107010D02*
X0109132Y0107010D01*
X0109132Y0110208D02*
X0110682Y0110208D01*
X0110682Y0111806D02*
X0109132Y0111806D01*
X0109132Y0113405D02*
X0110682Y0113405D01*
X0114563Y0113405D02*
X0115251Y0113405D01*
X0119132Y0113405D02*
X0120682Y0113405D01*
X0120682Y0111806D02*
X0119132Y0111806D01*
X0119132Y0110208D02*
X0120682Y0110208D01*
X0120682Y0107010D02*
X0119132Y0107010D01*
X0119132Y0105412D02*
X0120682Y0105412D01*
X0124163Y0102215D02*
X0125651Y0102215D01*
X0124964Y0100616D02*
X0124850Y0100616D01*
X0119907Y0097798D02*
X0129907Y0097798D01*
X0139907Y0097798D01*
X0140641Y0098532D01*
X0153650Y0098532D01*
X0153450Y0103813D02*
X0153850Y0103813D01*
X0153850Y0105412D02*
X0153450Y0105412D01*
X0153450Y0107010D02*
X0153850Y0107010D01*
X0153850Y0110208D02*
X0153450Y0110208D01*
X0153450Y0111806D02*
X0153850Y0111806D01*
X0160165Y0111806D02*
X0238495Y0111806D01*
X0238496Y0110208D02*
X0217253Y0110208D01*
X0218326Y0108609D02*
X0238498Y0108609D01*
X0238499Y0107010D02*
X0218326Y0107010D01*
X0218249Y0105412D02*
X0238501Y0105412D01*
X0238493Y0113405D02*
X0216241Y0113405D01*
X0217840Y0115003D02*
X0238492Y0115003D01*
X0238491Y0116602D02*
X0218326Y0116602D01*
X0218326Y0118200D02*
X0238489Y0118200D01*
X0238488Y0119799D02*
X0217662Y0119799D01*
X0216063Y0121397D02*
X0238486Y0121397D01*
X0238485Y0122996D02*
X0215832Y0122996D01*
X0217431Y0124594D02*
X0238483Y0124594D01*
X0238482Y0126193D02*
X0218326Y0126193D01*
X0218326Y0127791D02*
X0238480Y0127791D01*
X0238479Y0129390D02*
X0218071Y0129390D01*
X0220166Y0130988D02*
X0238477Y0130988D01*
X0238476Y0132587D02*
X0223107Y0132587D01*
X0226048Y0134185D02*
X0238474Y0134185D01*
X0238473Y0135784D02*
X0228989Y0135784D01*
X0231931Y0137382D02*
X0238471Y0137382D01*
X0238470Y0138981D02*
X0234872Y0138981D01*
X0237813Y0140579D02*
X0238468Y0140579D01*
X0236207Y0142210D02*
X0217807Y0132210D01*
X0197607Y0132210D01*
X0194407Y0129010D01*
X0177407Y0129010D01*
X0177307Y0129110D01*
X0149807Y0129110D01*
X0142430Y0136487D01*
X0142430Y0147548D01*
X0139280Y0147548D02*
X0139207Y0147475D01*
X0139207Y0135610D01*
X0139607Y0135210D01*
X0139607Y0135110D01*
X0148406Y0125612D01*
X0202007Y0125710D01*
X0203009Y0127312D01*
X0203926Y0127312D01*
X0208724Y0122110D02*
X0213926Y0127312D01*
X0211789Y0121397D02*
X0211123Y0121397D01*
X0208724Y0122110D02*
X0145907Y0122110D01*
X0136131Y0131887D01*
X0136131Y0147548D01*
X0132981Y0147548D02*
X0132981Y0127636D01*
X0132912Y0124594D02*
X0111302Y0124594D01*
X0109704Y0122996D02*
X0134510Y0122996D01*
X0136109Y0121397D02*
X0108105Y0121397D01*
X0106507Y0119799D02*
X0137707Y0119799D01*
X0139306Y0118200D02*
X0104908Y0118200D01*
X0103310Y0116602D02*
X0140904Y0116602D01*
X0140682Y0113772D02*
X0140682Y0109597D01*
X0145250Y0109597D01*
X0145250Y0112209D01*
X0145128Y0112666D01*
X0144891Y0113077D01*
X0144556Y0113412D01*
X0144145Y0113649D01*
X0143687Y0113772D01*
X0140682Y0113772D01*
X0140682Y0113405D02*
X0139132Y0113405D01*
X0139132Y0111806D02*
X0140682Y0111806D01*
X0140682Y0110208D02*
X0139132Y0110208D01*
X0139132Y0105412D02*
X0140682Y0105412D01*
X0145244Y0105412D02*
X0146984Y0105412D01*
X0146098Y0107010D02*
X0145250Y0107010D01*
X0145250Y0110208D02*
X0146148Y0110208D01*
X0145250Y0111806D02*
X0147136Y0111806D01*
X0144563Y0113405D02*
X0201611Y0113405D01*
X0200012Y0115003D02*
X0101711Y0115003D01*
X0099907Y0116310D02*
X0085607Y0116310D01*
X0082007Y0112710D01*
X0082007Y0102110D01*
X0086007Y0098110D01*
X0093268Y0098110D01*
X0093690Y0098532D01*
X0094424Y0097798D01*
X0109907Y0097798D01*
X0119907Y0097798D01*
X0114964Y0100616D02*
X0114850Y0100616D01*
X0114163Y0102215D02*
X0115651Y0102215D01*
X0124563Y0113405D02*
X0125251Y0113405D01*
X0129132Y0113405D02*
X0130682Y0113405D01*
X0130682Y0111806D02*
X0129132Y0111806D01*
X0129132Y0110208D02*
X0130682Y0110208D01*
X0130682Y0107010D02*
X0129132Y0107010D01*
X0129132Y0105412D02*
X0130682Y0105412D01*
X0134163Y0102215D02*
X0135651Y0102215D01*
X0134964Y0100616D02*
X0134850Y0100616D01*
X0134563Y0113405D02*
X0135251Y0113405D01*
X0144163Y0102215D02*
X0148111Y0102215D01*
X0149760Y0103813D02*
X0097580Y0103813D01*
X0093890Y0103813D02*
X0093490Y0103813D01*
X0093490Y0105412D02*
X0093890Y0105412D01*
X0093890Y0107010D02*
X0093490Y0107010D01*
X0093490Y0110208D02*
X0093890Y0110208D01*
X0093890Y0111806D02*
X0093490Y0111806D01*
X0086137Y0107010D02*
X0084207Y0107010D01*
X0084207Y0105412D02*
X0087024Y0105412D01*
X0089799Y0103813D02*
X0084207Y0103813D01*
X0085014Y0102215D02*
X0088150Y0102215D01*
X0086791Y0100616D02*
X0086612Y0100616D01*
X0078007Y0099510D02*
X0078007Y0113510D01*
X0085807Y0121310D01*
X0099707Y0121310D01*
X0112307Y0133910D01*
X0112307Y0134610D01*
X0107784Y0139133D01*
X0107784Y0147548D01*
X0104635Y0147548D02*
X0104635Y0139883D01*
X0104707Y0133410D01*
X0101485Y0137488D02*
X0099607Y0135610D01*
X0099607Y0128210D01*
X0099407Y0128010D01*
X0094307Y0133810D02*
X0094607Y0135810D01*
X0094507Y0135910D01*
X0098235Y0139639D01*
X0098335Y0147548D01*
X0095186Y0147548D02*
X0095186Y0141889D01*
X0087307Y0134010D01*
X0087307Y0130810D01*
X0089007Y0129110D01*
X0080768Y0137382D02*
X0078590Y0137382D01*
X0079169Y0135784D02*
X0076992Y0135784D01*
X0078007Y0134185D02*
X0075393Y0134185D01*
X0073795Y0132587D02*
X0078007Y0132587D01*
X0078007Y0130988D02*
X0072196Y0130988D01*
X0070598Y0129390D02*
X0078007Y0129390D01*
X0078007Y0127791D02*
X0068999Y0127791D01*
X0067401Y0126193D02*
X0078007Y0126193D01*
X0078007Y0124594D02*
X0065802Y0124594D01*
X0064307Y0122996D02*
X0078007Y0122996D01*
X0077783Y0121397D02*
X0064307Y0121397D01*
X0064307Y0119799D02*
X0076184Y0119799D01*
X0074586Y0118200D02*
X0063108Y0118200D01*
X0061510Y0116602D02*
X0072987Y0116602D01*
X0072807Y0115003D02*
X0059911Y0115003D01*
X0058313Y0113405D02*
X0072807Y0113405D01*
X0072807Y0111806D02*
X0056807Y0111806D01*
X0056807Y0110208D02*
X0072807Y0110208D01*
X0072807Y0108609D02*
X0056807Y0108609D01*
X0056807Y0107010D02*
X0072807Y0107010D01*
X0072807Y0105412D02*
X0056807Y0105412D01*
X0056807Y0103813D02*
X0072807Y0103813D01*
X0072807Y0102215D02*
X0056807Y0102215D01*
X0056807Y0100616D02*
X0072807Y0100616D01*
X0072807Y0099018D02*
X0056807Y0099018D01*
X0056807Y0097419D02*
X0072807Y0097419D01*
X0073385Y0095821D02*
X0056807Y0095821D01*
X0056331Y0094222D02*
X0074984Y0094222D01*
X0076582Y0092624D02*
X0054732Y0092624D01*
X0053134Y0091025D02*
X0078181Y0091025D01*
X0079779Y0089427D02*
X0051535Y0089427D01*
X0049936Y0087828D02*
X0081378Y0087828D01*
X0082976Y0086230D02*
X0005497Y0086230D01*
X0005496Y0087828D02*
X0021478Y0087828D01*
X0019979Y0089427D02*
X0005494Y0089427D01*
X0005493Y0091025D02*
X0018381Y0091025D01*
X0016782Y0092624D02*
X0005491Y0092624D01*
X0005490Y0094222D02*
X0015184Y0094222D01*
X0014407Y0095821D02*
X0005488Y0095821D01*
X0005487Y0097419D02*
X0014407Y0097419D01*
X0014407Y0099018D02*
X0005485Y0099018D01*
X0005484Y0100616D02*
X0014407Y0100616D01*
X0014407Y0102215D02*
X0005482Y0102215D01*
X0005481Y0103813D02*
X0014407Y0103813D01*
X0014407Y0105412D02*
X0005479Y0105412D01*
X0005478Y0107010D02*
X0014407Y0107010D01*
X0014407Y0108609D02*
X0005476Y0108609D01*
X0005475Y0110208D02*
X0014407Y0110208D01*
X0014407Y0111806D02*
X0005473Y0111806D01*
X0005472Y0113405D02*
X0014407Y0113405D01*
X0014407Y0115003D02*
X0005470Y0115003D01*
X0005469Y0116602D02*
X0014407Y0116602D01*
X0014407Y0118200D02*
X0005467Y0118200D01*
X0005466Y0119799D02*
X0014407Y0119799D01*
X0014407Y0121397D02*
X0005465Y0121397D01*
X0005463Y0122996D02*
X0014407Y0122996D01*
X0014407Y0124594D02*
X0005462Y0124594D01*
X0005460Y0126193D02*
X0015378Y0126193D01*
X0016607Y0124310D02*
X0016607Y0095910D01*
X0023107Y0089410D01*
X0023107Y0089310D01*
X0023407Y0089010D01*
X0048007Y0089010D01*
X0054607Y0095610D01*
X0054607Y0112810D01*
X0062107Y0120310D01*
X0062107Y0124010D01*
X0091407Y0153310D01*
X0110307Y0153310D01*
X0111207Y0152410D01*
X0111207Y0147821D01*
X0110934Y0147548D01*
X0114007Y0147624D02*
X0114083Y0147548D01*
X0114507Y0147972D01*
X0114007Y0147624D02*
X0114007Y0155310D01*
X0112607Y0156210D01*
X0090407Y0156210D01*
X0058807Y0124610D01*
X0058907Y0121710D01*
X0051307Y0114210D01*
X0051307Y0096910D01*
X0046507Y0092110D01*
X0026407Y0092110D01*
X0020507Y0098010D01*
X0020507Y0122410D01*
X0025409Y0127312D01*
X0029753Y0127312D01*
X0025707Y0122310D02*
X0023307Y0119910D01*
X0023307Y0106210D01*
X0027407Y0102310D01*
X0043507Y0102310D01*
X0047907Y0106510D01*
X0047907Y0114810D01*
X0055207Y0122110D01*
X0055207Y0125710D01*
X0089007Y0159010D01*
X0115907Y0159010D01*
X0117307Y0157610D01*
X0117307Y0147622D01*
X0117233Y0147548D01*
X0117407Y0147722D01*
X0120207Y0147724D02*
X0120383Y0147548D01*
X0120383Y0160035D01*
X0118407Y0162010D01*
X0087907Y0161910D01*
X0061807Y0136010D01*
X0058907Y0133310D01*
X0052307Y0126710D01*
X0052207Y0122910D01*
X0043907Y0114510D01*
X0043907Y0112310D01*
X0035407Y0112310D01*
X0034854Y0112410D01*
X0029753Y0117312D01*
X0025707Y0122310D02*
X0035107Y0122310D01*
X0039753Y0126956D01*
X0039753Y0127312D01*
X0034607Y0132210D02*
X0039709Y0137312D01*
X0039753Y0137312D01*
X0034751Y0142310D02*
X0029753Y0137312D01*
X0026798Y0140579D02*
X0005447Y0140579D01*
X0005448Y0138981D02*
X0025353Y0138981D01*
X0025353Y0137382D02*
X0005450Y0137382D01*
X0005451Y0135784D02*
X0025353Y0135784D01*
X0023371Y0134185D02*
X0005453Y0134185D01*
X0005454Y0132587D02*
X0021772Y0132587D01*
X0020174Y0130988D02*
X0005456Y0130988D01*
X0005457Y0129390D02*
X0018575Y0129390D01*
X0016977Y0127791D02*
X0005459Y0127791D01*
X0016607Y0124310D02*
X0024507Y0132210D01*
X0034607Y0132210D01*
X0034751Y0142310D02*
X0060007Y0142310D01*
X0082707Y0165010D01*
X0082707Y0194310D01*
X0092907Y0203910D01*
X0104007Y0203910D01*
X0109507Y0198410D01*
X0110934Y0196737D01*
X0110934Y0192272D01*
X0114083Y0192272D02*
X0113983Y0197087D01*
X0112507Y0199310D01*
X0112607Y0199410D01*
X0112607Y0204310D01*
X0109707Y0207210D01*
X0091107Y0207210D01*
X0079407Y0195510D01*
X0079407Y0167410D01*
X0059407Y0147410D01*
X0039851Y0147410D01*
X0039753Y0147312D01*
X0036389Y0150170D02*
X0035808Y0150170D01*
X0035353Y0148572D02*
X0034178Y0148572D01*
X0034153Y0146973D02*
X0035353Y0146973D01*
X0035467Y0145375D02*
X0034038Y0145375D01*
X0033106Y0143776D02*
X0032440Y0143776D01*
X0031507Y0142178D02*
X0005445Y0142178D01*
X0005444Y0143776D02*
X0027066Y0143776D01*
X0025467Y0145375D02*
X0005442Y0145375D01*
X0005441Y0146973D02*
X0025353Y0146973D01*
X0025353Y0148572D02*
X0005439Y0148572D01*
X0005438Y0150170D02*
X0026389Y0150170D01*
X0027930Y0152912D02*
X0031575Y0152912D01*
X0034153Y0155489D01*
X0034153Y0159134D01*
X0031575Y0161712D01*
X0027930Y0161712D01*
X0025353Y0159134D01*
X0025353Y0155489D01*
X0027930Y0152912D01*
X0027475Y0153367D02*
X0005435Y0153367D01*
X0005436Y0151769D02*
X0031154Y0151769D01*
X0032031Y0153367D02*
X0032783Y0153367D01*
X0033629Y0154966D02*
X0035876Y0154966D01*
X0035353Y0156564D02*
X0034153Y0156564D01*
X0034153Y0158163D02*
X0035353Y0158163D01*
X0035980Y0159761D02*
X0033526Y0159761D01*
X0031927Y0161360D02*
X0037578Y0161360D01*
X0037930Y0162912D02*
X0035353Y0165489D01*
X0035353Y0169134D01*
X0037930Y0171712D01*
X0041575Y0171712D01*
X0044153Y0169134D01*
X0044153Y0165489D01*
X0041575Y0162912D01*
X0037930Y0162912D01*
X0037884Y0162958D02*
X0031622Y0162958D01*
X0031575Y0162912D02*
X0034153Y0165489D01*
X0034153Y0169134D01*
X0031575Y0171712D01*
X0027930Y0171712D01*
X0025353Y0169134D01*
X0025353Y0165489D01*
X0027930Y0162912D01*
X0031575Y0162912D01*
X0033220Y0164557D02*
X0036285Y0164557D01*
X0035353Y0166155D02*
X0034153Y0166155D01*
X0034153Y0167754D02*
X0035353Y0167754D01*
X0035571Y0169352D02*
X0033935Y0169352D01*
X0032336Y0170951D02*
X0037169Y0170951D01*
X0037930Y0172912D02*
X0041575Y0172912D01*
X0044153Y0175489D01*
X0044153Y0179134D01*
X0041575Y0181712D01*
X0037930Y0181712D01*
X0035353Y0179134D01*
X0035353Y0175489D01*
X0037930Y0172912D01*
X0036694Y0174148D02*
X0032811Y0174148D01*
X0031575Y0172912D02*
X0034153Y0175489D01*
X0034153Y0179134D01*
X0031575Y0181712D01*
X0027930Y0181712D01*
X0025353Y0179134D01*
X0025353Y0175489D01*
X0027930Y0172912D01*
X0031575Y0172912D01*
X0034153Y0175746D02*
X0035353Y0175746D01*
X0035353Y0177345D02*
X0034153Y0177345D01*
X0034153Y0178944D02*
X0035353Y0178944D01*
X0036760Y0180542D02*
X0032745Y0180542D01*
X0031575Y0182912D02*
X0034153Y0185489D01*
X0034153Y0189134D01*
X0031575Y0191712D01*
X0027930Y0191712D01*
X0025353Y0189134D01*
X0025353Y0185489D01*
X0027930Y0182912D01*
X0031575Y0182912D01*
X0032403Y0183739D02*
X0037103Y0183739D01*
X0037930Y0182912D02*
X0041575Y0182912D01*
X0044153Y0185489D01*
X0044153Y0189134D01*
X0041575Y0191712D01*
X0037930Y0191712D01*
X0035353Y0189134D01*
X0035353Y0185489D01*
X0037930Y0182912D01*
X0035504Y0185338D02*
X0034001Y0185338D01*
X0034153Y0186936D02*
X0035353Y0186936D01*
X0035353Y0188535D02*
X0034153Y0188535D01*
X0033154Y0190133D02*
X0036352Y0190133D01*
X0037930Y0192912D02*
X0035353Y0195489D01*
X0035353Y0199134D01*
X0037930Y0201712D01*
X0041575Y0201712D01*
X0044153Y0199134D01*
X0044153Y0195489D01*
X0041575Y0192912D01*
X0037930Y0192912D01*
X0037512Y0193330D02*
X0031994Y0193330D01*
X0031575Y0192912D02*
X0034153Y0195489D01*
X0034153Y0199134D01*
X0031575Y0201712D01*
X0027930Y0201712D01*
X0025353Y0199134D01*
X0025353Y0195489D01*
X0027930Y0192912D01*
X0031575Y0192912D01*
X0033592Y0194929D02*
X0035913Y0194929D01*
X0035353Y0196527D02*
X0034153Y0196527D01*
X0034153Y0198126D02*
X0035353Y0198126D01*
X0035943Y0199724D02*
X0033563Y0199724D01*
X0031964Y0201323D02*
X0037541Y0201323D01*
X0037930Y0202912D02*
X0041575Y0202912D01*
X0044153Y0205489D01*
X0044153Y0209134D01*
X0041575Y0211712D01*
X0037930Y0211712D01*
X0035353Y0209134D01*
X0035353Y0205489D01*
X0037930Y0202912D01*
X0037921Y0202921D02*
X0031585Y0202921D01*
X0031575Y0202912D02*
X0034153Y0205489D01*
X0034153Y0209134D01*
X0031575Y0211712D01*
X0027930Y0211712D01*
X0025353Y0209134D01*
X0025353Y0205489D01*
X0027930Y0202912D01*
X0031575Y0202912D01*
X0033183Y0204520D02*
X0036322Y0204520D01*
X0035353Y0206118D02*
X0034153Y0206118D01*
X0034153Y0207717D02*
X0035353Y0207717D01*
X0035534Y0209315D02*
X0033972Y0209315D01*
X0032373Y0210914D02*
X0037132Y0210914D01*
X0037930Y0212912D02*
X0035353Y0215489D01*
X0035353Y0219134D01*
X0037930Y0221712D01*
X0041575Y0221712D01*
X0044153Y0219134D01*
X0044153Y0215489D01*
X0041575Y0212912D01*
X0037930Y0212912D01*
X0036731Y0214111D02*
X0032774Y0214111D01*
X0031575Y0212912D02*
X0034153Y0215489D01*
X0034153Y0219134D01*
X0031575Y0221712D01*
X0027930Y0221712D01*
X0025353Y0219134D01*
X0025353Y0215489D01*
X0027930Y0212912D01*
X0031575Y0212912D01*
X0034153Y0215709D02*
X0035353Y0215709D01*
X0035353Y0217308D02*
X0034153Y0217308D01*
X0034153Y0218906D02*
X0035353Y0218906D01*
X0036723Y0220505D02*
X0032782Y0220505D01*
X0031575Y0222912D02*
X0034153Y0225489D01*
X0034153Y0229134D01*
X0031575Y0231712D01*
X0027930Y0231712D01*
X0025353Y0229134D01*
X0025353Y0225489D01*
X0027930Y0222912D01*
X0031575Y0222912D01*
X0032365Y0223702D02*
X0037140Y0223702D01*
X0037930Y0222912D02*
X0041575Y0222912D01*
X0044153Y0225489D01*
X0044153Y0229134D01*
X0041575Y0231712D01*
X0037930Y0231712D01*
X0035353Y0229134D01*
X0035353Y0225489D01*
X0037930Y0222912D01*
X0035542Y0225300D02*
X0033964Y0225300D01*
X0034153Y0226899D02*
X0035353Y0226899D01*
X0035353Y0228497D02*
X0034153Y0228497D01*
X0033191Y0230096D02*
X0036314Y0230096D01*
X0037913Y0231694D02*
X0031593Y0231694D01*
X0031575Y0232912D02*
X0034153Y0235489D01*
X0034153Y0239134D01*
X0031575Y0241712D01*
X0027930Y0241712D01*
X0025353Y0239134D01*
X0025353Y0235489D01*
X0027930Y0232912D01*
X0031575Y0232912D01*
X0031956Y0233293D02*
X0037549Y0233293D01*
X0037930Y0232912D02*
X0041575Y0232912D01*
X0044153Y0235489D01*
X0044153Y0239134D01*
X0041575Y0241712D01*
X0037930Y0241712D01*
X0035353Y0239134D01*
X0035353Y0235489D01*
X0037930Y0232912D01*
X0035951Y0234891D02*
X0033555Y0234891D01*
X0034153Y0236490D02*
X0035353Y0236490D01*
X0035353Y0238088D02*
X0034153Y0238088D01*
X0033600Y0239687D02*
X0035905Y0239687D01*
X0037504Y0241285D02*
X0032002Y0241285D01*
X0031575Y0242912D02*
X0034153Y0245489D01*
X0034153Y0249134D01*
X0031575Y0251712D01*
X0027930Y0251712D01*
X0025353Y0249134D01*
X0025353Y0245489D01*
X0027930Y0242912D01*
X0031575Y0242912D01*
X0033146Y0244482D02*
X0036360Y0244482D01*
X0035353Y0245489D02*
X0037930Y0242912D01*
X0041575Y0242912D01*
X0044153Y0245489D01*
X0044153Y0249134D01*
X0041575Y0251712D01*
X0037930Y0251712D01*
X0035353Y0249134D01*
X0035353Y0245489D01*
X0035353Y0246081D02*
X0034153Y0246081D01*
X0034153Y0247679D02*
X0035353Y0247679D01*
X0035496Y0249278D02*
X0034009Y0249278D01*
X0032411Y0250877D02*
X0037095Y0250877D01*
X0037930Y0252912D02*
X0041575Y0252912D01*
X0044153Y0255489D01*
X0044153Y0259134D01*
X0041575Y0261712D01*
X0037930Y0261712D01*
X0035353Y0259134D01*
X0035353Y0255489D01*
X0037930Y0252912D01*
X0036768Y0254074D02*
X0032737Y0254074D01*
X0031575Y0252912D02*
X0034153Y0255489D01*
X0034153Y0259134D01*
X0031575Y0261712D01*
X0027930Y0261712D01*
X0025353Y0259134D01*
X0025353Y0255489D01*
X0027930Y0252912D01*
X0031575Y0252912D01*
X0034153Y0255672D02*
X0035353Y0255672D01*
X0035353Y0257271D02*
X0034153Y0257271D01*
X0034153Y0258869D02*
X0035353Y0258869D01*
X0036686Y0260468D02*
X0032820Y0260468D01*
X0031575Y0262912D02*
X0034153Y0265489D01*
X0034153Y0269134D01*
X0031575Y0271712D01*
X0027930Y0271712D01*
X0025353Y0269134D01*
X0025353Y0265489D01*
X0027930Y0262912D01*
X0031575Y0262912D01*
X0032328Y0263665D02*
X0037177Y0263665D01*
X0037930Y0262912D02*
X0041575Y0262912D01*
X0044153Y0265489D01*
X0044153Y0269134D01*
X0041575Y0271712D01*
X0037930Y0271712D01*
X0035353Y0269134D01*
X0035353Y0265489D01*
X0037930Y0262912D01*
X0035579Y0265263D02*
X0033927Y0265263D01*
X0034153Y0266862D02*
X0035353Y0266862D01*
X0035353Y0268460D02*
X0034153Y0268460D01*
X0033228Y0270059D02*
X0036277Y0270059D01*
X0037876Y0271657D02*
X0031630Y0271657D01*
X0031575Y0272912D02*
X0034153Y0275489D01*
X0034153Y0279134D01*
X0031575Y0281712D01*
X0027930Y0281712D01*
X0025353Y0279134D01*
X0025353Y0275489D01*
X0027930Y0272912D01*
X0031575Y0272912D01*
X0031919Y0273256D02*
X0037586Y0273256D01*
X0037930Y0272912D02*
X0041575Y0272912D01*
X0044153Y0275489D01*
X0044153Y0279134D01*
X0041575Y0281712D01*
X0037930Y0281712D01*
X0035353Y0279134D01*
X0035353Y0275489D01*
X0037930Y0272912D01*
X0035988Y0274854D02*
X0033518Y0274854D01*
X0034153Y0276453D02*
X0035353Y0276453D01*
X0035353Y0278051D02*
X0034153Y0278051D01*
X0033637Y0279650D02*
X0035868Y0279650D01*
X0037467Y0281248D02*
X0032039Y0281248D01*
X0031575Y0282912D02*
X0034153Y0285489D01*
X0034153Y0289134D01*
X0031575Y0291712D01*
X0027930Y0291712D01*
X0025353Y0289134D01*
X0025353Y0285489D01*
X0027930Y0282912D01*
X0031575Y0282912D01*
X0033109Y0284445D02*
X0036397Y0284445D01*
X0035353Y0285489D02*
X0035353Y0289134D01*
X0037930Y0291712D01*
X0041575Y0291712D01*
X0044153Y0289134D01*
X0044153Y0285489D01*
X0041575Y0282912D01*
X0037930Y0282912D01*
X0035353Y0285489D01*
X0035353Y0286044D02*
X0034153Y0286044D01*
X0034153Y0287642D02*
X0035353Y0287642D01*
X0035459Y0289241D02*
X0034046Y0289241D01*
X0032448Y0290839D02*
X0037058Y0290839D01*
X0037930Y0292912D02*
X0035353Y0295489D01*
X0035353Y0299134D01*
X0037930Y0301712D01*
X0041575Y0301712D01*
X0044153Y0299134D01*
X0044153Y0295489D01*
X0041575Y0292912D01*
X0037930Y0292912D01*
X0036806Y0294036D02*
X0032700Y0294036D01*
X0031575Y0292912D02*
X0034153Y0295489D01*
X0034153Y0299134D01*
X0031575Y0301712D01*
X0027930Y0301712D01*
X0025353Y0299134D01*
X0025353Y0295489D01*
X0027930Y0292912D01*
X0031575Y0292912D01*
X0034153Y0295635D02*
X0035353Y0295635D01*
X0035353Y0297233D02*
X0034153Y0297233D01*
X0034153Y0298832D02*
X0035353Y0298832D01*
X0036649Y0300430D02*
X0032857Y0300430D01*
X0031575Y0302912D02*
X0034153Y0305489D01*
X0034153Y0309134D01*
X0031575Y0311712D01*
X0027930Y0311712D01*
X0025353Y0309134D01*
X0025353Y0305489D01*
X0027930Y0302912D01*
X0031575Y0302912D01*
X0032291Y0303627D02*
X0037215Y0303627D01*
X0037930Y0302912D02*
X0041575Y0302912D01*
X0044153Y0305489D01*
X0044153Y0309134D01*
X0041575Y0311712D01*
X0037930Y0311712D01*
X0035353Y0309134D01*
X0035353Y0305489D01*
X0037930Y0302912D01*
X0035616Y0305226D02*
X0033889Y0305226D01*
X0034153Y0306824D02*
X0035353Y0306824D01*
X0035353Y0308423D02*
X0034153Y0308423D01*
X0033266Y0310021D02*
X0036240Y0310021D01*
X0037838Y0311620D02*
X0031667Y0311620D01*
X0031575Y0312912D02*
X0034153Y0315489D01*
X0034153Y0319134D01*
X0031575Y0321712D01*
X0027930Y0321712D01*
X0025353Y0319134D01*
X0025353Y0315489D01*
X0027930Y0312912D01*
X0031575Y0312912D01*
X0031882Y0313218D02*
X0037624Y0313218D01*
X0037930Y0312912D02*
X0041575Y0312912D01*
X0044153Y0315489D01*
X0044153Y0319134D01*
X0041575Y0321712D01*
X0037930Y0321712D01*
X0035353Y0319134D01*
X0035353Y0315489D01*
X0037930Y0312912D01*
X0036025Y0314817D02*
X0033480Y0314817D01*
X0034153Y0316415D02*
X0035353Y0316415D01*
X0035353Y0318014D02*
X0034153Y0318014D01*
X0033675Y0319613D02*
X0035831Y0319613D01*
X0037429Y0321211D02*
X0032076Y0321211D01*
X0031575Y0322912D02*
X0034153Y0325489D01*
X0034153Y0329134D01*
X0031575Y0331712D01*
X0027930Y0331712D01*
X0025353Y0329134D01*
X0025353Y0325489D01*
X0027930Y0322912D01*
X0031575Y0322912D01*
X0033072Y0324408D02*
X0036434Y0324408D01*
X0035353Y0325489D02*
X0037930Y0322912D01*
X0041575Y0322912D01*
X0044153Y0325489D01*
X0044153Y0329134D01*
X0041575Y0331712D01*
X0037930Y0331712D01*
X0035353Y0329134D01*
X0035353Y0325489D01*
X0035353Y0326007D02*
X0034153Y0326007D01*
X0034153Y0327605D02*
X0035353Y0327605D01*
X0035422Y0329204D02*
X0034084Y0329204D01*
X0032485Y0330802D02*
X0037020Y0330802D01*
X0037930Y0332912D02*
X0041575Y0332912D01*
X0044153Y0335489D01*
X0044153Y0339134D01*
X0041575Y0341712D01*
X0037930Y0341712D01*
X0035353Y0339134D01*
X0035353Y0335489D01*
X0037930Y0332912D01*
X0036843Y0333999D02*
X0032663Y0333999D01*
X0031575Y0332912D02*
X0034153Y0335489D01*
X0034153Y0339134D01*
X0031575Y0341712D01*
X0027930Y0341712D01*
X0025353Y0339134D01*
X0025353Y0335489D01*
X0027930Y0332912D01*
X0031575Y0332912D01*
X0034153Y0335598D02*
X0035353Y0335598D01*
X0035353Y0337196D02*
X0034153Y0337196D01*
X0034153Y0338795D02*
X0035353Y0338795D01*
X0036612Y0340393D02*
X0032894Y0340393D01*
X0031575Y0342912D02*
X0034153Y0345489D01*
X0034153Y0349134D01*
X0031575Y0351712D01*
X0027930Y0351712D01*
X0025353Y0349134D01*
X0025353Y0345489D01*
X0027930Y0342912D01*
X0031575Y0342912D01*
X0032254Y0343590D02*
X0037252Y0343590D01*
X0037930Y0342912D02*
X0041575Y0342912D01*
X0044153Y0345489D01*
X0044153Y0349134D01*
X0041575Y0351712D01*
X0037930Y0351712D01*
X0035353Y0349134D01*
X0035353Y0345489D01*
X0037930Y0342912D01*
X0035653Y0345189D02*
X0033852Y0345189D01*
X0034153Y0346787D02*
X0035353Y0346787D01*
X0035353Y0348386D02*
X0034153Y0348386D01*
X0033303Y0349984D02*
X0036203Y0349984D01*
X0037801Y0351583D02*
X0031704Y0351583D01*
X0031575Y0352912D02*
X0034153Y0355489D01*
X0034153Y0359134D01*
X0031575Y0361712D01*
X0027930Y0361712D01*
X0025353Y0359134D01*
X0025353Y0355489D01*
X0027930Y0352912D01*
X0031575Y0352912D01*
X0031845Y0353181D02*
X0037661Y0353181D01*
X0037930Y0352912D02*
X0041575Y0352912D01*
X0044153Y0355489D01*
X0044153Y0359134D01*
X0041575Y0361712D01*
X0037930Y0361712D01*
X0035353Y0359134D01*
X0035353Y0355489D01*
X0037930Y0352912D01*
X0036062Y0354780D02*
X0033443Y0354780D01*
X0034153Y0356378D02*
X0035353Y0356378D01*
X0035353Y0357977D02*
X0034153Y0357977D01*
X0033712Y0359575D02*
X0035794Y0359575D01*
X0037392Y0361174D02*
X0032113Y0361174D01*
X0031575Y0362912D02*
X0034153Y0365489D01*
X0034153Y0369134D01*
X0031575Y0371712D01*
X0027930Y0371712D01*
X0025353Y0369134D01*
X0025353Y0365489D01*
X0027930Y0362912D01*
X0031575Y0362912D01*
X0033034Y0364371D02*
X0036471Y0364371D01*
X0035353Y0365489D02*
X0035353Y0369134D01*
X0037930Y0371712D01*
X0041575Y0371712D01*
X0044153Y0369134D01*
X0044153Y0365489D01*
X0041575Y0362912D01*
X0037930Y0362912D01*
X0035353Y0365489D01*
X0035353Y0365969D02*
X0034153Y0365969D01*
X0034153Y0367568D02*
X0035353Y0367568D01*
X0035385Y0369166D02*
X0034121Y0369166D01*
X0032522Y0370765D02*
X0036983Y0370765D01*
X0037930Y0372912D02*
X0035353Y0375489D01*
X0035353Y0379134D01*
X0037930Y0381712D01*
X0041575Y0381712D01*
X0044153Y0379134D01*
X0044153Y0375489D01*
X0041575Y0372912D01*
X0037930Y0372912D01*
X0036880Y0373962D02*
X0032625Y0373962D01*
X0031575Y0372912D02*
X0034153Y0375489D01*
X0034153Y0379134D01*
X0031575Y0381712D01*
X0027930Y0381712D01*
X0025353Y0379134D01*
X0025353Y0375489D01*
X0027930Y0372912D01*
X0031575Y0372912D01*
X0034153Y0375560D02*
X0035353Y0375560D01*
X0035353Y0377159D02*
X0034153Y0377159D01*
X0034153Y0378757D02*
X0035353Y0378757D01*
X0036574Y0380356D02*
X0032931Y0380356D01*
X0031575Y0382912D02*
X0034153Y0385489D01*
X0034153Y0389134D01*
X0031575Y0391712D01*
X0027930Y0391712D01*
X0025353Y0389134D01*
X0025353Y0385489D01*
X0027930Y0382912D01*
X0031575Y0382912D01*
X0032216Y0383553D02*
X0037289Y0383553D01*
X0037930Y0382912D02*
X0041575Y0382912D01*
X0044153Y0385489D01*
X0044153Y0389134D01*
X0041575Y0391712D01*
X0037930Y0391712D01*
X0035353Y0389134D01*
X0035353Y0385489D01*
X0037930Y0382912D01*
X0035691Y0385151D02*
X0033815Y0385151D01*
X0034153Y0386750D02*
X0035353Y0386750D01*
X0035353Y0388348D02*
X0034153Y0388348D01*
X0033340Y0389947D02*
X0036165Y0389947D01*
X0037764Y0391546D02*
X0031742Y0391546D01*
X0027764Y0391546D02*
X0005215Y0391546D01*
X0005213Y0393144D02*
X0087008Y0393144D01*
X0087008Y0394743D02*
X0005212Y0394743D01*
X0005210Y0396341D02*
X0087215Y0396341D01*
X0087008Y0389947D02*
X0043340Y0389947D01*
X0044153Y0388348D02*
X0087008Y0388348D01*
X0087533Y0386750D02*
X0044153Y0386750D01*
X0043815Y0385151D02*
X0097859Y0385151D01*
X0095970Y0383553D02*
X0042216Y0383553D01*
X0042931Y0380356D02*
X0095707Y0380356D01*
X0095707Y0378757D02*
X0044153Y0378757D01*
X0044153Y0377159D02*
X0095707Y0377159D01*
X0095707Y0375560D02*
X0044153Y0375560D01*
X0042625Y0373962D02*
X0095707Y0373962D01*
X0095707Y0372363D02*
X0005232Y0372363D01*
X0005234Y0370765D02*
X0026983Y0370765D01*
X0025385Y0369166D02*
X0005235Y0369166D01*
X0005237Y0367568D02*
X0025353Y0367568D01*
X0025353Y0365969D02*
X0005238Y0365969D01*
X0005240Y0364371D02*
X0026471Y0364371D01*
X0027392Y0361174D02*
X0005243Y0361174D01*
X0005241Y0362772D02*
X0091466Y0362772D01*
X0089837Y0361174D02*
X0042113Y0361174D01*
X0043712Y0359575D02*
X0088208Y0359575D01*
X0086579Y0357977D02*
X0044153Y0357977D01*
X0044153Y0356378D02*
X0084950Y0356378D01*
X0083321Y0354780D02*
X0043443Y0354780D01*
X0041845Y0353181D02*
X0081692Y0353181D01*
X0080062Y0351583D02*
X0041704Y0351583D01*
X0043303Y0349984D02*
X0078433Y0349984D01*
X0076804Y0348386D02*
X0044153Y0348386D01*
X0044153Y0346787D02*
X0075175Y0346787D01*
X0073546Y0345189D02*
X0043852Y0345189D01*
X0042254Y0343590D02*
X0071917Y0343590D01*
X0070288Y0341992D02*
X0005260Y0341992D01*
X0005259Y0343590D02*
X0027252Y0343590D01*
X0025653Y0345189D02*
X0005258Y0345189D01*
X0005256Y0346787D02*
X0025353Y0346787D01*
X0025353Y0348386D02*
X0005255Y0348386D01*
X0005253Y0349984D02*
X0026203Y0349984D01*
X0027801Y0351583D02*
X0005252Y0351583D01*
X0005250Y0353181D02*
X0027661Y0353181D01*
X0026062Y0354780D02*
X0005249Y0354780D01*
X0005247Y0356378D02*
X0025353Y0356378D01*
X0025353Y0357977D02*
X0005246Y0357977D01*
X0005244Y0359575D02*
X0025794Y0359575D01*
X0026880Y0373962D02*
X0005231Y0373962D01*
X0005229Y0375560D02*
X0025353Y0375560D01*
X0025353Y0377159D02*
X0005228Y0377159D01*
X0005226Y0378757D02*
X0025353Y0378757D01*
X0026574Y0380356D02*
X0005225Y0380356D01*
X0005223Y0381954D02*
X0095670Y0381954D01*
X0097907Y0382310D02*
X0101807Y0385610D01*
X0121307Y0385610D01*
X0122807Y0384110D01*
X0122807Y0378516D01*
X0122666Y0378375D01*
X0122607Y0378316D01*
X0122607Y0373310D01*
X0120707Y0371410D01*
X0120707Y0365710D01*
X0073719Y0318722D01*
X0073806Y0312710D01*
X0078131Y0317122D01*
X0088007Y0317209D01*
X0099807Y0317122D01*
X0099907Y0317109D01*
X0100883Y0317022D01*
X0112007Y0305812D01*
X0111907Y0305998D01*
X0112007Y0305812D02*
X0122931Y0316822D01*
X0127107Y0316909D01*
X0125107Y0316922D01*
X0127107Y0316909D02*
X0137207Y0316822D01*
X0139107Y0317009D01*
X0149607Y0316922D01*
X0151307Y0316909D01*
X0162107Y0316822D01*
X0167607Y0316809D01*
X0172556Y0316415D02*
X0173495Y0316415D01*
X0173495Y0314817D02*
X0172556Y0314817D01*
X0172556Y0313218D02*
X0173495Y0313218D01*
X0173495Y0311620D02*
X0159609Y0311620D01*
X0161207Y0310021D02*
X0163338Y0310021D01*
X0162658Y0308423D02*
X0161807Y0308423D01*
X0161807Y0306824D02*
X0162658Y0306824D01*
X0162658Y0305226D02*
X0161807Y0305226D01*
X0161807Y0303627D02*
X0162658Y0303627D01*
X0162658Y0302029D02*
X0161807Y0302029D01*
X0161807Y0300430D02*
X0162312Y0300430D01*
X0166007Y0300310D02*
X0166107Y0304710D01*
X0167607Y0305612D01*
X0175695Y0305698D01*
X0175695Y0324022D01*
X0163207Y0336510D01*
X0137365Y0336510D01*
X0137233Y0336643D01*
X0132705Y0340393D02*
X0118139Y0340393D01*
X0118554Y0338795D02*
X0132290Y0338795D01*
X0132290Y0337196D02*
X0118554Y0337196D01*
X0118554Y0335598D02*
X0132290Y0335598D01*
X0132290Y0333999D02*
X0118554Y0333999D01*
X0115225Y0335028D02*
X0115007Y0341610D01*
X0113407Y0344210D01*
X0110469Y0346787D02*
X0104895Y0346787D01*
X0103297Y0345189D02*
X0109507Y0345189D01*
X0109507Y0343590D02*
X0101698Y0343590D01*
X0100100Y0341992D02*
X0110110Y0341992D01*
X0109083Y0340393D02*
X0098501Y0340393D01*
X0096903Y0338795D02*
X0108668Y0338795D01*
X0108668Y0337196D02*
X0095304Y0337196D01*
X0093706Y0335598D02*
X0108668Y0335598D01*
X0108668Y0333999D02*
X0092107Y0333999D01*
X0090509Y0332401D02*
X0110183Y0332401D01*
X0110183Y0330802D02*
X0088910Y0330802D01*
X0087312Y0329204D02*
X0110183Y0329204D01*
X0110183Y0327605D02*
X0085713Y0327605D01*
X0084115Y0326007D02*
X0110183Y0326007D01*
X0110183Y0324408D02*
X0082516Y0324408D01*
X0080918Y0322810D02*
X0110183Y0322810D01*
X0107531Y0321211D02*
X0104483Y0321211D01*
X0104856Y0319613D02*
X0107058Y0319613D01*
X0107058Y0318014D02*
X0104856Y0318014D01*
X0104856Y0316415D02*
X0107058Y0316415D01*
X0107058Y0314817D02*
X0106171Y0314817D01*
X0112007Y0317009D02*
X0112383Y0316922D01*
X0112383Y0335414D01*
X0113611Y0336643D01*
X0115225Y0335028D01*
X0114583Y0332401D02*
X0164205Y0332401D01*
X0162607Y0333999D02*
X0142176Y0333999D01*
X0142176Y0338795D02*
X0146011Y0338795D01*
X0144413Y0340393D02*
X0141762Y0340393D01*
X0142814Y0341992D02*
X0117356Y0341992D01*
X0117307Y0343590D02*
X0141216Y0343590D01*
X0139617Y0345189D02*
X0117307Y0345189D01*
X0116346Y0346787D02*
X0138019Y0346787D01*
X0138496Y0346310D02*
X0138496Y0346310D01*
X0137207Y0348386D02*
X0106494Y0348386D01*
X0108092Y0349984D02*
X0137207Y0349984D01*
X0137207Y0351583D02*
X0109691Y0351583D01*
X0111289Y0353181D02*
X0137207Y0353181D01*
X0137207Y0354780D02*
X0112888Y0354780D01*
X0114486Y0356378D02*
X0137207Y0356378D01*
X0137207Y0357977D02*
X0116085Y0357977D01*
X0117683Y0359575D02*
X0137207Y0359575D01*
X0137207Y0361174D02*
X0119282Y0361174D01*
X0120880Y0362772D02*
X0137207Y0362772D01*
X0137207Y0364371D02*
X0122479Y0364371D01*
X0122907Y0365969D02*
X0124233Y0365969D01*
X0123007Y0367568D02*
X0122907Y0367568D01*
X0122907Y0369166D02*
X0123007Y0369166D01*
X0123173Y0370765D02*
X0123346Y0370765D01*
X0124771Y0372363D02*
X0124797Y0372363D01*
X0126997Y0368900D02*
X0126997Y0376800D01*
X0129197Y0372363D02*
X0137207Y0372363D01*
X0137207Y0370765D02*
X0130468Y0370765D01*
X0130807Y0369166D02*
X0137207Y0369166D01*
X0137207Y0367568D02*
X0130807Y0367568D01*
X0129582Y0365969D02*
X0137207Y0365969D01*
X0132880Y0373622D02*
X0131328Y0373622D01*
X0131328Y0378375D01*
X0131327Y0378757D02*
X0131328Y0378757D01*
X0131327Y0377159D02*
X0131328Y0377159D01*
X0131327Y0375560D02*
X0131328Y0375560D01*
X0131327Y0373962D02*
X0131328Y0373962D01*
X0131327Y0380356D02*
X0131328Y0380356D01*
X0131327Y0381954D02*
X0131328Y0381954D01*
X0131307Y0382010D02*
X0137514Y0388217D01*
X0143532Y0388217D01*
X0142954Y0388348D02*
X0096120Y0388348D01*
X0096120Y0387783D02*
X0096120Y0391183D01*
X0092142Y0391183D01*
X0092142Y0386220D01*
X0094557Y0386220D01*
X0095014Y0386343D01*
X0095425Y0386580D01*
X0095760Y0386915D01*
X0095997Y0387326D01*
X0096120Y0387783D01*
X0095595Y0386750D02*
X0099748Y0386750D01*
X0097907Y0382310D02*
X0097907Y0366010D01*
X0060607Y0329410D01*
X0052519Y0320922D01*
X0052519Y0314822D01*
X0052407Y0312010D01*
X0052407Y0280210D01*
X0123807Y0208810D01*
X0128207Y0204210D01*
X0128207Y0199810D01*
X0126682Y0198085D01*
X0126682Y0192272D01*
X0129831Y0192272D02*
X0129831Y0197835D01*
X0131007Y0199010D01*
X0131007Y0203710D01*
X0149207Y0221710D01*
X0185007Y0221710D01*
X0195507Y0232410D01*
X0221507Y0232310D01*
X0223707Y0234410D01*
X0223707Y0271431D01*
X0217826Y0277312D01*
X0213926Y0277312D01*
X0213926Y0277491D01*
X0211007Y0282410D02*
X0209007Y0280610D01*
X0209007Y0272393D01*
X0203926Y0267312D01*
X0203926Y0267291D01*
X0206212Y0281248D02*
X0206807Y0281248D01*
X0208203Y0282847D02*
X0180855Y0282847D01*
X0182453Y0284445D02*
X0200570Y0284445D01*
X0199526Y0286044D02*
X0184052Y0286044D01*
X0185650Y0287642D02*
X0199526Y0287642D01*
X0199632Y0289241D02*
X0187249Y0289241D01*
X0188847Y0290839D02*
X0201231Y0290839D01*
X0200979Y0294036D02*
X0192044Y0294036D01*
X0190446Y0292438D02*
X0205943Y0292438D01*
X0206873Y0294036D02*
X0207542Y0294036D01*
X0208326Y0295635D02*
X0209526Y0295635D01*
X0209526Y0297233D02*
X0208326Y0297233D01*
X0208326Y0298832D02*
X0209526Y0298832D01*
X0209338Y0300430D02*
X0210822Y0300430D01*
X0210937Y0302029D02*
X0230307Y0302029D01*
X0230307Y0303627D02*
X0216464Y0303627D01*
X0218063Y0305226D02*
X0230307Y0305226D01*
X0230307Y0306824D02*
X0218326Y0306824D01*
X0218326Y0308423D02*
X0230307Y0308423D01*
X0230307Y0310021D02*
X0217439Y0310021D01*
X0215840Y0311620D02*
X0230307Y0311620D01*
X0230307Y0313218D02*
X0216055Y0313218D01*
X0215749Y0312912D02*
X0218326Y0315489D01*
X0218326Y0319134D01*
X0215749Y0321712D01*
X0212103Y0321712D01*
X0209526Y0319134D01*
X0209526Y0315489D01*
X0212103Y0312912D01*
X0215749Y0312912D01*
X0217654Y0314817D02*
X0230307Y0314817D01*
X0230307Y0316415D02*
X0218326Y0316415D01*
X0218326Y0318014D02*
X0230307Y0318014D01*
X0230307Y0319613D02*
X0217848Y0319613D01*
X0216249Y0321211D02*
X0230307Y0321211D01*
X0230307Y0322810D02*
X0189919Y0322810D01*
X0188321Y0324408D02*
X0200607Y0324408D01*
X0199526Y0325489D02*
X0202103Y0322912D01*
X0205749Y0322912D01*
X0208326Y0325489D01*
X0208326Y0329134D01*
X0205749Y0331712D01*
X0202103Y0331712D01*
X0199526Y0329134D01*
X0199526Y0325489D01*
X0199526Y0326007D02*
X0186722Y0326007D01*
X0185124Y0327605D02*
X0199526Y0327605D01*
X0199595Y0329204D02*
X0183525Y0329204D01*
X0181927Y0330802D02*
X0201194Y0330802D01*
X0202103Y0332912D02*
X0205749Y0332912D01*
X0208326Y0335489D01*
X0208326Y0339134D01*
X0205749Y0341712D01*
X0202103Y0341712D01*
X0199526Y0339134D01*
X0199526Y0335489D01*
X0202103Y0332912D01*
X0201016Y0333999D02*
X0178729Y0333999D01*
X0177131Y0335598D02*
X0199526Y0335598D01*
X0199526Y0337196D02*
X0175532Y0337196D01*
X0173934Y0338795D02*
X0199526Y0338795D01*
X0200785Y0340393D02*
X0172335Y0340393D01*
X0170737Y0341992D02*
X0230307Y0341992D01*
X0230307Y0343590D02*
X0216427Y0343590D01*
X0215749Y0342912D02*
X0218326Y0345489D01*
X0218326Y0349134D01*
X0215749Y0351712D01*
X0212103Y0351712D01*
X0209526Y0349134D01*
X0209526Y0345489D01*
X0212103Y0342912D01*
X0215749Y0342912D01*
X0215749Y0341712D02*
X0212103Y0341712D01*
X0209526Y0339134D01*
X0209526Y0335489D01*
X0212103Y0332912D01*
X0215749Y0332912D01*
X0218326Y0335489D01*
X0218326Y0339134D01*
X0215749Y0341712D01*
X0217067Y0340393D02*
X0230307Y0340393D01*
X0230307Y0338795D02*
X0218326Y0338795D01*
X0218326Y0337196D02*
X0230307Y0337196D01*
X0230307Y0335598D02*
X0218326Y0335598D01*
X0216836Y0333999D02*
X0230307Y0333999D01*
X0230307Y0332401D02*
X0180328Y0332401D01*
X0172198Y0324408D02*
X0114583Y0324408D01*
X0114583Y0322810D02*
X0173495Y0322810D01*
X0173495Y0321211D02*
X0171883Y0321211D01*
X0172556Y0319613D02*
X0173495Y0319613D01*
X0173495Y0318014D02*
X0172556Y0318014D01*
X0171876Y0310021D02*
X0173495Y0310021D01*
X0173495Y0308423D02*
X0172556Y0308423D01*
X0166007Y0300310D02*
X0165607Y0298210D01*
X0170807Y0290510D02*
X0158907Y0290510D01*
X0149607Y0299810D01*
X0149607Y0305698D01*
X0151307Y0305712D01*
X0146358Y0305226D02*
X0144056Y0305226D01*
X0144056Y0306824D02*
X0146358Y0306824D01*
X0146358Y0308423D02*
X0144056Y0308423D01*
X0144056Y0309110D02*
X0144056Y0302082D01*
X0143236Y0301262D01*
X0141307Y0301262D01*
X0141307Y0289707D01*
X0143208Y0287426D01*
X0143792Y0288010D01*
X0147023Y0288010D01*
X0148722Y0286310D01*
X0178096Y0286310D01*
X0196396Y0304610D01*
X0200405Y0304610D01*
X0199903Y0305112D01*
X0188520Y0305112D01*
X0173007Y0289599D01*
X0171718Y0288310D01*
X0157996Y0288310D01*
X0148696Y0297610D01*
X0147407Y0298899D01*
X0147407Y0301162D01*
X0147178Y0301162D01*
X0146358Y0301982D01*
X0146358Y0309110D01*
X0144056Y0309110D01*
X0144056Y0303627D02*
X0146358Y0303627D01*
X0146358Y0302029D02*
X0144003Y0302029D01*
X0141307Y0300430D02*
X0147407Y0300430D01*
X0147474Y0298832D02*
X0141307Y0298832D01*
X0141307Y0297233D02*
X0149073Y0297233D01*
X0150671Y0295635D02*
X0141307Y0295635D01*
X0141307Y0294036D02*
X0152270Y0294036D01*
X0153868Y0292438D02*
X0141307Y0292438D01*
X0141307Y0290839D02*
X0155467Y0290839D01*
X0157065Y0289241D02*
X0141695Y0289241D01*
X0143027Y0287642D02*
X0143424Y0287642D01*
X0147390Y0287642D02*
X0179428Y0287642D01*
X0181026Y0289241D02*
X0172649Y0289241D01*
X0170807Y0290510D02*
X0187609Y0307312D01*
X0203926Y0307312D01*
X0208510Y0313218D02*
X0211797Y0313218D01*
X0212012Y0311620D02*
X0210109Y0311620D01*
X0210198Y0314817D02*
X0207654Y0314817D01*
X0208326Y0316415D02*
X0209526Y0316415D01*
X0209526Y0318014D02*
X0208326Y0318014D01*
X0207848Y0319613D02*
X0210004Y0319613D01*
X0211603Y0321211D02*
X0206249Y0321211D01*
X0207245Y0324408D02*
X0210607Y0324408D01*
X0209526Y0325489D02*
X0212103Y0322912D01*
X0215749Y0322912D01*
X0218326Y0325489D01*
X0218326Y0329134D01*
X0215749Y0331712D01*
X0212103Y0331712D01*
X0209526Y0329134D01*
X0209526Y0325489D01*
X0209526Y0326007D02*
X0208326Y0326007D01*
X0208326Y0327605D02*
X0209526Y0327605D01*
X0209595Y0329204D02*
X0208257Y0329204D01*
X0206658Y0330802D02*
X0211194Y0330802D01*
X0211016Y0333999D02*
X0206836Y0333999D01*
X0208326Y0335598D02*
X0209526Y0335598D01*
X0209526Y0337196D02*
X0208326Y0337196D01*
X0208326Y0338795D02*
X0209526Y0338795D01*
X0210785Y0340393D02*
X0207067Y0340393D01*
X0205749Y0342912D02*
X0208326Y0345489D01*
X0208326Y0349134D01*
X0205749Y0351712D01*
X0202103Y0351712D01*
X0199526Y0349134D01*
X0199526Y0345489D01*
X0202103Y0342912D01*
X0205749Y0342912D01*
X0206427Y0343590D02*
X0211425Y0343590D01*
X0209827Y0345189D02*
X0208025Y0345189D01*
X0208326Y0346787D02*
X0209526Y0346787D01*
X0209526Y0348386D02*
X0208326Y0348386D01*
X0207476Y0349984D02*
X0210376Y0349984D01*
X0211974Y0351583D02*
X0205878Y0351583D01*
X0205749Y0352912D02*
X0208326Y0355489D01*
X0208326Y0359134D01*
X0205749Y0361712D01*
X0202103Y0361712D01*
X0199526Y0359134D01*
X0199526Y0355489D01*
X0202103Y0352912D01*
X0205749Y0352912D01*
X0206018Y0353181D02*
X0211834Y0353181D01*
X0212103Y0352912D02*
X0215749Y0352912D01*
X0218326Y0355489D01*
X0218326Y0359134D01*
X0215749Y0361712D01*
X0212103Y0361712D01*
X0209526Y0359134D01*
X0209526Y0355489D01*
X0212103Y0352912D01*
X0210236Y0354780D02*
X0207616Y0354780D01*
X0208326Y0356378D02*
X0209526Y0356378D01*
X0209526Y0357977D02*
X0208326Y0357977D01*
X0207885Y0359575D02*
X0209967Y0359575D01*
X0211565Y0361174D02*
X0206287Y0361174D01*
X0207208Y0364371D02*
X0210644Y0364371D01*
X0209526Y0365969D02*
X0208326Y0365969D01*
X0208326Y0367568D02*
X0209526Y0367568D01*
X0209558Y0369166D02*
X0208294Y0369166D01*
X0208326Y0375560D02*
X0209526Y0375560D01*
X0209526Y0377159D02*
X0208326Y0377159D01*
X0208326Y0378757D02*
X0209526Y0378757D01*
X0210748Y0380356D02*
X0207104Y0380356D01*
X0206390Y0383553D02*
X0211462Y0383553D01*
X0209864Y0385151D02*
X0207988Y0385151D01*
X0208326Y0386750D02*
X0209526Y0386750D01*
X0209526Y0388348D02*
X0208326Y0388348D01*
X0207513Y0389947D02*
X0210339Y0389947D01*
X0211937Y0391546D02*
X0205915Y0391546D01*
X0203926Y0387312D02*
X0198007Y0381393D01*
X0198007Y0372810D01*
X0198707Y0372110D01*
X0217207Y0372110D01*
X0232507Y0365310D01*
X0232507Y0149410D01*
X0216607Y0142210D01*
X0199107Y0142210D01*
X0189307Y0132410D01*
X0151107Y0132410D01*
X0145707Y0137810D01*
X0145507Y0141310D01*
X0145580Y0141983D01*
X0145580Y0147548D01*
X0148729Y0147548D02*
X0148729Y0152732D01*
X0156607Y0160610D01*
X0184907Y0160610D01*
X0193007Y0152510D01*
X0216907Y0152510D01*
X0229607Y0158910D01*
X0229607Y0283710D01*
X0221007Y0292310D01*
X0208928Y0292310D01*
X0203926Y0287312D01*
X0207282Y0284445D02*
X0209931Y0284445D01*
X0209526Y0286044D02*
X0208326Y0286044D01*
X0208326Y0287642D02*
X0209526Y0287642D01*
X0209632Y0289241D02*
X0208968Y0289241D01*
X0211007Y0282410D02*
X0221707Y0282410D01*
X0226607Y0277510D01*
X0226607Y0224610D01*
X0223207Y0222310D01*
X0200707Y0222210D01*
X0196407Y0217610D01*
X0149907Y0217610D01*
X0133907Y0201910D01*
X0133907Y0197710D01*
X0132907Y0196710D01*
X0132907Y0192346D01*
X0132981Y0192272D01*
X0135807Y0191696D02*
X0135807Y0184510D01*
X0138807Y0181510D01*
X0140807Y0187310D02*
X0146207Y0182210D01*
X0146607Y0182210D01*
X0147307Y0181510D01*
X0140807Y0187310D02*
X0140807Y0187410D01*
X0139280Y0188937D01*
X0139280Y0192272D01*
X0136131Y0192272D02*
X0135807Y0191696D01*
X0142430Y0192272D02*
X0142430Y0205933D01*
X0149907Y0213410D01*
X0194007Y0213410D01*
X0194007Y0212510D01*
X0185448Y0225300D02*
X0110428Y0225300D01*
X0112027Y0223702D02*
X0148087Y0223702D01*
X0146476Y0222103D02*
X0113625Y0222103D01*
X0115224Y0220505D02*
X0144860Y0220505D01*
X0143243Y0218906D02*
X0116822Y0218906D01*
X0118421Y0217308D02*
X0141627Y0217308D01*
X0140011Y0215709D02*
X0120019Y0215709D01*
X0121618Y0214111D02*
X0138395Y0214111D01*
X0136778Y0212512D02*
X0125620Y0212512D01*
X0127219Y0210914D02*
X0135162Y0210914D01*
X0133546Y0209315D02*
X0127707Y0209315D01*
X0127897Y0207717D02*
X0131929Y0207717D01*
X0130313Y0206118D02*
X0129426Y0206118D01*
X0126007Y0203327D02*
X0124493Y0204910D01*
X0122192Y0204910D01*
X0120623Y0206479D01*
X0120699Y0201436D01*
X0122197Y0198383D01*
X0122583Y0197997D01*
X0122583Y0197596D01*
X0122759Y0197236D01*
X0122718Y0197117D01*
X0123248Y0197222D01*
X0123532Y0197222D01*
X0123532Y0192273D01*
X0123532Y0192273D01*
X0123532Y0197222D01*
X0123816Y0197222D01*
X0124373Y0197111D01*
X0124482Y0197066D01*
X0124482Y0198017D01*
X0124430Y0198859D01*
X0124482Y0198918D01*
X0124482Y0198996D01*
X0125078Y0199593D01*
X0126007Y0200643D01*
X0126007Y0203327D01*
X0126007Y0202921D02*
X0120677Y0202921D01*
X0120653Y0204520D02*
X0124867Y0204520D01*
X0123307Y0201910D02*
X0123532Y0200885D01*
X0123532Y0192272D01*
X0123532Y0193330D02*
X0123532Y0193330D01*
X0123532Y0194929D02*
X0123532Y0194929D01*
X0123532Y0196527D02*
X0123532Y0196527D01*
X0124475Y0198126D02*
X0122454Y0198126D01*
X0121539Y0199724D02*
X0125195Y0199724D01*
X0126007Y0201323D02*
X0120755Y0201323D01*
X0118507Y0200910D02*
X0118407Y0207510D01*
X0118407Y0208810D01*
X0113407Y0213810D01*
X0088407Y0213910D01*
X0073507Y0198510D01*
X0073507Y0175110D01*
X0055407Y0157010D01*
X0040054Y0157010D01*
X0039753Y0157312D01*
X0043526Y0159761D02*
X0055047Y0159761D01*
X0056645Y0161360D02*
X0041927Y0161360D01*
X0041622Y0162958D02*
X0058244Y0162958D01*
X0059842Y0164557D02*
X0043220Y0164557D01*
X0044153Y0166155D02*
X0061441Y0166155D01*
X0063040Y0167754D02*
X0044153Y0167754D01*
X0043935Y0169352D02*
X0064638Y0169352D01*
X0066237Y0170951D02*
X0042336Y0170951D01*
X0042811Y0174148D02*
X0069434Y0174148D01*
X0071032Y0175746D02*
X0044153Y0175746D01*
X0044153Y0177345D02*
X0071307Y0177345D01*
X0071307Y0178944D02*
X0044153Y0178944D01*
X0042745Y0180542D02*
X0071307Y0180542D01*
X0071307Y0182141D02*
X0005408Y0182141D01*
X0005407Y0183739D02*
X0027103Y0183739D01*
X0025504Y0185338D02*
X0005405Y0185338D01*
X0005404Y0186936D02*
X0025353Y0186936D01*
X0025353Y0188535D02*
X0005402Y0188535D01*
X0005401Y0190133D02*
X0026352Y0190133D01*
X0027512Y0193330D02*
X0005398Y0193330D01*
X0005399Y0191732D02*
X0071307Y0191732D01*
X0071307Y0193330D02*
X0041994Y0193330D01*
X0043592Y0194929D02*
X0071307Y0194929D01*
X0071307Y0196527D02*
X0044153Y0196527D01*
X0044153Y0198126D02*
X0071307Y0198126D01*
X0071610Y0199724D02*
X0043563Y0199724D01*
X0041964Y0201323D02*
X0073167Y0201323D01*
X0074714Y0202921D02*
X0041585Y0202921D01*
X0043183Y0204520D02*
X0076260Y0204520D01*
X0077807Y0206118D02*
X0044153Y0206118D01*
X0044153Y0207717D02*
X0079353Y0207717D01*
X0080900Y0209315D02*
X0043972Y0209315D01*
X0042373Y0210914D02*
X0082447Y0210914D01*
X0083993Y0212512D02*
X0005380Y0212512D01*
X0005382Y0210914D02*
X0027132Y0210914D01*
X0025534Y0209315D02*
X0005383Y0209315D01*
X0005385Y0207717D02*
X0025353Y0207717D01*
X0025353Y0206118D02*
X0005386Y0206118D01*
X0005388Y0204520D02*
X0026322Y0204520D01*
X0027921Y0202921D02*
X0005389Y0202921D01*
X0005391Y0201323D02*
X0027541Y0201323D01*
X0025943Y0199724D02*
X0005392Y0199724D01*
X0005394Y0198126D02*
X0025353Y0198126D01*
X0025353Y0196527D02*
X0005395Y0196527D01*
X0005397Y0194929D02*
X0025913Y0194929D01*
X0026760Y0180542D02*
X0005410Y0180542D01*
X0005411Y0178944D02*
X0025353Y0178944D01*
X0025353Y0177345D02*
X0005413Y0177345D01*
X0005414Y0175746D02*
X0025353Y0175746D01*
X0026694Y0174148D02*
X0005416Y0174148D01*
X0005417Y0172549D02*
X0067835Y0172549D01*
X0076307Y0172310D02*
X0056607Y0152510D01*
X0035051Y0152510D01*
X0029753Y0147312D01*
X0025876Y0154966D02*
X0005433Y0154966D01*
X0005432Y0156564D02*
X0025353Y0156564D01*
X0025353Y0158163D02*
X0005431Y0158163D01*
X0005429Y0159761D02*
X0025980Y0159761D01*
X0027578Y0161360D02*
X0005428Y0161360D01*
X0005426Y0162958D02*
X0027884Y0162958D01*
X0026285Y0164557D02*
X0005425Y0164557D01*
X0005423Y0166155D02*
X0025353Y0166155D01*
X0025353Y0167754D02*
X0005422Y0167754D01*
X0005420Y0169352D02*
X0025571Y0169352D01*
X0027169Y0170951D02*
X0005419Y0170951D01*
X0005379Y0214111D02*
X0026731Y0214111D01*
X0025353Y0215709D02*
X0005377Y0215709D01*
X0005376Y0217308D02*
X0025353Y0217308D01*
X0025353Y0218906D02*
X0005374Y0218906D01*
X0005373Y0220505D02*
X0026723Y0220505D01*
X0027140Y0223702D02*
X0005370Y0223702D01*
X0005368Y0225300D02*
X0025542Y0225300D01*
X0025353Y0226899D02*
X0005367Y0226899D01*
X0005365Y0228497D02*
X0025353Y0228497D01*
X0026314Y0230096D02*
X0005364Y0230096D01*
X0005363Y0231694D02*
X0027913Y0231694D01*
X0027549Y0233293D02*
X0005361Y0233293D01*
X0005360Y0234891D02*
X0025951Y0234891D01*
X0025353Y0236490D02*
X0005358Y0236490D01*
X0005357Y0238088D02*
X0025353Y0238088D01*
X0025905Y0239687D02*
X0005355Y0239687D01*
X0005354Y0241285D02*
X0027504Y0241285D01*
X0026360Y0244482D02*
X0005351Y0244482D01*
X0005352Y0242884D02*
X0086622Y0242884D01*
X0085024Y0244482D02*
X0043146Y0244482D01*
X0044153Y0246081D02*
X0083425Y0246081D01*
X0081827Y0247679D02*
X0044153Y0247679D01*
X0044009Y0249278D02*
X0080228Y0249278D01*
X0078630Y0250877D02*
X0042411Y0250877D01*
X0042737Y0254074D02*
X0075433Y0254074D01*
X0077031Y0252475D02*
X0005343Y0252475D01*
X0005345Y0250877D02*
X0027095Y0250877D01*
X0025496Y0249278D02*
X0005346Y0249278D01*
X0005348Y0247679D02*
X0025353Y0247679D01*
X0025353Y0246081D02*
X0005349Y0246081D01*
X0005342Y0254074D02*
X0026768Y0254074D01*
X0025353Y0255672D02*
X0005340Y0255672D01*
X0005339Y0257271D02*
X0025353Y0257271D01*
X0025353Y0258869D02*
X0005337Y0258869D01*
X0005336Y0260468D02*
X0026686Y0260468D01*
X0027177Y0263665D02*
X0005333Y0263665D01*
X0005331Y0265263D02*
X0025579Y0265263D01*
X0025353Y0266862D02*
X0005330Y0266862D01*
X0005328Y0268460D02*
X0025353Y0268460D01*
X0026277Y0270059D02*
X0005327Y0270059D01*
X0005326Y0271657D02*
X0027876Y0271657D01*
X0027586Y0273256D02*
X0005324Y0273256D01*
X0005323Y0274854D02*
X0025988Y0274854D01*
X0025353Y0276453D02*
X0005321Y0276453D01*
X0005320Y0278051D02*
X0025353Y0278051D01*
X0025868Y0279650D02*
X0005318Y0279650D01*
X0005317Y0281248D02*
X0027467Y0281248D01*
X0026397Y0284445D02*
X0005314Y0284445D01*
X0005315Y0282847D02*
X0050207Y0282847D01*
X0050207Y0284445D02*
X0043109Y0284445D01*
X0044153Y0286044D02*
X0050207Y0286044D01*
X0050207Y0287642D02*
X0044153Y0287642D01*
X0044046Y0289241D02*
X0050207Y0289241D01*
X0050207Y0290839D02*
X0042448Y0290839D01*
X0042700Y0294036D02*
X0050207Y0294036D01*
X0050207Y0292438D02*
X0005306Y0292438D01*
X0005305Y0294036D02*
X0026806Y0294036D01*
X0025353Y0295635D02*
X0005303Y0295635D01*
X0005302Y0297233D02*
X0025353Y0297233D01*
X0025353Y0298832D02*
X0005300Y0298832D01*
X0005299Y0300430D02*
X0026649Y0300430D01*
X0027215Y0303627D02*
X0005296Y0303627D01*
X0005297Y0302029D02*
X0050207Y0302029D01*
X0050207Y0303627D02*
X0042291Y0303627D01*
X0043889Y0305226D02*
X0050207Y0305226D01*
X0050207Y0306824D02*
X0044153Y0306824D01*
X0044153Y0308423D02*
X0050207Y0308423D01*
X0050207Y0310021D02*
X0043266Y0310021D01*
X0041667Y0311620D02*
X0050190Y0311620D01*
X0050253Y0313218D02*
X0041882Y0313218D01*
X0043480Y0314817D02*
X0050317Y0314817D01*
X0050319Y0316415D02*
X0044153Y0316415D01*
X0044153Y0318014D02*
X0050319Y0318014D01*
X0050319Y0319613D02*
X0043675Y0319613D01*
X0042076Y0321211D02*
X0050311Y0321211D01*
X0051279Y0322810D02*
X0005278Y0322810D01*
X0005277Y0324408D02*
X0026434Y0324408D01*
X0025353Y0326007D02*
X0005275Y0326007D01*
X0005274Y0327605D02*
X0025353Y0327605D01*
X0025422Y0329204D02*
X0005272Y0329204D01*
X0005271Y0330802D02*
X0027020Y0330802D01*
X0026843Y0333999D02*
X0005268Y0333999D01*
X0005269Y0332401D02*
X0060513Y0332401D01*
X0058884Y0330802D02*
X0042485Y0330802D01*
X0044084Y0329204D02*
X0057371Y0329204D01*
X0055848Y0327605D02*
X0044153Y0327605D01*
X0044153Y0326007D02*
X0054325Y0326007D01*
X0052802Y0324408D02*
X0043072Y0324408D01*
X0042663Y0333999D02*
X0062143Y0333999D01*
X0063772Y0335598D02*
X0044153Y0335598D01*
X0044153Y0337196D02*
X0065401Y0337196D01*
X0067030Y0338795D02*
X0044153Y0338795D01*
X0042894Y0340393D02*
X0068659Y0340393D01*
X0073107Y0330710D02*
X0062695Y0320298D01*
X0062609Y0312710D01*
X0062907Y0312498D01*
X0062907Y0296110D01*
X0106807Y0252210D01*
X0209707Y0252210D01*
X0213926Y0256429D01*
X0213926Y0257312D01*
X0200124Y0234891D02*
X0100837Y0234891D01*
X0102436Y0233293D02*
X0193291Y0233293D01*
X0191722Y0231694D02*
X0104034Y0231694D01*
X0105633Y0230096D02*
X0190154Y0230096D01*
X0188585Y0228497D02*
X0107231Y0228497D01*
X0108830Y0226899D02*
X0187016Y0226899D01*
X0194039Y0241285D02*
X0094443Y0241285D01*
X0096042Y0239687D02*
X0200079Y0239687D01*
X0199526Y0238088D02*
X0097640Y0238088D01*
X0099239Y0236490D02*
X0199526Y0236490D01*
X0192218Y0242884D02*
X0092845Y0242884D01*
X0091246Y0244482D02*
X0105924Y0244482D01*
X0104155Y0246081D02*
X0089648Y0246081D01*
X0088049Y0247679D02*
X0102305Y0247679D01*
X0100455Y0249278D02*
X0086451Y0249278D01*
X0084852Y0250877D02*
X0098606Y0250877D01*
X0096756Y0252475D02*
X0083254Y0252475D01*
X0081655Y0254074D02*
X0094906Y0254074D01*
X0093056Y0255672D02*
X0080057Y0255672D01*
X0078458Y0257271D02*
X0091207Y0257271D01*
X0089357Y0258869D02*
X0076860Y0258869D01*
X0075261Y0260468D02*
X0087507Y0260468D01*
X0085657Y0262066D02*
X0073662Y0262066D01*
X0072064Y0263665D02*
X0083808Y0263665D01*
X0081958Y0265263D02*
X0070465Y0265263D01*
X0068867Y0266862D02*
X0080108Y0266862D01*
X0078258Y0268460D02*
X0067268Y0268460D01*
X0065670Y0270059D02*
X0076408Y0270059D01*
X0070637Y0258869D02*
X0044153Y0258869D01*
X0044153Y0257271D02*
X0072235Y0257271D01*
X0073834Y0255672D02*
X0044153Y0255672D01*
X0042820Y0260468D02*
X0069038Y0260468D01*
X0067440Y0262066D02*
X0005334Y0262066D01*
X0005312Y0286044D02*
X0025353Y0286044D01*
X0025353Y0287642D02*
X0005311Y0287642D01*
X0005309Y0289241D02*
X0025459Y0289241D01*
X0027058Y0290839D02*
X0005308Y0290839D01*
X0005294Y0305226D02*
X0025616Y0305226D01*
X0025353Y0306824D02*
X0005293Y0306824D01*
X0005292Y0308423D02*
X0025353Y0308423D01*
X0026240Y0310021D02*
X0005290Y0310021D01*
X0005289Y0311620D02*
X0027838Y0311620D01*
X0027624Y0313218D02*
X0005287Y0313218D01*
X0005286Y0314817D02*
X0026025Y0314817D01*
X0025353Y0316415D02*
X0005284Y0316415D01*
X0005283Y0318014D02*
X0025353Y0318014D01*
X0025831Y0319613D02*
X0005281Y0319613D01*
X0005280Y0321211D02*
X0027429Y0321211D01*
X0025353Y0335598D02*
X0005266Y0335598D01*
X0005265Y0337196D02*
X0025353Y0337196D01*
X0025353Y0338795D02*
X0005263Y0338795D01*
X0005262Y0340393D02*
X0026612Y0340393D01*
X0043034Y0364371D02*
X0093095Y0364371D01*
X0094724Y0365969D02*
X0044153Y0365969D01*
X0044153Y0367568D02*
X0095707Y0367568D01*
X0095707Y0369166D02*
X0044121Y0369166D01*
X0042522Y0370765D02*
X0095707Y0370765D01*
X0103007Y0365710D02*
X0056107Y0318710D01*
X0056107Y0290510D01*
X0050207Y0295635D02*
X0044153Y0295635D01*
X0044153Y0297233D02*
X0050207Y0297233D01*
X0050207Y0298832D02*
X0044153Y0298832D01*
X0042857Y0300430D02*
X0050207Y0300430D01*
X0050207Y0281248D02*
X0042039Y0281248D01*
X0043637Y0279650D02*
X0050207Y0279650D01*
X0051455Y0278051D02*
X0044153Y0278051D01*
X0044153Y0276453D02*
X0053053Y0276453D01*
X0054652Y0274854D02*
X0043518Y0274854D01*
X0041919Y0273256D02*
X0056250Y0273256D01*
X0057849Y0271657D02*
X0041630Y0271657D01*
X0043228Y0270059D02*
X0059447Y0270059D01*
X0061046Y0268460D02*
X0044153Y0268460D01*
X0044153Y0266862D02*
X0062644Y0266862D01*
X0064243Y0265263D02*
X0043927Y0265263D01*
X0042328Y0263665D02*
X0065841Y0263665D01*
X0088221Y0241285D02*
X0042002Y0241285D01*
X0043600Y0239687D02*
X0089819Y0239687D01*
X0091418Y0238088D02*
X0044153Y0238088D01*
X0044153Y0236490D02*
X0093016Y0236490D01*
X0094615Y0234891D02*
X0043555Y0234891D01*
X0041956Y0233293D02*
X0096213Y0233293D01*
X0097812Y0231694D02*
X0041593Y0231694D01*
X0043191Y0230096D02*
X0099410Y0230096D01*
X0101009Y0228497D02*
X0044153Y0228497D01*
X0044153Y0226899D02*
X0102607Y0226899D01*
X0104206Y0225300D02*
X0043964Y0225300D01*
X0042365Y0223702D02*
X0105804Y0223702D01*
X0107403Y0222103D02*
X0005371Y0222103D01*
X0042782Y0220505D02*
X0109001Y0220505D01*
X0110600Y0218906D02*
X0044153Y0218906D01*
X0044153Y0217308D02*
X0112198Y0217308D01*
X0111507Y0210410D02*
X0090007Y0210410D01*
X0089907Y0210510D01*
X0076807Y0197210D01*
X0076807Y0197110D01*
X0076307Y0196610D01*
X0076307Y0172310D01*
X0071307Y0183739D02*
X0042403Y0183739D01*
X0044001Y0185338D02*
X0071307Y0185338D01*
X0071307Y0186936D02*
X0044153Y0186936D01*
X0044153Y0188535D02*
X0071307Y0188535D01*
X0071307Y0190133D02*
X0043154Y0190133D01*
X0042774Y0214111D02*
X0085540Y0214111D01*
X0087087Y0215709D02*
X0044153Y0215709D01*
X0086707Y0164710D02*
X0122307Y0164610D01*
X0129831Y0157086D01*
X0129831Y0147548D01*
X0132031Y0151909D02*
X0132031Y0157997D01*
X0130743Y0159286D01*
X0124718Y0165310D01*
X0181482Y0165310D01*
X0184865Y0162810D01*
X0183996Y0162810D01*
X0155696Y0162810D01*
X0154407Y0161522D01*
X0146529Y0153644D01*
X0146529Y0151909D01*
X0146073Y0152098D01*
X0145086Y0152098D01*
X0144173Y0151720D01*
X0144005Y0151551D01*
X0143836Y0151720D01*
X0142924Y0152098D01*
X0141936Y0152098D01*
X0141024Y0151720D01*
X0140855Y0151551D01*
X0140687Y0151720D01*
X0139774Y0152098D01*
X0138786Y0152098D01*
X0137874Y0151720D01*
X0137706Y0151551D01*
X0137537Y0151720D01*
X0136625Y0152098D01*
X0135637Y0152098D01*
X0134724Y0151720D01*
X0134556Y0151551D01*
X0134387Y0151720D01*
X0133475Y0152098D01*
X0132487Y0152098D01*
X0132031Y0151909D01*
X0132031Y0153367D02*
X0146529Y0153367D01*
X0147851Y0154966D02*
X0132031Y0154966D01*
X0132031Y0156564D02*
X0149450Y0156564D01*
X0151048Y0158163D02*
X0131866Y0158163D01*
X0130267Y0159761D02*
X0152647Y0159761D01*
X0154245Y0161360D02*
X0128669Y0161360D01*
X0127070Y0162958D02*
X0184664Y0162958D01*
X0182502Y0164557D02*
X0125472Y0164557D01*
X0125207Y0154910D02*
X0123807Y0151810D01*
X0123707Y0147723D01*
X0123532Y0147548D01*
X0123532Y0141735D01*
X0120507Y0138710D01*
X0120507Y0136910D01*
X0099907Y0116310D01*
X0101485Y0137488D02*
X0101485Y0147548D01*
X0092036Y0147548D02*
X0092036Y0145539D01*
X0080207Y0133710D01*
X0080207Y0120710D01*
X0075007Y0115510D01*
X0075007Y0097310D01*
X0084107Y0088210D01*
X0176007Y0088210D01*
X0180107Y0092310D01*
X0180107Y0103110D01*
X0180207Y0103210D01*
X0177285Y0100616D02*
X0175916Y0100616D01*
X0176307Y0102215D02*
X0159190Y0102215D01*
X0160550Y0100616D02*
X0170098Y0100616D01*
X0169107Y0099018D02*
X0161050Y0099018D01*
X0160952Y0097419D02*
X0169107Y0097419D01*
X0167707Y0095821D02*
X0160162Y0095821D01*
X0157743Y0094222D02*
X0166108Y0094222D01*
X0166507Y0091510D02*
X0173007Y0098010D01*
X0176333Y0095821D02*
X0177907Y0095821D01*
X0177907Y0097419D02*
X0176907Y0097419D01*
X0176907Y0099018D02*
X0177907Y0099018D01*
X0177907Y0094222D02*
X0174735Y0094222D01*
X0177309Y0092624D02*
X0170732Y0092624D01*
X0169133Y0091025D02*
X0175711Y0091025D01*
X0178736Y0087828D02*
X0238517Y0087828D01*
X0238519Y0086230D02*
X0177138Y0086230D01*
X0180335Y0089427D02*
X0238516Y0089427D01*
X0238514Y0091025D02*
X0181934Y0091025D01*
X0182307Y0092624D02*
X0211826Y0092624D01*
X0210227Y0094222D02*
X0207059Y0094222D01*
X0208326Y0095821D02*
X0209126Y0095821D01*
X0200793Y0094222D02*
X0182307Y0094222D01*
X0182307Y0095821D02*
X0199526Y0095821D01*
X0199526Y0097419D02*
X0182307Y0097419D01*
X0182307Y0099018D02*
X0199526Y0099018D01*
X0201008Y0100616D02*
X0183129Y0100616D01*
X0176893Y0105412D02*
X0160316Y0105412D01*
X0161203Y0107010D02*
X0178492Y0107010D01*
X0176307Y0103813D02*
X0157541Y0103813D01*
X0161153Y0110208D02*
X0200599Y0110208D01*
X0188396Y0134610D02*
X0152018Y0134610D01*
X0150718Y0135910D01*
X0152123Y0135910D01*
X0153707Y0137495D01*
X0153707Y0137095D01*
X0155992Y0134810D01*
X0159223Y0134810D01*
X0161507Y0137095D01*
X0161507Y0140326D01*
X0159223Y0142610D01*
X0157228Y0142610D01*
X0157228Y0143187D01*
X0157684Y0142998D01*
X0158672Y0142998D01*
X0159584Y0143376D01*
X0160283Y0144075D01*
X0160661Y0144987D01*
X0160661Y0150109D01*
X0160378Y0150791D01*
X0160378Y0152466D01*
X0162207Y0154295D01*
X0162207Y0157526D01*
X0161322Y0158410D01*
X0183996Y0158410D01*
X0190807Y0151599D01*
X0192096Y0150310D01*
X0200702Y0150310D01*
X0199526Y0149134D01*
X0199526Y0145489D01*
X0200605Y0144410D01*
X0198196Y0144410D01*
X0196907Y0143122D01*
X0188396Y0134610D01*
X0189569Y0135784D02*
X0160196Y0135784D01*
X0161507Y0137382D02*
X0191168Y0137382D01*
X0192766Y0138981D02*
X0161507Y0138981D01*
X0161253Y0140579D02*
X0194365Y0140579D01*
X0195963Y0142178D02*
X0159655Y0142178D01*
X0159984Y0143776D02*
X0197562Y0143776D01*
X0199640Y0145375D02*
X0160661Y0145375D01*
X0160661Y0146973D02*
X0199526Y0146973D01*
X0199526Y0148572D02*
X0160661Y0148572D01*
X0160635Y0150170D02*
X0200562Y0150170D01*
X0203924Y0157310D02*
X0196007Y0157310D01*
X0182207Y0167510D01*
X0101807Y0167510D01*
X0092207Y0180010D01*
X0092107Y0180510D01*
X0092036Y0180481D01*
X0092036Y0192272D01*
X0095107Y0192194D02*
X0095186Y0192272D01*
X0095107Y0192194D02*
X0095107Y0182110D01*
X0103707Y0170710D01*
X0183207Y0170510D01*
X0197007Y0162110D01*
X0208807Y0162110D01*
X0213926Y0167229D01*
X0213926Y0167312D01*
X0208907Y0172310D02*
X0197507Y0172310D01*
X0187507Y0176910D01*
X0107307Y0176910D01*
X0101407Y0184410D01*
X0101407Y0192194D01*
X0101485Y0192272D01*
X0104635Y0192272D02*
X0104635Y0187983D01*
X0104707Y0185110D01*
X0108107Y0181710D01*
X0120107Y0181710D01*
X0122407Y0186810D02*
X0125007Y0185810D01*
X0122407Y0186810D02*
X0109207Y0186810D01*
X0107784Y0188233D01*
X0107784Y0192272D01*
X0117207Y0196910D02*
X0115607Y0200010D01*
X0115607Y0206310D01*
X0111507Y0210410D01*
X0118507Y0200910D02*
X0120383Y0197086D01*
X0120383Y0192272D01*
X0117233Y0192272D02*
X0117233Y0195336D01*
X0117207Y0196910D01*
X0120628Y0206118D02*
X0120984Y0206118D01*
X0098335Y0183482D02*
X0105707Y0173710D01*
X0185528Y0173710D01*
X0196707Y0167510D01*
X0196906Y0167312D01*
X0203926Y0167312D01*
X0208907Y0172310D02*
X0209007Y0172710D01*
X0213706Y0177312D01*
X0213926Y0177312D01*
X0203926Y0157312D02*
X0203924Y0157310D01*
X0190637Y0151769D02*
X0160378Y0151769D01*
X0161280Y0153367D02*
X0189039Y0153367D01*
X0187440Y0154966D02*
X0162207Y0154966D01*
X0162207Y0156564D02*
X0185842Y0156564D01*
X0184243Y0158163D02*
X0161570Y0158163D01*
X0158307Y0155910D02*
X0158178Y0155939D01*
X0158178Y0147548D01*
X0155028Y0147548D02*
X0155028Y0141031D01*
X0157607Y0138710D01*
X0155018Y0135784D02*
X0150845Y0135784D01*
X0153594Y0137382D02*
X0153707Y0137382D01*
X0150507Y0139810D02*
X0151879Y0141382D01*
X0151879Y0147548D01*
X0144292Y0151769D02*
X0143718Y0151769D01*
X0141142Y0151769D02*
X0140568Y0151769D01*
X0137993Y0151769D02*
X0137418Y0151769D01*
X0134843Y0151769D02*
X0134269Y0151769D01*
X0155607Y0185810D02*
X0160407Y0185810D01*
X0164707Y0190110D01*
X0164707Y0190210D01*
X0167307Y0192810D01*
X0162207Y0198610D02*
X0158178Y0194581D01*
X0158178Y0192272D01*
X0155028Y0192272D02*
X0155028Y0186389D01*
X0155607Y0185810D01*
X0151879Y0192272D02*
X0151879Y0196282D01*
X0155007Y0199410D01*
X0155007Y0201410D01*
X0156707Y0202810D01*
X0151707Y0200110D02*
X0151707Y0207210D01*
X0153607Y0209110D01*
X0154407Y0209110D01*
X0157607Y0209210D01*
X0151707Y0200110D02*
X0148729Y0197132D01*
X0148729Y0192272D01*
X0145580Y0192272D02*
X0145580Y0200683D01*
X0147107Y0202510D01*
X0111034Y0257271D02*
X0104858Y0257271D01*
X0103260Y0258869D02*
X0109439Y0258869D01*
X0106457Y0255672D02*
X0190433Y0255672D01*
X0201640Y0281248D02*
X0148060Y0281248D01*
X0158010Y0313218D02*
X0162658Y0313218D01*
X0162658Y0319613D02*
X0156256Y0319613D01*
X0155683Y0321211D02*
X0163331Y0321211D01*
X0167402Y0329204D02*
X0114583Y0329204D01*
X0114583Y0330802D02*
X0165804Y0330802D01*
X0169001Y0327605D02*
X0114583Y0327605D01*
X0114583Y0326007D02*
X0170599Y0326007D01*
X0169138Y0343590D02*
X0201425Y0343590D01*
X0199827Y0345189D02*
X0167540Y0345189D01*
X0165941Y0346787D02*
X0199526Y0346787D01*
X0199526Y0348386D02*
X0164343Y0348386D01*
X0162744Y0349984D02*
X0200376Y0349984D01*
X0201974Y0351583D02*
X0161146Y0351583D01*
X0159547Y0353181D02*
X0201834Y0353181D01*
X0200236Y0354780D02*
X0157949Y0354780D01*
X0147507Y0356378D02*
X0199526Y0356378D01*
X0199526Y0357977D02*
X0147507Y0357977D01*
X0147507Y0359575D02*
X0199967Y0359575D01*
X0201565Y0361174D02*
X0147507Y0361174D01*
X0147507Y0362772D02*
X0230307Y0362772D01*
X0230307Y0361174D02*
X0216287Y0361174D01*
X0217885Y0359575D02*
X0230307Y0359575D01*
X0230307Y0357977D02*
X0218326Y0357977D01*
X0218326Y0356378D02*
X0230307Y0356378D01*
X0230307Y0354780D02*
X0217616Y0354780D01*
X0216018Y0353181D02*
X0230307Y0353181D01*
X0230307Y0351583D02*
X0215878Y0351583D01*
X0217476Y0349984D02*
X0230307Y0349984D01*
X0230307Y0348386D02*
X0218326Y0348386D01*
X0218326Y0346787D02*
X0230307Y0346787D01*
X0230307Y0345189D02*
X0218025Y0345189D01*
X0216658Y0330802D02*
X0230307Y0330802D01*
X0230307Y0329204D02*
X0218257Y0329204D01*
X0218326Y0327605D02*
X0230307Y0327605D01*
X0230307Y0326007D02*
X0218326Y0326007D01*
X0217245Y0324408D02*
X0230307Y0324408D01*
X0230307Y0300430D02*
X0217030Y0300430D01*
X0218326Y0298832D02*
X0230307Y0298832D01*
X0230307Y0297233D02*
X0218326Y0297233D01*
X0218326Y0295635D02*
X0230307Y0295635D01*
X0230307Y0294036D02*
X0222392Y0294036D01*
X0223991Y0292438D02*
X0230307Y0292438D01*
X0230307Y0290839D02*
X0225589Y0290839D01*
X0227188Y0289241D02*
X0230307Y0289241D01*
X0230307Y0287642D02*
X0228786Y0287642D01*
X0211388Y0303627D02*
X0211207Y0303627D01*
X0200198Y0314817D02*
X0197912Y0314817D01*
X0196313Y0316415D02*
X0199526Y0316415D01*
X0199526Y0318014D02*
X0194715Y0318014D01*
X0193116Y0319613D02*
X0200004Y0319613D01*
X0201603Y0321211D02*
X0191518Y0321211D01*
X0195413Y0303627D02*
X0187036Y0303627D01*
X0185437Y0302029D02*
X0193814Y0302029D01*
X0192216Y0300430D02*
X0183838Y0300430D01*
X0182240Y0298832D02*
X0190617Y0298832D01*
X0189019Y0297233D02*
X0180641Y0297233D01*
X0179043Y0295635D02*
X0187420Y0295635D01*
X0185822Y0294036D02*
X0177444Y0294036D01*
X0175846Y0292438D02*
X0184223Y0292438D01*
X0182625Y0290839D02*
X0174247Y0290839D01*
X0193643Y0295635D02*
X0199526Y0295635D01*
X0199526Y0297233D02*
X0195241Y0297233D01*
X0196840Y0298832D02*
X0199526Y0298832D01*
X0200644Y0364371D02*
X0147507Y0364371D01*
X0147507Y0365969D02*
X0199526Y0365969D01*
X0199526Y0367568D02*
X0147507Y0367568D01*
X0147507Y0369166D02*
X0199558Y0369166D01*
X0196941Y0370765D02*
X0147507Y0370765D01*
X0147507Y0372363D02*
X0195807Y0372363D01*
X0195807Y0373962D02*
X0147507Y0373962D01*
X0147507Y0375560D02*
X0195807Y0375560D01*
X0195807Y0377159D02*
X0147507Y0377159D01*
X0147507Y0378757D02*
X0195807Y0378757D01*
X0195807Y0380356D02*
X0147507Y0380356D01*
X0147507Y0381954D02*
X0195807Y0381954D01*
X0197056Y0383553D02*
X0147833Y0383553D01*
X0148088Y0385151D02*
X0198654Y0385151D01*
X0199526Y0386750D02*
X0148088Y0386750D01*
X0148088Y0388795D02*
X0144110Y0388795D01*
X0144110Y0393757D01*
X0146525Y0393757D01*
X0146983Y0393635D01*
X0147393Y0393398D01*
X0147729Y0393063D01*
X0147966Y0392652D01*
X0148088Y0392194D01*
X0148088Y0388795D01*
X0148088Y0389947D02*
X0200339Y0389947D01*
X0199526Y0388348D02*
X0144110Y0388348D01*
X0142954Y0388795D02*
X0142954Y0393757D01*
X0140539Y0393757D01*
X0140082Y0393635D01*
X0139671Y0393398D01*
X0139336Y0393063D01*
X0139099Y0392652D01*
X0138976Y0392194D01*
X0138976Y0388795D01*
X0142954Y0388795D01*
X0142954Y0389947D02*
X0144110Y0389947D01*
X0144110Y0391546D02*
X0142954Y0391546D01*
X0142954Y0393144D02*
X0144110Y0393144D01*
X0147647Y0393144D02*
X0238235Y0393144D01*
X0238236Y0391546D02*
X0215915Y0391546D01*
X0217513Y0389947D02*
X0238238Y0389947D01*
X0238239Y0388348D02*
X0218326Y0388348D01*
X0219503Y0386750D02*
X0238241Y0386750D01*
X0238242Y0385151D02*
X0222403Y0385151D01*
X0225303Y0383553D02*
X0238244Y0383553D01*
X0238245Y0381954D02*
X0228203Y0381954D01*
X0231103Y0380356D02*
X0238247Y0380356D01*
X0238248Y0378757D02*
X0234003Y0378757D01*
X0237190Y0377159D02*
X0238249Y0377159D01*
X0236207Y0375031D02*
X0236207Y0142210D01*
X0238520Y0084631D02*
X0005499Y0084631D01*
X0005500Y0083033D02*
X0238522Y0083033D01*
X0238523Y0081434D02*
X0005502Y0081434D01*
X0005503Y0079836D02*
X0238525Y0079836D01*
X0166507Y0091510D02*
X0086007Y0091510D01*
X0078007Y0099510D01*
X0080189Y0138981D02*
X0082366Y0138981D01*
X0081787Y0140579D02*
X0083965Y0140579D01*
X0083386Y0142178D02*
X0085563Y0142178D01*
X0084984Y0143776D02*
X0087162Y0143776D01*
X0086583Y0145375D02*
X0088760Y0145375D01*
X0088181Y0146973D02*
X0089554Y0146973D01*
X0086707Y0164710D02*
X0060707Y0138710D01*
X0051907Y0138610D01*
X0049407Y0136110D01*
X0049407Y0126210D01*
X0040509Y0117312D01*
X0039753Y0117312D01*
X0049107Y0104599D02*
X0049107Y0097822D01*
X0045596Y0094310D01*
X0043539Y0094310D01*
X0044553Y0095324D01*
X0044553Y0097112D01*
X0039953Y0097112D01*
X0039953Y0097512D01*
X0044553Y0097512D01*
X0044553Y0099300D01*
X0043749Y0100104D01*
X0044367Y0100090D01*
X0044389Y0100110D01*
X0044418Y0100110D01*
X0045045Y0100737D01*
X0048789Y0104310D01*
X0048818Y0104310D01*
X0049107Y0104599D01*
X0049107Y0103813D02*
X0048268Y0103813D01*
X0049107Y0102215D02*
X0046593Y0102215D01*
X0044925Y0100616D02*
X0049107Y0100616D01*
X0049107Y0099018D02*
X0044553Y0099018D01*
X0044553Y0095821D02*
X0047106Y0095821D01*
X0048705Y0097419D02*
X0039953Y0097419D01*
X0039753Y0097312D02*
X0029753Y0097312D01*
X0029953Y0097419D02*
X0039553Y0097419D01*
X0039553Y0097512D02*
X0039553Y0097112D01*
X0034953Y0097112D01*
X0034953Y0095324D01*
X0035966Y0094310D01*
X0033539Y0094310D01*
X0034553Y0095324D01*
X0034553Y0097112D01*
X0029953Y0097112D01*
X0029953Y0097512D01*
X0034553Y0097512D01*
X0034553Y0099300D01*
X0033743Y0100110D01*
X0035763Y0100110D01*
X0034953Y0099300D01*
X0034953Y0097512D01*
X0039553Y0097512D01*
X0034953Y0099018D02*
X0034553Y0099018D01*
X0034553Y0095821D02*
X0034953Y0095821D01*
X0029553Y0097112D02*
X0024953Y0097112D01*
X0024953Y0096676D01*
X0022707Y0098922D01*
X0022707Y0103745D01*
X0025871Y0100735D01*
X0026129Y0100477D01*
X0024953Y0099300D01*
X0024953Y0097512D01*
X0029553Y0097512D01*
X0029553Y0097112D01*
X0029553Y0097419D02*
X0024209Y0097419D01*
X0024953Y0099018D02*
X0022707Y0099018D01*
X0022707Y0100616D02*
X0025990Y0100616D01*
X0024315Y0102215D02*
X0022707Y0102215D01*
X0024235Y0078237D02*
X0005504Y0078237D01*
X0098335Y0183482D02*
X0098335Y0192272D01*
X0144850Y0095821D02*
X0147139Y0095821D01*
X0144850Y0094222D02*
X0149558Y0094222D01*
X0068207Y0303310D02*
X0068307Y0319010D01*
X0114005Y0364708D01*
X0114005Y0375225D01*
X0109807Y0376667D02*
X0109674Y0376800D01*
X0109807Y0376667D02*
X0109807Y0366510D01*
X0073107Y0330710D01*
X0079319Y0321211D02*
X0083331Y0321211D01*
X0083058Y0319613D02*
X0077721Y0319613D01*
X0092683Y0321211D02*
X0095331Y0321211D01*
X0094958Y0319613D02*
X0092956Y0319613D01*
X0116483Y0321211D02*
X0122731Y0321211D01*
X0122158Y0319613D02*
X0116956Y0319613D01*
X0116956Y0318014D02*
X0121014Y0318014D01*
X0119428Y0316415D02*
X0116956Y0316415D01*
X0116956Y0314817D02*
X0117842Y0314817D01*
X0132056Y0319613D02*
X0134158Y0319613D01*
X0134631Y0321211D02*
X0131483Y0321211D01*
X0143583Y0321211D02*
X0146931Y0321211D01*
X0146358Y0319613D02*
X0144056Y0319613D01*
X0126907Y0368810D02*
X0126997Y0368900D01*
X0118335Y0376800D02*
X0118335Y0380182D01*
X0116007Y0382510D01*
X0105807Y0382510D01*
X0103007Y0379710D01*
X0103007Y0365710D01*
X0092142Y0386750D02*
X0090986Y0386750D01*
X0090986Y0388348D02*
X0092142Y0388348D01*
X0092142Y0389947D02*
X0090986Y0389947D01*
X0090986Y0391546D02*
X0041742Y0391546D01*
X0026165Y0389947D02*
X0005216Y0389947D01*
X0005218Y0388348D02*
X0025353Y0388348D01*
X0025353Y0386750D02*
X0005219Y0386750D01*
X0005221Y0385151D02*
X0025691Y0385151D01*
X0027289Y0383553D02*
X0005222Y0383553D01*
X0092142Y0391546D02*
X0138976Y0391546D01*
X0138976Y0389947D02*
X0096120Y0389947D01*
X0096120Y0393144D02*
X0139417Y0393144D01*
X0138976Y0386750D02*
X0123279Y0386750D01*
X0124877Y0385151D02*
X0138976Y0385151D01*
X0134139Y0383553D02*
X0125007Y0383553D01*
X0125397Y0381954D02*
X0128254Y0381954D01*
X0148088Y0391546D02*
X0201937Y0391546D01*
X0201680Y0381954D02*
X0219088Y0381954D01*
X0217104Y0380356D02*
X0221988Y0380356D01*
X0224888Y0378757D02*
X0218326Y0378757D01*
X0218326Y0377159D02*
X0227788Y0377159D01*
X0230689Y0375560D02*
X0218326Y0375560D01*
X0218467Y0373962D02*
X0233589Y0373962D01*
X0234007Y0372363D02*
X0222054Y0372363D01*
X0225651Y0370765D02*
X0234007Y0370765D01*
X0234007Y0369166D02*
X0229248Y0369166D01*
X0232844Y0367568D02*
X0234007Y0367568D01*
X0236207Y0375031D02*
X0213926Y0387312D01*
X0218294Y0369166D02*
X0218414Y0369166D01*
X0218326Y0367568D02*
X0222011Y0367568D01*
X0225607Y0365969D02*
X0218326Y0365969D01*
X0217208Y0364371D02*
X0229204Y0364371D01*
X0238233Y0394743D02*
X0096120Y0394743D01*
X0095913Y0396341D02*
X0238232Y0396341D01*
X0200748Y0380356D02*
X0200207Y0380356D01*
D21*
X0223375Y0343335D03*
X0182154Y0272351D03*
X0171091Y0261328D03*
X0180146Y0236918D03*
X0194007Y0212510D03*
X0167307Y0192810D03*
X0162207Y0198610D03*
X0156707Y0202810D03*
X0157607Y0209210D03*
X0147107Y0202510D03*
X0147307Y0181510D03*
X0138807Y0181510D03*
X0125007Y0185810D03*
X0120107Y0181710D03*
X0123307Y0201910D03*
X0123807Y0208810D03*
X0136682Y0157548D03*
X0125207Y0154910D03*
X0126607Y0137810D03*
X0104707Y0133410D03*
X0099407Y0128010D03*
X0094307Y0133810D03*
X0089007Y0129110D03*
X0150507Y0139810D03*
X0157607Y0138710D03*
X0158307Y0155910D03*
X0173454Y0148729D03*
X0180207Y0103210D03*
X0173007Y0098010D03*
X0148707Y0265310D03*
X0145407Y0284110D03*
X0150540Y0290461D03*
X0165607Y0298210D03*
X0126907Y0368810D03*
X0113407Y0344210D03*
X0114398Y0287706D03*
M02*
