%
M48
M72
T01C0.01969
T02C0.04000
%
T01
X29039Y88210
X53439Y97510
X60539Y107310
X62039Y116810
X68639Y97910
X69239Y91810
X69339Y85610
X69239Y79710
X63639Y22410
X112139Y59110
X111639Y71110
X125539Y77310
X141539Y30610
X141239Y22310
X130739Y25610
X168339Y22010
X170239Y120010
X152539Y192710
X163139Y273210
X151239Y295110
X143739Y300910
X166039Y315610
X105039Y319110
X69439Y356910
T02
X26839Y40410
X26839Y50410
X36839Y50410
X36839Y40410
X46839Y40410
X46839Y50410
X56839Y50410
X56839Y40410
X66839Y40410
X66839Y50410
X76839Y50410
X76839Y40410
X86839Y40410
X86839Y50410
X96839Y50410
X96839Y40410
X106839Y40410
X106839Y50410
X116839Y50410
X116839Y40410
X126839Y40410
X126839Y50410
X136839Y50410
X136839Y40410
X146839Y40410
X146839Y50410
X156839Y50410
X156839Y40410
X166839Y40410
X166839Y50410
X176839Y50410
X176839Y40410
X186839Y40410
X186839Y50410
X196839Y50410
X196839Y40410
X206839Y40410
X206839Y50410
X216839Y50410
X216839Y40410
X211957Y97312
X211957Y107312
X211957Y117312
X211957Y127312
X211957Y137312
X211957Y147312
X211957Y157312
X211957Y167312
X211957Y177312
X211957Y187312
X211957Y197312
X211957Y207312
X211957Y217312
X211957Y227312
X211957Y237312
X211957Y247312
X211957Y257312
X211957Y267312
X211957Y277312
X211957Y287312
X211957Y297312
X211957Y307312
X211957Y317312
X211957Y327312
X211957Y337312
X211957Y347312
X211957Y357312
X211957Y367312
X211957Y377312
X211957Y387312
X201957Y387312
X201957Y377312
X201957Y367312
X201957Y357312
X201957Y347312
X201957Y337312
X201957Y327312
X201957Y317312
X201957Y307312
X201957Y297312
X201957Y287312
X201957Y277312
X201957Y267312
X201957Y257312
X201957Y247312
X201957Y237312
X201957Y227312
X201957Y217312
X201957Y207312
X201957Y197312
X201957Y187312
X201957Y177312
X201957Y167312
X201957Y157312
X201957Y147312
X201957Y137312
X201957Y127312
X201957Y117312
X201957Y107312
X201957Y97312
X151682Y98532
X151682Y108532
X91721Y108532
X91721Y98532
X37784Y97312
X37784Y107312
X37784Y117312
X37784Y127312
X37784Y137312
X37784Y147312
X37784Y157312
X37784Y167312
X37784Y177312
X37784Y187312
X37784Y197312
X37784Y207312
X37784Y217312
X37784Y227312
X37784Y237312
X37784Y247312
X37784Y257312
X37784Y267312
X37784Y277312
X37784Y287312
X37784Y297312
X37784Y307312
X37784Y317312
X37784Y327312
X37784Y337312
X37784Y347312
X37784Y357312
X37784Y367312
X37784Y377312
X37784Y387312
X27784Y387312
X27784Y377312
X27784Y367312
X27784Y357312
X27784Y347312
X27784Y337312
X27784Y327312
X27784Y317312
X27784Y307312
X27784Y297312
X27784Y287312
X27784Y277312
X27784Y267312
X27784Y257312
X27784Y247312
X27784Y237312
X27784Y227312
X27784Y217312
X27784Y207312
X27784Y197312
X27784Y187312
X27784Y177312
X27784Y167312
X27784Y157312
X27784Y147312
X27784Y137312
X27784Y127312
X27784Y117312
X27784Y107312
X27784Y97312
X78139Y369910
X78139Y379910
X88139Y379910
X88139Y369910
X98139Y369910
X98139Y379910
X108139Y379910
X108139Y369910
X118139Y369910
X118139Y379910
X128139Y379910
X128139Y369910
X138139Y369910
X138139Y379910
X148139Y379910
X148139Y369910
X158139Y369910
X158139Y379910
X168139Y379910
X168139Y369910
M30
