G75*
%MOIN*%
%OFA0B0*%
%FSLAX25Y25*%
%IPPOS*%
%LPD*%
%AMOC8*
5,1,8,0,0,1.08239X$1,22.5*
%
%ADD10C,0.00000*%
%ADD11R,0.07087X0.06299*%
%ADD12C,0.06000*%
%ADD13OC8,0.06000*%
%ADD14R,0.06299X0.07098*%
%ADD15R,0.03937X0.05512*%
%ADD16C,0.01200*%
%ADD17OC8,0.05000*%
D10*
X0001739Y0002810D02*
X0001739Y0395311D01*
X0238660Y0395811D01*
X0238660Y0003310D01*
X0001739Y0002810D01*
D11*
X0111564Y0097430D03*
X0120064Y0097430D03*
X0120064Y0108454D03*
X0111564Y0108454D03*
D12*
X0094721Y0108532D02*
X0088721Y0108532D01*
X0088721Y0098532D02*
X0094721Y0098532D01*
X0148682Y0098532D02*
X0154682Y0098532D01*
X0154682Y0108532D02*
X0148682Y0108532D01*
D13*
X0146839Y0050410D03*
X0146839Y0040410D03*
X0136839Y0040410D03*
X0136839Y0050410D03*
X0126839Y0050410D03*
X0126839Y0040410D03*
X0116839Y0040410D03*
X0116839Y0050410D03*
X0106839Y0050410D03*
X0106839Y0040410D03*
X0096839Y0040410D03*
X0096839Y0050410D03*
X0086839Y0050410D03*
X0086839Y0040410D03*
X0076839Y0040410D03*
X0076839Y0050410D03*
X0066839Y0050410D03*
X0066839Y0040410D03*
X0056839Y0040410D03*
X0056839Y0050410D03*
X0046839Y0050410D03*
X0046839Y0040410D03*
X0036839Y0040410D03*
X0036839Y0050410D03*
X0026839Y0050410D03*
X0026839Y0040410D03*
X0027784Y0097312D03*
X0027784Y0107312D03*
X0027784Y0117312D03*
X0027784Y0127312D03*
X0027784Y0137312D03*
X0027784Y0147312D03*
X0027784Y0157312D03*
X0027784Y0167312D03*
X0027784Y0177312D03*
X0027784Y0187312D03*
X0027784Y0197312D03*
X0027784Y0207312D03*
X0027784Y0217312D03*
X0027784Y0227312D03*
X0027784Y0237312D03*
X0027784Y0247312D03*
X0027784Y0257312D03*
X0027784Y0267312D03*
X0027784Y0277312D03*
X0027784Y0287312D03*
X0027784Y0297312D03*
X0027784Y0307312D03*
X0027784Y0317312D03*
X0027784Y0327312D03*
X0027784Y0337312D03*
X0027784Y0347312D03*
X0027784Y0357312D03*
X0027784Y0367312D03*
X0027784Y0377312D03*
X0027784Y0387312D03*
X0037784Y0387312D03*
X0037784Y0377312D03*
X0037784Y0367312D03*
X0037784Y0357312D03*
X0037784Y0347312D03*
X0037784Y0337312D03*
X0037784Y0327312D03*
X0037784Y0317312D03*
X0037784Y0307312D03*
X0037784Y0297312D03*
X0037784Y0287312D03*
X0037784Y0277312D03*
X0037784Y0267312D03*
X0037784Y0257312D03*
X0037784Y0247312D03*
X0037784Y0237312D03*
X0037784Y0227312D03*
X0037784Y0217312D03*
X0037784Y0207312D03*
X0037784Y0197312D03*
X0037784Y0187312D03*
X0037784Y0177312D03*
X0037784Y0167312D03*
X0037784Y0157312D03*
X0037784Y0147312D03*
X0037784Y0137312D03*
X0037784Y0127312D03*
X0037784Y0117312D03*
X0037784Y0107312D03*
X0037784Y0097312D03*
X0156839Y0050410D03*
X0156839Y0040410D03*
X0166839Y0040410D03*
X0166839Y0050410D03*
X0176839Y0050410D03*
X0176839Y0040410D03*
X0186839Y0040410D03*
X0186839Y0050410D03*
X0196839Y0050410D03*
X0196839Y0040410D03*
X0206839Y0040410D03*
X0206839Y0050410D03*
X0216839Y0050410D03*
X0216839Y0040410D03*
X0211957Y0097312D03*
X0211957Y0107312D03*
X0211957Y0117312D03*
X0211957Y0127312D03*
X0211957Y0137312D03*
X0211957Y0147312D03*
X0211957Y0157312D03*
X0211957Y0167312D03*
X0211957Y0177312D03*
X0211957Y0187312D03*
X0211957Y0197312D03*
X0211957Y0207312D03*
X0211957Y0217312D03*
X0211957Y0227312D03*
X0211957Y0237312D03*
X0211957Y0247312D03*
X0211957Y0257312D03*
X0211957Y0267312D03*
X0211957Y0277312D03*
X0211957Y0287312D03*
X0211957Y0297312D03*
X0211957Y0307312D03*
X0211957Y0317312D03*
X0211957Y0327312D03*
X0211957Y0337312D03*
X0211957Y0347312D03*
X0211957Y0357312D03*
X0211957Y0367312D03*
X0211957Y0377312D03*
X0211957Y0387312D03*
X0201957Y0387312D03*
X0201957Y0377312D03*
X0201957Y0367312D03*
X0201957Y0357312D03*
X0201957Y0347312D03*
X0201957Y0337312D03*
X0201957Y0327312D03*
X0201957Y0317312D03*
X0201957Y0307312D03*
X0201957Y0297312D03*
X0201957Y0287312D03*
X0201957Y0277312D03*
X0201957Y0267312D03*
X0201957Y0257312D03*
X0201957Y0247312D03*
X0201957Y0237312D03*
X0201957Y0227312D03*
X0201957Y0217312D03*
X0201957Y0207312D03*
X0201957Y0197312D03*
X0201957Y0187312D03*
X0201957Y0177312D03*
X0201957Y0167312D03*
X0201957Y0157312D03*
X0201957Y0147312D03*
X0201957Y0137312D03*
X0201957Y0127312D03*
X0201957Y0117312D03*
X0201957Y0107312D03*
X0201957Y0097312D03*
X0168139Y0369910D03*
X0168139Y0379910D03*
X0158139Y0379910D03*
X0158139Y0369910D03*
X0148139Y0369910D03*
X0148139Y0379910D03*
X0138139Y0379910D03*
X0138139Y0369910D03*
X0128139Y0369910D03*
X0128139Y0379910D03*
X0118139Y0379910D03*
X0118139Y0369910D03*
X0108139Y0369910D03*
X0108139Y0379910D03*
X0098139Y0379910D03*
X0098139Y0369910D03*
X0088139Y0369910D03*
X0088139Y0379910D03*
X0078139Y0379910D03*
X0078139Y0369910D03*
D14*
X0039637Y0027510D03*
X0028440Y0027510D03*
D15*
X0049198Y0030841D03*
X0052939Y0022180D03*
X0056679Y0030841D03*
D16*
X0056879Y0031041D01*
X0057008Y0031041D01*
X0057008Y0029041D01*
X0063639Y0022410D01*
X0066768Y0025079D02*
X0070596Y0025079D01*
X0069398Y0023880D02*
X0067739Y0023880D01*
X0067739Y0024109D02*
X0065337Y0026510D01*
X0062650Y0026510D01*
X0060247Y0028913D01*
X0060247Y0034260D01*
X0059310Y0035197D01*
X0055139Y0035197D01*
X0055139Y0035810D01*
X0058744Y0035810D01*
X0061439Y0038505D01*
X0061439Y0042316D01*
X0058744Y0045010D01*
X0054933Y0045010D01*
X0054239Y0044316D01*
X0054239Y0044922D01*
X0052839Y0046322D01*
X0051550Y0047610D01*
X0050544Y0047610D01*
X0051439Y0048505D01*
X0051439Y0052316D01*
X0048744Y0055010D01*
X0044933Y0055010D01*
X0044239Y0054316D01*
X0044239Y0057199D01*
X0057050Y0070010D01*
X0082950Y0070010D01*
X0088250Y0075310D01*
X0089539Y0076599D01*
X0089539Y0093238D01*
X0090233Y0093932D01*
X0095636Y0093932D01*
X0097327Y0094633D01*
X0098621Y0095927D01*
X0098789Y0096332D01*
X0106420Y0096332D01*
X0106420Y0093618D01*
X0107358Y0092680D01*
X0115770Y0092680D01*
X0115814Y0092724D01*
X0115858Y0092680D01*
X0124270Y0092680D01*
X0125207Y0093618D01*
X0125207Y0095230D01*
X0145479Y0095230D01*
X0146076Y0094633D01*
X0147767Y0093932D01*
X0155597Y0093932D01*
X0157288Y0094633D01*
X0158582Y0095927D01*
X0158658Y0096110D01*
X0162050Y0096110D01*
X0163339Y0097399D01*
X0167839Y0101899D01*
X0167839Y0109922D01*
X0166550Y0111210D01*
X0157650Y0120110D01*
X0120350Y0120110D01*
X0117039Y0123422D01*
X0117039Y0127845D01*
X0118197Y0128910D01*
X0180050Y0128910D01*
X0191150Y0140010D01*
X0198151Y0140010D01*
X0197357Y0139217D01*
X0197357Y0135406D01*
X0198354Y0134410D01*
X0196227Y0134410D01*
X0188827Y0127010D01*
X0187539Y0125722D01*
X0187539Y0115822D01*
X0131227Y0059510D01*
X0129939Y0058222D01*
X0129939Y0053816D01*
X0128744Y0055010D01*
X0124933Y0055010D01*
X0122239Y0052316D01*
X0122239Y0048505D01*
X0124933Y0045810D01*
X0128744Y0045810D01*
X0129939Y0047005D01*
X0129939Y0043816D01*
X0128744Y0045010D01*
X0125350Y0045010D01*
X0122950Y0047410D01*
X0120344Y0047410D01*
X0121439Y0048505D01*
X0121439Y0052316D01*
X0118744Y0055010D01*
X0114933Y0055010D01*
X0114139Y0054216D01*
X0114139Y0055312D01*
X0116239Y0057412D01*
X0116239Y0060809D01*
X0113837Y0063210D01*
X0113050Y0063210D01*
X0123445Y0073605D01*
X0123840Y0073210D01*
X0127237Y0073210D01*
X0129639Y0075612D01*
X0129639Y0079009D01*
X0127237Y0081410D01*
X0123840Y0081410D01*
X0121439Y0079009D01*
X0121439Y0077822D01*
X0115739Y0072121D01*
X0115739Y0072809D01*
X0113337Y0075210D01*
X0109940Y0075210D01*
X0108040Y0073310D01*
X0098427Y0073310D01*
X0080827Y0055710D01*
X0079539Y0054422D01*
X0079539Y0054216D01*
X0078744Y0055010D01*
X0074933Y0055010D01*
X0072239Y0052316D01*
X0072239Y0048505D01*
X0073133Y0047610D01*
X0070927Y0047610D01*
X0068327Y0045010D01*
X0064933Y0045010D01*
X0062239Y0042316D01*
X0062239Y0038505D01*
X0064933Y0035810D01*
X0068744Y0035810D01*
X0071439Y0038505D01*
X0071439Y0041899D01*
X0072750Y0043210D01*
X0073133Y0043210D01*
X0072239Y0042316D01*
X0072239Y0038505D01*
X0074933Y0035810D01*
X0078744Y0035810D01*
X0081439Y0038505D01*
X0081439Y0040894D01*
X0082239Y0041442D01*
X0082239Y0038505D01*
X0084933Y0035810D01*
X0088744Y0035810D01*
X0091439Y0038505D01*
X0091439Y0042316D01*
X0090587Y0043167D01*
X0093074Y0043151D01*
X0092239Y0042316D01*
X0092239Y0038505D01*
X0094933Y0035810D01*
X0098744Y0035810D01*
X0099739Y0036805D01*
X0099739Y0036522D01*
X0098227Y0035010D01*
X0080527Y0035010D01*
X0067739Y0022221D01*
X0067739Y0024109D01*
X0067739Y0022682D02*
X0068199Y0022682D01*
X0065570Y0026277D02*
X0071795Y0026277D01*
X0072993Y0027476D02*
X0061684Y0027476D01*
X0060486Y0028675D02*
X0074192Y0028675D01*
X0075390Y0029873D02*
X0060247Y0029873D01*
X0060247Y0031072D02*
X0076589Y0031072D01*
X0077787Y0032270D02*
X0060247Y0032270D01*
X0060247Y0033469D02*
X0078986Y0033469D01*
X0080184Y0034667D02*
X0059840Y0034667D01*
X0058799Y0035866D02*
X0064878Y0035866D01*
X0063679Y0037064D02*
X0059998Y0037064D01*
X0061196Y0038263D02*
X0062481Y0038263D01*
X0062239Y0039461D02*
X0061439Y0039461D01*
X0061439Y0040660D02*
X0062239Y0040660D01*
X0062239Y0041858D02*
X0061439Y0041858D01*
X0060698Y0043057D02*
X0062980Y0043057D01*
X0064178Y0044255D02*
X0059499Y0044255D01*
X0058744Y0045810D02*
X0061439Y0048505D01*
X0061439Y0052316D01*
X0058744Y0055010D01*
X0054933Y0055010D01*
X0052239Y0052316D01*
X0052239Y0048505D01*
X0054933Y0045810D01*
X0058744Y0045810D01*
X0059586Y0046652D02*
X0064091Y0046652D01*
X0064933Y0045810D02*
X0068744Y0045810D01*
X0071439Y0048505D01*
X0071439Y0052316D01*
X0068744Y0055010D01*
X0064933Y0055010D01*
X0062239Y0052316D01*
X0062239Y0048505D01*
X0064933Y0045810D01*
X0062893Y0047851D02*
X0060784Y0047851D01*
X0061439Y0049049D02*
X0062239Y0049049D01*
X0062239Y0050248D02*
X0061439Y0050248D01*
X0061439Y0051446D02*
X0062239Y0051446D01*
X0062568Y0052645D02*
X0061109Y0052645D01*
X0059911Y0053843D02*
X0063766Y0053843D01*
X0069586Y0046652D02*
X0069969Y0046652D01*
X0070784Y0047851D02*
X0072893Y0047851D01*
X0072239Y0049049D02*
X0071439Y0049049D01*
X0071439Y0050248D02*
X0072239Y0050248D01*
X0072239Y0051446D02*
X0071439Y0051446D01*
X0071109Y0052645D02*
X0072568Y0052645D01*
X0073766Y0053843D02*
X0069911Y0053843D01*
X0068771Y0045454D02*
X0053706Y0045454D01*
X0054091Y0046652D02*
X0052508Y0046652D01*
X0052893Y0047851D02*
X0050784Y0047851D01*
X0051439Y0049049D02*
X0052239Y0049049D01*
X0052239Y0050248D02*
X0051439Y0050248D01*
X0051439Y0051446D02*
X0052239Y0051446D01*
X0052568Y0052645D02*
X0051109Y0052645D01*
X0049911Y0053843D02*
X0053766Y0053843D01*
X0050639Y0045410D02*
X0043139Y0045410D01*
X0042039Y0046510D01*
X0042039Y0058110D01*
X0056139Y0072210D01*
X0082039Y0072210D01*
X0087339Y0077510D01*
X0087339Y0094150D01*
X0091721Y0098532D01*
X0110461Y0098532D01*
X0111564Y0097430D01*
X0120064Y0097430D01*
X0150580Y0097430D01*
X0151682Y0098532D01*
X0151904Y0098310D01*
X0161139Y0098310D01*
X0165639Y0102810D01*
X0165639Y0109010D01*
X0156739Y0117910D01*
X0119439Y0117910D01*
X0114839Y0122510D01*
X0114839Y0128810D01*
X0117339Y0131110D01*
X0179139Y0131110D01*
X0190239Y0142210D01*
X0220039Y0142210D01*
X0229239Y0151410D01*
X0229239Y0270010D01*
X0217239Y0282010D01*
X0144739Y0282010D01*
X0054839Y0192110D01*
X0025239Y0192110D01*
X0021839Y0195510D01*
X0021839Y0249810D01*
X0024139Y0252110D01*
X0040439Y0252110D01*
X0078939Y0290610D01*
X0078939Y0369110D01*
X0078139Y0369910D01*
X0081388Y0366655D02*
X0084889Y0366655D01*
X0083690Y0367853D02*
X0082587Y0367853D01*
X0082739Y0368005D02*
X0082739Y0371816D01*
X0082144Y0372410D01*
X0083750Y0372410D01*
X0086650Y0375310D01*
X0090044Y0375310D01*
X0092739Y0378005D01*
X0092739Y0381816D01*
X0091644Y0382910D01*
X0094633Y0382910D01*
X0093539Y0381816D01*
X0093539Y0378005D01*
X0096233Y0375310D01*
X0100044Y0375310D01*
X0101439Y0376705D01*
X0101439Y0373116D01*
X0100044Y0374510D01*
X0096233Y0374510D01*
X0093539Y0371816D01*
X0093539Y0368005D01*
X0096233Y0365310D01*
X0100044Y0365310D01*
X0101439Y0366705D01*
X0101439Y0364299D01*
X0103839Y0361899D01*
X0105127Y0360610D01*
X0111950Y0360610D01*
X0113239Y0361899D01*
X0116650Y0365310D01*
X0120044Y0365310D01*
X0122739Y0368005D01*
X0122739Y0371816D01*
X0122044Y0372510D01*
X0123850Y0372510D01*
X0126650Y0375310D01*
X0130044Y0375310D01*
X0132739Y0378005D01*
X0132739Y0381816D01*
X0130044Y0384510D01*
X0126233Y0384510D01*
X0123539Y0381816D01*
X0123539Y0378422D01*
X0122027Y0376910D01*
X0121644Y0376910D01*
X0122739Y0378005D01*
X0122739Y0381816D01*
X0120044Y0384510D01*
X0120039Y0384510D01*
X0120039Y0387622D01*
X0115250Y0392410D01*
X0071927Y0392410D01*
X0070639Y0391122D01*
X0059029Y0379512D01*
X0042090Y0379512D01*
X0039690Y0381912D01*
X0035879Y0381912D01*
X0033184Y0379217D01*
X0033184Y0375676D01*
X0032384Y0376476D01*
X0032384Y0379217D01*
X0029690Y0381912D01*
X0025879Y0381912D01*
X0023184Y0379217D01*
X0023184Y0375406D01*
X0025879Y0372712D01*
X0029690Y0372712D01*
X0029808Y0372830D01*
X0031739Y0370899D01*
X0033027Y0369610D01*
X0033577Y0369610D01*
X0033184Y0369217D01*
X0033184Y0366876D01*
X0032384Y0367676D01*
X0032384Y0369217D01*
X0029690Y0371912D01*
X0025879Y0371912D01*
X0023184Y0369217D01*
X0023184Y0365406D01*
X0025879Y0362712D01*
X0029690Y0362712D01*
X0030408Y0363430D01*
X0032639Y0361199D01*
X0033902Y0359935D01*
X0033184Y0359217D01*
X0033184Y0355406D01*
X0035879Y0352712D01*
X0039690Y0352712D01*
X0042384Y0355406D01*
X0042384Y0359217D01*
X0041691Y0359910D01*
X0060327Y0359910D01*
X0045027Y0344610D01*
X0041588Y0344610D01*
X0042384Y0345406D01*
X0042384Y0349217D01*
X0039690Y0351912D01*
X0035879Y0351912D01*
X0033184Y0349217D01*
X0033184Y0345406D01*
X0033980Y0344610D01*
X0031588Y0344610D01*
X0032384Y0345406D01*
X0032384Y0349217D01*
X0029690Y0351912D01*
X0025879Y0351912D01*
X0023184Y0349217D01*
X0023184Y0345406D01*
X0023980Y0344610D01*
X0019427Y0344610D01*
X0018139Y0343322D01*
X0014193Y0339375D01*
X0014230Y0343346D01*
X0024737Y0353853D01*
X0025879Y0352712D01*
X0029690Y0352712D01*
X0032384Y0355406D01*
X0032384Y0359217D01*
X0029690Y0361912D01*
X0025879Y0361912D01*
X0023184Y0359217D01*
X0023184Y0358523D01*
X0022884Y0358223D01*
X0010490Y0345829D01*
X0009847Y0345198D01*
X0009847Y0345186D01*
X0009839Y0345177D01*
X0009839Y0344276D01*
X0007447Y0090830D01*
X0007439Y0090822D01*
X0007439Y0089921D01*
X0007430Y0089020D01*
X0007439Y0089011D01*
X0007439Y0019499D01*
X0019039Y0007899D01*
X0020327Y0006610D01*
X0038327Y0006610D01*
X0039448Y0005490D01*
X0004339Y0005416D01*
X0004339Y0392717D01*
X0236060Y0393206D01*
X0236060Y0005905D01*
X0113786Y0005647D01*
X0122050Y0013910D01*
X0144150Y0013910D01*
X0157250Y0027010D01*
X0184827Y0027010D01*
X0182627Y0024810D01*
X0171337Y0024810D01*
X0170037Y0026110D01*
X0166640Y0026110D01*
X0164239Y0023709D01*
X0164239Y0020312D01*
X0166640Y0017910D01*
X0170037Y0017910D01*
X0172439Y0020312D01*
X0172439Y0020410D01*
X0184450Y0020410D01*
X0185739Y0021699D01*
X0190850Y0026810D01*
X0209150Y0026810D01*
X0210439Y0028099D01*
X0214439Y0032099D01*
X0214439Y0036305D01*
X0214933Y0035810D01*
X0218744Y0035810D01*
X0221439Y0038505D01*
X0221439Y0042316D01*
X0218744Y0045010D01*
X0214933Y0045010D01*
X0214439Y0044516D01*
X0214439Y0046305D01*
X0214933Y0045810D01*
X0218744Y0045810D01*
X0221439Y0048505D01*
X0221439Y0052316D01*
X0218744Y0055010D01*
X0214933Y0055010D01*
X0214439Y0054516D01*
X0214439Y0074099D01*
X0234739Y0094399D01*
X0234739Y0297122D01*
X0233450Y0298410D01*
X0222348Y0309512D01*
X0216263Y0309512D01*
X0213863Y0311912D01*
X0210052Y0311912D01*
X0207357Y0309217D01*
X0207357Y0305406D01*
X0210052Y0302712D01*
X0213863Y0302712D01*
X0216263Y0305112D01*
X0220526Y0305112D01*
X0230339Y0295299D01*
X0230339Y0272021D01*
X0219439Y0282922D01*
X0218150Y0284210D01*
X0215361Y0284210D01*
X0216557Y0285406D01*
X0216557Y0289217D01*
X0213863Y0291912D01*
X0210052Y0291912D01*
X0207357Y0289217D01*
X0207357Y0285406D01*
X0208554Y0284210D01*
X0205361Y0284210D01*
X0206557Y0285406D01*
X0206557Y0289217D01*
X0203863Y0291912D01*
X0200052Y0291912D01*
X0197357Y0289217D01*
X0197357Y0285406D01*
X0198554Y0284210D01*
X0143827Y0284210D01*
X0142539Y0282922D01*
X0142539Y0282921D01*
X0053927Y0194310D01*
X0041288Y0194310D01*
X0042384Y0195406D01*
X0042384Y0199217D01*
X0039690Y0201912D01*
X0035879Y0201912D01*
X0033184Y0199217D01*
X0033184Y0195406D01*
X0034280Y0194310D01*
X0031288Y0194310D01*
X0032384Y0195406D01*
X0032384Y0199217D01*
X0029690Y0201912D01*
X0025879Y0201912D01*
X0024039Y0200071D01*
X0024039Y0204552D01*
X0025879Y0202712D01*
X0029690Y0202712D01*
X0032384Y0205406D01*
X0032384Y0207845D01*
X0033184Y0208645D01*
X0033184Y0205406D01*
X0035879Y0202712D01*
X0039690Y0202712D01*
X0042384Y0205406D01*
X0042384Y0209217D01*
X0041791Y0209810D01*
X0050950Y0209810D01*
X0102250Y0261110D01*
X0103539Y0262399D01*
X0103539Y0288099D01*
X0170150Y0354710D01*
X0171439Y0355999D01*
X0171439Y0366705D01*
X0172739Y0368005D01*
X0172739Y0371816D01*
X0170044Y0374510D01*
X0166233Y0374510D01*
X0165639Y0373916D01*
X0165639Y0374299D01*
X0166650Y0375310D01*
X0170044Y0375310D01*
X0172739Y0378005D01*
X0172739Y0380899D01*
X0173239Y0380399D01*
X0173239Y0355822D01*
X0141539Y0324122D01*
X0141539Y0304509D01*
X0139639Y0302609D01*
X0139639Y0299212D01*
X0142040Y0296810D01*
X0145437Y0296810D01*
X0147839Y0299212D01*
X0147839Y0302609D01*
X0145939Y0304509D01*
X0145939Y0322299D01*
X0149039Y0325399D01*
X0149039Y0298709D01*
X0147139Y0296809D01*
X0147139Y0293412D01*
X0149540Y0291010D01*
X0152937Y0291010D01*
X0155339Y0293412D01*
X0155339Y0296809D01*
X0153439Y0298709D01*
X0153439Y0323999D01*
X0179950Y0350510D01*
X0181239Y0351799D01*
X0181239Y0383022D01*
X0174539Y0389722D01*
X0173250Y0391010D01*
X0150227Y0391010D01*
X0147427Y0388210D01*
X0146139Y0386922D01*
X0146139Y0384416D01*
X0143539Y0381816D01*
X0143539Y0378005D01*
X0146233Y0375310D01*
X0150044Y0375310D01*
X0151139Y0376405D01*
X0151139Y0376022D01*
X0149627Y0374510D01*
X0146233Y0374510D01*
X0143539Y0371816D01*
X0143539Y0368005D01*
X0146233Y0365310D01*
X0150044Y0365310D01*
X0152739Y0368005D01*
X0152739Y0371399D01*
X0155539Y0374199D01*
X0155539Y0376005D01*
X0156233Y0375310D01*
X0160044Y0375310D01*
X0162739Y0378005D01*
X0162739Y0381816D01*
X0161344Y0383210D01*
X0164933Y0383210D01*
X0163539Y0381816D01*
X0163539Y0378422D01*
X0161239Y0376122D01*
X0161239Y0373316D01*
X0160044Y0374510D01*
X0156233Y0374510D01*
X0153539Y0371816D01*
X0153539Y0368005D01*
X0156233Y0365310D01*
X0160044Y0365310D01*
X0161239Y0366505D01*
X0161239Y0359922D01*
X0093639Y0292322D01*
X0093639Y0266722D01*
X0046429Y0219512D01*
X0042090Y0219512D01*
X0039690Y0221912D01*
X0035879Y0221912D01*
X0033184Y0219217D01*
X0033184Y0215406D01*
X0034380Y0214210D01*
X0032527Y0214210D01*
X0031239Y0212922D01*
X0029959Y0211642D01*
X0029690Y0211912D01*
X0025879Y0211912D01*
X0024039Y0210071D01*
X0024039Y0214552D01*
X0025879Y0212712D01*
X0029690Y0212712D01*
X0032384Y0215406D01*
X0032384Y0219217D01*
X0029690Y0221912D01*
X0025879Y0221912D01*
X0024039Y0220071D01*
X0024039Y0224552D01*
X0025879Y0222712D01*
X0029690Y0222712D01*
X0032384Y0225406D01*
X0032384Y0229217D01*
X0029690Y0231912D01*
X0025879Y0231912D01*
X0024039Y0230071D01*
X0024039Y0234552D01*
X0025879Y0232712D01*
X0029690Y0232712D01*
X0032384Y0235406D01*
X0032384Y0239217D01*
X0029690Y0241912D01*
X0025879Y0241912D01*
X0024039Y0240071D01*
X0024039Y0244552D01*
X0025879Y0242712D01*
X0029690Y0242712D01*
X0032384Y0245406D01*
X0032384Y0249217D01*
X0031691Y0249910D01*
X0033877Y0249910D01*
X0033184Y0249217D01*
X0033184Y0245406D01*
X0035879Y0242712D01*
X0039690Y0242712D01*
X0042384Y0245406D01*
X0042384Y0249217D01*
X0041521Y0250081D01*
X0042639Y0251199D01*
X0081139Y0289699D01*
X0081139Y0366405D01*
X0082739Y0368005D01*
X0083539Y0368005D02*
X0086233Y0365310D01*
X0090044Y0365310D01*
X0092739Y0368005D01*
X0092739Y0371816D01*
X0090044Y0374510D01*
X0086233Y0374510D01*
X0083539Y0371816D01*
X0083539Y0368005D01*
X0083539Y0369052D02*
X0082739Y0369052D01*
X0082739Y0370250D02*
X0083539Y0370250D01*
X0083539Y0371449D02*
X0082739Y0371449D01*
X0083987Y0372647D02*
X0084370Y0372647D01*
X0085185Y0373846D02*
X0085569Y0373846D01*
X0086384Y0375044D02*
X0101439Y0375044D01*
X0101439Y0373846D02*
X0100708Y0373846D01*
X0100977Y0376243D02*
X0101439Y0376243D01*
X0103639Y0382710D02*
X0101239Y0385110D01*
X0076239Y0385110D01*
X0059839Y0368710D01*
X0059839Y0362110D01*
X0034839Y0362110D01*
X0029637Y0367312D01*
X0027784Y0367312D01*
X0024333Y0364258D02*
X0004339Y0364258D01*
X0004339Y0365456D02*
X0023184Y0365456D01*
X0023184Y0366655D02*
X0004339Y0366655D01*
X0004339Y0367853D02*
X0023184Y0367853D01*
X0023184Y0369052D02*
X0004339Y0369052D01*
X0004339Y0370250D02*
X0024217Y0370250D01*
X0025416Y0371449D02*
X0004339Y0371449D01*
X0004339Y0372647D02*
X0029990Y0372647D01*
X0030153Y0371449D02*
X0031189Y0371449D01*
X0031351Y0370250D02*
X0032387Y0370250D01*
X0032384Y0369052D02*
X0033184Y0369052D01*
X0033184Y0367853D02*
X0032384Y0367853D01*
X0033939Y0371810D02*
X0058439Y0371810D01*
X0074439Y0387810D01*
X0111139Y0387810D01*
X0113039Y0385910D01*
X0113039Y0376810D01*
X0115139Y0374710D01*
X0122939Y0374710D01*
X0128139Y0379910D01*
X0131120Y0383434D02*
X0135157Y0383434D01*
X0136233Y0384510D02*
X0133539Y0381816D01*
X0133539Y0378005D01*
X0136233Y0375310D01*
X0140044Y0375310D01*
X0142739Y0378005D01*
X0142739Y0381816D01*
X0140044Y0384510D01*
X0136233Y0384510D01*
X0133958Y0382235D02*
X0132319Y0382235D01*
X0132739Y0381037D02*
X0133539Y0381037D01*
X0133539Y0379838D02*
X0132739Y0379838D01*
X0132739Y0378640D02*
X0133539Y0378640D01*
X0134102Y0377441D02*
X0132175Y0377441D01*
X0130977Y0376243D02*
X0135301Y0376243D01*
X0136233Y0374510D02*
X0133539Y0371816D01*
X0133539Y0368005D01*
X0136233Y0365310D01*
X0140044Y0365310D01*
X0142739Y0368005D01*
X0142739Y0371816D01*
X0140044Y0374510D01*
X0136233Y0374510D01*
X0135569Y0373846D02*
X0130708Y0373846D01*
X0130044Y0374510D02*
X0132739Y0371816D01*
X0132739Y0368005D01*
X0130044Y0365310D01*
X0126233Y0365310D01*
X0123539Y0368005D01*
X0123539Y0371816D01*
X0126233Y0374510D01*
X0130044Y0374510D01*
X0131907Y0372647D02*
X0134370Y0372647D01*
X0133539Y0371449D02*
X0132739Y0371449D01*
X0132739Y0370250D02*
X0133539Y0370250D01*
X0133539Y0369052D02*
X0132739Y0369052D01*
X0132587Y0367853D02*
X0133690Y0367853D01*
X0134889Y0366655D02*
X0131388Y0366655D01*
X0130190Y0365456D02*
X0136087Y0365456D01*
X0140190Y0365456D02*
X0146087Y0365456D01*
X0144889Y0366655D02*
X0141388Y0366655D01*
X0142587Y0367853D02*
X0143690Y0367853D01*
X0143539Y0369052D02*
X0142739Y0369052D01*
X0142739Y0370250D02*
X0143539Y0370250D01*
X0143539Y0371449D02*
X0142739Y0371449D01*
X0141907Y0372647D02*
X0144370Y0372647D01*
X0145569Y0373846D02*
X0140708Y0373846D01*
X0140977Y0376243D02*
X0145301Y0376243D01*
X0144102Y0377441D02*
X0142175Y0377441D01*
X0142739Y0378640D02*
X0143539Y0378640D01*
X0143539Y0379838D02*
X0142739Y0379838D01*
X0142739Y0381037D02*
X0143539Y0381037D01*
X0143958Y0382235D02*
X0142319Y0382235D01*
X0141120Y0383434D02*
X0145157Y0383434D01*
X0146139Y0384632D02*
X0120039Y0384632D01*
X0120039Y0385831D02*
X0146139Y0385831D01*
X0146246Y0387029D02*
X0120039Y0387029D01*
X0119432Y0388228D02*
X0147445Y0388228D01*
X0148643Y0389426D02*
X0118234Y0389426D01*
X0117035Y0390625D02*
X0149842Y0390625D01*
X0151139Y0388810D02*
X0148339Y0386010D01*
X0148339Y0380110D01*
X0148139Y0379910D01*
X0150977Y0376243D02*
X0151139Y0376243D01*
X0150161Y0375044D02*
X0126384Y0375044D01*
X0125569Y0373846D02*
X0125185Y0373846D01*
X0124370Y0372647D02*
X0123987Y0372647D01*
X0123539Y0371449D02*
X0122739Y0371449D01*
X0122739Y0370250D02*
X0123539Y0370250D01*
X0123539Y0369052D02*
X0122739Y0369052D01*
X0122587Y0367853D02*
X0123690Y0367853D01*
X0124889Y0366655D02*
X0121388Y0366655D01*
X0120190Y0365456D02*
X0126087Y0365456D01*
X0118139Y0369910D02*
X0111039Y0362810D01*
X0106039Y0362810D01*
X0103639Y0365210D01*
X0103639Y0382710D01*
X0093958Y0382235D02*
X0092319Y0382235D01*
X0092739Y0381037D02*
X0093539Y0381037D01*
X0093539Y0379838D02*
X0092739Y0379838D01*
X0092739Y0378640D02*
X0093539Y0378640D01*
X0094102Y0377441D02*
X0092175Y0377441D01*
X0090977Y0376243D02*
X0095301Y0376243D01*
X0095569Y0373846D02*
X0090708Y0373846D01*
X0091907Y0372647D02*
X0094370Y0372647D01*
X0093539Y0371449D02*
X0092739Y0371449D01*
X0092739Y0370250D02*
X0093539Y0370250D01*
X0093539Y0369052D02*
X0092739Y0369052D01*
X0092587Y0367853D02*
X0093690Y0367853D01*
X0094889Y0366655D02*
X0091388Y0366655D01*
X0090190Y0365456D02*
X0096087Y0365456D01*
X0100190Y0365456D02*
X0101439Y0365456D01*
X0101439Y0366655D02*
X0101388Y0366655D01*
X0101480Y0364258D02*
X0081139Y0364258D01*
X0081139Y0365456D02*
X0086087Y0365456D01*
X0081139Y0363059D02*
X0102678Y0363059D01*
X0103877Y0361861D02*
X0081139Y0361861D01*
X0081139Y0360662D02*
X0105075Y0360662D01*
X0112002Y0360662D02*
X0161239Y0360662D01*
X0161239Y0361861D02*
X0113200Y0361861D01*
X0113239Y0361899D02*
X0113239Y0361899D01*
X0114399Y0363059D02*
X0161239Y0363059D01*
X0161239Y0364258D02*
X0115597Y0364258D01*
X0122175Y0377441D02*
X0122558Y0377441D01*
X0122739Y0378640D02*
X0123539Y0378640D01*
X0123539Y0379838D02*
X0122739Y0379838D01*
X0122739Y0381037D02*
X0123539Y0381037D01*
X0123958Y0382235D02*
X0122319Y0382235D01*
X0121120Y0383434D02*
X0125157Y0383434D01*
X0118139Y0379910D02*
X0117839Y0380210D01*
X0117839Y0386710D01*
X0114339Y0390210D01*
X0072839Y0390210D01*
X0059940Y0377312D01*
X0037784Y0377312D01*
X0035004Y0381037D02*
X0030565Y0381037D01*
X0031763Y0379838D02*
X0033805Y0379838D01*
X0033184Y0378640D02*
X0032384Y0378640D01*
X0032384Y0377441D02*
X0033184Y0377441D01*
X0033184Y0376243D02*
X0032617Y0376243D01*
X0028437Y0377312D02*
X0033939Y0371810D01*
X0030778Y0363059D02*
X0030037Y0363059D01*
X0029741Y0361861D02*
X0031977Y0361861D01*
X0030939Y0360662D02*
X0033175Y0360662D01*
X0033431Y0359464D02*
X0032138Y0359464D01*
X0032384Y0358265D02*
X0033184Y0358265D01*
X0033184Y0357067D02*
X0032384Y0357067D01*
X0032384Y0355868D02*
X0033184Y0355868D01*
X0033921Y0354670D02*
X0031647Y0354670D01*
X0030449Y0353471D02*
X0035120Y0353471D01*
X0035041Y0351074D02*
X0030527Y0351074D01*
X0031726Y0349876D02*
X0033843Y0349876D01*
X0033184Y0348677D02*
X0032384Y0348677D01*
X0032384Y0347479D02*
X0033184Y0347479D01*
X0033184Y0346280D02*
X0032384Y0346280D01*
X0032059Y0345081D02*
X0033509Y0345081D01*
X0034177Y0340210D02*
X0033184Y0339217D01*
X0033184Y0335406D01*
X0035879Y0332712D01*
X0039690Y0332712D01*
X0042384Y0335406D01*
X0042384Y0339217D01*
X0041391Y0340210D01*
X0046850Y0340210D01*
X0064250Y0357610D01*
X0065539Y0358899D01*
X0065539Y0365899D01*
X0072050Y0372410D01*
X0074133Y0372410D01*
X0073539Y0371816D01*
X0073539Y0368005D01*
X0076233Y0365310D01*
X0076739Y0365310D01*
X0076739Y0291522D01*
X0042384Y0257167D01*
X0042384Y0259217D01*
X0039690Y0261912D01*
X0035879Y0261912D01*
X0033184Y0259217D01*
X0033184Y0255406D01*
X0034280Y0254310D01*
X0031288Y0254310D01*
X0032384Y0255406D01*
X0032384Y0259217D01*
X0029690Y0261912D01*
X0025879Y0261912D01*
X0023184Y0259217D01*
X0023184Y0255406D01*
X0024280Y0254310D01*
X0023227Y0254310D01*
X0020927Y0252010D01*
X0019639Y0250722D01*
X0019639Y0194599D01*
X0023039Y0191199D01*
X0024102Y0190135D01*
X0023184Y0189217D01*
X0023184Y0185406D01*
X0025879Y0182712D01*
X0029690Y0182712D01*
X0032384Y0185406D01*
X0032384Y0189217D01*
X0031691Y0189910D01*
X0033877Y0189910D01*
X0033184Y0189217D01*
X0033184Y0185406D01*
X0035879Y0182712D01*
X0039690Y0182712D01*
X0042384Y0185406D01*
X0042384Y0189217D01*
X0041691Y0189910D01*
X0055750Y0189910D01*
X0057039Y0191199D01*
X0145650Y0279810D01*
X0197951Y0279810D01*
X0197357Y0279217D01*
X0197357Y0275406D01*
X0198154Y0274610D01*
X0196446Y0274610D01*
X0196444Y0274613D01*
X0195533Y0274610D01*
X0194627Y0274610D01*
X0194625Y0274608D01*
X0194621Y0274608D01*
X0193982Y0273964D01*
X0193339Y0273322D01*
X0193339Y0273318D01*
X0065586Y0144869D01*
X0064945Y0144237D01*
X0064945Y0144224D01*
X0064936Y0144216D01*
X0064939Y0143315D01*
X0064640Y0101296D01*
X0064521Y0100564D01*
X0064634Y0100408D01*
X0064632Y0100215D01*
X0064887Y0099957D01*
X0064539Y0099609D01*
X0064539Y0096212D01*
X0066190Y0094560D01*
X0065139Y0093509D01*
X0065139Y0090112D01*
X0066590Y0088660D01*
X0065239Y0087309D01*
X0065239Y0083912D01*
X0066440Y0082710D01*
X0065139Y0081409D01*
X0042749Y0081409D01*
X0043947Y0082608D02*
X0066338Y0082608D01*
X0065345Y0083806D02*
X0045146Y0083806D01*
X0046344Y0085005D02*
X0065239Y0085005D01*
X0065239Y0086203D02*
X0047543Y0086203D01*
X0048741Y0087402D02*
X0065332Y0087402D01*
X0066530Y0088600D02*
X0049639Y0088600D01*
X0049639Y0088299D02*
X0049639Y0103822D01*
X0048350Y0105110D01*
X0046539Y0106922D01*
X0046539Y0111669D01*
X0045250Y0112957D01*
X0042384Y0115823D01*
X0042384Y0119217D01*
X0039690Y0121912D01*
X0035879Y0121912D01*
X0033184Y0119217D01*
X0033184Y0115406D01*
X0035879Y0112712D01*
X0039273Y0112712D01*
X0042139Y0109846D01*
X0042139Y0109463D01*
X0039690Y0111912D01*
X0035879Y0111912D01*
X0034839Y0110871D01*
X0034839Y0113369D01*
X0032384Y0115823D01*
X0032384Y0119217D01*
X0031691Y0119910D01*
X0033494Y0119910D01*
X0036296Y0122712D01*
X0039690Y0122712D01*
X0042384Y0125406D01*
X0042384Y0129217D01*
X0041391Y0130210D01*
X0041627Y0130210D01*
X0047939Y0123899D01*
X0047939Y0116799D01*
X0049227Y0115510D01*
X0049227Y0115510D01*
X0056439Y0108299D01*
X0056439Y0105612D01*
X0058840Y0103210D01*
X0062237Y0103210D01*
X0064639Y0105612D01*
X0064639Y0109009D01*
X0062237Y0111410D01*
X0059550Y0111410D01*
X0052339Y0118621D01*
X0052339Y0125722D01*
X0044739Y0133322D01*
X0043450Y0134610D01*
X0041588Y0134610D01*
X0042384Y0135406D01*
X0042384Y0139217D01*
X0039690Y0141912D01*
X0035879Y0141912D01*
X0033184Y0139217D01*
X0033184Y0135406D01*
X0033980Y0134610D01*
X0031588Y0134610D01*
X0032384Y0135406D01*
X0032384Y0139217D01*
X0029690Y0141912D01*
X0025879Y0141912D01*
X0023184Y0139217D01*
X0023184Y0135916D01*
X0017539Y0138437D01*
X0017539Y0336499D01*
X0021250Y0340210D01*
X0024177Y0340210D01*
X0023184Y0339217D01*
X0023184Y0335406D01*
X0025879Y0332712D01*
X0029690Y0332712D01*
X0032384Y0335406D01*
X0032384Y0339217D01*
X0031391Y0340210D01*
X0034177Y0340210D01*
X0033184Y0339089D02*
X0032384Y0339089D01*
X0032384Y0337890D02*
X0033184Y0337890D01*
X0033184Y0336692D02*
X0032384Y0336692D01*
X0032384Y0335493D02*
X0033184Y0335493D01*
X0034296Y0334295D02*
X0031273Y0334295D01*
X0030074Y0333096D02*
X0035494Y0333096D01*
X0035879Y0331912D02*
X0033184Y0329217D01*
X0033184Y0325406D01*
X0035879Y0322712D01*
X0039690Y0322712D01*
X0042384Y0325406D01*
X0042384Y0329217D01*
X0039690Y0331912D01*
X0035879Y0331912D01*
X0035865Y0331898D02*
X0029704Y0331898D01*
X0029690Y0331912D02*
X0025879Y0331912D01*
X0023184Y0329217D01*
X0023184Y0325406D01*
X0025879Y0322712D01*
X0029690Y0322712D01*
X0032384Y0325406D01*
X0032384Y0329217D01*
X0029690Y0331912D01*
X0030902Y0330699D02*
X0034666Y0330699D01*
X0033468Y0329501D02*
X0032101Y0329501D01*
X0032384Y0328302D02*
X0033184Y0328302D01*
X0033184Y0327104D02*
X0032384Y0327104D01*
X0032384Y0325905D02*
X0033184Y0325905D01*
X0033884Y0324707D02*
X0031685Y0324707D01*
X0030486Y0323508D02*
X0035082Y0323508D01*
X0035879Y0321912D02*
X0033184Y0319217D01*
X0033184Y0315406D01*
X0035879Y0312712D01*
X0039690Y0312712D01*
X0042384Y0315406D01*
X0042384Y0319217D01*
X0039690Y0321912D01*
X0035879Y0321912D01*
X0035078Y0321111D02*
X0030490Y0321111D01*
X0029690Y0321912D02*
X0025879Y0321912D01*
X0023184Y0319217D01*
X0023184Y0315406D01*
X0025879Y0312712D01*
X0029690Y0312712D01*
X0032384Y0315406D01*
X0032384Y0319217D01*
X0029690Y0321912D01*
X0031689Y0319913D02*
X0033880Y0319913D01*
X0033184Y0318714D02*
X0032384Y0318714D01*
X0032384Y0317516D02*
X0033184Y0317516D01*
X0033184Y0316317D02*
X0032384Y0316317D01*
X0032097Y0315119D02*
X0033472Y0315119D01*
X0034670Y0313920D02*
X0030898Y0313920D01*
X0029700Y0312722D02*
X0035869Y0312722D01*
X0035879Y0311912D02*
X0033184Y0309217D01*
X0033184Y0305406D01*
X0035879Y0302712D01*
X0039690Y0302712D01*
X0042384Y0305406D01*
X0042384Y0309217D01*
X0039690Y0311912D01*
X0035879Y0311912D01*
X0035490Y0311523D02*
X0030078Y0311523D01*
X0029690Y0311912D02*
X0025879Y0311912D01*
X0023184Y0309217D01*
X0023184Y0305406D01*
X0025879Y0302712D01*
X0029690Y0302712D01*
X0032384Y0305406D01*
X0032384Y0309217D01*
X0029690Y0311912D01*
X0031277Y0310325D02*
X0034292Y0310325D01*
X0033184Y0309126D02*
X0032384Y0309126D01*
X0032384Y0307928D02*
X0033184Y0307928D01*
X0033184Y0306729D02*
X0032384Y0306729D01*
X0032384Y0305531D02*
X0033184Y0305531D01*
X0034259Y0304332D02*
X0031310Y0304332D01*
X0030111Y0303134D02*
X0035457Y0303134D01*
X0035879Y0301912D02*
X0033184Y0299217D01*
X0033184Y0295406D01*
X0035879Y0292712D01*
X0039690Y0292712D01*
X0042384Y0295406D01*
X0042384Y0299217D01*
X0039690Y0301912D01*
X0035879Y0301912D01*
X0034704Y0300737D02*
X0030865Y0300737D01*
X0029690Y0301912D02*
X0025879Y0301912D01*
X0023184Y0299217D01*
X0023184Y0295406D01*
X0025879Y0292712D01*
X0029690Y0292712D01*
X0032384Y0295406D01*
X0032384Y0299217D01*
X0029690Y0301912D01*
X0032063Y0299538D02*
X0033505Y0299538D01*
X0033184Y0298340D02*
X0032384Y0298340D01*
X0032384Y0297141D02*
X0033184Y0297141D01*
X0033184Y0295943D02*
X0032384Y0295943D01*
X0031722Y0294744D02*
X0033847Y0294744D01*
X0035045Y0293546D02*
X0030523Y0293546D01*
X0029690Y0291912D02*
X0025879Y0291912D01*
X0023184Y0289217D01*
X0023184Y0285406D01*
X0025879Y0282712D01*
X0029690Y0282712D01*
X0032384Y0285406D01*
X0032384Y0289217D01*
X0029690Y0291912D01*
X0030453Y0291148D02*
X0035116Y0291148D01*
X0035879Y0291912D02*
X0033184Y0289217D01*
X0033184Y0285406D01*
X0035879Y0282712D01*
X0039690Y0282712D01*
X0042384Y0285406D01*
X0042384Y0289217D01*
X0039690Y0291912D01*
X0035879Y0291912D01*
X0033917Y0289950D02*
X0031651Y0289950D01*
X0032384Y0288751D02*
X0033184Y0288751D01*
X0033184Y0287553D02*
X0032384Y0287553D01*
X0032384Y0286354D02*
X0033184Y0286354D01*
X0033435Y0285156D02*
X0032134Y0285156D01*
X0030935Y0283957D02*
X0034633Y0283957D01*
X0035832Y0282759D02*
X0029737Y0282759D01*
X0029690Y0281912D02*
X0025879Y0281912D01*
X0023184Y0279217D01*
X0023184Y0275406D01*
X0025879Y0272712D01*
X0029690Y0272712D01*
X0032384Y0275406D01*
X0032384Y0279217D01*
X0029690Y0281912D01*
X0030041Y0281560D02*
X0035527Y0281560D01*
X0035879Y0281912D02*
X0033184Y0279217D01*
X0033184Y0275406D01*
X0035879Y0272712D01*
X0039690Y0272712D01*
X0042384Y0275406D01*
X0042384Y0279217D01*
X0039690Y0281912D01*
X0035879Y0281912D01*
X0034329Y0280362D02*
X0031240Y0280362D01*
X0032384Y0279163D02*
X0033184Y0279163D01*
X0033184Y0277965D02*
X0032384Y0277965D01*
X0032384Y0276766D02*
X0033184Y0276766D01*
X0033184Y0275568D02*
X0032384Y0275568D01*
X0031347Y0274369D02*
X0034221Y0274369D01*
X0035420Y0273171D02*
X0030149Y0273171D01*
X0029690Y0271912D02*
X0025879Y0271912D01*
X0023184Y0269217D01*
X0023184Y0265406D01*
X0025879Y0262712D01*
X0029690Y0262712D01*
X0032384Y0265406D01*
X0032384Y0269217D01*
X0029690Y0271912D01*
X0030828Y0270774D02*
X0034741Y0270774D01*
X0035879Y0271912D02*
X0033184Y0269217D01*
X0033184Y0265406D01*
X0035879Y0262712D01*
X0039690Y0262712D01*
X0042384Y0265406D01*
X0042384Y0269217D01*
X0039690Y0271912D01*
X0035879Y0271912D01*
X0033542Y0269575D02*
X0032026Y0269575D01*
X0032384Y0268377D02*
X0033184Y0268377D01*
X0033184Y0267178D02*
X0032384Y0267178D01*
X0032384Y0265980D02*
X0033184Y0265980D01*
X0033809Y0264781D02*
X0031759Y0264781D01*
X0030561Y0263583D02*
X0035008Y0263583D01*
X0035153Y0261186D02*
X0030416Y0261186D01*
X0031614Y0259987D02*
X0033954Y0259987D01*
X0033184Y0258789D02*
X0032384Y0258789D01*
X0032384Y0257590D02*
X0033184Y0257590D01*
X0033184Y0256392D02*
X0032384Y0256392D01*
X0032171Y0255193D02*
X0033398Y0255193D01*
X0033184Y0249201D02*
X0032384Y0249201D01*
X0032384Y0248002D02*
X0033184Y0248002D01*
X0033184Y0246804D02*
X0032384Y0246804D01*
X0032384Y0245605D02*
X0033184Y0245605D01*
X0034184Y0244407D02*
X0031384Y0244407D01*
X0030186Y0243208D02*
X0035383Y0243208D01*
X0035879Y0241912D02*
X0033184Y0239217D01*
X0033184Y0235406D01*
X0035879Y0232712D01*
X0039690Y0232712D01*
X0042384Y0235406D01*
X0042384Y0239217D01*
X0039690Y0241912D01*
X0035879Y0241912D01*
X0034778Y0240811D02*
X0030790Y0240811D01*
X0031989Y0239612D02*
X0033580Y0239612D01*
X0033184Y0238414D02*
X0032384Y0238414D01*
X0032384Y0237215D02*
X0033184Y0237215D01*
X0033184Y0236017D02*
X0032384Y0236017D01*
X0031796Y0234818D02*
X0033772Y0234818D01*
X0034971Y0233620D02*
X0030598Y0233620D01*
X0030379Y0231223D02*
X0035190Y0231223D01*
X0035879Y0231912D02*
X0033184Y0229217D01*
X0033184Y0225406D01*
X0035879Y0222712D01*
X0039690Y0222712D01*
X0042384Y0225406D01*
X0042384Y0229217D01*
X0039690Y0231912D01*
X0035879Y0231912D01*
X0033991Y0230024D02*
X0031577Y0230024D01*
X0032384Y0228826D02*
X0033184Y0228826D01*
X0033184Y0227627D02*
X0032384Y0227627D01*
X0032384Y0226429D02*
X0033184Y0226429D01*
X0033360Y0225230D02*
X0032208Y0225230D01*
X0031010Y0224032D02*
X0034559Y0224032D01*
X0035757Y0222833D02*
X0029811Y0222833D01*
X0029967Y0221635D02*
X0035602Y0221635D01*
X0034403Y0220436D02*
X0031165Y0220436D01*
X0032364Y0219238D02*
X0033205Y0219238D01*
X0033184Y0218039D02*
X0032384Y0218039D01*
X0032384Y0216841D02*
X0033184Y0216841D01*
X0033184Y0215642D02*
X0032384Y0215642D01*
X0031422Y0214444D02*
X0034147Y0214444D01*
X0033439Y0212010D02*
X0050039Y0212010D01*
X0101339Y0263310D01*
X0101339Y0289010D01*
X0169239Y0356910D01*
X0169239Y0368810D01*
X0168139Y0369910D01*
X0170708Y0373846D02*
X0173239Y0373846D01*
X0173239Y0375044D02*
X0166384Y0375044D01*
X0163439Y0375210D02*
X0168139Y0379910D01*
X0170977Y0376243D02*
X0173239Y0376243D01*
X0173239Y0377441D02*
X0172175Y0377441D01*
X0172739Y0378640D02*
X0173239Y0378640D01*
X0173239Y0379838D02*
X0172739Y0379838D01*
X0175439Y0381310D02*
X0171339Y0385410D01*
X0155539Y0385410D01*
X0153339Y0383210D01*
X0153339Y0375110D01*
X0148139Y0369910D01*
X0151388Y0366655D02*
X0154889Y0366655D01*
X0153690Y0367853D02*
X0152587Y0367853D01*
X0152739Y0369052D02*
X0153539Y0369052D01*
X0153539Y0370250D02*
X0152739Y0370250D01*
X0152788Y0371449D02*
X0153539Y0371449D01*
X0153987Y0372647D02*
X0154370Y0372647D01*
X0155185Y0373846D02*
X0155569Y0373846D01*
X0155539Y0375044D02*
X0161239Y0375044D01*
X0161239Y0373846D02*
X0160708Y0373846D01*
X0160977Y0376243D02*
X0161360Y0376243D01*
X0162175Y0377441D02*
X0162558Y0377441D01*
X0162739Y0378640D02*
X0163539Y0378640D01*
X0163539Y0379838D02*
X0162739Y0379838D01*
X0162739Y0381037D02*
X0163539Y0381037D01*
X0163958Y0382235D02*
X0162319Y0382235D01*
X0163439Y0375210D02*
X0163439Y0359010D01*
X0095839Y0291410D01*
X0095839Y0265810D01*
X0047340Y0217312D01*
X0037784Y0217312D01*
X0039967Y0221635D02*
X0048552Y0221635D01*
X0049750Y0222833D02*
X0039811Y0222833D01*
X0041010Y0224032D02*
X0050949Y0224032D01*
X0052147Y0225230D02*
X0042208Y0225230D01*
X0042384Y0226429D02*
X0053346Y0226429D01*
X0054544Y0227627D02*
X0042384Y0227627D01*
X0042384Y0228826D02*
X0055743Y0228826D01*
X0056941Y0230024D02*
X0041577Y0230024D01*
X0040379Y0231223D02*
X0058140Y0231223D01*
X0059339Y0232421D02*
X0024039Y0232421D01*
X0024039Y0231223D02*
X0025190Y0231223D01*
X0024971Y0233620D02*
X0024039Y0233620D01*
X0019639Y0233620D02*
X0017539Y0233620D01*
X0017539Y0234818D02*
X0019639Y0234818D01*
X0019639Y0236017D02*
X0017539Y0236017D01*
X0017539Y0237215D02*
X0019639Y0237215D01*
X0019639Y0238414D02*
X0017539Y0238414D01*
X0017539Y0239612D02*
X0019639Y0239612D01*
X0019639Y0240811D02*
X0017539Y0240811D01*
X0017539Y0242010D02*
X0019639Y0242010D01*
X0019639Y0243208D02*
X0017539Y0243208D01*
X0017539Y0244407D02*
X0019639Y0244407D01*
X0019639Y0245605D02*
X0017539Y0245605D01*
X0017539Y0246804D02*
X0019639Y0246804D01*
X0019639Y0248002D02*
X0017539Y0248002D01*
X0017539Y0249201D02*
X0019639Y0249201D01*
X0019639Y0250399D02*
X0017539Y0250399D01*
X0017539Y0251598D02*
X0020515Y0251598D01*
X0021713Y0252796D02*
X0017539Y0252796D01*
X0017539Y0253995D02*
X0022912Y0253995D01*
X0023398Y0255193D02*
X0017539Y0255193D01*
X0017539Y0256392D02*
X0023184Y0256392D01*
X0023184Y0257590D02*
X0017539Y0257590D01*
X0017539Y0258789D02*
X0023184Y0258789D01*
X0023954Y0259987D02*
X0017539Y0259987D01*
X0017539Y0261186D02*
X0025153Y0261186D01*
X0025008Y0263583D02*
X0017539Y0263583D01*
X0017539Y0264781D02*
X0023809Y0264781D01*
X0023184Y0265980D02*
X0017539Y0265980D01*
X0017539Y0267178D02*
X0023184Y0267178D01*
X0023184Y0268377D02*
X0017539Y0268377D01*
X0017539Y0269575D02*
X0023542Y0269575D01*
X0024741Y0270774D02*
X0017539Y0270774D01*
X0017539Y0271972D02*
X0057189Y0271972D01*
X0055991Y0270774D02*
X0040828Y0270774D01*
X0042026Y0269575D02*
X0054792Y0269575D01*
X0053594Y0268377D02*
X0042384Y0268377D01*
X0042384Y0267178D02*
X0052395Y0267178D01*
X0051197Y0265980D02*
X0042384Y0265980D01*
X0041759Y0264781D02*
X0049998Y0264781D01*
X0048800Y0263583D02*
X0040561Y0263583D01*
X0040416Y0261186D02*
X0046403Y0261186D01*
X0047601Y0262384D02*
X0017539Y0262384D01*
X0017539Y0273171D02*
X0025420Y0273171D01*
X0024221Y0274369D02*
X0017539Y0274369D01*
X0017539Y0275568D02*
X0023184Y0275568D01*
X0023184Y0276766D02*
X0017539Y0276766D01*
X0017539Y0277965D02*
X0023184Y0277965D01*
X0023184Y0279163D02*
X0017539Y0279163D01*
X0017539Y0280362D02*
X0024329Y0280362D01*
X0025527Y0281560D02*
X0017539Y0281560D01*
X0017539Y0282759D02*
X0025832Y0282759D01*
X0024633Y0283957D02*
X0017539Y0283957D01*
X0017539Y0285156D02*
X0023435Y0285156D01*
X0023184Y0286354D02*
X0017539Y0286354D01*
X0017539Y0287553D02*
X0023184Y0287553D01*
X0023184Y0288751D02*
X0017539Y0288751D01*
X0017539Y0289950D02*
X0023917Y0289950D01*
X0025116Y0291148D02*
X0017539Y0291148D01*
X0017539Y0292347D02*
X0076739Y0292347D01*
X0076739Y0293546D02*
X0040523Y0293546D01*
X0041722Y0294744D02*
X0076739Y0294744D01*
X0076739Y0295943D02*
X0042384Y0295943D01*
X0042384Y0297141D02*
X0076739Y0297141D01*
X0076739Y0298340D02*
X0042384Y0298340D01*
X0042063Y0299538D02*
X0076739Y0299538D01*
X0076739Y0300737D02*
X0040865Y0300737D01*
X0040111Y0303134D02*
X0076739Y0303134D01*
X0076739Y0304332D02*
X0041310Y0304332D01*
X0042384Y0305531D02*
X0076739Y0305531D01*
X0076739Y0306729D02*
X0042384Y0306729D01*
X0042384Y0307928D02*
X0076739Y0307928D01*
X0076739Y0309126D02*
X0042384Y0309126D01*
X0041277Y0310325D02*
X0076739Y0310325D01*
X0076739Y0311523D02*
X0040078Y0311523D01*
X0039700Y0312722D02*
X0076739Y0312722D01*
X0076739Y0313920D02*
X0040898Y0313920D01*
X0042097Y0315119D02*
X0076739Y0315119D01*
X0076739Y0316317D02*
X0042384Y0316317D01*
X0042384Y0317516D02*
X0076739Y0317516D01*
X0076739Y0318714D02*
X0042384Y0318714D01*
X0041689Y0319913D02*
X0076739Y0319913D01*
X0076739Y0321111D02*
X0040490Y0321111D01*
X0040486Y0323508D02*
X0076739Y0323508D01*
X0076739Y0322310D02*
X0017539Y0322310D01*
X0017539Y0323508D02*
X0025082Y0323508D01*
X0023884Y0324707D02*
X0017539Y0324707D01*
X0017539Y0325905D02*
X0023184Y0325905D01*
X0023184Y0327104D02*
X0017539Y0327104D01*
X0017539Y0328302D02*
X0023184Y0328302D01*
X0023468Y0329501D02*
X0017539Y0329501D01*
X0017539Y0330699D02*
X0024666Y0330699D01*
X0025865Y0331898D02*
X0017539Y0331898D01*
X0017539Y0333096D02*
X0025494Y0333096D01*
X0024296Y0334295D02*
X0017539Y0334295D01*
X0017539Y0335493D02*
X0023184Y0335493D01*
X0023184Y0336692D02*
X0017732Y0336692D01*
X0018930Y0337890D02*
X0023184Y0337890D01*
X0023184Y0339089D02*
X0020129Y0339089D01*
X0020339Y0342410D02*
X0024639Y0342410D01*
X0026339Y0342410D01*
X0045939Y0342410D01*
X0063339Y0359810D01*
X0063339Y0366810D01*
X0071139Y0374610D01*
X0082839Y0374610D01*
X0088139Y0379910D01*
X0084633Y0382910D02*
X0083539Y0381816D01*
X0083539Y0378421D01*
X0081927Y0376810D01*
X0081544Y0376810D01*
X0082739Y0378005D01*
X0082739Y0379510D01*
X0078539Y0379510D01*
X0078539Y0380310D01*
X0082739Y0380310D01*
X0082739Y0381816D01*
X0081644Y0382910D01*
X0084633Y0382910D01*
X0083958Y0382235D02*
X0082319Y0382235D01*
X0082739Y0381037D02*
X0083539Y0381037D01*
X0083539Y0379838D02*
X0078539Y0379838D01*
X0082175Y0377441D02*
X0082558Y0377441D01*
X0082739Y0378640D02*
X0083539Y0378640D01*
X0074889Y0366655D02*
X0066294Y0366655D01*
X0065539Y0365456D02*
X0076087Y0365456D01*
X0076739Y0364258D02*
X0065539Y0364258D01*
X0065539Y0363059D02*
X0076739Y0363059D01*
X0076739Y0361861D02*
X0065539Y0361861D01*
X0065539Y0360662D02*
X0076739Y0360662D01*
X0076739Y0359464D02*
X0065539Y0359464D01*
X0064905Y0358265D02*
X0076739Y0358265D01*
X0076739Y0357067D02*
X0063706Y0357067D01*
X0062508Y0355868D02*
X0076739Y0355868D01*
X0076739Y0354670D02*
X0061309Y0354670D01*
X0060111Y0353471D02*
X0076739Y0353471D01*
X0076739Y0352273D02*
X0058912Y0352273D01*
X0057714Y0351074D02*
X0076739Y0351074D01*
X0076739Y0349876D02*
X0056515Y0349876D01*
X0055317Y0348677D02*
X0076739Y0348677D01*
X0076739Y0347479D02*
X0054118Y0347479D01*
X0052920Y0346280D02*
X0076739Y0346280D01*
X0076739Y0345081D02*
X0051721Y0345081D01*
X0050523Y0343883D02*
X0076739Y0343883D01*
X0076739Y0342684D02*
X0049324Y0342684D01*
X0048126Y0341486D02*
X0076739Y0341486D01*
X0076739Y0340287D02*
X0046927Y0340287D01*
X0045499Y0345081D02*
X0042059Y0345081D01*
X0042384Y0346280D02*
X0046697Y0346280D01*
X0047896Y0347479D02*
X0042384Y0347479D01*
X0042384Y0348677D02*
X0049094Y0348677D01*
X0050293Y0349876D02*
X0041726Y0349876D01*
X0040527Y0351074D02*
X0051491Y0351074D01*
X0052690Y0352273D02*
X0023156Y0352273D01*
X0024355Y0353471D02*
X0025120Y0353471D01*
X0025041Y0351074D02*
X0021958Y0351074D01*
X0020759Y0349876D02*
X0023843Y0349876D01*
X0023184Y0348677D02*
X0019561Y0348677D01*
X0018362Y0347479D02*
X0023184Y0347479D01*
X0023184Y0346280D02*
X0017164Y0346280D01*
X0015965Y0345081D02*
X0023509Y0345081D01*
X0020339Y0342410D02*
X0015339Y0337410D01*
X0015339Y0137010D01*
X0025639Y0132410D01*
X0042539Y0132410D01*
X0050139Y0124810D01*
X0050139Y0117710D01*
X0060539Y0107310D01*
X0063474Y0110173D02*
X0064703Y0110173D01*
X0064694Y0108975D02*
X0064639Y0108975D01*
X0064639Y0107776D02*
X0064686Y0107776D01*
X0064639Y0106578D02*
X0064677Y0106578D01*
X0064669Y0105379D02*
X0064406Y0105379D01*
X0064660Y0104181D02*
X0063207Y0104181D01*
X0064652Y0102982D02*
X0049639Y0102982D01*
X0049639Y0101784D02*
X0064643Y0101784D01*
X0064524Y0100585D02*
X0049639Y0100585D01*
X0049639Y0099387D02*
X0064539Y0099387D01*
X0064539Y0098188D02*
X0049639Y0098188D01*
X0049639Y0096990D02*
X0064539Y0096990D01*
X0064959Y0095791D02*
X0049639Y0095791D01*
X0049639Y0094593D02*
X0066158Y0094593D01*
X0065139Y0093394D02*
X0049639Y0093394D01*
X0049639Y0092196D02*
X0065139Y0092196D01*
X0065139Y0090997D02*
X0049639Y0090997D01*
X0049639Y0089799D02*
X0065452Y0089799D01*
X0069239Y0091710D02*
X0073339Y0095110D01*
X0073339Y0138693D01*
X0201957Y0267312D01*
X0200469Y0262712D02*
X0203863Y0262712D01*
X0206557Y0265406D01*
X0206557Y0269217D01*
X0205564Y0270210D01*
X0207967Y0270210D01*
X0210469Y0272712D01*
X0213863Y0272712D01*
X0216557Y0275406D01*
X0216557Y0279217D01*
X0215964Y0279810D01*
X0216327Y0279810D01*
X0227039Y0269099D01*
X0227039Y0152322D01*
X0219127Y0144410D01*
X0215561Y0144410D01*
X0216557Y0145406D01*
X0216557Y0149217D01*
X0213863Y0151912D01*
X0210052Y0151912D01*
X0207357Y0149217D01*
X0207357Y0145406D01*
X0208354Y0144410D01*
X0205561Y0144410D01*
X0206557Y0145406D01*
X0206557Y0149217D01*
X0203863Y0151912D01*
X0200052Y0151912D01*
X0198851Y0150710D01*
X0106150Y0150710D01*
X0119250Y0163810D01*
X0190527Y0163810D01*
X0192639Y0161699D01*
X0193927Y0160410D01*
X0198551Y0160410D01*
X0197357Y0159217D01*
X0197357Y0155406D01*
X0200052Y0152712D01*
X0203863Y0152712D01*
X0206557Y0155406D01*
X0206557Y0159217D01*
X0205364Y0160410D01*
X0205748Y0160410D01*
X0207357Y0158801D01*
X0207357Y0155406D01*
X0210052Y0152712D01*
X0213863Y0152712D01*
X0216557Y0155406D01*
X0216557Y0159217D01*
X0213863Y0161912D01*
X0210469Y0161912D01*
X0207570Y0164810D01*
X0205961Y0164810D01*
X0206557Y0165406D01*
X0206557Y0169217D01*
X0203863Y0171912D01*
X0200052Y0171912D01*
X0197357Y0169217D01*
X0197357Y0165406D01*
X0197954Y0164810D01*
X0195750Y0164810D01*
X0192350Y0168210D01*
X0117427Y0168210D01*
X0116139Y0166922D01*
X0076439Y0127222D01*
X0076439Y0095822D01*
X0075539Y0094921D01*
X0075539Y0095008D01*
X0075614Y0095813D01*
X0075539Y0095904D01*
X0075539Y0137782D01*
X0200469Y0262712D01*
X0200141Y0262384D02*
X0227039Y0262384D01*
X0227039Y0261186D02*
X0214589Y0261186D01*
X0213863Y0261912D02*
X0216557Y0259217D01*
X0216557Y0255406D01*
X0213863Y0252712D01*
X0210052Y0252712D01*
X0207357Y0255406D01*
X0207357Y0259217D01*
X0210052Y0261912D01*
X0213863Y0261912D01*
X0213863Y0262712D02*
X0210052Y0262712D01*
X0207357Y0265406D01*
X0207357Y0269217D01*
X0210052Y0271912D01*
X0213863Y0271912D01*
X0216557Y0269217D01*
X0216557Y0265406D01*
X0213863Y0262712D01*
X0214734Y0263583D02*
X0227039Y0263583D01*
X0227039Y0264781D02*
X0215932Y0264781D01*
X0216557Y0265980D02*
X0227039Y0265980D01*
X0227039Y0267178D02*
X0216557Y0267178D01*
X0216557Y0268377D02*
X0227039Y0268377D01*
X0226562Y0269575D02*
X0216199Y0269575D01*
X0215001Y0270774D02*
X0225364Y0270774D01*
X0224165Y0271972D02*
X0209729Y0271972D01*
X0208914Y0270774D02*
X0208531Y0270774D01*
X0207716Y0269575D02*
X0206199Y0269575D01*
X0206557Y0268377D02*
X0207357Y0268377D01*
X0207357Y0267178D02*
X0206557Y0267178D01*
X0206557Y0265980D02*
X0207357Y0265980D01*
X0207983Y0264781D02*
X0205932Y0264781D01*
X0204734Y0263583D02*
X0209181Y0263583D01*
X0209326Y0261186D02*
X0204589Y0261186D01*
X0203863Y0261912D02*
X0200052Y0261912D01*
X0197357Y0259217D01*
X0197357Y0255406D01*
X0200052Y0252712D01*
X0203863Y0252712D01*
X0206557Y0255406D01*
X0206557Y0259217D01*
X0203863Y0261912D01*
X0205787Y0259987D02*
X0208127Y0259987D01*
X0207357Y0258789D02*
X0206557Y0258789D01*
X0206557Y0257590D02*
X0207357Y0257590D01*
X0207357Y0256392D02*
X0206557Y0256392D01*
X0206344Y0255193D02*
X0207571Y0255193D01*
X0208769Y0253995D02*
X0205146Y0253995D01*
X0203947Y0252796D02*
X0209968Y0252796D01*
X0210052Y0251912D02*
X0207357Y0249217D01*
X0207357Y0245406D01*
X0210052Y0242712D01*
X0213863Y0242712D01*
X0216557Y0245406D01*
X0216557Y0249217D01*
X0213863Y0251912D01*
X0210052Y0251912D01*
X0209738Y0251598D02*
X0204177Y0251598D01*
X0203863Y0251912D02*
X0200052Y0251912D01*
X0197357Y0249217D01*
X0197357Y0245406D01*
X0200052Y0242712D01*
X0203863Y0242712D01*
X0206557Y0245406D01*
X0206557Y0249217D01*
X0203863Y0251912D01*
X0205376Y0250399D02*
X0208539Y0250399D01*
X0207357Y0249201D02*
X0206557Y0249201D01*
X0206557Y0248002D02*
X0207357Y0248002D01*
X0207357Y0246804D02*
X0206557Y0246804D01*
X0206557Y0245605D02*
X0207357Y0245605D01*
X0208357Y0244407D02*
X0205558Y0244407D01*
X0204359Y0243208D02*
X0209556Y0243208D01*
X0210052Y0241912D02*
X0207357Y0239217D01*
X0207357Y0235406D01*
X0210052Y0232712D01*
X0213863Y0232712D01*
X0216557Y0235406D01*
X0216557Y0239217D01*
X0213863Y0241912D01*
X0210052Y0241912D01*
X0208951Y0240811D02*
X0204964Y0240811D01*
X0203863Y0241912D02*
X0206557Y0239217D01*
X0206557Y0235406D01*
X0203863Y0232712D01*
X0200052Y0232712D01*
X0197357Y0235406D01*
X0197357Y0239217D01*
X0200052Y0241912D01*
X0203863Y0241912D01*
X0206162Y0239612D02*
X0207753Y0239612D01*
X0207357Y0238414D02*
X0206557Y0238414D01*
X0206557Y0237215D02*
X0207357Y0237215D01*
X0207357Y0236017D02*
X0206557Y0236017D01*
X0205970Y0234818D02*
X0207945Y0234818D01*
X0209144Y0233620D02*
X0204771Y0233620D01*
X0203863Y0231912D02*
X0206557Y0229217D01*
X0206557Y0225406D01*
X0203863Y0222712D01*
X0200052Y0222712D01*
X0197357Y0225406D01*
X0197357Y0229217D01*
X0200052Y0231912D01*
X0203863Y0231912D01*
X0204552Y0231223D02*
X0209363Y0231223D01*
X0210052Y0231912D02*
X0207357Y0229217D01*
X0207357Y0225406D01*
X0210052Y0222712D01*
X0213863Y0222712D01*
X0216557Y0225406D01*
X0216557Y0229217D01*
X0213863Y0231912D01*
X0210052Y0231912D01*
X0208165Y0230024D02*
X0205750Y0230024D01*
X0206557Y0228826D02*
X0207357Y0228826D01*
X0207357Y0227627D02*
X0206557Y0227627D01*
X0206557Y0226429D02*
X0207357Y0226429D01*
X0207534Y0225230D02*
X0206381Y0225230D01*
X0205183Y0224032D02*
X0208732Y0224032D01*
X0209931Y0222833D02*
X0203984Y0222833D01*
X0203863Y0221912D02*
X0200052Y0221912D01*
X0197357Y0219217D01*
X0197357Y0215406D01*
X0200052Y0212712D01*
X0203863Y0212712D01*
X0206557Y0215406D01*
X0206557Y0219217D01*
X0203863Y0221912D01*
X0204140Y0221635D02*
X0209775Y0221635D01*
X0210052Y0221912D02*
X0207357Y0219217D01*
X0207357Y0215406D01*
X0210052Y0212712D01*
X0213863Y0212712D01*
X0216557Y0215406D01*
X0216557Y0219217D01*
X0213863Y0221912D01*
X0210052Y0221912D01*
X0208577Y0220436D02*
X0205338Y0220436D01*
X0206537Y0219238D02*
X0207378Y0219238D01*
X0207357Y0218039D02*
X0206557Y0218039D01*
X0206557Y0216841D02*
X0207357Y0216841D01*
X0207357Y0215642D02*
X0206557Y0215642D01*
X0205595Y0214444D02*
X0208320Y0214444D01*
X0209519Y0213245D02*
X0204396Y0213245D01*
X0203863Y0211912D02*
X0200052Y0211912D01*
X0197357Y0209217D01*
X0197357Y0205406D01*
X0200052Y0202712D01*
X0203863Y0202712D01*
X0206557Y0205406D01*
X0206557Y0209217D01*
X0203863Y0211912D01*
X0204926Y0210848D02*
X0208989Y0210848D01*
X0210052Y0211912D02*
X0207357Y0209217D01*
X0207357Y0205406D01*
X0210052Y0202712D01*
X0213863Y0202712D01*
X0216557Y0205406D01*
X0216557Y0209217D01*
X0213863Y0211912D01*
X0210052Y0211912D01*
X0207790Y0209650D02*
X0206125Y0209650D01*
X0206557Y0208451D02*
X0207357Y0208451D01*
X0207357Y0207253D02*
X0206557Y0207253D01*
X0206557Y0206054D02*
X0207357Y0206054D01*
X0207908Y0204856D02*
X0206007Y0204856D01*
X0204808Y0203657D02*
X0209107Y0203657D01*
X0210052Y0201912D02*
X0207357Y0199217D01*
X0207357Y0195406D01*
X0210052Y0192712D01*
X0213863Y0192712D01*
X0216557Y0195406D01*
X0216557Y0199217D01*
X0213863Y0201912D01*
X0210052Y0201912D01*
X0209400Y0201260D02*
X0204515Y0201260D01*
X0203863Y0201912D02*
X0200052Y0201912D01*
X0197357Y0199217D01*
X0197357Y0195406D01*
X0200052Y0192712D01*
X0203863Y0192712D01*
X0206557Y0195406D01*
X0206557Y0199217D01*
X0203863Y0201912D01*
X0205713Y0200062D02*
X0208202Y0200062D01*
X0207357Y0198863D02*
X0206557Y0198863D01*
X0206557Y0197665D02*
X0207357Y0197665D01*
X0207357Y0196466D02*
X0206557Y0196466D01*
X0206419Y0195268D02*
X0207496Y0195268D01*
X0208695Y0194069D02*
X0205220Y0194069D01*
X0204022Y0192871D02*
X0209893Y0192871D01*
X0210052Y0191912D02*
X0207357Y0189217D01*
X0207357Y0185406D01*
X0210052Y0182712D01*
X0213863Y0182712D01*
X0216557Y0185406D01*
X0216557Y0189217D01*
X0213863Y0191912D01*
X0210052Y0191912D01*
X0209812Y0191672D02*
X0204103Y0191672D01*
X0203863Y0191912D02*
X0200052Y0191912D01*
X0197357Y0189217D01*
X0197357Y0185406D01*
X0200052Y0182712D01*
X0203863Y0182712D01*
X0206557Y0185406D01*
X0206557Y0189217D01*
X0203863Y0191912D01*
X0205301Y0190474D02*
X0208614Y0190474D01*
X0207415Y0189275D02*
X0206500Y0189275D01*
X0206557Y0188077D02*
X0207357Y0188077D01*
X0207357Y0186878D02*
X0206557Y0186878D01*
X0206557Y0185679D02*
X0207357Y0185679D01*
X0208283Y0184481D02*
X0205632Y0184481D01*
X0204434Y0183282D02*
X0209481Y0183282D01*
X0210052Y0181912D02*
X0207357Y0179217D01*
X0207357Y0175406D01*
X0210052Y0172712D01*
X0213863Y0172712D01*
X0216557Y0175406D01*
X0216557Y0179217D01*
X0213863Y0181912D01*
X0210052Y0181912D01*
X0209026Y0180885D02*
X0204889Y0180885D01*
X0203863Y0181912D02*
X0206557Y0179217D01*
X0206557Y0175406D01*
X0203863Y0172712D01*
X0200052Y0172712D01*
X0197357Y0175406D01*
X0197357Y0179217D01*
X0200052Y0181912D01*
X0203863Y0181912D01*
X0206088Y0179687D02*
X0207827Y0179687D01*
X0207357Y0178488D02*
X0206557Y0178488D01*
X0206557Y0177290D02*
X0207357Y0177290D01*
X0207357Y0176091D02*
X0206557Y0176091D01*
X0206044Y0174893D02*
X0207871Y0174893D01*
X0209070Y0173694D02*
X0204845Y0173694D01*
X0204477Y0171297D02*
X0209438Y0171297D01*
X0210052Y0171912D02*
X0207357Y0169217D01*
X0207357Y0165406D01*
X0210052Y0162712D01*
X0213863Y0162712D01*
X0216557Y0165406D01*
X0216557Y0169217D01*
X0213863Y0171912D01*
X0210052Y0171912D01*
X0208239Y0170099D02*
X0205676Y0170099D01*
X0206557Y0168900D02*
X0207357Y0168900D01*
X0207357Y0167702D02*
X0206557Y0167702D01*
X0206557Y0166503D02*
X0207357Y0166503D01*
X0207459Y0165305D02*
X0206456Y0165305D01*
X0208274Y0164106D02*
X0208658Y0164106D01*
X0209473Y0162908D02*
X0209856Y0162908D01*
X0214059Y0162908D02*
X0227039Y0162908D01*
X0227039Y0164106D02*
X0215257Y0164106D01*
X0216456Y0165305D02*
X0227039Y0165305D01*
X0227039Y0166503D02*
X0216557Y0166503D01*
X0216557Y0167702D02*
X0227039Y0167702D01*
X0227039Y0168900D02*
X0216557Y0168900D01*
X0215676Y0170099D02*
X0227039Y0170099D01*
X0227039Y0171297D02*
X0214477Y0171297D01*
X0214845Y0173694D02*
X0227039Y0173694D01*
X0227039Y0172496D02*
X0110253Y0172496D01*
X0111451Y0173694D02*
X0199070Y0173694D01*
X0197871Y0174893D02*
X0112650Y0174893D01*
X0113848Y0176091D02*
X0197357Y0176091D01*
X0197357Y0177290D02*
X0115047Y0177290D01*
X0116245Y0178488D02*
X0197357Y0178488D01*
X0197827Y0179687D02*
X0117444Y0179687D01*
X0118642Y0180885D02*
X0199026Y0180885D01*
X0199481Y0183282D02*
X0121039Y0183282D01*
X0119841Y0182084D02*
X0227039Y0182084D01*
X0227039Y0183282D02*
X0214434Y0183282D01*
X0215632Y0184481D02*
X0227039Y0184481D01*
X0227039Y0185679D02*
X0216557Y0185679D01*
X0216557Y0186878D02*
X0227039Y0186878D01*
X0227039Y0188077D02*
X0216557Y0188077D01*
X0216500Y0189275D02*
X0227039Y0189275D01*
X0227039Y0190474D02*
X0215301Y0190474D01*
X0214103Y0191672D02*
X0227039Y0191672D01*
X0227039Y0192871D02*
X0214022Y0192871D01*
X0215220Y0194069D02*
X0227039Y0194069D01*
X0227039Y0195268D02*
X0216419Y0195268D01*
X0216557Y0196466D02*
X0227039Y0196466D01*
X0227039Y0197665D02*
X0216557Y0197665D01*
X0216557Y0198863D02*
X0227039Y0198863D01*
X0227039Y0200062D02*
X0215713Y0200062D01*
X0214515Y0201260D02*
X0227039Y0201260D01*
X0227039Y0202459D02*
X0140216Y0202459D01*
X0141414Y0203657D02*
X0199107Y0203657D01*
X0197908Y0204856D02*
X0142613Y0204856D01*
X0143811Y0206054D02*
X0197357Y0206054D01*
X0197357Y0207253D02*
X0145010Y0207253D01*
X0146208Y0208451D02*
X0197357Y0208451D01*
X0197790Y0209650D02*
X0147407Y0209650D01*
X0148605Y0210848D02*
X0198989Y0210848D01*
X0199519Y0213245D02*
X0151002Y0213245D01*
X0149804Y0212047D02*
X0227039Y0212047D01*
X0227039Y0213245D02*
X0214396Y0213245D01*
X0215595Y0214444D02*
X0227039Y0214444D01*
X0227039Y0215642D02*
X0216557Y0215642D01*
X0216557Y0216841D02*
X0227039Y0216841D01*
X0227039Y0218039D02*
X0216557Y0218039D01*
X0216537Y0219238D02*
X0227039Y0219238D01*
X0227039Y0220436D02*
X0215338Y0220436D01*
X0214140Y0221635D02*
X0227039Y0221635D01*
X0227039Y0222833D02*
X0213984Y0222833D01*
X0215183Y0224032D02*
X0227039Y0224032D01*
X0227039Y0225230D02*
X0216381Y0225230D01*
X0216557Y0226429D02*
X0227039Y0226429D01*
X0227039Y0227627D02*
X0216557Y0227627D01*
X0216557Y0228826D02*
X0227039Y0228826D01*
X0227039Y0230024D02*
X0215750Y0230024D01*
X0214552Y0231223D02*
X0227039Y0231223D01*
X0227039Y0232421D02*
X0170178Y0232421D01*
X0168980Y0231223D02*
X0199363Y0231223D01*
X0198165Y0230024D02*
X0167781Y0230024D01*
X0166583Y0228826D02*
X0197357Y0228826D01*
X0197357Y0227627D02*
X0165384Y0227627D01*
X0164186Y0226429D02*
X0197357Y0226429D01*
X0197534Y0225230D02*
X0162987Y0225230D01*
X0161789Y0224032D02*
X0198732Y0224032D01*
X0199931Y0222833D02*
X0160590Y0222833D01*
X0159392Y0221635D02*
X0199775Y0221635D01*
X0198577Y0220436D02*
X0158193Y0220436D01*
X0156995Y0219238D02*
X0197378Y0219238D01*
X0197357Y0218039D02*
X0155796Y0218039D01*
X0154598Y0216841D02*
X0197357Y0216841D01*
X0197357Y0215642D02*
X0153399Y0215642D01*
X0152201Y0214444D02*
X0198320Y0214444D01*
X0199400Y0201260D02*
X0139017Y0201260D01*
X0137819Y0200062D02*
X0198202Y0200062D01*
X0197357Y0198863D02*
X0136620Y0198863D01*
X0135422Y0197665D02*
X0197357Y0197665D01*
X0197357Y0196466D02*
X0134223Y0196466D01*
X0133025Y0195268D02*
X0197496Y0195268D01*
X0198695Y0194069D02*
X0131826Y0194069D01*
X0130627Y0192871D02*
X0199893Y0192871D01*
X0199812Y0191672D02*
X0129429Y0191672D01*
X0128230Y0190474D02*
X0198614Y0190474D01*
X0197415Y0189275D02*
X0127032Y0189275D01*
X0125833Y0188077D02*
X0197357Y0188077D01*
X0197357Y0186878D02*
X0124635Y0186878D01*
X0123436Y0185679D02*
X0197357Y0185679D01*
X0198283Y0184481D02*
X0122238Y0184481D01*
X0113327Y0192871D02*
X0058710Y0192871D01*
X0059909Y0194069D02*
X0114519Y0194069D01*
X0115711Y0195268D02*
X0061107Y0195268D01*
X0062306Y0196466D02*
X0116903Y0196466D01*
X0118095Y0197665D02*
X0063504Y0197665D01*
X0064703Y0198863D02*
X0119287Y0198863D01*
X0120479Y0200062D02*
X0065901Y0200062D01*
X0067100Y0201260D02*
X0121671Y0201260D01*
X0122863Y0202459D02*
X0068298Y0202459D01*
X0069497Y0203657D02*
X0124055Y0203657D01*
X0125247Y0204856D02*
X0070695Y0204856D01*
X0071894Y0206054D02*
X0126439Y0206054D01*
X0127631Y0207253D02*
X0073092Y0207253D01*
X0074291Y0208451D02*
X0128824Y0208451D01*
X0130016Y0209650D02*
X0075489Y0209650D01*
X0076688Y0210848D02*
X0131208Y0210848D01*
X0132400Y0212047D02*
X0077886Y0212047D01*
X0079085Y0213245D02*
X0133592Y0213245D01*
X0134784Y0214444D02*
X0080283Y0214444D01*
X0081482Y0215642D02*
X0135976Y0215642D01*
X0137168Y0216841D02*
X0082680Y0216841D01*
X0083879Y0218039D02*
X0138360Y0218039D01*
X0139552Y0219238D02*
X0085077Y0219238D01*
X0086276Y0220436D02*
X0140744Y0220436D01*
X0141936Y0221635D02*
X0087474Y0221635D01*
X0088673Y0222833D02*
X0143128Y0222833D01*
X0144320Y0224032D02*
X0089871Y0224032D01*
X0091070Y0225230D02*
X0145512Y0225230D01*
X0146704Y0226429D02*
X0092268Y0226429D01*
X0093467Y0227627D02*
X0147896Y0227627D01*
X0149088Y0228826D02*
X0094666Y0228826D01*
X0095864Y0230024D02*
X0150280Y0230024D01*
X0151472Y0231223D02*
X0097063Y0231223D01*
X0098261Y0232421D02*
X0152664Y0232421D01*
X0153856Y0233620D02*
X0099460Y0233620D01*
X0100658Y0234818D02*
X0155048Y0234818D01*
X0156240Y0236017D02*
X0101857Y0236017D01*
X0103055Y0237215D02*
X0157432Y0237215D01*
X0158624Y0238414D02*
X0104254Y0238414D01*
X0105452Y0239612D02*
X0159816Y0239612D01*
X0161008Y0240811D02*
X0106651Y0240811D01*
X0107849Y0242010D02*
X0162200Y0242010D01*
X0163392Y0243208D02*
X0109048Y0243208D01*
X0110246Y0244407D02*
X0164584Y0244407D01*
X0165776Y0245605D02*
X0111445Y0245605D01*
X0112643Y0246804D02*
X0166968Y0246804D01*
X0168160Y0248002D02*
X0113842Y0248002D01*
X0115040Y0249201D02*
X0169352Y0249201D01*
X0170544Y0250399D02*
X0116239Y0250399D01*
X0117437Y0251598D02*
X0171736Y0251598D01*
X0172928Y0252796D02*
X0118636Y0252796D01*
X0119834Y0253995D02*
X0174120Y0253995D01*
X0175312Y0255193D02*
X0121033Y0255193D01*
X0122231Y0256392D02*
X0176504Y0256392D01*
X0177696Y0257590D02*
X0123430Y0257590D01*
X0124628Y0258789D02*
X0178888Y0258789D01*
X0180080Y0259987D02*
X0125827Y0259987D01*
X0127025Y0261186D02*
X0181272Y0261186D01*
X0182464Y0262384D02*
X0128224Y0262384D01*
X0129422Y0263583D02*
X0183656Y0263583D01*
X0184848Y0264781D02*
X0130621Y0264781D01*
X0131819Y0265980D02*
X0186040Y0265980D01*
X0187232Y0267178D02*
X0133018Y0267178D01*
X0134216Y0268377D02*
X0188424Y0268377D01*
X0189616Y0269575D02*
X0135415Y0269575D01*
X0136613Y0270774D02*
X0190808Y0270774D01*
X0192000Y0271972D02*
X0137812Y0271972D01*
X0139010Y0273171D02*
X0193192Y0273171D01*
X0194384Y0274369D02*
X0140209Y0274369D01*
X0141407Y0275568D02*
X0197357Y0275568D01*
X0197357Y0276766D02*
X0142606Y0276766D01*
X0143804Y0277965D02*
X0197357Y0277965D01*
X0197357Y0279163D02*
X0145003Y0279163D01*
X0142376Y0282759D02*
X0103539Y0282759D01*
X0103539Y0283957D02*
X0143574Y0283957D01*
X0141177Y0281560D02*
X0103539Y0281560D01*
X0103539Y0280362D02*
X0139979Y0280362D01*
X0138780Y0279163D02*
X0103539Y0279163D01*
X0103539Y0277965D02*
X0137582Y0277965D01*
X0136383Y0276766D02*
X0103539Y0276766D01*
X0103539Y0275568D02*
X0135185Y0275568D01*
X0133986Y0274369D02*
X0103539Y0274369D01*
X0103539Y0273171D02*
X0132788Y0273171D01*
X0131589Y0271972D02*
X0103539Y0271972D01*
X0103539Y0270774D02*
X0130391Y0270774D01*
X0129192Y0269575D02*
X0103539Y0269575D01*
X0103539Y0268377D02*
X0127994Y0268377D01*
X0126795Y0267178D02*
X0103539Y0267178D01*
X0103539Y0265980D02*
X0125597Y0265980D01*
X0124398Y0264781D02*
X0103539Y0264781D01*
X0103539Y0263583D02*
X0123200Y0263583D01*
X0122001Y0262384D02*
X0103524Y0262384D01*
X0102325Y0261186D02*
X0120803Y0261186D01*
X0119604Y0259987D02*
X0101127Y0259987D01*
X0099928Y0258789D02*
X0118406Y0258789D01*
X0117207Y0257590D02*
X0098730Y0257590D01*
X0097531Y0256392D02*
X0116009Y0256392D01*
X0114810Y0255193D02*
X0096333Y0255193D01*
X0095134Y0253995D02*
X0113612Y0253995D01*
X0112413Y0252796D02*
X0093936Y0252796D01*
X0092737Y0251598D02*
X0111215Y0251598D01*
X0110016Y0250399D02*
X0091539Y0250399D01*
X0090340Y0249201D02*
X0108818Y0249201D01*
X0107619Y0248002D02*
X0089142Y0248002D01*
X0087943Y0246804D02*
X0106421Y0246804D01*
X0105222Y0245605D02*
X0086745Y0245605D01*
X0085546Y0244407D02*
X0104024Y0244407D01*
X0102825Y0243208D02*
X0084348Y0243208D01*
X0083149Y0242010D02*
X0101627Y0242010D01*
X0100428Y0240811D02*
X0081951Y0240811D01*
X0080752Y0239612D02*
X0099230Y0239612D01*
X0098031Y0238414D02*
X0079554Y0238414D01*
X0078355Y0237215D02*
X0096833Y0237215D01*
X0095634Y0236017D02*
X0077157Y0236017D01*
X0075958Y0234818D02*
X0094436Y0234818D01*
X0093237Y0233620D02*
X0074760Y0233620D01*
X0073561Y0232421D02*
X0092039Y0232421D01*
X0090840Y0231223D02*
X0072363Y0231223D01*
X0071164Y0230024D02*
X0089641Y0230024D01*
X0088443Y0228826D02*
X0069966Y0228826D01*
X0068767Y0227627D02*
X0087244Y0227627D01*
X0086046Y0226429D02*
X0067568Y0226429D01*
X0066370Y0225230D02*
X0084847Y0225230D01*
X0083649Y0224032D02*
X0065171Y0224032D01*
X0063973Y0222833D02*
X0082450Y0222833D01*
X0081252Y0221635D02*
X0062774Y0221635D01*
X0061576Y0220436D02*
X0080053Y0220436D01*
X0078855Y0219238D02*
X0060377Y0219238D01*
X0059179Y0218039D02*
X0077656Y0218039D01*
X0076458Y0216841D02*
X0057980Y0216841D01*
X0056782Y0215642D02*
X0075259Y0215642D01*
X0074061Y0214444D02*
X0055583Y0214444D01*
X0054385Y0213245D02*
X0072862Y0213245D01*
X0071664Y0212047D02*
X0053186Y0212047D01*
X0051988Y0210848D02*
X0070465Y0210848D01*
X0069267Y0209650D02*
X0041952Y0209650D01*
X0042384Y0208451D02*
X0068068Y0208451D01*
X0066870Y0207253D02*
X0042384Y0207253D01*
X0042384Y0206054D02*
X0065671Y0206054D01*
X0064473Y0204856D02*
X0041833Y0204856D01*
X0040635Y0203657D02*
X0063274Y0203657D01*
X0062076Y0202459D02*
X0024039Y0202459D01*
X0024039Y0203657D02*
X0024934Y0203657D01*
X0025227Y0201260D02*
X0024039Y0201260D01*
X0019639Y0201260D02*
X0017539Y0201260D01*
X0017539Y0200062D02*
X0019639Y0200062D01*
X0019639Y0198863D02*
X0017539Y0198863D01*
X0017539Y0197665D02*
X0019639Y0197665D01*
X0019639Y0196466D02*
X0017539Y0196466D01*
X0017539Y0195268D02*
X0019639Y0195268D01*
X0020168Y0194069D02*
X0017539Y0194069D01*
X0017539Y0192871D02*
X0021367Y0192871D01*
X0022565Y0191672D02*
X0017539Y0191672D01*
X0017539Y0190474D02*
X0023764Y0190474D01*
X0023242Y0189275D02*
X0017539Y0189275D01*
X0017539Y0188077D02*
X0023184Y0188077D01*
X0023184Y0186878D02*
X0017539Y0186878D01*
X0017539Y0185679D02*
X0023184Y0185679D01*
X0024110Y0184481D02*
X0017539Y0184481D01*
X0017539Y0183282D02*
X0025308Y0183282D01*
X0025879Y0181912D02*
X0023184Y0179217D01*
X0023184Y0175406D01*
X0025879Y0172712D01*
X0029690Y0172712D01*
X0032384Y0175406D01*
X0032384Y0179217D01*
X0029690Y0181912D01*
X0025879Y0181912D01*
X0024853Y0180885D02*
X0017539Y0180885D01*
X0017539Y0179687D02*
X0023654Y0179687D01*
X0023184Y0178488D02*
X0017539Y0178488D01*
X0017539Y0177290D02*
X0023184Y0177290D01*
X0023184Y0176091D02*
X0017539Y0176091D01*
X0017539Y0174893D02*
X0023698Y0174893D01*
X0024896Y0173694D02*
X0017539Y0173694D01*
X0017539Y0172496D02*
X0093063Y0172496D01*
X0094255Y0173694D02*
X0040672Y0173694D01*
X0039690Y0172712D02*
X0042384Y0175406D01*
X0042384Y0179217D01*
X0039690Y0181912D01*
X0035879Y0181912D01*
X0033184Y0179217D01*
X0033184Y0175406D01*
X0035879Y0172712D01*
X0039690Y0172712D01*
X0039690Y0171912D02*
X0035879Y0171912D01*
X0033184Y0169217D01*
X0033184Y0165406D01*
X0035879Y0162712D01*
X0039690Y0162712D01*
X0042384Y0165406D01*
X0042384Y0169217D01*
X0039690Y0171912D01*
X0040304Y0171297D02*
X0091871Y0171297D01*
X0090679Y0170099D02*
X0041503Y0170099D01*
X0042384Y0168900D02*
X0089487Y0168900D01*
X0088295Y0167702D02*
X0042384Y0167702D01*
X0042384Y0166503D02*
X0087103Y0166503D01*
X0085911Y0165305D02*
X0042283Y0165305D01*
X0041084Y0164106D02*
X0084719Y0164106D01*
X0083527Y0162908D02*
X0039886Y0162908D01*
X0039690Y0161912D02*
X0035879Y0161912D01*
X0033184Y0159217D01*
X0033184Y0155406D01*
X0035879Y0152712D01*
X0039690Y0152712D01*
X0042384Y0155406D01*
X0042384Y0159217D01*
X0039690Y0161912D01*
X0039892Y0161709D02*
X0082335Y0161709D01*
X0081143Y0160511D02*
X0041091Y0160511D01*
X0042289Y0159312D02*
X0079951Y0159312D01*
X0078759Y0158114D02*
X0042384Y0158114D01*
X0042384Y0156915D02*
X0077567Y0156915D01*
X0076375Y0155717D02*
X0042384Y0155717D01*
X0041496Y0154518D02*
X0075183Y0154518D01*
X0073991Y0153320D02*
X0040298Y0153320D01*
X0039690Y0151912D02*
X0035879Y0151912D01*
X0033184Y0149217D01*
X0033184Y0145406D01*
X0035879Y0142712D01*
X0039690Y0142712D01*
X0042384Y0145406D01*
X0042384Y0149217D01*
X0039690Y0151912D01*
X0040679Y0150923D02*
X0071607Y0150923D01*
X0072799Y0152121D02*
X0017539Y0152121D01*
X0017539Y0150923D02*
X0024890Y0150923D01*
X0025879Y0151912D02*
X0023184Y0149217D01*
X0023184Y0145406D01*
X0025879Y0142712D01*
X0029690Y0142712D01*
X0032384Y0145406D01*
X0032384Y0149217D01*
X0029690Y0151912D01*
X0025879Y0151912D01*
X0025879Y0152712D02*
X0029690Y0152712D01*
X0032384Y0155406D01*
X0032384Y0159217D01*
X0029690Y0161912D01*
X0025879Y0161912D01*
X0023184Y0159217D01*
X0023184Y0155406D01*
X0025879Y0152712D01*
X0025271Y0153320D02*
X0017539Y0153320D01*
X0017539Y0154518D02*
X0024072Y0154518D01*
X0023184Y0155717D02*
X0017539Y0155717D01*
X0017539Y0156915D02*
X0023184Y0156915D01*
X0023184Y0158114D02*
X0017539Y0158114D01*
X0017539Y0159312D02*
X0023279Y0159312D01*
X0024478Y0160511D02*
X0017539Y0160511D01*
X0017539Y0161709D02*
X0025676Y0161709D01*
X0025879Y0162712D02*
X0029690Y0162712D01*
X0032384Y0165406D01*
X0032384Y0169217D01*
X0029690Y0171912D01*
X0025879Y0171912D01*
X0023184Y0169217D01*
X0023184Y0165406D01*
X0025879Y0162712D01*
X0025683Y0162908D02*
X0017539Y0162908D01*
X0017539Y0164106D02*
X0024484Y0164106D01*
X0023286Y0165305D02*
X0017539Y0165305D01*
X0017539Y0166503D02*
X0023184Y0166503D01*
X0023184Y0167702D02*
X0017539Y0167702D01*
X0017539Y0168900D02*
X0023184Y0168900D01*
X0024066Y0170099D02*
X0017539Y0170099D01*
X0017539Y0171297D02*
X0025264Y0171297D01*
X0030304Y0171297D02*
X0035264Y0171297D01*
X0034066Y0170099D02*
X0031503Y0170099D01*
X0032384Y0168900D02*
X0033184Y0168900D01*
X0033184Y0167702D02*
X0032384Y0167702D01*
X0032384Y0166503D02*
X0033184Y0166503D01*
X0033286Y0165305D02*
X0032283Y0165305D01*
X0031084Y0164106D02*
X0034484Y0164106D01*
X0035683Y0162908D02*
X0029886Y0162908D01*
X0029892Y0161709D02*
X0035676Y0161709D01*
X0034478Y0160511D02*
X0031091Y0160511D01*
X0032289Y0159312D02*
X0033279Y0159312D01*
X0033184Y0158114D02*
X0032384Y0158114D01*
X0032384Y0156915D02*
X0033184Y0156915D01*
X0033184Y0155717D02*
X0032384Y0155717D01*
X0031496Y0154518D02*
X0034072Y0154518D01*
X0035271Y0153320D02*
X0030298Y0153320D01*
X0030679Y0150923D02*
X0034890Y0150923D01*
X0033691Y0149724D02*
X0031877Y0149724D01*
X0032384Y0148526D02*
X0033184Y0148526D01*
X0033184Y0147327D02*
X0032384Y0147327D01*
X0032384Y0146129D02*
X0033184Y0146129D01*
X0033661Y0144930D02*
X0031908Y0144930D01*
X0030709Y0143732D02*
X0034859Y0143732D01*
X0035302Y0141335D02*
X0030267Y0141335D01*
X0031465Y0140136D02*
X0034103Y0140136D01*
X0033184Y0138938D02*
X0032384Y0138938D01*
X0032384Y0137739D02*
X0033184Y0137739D01*
X0033184Y0136541D02*
X0032384Y0136541D01*
X0032320Y0135342D02*
X0033249Y0135342D01*
X0037784Y0127312D02*
X0032583Y0122110D01*
X0023939Y0122110D01*
X0017539Y0117910D01*
X0017439Y0092510D01*
X0017439Y0020110D01*
X0024039Y0013510D01*
X0042239Y0013510D01*
X0045139Y0010610D01*
X0107939Y0010610D01*
X0118539Y0021210D01*
X0133039Y0021210D01*
X0141539Y0029710D01*
X0141539Y0030610D01*
X0144479Y0033469D02*
X0145969Y0033469D01*
X0145639Y0032309D02*
X0143237Y0034710D01*
X0139840Y0034710D01*
X0137439Y0032309D01*
X0137439Y0028912D01*
X0137534Y0028817D01*
X0134839Y0026121D01*
X0134839Y0027309D01*
X0134339Y0027809D01*
X0134339Y0036405D01*
X0134933Y0035810D01*
X0138744Y0035810D01*
X0141439Y0038505D01*
X0141439Y0041899D01*
X0144039Y0044499D01*
X0144039Y0046705D01*
X0144933Y0045810D01*
X0148744Y0045810D01*
X0151439Y0048505D01*
X0151439Y0052316D01*
X0148744Y0055010D01*
X0144933Y0055010D01*
X0144039Y0054116D01*
X0144039Y0059599D01*
X0144687Y0060248D01*
X0154938Y0070310D01*
X0154950Y0070310D01*
X0155587Y0070947D01*
X0156230Y0071579D01*
X0156230Y0071591D01*
X0198702Y0114062D01*
X0200052Y0112712D01*
X0203863Y0112712D01*
X0205139Y0113988D01*
X0205139Y0110636D01*
X0203863Y0111912D01*
X0200052Y0111912D01*
X0197357Y0109217D01*
X0197357Y0105406D01*
X0200052Y0102712D01*
X0203863Y0102712D01*
X0205139Y0103988D01*
X0205139Y0100636D01*
X0203863Y0101912D01*
X0200052Y0101912D01*
X0197357Y0099217D01*
X0197357Y0095406D01*
X0200052Y0092712D01*
X0203863Y0092712D01*
X0205139Y0093988D01*
X0205139Y0091422D01*
X0170727Y0057010D01*
X0169439Y0055722D01*
X0169439Y0054316D01*
X0168744Y0055010D01*
X0164933Y0055010D01*
X0162239Y0052316D01*
X0162239Y0048505D01*
X0163033Y0047710D01*
X0161027Y0047710D01*
X0158327Y0045010D01*
X0154933Y0045010D01*
X0152239Y0042316D01*
X0152239Y0038505D01*
X0154933Y0035810D01*
X0158744Y0035810D01*
X0161439Y0038505D01*
X0161439Y0041899D01*
X0162850Y0043310D01*
X0163233Y0043310D01*
X0162239Y0042316D01*
X0162239Y0038505D01*
X0164933Y0035810D01*
X0168744Y0035810D01*
X0171439Y0038505D01*
X0171439Y0042316D01*
X0170444Y0043310D01*
X0171750Y0043310D01*
X0173039Y0044599D01*
X0173839Y0045399D01*
X0173839Y0046905D01*
X0174933Y0045810D01*
X0178744Y0045810D01*
X0181439Y0048505D01*
X0181439Y0052316D01*
X0178744Y0055010D01*
X0174950Y0055010D01*
X0209539Y0089599D01*
X0209539Y0093225D01*
X0210052Y0092712D01*
X0211557Y0092712D01*
X0211557Y0096912D01*
X0212357Y0096912D01*
X0212357Y0092712D01*
X0213863Y0092712D01*
X0216557Y0095406D01*
X0216557Y0096912D01*
X0212358Y0096912D01*
X0212358Y0097712D01*
X0216557Y0097712D01*
X0216557Y0099217D01*
X0213863Y0101912D01*
X0212357Y0101912D01*
X0212357Y0097712D01*
X0211557Y0097712D01*
X0211557Y0101912D01*
X0210052Y0101912D01*
X0209539Y0101398D01*
X0209539Y0103225D01*
X0210052Y0102712D01*
X0213863Y0102712D01*
X0216557Y0105406D01*
X0216557Y0109217D01*
X0213863Y0111912D01*
X0210052Y0111912D01*
X0209539Y0111398D01*
X0209539Y0113225D01*
X0210052Y0112712D01*
X0213863Y0112712D01*
X0216557Y0115406D01*
X0216557Y0119217D01*
X0213863Y0121912D01*
X0210052Y0121912D01*
X0209539Y0121398D01*
X0209539Y0122822D01*
X0208250Y0124110D01*
X0206557Y0125803D01*
X0206557Y0129217D01*
X0205764Y0130010D01*
X0207767Y0130010D01*
X0209056Y0131299D01*
X0210469Y0132712D01*
X0213863Y0132712D01*
X0216557Y0135406D01*
X0216557Y0139217D01*
X0215764Y0140010D01*
X0220950Y0140010D01*
X0230150Y0149210D01*
X0230339Y0149399D01*
X0230339Y0121721D01*
X0229250Y0122810D01*
X0222548Y0129512D01*
X0216263Y0129512D01*
X0213863Y0131912D01*
X0210052Y0131912D01*
X0207357Y0129217D01*
X0207357Y0125406D01*
X0210052Y0122712D01*
X0213863Y0122712D01*
X0216263Y0125112D01*
X0220726Y0125112D01*
X0226139Y0119699D01*
X0226139Y0099522D01*
X0199639Y0073022D01*
X0199639Y0054116D01*
X0198744Y0055010D01*
X0194933Y0055010D01*
X0192239Y0052316D01*
X0192239Y0048505D01*
X0193133Y0047610D01*
X0190544Y0047610D01*
X0191439Y0048505D01*
X0191439Y0052316D01*
X0188744Y0055010D01*
X0184933Y0055010D01*
X0182239Y0052316D01*
X0182239Y0048505D01*
X0183133Y0047610D01*
X0182727Y0047610D01*
X0180927Y0045810D01*
X0179639Y0044522D01*
X0179639Y0044116D01*
X0178744Y0045010D01*
X0174933Y0045010D01*
X0172239Y0042316D01*
X0172239Y0038505D01*
X0174933Y0035810D01*
X0178527Y0035810D01*
X0177027Y0034310D01*
X0151350Y0034310D01*
X0149297Y0036363D01*
X0151439Y0038505D01*
X0151439Y0042316D01*
X0148744Y0045010D01*
X0144933Y0045010D01*
X0142239Y0042316D01*
X0142239Y0038505D01*
X0144639Y0036105D01*
X0144639Y0034799D01*
X0149527Y0029910D01*
X0153927Y0029910D01*
X0145339Y0021321D01*
X0145339Y0024009D01*
X0142937Y0026410D01*
X0141350Y0026410D01*
X0141450Y0026510D01*
X0143237Y0026510D01*
X0145639Y0028912D01*
X0145639Y0032309D01*
X0145639Y0032270D02*
X0147167Y0032270D01*
X0148366Y0031072D02*
X0145639Y0031072D01*
X0145639Y0029873D02*
X0153890Y0029873D01*
X0152692Y0028675D02*
X0145401Y0028675D01*
X0144203Y0027476D02*
X0151493Y0027476D01*
X0150295Y0026277D02*
X0143070Y0026277D01*
X0144268Y0025079D02*
X0149096Y0025079D01*
X0147898Y0023880D02*
X0145339Y0023880D01*
X0145339Y0022682D02*
X0146699Y0022682D01*
X0145501Y0021483D02*
X0145339Y0021483D01*
X0148128Y0017888D02*
X0236060Y0017888D01*
X0236060Y0019086D02*
X0171213Y0019086D01*
X0172412Y0020285D02*
X0236060Y0020285D01*
X0236060Y0021483D02*
X0185523Y0021483D01*
X0186722Y0022682D02*
X0236060Y0022682D01*
X0236060Y0023880D02*
X0187920Y0023880D01*
X0189119Y0025079D02*
X0236060Y0025079D01*
X0236060Y0026277D02*
X0190317Y0026277D01*
X0189939Y0029010D02*
X0183539Y0022610D01*
X0168939Y0022610D01*
X0168339Y0022010D01*
X0165464Y0019086D02*
X0149326Y0019086D01*
X0150525Y0020285D02*
X0164266Y0020285D01*
X0164239Y0021483D02*
X0151723Y0021483D01*
X0152922Y0022682D02*
X0164239Y0022682D01*
X0164411Y0023880D02*
X0154120Y0023880D01*
X0155319Y0025079D02*
X0165609Y0025079D01*
X0171068Y0025079D02*
X0182896Y0025079D01*
X0184095Y0026277D02*
X0156517Y0026277D01*
X0156339Y0029210D02*
X0184239Y0029210D01*
X0186839Y0031810D01*
X0186839Y0040410D01*
X0183639Y0045410D02*
X0181839Y0043610D01*
X0181839Y0036010D01*
X0177939Y0032110D01*
X0150439Y0032110D01*
X0146839Y0035710D01*
X0146839Y0040410D01*
X0143679Y0037064D02*
X0139998Y0037064D01*
X0141196Y0038263D02*
X0142481Y0038263D01*
X0142239Y0039461D02*
X0141439Y0039461D01*
X0141439Y0040660D02*
X0142239Y0040660D01*
X0142239Y0041858D02*
X0141439Y0041858D01*
X0142596Y0043057D02*
X0142980Y0043057D01*
X0143795Y0044255D02*
X0144178Y0044255D01*
X0144039Y0045454D02*
X0158771Y0045454D01*
X0158744Y0045810D02*
X0161439Y0048505D01*
X0161439Y0052316D01*
X0158744Y0055010D01*
X0154933Y0055010D01*
X0152239Y0052316D01*
X0152239Y0048505D01*
X0154933Y0045810D01*
X0158744Y0045810D01*
X0159586Y0046652D02*
X0159969Y0046652D01*
X0160784Y0047851D02*
X0162893Y0047851D01*
X0162239Y0049049D02*
X0161439Y0049049D01*
X0161439Y0050248D02*
X0162239Y0050248D01*
X0162239Y0051446D02*
X0161439Y0051446D01*
X0161109Y0052645D02*
X0162568Y0052645D01*
X0163766Y0053843D02*
X0159911Y0053843D01*
X0161939Y0045510D02*
X0156839Y0040410D01*
X0159998Y0037064D02*
X0163679Y0037064D01*
X0162481Y0038263D02*
X0161196Y0038263D01*
X0161439Y0039461D02*
X0162239Y0039461D01*
X0162239Y0040660D02*
X0161439Y0040660D01*
X0161439Y0041858D02*
X0162239Y0041858D01*
X0162596Y0043057D02*
X0162980Y0043057D01*
X0161939Y0045510D02*
X0170839Y0045510D01*
X0171639Y0046310D01*
X0171639Y0054810D01*
X0207339Y0090510D01*
X0207339Y0121910D01*
X0202339Y0126910D01*
X0201556Y0126910D01*
X0201957Y0127312D01*
X0206557Y0126952D02*
X0207357Y0126952D01*
X0207357Y0125754D02*
X0206606Y0125754D01*
X0207805Y0124555D02*
X0208208Y0124555D01*
X0209003Y0123357D02*
X0209407Y0123357D01*
X0209539Y0122158D02*
X0223679Y0122158D01*
X0224878Y0120960D02*
X0214815Y0120960D01*
X0216013Y0119761D02*
X0226076Y0119761D01*
X0226139Y0118563D02*
X0216557Y0118563D01*
X0216557Y0117364D02*
X0226139Y0117364D01*
X0226139Y0116166D02*
X0216557Y0116166D01*
X0216118Y0114967D02*
X0226139Y0114967D01*
X0226139Y0113769D02*
X0214920Y0113769D01*
X0214403Y0111372D02*
X0226139Y0111372D01*
X0226139Y0112570D02*
X0209539Y0112570D01*
X0205139Y0112570D02*
X0197210Y0112570D01*
X0196011Y0111372D02*
X0199512Y0111372D01*
X0198314Y0110173D02*
X0194813Y0110173D01*
X0193614Y0108975D02*
X0197357Y0108975D01*
X0197357Y0107776D02*
X0192416Y0107776D01*
X0191217Y0106578D02*
X0197357Y0106578D01*
X0197385Y0105379D02*
X0190019Y0105379D01*
X0188820Y0104181D02*
X0198583Y0104181D01*
X0199782Y0102982D02*
X0187622Y0102982D01*
X0186423Y0101784D02*
X0199924Y0101784D01*
X0198725Y0100585D02*
X0185225Y0100585D01*
X0184026Y0099387D02*
X0197527Y0099387D01*
X0197357Y0098188D02*
X0182828Y0098188D01*
X0181629Y0096990D02*
X0197357Y0096990D01*
X0197357Y0095791D02*
X0180431Y0095791D01*
X0179232Y0094593D02*
X0198171Y0094593D01*
X0199370Y0093394D02*
X0178034Y0093394D01*
X0176835Y0092196D02*
X0205139Y0092196D01*
X0205139Y0093394D02*
X0204545Y0093394D01*
X0204714Y0090997D02*
X0175637Y0090997D01*
X0174438Y0089799D02*
X0203516Y0089799D01*
X0202317Y0088600D02*
X0173240Y0088600D01*
X0172041Y0087402D02*
X0201119Y0087402D01*
X0199920Y0086203D02*
X0170843Y0086203D01*
X0169644Y0085005D02*
X0198722Y0085005D01*
X0197523Y0083806D02*
X0168446Y0083806D01*
X0167247Y0082608D02*
X0196325Y0082608D01*
X0195126Y0081409D02*
X0166049Y0081409D01*
X0164850Y0080210D02*
X0193928Y0080210D01*
X0192729Y0079012D02*
X0163652Y0079012D01*
X0162453Y0077813D02*
X0191531Y0077813D01*
X0190332Y0076615D02*
X0161255Y0076615D01*
X0160056Y0075416D02*
X0189134Y0075416D01*
X0187935Y0074218D02*
X0158858Y0074218D01*
X0157659Y0073019D02*
X0186737Y0073019D01*
X0185538Y0071821D02*
X0156461Y0071821D01*
X0155262Y0070622D02*
X0184339Y0070622D01*
X0183141Y0069424D02*
X0154035Y0069424D01*
X0152814Y0068225D02*
X0181942Y0068225D01*
X0180744Y0067027D02*
X0151593Y0067027D01*
X0150372Y0065828D02*
X0179545Y0065828D01*
X0178347Y0064630D02*
X0149151Y0064630D01*
X0147930Y0063431D02*
X0177148Y0063431D01*
X0175950Y0062233D02*
X0146710Y0062233D01*
X0145489Y0061034D02*
X0174751Y0061034D01*
X0173553Y0059836D02*
X0144275Y0059836D01*
X0144039Y0058637D02*
X0172354Y0058637D01*
X0171156Y0057439D02*
X0144039Y0057439D01*
X0144039Y0056240D02*
X0169957Y0056240D01*
X0169439Y0055042D02*
X0144039Y0055042D01*
X0141839Y0060510D02*
X0141839Y0045410D01*
X0136839Y0040410D01*
X0138799Y0035866D02*
X0144639Y0035866D01*
X0144770Y0034667D02*
X0143280Y0034667D01*
X0139797Y0034667D02*
X0134339Y0034667D01*
X0134339Y0033469D02*
X0138599Y0033469D01*
X0137439Y0032270D02*
X0134339Y0032270D01*
X0134339Y0031072D02*
X0137439Y0031072D01*
X0137439Y0029873D02*
X0134339Y0029873D01*
X0134339Y0028675D02*
X0137392Y0028675D01*
X0136193Y0027476D02*
X0134671Y0027476D01*
X0134839Y0026277D02*
X0134995Y0026277D01*
X0132139Y0027010D02*
X0130739Y0025610D01*
X0132139Y0027010D02*
X0132139Y0057310D01*
X0189739Y0114910D01*
X0189739Y0124810D01*
X0197139Y0132210D01*
X0206856Y0132210D01*
X0211957Y0137312D01*
X0215295Y0134144D02*
X0230339Y0134144D01*
X0230339Y0135342D02*
X0216493Y0135342D01*
X0216557Y0136541D02*
X0230339Y0136541D01*
X0230339Y0137739D02*
X0216557Y0137739D01*
X0216557Y0138938D02*
X0230339Y0138938D01*
X0230339Y0140136D02*
X0221076Y0140136D01*
X0222274Y0141335D02*
X0230339Y0141335D01*
X0230339Y0142533D02*
X0223473Y0142533D01*
X0224671Y0143732D02*
X0230339Y0143732D01*
X0230339Y0144930D02*
X0225870Y0144930D01*
X0227068Y0146129D02*
X0230339Y0146129D01*
X0230339Y0147327D02*
X0228267Y0147327D01*
X0229465Y0148526D02*
X0230339Y0148526D01*
X0226838Y0152121D02*
X0107561Y0152121D01*
X0108759Y0153320D02*
X0199444Y0153320D01*
X0198246Y0154518D02*
X0109958Y0154518D01*
X0111156Y0155717D02*
X0197357Y0155717D01*
X0197357Y0156915D02*
X0112355Y0156915D01*
X0113553Y0158114D02*
X0197357Y0158114D01*
X0197453Y0159312D02*
X0114752Y0159312D01*
X0115950Y0160511D02*
X0193827Y0160511D01*
X0192628Y0161709D02*
X0117149Y0161709D01*
X0118347Y0162908D02*
X0191430Y0162908D01*
X0191439Y0166010D02*
X0194839Y0162610D01*
X0206659Y0162610D01*
X0211957Y0157312D01*
X0215264Y0160511D02*
X0227039Y0160511D01*
X0227039Y0161709D02*
X0214065Y0161709D01*
X0216462Y0159312D02*
X0227039Y0159312D01*
X0227039Y0158114D02*
X0216557Y0158114D01*
X0216557Y0156915D02*
X0227039Y0156915D01*
X0227039Y0155717D02*
X0216557Y0155717D01*
X0215669Y0154518D02*
X0227039Y0154518D01*
X0227039Y0153320D02*
X0214471Y0153320D01*
X0214852Y0150923D02*
X0225640Y0150923D01*
X0224441Y0149724D02*
X0216051Y0149724D01*
X0216557Y0148526D02*
X0223243Y0148526D01*
X0222044Y0147327D02*
X0216557Y0147327D01*
X0216557Y0146129D02*
X0220846Y0146129D01*
X0219647Y0144930D02*
X0216081Y0144930D01*
X0207834Y0144930D02*
X0206081Y0144930D01*
X0206557Y0146129D02*
X0207357Y0146129D01*
X0207357Y0147327D02*
X0206557Y0147327D01*
X0206557Y0148526D02*
X0207357Y0148526D01*
X0207864Y0149724D02*
X0206051Y0149724D01*
X0204852Y0150923D02*
X0209063Y0150923D01*
X0209444Y0153320D02*
X0204471Y0153320D01*
X0205669Y0154518D02*
X0208246Y0154518D01*
X0207357Y0155717D02*
X0206557Y0155717D01*
X0206557Y0156915D02*
X0207357Y0156915D01*
X0207357Y0158114D02*
X0206557Y0158114D01*
X0206462Y0159312D02*
X0206846Y0159312D01*
X0199063Y0150923D02*
X0106362Y0150923D01*
X0106039Y0148510D02*
X0081039Y0123510D01*
X0081039Y0095910D01*
X0080939Y0094210D01*
X0080939Y0091410D01*
X0069239Y0079710D01*
X0071942Y0076615D02*
X0083332Y0076615D01*
X0083639Y0077510D02*
X0080739Y0074610D01*
X0064439Y0074610D01*
X0053439Y0085610D01*
X0053439Y0097510D01*
X0049279Y0104181D02*
X0057870Y0104181D01*
X0056671Y0105379D02*
X0048081Y0105379D01*
X0046882Y0106578D02*
X0056439Y0106578D01*
X0056439Y0107776D02*
X0046539Y0107776D01*
X0046539Y0108975D02*
X0055763Y0108975D01*
X0054564Y0110173D02*
X0046539Y0110173D01*
X0046539Y0111372D02*
X0053366Y0111372D01*
X0052167Y0112570D02*
X0045637Y0112570D01*
X0044439Y0113769D02*
X0050969Y0113769D01*
X0049770Y0114967D02*
X0043240Y0114967D01*
X0042384Y0116166D02*
X0048572Y0116166D01*
X0047939Y0117364D02*
X0042384Y0117364D01*
X0042384Y0118563D02*
X0047939Y0118563D01*
X0047939Y0119761D02*
X0041840Y0119761D01*
X0040642Y0120960D02*
X0047939Y0120960D01*
X0047939Y0122158D02*
X0035742Y0122158D01*
X0034927Y0120960D02*
X0034544Y0120960D01*
X0033728Y0119761D02*
X0031840Y0119761D01*
X0032384Y0118563D02*
X0033184Y0118563D01*
X0033184Y0117364D02*
X0032384Y0117364D01*
X0032384Y0116166D02*
X0033184Y0116166D01*
X0033240Y0114967D02*
X0033623Y0114967D01*
X0034439Y0113769D02*
X0034822Y0113769D01*
X0034839Y0112570D02*
X0039414Y0112570D01*
X0040230Y0111372D02*
X0040613Y0111372D01*
X0041428Y0110173D02*
X0041812Y0110173D01*
X0044339Y0110757D02*
X0044339Y0106010D01*
X0047439Y0102910D01*
X0047439Y0089210D01*
X0022239Y0064010D01*
X0022239Y0022610D01*
X0026639Y0018210D01*
X0045039Y0018210D01*
X0048339Y0014910D01*
X0103339Y0014910D01*
X0112139Y0023710D01*
X0112139Y0042710D01*
X0114639Y0045210D01*
X0122039Y0045210D01*
X0126839Y0040410D01*
X0129499Y0044255D02*
X0129939Y0044255D01*
X0129939Y0045454D02*
X0124906Y0045454D01*
X0124091Y0046652D02*
X0123708Y0046652D01*
X0122893Y0047851D02*
X0120784Y0047851D01*
X0121439Y0049049D02*
X0122239Y0049049D01*
X0122239Y0050248D02*
X0121439Y0050248D01*
X0121439Y0051446D02*
X0122239Y0051446D01*
X0122568Y0052645D02*
X0121109Y0052645D01*
X0119911Y0053843D02*
X0123766Y0053843D01*
X0129911Y0053843D02*
X0129939Y0053843D01*
X0129939Y0055042D02*
X0114139Y0055042D01*
X0115067Y0056240D02*
X0129939Y0056240D01*
X0129939Y0057439D02*
X0116239Y0057439D01*
X0116239Y0058637D02*
X0130354Y0058637D01*
X0131553Y0059836D02*
X0116239Y0059836D01*
X0116013Y0061034D02*
X0132751Y0061034D01*
X0133950Y0062233D02*
X0114814Y0062233D01*
X0113271Y0063431D02*
X0135148Y0063431D01*
X0136347Y0064630D02*
X0114469Y0064630D01*
X0115668Y0065828D02*
X0137545Y0065828D01*
X0138744Y0067027D02*
X0116866Y0067027D01*
X0118065Y0068225D02*
X0139942Y0068225D01*
X0141141Y0069424D02*
X0119263Y0069424D01*
X0120462Y0070622D02*
X0142339Y0070622D01*
X0143538Y0071821D02*
X0121661Y0071821D01*
X0122859Y0073019D02*
X0144737Y0073019D01*
X0145935Y0074218D02*
X0128245Y0074218D01*
X0129443Y0075416D02*
X0147134Y0075416D01*
X0148332Y0076615D02*
X0129639Y0076615D01*
X0129639Y0077813D02*
X0149531Y0077813D01*
X0150729Y0079012D02*
X0129635Y0079012D01*
X0128437Y0080210D02*
X0151928Y0080210D01*
X0153126Y0081409D02*
X0127238Y0081409D01*
X0123839Y0081409D02*
X0089539Y0081409D01*
X0089539Y0082608D02*
X0154325Y0082608D01*
X0155523Y0083806D02*
X0089539Y0083806D01*
X0089539Y0085005D02*
X0156722Y0085005D01*
X0157920Y0086203D02*
X0089539Y0086203D01*
X0089539Y0087402D02*
X0159119Y0087402D01*
X0160317Y0088600D02*
X0089539Y0088600D01*
X0089539Y0089799D02*
X0161516Y0089799D01*
X0162714Y0090997D02*
X0089539Y0090997D01*
X0089539Y0092196D02*
X0163913Y0092196D01*
X0165111Y0093394D02*
X0124984Y0093394D01*
X0125207Y0094593D02*
X0146173Y0094593D01*
X0144158Y0099630D02*
X0125207Y0099630D01*
X0125207Y0101242D01*
X0124270Y0102180D01*
X0115858Y0102180D01*
X0115814Y0102136D01*
X0115770Y0102180D01*
X0107358Y0102180D01*
X0106420Y0101242D01*
X0106420Y0100732D01*
X0098789Y0100732D01*
X0098621Y0101138D01*
X0097327Y0102432D01*
X0095636Y0103132D01*
X0087806Y0103132D01*
X0086116Y0102432D01*
X0084822Y0101138D01*
X0084121Y0099447D01*
X0084121Y0097617D01*
X0084822Y0095927D01*
X0085413Y0095335D01*
X0085139Y0095061D01*
X0085139Y0078422D01*
X0081127Y0074410D01*
X0055227Y0074410D01*
X0053939Y0073122D01*
X0039839Y0059022D01*
X0039839Y0053916D01*
X0038744Y0055010D01*
X0034933Y0055010D01*
X0032239Y0052316D01*
X0032239Y0048505D01*
X0034933Y0045810D01*
X0038744Y0045810D01*
X0039839Y0046905D01*
X0039839Y0046521D01*
X0038327Y0045010D01*
X0034933Y0045010D01*
X0032239Y0042316D01*
X0032239Y0038505D01*
X0034933Y0035810D01*
X0038744Y0035810D01*
X0041439Y0038505D01*
X0041439Y0041899D01*
X0042750Y0043210D01*
X0043133Y0043210D01*
X0042239Y0042316D01*
X0042239Y0038505D01*
X0044933Y0035810D01*
X0048744Y0035810D01*
X0049839Y0036905D01*
X0049839Y0036199D01*
X0050739Y0035299D01*
X0050739Y0035197D01*
X0046567Y0035197D01*
X0045630Y0034260D01*
X0045630Y0030384D01*
X0045456Y0030210D01*
X0044387Y0030210D01*
X0044387Y0031722D01*
X0043449Y0032659D01*
X0035825Y0032659D01*
X0034887Y0031722D01*
X0034887Y0024174D01*
X0033190Y0025872D01*
X0033190Y0031722D01*
X0032252Y0032659D01*
X0024628Y0032659D01*
X0024439Y0032470D01*
X0024439Y0036305D01*
X0024933Y0035810D01*
X0026439Y0035810D01*
X0026439Y0040010D01*
X0027239Y0040010D01*
X0027239Y0040810D01*
X0031439Y0040810D01*
X0031439Y0042316D01*
X0028744Y0045010D01*
X0027239Y0045010D01*
X0027239Y0040810D01*
X0026439Y0040810D01*
X0026439Y0045010D01*
X0024933Y0045010D01*
X0024439Y0044516D01*
X0024439Y0046305D01*
X0024933Y0045810D01*
X0028744Y0045810D01*
X0031439Y0048505D01*
X0031439Y0052316D01*
X0028744Y0055010D01*
X0024933Y0055010D01*
X0024439Y0054516D01*
X0024439Y0063099D01*
X0049639Y0088299D01*
X0043339Y0090410D02*
X0043339Y0101210D01*
X0042139Y0102410D01*
X0034339Y0102410D01*
X0032639Y0104110D01*
X0032639Y0112457D01*
X0027784Y0117312D01*
X0027784Y0107312D02*
X0021940Y0107312D01*
X0020139Y0105510D01*
X0020139Y0094610D01*
X0025039Y0089710D01*
X0027539Y0089710D01*
X0029039Y0088210D01*
X0032050Y0090997D02*
X0040780Y0090997D01*
X0041139Y0091344D02*
X0041139Y0094161D01*
X0039690Y0092712D01*
X0038184Y0092712D01*
X0038184Y0096912D01*
X0037384Y0096912D01*
X0033184Y0096912D01*
X0033184Y0095406D01*
X0035879Y0092712D01*
X0037384Y0092712D01*
X0037384Y0096912D01*
X0037384Y0097712D01*
X0033184Y0097712D01*
X0033184Y0099217D01*
X0034177Y0100210D01*
X0033427Y0100210D01*
X0031727Y0101910D01*
X0030439Y0103199D01*
X0030439Y0103461D01*
X0029690Y0102712D01*
X0025879Y0102712D01*
X0023479Y0105112D01*
X0022851Y0105112D01*
X0022339Y0104599D01*
X0022339Y0095522D01*
X0025950Y0091910D01*
X0026940Y0091910D01*
X0027340Y0092310D01*
X0030737Y0092310D01*
X0033139Y0089909D01*
X0033139Y0086512D01*
X0030737Y0084110D01*
X0027340Y0084110D01*
X0024939Y0086512D01*
X0024939Y0087510D01*
X0024127Y0087510D01*
X0022839Y0088799D01*
X0019639Y0091999D01*
X0019639Y0070576D01*
X0041139Y0091344D01*
X0041139Y0092196D02*
X0030851Y0092196D01*
X0029690Y0092712D02*
X0032384Y0095406D01*
X0032384Y0096912D01*
X0028184Y0096912D01*
X0028184Y0092712D01*
X0029690Y0092712D01*
X0030372Y0093394D02*
X0035197Y0093394D01*
X0033998Y0094593D02*
X0031570Y0094593D01*
X0032384Y0095791D02*
X0033184Y0095791D01*
X0032384Y0097712D02*
X0032384Y0099217D01*
X0029690Y0101912D01*
X0028184Y0101912D01*
X0028184Y0097712D01*
X0027384Y0097712D01*
X0027384Y0096912D01*
X0023184Y0096912D01*
X0023184Y0095406D01*
X0025879Y0092712D01*
X0027384Y0092712D01*
X0027384Y0096912D01*
X0028184Y0096912D01*
X0028184Y0097712D01*
X0032384Y0097712D01*
X0032384Y0098188D02*
X0033184Y0098188D01*
X0033354Y0099387D02*
X0032215Y0099387D01*
X0033052Y0100585D02*
X0031016Y0100585D01*
X0031854Y0101784D02*
X0029818Y0101784D01*
X0029960Y0102982D02*
X0030655Y0102982D01*
X0028184Y0101784D02*
X0027384Y0101784D01*
X0027384Y0101912D02*
X0025879Y0101912D01*
X0023184Y0099217D01*
X0023184Y0097712D01*
X0027384Y0097712D01*
X0027384Y0101912D01*
X0027384Y0100585D02*
X0028184Y0100585D01*
X0028184Y0099387D02*
X0027384Y0099387D01*
X0027384Y0098188D02*
X0028184Y0098188D01*
X0028184Y0096990D02*
X0037384Y0096990D01*
X0037384Y0095791D02*
X0038184Y0095791D01*
X0038184Y0094593D02*
X0037384Y0094593D01*
X0037384Y0093394D02*
X0038184Y0093394D01*
X0040372Y0093394D02*
X0041139Y0093394D01*
X0043339Y0090410D02*
X0019839Y0067710D01*
X0019839Y0021110D01*
X0026039Y0015710D01*
X0043939Y0015710D01*
X0046839Y0012810D01*
X0105739Y0012810D01*
X0117039Y0024110D01*
X0117039Y0040210D01*
X0116839Y0040410D01*
X0110839Y0045510D02*
X0105239Y0045510D01*
X0105139Y0045410D01*
X0104839Y0045410D01*
X0101939Y0042510D01*
X0101939Y0035610D01*
X0099139Y0032810D01*
X0081439Y0032810D01*
X0065939Y0017310D01*
X0049939Y0017310D01*
X0046439Y0020810D01*
X0035140Y0020810D01*
X0028440Y0027510D01*
X0033190Y0027476D02*
X0034887Y0027476D01*
X0034887Y0026277D02*
X0033190Y0026277D01*
X0033983Y0025079D02*
X0034887Y0025079D01*
X0034887Y0028675D02*
X0033190Y0028675D01*
X0033190Y0029873D02*
X0034887Y0029873D01*
X0034887Y0031072D02*
X0033190Y0031072D01*
X0032642Y0032270D02*
X0035435Y0032270D01*
X0034878Y0035866D02*
X0028799Y0035866D01*
X0028744Y0035810D02*
X0031439Y0038505D01*
X0031439Y0040010D01*
X0027239Y0040010D01*
X0027239Y0035810D01*
X0028744Y0035810D01*
X0027239Y0035866D02*
X0026439Y0035866D01*
X0026439Y0037064D02*
X0027239Y0037064D01*
X0027239Y0038263D02*
X0026439Y0038263D01*
X0026439Y0039461D02*
X0027239Y0039461D01*
X0027239Y0040660D02*
X0032239Y0040660D01*
X0032239Y0041858D02*
X0031439Y0041858D01*
X0030698Y0043057D02*
X0032980Y0043057D01*
X0034178Y0044255D02*
X0029499Y0044255D01*
X0027239Y0044255D02*
X0026439Y0044255D01*
X0026439Y0043057D02*
X0027239Y0043057D01*
X0027239Y0041858D02*
X0026439Y0041858D01*
X0024439Y0045454D02*
X0038771Y0045454D01*
X0039586Y0046652D02*
X0039839Y0046652D01*
X0042039Y0046510D02*
X0042039Y0045610D01*
X0036839Y0040410D01*
X0036939Y0040410D01*
X0039998Y0037064D02*
X0043679Y0037064D01*
X0042481Y0038263D02*
X0041196Y0038263D01*
X0041439Y0039461D02*
X0042239Y0039461D01*
X0042239Y0040660D02*
X0041439Y0040660D01*
X0041439Y0041858D02*
X0042239Y0041858D01*
X0042596Y0043057D02*
X0042980Y0043057D01*
X0044878Y0035866D02*
X0038799Y0035866D01*
X0043839Y0032270D02*
X0045630Y0032270D01*
X0045630Y0031072D02*
X0044387Y0031072D01*
X0045630Y0033469D02*
X0024439Y0033469D01*
X0024439Y0034667D02*
X0046037Y0034667D01*
X0048799Y0035866D02*
X0050172Y0035866D01*
X0052039Y0037110D02*
X0052039Y0044010D01*
X0050639Y0045410D01*
X0052039Y0037110D02*
X0052939Y0036210D01*
X0052939Y0022180D01*
X0046368Y0028010D02*
X0049198Y0030841D01*
X0046368Y0028010D02*
X0040868Y0028010D01*
X0039637Y0027510D01*
X0033679Y0037064D02*
X0029998Y0037064D01*
X0031196Y0038263D02*
X0032481Y0038263D01*
X0032239Y0039461D02*
X0031439Y0039461D01*
X0029586Y0046652D02*
X0034091Y0046652D01*
X0032893Y0047851D02*
X0030784Y0047851D01*
X0031439Y0049049D02*
X0032239Y0049049D01*
X0032239Y0050248D02*
X0031439Y0050248D01*
X0031439Y0051446D02*
X0032239Y0051446D01*
X0032568Y0052645D02*
X0031109Y0052645D01*
X0029911Y0053843D02*
X0033766Y0053843D01*
X0039839Y0055042D02*
X0024439Y0055042D01*
X0024439Y0056240D02*
X0039839Y0056240D01*
X0039839Y0057439D02*
X0024439Y0057439D01*
X0024439Y0058637D02*
X0039839Y0058637D01*
X0040653Y0059836D02*
X0024439Y0059836D01*
X0024439Y0061034D02*
X0041851Y0061034D01*
X0043050Y0062233D02*
X0024439Y0062233D01*
X0024771Y0063431D02*
X0044248Y0063431D01*
X0045447Y0064630D02*
X0025969Y0064630D01*
X0027168Y0065828D02*
X0046645Y0065828D01*
X0047844Y0067027D02*
X0028366Y0067027D01*
X0029565Y0068225D02*
X0049042Y0068225D01*
X0050241Y0069424D02*
X0030764Y0069424D01*
X0031962Y0070622D02*
X0051439Y0070622D01*
X0052638Y0071821D02*
X0033161Y0071821D01*
X0034359Y0073019D02*
X0053837Y0073019D01*
X0055035Y0074218D02*
X0035558Y0074218D01*
X0036756Y0075416D02*
X0082134Y0075416D01*
X0083639Y0077510D02*
X0083639Y0105910D01*
X0083939Y0106210D01*
X0086261Y0108532D01*
X0091721Y0108532D01*
X0111485Y0108532D01*
X0111564Y0108454D01*
X0120064Y0108454D01*
X0129539Y0108454D01*
X0129617Y0108532D01*
X0151682Y0108532D01*
X0151282Y0108132D02*
X0152082Y0108132D01*
X0152082Y0103932D01*
X0155044Y0103932D01*
X0155759Y0104046D01*
X0156448Y0104269D01*
X0157093Y0104598D01*
X0157679Y0105024D01*
X0158191Y0105536D01*
X0158616Y0106121D01*
X0158945Y0106766D01*
X0159169Y0107455D01*
X0159276Y0108132D01*
X0152082Y0108132D01*
X0152082Y0108932D01*
X0159276Y0108932D01*
X0159169Y0109609D01*
X0158945Y0110298D01*
X0158616Y0110943D01*
X0158191Y0111529D01*
X0157679Y0112041D01*
X0157093Y0112467D01*
X0156448Y0112795D01*
X0155759Y0113019D01*
X0155044Y0113132D01*
X0152082Y0113132D01*
X0152082Y0108932D01*
X0151282Y0108932D01*
X0151282Y0108132D01*
X0151282Y0103932D01*
X0148320Y0103932D01*
X0147605Y0104046D01*
X0146916Y0104269D01*
X0146271Y0104598D01*
X0145685Y0105024D01*
X0145173Y0105536D01*
X0144748Y0106121D01*
X0144419Y0106766D01*
X0144195Y0107455D01*
X0144088Y0108132D01*
X0151282Y0108132D01*
X0151282Y0107776D02*
X0152082Y0107776D01*
X0152082Y0106578D02*
X0151282Y0106578D01*
X0151282Y0105379D02*
X0152082Y0105379D01*
X0152082Y0104181D02*
X0151282Y0104181D01*
X0147767Y0103132D02*
X0146076Y0102432D01*
X0144782Y0101138D01*
X0144158Y0099630D01*
X0144553Y0100585D02*
X0125207Y0100585D01*
X0124666Y0101784D02*
X0145428Y0101784D01*
X0147405Y0102982D02*
X0095999Y0102982D01*
X0095798Y0104046D02*
X0096487Y0104269D01*
X0097132Y0104598D01*
X0097718Y0105024D01*
X0098230Y0105536D01*
X0098656Y0106121D01*
X0098984Y0106766D01*
X0099208Y0107455D01*
X0099315Y0108132D01*
X0092121Y0108132D01*
X0092121Y0103932D01*
X0095083Y0103932D01*
X0095798Y0104046D01*
X0096214Y0104181D02*
X0106881Y0104181D01*
X0106740Y0104322D02*
X0107038Y0104024D01*
X0107403Y0103813D01*
X0107810Y0103704D01*
X0110964Y0103704D01*
X0110964Y0107853D01*
X0112164Y0107853D01*
X0112164Y0103704D01*
X0115318Y0103704D01*
X0115725Y0103813D01*
X0115814Y0103864D01*
X0115903Y0103813D01*
X0116310Y0103704D01*
X0119464Y0103704D01*
X0119464Y0107853D01*
X0120664Y0107853D01*
X0120664Y0103704D01*
X0123818Y0103704D01*
X0124225Y0103813D01*
X0124590Y0104024D01*
X0124887Y0104322D01*
X0125098Y0104686D01*
X0125207Y0105093D01*
X0125207Y0107854D01*
X0120664Y0107854D01*
X0120664Y0109054D01*
X0119464Y0109054D01*
X0119464Y0113203D01*
X0116310Y0113203D01*
X0115903Y0113094D01*
X0115814Y0113043D01*
X0115725Y0113094D01*
X0115318Y0113203D01*
X0112164Y0113203D01*
X0112164Y0109054D01*
X0110964Y0109054D01*
X0110964Y0113203D01*
X0107810Y0113203D01*
X0107403Y0113094D01*
X0107038Y0112883D01*
X0106740Y0112586D01*
X0106530Y0112221D01*
X0106420Y0111814D01*
X0106420Y0109054D01*
X0110964Y0109054D01*
X0110964Y0107854D01*
X0106420Y0107854D01*
X0106420Y0105093D01*
X0106530Y0104686D01*
X0106740Y0104322D01*
X0106420Y0105379D02*
X0098074Y0105379D01*
X0098888Y0106578D02*
X0106420Y0106578D01*
X0106420Y0107776D02*
X0099259Y0107776D01*
X0099315Y0108932D02*
X0099208Y0109609D01*
X0098984Y0110298D01*
X0098656Y0110943D01*
X0098230Y0111529D01*
X0097718Y0112041D01*
X0097132Y0112467D01*
X0096487Y0112795D01*
X0095798Y0113019D01*
X0095083Y0113132D01*
X0092121Y0113132D01*
X0092121Y0108932D01*
X0091321Y0108932D01*
X0091321Y0108132D01*
X0092121Y0108132D01*
X0092121Y0108932D01*
X0099315Y0108932D01*
X0099309Y0108975D02*
X0110964Y0108975D01*
X0110964Y0110173D02*
X0112164Y0110173D01*
X0112164Y0109054D02*
X0116707Y0109054D01*
X0119464Y0109054D01*
X0119464Y0107854D01*
X0112164Y0107854D01*
X0112164Y0109054D01*
X0112164Y0108975D02*
X0119464Y0108975D01*
X0119464Y0110173D02*
X0120664Y0110173D01*
X0120664Y0109054D02*
X0120664Y0113203D01*
X0123818Y0113203D01*
X0124225Y0113094D01*
X0124590Y0112883D01*
X0124887Y0112586D01*
X0125098Y0112221D01*
X0125207Y0111814D01*
X0125207Y0109054D01*
X0120664Y0109054D01*
X0120664Y0108975D02*
X0144095Y0108975D01*
X0144088Y0108932D02*
X0151282Y0108932D01*
X0151282Y0113132D01*
X0148320Y0113132D01*
X0147605Y0113019D01*
X0146916Y0112795D01*
X0146271Y0112467D01*
X0145685Y0112041D01*
X0145173Y0111529D01*
X0144748Y0110943D01*
X0144419Y0110298D01*
X0144195Y0109609D01*
X0144088Y0108932D01*
X0144144Y0107776D02*
X0125207Y0107776D01*
X0125207Y0106578D02*
X0144515Y0106578D01*
X0145330Y0105379D02*
X0125207Y0105379D01*
X0124747Y0104181D02*
X0147189Y0104181D01*
X0147767Y0103132D02*
X0155597Y0103132D01*
X0157288Y0102432D01*
X0158582Y0101138D01*
X0158842Y0100510D01*
X0160227Y0100510D01*
X0163439Y0103722D01*
X0163439Y0108099D01*
X0155827Y0115710D01*
X0118527Y0115710D01*
X0117239Y0116999D01*
X0112639Y0121599D01*
X0112639Y0127952D01*
X0112603Y0127991D01*
X0112639Y0128856D01*
X0112639Y0129722D01*
X0112676Y0129759D01*
X0112678Y0129812D01*
X0113315Y0130398D01*
X0113927Y0131010D01*
X0113981Y0131010D01*
X0115815Y0132698D01*
X0116427Y0133310D01*
X0116481Y0133310D01*
X0116520Y0133346D01*
X0117384Y0133310D01*
X0178227Y0133310D01*
X0188039Y0143122D01*
X0189327Y0144410D01*
X0198354Y0144410D01*
X0197357Y0145406D01*
X0197357Y0146310D01*
X0106950Y0146310D01*
X0083239Y0122599D01*
X0083239Y0096747D01*
X0083288Y0096691D01*
X0083239Y0095846D01*
X0083239Y0094999D01*
X0083186Y0094946D01*
X0083139Y0094146D01*
X0083139Y0090499D01*
X0073339Y0080699D01*
X0073339Y0078012D01*
X0070937Y0075610D01*
X0067540Y0075610D01*
X0065139Y0078012D01*
X0065139Y0081409D01*
X0065139Y0080210D02*
X0041550Y0080210D01*
X0040352Y0079012D02*
X0065139Y0079012D01*
X0065337Y0077813D02*
X0039153Y0077813D01*
X0037955Y0076615D02*
X0066536Y0076615D01*
X0069339Y0085610D02*
X0078639Y0094910D01*
X0078639Y0126310D01*
X0118339Y0166010D01*
X0191439Y0166010D01*
X0192858Y0167702D02*
X0197357Y0167702D01*
X0197357Y0168900D02*
X0106657Y0168900D01*
X0105459Y0167702D02*
X0116919Y0167702D01*
X0115720Y0166503D02*
X0104260Y0166503D01*
X0103062Y0165305D02*
X0114522Y0165305D01*
X0113323Y0164106D02*
X0101863Y0164106D01*
X0100665Y0162908D02*
X0112125Y0162908D01*
X0110926Y0161709D02*
X0099466Y0161709D01*
X0098268Y0160511D02*
X0109728Y0160511D01*
X0108529Y0159312D02*
X0097069Y0159312D01*
X0095871Y0158114D02*
X0107331Y0158114D01*
X0106132Y0156915D02*
X0094672Y0156915D01*
X0093474Y0155717D02*
X0104934Y0155717D01*
X0103735Y0154518D02*
X0092275Y0154518D01*
X0091077Y0153320D02*
X0102537Y0153320D01*
X0101338Y0152121D02*
X0089878Y0152121D01*
X0088680Y0150923D02*
X0100140Y0150923D01*
X0098941Y0149724D02*
X0087481Y0149724D01*
X0086283Y0148526D02*
X0097743Y0148526D01*
X0096544Y0147327D02*
X0085084Y0147327D01*
X0083886Y0146129D02*
X0095346Y0146129D01*
X0094147Y0144930D02*
X0082687Y0144930D01*
X0081489Y0143732D02*
X0092949Y0143732D01*
X0091750Y0142533D02*
X0080290Y0142533D01*
X0079092Y0141335D02*
X0090552Y0141335D01*
X0089353Y0140136D02*
X0077893Y0140136D01*
X0076694Y0138938D02*
X0088155Y0138938D01*
X0086956Y0137739D02*
X0075539Y0137739D01*
X0075539Y0136541D02*
X0085758Y0136541D01*
X0084559Y0135342D02*
X0075539Y0135342D01*
X0075539Y0134144D02*
X0083361Y0134144D01*
X0082162Y0132945D02*
X0075539Y0132945D01*
X0075539Y0131746D02*
X0080964Y0131746D01*
X0079765Y0130548D02*
X0075539Y0130548D01*
X0075539Y0129349D02*
X0078567Y0129349D01*
X0077368Y0128151D02*
X0075539Y0128151D01*
X0075539Y0126952D02*
X0076439Y0126952D01*
X0076439Y0125754D02*
X0075539Y0125754D01*
X0075539Y0124555D02*
X0076439Y0124555D01*
X0076439Y0123357D02*
X0075539Y0123357D01*
X0075539Y0122158D02*
X0076439Y0122158D01*
X0076439Y0120960D02*
X0075539Y0120960D01*
X0075539Y0119761D02*
X0076439Y0119761D01*
X0076439Y0118563D02*
X0075539Y0118563D01*
X0075539Y0117364D02*
X0076439Y0117364D01*
X0076439Y0116166D02*
X0075539Y0116166D01*
X0075539Y0114967D02*
X0076439Y0114967D01*
X0076439Y0113769D02*
X0075539Y0113769D01*
X0075539Y0112570D02*
X0076439Y0112570D01*
X0076439Y0111372D02*
X0075539Y0111372D01*
X0075539Y0110173D02*
X0076439Y0110173D01*
X0076439Y0108975D02*
X0075539Y0108975D01*
X0075539Y0107776D02*
X0076439Y0107776D01*
X0076439Y0106578D02*
X0075539Y0106578D01*
X0075539Y0105379D02*
X0076439Y0105379D01*
X0076439Y0104181D02*
X0075539Y0104181D01*
X0075539Y0102982D02*
X0076439Y0102982D01*
X0076439Y0101784D02*
X0075539Y0101784D01*
X0075539Y0100585D02*
X0076439Y0100585D01*
X0076439Y0099387D02*
X0075539Y0099387D01*
X0075539Y0098188D02*
X0076439Y0098188D01*
X0076439Y0096990D02*
X0075539Y0096990D01*
X0075612Y0095791D02*
X0076408Y0095791D01*
X0081240Y0088600D02*
X0085139Y0088600D01*
X0085139Y0087402D02*
X0080041Y0087402D01*
X0078843Y0086203D02*
X0085139Y0086203D01*
X0085139Y0085005D02*
X0077644Y0085005D01*
X0076446Y0083806D02*
X0085139Y0083806D01*
X0085139Y0082608D02*
X0075247Y0082608D01*
X0074049Y0081409D02*
X0085139Y0081409D01*
X0085139Y0080210D02*
X0073339Y0080210D01*
X0073339Y0079012D02*
X0085139Y0079012D01*
X0084531Y0077813D02*
X0073140Y0077813D01*
X0083562Y0070622D02*
X0095739Y0070622D01*
X0094541Y0069424D02*
X0056464Y0069424D01*
X0055265Y0068225D02*
X0093342Y0068225D01*
X0092144Y0067027D02*
X0054066Y0067027D01*
X0052868Y0065828D02*
X0090945Y0065828D01*
X0089747Y0064630D02*
X0051669Y0064630D01*
X0050471Y0063431D02*
X0088548Y0063431D01*
X0087350Y0062233D02*
X0049272Y0062233D01*
X0048074Y0061034D02*
X0086151Y0061034D01*
X0084953Y0059836D02*
X0046875Y0059836D01*
X0045677Y0058637D02*
X0083754Y0058637D01*
X0082556Y0057439D02*
X0044478Y0057439D01*
X0044239Y0056240D02*
X0081357Y0056240D01*
X0080159Y0055042D02*
X0044239Y0055042D01*
X0027131Y0077813D02*
X0019639Y0077813D01*
X0019639Y0076615D02*
X0025891Y0076615D01*
X0024650Y0075416D02*
X0019639Y0075416D01*
X0019639Y0074218D02*
X0023409Y0074218D01*
X0022168Y0073019D02*
X0019639Y0073019D01*
X0019639Y0071821D02*
X0020928Y0071821D01*
X0019687Y0070622D02*
X0019639Y0070622D01*
X0019639Y0079012D02*
X0028372Y0079012D01*
X0029613Y0080210D02*
X0019639Y0080210D01*
X0019639Y0081409D02*
X0030854Y0081409D01*
X0032094Y0082608D02*
X0019639Y0082608D01*
X0019639Y0083806D02*
X0033335Y0083806D01*
X0034576Y0085005D02*
X0031631Y0085005D01*
X0032830Y0086203D02*
X0035817Y0086203D01*
X0037057Y0087402D02*
X0033139Y0087402D01*
X0033139Y0088600D02*
X0038298Y0088600D01*
X0039539Y0089799D02*
X0033139Y0089799D01*
X0028184Y0093394D02*
X0027384Y0093394D01*
X0027384Y0094593D02*
X0028184Y0094593D01*
X0028184Y0095791D02*
X0027384Y0095791D01*
X0027384Y0096990D02*
X0022339Y0096990D01*
X0022339Y0098188D02*
X0023184Y0098188D01*
X0023354Y0099387D02*
X0022339Y0099387D01*
X0022339Y0100585D02*
X0024552Y0100585D01*
X0025751Y0101784D02*
X0022339Y0101784D01*
X0022339Y0102982D02*
X0025608Y0102982D01*
X0024410Y0104181D02*
X0022339Y0104181D01*
X0022339Y0095791D02*
X0023184Y0095791D01*
X0023267Y0094593D02*
X0023998Y0094593D01*
X0024466Y0093394D02*
X0025197Y0093394D01*
X0025664Y0092196D02*
X0027226Y0092196D01*
X0024939Y0087402D02*
X0019639Y0087402D01*
X0019639Y0088600D02*
X0023037Y0088600D01*
X0021839Y0089799D02*
X0019639Y0089799D01*
X0019639Y0090997D02*
X0020640Y0090997D01*
X0019639Y0086203D02*
X0025247Y0086203D01*
X0026446Y0085005D02*
X0019639Y0085005D01*
X0009639Y0089910D02*
X0009639Y0020410D01*
X0021239Y0008810D01*
X0039239Y0008810D01*
X0042239Y0005810D01*
X0110839Y0005810D01*
X0121139Y0016110D01*
X0143239Y0016110D01*
X0156339Y0029210D01*
X0154878Y0035866D02*
X0149795Y0035866D01*
X0149998Y0037064D02*
X0153679Y0037064D01*
X0152481Y0038263D02*
X0151196Y0038263D01*
X0151439Y0039461D02*
X0152239Y0039461D01*
X0152239Y0040660D02*
X0151439Y0040660D01*
X0151439Y0041858D02*
X0152239Y0041858D01*
X0152980Y0043057D02*
X0150698Y0043057D01*
X0149499Y0044255D02*
X0154178Y0044255D01*
X0154091Y0046652D02*
X0149586Y0046652D01*
X0150784Y0047851D02*
X0152893Y0047851D01*
X0152239Y0049049D02*
X0151439Y0049049D01*
X0151439Y0050248D02*
X0152239Y0050248D01*
X0152239Y0051446D02*
X0151439Y0051446D01*
X0151109Y0052645D02*
X0152568Y0052645D01*
X0153766Y0053843D02*
X0149911Y0053843D01*
X0144091Y0046652D02*
X0144039Y0046652D01*
X0150993Y0034667D02*
X0177384Y0034667D01*
X0174878Y0035866D02*
X0168799Y0035866D01*
X0169998Y0037064D02*
X0173679Y0037064D01*
X0172481Y0038263D02*
X0171196Y0038263D01*
X0171439Y0039461D02*
X0172239Y0039461D01*
X0172239Y0040660D02*
X0171439Y0040660D01*
X0171439Y0041858D02*
X0172239Y0041858D01*
X0172980Y0043057D02*
X0170698Y0043057D01*
X0172695Y0044255D02*
X0174178Y0044255D01*
X0173839Y0045454D02*
X0180571Y0045454D01*
X0179639Y0044255D02*
X0179499Y0044255D01*
X0179586Y0046652D02*
X0181769Y0046652D01*
X0180784Y0047851D02*
X0182893Y0047851D01*
X0182239Y0049049D02*
X0181439Y0049049D01*
X0181439Y0050248D02*
X0182239Y0050248D01*
X0182239Y0051446D02*
X0181439Y0051446D01*
X0181109Y0052645D02*
X0182568Y0052645D01*
X0183766Y0053843D02*
X0179911Y0053843D01*
X0177378Y0057439D02*
X0199639Y0057439D01*
X0199639Y0058637D02*
X0178577Y0058637D01*
X0179775Y0059836D02*
X0199639Y0059836D01*
X0199639Y0061034D02*
X0180974Y0061034D01*
X0182172Y0062233D02*
X0199639Y0062233D01*
X0199639Y0063431D02*
X0183371Y0063431D01*
X0184569Y0064630D02*
X0199639Y0064630D01*
X0199639Y0065828D02*
X0185768Y0065828D01*
X0186966Y0067027D02*
X0199639Y0067027D01*
X0199639Y0068225D02*
X0188165Y0068225D01*
X0189363Y0069424D02*
X0199639Y0069424D01*
X0199639Y0070622D02*
X0190562Y0070622D01*
X0191761Y0071821D02*
X0199639Y0071821D01*
X0199639Y0073019D02*
X0192959Y0073019D01*
X0194158Y0074218D02*
X0200835Y0074218D01*
X0202034Y0075416D02*
X0195356Y0075416D01*
X0196555Y0076615D02*
X0203232Y0076615D01*
X0204431Y0077813D02*
X0197753Y0077813D01*
X0198952Y0079012D02*
X0205629Y0079012D01*
X0206828Y0080210D02*
X0200150Y0080210D01*
X0201349Y0081409D02*
X0208026Y0081409D01*
X0209225Y0082608D02*
X0202547Y0082608D01*
X0203746Y0083806D02*
X0210423Y0083806D01*
X0211622Y0085005D02*
X0204944Y0085005D01*
X0206143Y0086203D02*
X0212820Y0086203D01*
X0214019Y0087402D02*
X0207341Y0087402D01*
X0208540Y0088600D02*
X0215217Y0088600D01*
X0216416Y0089799D02*
X0209539Y0089799D01*
X0209539Y0090997D02*
X0217614Y0090997D01*
X0218813Y0092196D02*
X0209539Y0092196D01*
X0211557Y0093394D02*
X0212357Y0093394D01*
X0212357Y0094593D02*
X0211557Y0094593D01*
X0211557Y0095791D02*
X0212357Y0095791D01*
X0212358Y0096990D02*
X0223607Y0096990D01*
X0224805Y0098188D02*
X0216557Y0098188D01*
X0216388Y0099387D02*
X0226004Y0099387D01*
X0226139Y0100585D02*
X0215189Y0100585D01*
X0213991Y0101784D02*
X0226139Y0101784D01*
X0226139Y0102982D02*
X0214133Y0102982D01*
X0215332Y0104181D02*
X0226139Y0104181D01*
X0226139Y0105379D02*
X0216530Y0105379D01*
X0216557Y0106578D02*
X0226139Y0106578D01*
X0226139Y0107776D02*
X0216557Y0107776D01*
X0216557Y0108975D02*
X0226139Y0108975D01*
X0226139Y0110173D02*
X0215601Y0110173D01*
X0212357Y0101784D02*
X0211557Y0101784D01*
X0211557Y0100585D02*
X0212357Y0100585D01*
X0212357Y0099387D02*
X0211557Y0099387D01*
X0211557Y0098188D02*
X0212357Y0098188D01*
X0209924Y0101784D02*
X0209539Y0101784D01*
X0209539Y0102982D02*
X0209782Y0102982D01*
X0205139Y0102982D02*
X0204133Y0102982D01*
X0203991Y0101784D02*
X0205139Y0101784D01*
X0205139Y0111372D02*
X0204403Y0111372D01*
X0204920Y0113769D02*
X0205139Y0113769D01*
X0201957Y0117312D02*
X0198840Y0117312D01*
X0154039Y0072510D01*
X0143139Y0061810D01*
X0141839Y0060510D01*
X0129939Y0046652D02*
X0129586Y0046652D01*
X0134339Y0035866D02*
X0134878Y0035866D01*
X0141239Y0022310D02*
X0137739Y0018810D01*
X0119739Y0018810D01*
X0109339Y0008410D01*
X0043839Y0008410D01*
X0040939Y0011310D01*
X0022739Y0011310D01*
X0014539Y0019510D01*
X0014539Y0120310D01*
X0021540Y0127312D01*
X0027784Y0127312D01*
X0023184Y0136541D02*
X0021785Y0136541D01*
X0023184Y0137739D02*
X0019102Y0137739D01*
X0017539Y0138938D02*
X0023184Y0138938D01*
X0024103Y0140136D02*
X0017539Y0140136D01*
X0017539Y0141335D02*
X0025302Y0141335D01*
X0024859Y0143732D02*
X0017539Y0143732D01*
X0017539Y0144930D02*
X0023661Y0144930D01*
X0023184Y0146129D02*
X0017539Y0146129D01*
X0017539Y0147327D02*
X0023184Y0147327D01*
X0023184Y0148526D02*
X0017539Y0148526D01*
X0017539Y0149724D02*
X0023691Y0149724D01*
X0017539Y0142533D02*
X0064933Y0142533D01*
X0064924Y0141335D02*
X0040267Y0141335D01*
X0041465Y0140136D02*
X0064916Y0140136D01*
X0064907Y0138938D02*
X0042384Y0138938D01*
X0042384Y0137739D02*
X0064899Y0137739D01*
X0064890Y0136541D02*
X0042384Y0136541D01*
X0042320Y0135342D02*
X0064882Y0135342D01*
X0064873Y0134144D02*
X0043917Y0134144D01*
X0045115Y0132945D02*
X0064865Y0132945D01*
X0064856Y0131746D02*
X0046314Y0131746D01*
X0047512Y0130548D02*
X0064848Y0130548D01*
X0064839Y0129349D02*
X0048711Y0129349D01*
X0049909Y0128151D02*
X0064831Y0128151D01*
X0064822Y0126952D02*
X0051108Y0126952D01*
X0052306Y0125754D02*
X0064814Y0125754D01*
X0064805Y0124555D02*
X0052339Y0124555D01*
X0052339Y0123357D02*
X0064797Y0123357D01*
X0064788Y0122158D02*
X0052339Y0122158D01*
X0052339Y0120960D02*
X0064780Y0120960D01*
X0064771Y0119761D02*
X0052339Y0119761D01*
X0052397Y0118563D02*
X0064763Y0118563D01*
X0064754Y0117364D02*
X0053596Y0117364D01*
X0054794Y0116166D02*
X0064746Y0116166D01*
X0064737Y0114967D02*
X0055993Y0114967D01*
X0057191Y0113769D02*
X0064729Y0113769D01*
X0064720Y0112570D02*
X0058390Y0112570D01*
X0062275Y0111372D02*
X0064711Y0111372D01*
X0062039Y0116810D02*
X0062639Y0142410D01*
X0041739Y0162410D01*
X0019839Y0162410D01*
X0018839Y0163410D01*
X0018839Y0329010D01*
X0022639Y0332810D01*
X0045339Y0332810D01*
X0069439Y0356910D01*
X0067493Y0367853D02*
X0073690Y0367853D01*
X0073539Y0369052D02*
X0068691Y0369052D01*
X0069890Y0370250D02*
X0073539Y0370250D01*
X0073539Y0371449D02*
X0071088Y0371449D01*
X0062951Y0383434D02*
X0040412Y0383434D01*
X0039690Y0382712D02*
X0042384Y0385406D01*
X0042384Y0389217D01*
X0039690Y0391912D01*
X0035879Y0391912D01*
X0033184Y0389217D01*
X0033184Y0385406D01*
X0035879Y0382712D01*
X0039690Y0382712D01*
X0040565Y0381037D02*
X0060554Y0381037D01*
X0061752Y0382235D02*
X0004339Y0382235D01*
X0004339Y0381037D02*
X0025004Y0381037D01*
X0023805Y0379838D02*
X0004339Y0379838D01*
X0004339Y0378640D02*
X0023184Y0378640D01*
X0023184Y0377441D02*
X0004339Y0377441D01*
X0004339Y0376243D02*
X0023184Y0376243D01*
X0023546Y0375044D02*
X0004339Y0375044D01*
X0004339Y0373846D02*
X0024745Y0373846D01*
X0027784Y0377312D02*
X0028437Y0377312D01*
X0029690Y0382712D02*
X0025879Y0382712D01*
X0023184Y0385406D01*
X0023184Y0389217D01*
X0025879Y0391912D01*
X0029690Y0391912D01*
X0032384Y0389217D01*
X0032384Y0385406D01*
X0029690Y0382712D01*
X0030412Y0383434D02*
X0035157Y0383434D01*
X0033958Y0384632D02*
X0031610Y0384632D01*
X0032384Y0385831D02*
X0033184Y0385831D01*
X0033184Y0387029D02*
X0032384Y0387029D01*
X0032384Y0388228D02*
X0033184Y0388228D01*
X0033393Y0389426D02*
X0032175Y0389426D01*
X0030977Y0390625D02*
X0034592Y0390625D01*
X0035791Y0391823D02*
X0029778Y0391823D01*
X0025791Y0391823D02*
X0004339Y0391823D01*
X0004339Y0390625D02*
X0024592Y0390625D01*
X0023393Y0389426D02*
X0004339Y0389426D01*
X0004339Y0388228D02*
X0023184Y0388228D01*
X0023184Y0387029D02*
X0004339Y0387029D01*
X0004339Y0385831D02*
X0023184Y0385831D01*
X0023958Y0384632D02*
X0004339Y0384632D01*
X0004339Y0383434D02*
X0025157Y0383434D01*
X0025532Y0363059D02*
X0004339Y0363059D01*
X0004339Y0361861D02*
X0025828Y0361861D01*
X0024629Y0360662D02*
X0004339Y0360662D01*
X0004339Y0359464D02*
X0023431Y0359464D01*
X0022926Y0358265D02*
X0004339Y0358265D01*
X0004339Y0357067D02*
X0021728Y0357067D01*
X0020529Y0355868D02*
X0004339Y0355868D01*
X0004339Y0354670D02*
X0019331Y0354670D01*
X0018132Y0353471D02*
X0004339Y0353471D01*
X0004339Y0352273D02*
X0016934Y0352273D01*
X0015735Y0351074D02*
X0004339Y0351074D01*
X0004339Y0349876D02*
X0014537Y0349876D01*
X0013338Y0348677D02*
X0004339Y0348677D01*
X0004339Y0347479D02*
X0012140Y0347479D01*
X0010941Y0346280D02*
X0004339Y0346280D01*
X0004339Y0345081D02*
X0009839Y0345081D01*
X0009835Y0343883D02*
X0004339Y0343883D01*
X0004339Y0342684D02*
X0009824Y0342684D01*
X0009812Y0341486D02*
X0004339Y0341486D01*
X0004339Y0340287D02*
X0009801Y0340287D01*
X0009790Y0339089D02*
X0004339Y0339089D01*
X0004339Y0337890D02*
X0009778Y0337890D01*
X0009767Y0336692D02*
X0004339Y0336692D01*
X0004339Y0335493D02*
X0009756Y0335493D01*
X0009744Y0334295D02*
X0004339Y0334295D01*
X0004339Y0333096D02*
X0009733Y0333096D01*
X0009722Y0331898D02*
X0004339Y0331898D01*
X0004339Y0330699D02*
X0009710Y0330699D01*
X0009699Y0329501D02*
X0004339Y0329501D01*
X0004339Y0328302D02*
X0009688Y0328302D01*
X0009677Y0327104D02*
X0004339Y0327104D01*
X0004339Y0325905D02*
X0009665Y0325905D01*
X0009654Y0324707D02*
X0004339Y0324707D01*
X0004339Y0323508D02*
X0009643Y0323508D01*
X0009631Y0322310D02*
X0004339Y0322310D01*
X0004339Y0321111D02*
X0009620Y0321111D01*
X0009609Y0319913D02*
X0004339Y0319913D01*
X0004339Y0318714D02*
X0009597Y0318714D01*
X0009586Y0317516D02*
X0004339Y0317516D01*
X0004339Y0316317D02*
X0009575Y0316317D01*
X0009563Y0315119D02*
X0004339Y0315119D01*
X0004339Y0313920D02*
X0009552Y0313920D01*
X0009541Y0312722D02*
X0004339Y0312722D01*
X0004339Y0311523D02*
X0009530Y0311523D01*
X0009518Y0310325D02*
X0004339Y0310325D01*
X0004339Y0309126D02*
X0009507Y0309126D01*
X0009496Y0307928D02*
X0004339Y0307928D01*
X0004339Y0306729D02*
X0009484Y0306729D01*
X0009473Y0305531D02*
X0004339Y0305531D01*
X0004339Y0304332D02*
X0009462Y0304332D01*
X0009450Y0303134D02*
X0004339Y0303134D01*
X0004339Y0301935D02*
X0009439Y0301935D01*
X0009428Y0300737D02*
X0004339Y0300737D01*
X0004339Y0299538D02*
X0009416Y0299538D01*
X0009405Y0298340D02*
X0004339Y0298340D01*
X0004339Y0297141D02*
X0009394Y0297141D01*
X0009383Y0295943D02*
X0004339Y0295943D01*
X0004339Y0294744D02*
X0009371Y0294744D01*
X0009360Y0293546D02*
X0004339Y0293546D01*
X0004339Y0292347D02*
X0009349Y0292347D01*
X0009337Y0291148D02*
X0004339Y0291148D01*
X0004339Y0289950D02*
X0009326Y0289950D01*
X0009315Y0288751D02*
X0004339Y0288751D01*
X0004339Y0287553D02*
X0009303Y0287553D01*
X0009292Y0286354D02*
X0004339Y0286354D01*
X0004339Y0285156D02*
X0009281Y0285156D01*
X0009269Y0283957D02*
X0004339Y0283957D01*
X0004339Y0282759D02*
X0009258Y0282759D01*
X0009247Y0281560D02*
X0004339Y0281560D01*
X0004339Y0280362D02*
X0009236Y0280362D01*
X0009224Y0279163D02*
X0004339Y0279163D01*
X0004339Y0277965D02*
X0009213Y0277965D01*
X0009202Y0276766D02*
X0004339Y0276766D01*
X0004339Y0275568D02*
X0009190Y0275568D01*
X0009179Y0274369D02*
X0004339Y0274369D01*
X0004339Y0273171D02*
X0009168Y0273171D01*
X0009156Y0271972D02*
X0004339Y0271972D01*
X0004339Y0270774D02*
X0009145Y0270774D01*
X0009134Y0269575D02*
X0004339Y0269575D01*
X0004339Y0268377D02*
X0009122Y0268377D01*
X0009111Y0267178D02*
X0004339Y0267178D01*
X0004339Y0265980D02*
X0009100Y0265980D01*
X0009089Y0264781D02*
X0004339Y0264781D01*
X0004339Y0263583D02*
X0009077Y0263583D01*
X0009066Y0262384D02*
X0004339Y0262384D01*
X0004339Y0261186D02*
X0009055Y0261186D01*
X0009043Y0259987D02*
X0004339Y0259987D01*
X0004339Y0258789D02*
X0009032Y0258789D01*
X0009021Y0257590D02*
X0004339Y0257590D01*
X0004339Y0256392D02*
X0009009Y0256392D01*
X0008998Y0255193D02*
X0004339Y0255193D01*
X0004339Y0253995D02*
X0008987Y0253995D01*
X0008975Y0252796D02*
X0004339Y0252796D01*
X0004339Y0251598D02*
X0008964Y0251598D01*
X0008953Y0250399D02*
X0004339Y0250399D01*
X0004339Y0249201D02*
X0008941Y0249201D01*
X0008930Y0248002D02*
X0004339Y0248002D01*
X0004339Y0246804D02*
X0008919Y0246804D01*
X0008908Y0245605D02*
X0004339Y0245605D01*
X0004339Y0244407D02*
X0008896Y0244407D01*
X0008885Y0243208D02*
X0004339Y0243208D01*
X0004339Y0242010D02*
X0008874Y0242010D01*
X0008862Y0240811D02*
X0004339Y0240811D01*
X0004339Y0239612D02*
X0008851Y0239612D01*
X0008840Y0238414D02*
X0004339Y0238414D01*
X0004339Y0237215D02*
X0008828Y0237215D01*
X0008817Y0236017D02*
X0004339Y0236017D01*
X0004339Y0234818D02*
X0008806Y0234818D01*
X0008794Y0233620D02*
X0004339Y0233620D01*
X0004339Y0232421D02*
X0008783Y0232421D01*
X0008772Y0231223D02*
X0004339Y0231223D01*
X0004339Y0230024D02*
X0008761Y0230024D01*
X0008749Y0228826D02*
X0004339Y0228826D01*
X0004339Y0227627D02*
X0008738Y0227627D01*
X0008727Y0226429D02*
X0004339Y0226429D01*
X0004339Y0225230D02*
X0008715Y0225230D01*
X0008704Y0224032D02*
X0004339Y0224032D01*
X0004339Y0222833D02*
X0008693Y0222833D01*
X0008681Y0221635D02*
X0004339Y0221635D01*
X0004339Y0220436D02*
X0008670Y0220436D01*
X0008659Y0219238D02*
X0004339Y0219238D01*
X0004339Y0218039D02*
X0008647Y0218039D01*
X0008636Y0216841D02*
X0004339Y0216841D01*
X0004339Y0215642D02*
X0008625Y0215642D01*
X0008614Y0214444D02*
X0004339Y0214444D01*
X0004339Y0213245D02*
X0008602Y0213245D01*
X0008591Y0212047D02*
X0004339Y0212047D01*
X0004339Y0210848D02*
X0008580Y0210848D01*
X0008568Y0209650D02*
X0004339Y0209650D01*
X0004339Y0208451D02*
X0008557Y0208451D01*
X0008546Y0207253D02*
X0004339Y0207253D01*
X0004339Y0206054D02*
X0008534Y0206054D01*
X0008523Y0204856D02*
X0004339Y0204856D01*
X0004339Y0203657D02*
X0008512Y0203657D01*
X0008500Y0202459D02*
X0004339Y0202459D01*
X0004339Y0201260D02*
X0008489Y0201260D01*
X0008478Y0200062D02*
X0004339Y0200062D01*
X0004339Y0198863D02*
X0008467Y0198863D01*
X0008455Y0197665D02*
X0004339Y0197665D01*
X0004339Y0196466D02*
X0008444Y0196466D01*
X0008433Y0195268D02*
X0004339Y0195268D01*
X0004339Y0194069D02*
X0008421Y0194069D01*
X0008410Y0192871D02*
X0004339Y0192871D01*
X0004339Y0191672D02*
X0008399Y0191672D01*
X0008387Y0190474D02*
X0004339Y0190474D01*
X0004339Y0189275D02*
X0008376Y0189275D01*
X0008365Y0188077D02*
X0004339Y0188077D01*
X0004339Y0186878D02*
X0008353Y0186878D01*
X0008342Y0185679D02*
X0004339Y0185679D01*
X0004339Y0184481D02*
X0008331Y0184481D01*
X0008320Y0183282D02*
X0004339Y0183282D01*
X0004339Y0182084D02*
X0008308Y0182084D01*
X0008297Y0180885D02*
X0004339Y0180885D01*
X0004339Y0179687D02*
X0008286Y0179687D01*
X0008274Y0178488D02*
X0004339Y0178488D01*
X0004339Y0177290D02*
X0008263Y0177290D01*
X0008252Y0176091D02*
X0004339Y0176091D01*
X0004339Y0174893D02*
X0008240Y0174893D01*
X0008229Y0173694D02*
X0004339Y0173694D01*
X0004339Y0172496D02*
X0008218Y0172496D01*
X0008206Y0171297D02*
X0004339Y0171297D01*
X0004339Y0170099D02*
X0008195Y0170099D01*
X0008184Y0168900D02*
X0004339Y0168900D01*
X0004339Y0167702D02*
X0008173Y0167702D01*
X0008161Y0166503D02*
X0004339Y0166503D01*
X0004339Y0165305D02*
X0008150Y0165305D01*
X0008139Y0164106D02*
X0004339Y0164106D01*
X0004339Y0162908D02*
X0008127Y0162908D01*
X0008116Y0161709D02*
X0004339Y0161709D01*
X0004339Y0160511D02*
X0008105Y0160511D01*
X0008093Y0159312D02*
X0004339Y0159312D01*
X0004339Y0158114D02*
X0008082Y0158114D01*
X0008071Y0156915D02*
X0004339Y0156915D01*
X0004339Y0155717D02*
X0008059Y0155717D01*
X0008048Y0154518D02*
X0004339Y0154518D01*
X0004339Y0153320D02*
X0008037Y0153320D01*
X0008025Y0152121D02*
X0004339Y0152121D01*
X0004339Y0150923D02*
X0008014Y0150923D01*
X0008003Y0149724D02*
X0004339Y0149724D01*
X0004339Y0148526D02*
X0007992Y0148526D01*
X0007980Y0147327D02*
X0004339Y0147327D01*
X0004339Y0146129D02*
X0007969Y0146129D01*
X0007958Y0144930D02*
X0004339Y0144930D01*
X0004339Y0143732D02*
X0007946Y0143732D01*
X0007935Y0142533D02*
X0004339Y0142533D01*
X0004339Y0141335D02*
X0007924Y0141335D01*
X0007912Y0140136D02*
X0004339Y0140136D01*
X0004339Y0138938D02*
X0007901Y0138938D01*
X0007890Y0137739D02*
X0004339Y0137739D01*
X0004339Y0136541D02*
X0007878Y0136541D01*
X0007867Y0135342D02*
X0004339Y0135342D01*
X0004339Y0134144D02*
X0007856Y0134144D01*
X0007845Y0132945D02*
X0004339Y0132945D01*
X0004339Y0131746D02*
X0007833Y0131746D01*
X0007822Y0130548D02*
X0004339Y0130548D01*
X0004339Y0129349D02*
X0007811Y0129349D01*
X0007799Y0128151D02*
X0004339Y0128151D01*
X0004339Y0126952D02*
X0007788Y0126952D01*
X0007777Y0125754D02*
X0004339Y0125754D01*
X0004339Y0124555D02*
X0007765Y0124555D01*
X0007754Y0123357D02*
X0004339Y0123357D01*
X0004339Y0122158D02*
X0007743Y0122158D01*
X0007731Y0120960D02*
X0004339Y0120960D01*
X0004339Y0119761D02*
X0007720Y0119761D01*
X0007709Y0118563D02*
X0004339Y0118563D01*
X0004339Y0117364D02*
X0007698Y0117364D01*
X0007686Y0116166D02*
X0004339Y0116166D01*
X0004339Y0114967D02*
X0007675Y0114967D01*
X0007664Y0113769D02*
X0004339Y0113769D01*
X0004339Y0112570D02*
X0007652Y0112570D01*
X0007641Y0111372D02*
X0004339Y0111372D01*
X0004339Y0110173D02*
X0007630Y0110173D01*
X0007618Y0108975D02*
X0004339Y0108975D01*
X0004339Y0107776D02*
X0007607Y0107776D01*
X0007596Y0106578D02*
X0004339Y0106578D01*
X0004339Y0105379D02*
X0007584Y0105379D01*
X0007573Y0104181D02*
X0004339Y0104181D01*
X0004339Y0102982D02*
X0007562Y0102982D01*
X0007551Y0101784D02*
X0004339Y0101784D01*
X0004339Y0100585D02*
X0007539Y0100585D01*
X0007528Y0099387D02*
X0004339Y0099387D01*
X0004339Y0098188D02*
X0007517Y0098188D01*
X0007505Y0096990D02*
X0004339Y0096990D01*
X0004339Y0095791D02*
X0007494Y0095791D01*
X0007483Y0094593D02*
X0004339Y0094593D01*
X0004339Y0093394D02*
X0007471Y0093394D01*
X0007460Y0092196D02*
X0004339Y0092196D01*
X0004339Y0090997D02*
X0007449Y0090997D01*
X0007437Y0089799D02*
X0004339Y0089799D01*
X0004339Y0088600D02*
X0007439Y0088600D01*
X0007439Y0087402D02*
X0004339Y0087402D01*
X0004339Y0086203D02*
X0007439Y0086203D01*
X0007439Y0085005D02*
X0004339Y0085005D01*
X0004339Y0083806D02*
X0007439Y0083806D01*
X0007439Y0082608D02*
X0004339Y0082608D01*
X0004339Y0081409D02*
X0007439Y0081409D01*
X0007439Y0080210D02*
X0004339Y0080210D01*
X0004339Y0079012D02*
X0007439Y0079012D01*
X0007439Y0077813D02*
X0004339Y0077813D01*
X0004339Y0076615D02*
X0007439Y0076615D01*
X0007439Y0075416D02*
X0004339Y0075416D01*
X0004339Y0074218D02*
X0007439Y0074218D01*
X0007439Y0073019D02*
X0004339Y0073019D01*
X0004339Y0071821D02*
X0007439Y0071821D01*
X0007439Y0070622D02*
X0004339Y0070622D01*
X0004339Y0069424D02*
X0007439Y0069424D01*
X0007439Y0068225D02*
X0004339Y0068225D01*
X0004339Y0067027D02*
X0007439Y0067027D01*
X0007439Y0065828D02*
X0004339Y0065828D01*
X0004339Y0064630D02*
X0007439Y0064630D01*
X0007439Y0063431D02*
X0004339Y0063431D01*
X0004339Y0062233D02*
X0007439Y0062233D01*
X0007439Y0061034D02*
X0004339Y0061034D01*
X0004339Y0059836D02*
X0007439Y0059836D01*
X0007439Y0058637D02*
X0004339Y0058637D01*
X0004339Y0057439D02*
X0007439Y0057439D01*
X0007439Y0056240D02*
X0004339Y0056240D01*
X0004339Y0055042D02*
X0007439Y0055042D01*
X0007439Y0053843D02*
X0004339Y0053843D01*
X0004339Y0052645D02*
X0007439Y0052645D01*
X0007439Y0051446D02*
X0004339Y0051446D01*
X0004339Y0050248D02*
X0007439Y0050248D01*
X0007439Y0049049D02*
X0004339Y0049049D01*
X0004339Y0047851D02*
X0007439Y0047851D01*
X0007439Y0046652D02*
X0004339Y0046652D01*
X0004339Y0045454D02*
X0007439Y0045454D01*
X0007439Y0044255D02*
X0004339Y0044255D01*
X0004339Y0043057D02*
X0007439Y0043057D01*
X0007439Y0041858D02*
X0004339Y0041858D01*
X0004339Y0040660D02*
X0007439Y0040660D01*
X0007439Y0039461D02*
X0004339Y0039461D01*
X0004339Y0038263D02*
X0007439Y0038263D01*
X0007439Y0037064D02*
X0004339Y0037064D01*
X0004339Y0035866D02*
X0007439Y0035866D01*
X0007439Y0034667D02*
X0004339Y0034667D01*
X0004339Y0033469D02*
X0007439Y0033469D01*
X0007439Y0032270D02*
X0004339Y0032270D01*
X0004339Y0031072D02*
X0007439Y0031072D01*
X0007439Y0029873D02*
X0004339Y0029873D01*
X0004339Y0028675D02*
X0007439Y0028675D01*
X0007439Y0027476D02*
X0004339Y0027476D01*
X0004339Y0026277D02*
X0007439Y0026277D01*
X0007439Y0025079D02*
X0004339Y0025079D01*
X0004339Y0023880D02*
X0007439Y0023880D01*
X0007439Y0022682D02*
X0004339Y0022682D01*
X0004339Y0021483D02*
X0007439Y0021483D01*
X0007439Y0020285D02*
X0004339Y0020285D01*
X0004339Y0019086D02*
X0007851Y0019086D01*
X0009050Y0017888D02*
X0004339Y0017888D01*
X0004339Y0016689D02*
X0010248Y0016689D01*
X0011447Y0015491D02*
X0004339Y0015491D01*
X0004339Y0014292D02*
X0012645Y0014292D01*
X0013844Y0013094D02*
X0004339Y0013094D01*
X0004339Y0011895D02*
X0015042Y0011895D01*
X0016241Y0010697D02*
X0004339Y0010697D01*
X0004339Y0009498D02*
X0017439Y0009498D01*
X0018638Y0008300D02*
X0004339Y0008300D01*
X0004339Y0007101D02*
X0019836Y0007101D01*
X0004339Y0005903D02*
X0039035Y0005903D01*
X0024878Y0035866D02*
X0024439Y0035866D01*
X0009639Y0089910D02*
X0012039Y0344266D01*
X0025084Y0357312D01*
X0027784Y0357312D01*
X0018700Y0343883D02*
X0014767Y0343883D01*
X0014224Y0342684D02*
X0017502Y0342684D01*
X0016303Y0341486D02*
X0014212Y0341486D01*
X0014201Y0340287D02*
X0015105Y0340287D01*
X0017539Y0321111D02*
X0025078Y0321111D01*
X0023880Y0319913D02*
X0017539Y0319913D01*
X0017539Y0318714D02*
X0023184Y0318714D01*
X0023184Y0317516D02*
X0017539Y0317516D01*
X0017539Y0316317D02*
X0023184Y0316317D01*
X0023472Y0315119D02*
X0017539Y0315119D01*
X0017539Y0313920D02*
X0024670Y0313920D01*
X0025869Y0312722D02*
X0017539Y0312722D01*
X0017539Y0311523D02*
X0025490Y0311523D01*
X0024292Y0310325D02*
X0017539Y0310325D01*
X0017539Y0309126D02*
X0023184Y0309126D01*
X0023184Y0307928D02*
X0017539Y0307928D01*
X0017539Y0306729D02*
X0023184Y0306729D01*
X0023184Y0305531D02*
X0017539Y0305531D01*
X0017539Y0304332D02*
X0024259Y0304332D01*
X0025457Y0303134D02*
X0017539Y0303134D01*
X0017539Y0301935D02*
X0076739Y0301935D01*
X0081139Y0301935D02*
X0103252Y0301935D01*
X0102054Y0300737D02*
X0081139Y0300737D01*
X0081139Y0299538D02*
X0100855Y0299538D01*
X0099657Y0298340D02*
X0081139Y0298340D01*
X0081139Y0297141D02*
X0098458Y0297141D01*
X0097260Y0295943D02*
X0081139Y0295943D01*
X0081139Y0294744D02*
X0096061Y0294744D01*
X0094863Y0293546D02*
X0081139Y0293546D01*
X0081139Y0292347D02*
X0093664Y0292347D01*
X0093639Y0291148D02*
X0081139Y0291148D01*
X0081139Y0289950D02*
X0093639Y0289950D01*
X0093639Y0288751D02*
X0080191Y0288751D01*
X0078993Y0287553D02*
X0093639Y0287553D01*
X0093639Y0286354D02*
X0077794Y0286354D01*
X0076596Y0285156D02*
X0093639Y0285156D01*
X0093639Y0283957D02*
X0075397Y0283957D01*
X0074199Y0282759D02*
X0093639Y0282759D01*
X0093639Y0281560D02*
X0073000Y0281560D01*
X0071802Y0280362D02*
X0093639Y0280362D01*
X0093639Y0279163D02*
X0070603Y0279163D01*
X0069404Y0277965D02*
X0093639Y0277965D01*
X0093639Y0276766D02*
X0068206Y0276766D01*
X0067007Y0275568D02*
X0093639Y0275568D01*
X0093639Y0274369D02*
X0065809Y0274369D01*
X0064610Y0273171D02*
X0093639Y0273171D01*
X0093639Y0271972D02*
X0063412Y0271972D01*
X0062213Y0270774D02*
X0093639Y0270774D01*
X0093639Y0269575D02*
X0061015Y0269575D01*
X0059816Y0268377D02*
X0093639Y0268377D01*
X0093639Y0267178D02*
X0058618Y0267178D01*
X0057419Y0265980D02*
X0092897Y0265980D01*
X0091698Y0264781D02*
X0056221Y0264781D01*
X0055022Y0263583D02*
X0090500Y0263583D01*
X0089301Y0262384D02*
X0053824Y0262384D01*
X0052625Y0261186D02*
X0088103Y0261186D01*
X0086904Y0259987D02*
X0051427Y0259987D01*
X0050228Y0258789D02*
X0085706Y0258789D01*
X0084507Y0257590D02*
X0049030Y0257590D01*
X0047831Y0256392D02*
X0083309Y0256392D01*
X0082110Y0255193D02*
X0046633Y0255193D01*
X0045434Y0253995D02*
X0080912Y0253995D01*
X0079713Y0252796D02*
X0044236Y0252796D01*
X0043037Y0251598D02*
X0078515Y0251598D01*
X0077316Y0250399D02*
X0041839Y0250399D01*
X0042384Y0249201D02*
X0076118Y0249201D01*
X0074919Y0248002D02*
X0042384Y0248002D01*
X0042384Y0246804D02*
X0073721Y0246804D01*
X0072522Y0245605D02*
X0042384Y0245605D01*
X0041384Y0244407D02*
X0071324Y0244407D01*
X0070125Y0243208D02*
X0040186Y0243208D01*
X0040790Y0240811D02*
X0067728Y0240811D01*
X0066530Y0239612D02*
X0041989Y0239612D01*
X0042384Y0238414D02*
X0065331Y0238414D01*
X0064133Y0237215D02*
X0042384Y0237215D01*
X0042384Y0236017D02*
X0062934Y0236017D01*
X0061736Y0234818D02*
X0041796Y0234818D01*
X0040598Y0233620D02*
X0060537Y0233620D01*
X0068927Y0242010D02*
X0024039Y0242010D01*
X0024039Y0243208D02*
X0025383Y0243208D01*
X0024184Y0244407D02*
X0024039Y0244407D01*
X0024039Y0240811D02*
X0024778Y0240811D01*
X0019639Y0232421D02*
X0017539Y0232421D01*
X0017539Y0231223D02*
X0019639Y0231223D01*
X0019639Y0230024D02*
X0017539Y0230024D01*
X0017539Y0228826D02*
X0019639Y0228826D01*
X0019639Y0227627D02*
X0017539Y0227627D01*
X0017539Y0226429D02*
X0019639Y0226429D01*
X0019639Y0225230D02*
X0017539Y0225230D01*
X0017539Y0224032D02*
X0019639Y0224032D01*
X0019639Y0222833D02*
X0017539Y0222833D01*
X0017539Y0221635D02*
X0019639Y0221635D01*
X0019639Y0220436D02*
X0017539Y0220436D01*
X0017539Y0219238D02*
X0019639Y0219238D01*
X0019639Y0218039D02*
X0017539Y0218039D01*
X0017539Y0216841D02*
X0019639Y0216841D01*
X0019639Y0215642D02*
X0017539Y0215642D01*
X0017539Y0214444D02*
X0019639Y0214444D01*
X0019639Y0213245D02*
X0017539Y0213245D01*
X0017539Y0212047D02*
X0019639Y0212047D01*
X0019639Y0210848D02*
X0017539Y0210848D01*
X0017539Y0209650D02*
X0019639Y0209650D01*
X0019639Y0208451D02*
X0017539Y0208451D01*
X0017539Y0207253D02*
X0019639Y0207253D01*
X0019639Y0206054D02*
X0017539Y0206054D01*
X0017539Y0204856D02*
X0019639Y0204856D01*
X0019639Y0203657D02*
X0017539Y0203657D01*
X0017539Y0202459D02*
X0019639Y0202459D01*
X0024039Y0210848D02*
X0024815Y0210848D01*
X0024039Y0212047D02*
X0030364Y0212047D01*
X0030223Y0213245D02*
X0031562Y0213245D01*
X0033439Y0212010D02*
X0028740Y0207312D01*
X0027784Y0207312D01*
X0030635Y0203657D02*
X0034934Y0203657D01*
X0033735Y0204856D02*
X0031833Y0204856D01*
X0032384Y0206054D02*
X0033184Y0206054D01*
X0033184Y0207253D02*
X0032384Y0207253D01*
X0032991Y0208451D02*
X0033184Y0208451D01*
X0035227Y0201260D02*
X0030341Y0201260D01*
X0031540Y0200062D02*
X0034029Y0200062D01*
X0033184Y0198863D02*
X0032384Y0198863D01*
X0032384Y0197665D02*
X0033184Y0197665D01*
X0033184Y0196466D02*
X0032384Y0196466D01*
X0032245Y0195268D02*
X0033323Y0195268D01*
X0033242Y0189275D02*
X0032326Y0189275D01*
X0032384Y0188077D02*
X0033184Y0188077D01*
X0033184Y0186878D02*
X0032384Y0186878D01*
X0032384Y0185679D02*
X0033184Y0185679D01*
X0034110Y0184481D02*
X0031459Y0184481D01*
X0030260Y0183282D02*
X0035308Y0183282D01*
X0034853Y0180885D02*
X0030716Y0180885D01*
X0031914Y0179687D02*
X0033654Y0179687D01*
X0033184Y0178488D02*
X0032384Y0178488D01*
X0032384Y0177290D02*
X0033184Y0177290D01*
X0033184Y0176091D02*
X0032384Y0176091D01*
X0031871Y0174893D02*
X0033698Y0174893D01*
X0034896Y0173694D02*
X0030672Y0173694D01*
X0040716Y0180885D02*
X0101407Y0180885D01*
X0100215Y0179687D02*
X0041914Y0179687D01*
X0042384Y0178488D02*
X0099023Y0178488D01*
X0097831Y0177290D02*
X0042384Y0177290D01*
X0042384Y0176091D02*
X0096639Y0176091D01*
X0095447Y0174893D02*
X0041871Y0174893D01*
X0040260Y0183282D02*
X0103791Y0183282D01*
X0102599Y0182084D02*
X0017539Y0182084D01*
X0024039Y0213245D02*
X0025345Y0213245D01*
X0024147Y0214444D02*
X0024039Y0214444D01*
X0024039Y0220436D02*
X0024403Y0220436D01*
X0024039Y0221635D02*
X0025602Y0221635D01*
X0025757Y0222833D02*
X0024039Y0222833D01*
X0024039Y0224032D02*
X0024559Y0224032D01*
X0040341Y0201260D02*
X0060877Y0201260D01*
X0059679Y0200062D02*
X0041540Y0200062D01*
X0042384Y0198863D02*
X0058480Y0198863D01*
X0057282Y0197665D02*
X0042384Y0197665D01*
X0042384Y0196466D02*
X0056083Y0196466D01*
X0054885Y0195268D02*
X0042245Y0195268D01*
X0042326Y0189275D02*
X0109751Y0189275D01*
X0108559Y0188077D02*
X0042384Y0188077D01*
X0042384Y0186878D02*
X0107367Y0186878D01*
X0106175Y0185679D02*
X0042384Y0185679D01*
X0041459Y0184481D02*
X0104983Y0184481D01*
X0110943Y0190474D02*
X0056313Y0190474D01*
X0057039Y0191199D02*
X0057039Y0191199D01*
X0057512Y0191672D02*
X0112135Y0191672D01*
X0109054Y0171297D02*
X0199438Y0171297D01*
X0198239Y0170099D02*
X0107856Y0170099D01*
X0106039Y0148510D02*
X0200759Y0148510D01*
X0201957Y0147312D01*
X0197834Y0144930D02*
X0105570Y0144930D01*
X0106768Y0146129D02*
X0197357Y0146129D01*
X0197357Y0138938D02*
X0190077Y0138938D01*
X0188879Y0137739D02*
X0197357Y0137739D01*
X0197357Y0136541D02*
X0187680Y0136541D01*
X0186482Y0135342D02*
X0197422Y0135342D01*
X0195961Y0134144D02*
X0185283Y0134144D01*
X0184085Y0132945D02*
X0194762Y0132945D01*
X0193564Y0131746D02*
X0182886Y0131746D01*
X0181688Y0130548D02*
X0192365Y0130548D01*
X0191167Y0129349D02*
X0180489Y0129349D01*
X0179061Y0134144D02*
X0094783Y0134144D01*
X0095982Y0135342D02*
X0180259Y0135342D01*
X0181458Y0136541D02*
X0097180Y0136541D01*
X0098379Y0137739D02*
X0182656Y0137739D01*
X0183855Y0138938D02*
X0099577Y0138938D01*
X0100776Y0140136D02*
X0185053Y0140136D01*
X0186252Y0141335D02*
X0101974Y0141335D01*
X0103173Y0142533D02*
X0187450Y0142533D01*
X0188649Y0143732D02*
X0104371Y0143732D01*
X0114781Y0131746D02*
X0092386Y0131746D01*
X0091188Y0130548D02*
X0113465Y0130548D01*
X0112639Y0129349D02*
X0089989Y0129349D01*
X0088791Y0128151D02*
X0112609Y0128151D01*
X0112639Y0126952D02*
X0087592Y0126952D01*
X0086394Y0125754D02*
X0112639Y0125754D01*
X0112639Y0124555D02*
X0085195Y0124555D01*
X0083997Y0123357D02*
X0112639Y0123357D01*
X0112639Y0122158D02*
X0083239Y0122158D01*
X0083239Y0120960D02*
X0113278Y0120960D01*
X0114476Y0119761D02*
X0083239Y0119761D01*
X0083239Y0118563D02*
X0115675Y0118563D01*
X0116873Y0117364D02*
X0083239Y0117364D01*
X0083239Y0116166D02*
X0118072Y0116166D01*
X0119464Y0112570D02*
X0120664Y0112570D01*
X0120664Y0111372D02*
X0119464Y0111372D01*
X0119464Y0107776D02*
X0120664Y0107776D01*
X0120664Y0106578D02*
X0119464Y0106578D01*
X0119464Y0105379D02*
X0120664Y0105379D01*
X0120664Y0104181D02*
X0119464Y0104181D01*
X0125207Y0110173D02*
X0144378Y0110173D01*
X0145059Y0111372D02*
X0125207Y0111372D01*
X0124896Y0112570D02*
X0146475Y0112570D01*
X0151282Y0112570D02*
X0152082Y0112570D01*
X0152082Y0111372D02*
X0151282Y0111372D01*
X0151282Y0110173D02*
X0152082Y0110173D01*
X0152082Y0108975D02*
X0151282Y0108975D01*
X0156175Y0104181D02*
X0163439Y0104181D01*
X0163439Y0105379D02*
X0158034Y0105379D01*
X0158849Y0106578D02*
X0163439Y0106578D01*
X0163439Y0107776D02*
X0159219Y0107776D01*
X0159269Y0108975D02*
X0162563Y0108975D01*
X0161364Y0110173D02*
X0158985Y0110173D01*
X0158305Y0111372D02*
X0160166Y0111372D01*
X0158967Y0112570D02*
X0156889Y0112570D01*
X0157769Y0113769D02*
X0083239Y0113769D01*
X0083239Y0114967D02*
X0156570Y0114967D01*
X0159197Y0118563D02*
X0187539Y0118563D01*
X0187539Y0119761D02*
X0157999Y0119761D01*
X0160396Y0117364D02*
X0187539Y0117364D01*
X0187539Y0116166D02*
X0161594Y0116166D01*
X0162793Y0114967D02*
X0186684Y0114967D01*
X0185486Y0113769D02*
X0163991Y0113769D01*
X0165190Y0112570D02*
X0184287Y0112570D01*
X0183089Y0111372D02*
X0166388Y0111372D01*
X0167587Y0110173D02*
X0181890Y0110173D01*
X0180692Y0108975D02*
X0167839Y0108975D01*
X0167839Y0107776D02*
X0179493Y0107776D01*
X0178295Y0106578D02*
X0167839Y0106578D01*
X0167839Y0105379D02*
X0177096Y0105379D01*
X0175898Y0104181D02*
X0167839Y0104181D01*
X0167839Y0102982D02*
X0174699Y0102982D01*
X0173501Y0101784D02*
X0167723Y0101784D01*
X0166525Y0100585D02*
X0172302Y0100585D01*
X0171104Y0099387D02*
X0165326Y0099387D01*
X0164128Y0098188D02*
X0169905Y0098188D01*
X0168707Y0096990D02*
X0162929Y0096990D01*
X0160302Y0100585D02*
X0158811Y0100585D01*
X0157936Y0101784D02*
X0161501Y0101784D01*
X0162699Y0102982D02*
X0155959Y0102982D01*
X0158446Y0095791D02*
X0167508Y0095791D01*
X0166310Y0094593D02*
X0157191Y0094593D01*
X0176180Y0056240D02*
X0199639Y0056240D01*
X0199639Y0055042D02*
X0174981Y0055042D01*
X0174091Y0046652D02*
X0173839Y0046652D01*
X0183639Y0045410D02*
X0199639Y0045410D01*
X0201839Y0047610D01*
X0201839Y0072110D01*
X0228339Y0098610D01*
X0228339Y0120610D01*
X0221637Y0127312D01*
X0211957Y0127312D01*
X0215227Y0130548D02*
X0230339Y0130548D01*
X0230339Y0131746D02*
X0214028Y0131746D01*
X0214096Y0132945D02*
X0230339Y0132945D01*
X0230339Y0129349D02*
X0222711Y0129349D01*
X0223909Y0128151D02*
X0230339Y0128151D01*
X0230339Y0126952D02*
X0225108Y0126952D01*
X0226306Y0125754D02*
X0230339Y0125754D01*
X0230339Y0124555D02*
X0227505Y0124555D01*
X0228703Y0123357D02*
X0230339Y0123357D01*
X0230339Y0122158D02*
X0229902Y0122158D01*
X0234739Y0122158D02*
X0236060Y0122158D01*
X0236060Y0120960D02*
X0234739Y0120960D01*
X0234739Y0119761D02*
X0236060Y0119761D01*
X0236060Y0118563D02*
X0234739Y0118563D01*
X0234739Y0117364D02*
X0236060Y0117364D01*
X0236060Y0116166D02*
X0234739Y0116166D01*
X0234739Y0114967D02*
X0236060Y0114967D01*
X0236060Y0113769D02*
X0234739Y0113769D01*
X0234739Y0112570D02*
X0236060Y0112570D01*
X0236060Y0111372D02*
X0234739Y0111372D01*
X0234739Y0110173D02*
X0236060Y0110173D01*
X0236060Y0108975D02*
X0234739Y0108975D01*
X0234739Y0107776D02*
X0236060Y0107776D01*
X0236060Y0106578D02*
X0234739Y0106578D01*
X0234739Y0105379D02*
X0236060Y0105379D01*
X0236060Y0104181D02*
X0234739Y0104181D01*
X0234739Y0102982D02*
X0236060Y0102982D01*
X0236060Y0101784D02*
X0234739Y0101784D01*
X0234739Y0100585D02*
X0236060Y0100585D01*
X0236060Y0099387D02*
X0234739Y0099387D01*
X0234739Y0098188D02*
X0236060Y0098188D01*
X0236060Y0096990D02*
X0234739Y0096990D01*
X0234739Y0095791D02*
X0236060Y0095791D01*
X0236060Y0094593D02*
X0234739Y0094593D01*
X0233734Y0093394D02*
X0236060Y0093394D01*
X0236060Y0092196D02*
X0232535Y0092196D01*
X0231337Y0090997D02*
X0236060Y0090997D01*
X0236060Y0089799D02*
X0230138Y0089799D01*
X0228940Y0088600D02*
X0236060Y0088600D01*
X0236060Y0087402D02*
X0227741Y0087402D01*
X0226543Y0086203D02*
X0236060Y0086203D01*
X0236060Y0085005D02*
X0225344Y0085005D01*
X0224146Y0083806D02*
X0236060Y0083806D01*
X0236060Y0082608D02*
X0222947Y0082608D01*
X0221749Y0081409D02*
X0236060Y0081409D01*
X0236060Y0080210D02*
X0220550Y0080210D01*
X0219352Y0079012D02*
X0236060Y0079012D01*
X0236060Y0077813D02*
X0218153Y0077813D01*
X0216955Y0076615D02*
X0236060Y0076615D01*
X0236060Y0075416D02*
X0215756Y0075416D01*
X0214558Y0074218D02*
X0236060Y0074218D01*
X0236060Y0073019D02*
X0214439Y0073019D01*
X0214439Y0071821D02*
X0236060Y0071821D01*
X0236060Y0070622D02*
X0214439Y0070622D01*
X0214439Y0069424D02*
X0236060Y0069424D01*
X0236060Y0068225D02*
X0214439Y0068225D01*
X0214439Y0067027D02*
X0236060Y0067027D01*
X0236060Y0065828D02*
X0214439Y0065828D01*
X0214439Y0064630D02*
X0236060Y0064630D01*
X0236060Y0063431D02*
X0214439Y0063431D01*
X0214439Y0062233D02*
X0236060Y0062233D01*
X0236060Y0061034D02*
X0214439Y0061034D01*
X0214439Y0059836D02*
X0236060Y0059836D01*
X0236060Y0058637D02*
X0214439Y0058637D01*
X0214439Y0057439D02*
X0236060Y0057439D01*
X0236060Y0056240D02*
X0214439Y0056240D01*
X0214439Y0055042D02*
X0236060Y0055042D01*
X0236060Y0053843D02*
X0219911Y0053843D01*
X0221109Y0052645D02*
X0236060Y0052645D01*
X0236060Y0051446D02*
X0221439Y0051446D01*
X0221439Y0050248D02*
X0236060Y0050248D01*
X0236060Y0049049D02*
X0221439Y0049049D01*
X0220784Y0047851D02*
X0236060Y0047851D01*
X0236060Y0046652D02*
X0219586Y0046652D01*
X0219499Y0044255D02*
X0236060Y0044255D01*
X0236060Y0043057D02*
X0220698Y0043057D01*
X0221439Y0041858D02*
X0236060Y0041858D01*
X0236060Y0040660D02*
X0221439Y0040660D01*
X0221439Y0039461D02*
X0236060Y0039461D01*
X0236060Y0038263D02*
X0221196Y0038263D01*
X0219998Y0037064D02*
X0236060Y0037064D01*
X0236060Y0035866D02*
X0218799Y0035866D01*
X0214878Y0035866D02*
X0214439Y0035866D01*
X0214439Y0034667D02*
X0236060Y0034667D01*
X0236060Y0033469D02*
X0214439Y0033469D01*
X0214439Y0032270D02*
X0236060Y0032270D01*
X0236060Y0031072D02*
X0213411Y0031072D01*
X0212213Y0029873D02*
X0236060Y0029873D01*
X0236060Y0028675D02*
X0211014Y0028675D01*
X0209816Y0027476D02*
X0236060Y0027476D01*
X0236060Y0016689D02*
X0146929Y0016689D01*
X0145730Y0015491D02*
X0236060Y0015491D01*
X0236060Y0014292D02*
X0144532Y0014292D01*
X0158799Y0035866D02*
X0164878Y0035866D01*
X0189939Y0029010D02*
X0208239Y0029010D01*
X0212239Y0033010D01*
X0212239Y0075010D01*
X0232539Y0095310D01*
X0232539Y0296210D01*
X0221437Y0307312D01*
X0211957Y0307312D01*
X0215450Y0310325D02*
X0236060Y0310325D01*
X0236060Y0311523D02*
X0214251Y0311523D01*
X0213863Y0312712D02*
X0216557Y0315406D01*
X0216557Y0319217D01*
X0213863Y0321912D01*
X0210052Y0321912D01*
X0207357Y0319217D01*
X0207357Y0315406D01*
X0210052Y0312712D01*
X0213863Y0312712D01*
X0213873Y0312722D02*
X0236060Y0312722D01*
X0236060Y0313920D02*
X0215071Y0313920D01*
X0216270Y0315119D02*
X0236060Y0315119D01*
X0236060Y0316317D02*
X0216557Y0316317D01*
X0216557Y0317516D02*
X0236060Y0317516D01*
X0236060Y0318714D02*
X0216557Y0318714D01*
X0215862Y0319913D02*
X0236060Y0319913D01*
X0236060Y0321111D02*
X0214663Y0321111D01*
X0213863Y0322712D02*
X0216557Y0325406D01*
X0216557Y0329217D01*
X0213863Y0331912D01*
X0210052Y0331912D01*
X0207357Y0329217D01*
X0207357Y0325406D01*
X0210052Y0322712D01*
X0213863Y0322712D01*
X0214659Y0323508D02*
X0236060Y0323508D01*
X0236060Y0322310D02*
X0153439Y0322310D01*
X0153439Y0323508D02*
X0199256Y0323508D01*
X0200052Y0322712D02*
X0197357Y0325406D01*
X0197357Y0329217D01*
X0200052Y0331912D01*
X0203863Y0331912D01*
X0206557Y0329217D01*
X0206557Y0325406D01*
X0203863Y0322712D01*
X0200052Y0322712D01*
X0200052Y0321912D02*
X0197357Y0319217D01*
X0197357Y0315406D01*
X0200052Y0312712D01*
X0203863Y0312712D01*
X0206557Y0315406D01*
X0206557Y0319217D01*
X0203863Y0321912D01*
X0200052Y0321912D01*
X0199252Y0321111D02*
X0153439Y0321111D01*
X0153439Y0319913D02*
X0198053Y0319913D01*
X0197357Y0318714D02*
X0153439Y0318714D01*
X0153439Y0317516D02*
X0197357Y0317516D01*
X0197357Y0316317D02*
X0153439Y0316317D01*
X0153439Y0315119D02*
X0197645Y0315119D01*
X0198844Y0313920D02*
X0153439Y0313920D01*
X0153439Y0312722D02*
X0200042Y0312722D01*
X0200052Y0311912D02*
X0197357Y0309217D01*
X0197357Y0305406D01*
X0200052Y0302712D01*
X0203863Y0302712D01*
X0206557Y0305406D01*
X0206557Y0309217D01*
X0203863Y0311912D01*
X0200052Y0311912D01*
X0199663Y0311523D02*
X0153439Y0311523D01*
X0153439Y0310325D02*
X0198465Y0310325D01*
X0197357Y0309126D02*
X0153439Y0309126D01*
X0153439Y0307928D02*
X0197357Y0307928D01*
X0197357Y0306729D02*
X0153439Y0306729D01*
X0153439Y0305531D02*
X0197357Y0305531D01*
X0198432Y0304332D02*
X0153439Y0304332D01*
X0153439Y0303134D02*
X0199630Y0303134D01*
X0200052Y0301912D02*
X0197357Y0299217D01*
X0197357Y0295406D01*
X0200052Y0292712D01*
X0203863Y0292712D01*
X0206557Y0295406D01*
X0206557Y0299217D01*
X0203863Y0301912D01*
X0200052Y0301912D01*
X0198877Y0300737D02*
X0153439Y0300737D01*
X0153439Y0301935D02*
X0223702Y0301935D01*
X0222504Y0303134D02*
X0214285Y0303134D01*
X0213863Y0301912D02*
X0210052Y0301912D01*
X0207357Y0299217D01*
X0207357Y0295406D01*
X0210052Y0292712D01*
X0213863Y0292712D01*
X0216557Y0295406D01*
X0216557Y0299217D01*
X0213863Y0301912D01*
X0215038Y0300737D02*
X0224901Y0300737D01*
X0226099Y0299538D02*
X0216237Y0299538D01*
X0216557Y0298340D02*
X0227298Y0298340D01*
X0228496Y0297141D02*
X0216557Y0297141D01*
X0216557Y0295943D02*
X0229695Y0295943D01*
X0230339Y0294744D02*
X0215895Y0294744D01*
X0214697Y0293546D02*
X0230339Y0293546D01*
X0230339Y0292347D02*
X0154274Y0292347D01*
X0155339Y0293546D02*
X0199218Y0293546D01*
X0198020Y0294744D02*
X0155339Y0294744D01*
X0155339Y0295943D02*
X0197357Y0295943D01*
X0197357Y0297141D02*
X0155006Y0297141D01*
X0153808Y0298340D02*
X0197357Y0298340D01*
X0197678Y0299538D02*
X0153439Y0299538D01*
X0151239Y0295110D02*
X0151239Y0324910D01*
X0179039Y0352710D01*
X0179039Y0382110D01*
X0172339Y0388810D01*
X0151139Y0388810D01*
X0149068Y0393022D02*
X0236060Y0393022D01*
X0236060Y0391823D02*
X0213951Y0391823D01*
X0213863Y0391912D02*
X0210052Y0391912D01*
X0207357Y0389217D01*
X0207357Y0385406D01*
X0210052Y0382712D01*
X0213863Y0382712D01*
X0216557Y0385406D01*
X0216557Y0389217D01*
X0213863Y0391912D01*
X0215150Y0390625D02*
X0236060Y0390625D01*
X0236060Y0389426D02*
X0216348Y0389426D01*
X0216557Y0388228D02*
X0236060Y0388228D01*
X0236060Y0387029D02*
X0216557Y0387029D01*
X0216557Y0385831D02*
X0236060Y0385831D01*
X0236060Y0384632D02*
X0215783Y0384632D01*
X0214585Y0383434D02*
X0236060Y0383434D01*
X0236060Y0382235D02*
X0181239Y0382235D01*
X0181239Y0381037D02*
X0199177Y0381037D01*
X0200052Y0381912D02*
X0197357Y0379217D01*
X0197357Y0375406D01*
X0200052Y0372712D01*
X0203863Y0372712D01*
X0206557Y0375406D01*
X0206557Y0379217D01*
X0203863Y0381912D01*
X0200052Y0381912D01*
X0200052Y0382712D02*
X0203863Y0382712D01*
X0206557Y0385406D01*
X0206557Y0389217D01*
X0203863Y0391912D01*
X0200052Y0391912D01*
X0197357Y0389217D01*
X0197357Y0385406D01*
X0200052Y0382712D01*
X0199330Y0383434D02*
X0180826Y0383434D01*
X0179628Y0384632D02*
X0198132Y0384632D01*
X0197357Y0385831D02*
X0178429Y0385831D01*
X0177231Y0387029D02*
X0197357Y0387029D01*
X0197357Y0388228D02*
X0176032Y0388228D01*
X0174834Y0389426D02*
X0197567Y0389426D01*
X0198765Y0390625D02*
X0173635Y0390625D01*
X0175439Y0381310D02*
X0175439Y0354910D01*
X0143739Y0323210D01*
X0143739Y0300910D01*
X0140511Y0298340D02*
X0113779Y0298340D01*
X0114978Y0299538D02*
X0139639Y0299538D01*
X0139639Y0300737D02*
X0116176Y0300737D01*
X0117375Y0301935D02*
X0139639Y0301935D01*
X0140164Y0303134D02*
X0118573Y0303134D01*
X0119772Y0304332D02*
X0141362Y0304332D01*
X0141539Y0305531D02*
X0120970Y0305531D01*
X0122169Y0306729D02*
X0141539Y0306729D01*
X0141539Y0307928D02*
X0123367Y0307928D01*
X0124566Y0309126D02*
X0141539Y0309126D01*
X0141539Y0310325D02*
X0125764Y0310325D01*
X0126963Y0311523D02*
X0141539Y0311523D01*
X0141539Y0312722D02*
X0128161Y0312722D01*
X0129360Y0313920D02*
X0141539Y0313920D01*
X0141539Y0315119D02*
X0130558Y0315119D01*
X0131757Y0316317D02*
X0141539Y0316317D01*
X0141539Y0317516D02*
X0132955Y0317516D01*
X0134154Y0318714D02*
X0141539Y0318714D01*
X0141539Y0319913D02*
X0135352Y0319913D01*
X0136551Y0321111D02*
X0141539Y0321111D01*
X0141539Y0322310D02*
X0137749Y0322310D01*
X0138948Y0323508D02*
X0141539Y0323508D01*
X0142124Y0324707D02*
X0140146Y0324707D01*
X0141345Y0325905D02*
X0143322Y0325905D01*
X0142543Y0327104D02*
X0144521Y0327104D01*
X0143742Y0328302D02*
X0145719Y0328302D01*
X0144940Y0329501D02*
X0146918Y0329501D01*
X0146139Y0330699D02*
X0148116Y0330699D01*
X0147337Y0331898D02*
X0149315Y0331898D01*
X0148536Y0333096D02*
X0150513Y0333096D01*
X0149735Y0334295D02*
X0151712Y0334295D01*
X0150933Y0335493D02*
X0152910Y0335493D01*
X0152132Y0336692D02*
X0154109Y0336692D01*
X0153330Y0337890D02*
X0155308Y0337890D01*
X0154529Y0339089D02*
X0156506Y0339089D01*
X0155727Y0340287D02*
X0157705Y0340287D01*
X0156926Y0341486D02*
X0158903Y0341486D01*
X0158124Y0342684D02*
X0160102Y0342684D01*
X0159323Y0343883D02*
X0161300Y0343883D01*
X0160521Y0345081D02*
X0162499Y0345081D01*
X0161720Y0346280D02*
X0163697Y0346280D01*
X0162918Y0347479D02*
X0164896Y0347479D01*
X0164117Y0348677D02*
X0166094Y0348677D01*
X0165315Y0349876D02*
X0167293Y0349876D01*
X0166514Y0351074D02*
X0168491Y0351074D01*
X0167712Y0352273D02*
X0169690Y0352273D01*
X0168911Y0353471D02*
X0170888Y0353471D01*
X0170109Y0354670D02*
X0172087Y0354670D01*
X0171308Y0355868D02*
X0173239Y0355868D01*
X0173239Y0357067D02*
X0171439Y0357067D01*
X0171439Y0358265D02*
X0173239Y0358265D01*
X0173239Y0359464D02*
X0171439Y0359464D01*
X0171439Y0360662D02*
X0173239Y0360662D01*
X0173239Y0361861D02*
X0171439Y0361861D01*
X0171439Y0363059D02*
X0173239Y0363059D01*
X0173239Y0364258D02*
X0171439Y0364258D01*
X0171439Y0365456D02*
X0173239Y0365456D01*
X0173239Y0366655D02*
X0171439Y0366655D01*
X0172587Y0367853D02*
X0173239Y0367853D01*
X0173239Y0369052D02*
X0172739Y0369052D01*
X0172739Y0370250D02*
X0173239Y0370250D01*
X0173239Y0371449D02*
X0172739Y0371449D01*
X0173239Y0372647D02*
X0171907Y0372647D01*
X0181239Y0372647D02*
X0236060Y0372647D01*
X0236060Y0371449D02*
X0214326Y0371449D01*
X0213863Y0371912D02*
X0210052Y0371912D01*
X0207357Y0369217D01*
X0207357Y0365406D01*
X0210052Y0362712D01*
X0213863Y0362712D01*
X0216557Y0365406D01*
X0216557Y0369217D01*
X0213863Y0371912D01*
X0213863Y0372712D02*
X0216557Y0375406D01*
X0216557Y0379217D01*
X0213863Y0381912D01*
X0210052Y0381912D01*
X0207357Y0379217D01*
X0207357Y0375406D01*
X0210052Y0372712D01*
X0213863Y0372712D01*
X0214997Y0373846D02*
X0236060Y0373846D01*
X0236060Y0375044D02*
X0216195Y0375044D01*
X0216557Y0376243D02*
X0236060Y0376243D01*
X0236060Y0377441D02*
X0216557Y0377441D01*
X0216557Y0378640D02*
X0236060Y0378640D01*
X0236060Y0379838D02*
X0215936Y0379838D01*
X0214738Y0381037D02*
X0236060Y0381037D01*
X0236060Y0370250D02*
X0215524Y0370250D01*
X0216557Y0369052D02*
X0236060Y0369052D01*
X0236060Y0367853D02*
X0216557Y0367853D01*
X0216557Y0366655D02*
X0236060Y0366655D01*
X0236060Y0365456D02*
X0216557Y0365456D01*
X0215409Y0364258D02*
X0236060Y0364258D01*
X0236060Y0363059D02*
X0214210Y0363059D01*
X0213863Y0361912D02*
X0210052Y0361912D01*
X0207357Y0359217D01*
X0207357Y0355406D01*
X0210052Y0352712D01*
X0213863Y0352712D01*
X0216557Y0355406D01*
X0216557Y0359217D01*
X0213863Y0361912D01*
X0213914Y0361861D02*
X0236060Y0361861D01*
X0236060Y0360662D02*
X0215113Y0360662D01*
X0216311Y0359464D02*
X0236060Y0359464D01*
X0236060Y0358265D02*
X0216557Y0358265D01*
X0216557Y0357067D02*
X0236060Y0357067D01*
X0236060Y0355868D02*
X0216557Y0355868D01*
X0215821Y0354670D02*
X0236060Y0354670D01*
X0236060Y0353471D02*
X0214622Y0353471D01*
X0213863Y0351912D02*
X0216557Y0349217D01*
X0216557Y0345406D01*
X0213863Y0342712D01*
X0210052Y0342712D01*
X0207357Y0345406D01*
X0207357Y0349217D01*
X0210052Y0351912D01*
X0213863Y0351912D01*
X0214701Y0351074D02*
X0236060Y0351074D01*
X0236060Y0349876D02*
X0215899Y0349876D01*
X0216557Y0348677D02*
X0236060Y0348677D01*
X0236060Y0347479D02*
X0216557Y0347479D01*
X0216557Y0346280D02*
X0236060Y0346280D01*
X0236060Y0345081D02*
X0216233Y0345081D01*
X0215034Y0343883D02*
X0236060Y0343883D01*
X0236060Y0342684D02*
X0172124Y0342684D01*
X0170926Y0341486D02*
X0199626Y0341486D01*
X0200052Y0341912D02*
X0197357Y0339217D01*
X0197357Y0335406D01*
X0200052Y0332712D01*
X0203863Y0332712D01*
X0206557Y0335406D01*
X0206557Y0339217D01*
X0203863Y0341912D01*
X0200052Y0341912D01*
X0200052Y0342712D02*
X0203863Y0342712D01*
X0206557Y0345406D01*
X0206557Y0349217D01*
X0203863Y0351912D01*
X0200052Y0351912D01*
X0197357Y0349217D01*
X0197357Y0345406D01*
X0200052Y0342712D01*
X0198881Y0343883D02*
X0173323Y0343883D01*
X0174521Y0345081D02*
X0197682Y0345081D01*
X0197357Y0346280D02*
X0175720Y0346280D01*
X0176918Y0347479D02*
X0197357Y0347479D01*
X0197357Y0348677D02*
X0178117Y0348677D01*
X0179315Y0349876D02*
X0198016Y0349876D01*
X0199214Y0351074D02*
X0180514Y0351074D01*
X0181239Y0352273D02*
X0236060Y0352273D01*
X0236060Y0341486D02*
X0214289Y0341486D01*
X0213863Y0341912D02*
X0210052Y0341912D01*
X0207357Y0339217D01*
X0207357Y0335406D01*
X0210052Y0332712D01*
X0213863Y0332712D01*
X0216557Y0335406D01*
X0216557Y0339217D01*
X0213863Y0341912D01*
X0215487Y0340287D02*
X0236060Y0340287D01*
X0236060Y0339089D02*
X0216557Y0339089D01*
X0216557Y0337890D02*
X0236060Y0337890D01*
X0236060Y0336692D02*
X0216557Y0336692D01*
X0216557Y0335493D02*
X0236060Y0335493D01*
X0236060Y0334295D02*
X0215446Y0334295D01*
X0214247Y0333096D02*
X0236060Y0333096D01*
X0236060Y0331898D02*
X0213877Y0331898D01*
X0215075Y0330699D02*
X0236060Y0330699D01*
X0236060Y0329501D02*
X0216274Y0329501D01*
X0216557Y0328302D02*
X0236060Y0328302D01*
X0236060Y0327104D02*
X0216557Y0327104D01*
X0216557Y0325905D02*
X0236060Y0325905D01*
X0236060Y0324707D02*
X0215858Y0324707D01*
X0210038Y0331898D02*
X0203877Y0331898D01*
X0204247Y0333096D02*
X0209668Y0333096D01*
X0208469Y0334295D02*
X0205446Y0334295D01*
X0206557Y0335493D02*
X0207357Y0335493D01*
X0207357Y0336692D02*
X0206557Y0336692D01*
X0206557Y0337890D02*
X0207357Y0337890D01*
X0207357Y0339089D02*
X0206557Y0339089D01*
X0205487Y0340287D02*
X0208428Y0340287D01*
X0209626Y0341486D02*
X0204289Y0341486D01*
X0205034Y0343883D02*
X0208881Y0343883D01*
X0207682Y0345081D02*
X0206233Y0345081D01*
X0206557Y0346280D02*
X0207357Y0346280D01*
X0207357Y0347479D02*
X0206557Y0347479D01*
X0206557Y0348677D02*
X0207357Y0348677D01*
X0208016Y0349876D02*
X0205899Y0349876D01*
X0204701Y0351074D02*
X0209214Y0351074D01*
X0209293Y0353471D02*
X0204622Y0353471D01*
X0203863Y0352712D02*
X0206557Y0355406D01*
X0206557Y0359217D01*
X0203863Y0361912D01*
X0200052Y0361912D01*
X0197357Y0359217D01*
X0197357Y0355406D01*
X0200052Y0352712D01*
X0203863Y0352712D01*
X0205821Y0354670D02*
X0208094Y0354670D01*
X0207357Y0355868D02*
X0206557Y0355868D01*
X0206557Y0357067D02*
X0207357Y0357067D01*
X0207357Y0358265D02*
X0206557Y0358265D01*
X0206311Y0359464D02*
X0207604Y0359464D01*
X0208802Y0360662D02*
X0205113Y0360662D01*
X0203914Y0361861D02*
X0210001Y0361861D01*
X0209705Y0363059D02*
X0204210Y0363059D01*
X0203863Y0362712D02*
X0206557Y0365406D01*
X0206557Y0369217D01*
X0203863Y0371912D01*
X0200052Y0371912D01*
X0197357Y0369217D01*
X0197357Y0365406D01*
X0200052Y0362712D01*
X0203863Y0362712D01*
X0205409Y0364258D02*
X0208506Y0364258D01*
X0207357Y0365456D02*
X0206557Y0365456D01*
X0206557Y0366655D02*
X0207357Y0366655D01*
X0207357Y0367853D02*
X0206557Y0367853D01*
X0206557Y0369052D02*
X0207357Y0369052D01*
X0208391Y0370250D02*
X0205524Y0370250D01*
X0204326Y0371449D02*
X0209589Y0371449D01*
X0208918Y0373846D02*
X0204997Y0373846D01*
X0206195Y0375044D02*
X0207720Y0375044D01*
X0207357Y0376243D02*
X0206557Y0376243D01*
X0206557Y0377441D02*
X0207357Y0377441D01*
X0207357Y0378640D02*
X0206557Y0378640D01*
X0205936Y0379838D02*
X0207979Y0379838D01*
X0209177Y0381037D02*
X0204738Y0381037D01*
X0204585Y0383434D02*
X0209330Y0383434D01*
X0208132Y0384632D02*
X0205783Y0384632D01*
X0206557Y0385831D02*
X0207357Y0385831D01*
X0207357Y0387029D02*
X0206557Y0387029D01*
X0206557Y0388228D02*
X0207357Y0388228D01*
X0207567Y0389426D02*
X0206348Y0389426D01*
X0205150Y0390625D02*
X0208765Y0390625D01*
X0209964Y0391823D02*
X0203951Y0391823D01*
X0199964Y0391823D02*
X0115837Y0391823D01*
X0146399Y0345081D02*
X0081139Y0345081D01*
X0081139Y0343883D02*
X0145200Y0343883D01*
X0144002Y0342684D02*
X0081139Y0342684D01*
X0081139Y0341486D02*
X0142803Y0341486D01*
X0141605Y0340287D02*
X0081139Y0340287D01*
X0081139Y0339089D02*
X0140406Y0339089D01*
X0139208Y0337890D02*
X0081139Y0337890D01*
X0081139Y0336692D02*
X0138009Y0336692D01*
X0136810Y0335493D02*
X0081139Y0335493D01*
X0081139Y0334295D02*
X0135612Y0334295D01*
X0134413Y0333096D02*
X0081139Y0333096D01*
X0081139Y0331898D02*
X0133215Y0331898D01*
X0132016Y0330699D02*
X0081139Y0330699D01*
X0081139Y0329501D02*
X0130818Y0329501D01*
X0129619Y0328302D02*
X0081139Y0328302D01*
X0081139Y0327104D02*
X0128421Y0327104D01*
X0127222Y0325905D02*
X0081139Y0325905D01*
X0081139Y0324707D02*
X0126024Y0324707D01*
X0124825Y0323508D02*
X0081139Y0323508D01*
X0081139Y0322310D02*
X0123627Y0322310D01*
X0122428Y0321111D02*
X0081139Y0321111D01*
X0081139Y0319913D02*
X0121230Y0319913D01*
X0120031Y0318714D02*
X0081139Y0318714D01*
X0081139Y0317516D02*
X0118833Y0317516D01*
X0117634Y0316317D02*
X0081139Y0316317D01*
X0081139Y0315119D02*
X0116436Y0315119D01*
X0115237Y0313920D02*
X0081139Y0313920D01*
X0081139Y0312722D02*
X0114039Y0312722D01*
X0112840Y0311523D02*
X0081139Y0311523D01*
X0081139Y0310325D02*
X0111642Y0310325D01*
X0110443Y0309126D02*
X0081139Y0309126D01*
X0081139Y0307928D02*
X0109245Y0307928D01*
X0108046Y0306729D02*
X0081139Y0306729D01*
X0081139Y0305531D02*
X0106848Y0305531D01*
X0105649Y0304332D02*
X0081139Y0304332D01*
X0081139Y0303134D02*
X0104451Y0303134D01*
X0110184Y0294744D02*
X0147139Y0294744D01*
X0147139Y0293546D02*
X0108985Y0293546D01*
X0107787Y0292347D02*
X0148204Y0292347D01*
X0149402Y0291148D02*
X0106588Y0291148D01*
X0105390Y0289950D02*
X0198090Y0289950D01*
X0197357Y0288751D02*
X0104191Y0288751D01*
X0103539Y0287553D02*
X0197357Y0287553D01*
X0197357Y0286354D02*
X0103539Y0286354D01*
X0103539Y0285156D02*
X0197608Y0285156D01*
X0199289Y0291148D02*
X0153075Y0291148D01*
X0147139Y0295943D02*
X0111382Y0295943D01*
X0112581Y0297141D02*
X0141709Y0297141D01*
X0145768Y0297141D02*
X0147471Y0297141D01*
X0146966Y0298340D02*
X0148670Y0298340D01*
X0149039Y0299538D02*
X0147839Y0299538D01*
X0147839Y0300737D02*
X0149039Y0300737D01*
X0149039Y0301935D02*
X0147839Y0301935D01*
X0147313Y0303134D02*
X0149039Y0303134D01*
X0149039Y0304332D02*
X0146115Y0304332D01*
X0145939Y0305531D02*
X0149039Y0305531D01*
X0149039Y0306729D02*
X0145939Y0306729D01*
X0145939Y0307928D02*
X0149039Y0307928D01*
X0149039Y0309126D02*
X0145939Y0309126D01*
X0145939Y0310325D02*
X0149039Y0310325D01*
X0149039Y0311523D02*
X0145939Y0311523D01*
X0145939Y0312722D02*
X0149039Y0312722D01*
X0149039Y0313920D02*
X0145939Y0313920D01*
X0145939Y0315119D02*
X0149039Y0315119D01*
X0149039Y0316317D02*
X0145939Y0316317D01*
X0145939Y0317516D02*
X0149039Y0317516D01*
X0149039Y0318714D02*
X0145939Y0318714D01*
X0145939Y0319913D02*
X0149039Y0319913D01*
X0149039Y0321111D02*
X0145939Y0321111D01*
X0145949Y0322310D02*
X0149039Y0322310D01*
X0149039Y0323508D02*
X0147148Y0323508D01*
X0148346Y0324707D02*
X0149039Y0324707D01*
X0154146Y0324707D02*
X0198057Y0324707D01*
X0197357Y0325905D02*
X0155345Y0325905D01*
X0156543Y0327104D02*
X0197357Y0327104D01*
X0197357Y0328302D02*
X0157742Y0328302D01*
X0158940Y0329501D02*
X0197641Y0329501D01*
X0198840Y0330699D02*
X0160139Y0330699D01*
X0161337Y0331898D02*
X0200038Y0331898D01*
X0199668Y0333096D02*
X0162536Y0333096D01*
X0163735Y0334295D02*
X0198469Y0334295D01*
X0197357Y0335493D02*
X0164933Y0335493D01*
X0166132Y0336692D02*
X0197357Y0336692D01*
X0197357Y0337890D02*
X0167330Y0337890D01*
X0168529Y0339089D02*
X0197357Y0339089D01*
X0198428Y0340287D02*
X0169727Y0340287D01*
X0181239Y0353471D02*
X0199293Y0353471D01*
X0198094Y0354670D02*
X0181239Y0354670D01*
X0181239Y0355868D02*
X0197357Y0355868D01*
X0197357Y0357067D02*
X0181239Y0357067D01*
X0181239Y0358265D02*
X0197357Y0358265D01*
X0197604Y0359464D02*
X0181239Y0359464D01*
X0181239Y0360662D02*
X0198802Y0360662D01*
X0200001Y0361861D02*
X0181239Y0361861D01*
X0181239Y0363059D02*
X0199705Y0363059D01*
X0198506Y0364258D02*
X0181239Y0364258D01*
X0181239Y0365456D02*
X0197357Y0365456D01*
X0197357Y0366655D02*
X0181239Y0366655D01*
X0181239Y0367853D02*
X0197357Y0367853D01*
X0197357Y0369052D02*
X0181239Y0369052D01*
X0181239Y0370250D02*
X0198391Y0370250D01*
X0199589Y0371449D02*
X0181239Y0371449D01*
X0181239Y0373846D02*
X0198918Y0373846D01*
X0197720Y0375044D02*
X0181239Y0375044D01*
X0181239Y0376243D02*
X0197357Y0376243D01*
X0197357Y0377441D02*
X0181239Y0377441D01*
X0181239Y0378640D02*
X0197357Y0378640D01*
X0197979Y0379838D02*
X0181239Y0379838D01*
X0161239Y0365456D02*
X0160190Y0365456D01*
X0160781Y0359464D02*
X0081139Y0359464D01*
X0081139Y0358265D02*
X0159582Y0358265D01*
X0158384Y0357067D02*
X0081139Y0357067D01*
X0081139Y0355868D02*
X0157185Y0355868D01*
X0155987Y0354670D02*
X0081139Y0354670D01*
X0081139Y0353471D02*
X0154788Y0353471D01*
X0153590Y0352273D02*
X0081139Y0352273D01*
X0081139Y0351074D02*
X0152391Y0351074D01*
X0151193Y0349876D02*
X0081139Y0349876D01*
X0081139Y0348677D02*
X0149994Y0348677D01*
X0148796Y0347479D02*
X0081139Y0347479D01*
X0081139Y0346280D02*
X0147597Y0346280D01*
X0150190Y0365456D02*
X0156087Y0365456D01*
X0204659Y0323508D02*
X0209256Y0323508D01*
X0208057Y0324707D02*
X0205858Y0324707D01*
X0206557Y0325905D02*
X0207357Y0325905D01*
X0207357Y0327104D02*
X0206557Y0327104D01*
X0206557Y0328302D02*
X0207357Y0328302D01*
X0207641Y0329501D02*
X0206274Y0329501D01*
X0205075Y0330699D02*
X0208840Y0330699D01*
X0209252Y0321111D02*
X0204663Y0321111D01*
X0205862Y0319913D02*
X0208053Y0319913D01*
X0207357Y0318714D02*
X0206557Y0318714D01*
X0206557Y0317516D02*
X0207357Y0317516D01*
X0207357Y0316317D02*
X0206557Y0316317D01*
X0206270Y0315119D02*
X0207645Y0315119D01*
X0208844Y0313920D02*
X0205071Y0313920D01*
X0203873Y0312722D02*
X0210042Y0312722D01*
X0209663Y0311523D02*
X0204251Y0311523D01*
X0205450Y0310325D02*
X0208465Y0310325D01*
X0207357Y0309126D02*
X0206557Y0309126D01*
X0206557Y0307928D02*
X0207357Y0307928D01*
X0207357Y0306729D02*
X0206557Y0306729D01*
X0206557Y0305531D02*
X0207357Y0305531D01*
X0208432Y0304332D02*
X0205483Y0304332D01*
X0204285Y0303134D02*
X0209630Y0303134D01*
X0208877Y0300737D02*
X0205038Y0300737D01*
X0206237Y0299538D02*
X0207678Y0299538D01*
X0207357Y0298340D02*
X0206557Y0298340D01*
X0206557Y0297141D02*
X0207357Y0297141D01*
X0207357Y0295943D02*
X0206557Y0295943D01*
X0205895Y0294744D02*
X0208020Y0294744D01*
X0209218Y0293546D02*
X0204697Y0293546D01*
X0204626Y0291148D02*
X0209289Y0291148D01*
X0208090Y0289950D02*
X0205825Y0289950D01*
X0206557Y0288751D02*
X0207357Y0288751D01*
X0207357Y0287553D02*
X0206557Y0287553D01*
X0206557Y0286354D02*
X0207357Y0286354D01*
X0207608Y0285156D02*
X0206307Y0285156D01*
X0211957Y0277312D02*
X0207056Y0272410D01*
X0195539Y0272410D01*
X0067139Y0143310D01*
X0066839Y0101110D01*
X0068639Y0098610D01*
X0068639Y0097910D01*
X0069239Y0091810D02*
X0069239Y0091710D01*
X0082438Y0089799D02*
X0085139Y0089799D01*
X0085139Y0090997D02*
X0083139Y0090997D01*
X0083139Y0092196D02*
X0085139Y0092196D01*
X0085139Y0093394D02*
X0083139Y0093394D01*
X0083165Y0094593D02*
X0085139Y0094593D01*
X0084957Y0095791D02*
X0083239Y0095791D01*
X0083239Y0096990D02*
X0084381Y0096990D01*
X0084121Y0098188D02*
X0083239Y0098188D01*
X0083239Y0099387D02*
X0084121Y0099387D01*
X0084593Y0100585D02*
X0083239Y0100585D01*
X0083239Y0101784D02*
X0085467Y0101784D01*
X0087444Y0102982D02*
X0083239Y0102982D01*
X0083239Y0104181D02*
X0087228Y0104181D01*
X0086955Y0104269D02*
X0087644Y0104046D01*
X0088359Y0103932D01*
X0091321Y0103932D01*
X0091321Y0108132D01*
X0084127Y0108132D01*
X0084235Y0107455D01*
X0084458Y0106766D01*
X0084787Y0106121D01*
X0085213Y0105536D01*
X0085725Y0105024D01*
X0086310Y0104598D01*
X0086955Y0104269D01*
X0085369Y0105379D02*
X0083239Y0105379D01*
X0083939Y0106210D02*
X0084039Y0106210D01*
X0084554Y0106578D02*
X0083239Y0106578D01*
X0083239Y0107776D02*
X0084184Y0107776D01*
X0084127Y0108932D02*
X0091321Y0108932D01*
X0091321Y0113132D01*
X0088359Y0113132D01*
X0087644Y0113019D01*
X0086955Y0112795D01*
X0086310Y0112467D01*
X0085725Y0112041D01*
X0085213Y0111529D01*
X0084787Y0110943D01*
X0084458Y0110298D01*
X0084235Y0109609D01*
X0084127Y0108932D01*
X0084134Y0108975D02*
X0083239Y0108975D01*
X0083239Y0110173D02*
X0084418Y0110173D01*
X0085098Y0111372D02*
X0083239Y0111372D01*
X0083239Y0112570D02*
X0086514Y0112570D01*
X0091321Y0112570D02*
X0092121Y0112570D01*
X0092121Y0111372D02*
X0091321Y0111372D01*
X0091321Y0110173D02*
X0092121Y0110173D01*
X0092121Y0108975D02*
X0091321Y0108975D01*
X0091321Y0107776D02*
X0092121Y0107776D01*
X0092121Y0106578D02*
X0091321Y0106578D01*
X0091321Y0105379D02*
X0092121Y0105379D01*
X0092121Y0104181D02*
X0091321Y0104181D01*
X0097975Y0101784D02*
X0106962Y0101784D01*
X0106420Y0095791D02*
X0098485Y0095791D01*
X0097230Y0094593D02*
X0106420Y0094593D01*
X0106644Y0093394D02*
X0089694Y0093394D01*
X0089539Y0080210D02*
X0122641Y0080210D01*
X0121442Y0079012D02*
X0089539Y0079012D01*
X0089539Y0077813D02*
X0121431Y0077813D01*
X0120232Y0076615D02*
X0089539Y0076615D01*
X0088356Y0075416D02*
X0119034Y0075416D01*
X0117835Y0074218D02*
X0114329Y0074218D01*
X0115528Y0073019D02*
X0116637Y0073019D01*
X0111639Y0071110D02*
X0099339Y0071110D01*
X0081739Y0053510D01*
X0081739Y0048710D01*
X0078439Y0045410D01*
X0071839Y0045410D01*
X0066839Y0040410D01*
X0068799Y0035866D02*
X0074878Y0035866D01*
X0073679Y0037064D02*
X0069998Y0037064D01*
X0071196Y0038263D02*
X0072481Y0038263D01*
X0072239Y0039461D02*
X0071439Y0039461D01*
X0071439Y0040660D02*
X0072239Y0040660D01*
X0072239Y0041858D02*
X0071439Y0041858D01*
X0072596Y0043057D02*
X0072980Y0043057D01*
X0076839Y0040410D02*
X0084139Y0045410D01*
X0099139Y0045310D01*
X0101639Y0047310D01*
X0101639Y0054910D01*
X0124039Y0077310D01*
X0125539Y0077310D01*
X0112139Y0059110D02*
X0111939Y0058910D01*
X0111939Y0046610D01*
X0110839Y0045510D01*
X0099083Y0035866D02*
X0098799Y0035866D01*
X0094878Y0035866D02*
X0088799Y0035866D01*
X0089998Y0037064D02*
X0093679Y0037064D01*
X0092481Y0038263D02*
X0091196Y0038263D01*
X0091439Y0039461D02*
X0092239Y0039461D01*
X0092239Y0040660D02*
X0091439Y0040660D01*
X0091439Y0041858D02*
X0092239Y0041858D01*
X0092980Y0043057D02*
X0090698Y0043057D01*
X0084878Y0035866D02*
X0078799Y0035866D01*
X0079998Y0037064D02*
X0083679Y0037064D01*
X0082481Y0038263D02*
X0081196Y0038263D01*
X0081439Y0039461D02*
X0082239Y0039461D01*
X0082239Y0040660D02*
X0081439Y0040660D01*
X0084761Y0071821D02*
X0096938Y0071821D01*
X0098137Y0073019D02*
X0085959Y0073019D01*
X0087158Y0074218D02*
X0108948Y0074218D01*
X0110964Y0104181D02*
X0112164Y0104181D01*
X0112164Y0105379D02*
X0110964Y0105379D01*
X0110964Y0106578D02*
X0112164Y0106578D01*
X0112164Y0107776D02*
X0110964Y0107776D01*
X0110964Y0111372D02*
X0112164Y0111372D01*
X0112164Y0112570D02*
X0110964Y0112570D01*
X0106731Y0112570D02*
X0096929Y0112570D01*
X0098344Y0111372D02*
X0106420Y0111372D01*
X0106420Y0110173D02*
X0099025Y0110173D01*
X0093585Y0132945D02*
X0116062Y0132945D01*
X0117371Y0128151D02*
X0189968Y0128151D01*
X0188770Y0126952D02*
X0117039Y0126952D01*
X0117039Y0125754D02*
X0187571Y0125754D01*
X0187539Y0124555D02*
X0117039Y0124555D01*
X0117103Y0123357D02*
X0187539Y0123357D01*
X0187539Y0122158D02*
X0118302Y0122158D01*
X0119500Y0120960D02*
X0187539Y0120960D01*
X0198408Y0113769D02*
X0198995Y0113769D01*
X0206557Y0128151D02*
X0207357Y0128151D01*
X0207490Y0129349D02*
X0206425Y0129349D01*
X0208305Y0130548D02*
X0208688Y0130548D01*
X0209503Y0131746D02*
X0209887Y0131746D01*
X0215706Y0124555D02*
X0221282Y0124555D01*
X0222481Y0123357D02*
X0214508Y0123357D01*
X0216557Y0095791D02*
X0222408Y0095791D01*
X0221210Y0094593D02*
X0215744Y0094593D01*
X0214545Y0093394D02*
X0220011Y0093394D01*
X0234739Y0123357D02*
X0236060Y0123357D01*
X0236060Y0124555D02*
X0234739Y0124555D01*
X0234739Y0125754D02*
X0236060Y0125754D01*
X0236060Y0126952D02*
X0234739Y0126952D01*
X0234739Y0128151D02*
X0236060Y0128151D01*
X0236060Y0129349D02*
X0234739Y0129349D01*
X0234739Y0130548D02*
X0236060Y0130548D01*
X0236060Y0131746D02*
X0234739Y0131746D01*
X0234739Y0132945D02*
X0236060Y0132945D01*
X0236060Y0134144D02*
X0234739Y0134144D01*
X0234739Y0135342D02*
X0236060Y0135342D01*
X0236060Y0136541D02*
X0234739Y0136541D01*
X0234739Y0137739D02*
X0236060Y0137739D01*
X0236060Y0138938D02*
X0234739Y0138938D01*
X0234739Y0140136D02*
X0236060Y0140136D01*
X0236060Y0141335D02*
X0234739Y0141335D01*
X0234739Y0142533D02*
X0236060Y0142533D01*
X0236060Y0143732D02*
X0234739Y0143732D01*
X0234739Y0144930D02*
X0236060Y0144930D01*
X0236060Y0146129D02*
X0234739Y0146129D01*
X0234739Y0147327D02*
X0236060Y0147327D01*
X0236060Y0148526D02*
X0234739Y0148526D01*
X0234739Y0149724D02*
X0236060Y0149724D01*
X0236060Y0150923D02*
X0234739Y0150923D01*
X0234739Y0152121D02*
X0236060Y0152121D01*
X0236060Y0153320D02*
X0234739Y0153320D01*
X0234739Y0154518D02*
X0236060Y0154518D01*
X0236060Y0155717D02*
X0234739Y0155717D01*
X0234739Y0156915D02*
X0236060Y0156915D01*
X0236060Y0158114D02*
X0234739Y0158114D01*
X0234739Y0159312D02*
X0236060Y0159312D01*
X0236060Y0160511D02*
X0234739Y0160511D01*
X0234739Y0161709D02*
X0236060Y0161709D01*
X0236060Y0162908D02*
X0234739Y0162908D01*
X0234739Y0164106D02*
X0236060Y0164106D01*
X0236060Y0165305D02*
X0234739Y0165305D01*
X0234739Y0166503D02*
X0236060Y0166503D01*
X0236060Y0167702D02*
X0234739Y0167702D01*
X0234739Y0168900D02*
X0236060Y0168900D01*
X0236060Y0170099D02*
X0234739Y0170099D01*
X0234739Y0171297D02*
X0236060Y0171297D01*
X0236060Y0172496D02*
X0234739Y0172496D01*
X0234739Y0173694D02*
X0236060Y0173694D01*
X0236060Y0174893D02*
X0234739Y0174893D01*
X0234739Y0176091D02*
X0236060Y0176091D01*
X0236060Y0177290D02*
X0234739Y0177290D01*
X0234739Y0178488D02*
X0236060Y0178488D01*
X0236060Y0179687D02*
X0234739Y0179687D01*
X0234739Y0180885D02*
X0236060Y0180885D01*
X0236060Y0182084D02*
X0234739Y0182084D01*
X0234739Y0183282D02*
X0236060Y0183282D01*
X0236060Y0184481D02*
X0234739Y0184481D01*
X0234739Y0185679D02*
X0236060Y0185679D01*
X0236060Y0186878D02*
X0234739Y0186878D01*
X0234739Y0188077D02*
X0236060Y0188077D01*
X0236060Y0189275D02*
X0234739Y0189275D01*
X0234739Y0190474D02*
X0236060Y0190474D01*
X0236060Y0191672D02*
X0234739Y0191672D01*
X0234739Y0192871D02*
X0236060Y0192871D01*
X0236060Y0194069D02*
X0234739Y0194069D01*
X0234739Y0195268D02*
X0236060Y0195268D01*
X0236060Y0196466D02*
X0234739Y0196466D01*
X0234739Y0197665D02*
X0236060Y0197665D01*
X0236060Y0198863D02*
X0234739Y0198863D01*
X0234739Y0200062D02*
X0236060Y0200062D01*
X0236060Y0201260D02*
X0234739Y0201260D01*
X0234739Y0202459D02*
X0236060Y0202459D01*
X0236060Y0203657D02*
X0234739Y0203657D01*
X0234739Y0204856D02*
X0236060Y0204856D01*
X0236060Y0206054D02*
X0234739Y0206054D01*
X0234739Y0207253D02*
X0236060Y0207253D01*
X0236060Y0208451D02*
X0234739Y0208451D01*
X0234739Y0209650D02*
X0236060Y0209650D01*
X0236060Y0210848D02*
X0234739Y0210848D01*
X0234739Y0212047D02*
X0236060Y0212047D01*
X0236060Y0213245D02*
X0234739Y0213245D01*
X0234739Y0214444D02*
X0236060Y0214444D01*
X0236060Y0215642D02*
X0234739Y0215642D01*
X0234739Y0216841D02*
X0236060Y0216841D01*
X0236060Y0218039D02*
X0234739Y0218039D01*
X0234739Y0219238D02*
X0236060Y0219238D01*
X0236060Y0220436D02*
X0234739Y0220436D01*
X0234739Y0221635D02*
X0236060Y0221635D01*
X0236060Y0222833D02*
X0234739Y0222833D01*
X0234739Y0224032D02*
X0236060Y0224032D01*
X0236060Y0225230D02*
X0234739Y0225230D01*
X0234739Y0226429D02*
X0236060Y0226429D01*
X0236060Y0227627D02*
X0234739Y0227627D01*
X0234739Y0228826D02*
X0236060Y0228826D01*
X0236060Y0230024D02*
X0234739Y0230024D01*
X0234739Y0231223D02*
X0236060Y0231223D01*
X0236060Y0232421D02*
X0234739Y0232421D01*
X0234739Y0233620D02*
X0236060Y0233620D01*
X0236060Y0234818D02*
X0234739Y0234818D01*
X0234739Y0236017D02*
X0236060Y0236017D01*
X0236060Y0237215D02*
X0234739Y0237215D01*
X0234739Y0238414D02*
X0236060Y0238414D01*
X0236060Y0239612D02*
X0234739Y0239612D01*
X0234739Y0240811D02*
X0236060Y0240811D01*
X0236060Y0242010D02*
X0234739Y0242010D01*
X0234739Y0243208D02*
X0236060Y0243208D01*
X0236060Y0244407D02*
X0234739Y0244407D01*
X0234739Y0245605D02*
X0236060Y0245605D01*
X0236060Y0246804D02*
X0234739Y0246804D01*
X0234739Y0248002D02*
X0236060Y0248002D01*
X0236060Y0249201D02*
X0234739Y0249201D01*
X0234739Y0250399D02*
X0236060Y0250399D01*
X0236060Y0251598D02*
X0234739Y0251598D01*
X0234739Y0252796D02*
X0236060Y0252796D01*
X0236060Y0253995D02*
X0234739Y0253995D01*
X0234739Y0255193D02*
X0236060Y0255193D01*
X0236060Y0256392D02*
X0234739Y0256392D01*
X0234739Y0257590D02*
X0236060Y0257590D01*
X0236060Y0258789D02*
X0234739Y0258789D01*
X0234739Y0259987D02*
X0236060Y0259987D01*
X0236060Y0261186D02*
X0234739Y0261186D01*
X0234739Y0262384D02*
X0236060Y0262384D01*
X0236060Y0263583D02*
X0234739Y0263583D01*
X0234739Y0264781D02*
X0236060Y0264781D01*
X0236060Y0265980D02*
X0234739Y0265980D01*
X0234739Y0267178D02*
X0236060Y0267178D01*
X0236060Y0268377D02*
X0234739Y0268377D01*
X0234739Y0269575D02*
X0236060Y0269575D01*
X0236060Y0270774D02*
X0234739Y0270774D01*
X0234739Y0271972D02*
X0236060Y0271972D01*
X0236060Y0273171D02*
X0234739Y0273171D01*
X0234739Y0274369D02*
X0236060Y0274369D01*
X0236060Y0275568D02*
X0234739Y0275568D01*
X0234739Y0276766D02*
X0236060Y0276766D01*
X0236060Y0277965D02*
X0234739Y0277965D01*
X0234739Y0279163D02*
X0236060Y0279163D01*
X0236060Y0280362D02*
X0234739Y0280362D01*
X0234739Y0281560D02*
X0236060Y0281560D01*
X0236060Y0282759D02*
X0234739Y0282759D01*
X0234739Y0283957D02*
X0236060Y0283957D01*
X0236060Y0285156D02*
X0234739Y0285156D01*
X0234739Y0286354D02*
X0236060Y0286354D01*
X0236060Y0287553D02*
X0234739Y0287553D01*
X0234739Y0288751D02*
X0236060Y0288751D01*
X0236060Y0289950D02*
X0234739Y0289950D01*
X0234739Y0291148D02*
X0236060Y0291148D01*
X0236060Y0292347D02*
X0234739Y0292347D01*
X0234739Y0293546D02*
X0236060Y0293546D01*
X0236060Y0294744D02*
X0234739Y0294744D01*
X0234739Y0295943D02*
X0236060Y0295943D01*
X0236060Y0297141D02*
X0234719Y0297141D01*
X0233521Y0298340D02*
X0236060Y0298340D01*
X0236060Y0299538D02*
X0232322Y0299538D01*
X0231123Y0300737D02*
X0236060Y0300737D01*
X0236060Y0301935D02*
X0229925Y0301935D01*
X0228726Y0303134D02*
X0236060Y0303134D01*
X0236060Y0304332D02*
X0227528Y0304332D01*
X0226329Y0305531D02*
X0236060Y0305531D01*
X0236060Y0306729D02*
X0225131Y0306729D01*
X0223932Y0307928D02*
X0236060Y0307928D01*
X0236060Y0309126D02*
X0222734Y0309126D01*
X0221305Y0304332D02*
X0215483Y0304332D01*
X0214626Y0291148D02*
X0230339Y0291148D01*
X0230339Y0289950D02*
X0215825Y0289950D01*
X0216557Y0288751D02*
X0230339Y0288751D01*
X0230339Y0287553D02*
X0216557Y0287553D01*
X0216557Y0286354D02*
X0230339Y0286354D01*
X0230339Y0285156D02*
X0216307Y0285156D01*
X0218403Y0283957D02*
X0230339Y0283957D01*
X0230339Y0282759D02*
X0219601Y0282759D01*
X0220800Y0281560D02*
X0230339Y0281560D01*
X0230339Y0280362D02*
X0221998Y0280362D01*
X0223197Y0279163D02*
X0230339Y0279163D01*
X0230339Y0277965D02*
X0224395Y0277965D01*
X0225594Y0276766D02*
X0230339Y0276766D01*
X0230339Y0275568D02*
X0226792Y0275568D01*
X0227991Y0274369D02*
X0230339Y0274369D01*
X0230339Y0273171D02*
X0229189Y0273171D01*
X0222967Y0273171D02*
X0214322Y0273171D01*
X0215520Y0274369D02*
X0221768Y0274369D01*
X0220570Y0275568D02*
X0216557Y0275568D01*
X0216557Y0276766D02*
X0219371Y0276766D01*
X0218173Y0277965D02*
X0216557Y0277965D01*
X0216557Y0279163D02*
X0216974Y0279163D01*
X0215787Y0259987D02*
X0227039Y0259987D01*
X0227039Y0258789D02*
X0216557Y0258789D01*
X0216557Y0257590D02*
X0227039Y0257590D01*
X0227039Y0256392D02*
X0216557Y0256392D01*
X0216344Y0255193D02*
X0227039Y0255193D01*
X0227039Y0253995D02*
X0215146Y0253995D01*
X0213947Y0252796D02*
X0227039Y0252796D01*
X0227039Y0251598D02*
X0214177Y0251598D01*
X0215376Y0250399D02*
X0227039Y0250399D01*
X0227039Y0249201D02*
X0216557Y0249201D01*
X0216557Y0248002D02*
X0227039Y0248002D01*
X0227039Y0246804D02*
X0216557Y0246804D01*
X0216557Y0245605D02*
X0227039Y0245605D01*
X0227039Y0244407D02*
X0215558Y0244407D01*
X0214359Y0243208D02*
X0227039Y0243208D01*
X0227039Y0242010D02*
X0179766Y0242010D01*
X0180965Y0243208D02*
X0199556Y0243208D01*
X0198357Y0244407D02*
X0182163Y0244407D01*
X0183362Y0245605D02*
X0197357Y0245605D01*
X0197357Y0246804D02*
X0184561Y0246804D01*
X0185759Y0248002D02*
X0197357Y0248002D01*
X0197357Y0249201D02*
X0186958Y0249201D01*
X0188156Y0250399D02*
X0198539Y0250399D01*
X0199738Y0251598D02*
X0189355Y0251598D01*
X0190553Y0252796D02*
X0199968Y0252796D01*
X0198769Y0253995D02*
X0191752Y0253995D01*
X0192950Y0255193D02*
X0197571Y0255193D01*
X0197357Y0256392D02*
X0194149Y0256392D01*
X0195347Y0257590D02*
X0197357Y0257590D01*
X0197357Y0258789D02*
X0196546Y0258789D01*
X0197744Y0259987D02*
X0198127Y0259987D01*
X0198943Y0261186D02*
X0199326Y0261186D01*
X0198951Y0240811D02*
X0178568Y0240811D01*
X0177369Y0239612D02*
X0197753Y0239612D01*
X0197357Y0238414D02*
X0176171Y0238414D01*
X0174972Y0237215D02*
X0197357Y0237215D01*
X0197357Y0236017D02*
X0173774Y0236017D01*
X0172575Y0234818D02*
X0197945Y0234818D01*
X0199144Y0233620D02*
X0171377Y0233620D01*
X0194057Y0166503D02*
X0197357Y0166503D01*
X0197459Y0165305D02*
X0195255Y0165305D01*
X0216044Y0174893D02*
X0227039Y0174893D01*
X0227039Y0176091D02*
X0216557Y0176091D01*
X0216557Y0177290D02*
X0227039Y0177290D01*
X0227039Y0178488D02*
X0216557Y0178488D01*
X0216088Y0179687D02*
X0227039Y0179687D01*
X0227039Y0180885D02*
X0214889Y0180885D01*
X0214808Y0203657D02*
X0227039Y0203657D01*
X0227039Y0204856D02*
X0216007Y0204856D01*
X0216557Y0206054D02*
X0227039Y0206054D01*
X0227039Y0207253D02*
X0216557Y0207253D01*
X0216557Y0208451D02*
X0227039Y0208451D01*
X0227039Y0209650D02*
X0216125Y0209650D01*
X0214926Y0210848D02*
X0227039Y0210848D01*
X0227039Y0233620D02*
X0214771Y0233620D01*
X0215970Y0234818D02*
X0227039Y0234818D01*
X0227039Y0236017D02*
X0216557Y0236017D01*
X0216557Y0237215D02*
X0227039Y0237215D01*
X0227039Y0238414D02*
X0216557Y0238414D01*
X0216162Y0239612D02*
X0227039Y0239612D01*
X0227039Y0240811D02*
X0214964Y0240811D01*
X0193766Y0053843D02*
X0189911Y0053843D01*
X0191109Y0052645D02*
X0192568Y0052645D01*
X0192239Y0051446D02*
X0191439Y0051446D01*
X0191439Y0050248D02*
X0192239Y0050248D01*
X0192239Y0049049D02*
X0191439Y0049049D01*
X0190784Y0047851D02*
X0192893Y0047851D01*
X0214439Y0045454D02*
X0236060Y0045454D01*
X0236060Y0013094D02*
X0121233Y0013094D01*
X0120035Y0011895D02*
X0236060Y0011895D01*
X0236060Y0010697D02*
X0118836Y0010697D01*
X0117638Y0009498D02*
X0236060Y0009498D01*
X0236060Y0008300D02*
X0116439Y0008300D01*
X0115241Y0007101D02*
X0236060Y0007101D01*
X0235139Y0005903D02*
X0114042Y0005903D01*
X0044339Y0110757D02*
X0037784Y0117312D01*
X0035339Y0111372D02*
X0034839Y0111372D01*
X0040335Y0123357D02*
X0047939Y0123357D01*
X0047282Y0124555D02*
X0041533Y0124555D01*
X0042384Y0125754D02*
X0046084Y0125754D01*
X0044885Y0126952D02*
X0042384Y0126952D01*
X0042384Y0128151D02*
X0043687Y0128151D01*
X0042488Y0129349D02*
X0042252Y0129349D01*
X0040709Y0143732D02*
X0064937Y0143732D01*
X0065647Y0144930D02*
X0041908Y0144930D01*
X0042384Y0146129D02*
X0066839Y0146129D01*
X0068031Y0147327D02*
X0042384Y0147327D01*
X0042384Y0148526D02*
X0069223Y0148526D01*
X0070415Y0149724D02*
X0041877Y0149724D01*
X0041165Y0220436D02*
X0047353Y0220436D01*
X0042807Y0257590D02*
X0042384Y0257590D01*
X0042384Y0258789D02*
X0044006Y0258789D01*
X0045204Y0259987D02*
X0041614Y0259987D01*
X0040149Y0273171D02*
X0058388Y0273171D01*
X0059586Y0274369D02*
X0041347Y0274369D01*
X0042384Y0275568D02*
X0060785Y0275568D01*
X0061983Y0276766D02*
X0042384Y0276766D01*
X0042384Y0277965D02*
X0063182Y0277965D01*
X0064380Y0279163D02*
X0042384Y0279163D01*
X0041240Y0280362D02*
X0065579Y0280362D01*
X0066777Y0281560D02*
X0040041Y0281560D01*
X0039737Y0282759D02*
X0067976Y0282759D01*
X0069175Y0283957D02*
X0040935Y0283957D01*
X0042134Y0285156D02*
X0070373Y0285156D01*
X0071572Y0286354D02*
X0042384Y0286354D01*
X0042384Y0287553D02*
X0072770Y0287553D01*
X0073969Y0288751D02*
X0042384Y0288751D01*
X0041651Y0289950D02*
X0075167Y0289950D01*
X0076366Y0291148D02*
X0040453Y0291148D01*
X0025045Y0293546D02*
X0017539Y0293546D01*
X0017539Y0294744D02*
X0023847Y0294744D01*
X0023184Y0295943D02*
X0017539Y0295943D01*
X0017539Y0297141D02*
X0023184Y0297141D01*
X0023184Y0298340D02*
X0017539Y0298340D01*
X0017539Y0299538D02*
X0023505Y0299538D01*
X0024704Y0300737D02*
X0017539Y0300737D01*
X0040902Y0330699D02*
X0076739Y0330699D01*
X0076739Y0329501D02*
X0042101Y0329501D01*
X0042384Y0328302D02*
X0076739Y0328302D01*
X0076739Y0327104D02*
X0042384Y0327104D01*
X0042384Y0325905D02*
X0076739Y0325905D01*
X0076739Y0324707D02*
X0041685Y0324707D01*
X0039704Y0331898D02*
X0076739Y0331898D01*
X0076739Y0333096D02*
X0040074Y0333096D01*
X0041273Y0334295D02*
X0076739Y0334295D01*
X0076739Y0335493D02*
X0042384Y0335493D01*
X0042384Y0336692D02*
X0076739Y0336692D01*
X0076739Y0337890D02*
X0042384Y0337890D01*
X0042384Y0339089D02*
X0076739Y0339089D01*
X0058682Y0358265D02*
X0042384Y0358265D01*
X0042384Y0357067D02*
X0057484Y0357067D01*
X0056285Y0355868D02*
X0042384Y0355868D01*
X0041647Y0354670D02*
X0055087Y0354670D01*
X0053888Y0353471D02*
X0040449Y0353471D01*
X0042138Y0359464D02*
X0059881Y0359464D01*
X0059355Y0379838D02*
X0041763Y0379838D01*
X0041610Y0384632D02*
X0064149Y0384632D01*
X0065348Y0385831D02*
X0042384Y0385831D01*
X0042384Y0387029D02*
X0066546Y0387029D01*
X0067745Y0388228D02*
X0042384Y0388228D01*
X0042175Y0389426D02*
X0068943Y0389426D01*
X0070142Y0390625D02*
X0040977Y0390625D01*
X0039778Y0391823D02*
X0071341Y0391823D01*
D17*
X0069439Y0356910D03*
X0105039Y0319110D03*
X0143739Y0300910D03*
X0151239Y0295110D03*
X0163139Y0273210D03*
X0166039Y0315610D03*
X0152539Y0192710D03*
X0170239Y0120010D03*
X0125539Y0077310D03*
X0111639Y0071110D03*
X0112139Y0059110D03*
X0130739Y0025610D03*
X0141239Y0022310D03*
X0141539Y0030610D03*
X0168339Y0022010D03*
X0069239Y0079710D03*
X0069339Y0085610D03*
X0069239Y0091810D03*
X0068639Y0097910D03*
X0060539Y0107310D03*
X0062039Y0116810D03*
X0053439Y0097510D03*
X0029039Y0088210D03*
X0063639Y0022410D03*
M02*
