G75*
%MOIN*%
%OFA0B0*%
%FSLAX25Y25*%
%IPPOS*%
%LPD*%
%AMOC8*
5,1,8,0,0,1.08239X$1,22.5*
%
%ADD10C,0.00000*%
%ADD11C,0.06000*%
%ADD12OC8,0.06000*%
D10*
X0001739Y0002810D02*
X0001739Y0395311D01*
X0238660Y0395811D01*
X0238660Y0003310D01*
X0001739Y0002810D01*
D11*
X0088721Y0098532D02*
X0094721Y0098532D01*
X0094721Y0108532D02*
X0088721Y0108532D01*
X0148682Y0108532D02*
X0154682Y0108532D01*
X0154682Y0098532D02*
X0148682Y0098532D01*
D12*
X0146839Y0050410D03*
X0146839Y0040410D03*
X0136839Y0040410D03*
X0136839Y0050410D03*
X0126839Y0050410D03*
X0126839Y0040410D03*
X0116839Y0040410D03*
X0116839Y0050410D03*
X0106839Y0050410D03*
X0106839Y0040410D03*
X0096839Y0040410D03*
X0096839Y0050410D03*
X0086839Y0050410D03*
X0086839Y0040410D03*
X0076839Y0040410D03*
X0076839Y0050410D03*
X0066839Y0050410D03*
X0066839Y0040410D03*
X0056839Y0040410D03*
X0056839Y0050410D03*
X0046839Y0050410D03*
X0046839Y0040410D03*
X0036839Y0040410D03*
X0036839Y0050410D03*
X0026839Y0050410D03*
X0026839Y0040410D03*
X0027784Y0097312D03*
X0027784Y0107312D03*
X0027784Y0117312D03*
X0027784Y0127312D03*
X0027784Y0137312D03*
X0027784Y0147312D03*
X0027784Y0157312D03*
X0027784Y0167312D03*
X0027784Y0177312D03*
X0027784Y0187312D03*
X0027784Y0197312D03*
X0027784Y0207312D03*
X0027784Y0217312D03*
X0027784Y0227312D03*
X0027784Y0237312D03*
X0027784Y0247312D03*
X0027784Y0257312D03*
X0027784Y0267312D03*
X0027784Y0277312D03*
X0027784Y0287312D03*
X0027784Y0297312D03*
X0027784Y0307312D03*
X0027784Y0317312D03*
X0027784Y0327312D03*
X0027784Y0337312D03*
X0027784Y0347312D03*
X0027784Y0357312D03*
X0027784Y0367312D03*
X0027784Y0377312D03*
X0027784Y0387312D03*
X0037784Y0387312D03*
X0037784Y0377312D03*
X0037784Y0367312D03*
X0037784Y0357312D03*
X0037784Y0347312D03*
X0037784Y0337312D03*
X0037784Y0327312D03*
X0037784Y0317312D03*
X0037784Y0307312D03*
X0037784Y0297312D03*
X0037784Y0287312D03*
X0037784Y0277312D03*
X0037784Y0267312D03*
X0037784Y0257312D03*
X0037784Y0247312D03*
X0037784Y0237312D03*
X0037784Y0227312D03*
X0037784Y0217312D03*
X0037784Y0207312D03*
X0037784Y0197312D03*
X0037784Y0187312D03*
X0037784Y0177312D03*
X0037784Y0167312D03*
X0037784Y0157312D03*
X0037784Y0147312D03*
X0037784Y0137312D03*
X0037784Y0127312D03*
X0037784Y0117312D03*
X0037784Y0107312D03*
X0037784Y0097312D03*
X0156839Y0050410D03*
X0156839Y0040410D03*
X0166839Y0040410D03*
X0166839Y0050410D03*
X0176839Y0050410D03*
X0176839Y0040410D03*
X0186839Y0040410D03*
X0186839Y0050410D03*
X0196839Y0050410D03*
X0196839Y0040410D03*
X0206839Y0040410D03*
X0206839Y0050410D03*
X0216839Y0050410D03*
X0216839Y0040410D03*
X0211957Y0097312D03*
X0211957Y0107312D03*
X0211957Y0117312D03*
X0211957Y0127312D03*
X0211957Y0137312D03*
X0211957Y0147312D03*
X0211957Y0157312D03*
X0211957Y0167312D03*
X0211957Y0177312D03*
X0211957Y0187312D03*
X0211957Y0197312D03*
X0211957Y0207312D03*
X0211957Y0217312D03*
X0211957Y0227312D03*
X0211957Y0237312D03*
X0211957Y0247312D03*
X0211957Y0257312D03*
X0211957Y0267312D03*
X0211957Y0277312D03*
X0211957Y0287312D03*
X0211957Y0297312D03*
X0211957Y0307312D03*
X0211957Y0317312D03*
X0211957Y0327312D03*
X0211957Y0337312D03*
X0211957Y0347312D03*
X0211957Y0357312D03*
X0211957Y0367312D03*
X0211957Y0377312D03*
X0211957Y0387312D03*
X0201957Y0387312D03*
X0201957Y0377312D03*
X0201957Y0367312D03*
X0201957Y0357312D03*
X0201957Y0347312D03*
X0201957Y0337312D03*
X0201957Y0327312D03*
X0201957Y0317312D03*
X0201957Y0307312D03*
X0201957Y0297312D03*
X0201957Y0287312D03*
X0201957Y0277312D03*
X0201957Y0267312D03*
X0201957Y0257312D03*
X0201957Y0247312D03*
X0201957Y0237312D03*
X0201957Y0227312D03*
X0201957Y0217312D03*
X0201957Y0207312D03*
X0201957Y0197312D03*
X0201957Y0187312D03*
X0201957Y0177312D03*
X0201957Y0167312D03*
X0201957Y0157312D03*
X0201957Y0147312D03*
X0201957Y0137312D03*
X0201957Y0127312D03*
X0201957Y0117312D03*
X0201957Y0107312D03*
X0201957Y0097312D03*
X0168139Y0369910D03*
X0168139Y0379910D03*
X0158139Y0379910D03*
X0158139Y0369910D03*
X0148139Y0369910D03*
X0148139Y0379910D03*
X0138139Y0379910D03*
X0138139Y0369910D03*
X0128139Y0369910D03*
X0128139Y0379910D03*
X0118139Y0379910D03*
X0118139Y0369910D03*
X0108139Y0369910D03*
X0108139Y0379910D03*
X0098139Y0379910D03*
X0098139Y0369910D03*
X0088139Y0369910D03*
X0088139Y0379910D03*
X0078139Y0379910D03*
X0078139Y0369910D03*
M02*
