G75*
%MOIN*%
%OFA0B0*%
%FSLAX24Y24*%
%IPPOS*%
%LPD*%
%AMOC8*
5,1,8,0,0,1.08239X$1,22.5*
%
%ADD10C,0.0000*%
%ADD11C,0.0040*%
%ADD12C,0.0060*%
%ADD13C,0.0050*%
D10*
X000692Y001990D02*
X000692Y041360D01*
X024314Y041360D01*
X024314Y001990D01*
X000692Y001990D01*
X010968Y004155D02*
X010970Y004181D01*
X010976Y004207D01*
X010986Y004232D01*
X010999Y004255D01*
X011015Y004275D01*
X011035Y004293D01*
X011057Y004308D01*
X011080Y004320D01*
X011106Y004328D01*
X011132Y004332D01*
X011158Y004332D01*
X011184Y004328D01*
X011210Y004320D01*
X011234Y004308D01*
X011255Y004293D01*
X011275Y004275D01*
X011291Y004255D01*
X011304Y004232D01*
X011314Y004207D01*
X011320Y004181D01*
X011322Y004155D01*
X011320Y004129D01*
X011314Y004103D01*
X011304Y004078D01*
X011291Y004055D01*
X011275Y004035D01*
X011255Y004017D01*
X011233Y004002D01*
X011210Y003990D01*
X011184Y003982D01*
X011158Y003978D01*
X011132Y003978D01*
X011106Y003982D01*
X011080Y003990D01*
X011056Y004002D01*
X011035Y004017D01*
X011015Y004035D01*
X010999Y004055D01*
X010986Y004078D01*
X010976Y004103D01*
X010970Y004129D01*
X010968Y004155D01*
X012700Y004155D02*
X012702Y004181D01*
X012708Y004207D01*
X012718Y004232D01*
X012731Y004255D01*
X012747Y004275D01*
X012767Y004293D01*
X012789Y004308D01*
X012812Y004320D01*
X012838Y004328D01*
X012864Y004332D01*
X012890Y004332D01*
X012916Y004328D01*
X012942Y004320D01*
X012966Y004308D01*
X012987Y004293D01*
X013007Y004275D01*
X013023Y004255D01*
X013036Y004232D01*
X013046Y004207D01*
X013052Y004181D01*
X013054Y004155D01*
X013052Y004129D01*
X013046Y004103D01*
X013036Y004078D01*
X013023Y004055D01*
X013007Y004035D01*
X012987Y004017D01*
X012965Y004002D01*
X012942Y003990D01*
X012916Y003982D01*
X012890Y003978D01*
X012864Y003978D01*
X012838Y003982D01*
X012812Y003990D01*
X012788Y004002D01*
X012767Y004017D01*
X012747Y004035D01*
X012731Y004055D01*
X012718Y004078D01*
X012708Y004103D01*
X012702Y004129D01*
X012700Y004155D01*
X009550Y039254D02*
X009552Y039280D01*
X009558Y039306D01*
X009568Y039331D01*
X009581Y039354D01*
X009597Y039374D01*
X009617Y039392D01*
X009639Y039407D01*
X009662Y039419D01*
X009688Y039427D01*
X009714Y039431D01*
X009740Y039431D01*
X009766Y039427D01*
X009792Y039419D01*
X009816Y039407D01*
X009837Y039392D01*
X009857Y039374D01*
X009873Y039354D01*
X009886Y039331D01*
X009896Y039306D01*
X009902Y039280D01*
X009904Y039254D01*
X009902Y039228D01*
X009896Y039202D01*
X009886Y039177D01*
X009873Y039154D01*
X009857Y039134D01*
X009837Y039116D01*
X009815Y039101D01*
X009792Y039089D01*
X009766Y039081D01*
X009740Y039077D01*
X009714Y039077D01*
X009688Y039081D01*
X009662Y039089D01*
X009638Y039101D01*
X009617Y039116D01*
X009597Y039134D01*
X009581Y039154D01*
X009568Y039177D01*
X009558Y039202D01*
X009552Y039228D01*
X009550Y039254D01*
X007818Y039254D02*
X007820Y039280D01*
X007826Y039306D01*
X007836Y039331D01*
X007849Y039354D01*
X007865Y039374D01*
X007885Y039392D01*
X007907Y039407D01*
X007930Y039419D01*
X007956Y039427D01*
X007982Y039431D01*
X008008Y039431D01*
X008034Y039427D01*
X008060Y039419D01*
X008084Y039407D01*
X008105Y039392D01*
X008125Y039374D01*
X008141Y039354D01*
X008154Y039331D01*
X008164Y039306D01*
X008170Y039280D01*
X008172Y039254D01*
X008170Y039228D01*
X008164Y039202D01*
X008154Y039177D01*
X008141Y039154D01*
X008125Y039134D01*
X008105Y039116D01*
X008083Y039101D01*
X008060Y039089D01*
X008034Y039081D01*
X008008Y039077D01*
X007982Y039077D01*
X007956Y039081D01*
X007930Y039089D01*
X007906Y039101D01*
X007885Y039116D01*
X007865Y039134D01*
X007849Y039154D01*
X007836Y039177D01*
X007826Y039202D01*
X007820Y039228D01*
X007818Y039254D01*
D11*
X015388Y038086D02*
X015541Y038009D01*
X015694Y037856D01*
X015464Y037856D01*
X015388Y037779D01*
X015388Y037702D01*
X015464Y037626D01*
X015618Y037626D01*
X015694Y037702D01*
X015694Y037856D01*
X015848Y037856D02*
X015925Y037779D01*
X016155Y037779D01*
X016155Y037626D02*
X016155Y038086D01*
X015925Y038086D01*
X015848Y038009D01*
X015848Y037856D01*
X016001Y037779D02*
X015848Y037626D01*
X016741Y031487D02*
X016741Y031180D01*
X017048Y031487D01*
X017125Y031487D01*
X017201Y031410D01*
X017201Y031257D01*
X017125Y031180D01*
X017125Y031027D02*
X016971Y031027D01*
X016894Y030950D01*
X016894Y030720D01*
X016741Y030720D02*
X017201Y030720D01*
X017201Y030950D01*
X017125Y031027D01*
X016894Y030873D02*
X016741Y031027D01*
X014272Y025191D02*
X014118Y025191D01*
X014041Y025114D01*
X013888Y025114D02*
X013811Y025191D01*
X013658Y025191D01*
X013581Y025114D01*
X013581Y025037D01*
X013888Y024730D01*
X013581Y024730D01*
X013428Y024730D02*
X013121Y025037D01*
X013121Y025114D01*
X013197Y025191D01*
X013351Y025191D01*
X013428Y025114D01*
X013428Y024730D02*
X013121Y024730D01*
X014041Y024807D02*
X014118Y024730D01*
X014272Y024730D01*
X014348Y024807D01*
X014348Y025114D01*
X014272Y025191D01*
X014119Y019695D02*
X014196Y019618D01*
X014119Y019695D02*
X013966Y019695D01*
X013889Y019618D01*
X013889Y019541D01*
X014196Y019234D01*
X013889Y019234D01*
X014030Y018899D02*
X014030Y018439D01*
X013877Y018439D02*
X014184Y018439D01*
X014337Y018516D02*
X014414Y018439D01*
X014568Y018439D01*
X014644Y018516D01*
X014644Y018823D01*
X014568Y018899D01*
X014414Y018899D01*
X014337Y018823D01*
X014184Y018746D02*
X014030Y018899D01*
X014426Y019234D02*
X014349Y019311D01*
X014426Y019234D02*
X014579Y019234D01*
X014656Y019311D01*
X014656Y019618D01*
X014579Y019695D01*
X014426Y019695D01*
X014349Y019618D01*
X015384Y018913D02*
X015384Y018836D01*
X015461Y018760D01*
X015384Y018683D01*
X015384Y018606D01*
X015461Y018529D01*
X015615Y018529D01*
X015691Y018606D01*
X015845Y018606D02*
X015922Y018529D01*
X016075Y018529D01*
X016152Y018606D01*
X016152Y018913D01*
X016075Y018990D01*
X015922Y018990D01*
X015845Y018913D01*
X015691Y018913D02*
X015615Y018990D01*
X015461Y018990D01*
X015384Y018913D01*
X015461Y018760D02*
X015538Y018760D01*
X015441Y018187D02*
X015672Y017956D01*
X015365Y017956D01*
X015441Y017726D02*
X015441Y018187D01*
X015825Y018110D02*
X015902Y018187D01*
X016055Y018187D01*
X016132Y018110D01*
X016132Y017803D01*
X016055Y017726D01*
X015902Y017726D01*
X015825Y017803D01*
X015910Y017387D02*
X016063Y017387D01*
X016140Y017311D01*
X016140Y017004D01*
X016063Y016927D01*
X015910Y016927D01*
X015833Y017004D01*
X015680Y017004D02*
X015603Y016927D01*
X015449Y016927D01*
X015373Y017004D01*
X015373Y017157D01*
X015449Y017234D01*
X015526Y017234D01*
X015680Y017157D01*
X015680Y017387D01*
X015373Y017387D01*
X015833Y017311D02*
X015910Y017387D01*
X015914Y016608D02*
X016067Y016608D01*
X016144Y016531D01*
X016144Y016224D01*
X016067Y016148D01*
X015914Y016148D01*
X015837Y016224D01*
X015683Y016224D02*
X015607Y016148D01*
X015453Y016148D01*
X015377Y016224D01*
X015377Y016301D01*
X015453Y016378D01*
X015683Y016378D01*
X015683Y016224D01*
X015683Y016378D02*
X015530Y016531D01*
X015377Y016608D01*
X015837Y016531D02*
X015914Y016608D01*
X015918Y015809D02*
X015841Y015732D01*
X015918Y015809D02*
X016071Y015809D01*
X016148Y015732D01*
X016148Y015425D01*
X016071Y015348D01*
X015918Y015348D01*
X015841Y015425D01*
X015687Y015425D02*
X015687Y015348D01*
X015687Y015425D02*
X015380Y015732D01*
X015380Y015809D01*
X015687Y015809D01*
X015591Y015037D02*
X015437Y015037D01*
X015361Y014960D01*
X015361Y014884D01*
X015437Y014807D01*
X015591Y014807D01*
X015668Y014884D01*
X015668Y014960D01*
X015591Y015037D01*
X015591Y014807D02*
X015668Y014730D01*
X015668Y014653D01*
X015591Y014577D01*
X015437Y014577D01*
X015361Y014653D01*
X015361Y014730D01*
X015437Y014807D01*
X015821Y014960D02*
X015898Y015037D01*
X016051Y015037D01*
X016128Y014960D01*
X016128Y014653D01*
X016051Y014577D01*
X015898Y014577D01*
X015821Y014653D01*
X015902Y014254D02*
X016055Y014254D01*
X016132Y014177D01*
X016132Y013870D01*
X016055Y013793D01*
X015902Y013793D01*
X015825Y013870D01*
X015672Y013870D02*
X015595Y013793D01*
X015441Y013793D01*
X015365Y013870D01*
X015365Y014177D01*
X015441Y014254D01*
X015595Y014254D01*
X015672Y014177D01*
X015672Y014100D01*
X015595Y014023D01*
X015365Y014023D01*
X015825Y014177D02*
X015902Y014254D01*
X014572Y016069D02*
X014418Y016069D01*
X014341Y016146D01*
X014188Y016069D02*
X013881Y016069D01*
X014034Y016069D02*
X014034Y016529D01*
X014188Y016376D01*
X014341Y016452D02*
X014418Y016529D01*
X014572Y016529D01*
X014648Y016452D01*
X014648Y016146D01*
X014572Y016069D01*
X014568Y016876D02*
X014414Y016876D01*
X014337Y016953D01*
X014184Y016876D02*
X013877Y016876D01*
X014030Y016876D02*
X014030Y017336D01*
X014184Y017183D01*
X014337Y017260D02*
X014414Y017336D01*
X014568Y017336D01*
X014644Y017260D01*
X014644Y016953D01*
X014568Y016876D01*
X014564Y017636D02*
X014410Y017636D01*
X014333Y017712D01*
X014180Y017636D02*
X013873Y017636D01*
X013720Y017636D02*
X013413Y017943D01*
X013413Y018019D01*
X013489Y018096D01*
X013643Y018096D01*
X013720Y018019D01*
X014027Y018096D02*
X014027Y017636D01*
X013720Y017636D02*
X013413Y017636D01*
X013570Y017336D02*
X013570Y016876D01*
X013417Y016876D02*
X013724Y016876D01*
X013724Y017183D02*
X013570Y017336D01*
X013497Y016529D02*
X013421Y016452D01*
X013727Y016146D01*
X013651Y016069D01*
X013497Y016069D01*
X013421Y016146D01*
X013421Y016452D01*
X013497Y016529D02*
X013651Y016529D01*
X013727Y016452D01*
X013727Y016146D01*
X014564Y017636D02*
X014640Y017712D01*
X014640Y018019D01*
X014564Y018096D01*
X014410Y018096D01*
X014333Y018019D01*
X014180Y017943D02*
X014027Y018096D01*
X017997Y023471D02*
X017921Y023548D01*
X017921Y023701D01*
X017997Y023778D01*
X017921Y023931D02*
X018227Y024238D01*
X018304Y024238D01*
X018381Y024162D01*
X018381Y024008D01*
X018304Y023931D01*
X018304Y023778D02*
X018381Y023701D01*
X018381Y023548D01*
X018304Y023471D01*
X017997Y023471D01*
X017921Y023931D02*
X017921Y024238D01*
X017997Y024392D02*
X018074Y024392D01*
X018151Y024469D01*
X018151Y024622D01*
X018074Y024699D01*
X017997Y024699D01*
X017921Y024622D01*
X017921Y024469D01*
X017997Y024392D01*
X018151Y024469D02*
X018227Y024392D01*
X018304Y024392D01*
X018381Y024469D01*
X018381Y024622D01*
X018304Y024699D01*
X018227Y024699D01*
X018151Y024622D01*
D12*
X017529Y024963D02*
X017529Y026063D01*
X017527Y026080D01*
X017523Y026097D01*
X017516Y026113D01*
X017506Y026127D01*
X017493Y026140D01*
X017479Y026150D01*
X017463Y026157D01*
X017446Y026161D01*
X017429Y026163D01*
X016829Y026163D01*
X016812Y026161D01*
X016795Y026157D01*
X016779Y026150D01*
X016765Y026140D01*
X016752Y026127D01*
X016742Y026113D01*
X016735Y026097D01*
X016731Y026080D01*
X016729Y026063D01*
X016729Y024963D01*
X016731Y024946D01*
X016735Y024929D01*
X016742Y024913D01*
X016752Y024899D01*
X016765Y024886D01*
X016779Y024876D01*
X016795Y024869D01*
X016812Y024865D01*
X016829Y024863D01*
X017429Y024863D01*
X017446Y024865D01*
X017463Y024869D01*
X017479Y024876D01*
X017493Y024886D01*
X017506Y024899D01*
X017516Y024913D01*
X017523Y024929D01*
X017527Y024946D01*
X017529Y024963D01*
X016545Y025849D02*
X016545Y026949D01*
X016543Y026966D01*
X016539Y026983D01*
X016532Y026999D01*
X016522Y027013D01*
X016509Y027026D01*
X016495Y027036D01*
X016479Y027043D01*
X016462Y027047D01*
X016445Y027049D01*
X015845Y027049D01*
X015828Y027047D01*
X015811Y027043D01*
X015795Y027036D01*
X015781Y027026D01*
X015768Y027013D01*
X015758Y026999D01*
X015751Y026983D01*
X015747Y026966D01*
X015745Y026949D01*
X015745Y025849D01*
X015747Y025832D01*
X015751Y025815D01*
X015758Y025799D01*
X015768Y025785D01*
X015781Y025772D01*
X015795Y025762D01*
X015811Y025755D01*
X015828Y025751D01*
X015845Y025749D01*
X016445Y025749D01*
X016462Y025751D01*
X016479Y025755D01*
X016495Y025762D01*
X016509Y025772D01*
X016522Y025785D01*
X016532Y025799D01*
X016539Y025815D01*
X016543Y025832D01*
X016545Y025849D01*
X013479Y031141D02*
X014257Y031919D01*
X014258Y031918D02*
X014269Y031932D01*
X014278Y031947D01*
X014284Y031963D01*
X014287Y031980D01*
X014287Y031998D01*
X014284Y032015D01*
X014278Y032031D01*
X014269Y032046D01*
X014258Y032060D01*
X014257Y032060D02*
X013833Y032484D01*
X013833Y032485D02*
X013819Y032496D01*
X013804Y032505D01*
X013788Y032511D01*
X013771Y032514D01*
X013753Y032514D01*
X013736Y032511D01*
X013720Y032505D01*
X013705Y032496D01*
X013691Y032485D01*
X013692Y032484D02*
X012914Y031707D01*
X012903Y031693D01*
X012894Y031678D01*
X012888Y031662D01*
X012885Y031645D01*
X012885Y031627D01*
X012888Y031610D01*
X012894Y031594D01*
X012903Y031579D01*
X012914Y031565D01*
X013338Y031141D01*
X013352Y031130D01*
X013367Y031121D01*
X013383Y031115D01*
X013400Y031112D01*
X013418Y031112D01*
X013435Y031115D01*
X013451Y031121D01*
X013466Y031130D01*
X013480Y031141D01*
X017221Y032345D02*
X017221Y033445D01*
X017223Y033462D01*
X017227Y033479D01*
X017234Y033495D01*
X017244Y033509D01*
X017257Y033522D01*
X017271Y033532D01*
X017287Y033539D01*
X017304Y033543D01*
X017321Y033545D01*
X017921Y033545D01*
X017938Y033543D01*
X017955Y033539D01*
X017971Y033532D01*
X017985Y033522D01*
X017998Y033509D01*
X018008Y033495D01*
X018015Y033479D01*
X018019Y033462D01*
X018021Y033445D01*
X018021Y032345D01*
X018019Y032328D01*
X018015Y032311D01*
X018008Y032295D01*
X017998Y032281D01*
X017985Y032268D01*
X017971Y032258D01*
X017955Y032251D01*
X017938Y032247D01*
X017921Y032245D01*
X017321Y032245D01*
X017304Y032247D01*
X017287Y032251D01*
X017271Y032258D01*
X017257Y032268D01*
X017244Y032281D01*
X017234Y032295D01*
X017227Y032311D01*
X017223Y032328D01*
X017221Y032345D01*
X006854Y032103D02*
X006854Y032703D01*
X006852Y032720D01*
X006848Y032737D01*
X006841Y032753D01*
X006831Y032767D01*
X006818Y032780D01*
X006804Y032790D01*
X006788Y032797D01*
X006771Y032801D01*
X006754Y032803D01*
X005654Y032803D01*
X005637Y032801D01*
X005620Y032797D01*
X005604Y032790D01*
X005590Y032780D01*
X005577Y032767D01*
X005567Y032753D01*
X005560Y032737D01*
X005556Y032720D01*
X005554Y032703D01*
X005554Y032103D01*
X005556Y032086D01*
X005560Y032069D01*
X005567Y032053D01*
X005577Y032039D01*
X005590Y032026D01*
X005604Y032016D01*
X005620Y032009D01*
X005637Y032005D01*
X005654Y032003D01*
X006754Y032003D01*
X006771Y032005D01*
X006788Y032009D01*
X006804Y032016D01*
X006818Y032026D01*
X006831Y032039D01*
X006841Y032053D01*
X006848Y032069D01*
X006852Y032086D01*
X006854Y032103D01*
X006754Y031819D02*
X005654Y031819D01*
X005637Y031817D01*
X005620Y031813D01*
X005604Y031806D01*
X005590Y031796D01*
X005577Y031783D01*
X005567Y031769D01*
X005560Y031753D01*
X005556Y031736D01*
X005554Y031719D01*
X005554Y031119D01*
X005556Y031102D01*
X005560Y031085D01*
X005567Y031069D01*
X005577Y031055D01*
X005590Y031042D01*
X005604Y031032D01*
X005620Y031025D01*
X005637Y031021D01*
X005654Y031019D01*
X006754Y031019D01*
X006771Y031021D01*
X006788Y031025D01*
X006804Y031032D01*
X006818Y031042D01*
X006831Y031055D01*
X006841Y031069D01*
X006848Y031085D01*
X006852Y031102D01*
X006854Y031119D01*
X006854Y031719D01*
X006852Y031736D01*
X006848Y031753D01*
X006841Y031769D01*
X006831Y031783D01*
X006818Y031796D01*
X006804Y031806D01*
X006788Y031813D01*
X006771Y031817D01*
X006754Y031819D01*
D13*
X006685Y031929D02*
X006835Y031929D01*
X006910Y031853D01*
X006910Y031778D01*
X006835Y031703D01*
X006685Y031703D01*
X006610Y031628D01*
X006610Y031553D01*
X006685Y031478D01*
X006835Y031478D01*
X006910Y031553D01*
X006610Y031853D02*
X006685Y031929D01*
X006449Y031553D02*
X006374Y031478D01*
X006299Y031478D01*
X006224Y031553D01*
X006224Y031929D01*
X006299Y031929D02*
X006149Y031929D01*
X005989Y031929D02*
X005689Y031929D01*
X005689Y031853D01*
X005989Y031553D01*
X005989Y031478D01*
X006149Y030944D02*
X006299Y030944D01*
X006224Y030944D02*
X006224Y030569D01*
X006299Y030494D01*
X006374Y030494D01*
X006449Y030569D01*
X006610Y030569D02*
X006685Y030494D01*
X006835Y030494D01*
X006910Y030569D01*
X006835Y030719D02*
X006910Y030794D01*
X006910Y030869D01*
X006835Y030944D01*
X006685Y030944D01*
X006610Y030869D01*
X006685Y030719D02*
X006610Y030644D01*
X006610Y030569D01*
X006685Y030719D02*
X006835Y030719D01*
X005989Y030719D02*
X005764Y030719D01*
X005689Y030644D01*
X005689Y030569D01*
X005764Y030494D01*
X005914Y030494D01*
X005989Y030569D01*
X005989Y030719D01*
X005839Y030869D01*
X005689Y030944D01*
X012563Y032099D02*
X012881Y032099D01*
X012669Y031886D01*
X012881Y031780D02*
X012563Y032099D01*
X012835Y032371D02*
X012941Y032477D01*
X012888Y032424D02*
X013154Y032159D01*
X013260Y032159D01*
X013313Y032212D01*
X013313Y032318D01*
X013426Y032431D02*
X013532Y032431D01*
X013639Y032537D01*
X013639Y032643D01*
X013479Y032697D02*
X013373Y032590D01*
X013373Y032484D01*
X013426Y032431D01*
X013479Y032697D02*
X013479Y032803D01*
X013426Y032856D01*
X013320Y032856D01*
X013214Y032750D01*
X013214Y032643D01*
X015295Y026914D02*
X015220Y026839D01*
X015220Y026689D01*
X015295Y026614D01*
X015445Y026764D02*
X015445Y026839D01*
X015370Y026914D01*
X015295Y026914D01*
X015445Y026839D02*
X015520Y026914D01*
X015595Y026914D01*
X015670Y026839D01*
X015670Y026689D01*
X015595Y026614D01*
X015670Y026454D02*
X015670Y026304D01*
X015670Y026379D02*
X015295Y026379D01*
X015220Y026304D01*
X015220Y026228D01*
X015295Y026153D01*
X015295Y025993D02*
X015220Y025918D01*
X015220Y025768D01*
X015295Y025693D01*
X015445Y025768D02*
X015445Y025918D01*
X015370Y025993D01*
X015295Y025993D01*
X015445Y025768D02*
X015520Y025693D01*
X015595Y025693D01*
X015670Y025768D01*
X015670Y025918D01*
X015595Y025993D01*
X016204Y026028D02*
X016204Y025728D01*
X016504Y026028D01*
X016579Y026028D01*
X016654Y025953D01*
X016654Y025803D01*
X016579Y025728D01*
X016654Y025568D02*
X016654Y025418D01*
X016654Y025493D02*
X016279Y025493D01*
X016204Y025418D01*
X016204Y025343D01*
X016279Y025268D01*
X016279Y025107D02*
X016204Y025032D01*
X016204Y024882D01*
X016279Y024807D01*
X016429Y024882D02*
X016429Y025032D01*
X016354Y025107D01*
X016279Y025107D01*
X016429Y024882D02*
X016504Y024807D01*
X016579Y024807D01*
X016654Y024882D01*
X016654Y025032D01*
X016579Y025107D01*
X018171Y032270D02*
X018096Y032345D01*
X018096Y032495D01*
X018171Y032571D01*
X018246Y032571D01*
X018321Y032495D01*
X018321Y032345D01*
X018396Y032270D01*
X018471Y032270D01*
X018546Y032345D01*
X018546Y032495D01*
X018471Y032571D01*
X018546Y032881D02*
X018546Y033031D01*
X018546Y032956D02*
X018171Y032956D01*
X018096Y032881D01*
X018096Y032806D01*
X018171Y032731D01*
X018096Y033191D02*
X018096Y033491D01*
X018096Y033341D02*
X018546Y033341D01*
X018396Y033191D01*
M02*
