G75*
%MOIN*%
%OFA0B0*%
%FSLAX24Y24*%
%IPPOS*%
%LPD*%
%AMOC8*
5,1,8,0,0,1.08239X$1,22.5*
%
%ADD10C,0.0000*%
%ADD11C,0.0120*%
%ADD12C,0.0040*%
%ADD13C,0.0080*%
%ADD14R,0.0340X0.0300*%
%ADD15C,0.0030*%
%ADD16C,0.0060*%
%ADD17C,0.0050*%
%ADD18C,0.0039*%
%ADD19C,0.0020*%
%ADD20R,0.0059X0.0118*%
%ADD21R,0.0118X0.0118*%
%ADD22C,0.0100*%
%ADD23C,0.0348*%
%ADD24R,0.0118X0.0059*%
D10*
X000692Y001990D02*
X000692Y041360D01*
X024314Y041360D01*
X024314Y001990D01*
X000692Y001990D01*
X010968Y004155D02*
X010970Y004181D01*
X010976Y004207D01*
X010986Y004232D01*
X010999Y004255D01*
X011015Y004275D01*
X011035Y004293D01*
X011057Y004308D01*
X011080Y004320D01*
X011106Y004328D01*
X011132Y004332D01*
X011158Y004332D01*
X011184Y004328D01*
X011210Y004320D01*
X011234Y004308D01*
X011255Y004293D01*
X011275Y004275D01*
X011291Y004255D01*
X011304Y004232D01*
X011314Y004207D01*
X011320Y004181D01*
X011322Y004155D01*
X011320Y004129D01*
X011314Y004103D01*
X011304Y004078D01*
X011291Y004055D01*
X011275Y004035D01*
X011255Y004017D01*
X011233Y004002D01*
X011210Y003990D01*
X011184Y003982D01*
X011158Y003978D01*
X011132Y003978D01*
X011106Y003982D01*
X011080Y003990D01*
X011056Y004002D01*
X011035Y004017D01*
X011015Y004035D01*
X010999Y004055D01*
X010986Y004078D01*
X010976Y004103D01*
X010970Y004129D01*
X010968Y004155D01*
X012700Y004155D02*
X012702Y004181D01*
X012708Y004207D01*
X012718Y004232D01*
X012731Y004255D01*
X012747Y004275D01*
X012767Y004293D01*
X012789Y004308D01*
X012812Y004320D01*
X012838Y004328D01*
X012864Y004332D01*
X012890Y004332D01*
X012916Y004328D01*
X012942Y004320D01*
X012966Y004308D01*
X012987Y004293D01*
X013007Y004275D01*
X013023Y004255D01*
X013036Y004232D01*
X013046Y004207D01*
X013052Y004181D01*
X013054Y004155D01*
X013052Y004129D01*
X013046Y004103D01*
X013036Y004078D01*
X013023Y004055D01*
X013007Y004035D01*
X012987Y004017D01*
X012965Y004002D01*
X012942Y003990D01*
X012916Y003982D01*
X012890Y003978D01*
X012864Y003978D01*
X012838Y003982D01*
X012812Y003990D01*
X012788Y004002D01*
X012767Y004017D01*
X012747Y004035D01*
X012731Y004055D01*
X012718Y004078D01*
X012708Y004103D01*
X012702Y004129D01*
X012700Y004155D01*
X009550Y039254D02*
X009552Y039280D01*
X009558Y039306D01*
X009568Y039331D01*
X009581Y039354D01*
X009597Y039374D01*
X009617Y039392D01*
X009639Y039407D01*
X009662Y039419D01*
X009688Y039427D01*
X009714Y039431D01*
X009740Y039431D01*
X009766Y039427D01*
X009792Y039419D01*
X009816Y039407D01*
X009837Y039392D01*
X009857Y039374D01*
X009873Y039354D01*
X009886Y039331D01*
X009896Y039306D01*
X009902Y039280D01*
X009904Y039254D01*
X009902Y039228D01*
X009896Y039202D01*
X009886Y039177D01*
X009873Y039154D01*
X009857Y039134D01*
X009837Y039116D01*
X009815Y039101D01*
X009792Y039089D01*
X009766Y039081D01*
X009740Y039077D01*
X009714Y039077D01*
X009688Y039081D01*
X009662Y039089D01*
X009638Y039101D01*
X009617Y039116D01*
X009597Y039134D01*
X009581Y039154D01*
X009568Y039177D01*
X009558Y039202D01*
X009552Y039228D01*
X009550Y039254D01*
X007818Y039254D02*
X007820Y039280D01*
X007826Y039306D01*
X007836Y039331D01*
X007849Y039354D01*
X007865Y039374D01*
X007885Y039392D01*
X007907Y039407D01*
X007930Y039419D01*
X007956Y039427D01*
X007982Y039431D01*
X008008Y039431D01*
X008034Y039427D01*
X008060Y039419D01*
X008084Y039407D01*
X008105Y039392D01*
X008125Y039374D01*
X008141Y039354D01*
X008154Y039331D01*
X008164Y039306D01*
X008170Y039280D01*
X008172Y039254D01*
X008170Y039228D01*
X008164Y039202D01*
X008154Y039177D01*
X008141Y039154D01*
X008125Y039134D01*
X008105Y039116D01*
X008083Y039101D01*
X008060Y039089D01*
X008034Y039081D01*
X008008Y039077D01*
X007982Y039077D01*
X007956Y039081D01*
X007930Y039089D01*
X007906Y039101D01*
X007885Y039116D01*
X007865Y039134D01*
X007849Y039154D01*
X007836Y039177D01*
X007826Y039202D01*
X007820Y039228D01*
X007818Y039254D01*
D11*
X012284Y029697D02*
X012841Y029686D01*
X017746Y024571D01*
X017734Y024014D01*
X012619Y019109D01*
X012063Y019121D01*
X007158Y024236D01*
X007169Y024792D01*
X012284Y029697D01*
X012276Y029274D02*
X012278Y029307D01*
X012284Y029339D01*
X012293Y029371D01*
X012307Y029401D01*
X012323Y029429D01*
X012343Y029455D01*
X012366Y029479D01*
X012392Y029500D01*
X012420Y029517D01*
X012450Y029532D01*
X012481Y029542D01*
X012513Y029549D01*
X012546Y029552D01*
X012579Y029551D01*
X012611Y029546D01*
X012643Y029537D01*
X012674Y029525D01*
X012702Y029509D01*
X012729Y029490D01*
X012753Y029468D01*
X012775Y029443D01*
X012793Y029415D01*
X012808Y029386D01*
X012820Y029355D01*
X012828Y029323D01*
X012832Y029290D01*
X012832Y029258D01*
X012828Y029225D01*
X012820Y029193D01*
X012808Y029162D01*
X012793Y029133D01*
X012775Y029105D01*
X012753Y029080D01*
X012729Y029058D01*
X012702Y029039D01*
X012674Y029023D01*
X012643Y029011D01*
X012611Y029002D01*
X012579Y028997D01*
X012546Y028996D01*
X012513Y028999D01*
X012481Y029006D01*
X012450Y029016D01*
X012420Y029031D01*
X012392Y029048D01*
X012366Y029069D01*
X012343Y029093D01*
X012323Y029119D01*
X012307Y029147D01*
X012293Y029177D01*
X012284Y029209D01*
X012278Y029241D01*
X012276Y029274D01*
D12*
X012780Y031825D02*
X012704Y031901D01*
X012704Y032055D01*
X012780Y032132D01*
X012780Y032285D02*
X012704Y032362D01*
X012704Y032515D01*
X012780Y032592D01*
X012857Y032592D01*
X012934Y032515D01*
X013011Y032592D01*
X013087Y032592D01*
X013164Y032515D01*
X013164Y032362D01*
X013087Y032285D01*
X013087Y032132D02*
X013164Y032055D01*
X013164Y031901D01*
X013087Y031825D01*
X012780Y031825D01*
X012934Y032439D02*
X012934Y032515D01*
X012857Y032746D02*
X012704Y032899D01*
X013164Y032899D01*
X013164Y032746D02*
X013164Y033052D01*
X013281Y035598D02*
X013204Y035675D01*
X013204Y035982D01*
X013281Y036059D01*
X013434Y036059D01*
X013511Y035982D01*
X013511Y035675D01*
X013434Y035598D01*
X013281Y035598D01*
X013358Y035752D02*
X013511Y035598D01*
X013665Y035598D02*
X013972Y035905D01*
X013972Y035982D01*
X013895Y036059D01*
X013741Y036059D01*
X013665Y035982D01*
X013665Y035598D02*
X013972Y035598D01*
X012788Y037884D02*
X012788Y038037D01*
X012788Y037961D02*
X012327Y037961D01*
X012327Y038037D02*
X012327Y037884D01*
X012404Y038191D02*
X012711Y038191D01*
X012788Y038267D01*
X012788Y038421D01*
X012711Y038498D01*
X012711Y038651D02*
X012788Y038728D01*
X012788Y038881D01*
X012711Y038958D01*
X012634Y038958D01*
X012557Y038881D01*
X012557Y038805D01*
X012557Y038881D02*
X012481Y038958D01*
X012404Y038958D01*
X012327Y038881D01*
X012327Y038728D01*
X012404Y038651D01*
X012404Y038498D02*
X012327Y038421D01*
X012327Y038267D01*
X012404Y038191D01*
X011709Y039305D02*
X011786Y039382D01*
X011786Y039535D01*
X011709Y039612D01*
X011709Y039765D02*
X011786Y039842D01*
X011786Y039996D01*
X011709Y040072D01*
X011633Y040072D01*
X011556Y039996D01*
X011556Y039919D01*
X011556Y039996D02*
X011479Y040072D01*
X011402Y040072D01*
X011326Y039996D01*
X011326Y039842D01*
X011402Y039765D01*
X011402Y039612D02*
X011326Y039535D01*
X011326Y039382D01*
X011402Y039305D01*
X011709Y039305D01*
X011591Y040103D02*
X011131Y040410D01*
X011326Y040456D02*
X011556Y040226D01*
X011556Y040533D01*
X011591Y040410D02*
X011131Y040103D01*
X011326Y040456D02*
X011786Y040456D01*
X011591Y040793D02*
X011131Y040793D01*
X011361Y040563D01*
X011361Y040870D01*
X010374Y040992D02*
X010374Y041584D01*
X007349Y041584D01*
X007349Y040992D01*
X007778Y041052D02*
X007696Y039969D01*
X007778Y039969D01*
X007880Y040909D01*
X008085Y040909D01*
X008187Y039969D01*
X008269Y039969D01*
X008166Y041052D01*
X008167Y041052D02*
X008163Y041071D01*
X008157Y041090D01*
X008147Y041107D01*
X008135Y041123D01*
X008120Y041136D01*
X008103Y041147D01*
X008085Y041154D01*
X007860Y041154D02*
X007842Y041147D01*
X007825Y041136D01*
X007810Y041123D01*
X007798Y041107D01*
X007788Y041090D01*
X007782Y041071D01*
X007778Y041052D01*
X007860Y041154D02*
X007897Y041163D01*
X007934Y041169D01*
X007972Y041171D01*
X008010Y041169D01*
X008047Y041163D01*
X008084Y041154D01*
X008371Y041052D02*
X008452Y039458D01*
X008455Y039440D01*
X008462Y039423D01*
X008471Y039408D01*
X008484Y039395D01*
X008499Y039386D01*
X008516Y039379D01*
X008534Y039376D01*
X009188Y039376D01*
X009206Y039379D01*
X009223Y039386D01*
X009238Y039395D01*
X009251Y039408D01*
X009260Y039423D01*
X009267Y039440D01*
X009270Y039458D01*
X009352Y041052D01*
X009350Y041068D01*
X009346Y041083D01*
X009338Y041098D01*
X009328Y041110D01*
X009316Y041120D01*
X009301Y041128D01*
X009286Y041132D01*
X009270Y041134D01*
X009270Y041134D01*
X009254Y041132D01*
X009239Y041128D01*
X009224Y041120D01*
X009212Y041110D01*
X009202Y041098D01*
X009194Y041083D01*
X009190Y041068D01*
X009188Y041052D01*
X009106Y039703D01*
X009107Y039703D02*
X008616Y039703D01*
X008534Y041052D01*
X008532Y041068D01*
X008528Y041083D01*
X008520Y041098D01*
X008510Y041110D01*
X008498Y041120D01*
X008483Y041128D01*
X008468Y041132D01*
X008452Y041134D01*
X008436Y041132D01*
X008421Y041128D01*
X008406Y041120D01*
X008394Y041110D01*
X008384Y041098D01*
X008376Y041083D01*
X008372Y041068D01*
X008370Y041052D01*
X007349Y041584D02*
X007349Y041584D01*
X007346Y041585D02*
X010376Y041585D01*
X009944Y041052D02*
X010026Y039969D01*
X009944Y039969D01*
X009842Y040909D01*
X009638Y040909D01*
X009536Y039969D01*
X009454Y039969D01*
X009556Y041052D01*
X009560Y041071D01*
X009566Y041090D01*
X009576Y041107D01*
X009588Y041123D01*
X009603Y041136D01*
X009620Y041147D01*
X009638Y041154D01*
X009863Y041154D02*
X009881Y041147D01*
X009898Y041136D01*
X009913Y041123D01*
X009925Y041107D01*
X009935Y041090D01*
X009941Y041071D01*
X009945Y041052D01*
X009862Y041154D02*
X009825Y041163D01*
X009788Y041169D01*
X009750Y041171D01*
X009712Y041169D01*
X009675Y041163D01*
X009638Y041154D01*
X010376Y039865D02*
X010376Y038866D01*
X010170Y038541D02*
X009884Y038541D01*
X009884Y038096D01*
X010170Y038096D01*
X007798Y038089D02*
X007549Y038089D01*
X007798Y038089D02*
X007798Y038541D01*
X007552Y038541D01*
X007347Y038827D02*
X007347Y039885D01*
X007280Y031970D02*
X006973Y031970D01*
X006897Y031893D01*
X006897Y031740D01*
X006973Y031663D01*
X007050Y031663D01*
X007127Y031740D01*
X007127Y031970D01*
X007280Y031970D02*
X007357Y031893D01*
X007357Y031740D01*
X007280Y031663D01*
X007357Y031509D02*
X007357Y031202D01*
X007050Y031509D01*
X006973Y031509D01*
X006897Y031433D01*
X006897Y031279D01*
X006973Y031202D01*
X006973Y031049D02*
X006897Y030972D01*
X006897Y030819D01*
X006973Y030742D01*
X007280Y030742D01*
X007357Y030819D01*
X007357Y030972D01*
X007280Y031049D01*
X006875Y030726D02*
X006875Y030266D01*
X007028Y030266D02*
X006721Y030266D01*
X006568Y030266D02*
X006261Y030266D01*
X006261Y030726D01*
X006721Y030573D02*
X006875Y030726D01*
X007881Y030819D02*
X007957Y030742D01*
X008264Y030742D01*
X008341Y030819D01*
X008341Y030972D01*
X008264Y031049D01*
X008264Y031202D02*
X008341Y031279D01*
X008341Y031433D01*
X008264Y031509D01*
X008188Y031509D01*
X008111Y031433D01*
X008111Y031356D01*
X008111Y031433D02*
X008034Y031509D01*
X007957Y031509D01*
X007881Y031433D01*
X007881Y031279D01*
X007957Y031202D01*
X007957Y031049D02*
X007881Y030972D01*
X007881Y030819D01*
X007957Y031663D02*
X007881Y031740D01*
X007881Y031893D01*
X007957Y031970D01*
X008264Y031663D01*
X008341Y031740D01*
X008341Y031893D01*
X008264Y031970D01*
X007957Y031970D01*
X007957Y031663D02*
X008264Y031663D01*
X007611Y028846D02*
X007502Y028846D01*
X007394Y028738D01*
X007394Y028629D01*
X007285Y028521D02*
X007176Y028521D01*
X007068Y028412D01*
X007068Y028304D01*
X006959Y028195D02*
X006851Y028195D01*
X006742Y028087D01*
X006742Y027978D01*
X006959Y027761D01*
X007068Y027761D01*
X007176Y027870D01*
X007176Y027978D01*
X007339Y028033D02*
X007339Y028467D01*
X007285Y028521D01*
X007556Y028250D02*
X007339Y028033D01*
X007611Y028412D02*
X007719Y028412D01*
X007828Y028521D01*
X007828Y028629D01*
X007773Y028684D01*
X007665Y028684D01*
X007611Y028629D01*
X007665Y028684D02*
X007665Y028792D01*
X007611Y028846D01*
X006452Y028060D02*
X006235Y027843D01*
X006343Y027952D02*
X006017Y028277D01*
X006017Y028060D01*
X005855Y028006D02*
X005963Y027897D01*
X005963Y027789D01*
X005800Y027626D01*
X005909Y027517D02*
X005583Y027843D01*
X005746Y028006D01*
X005855Y028006D01*
X005909Y027735D02*
X006126Y027735D01*
X006280Y027630D02*
X006280Y027304D01*
X006497Y027521D01*
X006606Y027304D02*
X006280Y027630D01*
X006063Y027304D02*
X005955Y027304D01*
X005846Y027196D01*
X005846Y027087D01*
X005738Y026979D02*
X005629Y026979D01*
X005521Y026870D01*
X005521Y026762D01*
X005738Y026545D01*
X005846Y026545D01*
X005955Y026653D01*
X005955Y026762D01*
X006117Y026816D02*
X006117Y027250D01*
X006063Y027304D01*
X006334Y027033D02*
X006117Y026816D01*
X010243Y018092D02*
X010320Y018092D01*
X010627Y017785D01*
X010703Y017785D01*
X010703Y017631D02*
X010703Y017324D01*
X010396Y017631D01*
X010320Y017631D01*
X010243Y017555D01*
X010243Y017401D01*
X010320Y017324D01*
X010320Y017171D02*
X010243Y017094D01*
X010243Y016941D01*
X010320Y016864D01*
X010627Y016864D01*
X010703Y016941D01*
X010703Y017094D01*
X010627Y017171D01*
X010243Y017785D02*
X010243Y018092D01*
X006964Y015173D02*
X006964Y015096D01*
X006887Y015019D01*
X006964Y014943D01*
X006964Y014866D01*
X006887Y014789D01*
X006734Y014789D01*
X006657Y014866D01*
X006504Y014866D02*
X006427Y014789D01*
X006273Y014789D01*
X006197Y014866D01*
X006043Y014866D02*
X005966Y014789D01*
X005813Y014789D01*
X005736Y014866D01*
X005736Y015173D01*
X005813Y015250D01*
X005966Y015250D01*
X006043Y015173D01*
X006197Y015173D02*
X006273Y015250D01*
X006427Y015250D01*
X006504Y015173D01*
X006504Y015096D01*
X006427Y015019D01*
X006504Y014943D01*
X006504Y014866D01*
X006427Y015019D02*
X006350Y015019D01*
X006657Y015173D02*
X006734Y015250D01*
X006887Y015250D01*
X006964Y015173D01*
X006887Y015019D02*
X006810Y015019D01*
X009064Y012297D02*
X008987Y012221D01*
X008987Y012067D01*
X009064Y011990D01*
X009217Y012144D02*
X009217Y012221D01*
X009294Y012297D01*
X009371Y012297D01*
X009447Y012221D01*
X009447Y012067D01*
X009371Y011990D01*
X009447Y011837D02*
X009447Y011530D01*
X009447Y011683D02*
X008987Y011683D01*
X009141Y011530D01*
X009064Y011376D02*
X008987Y011300D01*
X008987Y011146D01*
X009064Y011070D01*
X009371Y011070D01*
X009447Y011146D01*
X009447Y011300D01*
X009371Y011376D01*
X009217Y012221D02*
X009141Y012297D01*
X009064Y012297D01*
X009344Y009860D02*
X009267Y009783D01*
X009267Y009476D01*
X009344Y009400D01*
X009497Y009400D01*
X009574Y009476D01*
X009727Y009400D02*
X010034Y009400D01*
X009881Y009400D02*
X009881Y009860D01*
X009727Y009706D01*
X009574Y009783D02*
X009497Y009860D01*
X009344Y009860D01*
X010188Y009783D02*
X010188Y009706D01*
X010264Y009630D01*
X010495Y009630D01*
X010495Y009783D02*
X010418Y009860D01*
X010264Y009860D01*
X010188Y009783D01*
X010495Y009783D02*
X010495Y009476D01*
X010418Y009400D01*
X010264Y009400D01*
X010188Y009476D01*
X010735Y009080D02*
X011195Y009080D01*
X011195Y008927D02*
X011195Y009234D01*
X010889Y008927D02*
X010735Y009080D01*
X010812Y008773D02*
X010735Y008696D01*
X010735Y008543D01*
X010812Y008466D01*
X010812Y008313D02*
X010735Y008236D01*
X010735Y008083D01*
X010812Y008006D01*
X011119Y008006D01*
X011195Y008083D01*
X011195Y008236D01*
X011119Y008313D01*
X011195Y008466D02*
X010889Y008773D01*
X010812Y008773D01*
X011195Y008773D02*
X011195Y008466D01*
X010988Y005313D02*
X010702Y005313D01*
X010988Y005313D02*
X010988Y004868D01*
X010702Y004868D01*
X010496Y004542D02*
X010496Y003544D01*
X010846Y003440D02*
X010928Y003440D01*
X011030Y002500D01*
X011234Y002500D01*
X011336Y003440D01*
X011418Y003440D01*
X011316Y002356D01*
X011312Y002337D01*
X011306Y002318D01*
X011296Y002301D01*
X011284Y002285D01*
X011269Y002272D01*
X011252Y002261D01*
X011234Y002254D01*
X011009Y002254D02*
X010991Y002261D01*
X010974Y002272D01*
X010959Y002285D01*
X010947Y002301D01*
X010937Y002318D01*
X010931Y002337D01*
X010927Y002356D01*
X010928Y002356D02*
X010846Y003440D01*
X011010Y002255D02*
X011047Y002246D01*
X011084Y002240D01*
X011122Y002238D01*
X011160Y002240D01*
X011197Y002246D01*
X011234Y002255D01*
X011520Y002357D02*
X011602Y003951D01*
X011601Y003951D02*
X011604Y003969D01*
X011611Y003986D01*
X011620Y004001D01*
X011633Y004014D01*
X011648Y004023D01*
X011665Y004030D01*
X011683Y004033D01*
X011684Y004032D02*
X012338Y004032D01*
X012338Y004033D02*
X012356Y004030D01*
X012373Y004023D01*
X012388Y004014D01*
X012401Y004001D01*
X012410Y003986D01*
X012417Y003969D01*
X012420Y003951D01*
X012419Y003951D02*
X012501Y002357D01*
X012501Y002356D02*
X012499Y002340D01*
X012495Y002325D01*
X012487Y002310D01*
X012477Y002298D01*
X012465Y002288D01*
X012450Y002280D01*
X012435Y002276D01*
X012419Y002274D01*
X012403Y002276D01*
X012388Y002280D01*
X012373Y002288D01*
X012361Y002298D01*
X012351Y002310D01*
X012343Y002325D01*
X012339Y002340D01*
X012337Y002356D01*
X012338Y002356D02*
X012256Y003705D01*
X011765Y003705D01*
X011684Y002356D01*
X011682Y002340D01*
X011678Y002325D01*
X011670Y002310D01*
X011660Y002298D01*
X011648Y002288D01*
X011633Y002280D01*
X011618Y002276D01*
X011602Y002274D01*
X011602Y002275D02*
X011602Y002275D01*
X011602Y002274D02*
X011586Y002276D01*
X011571Y002280D01*
X011556Y002288D01*
X011544Y002298D01*
X011534Y002310D01*
X011526Y002325D01*
X011522Y002340D01*
X011520Y002356D01*
X012706Y002356D02*
X012603Y003440D01*
X012685Y003440D01*
X012787Y002500D01*
X012992Y002500D01*
X013094Y003440D01*
X013176Y003440D01*
X013094Y002356D01*
X013090Y002337D01*
X013084Y002318D01*
X013074Y002301D01*
X013062Y002285D01*
X013047Y002272D01*
X013030Y002261D01*
X013012Y002254D01*
X012787Y002254D02*
X012769Y002261D01*
X012752Y002272D01*
X012737Y002285D01*
X012725Y002301D01*
X012715Y002318D01*
X012709Y002337D01*
X012705Y002356D01*
X012788Y002255D02*
X012825Y002246D01*
X012862Y002240D01*
X012900Y002238D01*
X012938Y002240D01*
X012975Y002246D01*
X013012Y002255D01*
X013523Y002417D02*
X013523Y001825D01*
X010498Y001825D01*
X010498Y002417D01*
X010496Y001823D02*
X013525Y001823D01*
X013523Y001825D02*
X013523Y001825D01*
X013525Y003524D02*
X013525Y004582D01*
X013320Y004868D02*
X013074Y004868D01*
X013074Y005319D01*
X013323Y005319D01*
X009550Y004569D02*
X009550Y002679D01*
X008645Y002679D01*
X009280Y002732D02*
X009741Y002425D01*
X009741Y002732D02*
X009280Y002425D01*
X009434Y002886D02*
X009280Y003039D01*
X009741Y003039D01*
X009741Y002886D02*
X009741Y003192D01*
X009550Y004569D02*
X008881Y005238D01*
X008645Y005238D01*
X007897Y005238D02*
X007660Y005238D01*
X006991Y004569D01*
X006991Y002679D01*
X007897Y002679D01*
X008645Y002797D02*
X008709Y002819D01*
X008772Y002846D01*
X008834Y002876D01*
X008893Y002909D01*
X008951Y002945D01*
X009007Y002985D01*
X009060Y003028D01*
X009111Y003073D01*
X009159Y003121D01*
X009204Y003172D01*
X009247Y003226D01*
X009286Y003282D01*
X009323Y003339D01*
X009356Y003399D01*
X009385Y003461D01*
X009411Y003524D01*
X009434Y003588D01*
X009453Y003654D01*
X009468Y003721D01*
X009479Y003788D01*
X009487Y003856D01*
X009491Y003924D01*
X009491Y003992D01*
X009487Y004060D01*
X009479Y004128D01*
X009468Y004195D01*
X009453Y004262D01*
X009434Y004328D01*
X009411Y004392D01*
X009385Y004455D01*
X009356Y004517D01*
X009323Y004577D01*
X009286Y004634D01*
X009247Y004690D01*
X009204Y004744D01*
X009159Y004795D01*
X009111Y004843D01*
X009060Y004888D01*
X009007Y004931D01*
X008951Y004971D01*
X008893Y005007D01*
X008834Y005040D01*
X008772Y005070D01*
X008709Y005097D01*
X008645Y005119D01*
X007897Y005119D02*
X007833Y005097D01*
X007770Y005070D01*
X007708Y005040D01*
X007649Y005007D01*
X007591Y004971D01*
X007535Y004931D01*
X007482Y004888D01*
X007431Y004843D01*
X007383Y004795D01*
X007338Y004744D01*
X007295Y004690D01*
X007256Y004634D01*
X007219Y004577D01*
X007186Y004517D01*
X007157Y004455D01*
X007131Y004392D01*
X007108Y004328D01*
X007089Y004262D01*
X007074Y004195D01*
X007063Y004128D01*
X007055Y004060D01*
X007051Y003992D01*
X007051Y003924D01*
X007055Y003856D01*
X007063Y003788D01*
X007074Y003721D01*
X007089Y003654D01*
X007108Y003588D01*
X007131Y003524D01*
X007157Y003461D01*
X007186Y003399D01*
X007219Y003339D01*
X007256Y003282D01*
X007295Y003226D01*
X007338Y003172D01*
X007383Y003121D01*
X007431Y003073D01*
X007482Y003028D01*
X007535Y002985D01*
X007591Y002945D01*
X007649Y002909D01*
X007708Y002876D01*
X007770Y002846D01*
X007833Y002819D01*
X007897Y002797D01*
X006794Y002679D02*
X005889Y002679D01*
X006794Y002679D02*
X006794Y004569D01*
X006125Y005238D01*
X005889Y005238D01*
X005141Y005119D02*
X005077Y005097D01*
X005014Y005070D01*
X004952Y005040D01*
X004893Y005007D01*
X004835Y004971D01*
X004779Y004931D01*
X004726Y004888D01*
X004675Y004843D01*
X004627Y004795D01*
X004582Y004744D01*
X004539Y004690D01*
X004500Y004634D01*
X004463Y004577D01*
X004430Y004517D01*
X004401Y004455D01*
X004375Y004392D01*
X004352Y004328D01*
X004333Y004262D01*
X004318Y004195D01*
X004307Y004128D01*
X004299Y004060D01*
X004295Y003992D01*
X004295Y003924D01*
X004299Y003856D01*
X004307Y003788D01*
X004318Y003721D01*
X004333Y003654D01*
X004352Y003588D01*
X004375Y003524D01*
X004401Y003461D01*
X004430Y003399D01*
X004463Y003339D01*
X004500Y003282D01*
X004539Y003226D01*
X004582Y003172D01*
X004627Y003121D01*
X004675Y003073D01*
X004726Y003028D01*
X004779Y002985D01*
X004835Y002945D01*
X004893Y002909D01*
X004952Y002876D01*
X005014Y002846D01*
X005077Y002819D01*
X005141Y002797D01*
X005141Y002679D02*
X004235Y002679D01*
X004235Y004569D01*
X004904Y005238D01*
X005141Y005238D01*
X005889Y005119D02*
X005953Y005097D01*
X006016Y005070D01*
X006078Y005040D01*
X006137Y005007D01*
X006195Y004971D01*
X006251Y004931D01*
X006304Y004888D01*
X006355Y004843D01*
X006403Y004795D01*
X006448Y004744D01*
X006491Y004690D01*
X006530Y004634D01*
X006567Y004577D01*
X006600Y004517D01*
X006629Y004455D01*
X006655Y004392D01*
X006678Y004328D01*
X006697Y004262D01*
X006712Y004195D01*
X006723Y004128D01*
X006731Y004060D01*
X006735Y003992D01*
X006735Y003924D01*
X006731Y003856D01*
X006723Y003788D01*
X006712Y003721D01*
X006697Y003654D01*
X006678Y003588D01*
X006655Y003524D01*
X006629Y003461D01*
X006600Y003399D01*
X006567Y003339D01*
X006530Y003282D01*
X006491Y003226D01*
X006448Y003172D01*
X006403Y003121D01*
X006355Y003073D01*
X006304Y003028D01*
X006251Y002985D01*
X006195Y002945D01*
X006137Y002909D01*
X006078Y002876D01*
X006016Y002846D01*
X005953Y002819D01*
X005889Y002797D01*
X008079Y006631D02*
X008079Y006861D01*
X008156Y006938D01*
X008309Y006938D01*
X008386Y006861D01*
X008386Y006631D01*
X008386Y006784D02*
X008540Y006938D01*
X008463Y007091D02*
X008386Y007091D01*
X008309Y007168D01*
X008309Y007322D01*
X008386Y007398D01*
X008463Y007398D01*
X008540Y007322D01*
X008540Y007168D01*
X008463Y007091D01*
X008309Y007168D02*
X008233Y007091D01*
X008156Y007091D01*
X008079Y007168D01*
X008079Y007322D01*
X008156Y007398D01*
X008233Y007398D01*
X008309Y007322D01*
X007654Y007233D02*
X007500Y007080D01*
X007500Y007156D02*
X007500Y006926D01*
X007654Y006926D02*
X007193Y006926D01*
X007193Y007156D01*
X007270Y007233D01*
X007424Y007233D01*
X007500Y007156D01*
X007424Y007387D02*
X007424Y007694D01*
X007654Y007617D02*
X007193Y007617D01*
X007424Y007387D01*
X007455Y008085D02*
X006995Y008085D01*
X006668Y008301D02*
X006668Y008608D01*
X006668Y008761D02*
X006668Y009068D01*
X006668Y009222D02*
X006668Y009452D01*
X006591Y009529D01*
X006284Y009529D01*
X006208Y009452D01*
X006208Y009222D01*
X006668Y009222D01*
X006995Y009236D02*
X006995Y009005D01*
X007455Y009005D01*
X007455Y009236D01*
X007379Y009312D01*
X007072Y009312D01*
X006995Y009236D01*
X007072Y009466D02*
X006995Y009542D01*
X006995Y009696D01*
X007072Y009773D01*
X007148Y009773D01*
X007455Y009466D01*
X007455Y009773D01*
X007455Y008852D02*
X007455Y008545D01*
X006995Y008545D01*
X006995Y008852D01*
X007225Y008698D02*
X007225Y008545D01*
X007455Y008391D02*
X007455Y008085D01*
X006668Y008301D02*
X006208Y008301D01*
X006384Y007694D02*
X006308Y007617D01*
X006308Y007463D01*
X006384Y007387D01*
X006384Y007233D02*
X006538Y007233D01*
X006614Y007156D01*
X006614Y006926D01*
X006614Y007080D02*
X006768Y007233D01*
X006691Y007387D02*
X006768Y007463D01*
X006768Y007617D01*
X006691Y007694D01*
X006614Y007694D01*
X006538Y007617D01*
X006538Y007540D01*
X006538Y007617D02*
X006461Y007694D01*
X006384Y007694D01*
X006384Y007233D02*
X006308Y007156D01*
X006308Y006926D01*
X006768Y006926D01*
X008079Y006631D02*
X008540Y006631D01*
X006668Y008761D02*
X006208Y008761D01*
X006208Y009068D01*
X006438Y008915D02*
X006438Y008761D01*
X006361Y009682D02*
X006208Y009836D01*
X006668Y009836D01*
X006668Y009989D02*
X006668Y009682D01*
X003798Y008285D02*
X003798Y007978D01*
X003798Y008131D02*
X003337Y008131D01*
X003491Y007978D01*
X003414Y007824D02*
X003337Y007748D01*
X003337Y007594D01*
X003414Y007517D01*
X003721Y007517D01*
X003798Y007594D01*
X003798Y007748D01*
X003721Y007824D01*
X003798Y007364D02*
X003798Y007211D01*
X003798Y007287D02*
X003337Y007287D01*
X003337Y007211D02*
X003337Y007364D01*
X000747Y007364D02*
X000747Y007211D01*
X000747Y007287D02*
X000286Y007287D01*
X000286Y007211D02*
X000286Y007364D01*
X000363Y007517D02*
X000670Y007517D01*
X000747Y007594D01*
X000747Y007748D01*
X000670Y007824D01*
X000747Y007978D02*
X000440Y008285D01*
X000363Y008285D01*
X000286Y008208D01*
X000286Y008055D01*
X000363Y007978D01*
X000363Y007824D02*
X000286Y007748D01*
X000286Y007594D01*
X000363Y007517D01*
X000747Y007978D02*
X000747Y008285D01*
X014847Y032022D02*
X015154Y032022D01*
X015231Y032098D01*
X015231Y032252D01*
X015154Y032329D01*
X015154Y032482D02*
X015231Y032559D01*
X015231Y032712D01*
X015154Y032789D01*
X015077Y032789D01*
X015001Y032712D01*
X015001Y032635D01*
X015001Y032712D02*
X014924Y032789D01*
X014847Y032789D01*
X014771Y032712D01*
X014771Y032559D01*
X014847Y032482D01*
X014847Y032329D02*
X014771Y032252D01*
X014771Y032098D01*
X014847Y032022D01*
X014847Y032942D02*
X014771Y033019D01*
X014771Y033173D01*
X014847Y033249D01*
X014924Y033249D01*
X015231Y032942D01*
X015231Y033249D01*
X017695Y038138D02*
X017695Y038599D01*
X017926Y038599D01*
X018002Y038522D01*
X018002Y038368D01*
X017926Y038292D01*
X017695Y038292D01*
X017849Y038292D02*
X018002Y038138D01*
X018156Y038215D02*
X018232Y038138D01*
X018386Y038138D01*
X018463Y038215D01*
X018463Y038522D01*
X018386Y038599D01*
X018232Y038599D01*
X018156Y038522D01*
X018156Y038445D01*
X018232Y038368D01*
X018463Y038368D01*
X018459Y039281D02*
X018153Y039281D01*
X018153Y039742D01*
X018459Y039742D01*
X018613Y039742D02*
X018613Y039281D01*
X018843Y039281D01*
X018920Y039358D01*
X018920Y039665D01*
X018843Y039742D01*
X018613Y039742D01*
X018652Y039931D02*
X018883Y039931D01*
X018959Y040008D01*
X018959Y040315D01*
X018883Y040391D01*
X018652Y040391D01*
X018652Y039931D01*
X018499Y039931D02*
X018192Y039931D01*
X018192Y040391D01*
X018499Y040391D01*
X018652Y040579D02*
X018498Y040733D01*
X018575Y040733D02*
X018345Y040733D01*
X018345Y040579D02*
X018345Y041039D01*
X018575Y041039D01*
X018652Y040963D01*
X018652Y040809D01*
X018575Y040733D01*
X018805Y040809D02*
X018805Y041039D01*
X019112Y041039D01*
X019036Y040886D02*
X019112Y040809D01*
X019112Y040656D01*
X019036Y040579D01*
X018882Y040579D01*
X018805Y040656D01*
X018805Y040809D02*
X018959Y040886D01*
X019036Y040886D01*
X019343Y040391D02*
X019113Y040161D01*
X019420Y040161D01*
X019343Y039931D02*
X019343Y040391D01*
X019304Y039742D02*
X019380Y039665D01*
X019380Y039588D01*
X019304Y039512D01*
X019380Y039435D01*
X019380Y039358D01*
X019304Y039281D01*
X019150Y039281D01*
X019073Y039358D01*
X019227Y039512D02*
X019304Y039512D01*
X019304Y039742D02*
X019150Y039742D01*
X019073Y039665D01*
X018306Y039512D02*
X018153Y039512D01*
X017999Y039281D02*
X017692Y039281D01*
X017692Y039742D01*
X017732Y039931D02*
X018038Y039931D01*
X018192Y040161D02*
X018345Y040161D01*
X017732Y040391D02*
X017732Y039931D01*
X022139Y008679D02*
X022062Y008602D01*
X022062Y008295D01*
X022139Y008218D01*
X022292Y008218D01*
X022369Y008295D01*
X022523Y008218D02*
X022830Y008525D01*
X022830Y008602D01*
X022753Y008679D01*
X022599Y008679D01*
X022523Y008602D01*
X022369Y008602D02*
X022292Y008679D01*
X022139Y008679D01*
X022523Y008218D02*
X022830Y008218D01*
X022983Y008295D02*
X023290Y008602D01*
X023290Y008295D01*
X023213Y008218D01*
X023060Y008218D01*
X022983Y008295D01*
X022983Y008602D01*
X023060Y008679D01*
X023213Y008679D01*
X023290Y008602D01*
X023213Y007793D02*
X023290Y007716D01*
X023290Y007640D01*
X023213Y007563D01*
X023060Y007563D01*
X022983Y007640D01*
X022983Y007716D01*
X023060Y007793D01*
X023213Y007793D01*
X023213Y007563D02*
X023290Y007486D01*
X023290Y007409D01*
X023213Y007333D01*
X023060Y007333D01*
X022983Y007409D01*
X022983Y007486D01*
X023060Y007563D01*
X022830Y007333D02*
X022523Y007333D01*
X022676Y007333D02*
X022676Y007793D01*
X022523Y007640D01*
X022369Y007716D02*
X022292Y007793D01*
X022139Y007793D01*
X022062Y007716D01*
X022062Y007409D01*
X022139Y007333D01*
X022292Y007333D01*
X022369Y007409D01*
X019397Y004340D02*
X019397Y003880D01*
X019550Y003880D02*
X019243Y003880D01*
X019090Y003957D02*
X019090Y004264D01*
X019013Y004340D01*
X018783Y004340D01*
X018783Y003880D01*
X019013Y003880D01*
X019090Y003957D01*
X019243Y004187D02*
X019397Y004340D01*
X019538Y001139D02*
X019538Y000832D01*
X019538Y000986D02*
X019078Y000986D01*
X019231Y000832D01*
X019078Y000679D02*
X019078Y000525D01*
X019078Y000602D02*
X019461Y000602D01*
X019538Y000525D01*
X019538Y000449D01*
X019461Y000372D01*
D13*
X006608Y007341D02*
X004028Y007341D01*
X004028Y009701D01*
X003557Y009701D02*
X003557Y007341D01*
X000977Y007341D01*
X000977Y009701D01*
X006608Y009701D02*
X006608Y007341D01*
X013231Y033880D02*
X013231Y035061D01*
X013271Y034667D02*
X013298Y034665D01*
X013324Y034660D01*
X013349Y034651D01*
X013373Y034638D01*
X013395Y034623D01*
X013415Y034604D01*
X013432Y034584D01*
X013446Y034561D01*
X013457Y034536D01*
X013464Y034510D01*
X013468Y034483D01*
X013468Y034457D01*
X013464Y034430D01*
X013457Y034404D01*
X013446Y034379D01*
X013432Y034356D01*
X013415Y034336D01*
X013395Y034317D01*
X013373Y034302D01*
X013349Y034289D01*
X013324Y034280D01*
X013298Y034275D01*
X013271Y034273D01*
X014215Y033880D02*
X015318Y033880D01*
X015318Y035061D02*
X014215Y035061D01*
X012956Y037876D02*
X012956Y039923D01*
X016971Y039923D01*
X016971Y037876D01*
X012956Y037876D01*
X016302Y035061D02*
X016302Y033880D01*
D14*
X005318Y007151D03*
X002267Y007151D03*
D15*
X002284Y004375D02*
X002222Y004313D01*
X002222Y004066D01*
X002284Y004004D01*
X002407Y004004D01*
X002469Y004066D01*
X002590Y004004D02*
X002837Y004004D01*
X002714Y004004D02*
X002714Y004375D01*
X002590Y004251D01*
X002469Y004313D02*
X002407Y004375D01*
X002284Y004375D01*
X002959Y004190D02*
X003206Y004190D01*
X003144Y004375D02*
X003144Y004004D01*
X002959Y004190D02*
X003144Y004375D01*
X003206Y002898D02*
X002959Y002898D01*
X002959Y002713D01*
X003082Y002775D01*
X003144Y002775D01*
X003206Y002713D01*
X003206Y002590D01*
X003144Y002528D01*
X003020Y002528D01*
X002959Y002590D01*
X002837Y002528D02*
X002590Y002528D01*
X002714Y002528D02*
X002714Y002898D01*
X002590Y002775D01*
X002469Y002837D02*
X002407Y002898D01*
X002284Y002898D01*
X002222Y002837D01*
X002222Y002590D01*
X002284Y002528D01*
X002407Y002528D01*
X002469Y002590D01*
X004736Y003346D02*
X004797Y003284D01*
X005044Y003284D01*
X005106Y003346D01*
X005106Y003469D01*
X005044Y003531D01*
X005106Y003653D02*
X005106Y003899D01*
X005106Y004021D02*
X005044Y004021D01*
X004797Y004268D01*
X004736Y004268D01*
X004736Y004021D01*
X004736Y003776D02*
X005106Y003776D01*
X004859Y003653D02*
X004736Y003776D01*
X004797Y003531D02*
X004736Y003469D01*
X004736Y003346D01*
X007492Y003346D02*
X007553Y003284D01*
X007800Y003284D01*
X007862Y003346D01*
X007862Y003469D01*
X007800Y003531D01*
X007862Y003653D02*
X007862Y003899D01*
X007862Y003776D02*
X007492Y003776D01*
X007615Y003653D01*
X007553Y003531D02*
X007492Y003469D01*
X007492Y003346D01*
X007677Y004021D02*
X007553Y004144D01*
X007492Y004268D01*
X007677Y004206D02*
X007677Y004021D01*
X007800Y004021D01*
X007862Y004083D01*
X007862Y004206D01*
X007800Y004268D01*
X007738Y004268D01*
X007677Y004206D01*
X005235Y026782D02*
X005322Y026869D01*
X005322Y026957D01*
X005452Y026999D02*
X005452Y027348D01*
X005408Y027392D01*
X005321Y027392D01*
X005234Y027304D01*
X005234Y027217D01*
X005148Y027131D02*
X005061Y027131D01*
X004973Y027044D01*
X004973Y026957D01*
X005148Y026782D01*
X005235Y026782D01*
X005452Y026999D02*
X005627Y027174D01*
X005669Y027303D02*
X005756Y027303D01*
X005843Y027390D01*
X005843Y027478D01*
X005756Y027565D01*
X005669Y027565D01*
X005625Y027521D01*
X005581Y027390D01*
X005451Y027521D01*
X005625Y027696D01*
X007287Y027706D02*
X007287Y027619D01*
X007461Y027444D01*
X007548Y027444D01*
X007636Y027531D01*
X007636Y027619D01*
X007765Y027661D02*
X007765Y028010D01*
X007722Y028054D01*
X007634Y028054D01*
X007547Y027966D01*
X007547Y027879D01*
X007461Y027793D02*
X007374Y027793D01*
X007287Y027706D01*
X007765Y027661D02*
X007940Y027835D01*
X007982Y027965D02*
X008069Y027965D01*
X008157Y028052D01*
X008157Y028139D01*
X008113Y028183D01*
X008026Y028183D01*
X007895Y028052D01*
X007982Y027965D01*
X007895Y028052D02*
X007895Y028227D01*
X007938Y028358D01*
D16*
X010582Y030944D02*
X010158Y031368D01*
X010147Y031382D01*
X010138Y031397D01*
X010132Y031413D01*
X010129Y031430D01*
X010129Y031448D01*
X010132Y031465D01*
X010138Y031481D01*
X010147Y031496D01*
X010158Y031510D01*
X010936Y032287D01*
X010935Y032288D02*
X010949Y032299D01*
X010964Y032308D01*
X010980Y032314D01*
X010997Y032317D01*
X011015Y032317D01*
X011032Y032314D01*
X011048Y032308D01*
X011063Y032299D01*
X011077Y032288D01*
X011077Y032287D02*
X011501Y031863D01*
X011502Y031864D02*
X011513Y031850D01*
X011522Y031835D01*
X011528Y031819D01*
X011531Y031802D01*
X011531Y031784D01*
X011528Y031767D01*
X011522Y031751D01*
X011513Y031736D01*
X011502Y031722D01*
X011501Y031722D02*
X010724Y030944D01*
X010710Y030933D01*
X010695Y030924D01*
X010679Y030918D01*
X010662Y030915D01*
X010644Y030915D01*
X010627Y030918D01*
X010611Y030924D01*
X010596Y030933D01*
X010582Y030944D01*
X011208Y033422D02*
X006908Y033422D01*
X006891Y033424D01*
X006874Y033428D01*
X006858Y033435D01*
X006844Y033445D01*
X006831Y033458D01*
X006821Y033472D01*
X006814Y033488D01*
X006810Y033505D01*
X006808Y033522D01*
X006808Y033922D01*
X006808Y034822D02*
X006808Y035222D01*
X006810Y035239D01*
X006814Y035256D01*
X006821Y035272D01*
X006831Y035286D01*
X006844Y035299D01*
X006858Y035309D01*
X006874Y035316D01*
X006891Y035320D01*
X006908Y035322D01*
X011208Y035322D01*
X011225Y035320D01*
X011242Y035316D01*
X011258Y035309D01*
X011272Y035299D01*
X011285Y035286D01*
X011295Y035272D01*
X011302Y035256D01*
X011306Y035239D01*
X011308Y035222D01*
X011308Y034822D01*
X011308Y033922D02*
X011308Y033522D01*
X011306Y033505D01*
X011302Y033488D01*
X011295Y033472D01*
X011285Y033458D01*
X011272Y033445D01*
X011258Y033435D01*
X011242Y033428D01*
X011225Y033424D01*
X011208Y033422D01*
X010558Y035861D02*
X008858Y035861D01*
X008841Y035863D01*
X008824Y035867D01*
X008808Y035874D01*
X008794Y035884D01*
X008781Y035897D01*
X008771Y035911D01*
X008764Y035927D01*
X008760Y035944D01*
X008758Y035961D01*
X008758Y036561D01*
X008760Y036578D01*
X008764Y036595D01*
X008771Y036611D01*
X008781Y036625D01*
X008794Y036638D01*
X008808Y036648D01*
X008824Y036655D01*
X008841Y036659D01*
X008858Y036661D01*
X010558Y036661D01*
X010575Y036659D01*
X010592Y036655D01*
X010608Y036648D01*
X010622Y036638D01*
X010635Y036625D01*
X010645Y036611D01*
X010652Y036595D01*
X010656Y036578D01*
X010658Y036561D01*
X010658Y035961D01*
X010656Y035944D01*
X010652Y035927D01*
X010645Y035911D01*
X010635Y035897D01*
X010622Y035884D01*
X010608Y035874D01*
X010592Y035867D01*
X010575Y035863D01*
X010558Y035861D01*
X011474Y036237D02*
X011474Y036837D01*
X011476Y036854D01*
X011480Y036871D01*
X011487Y036887D01*
X011497Y036901D01*
X011510Y036914D01*
X011524Y036924D01*
X011540Y036931D01*
X011557Y036935D01*
X011574Y036937D01*
X013274Y036937D01*
X013291Y036935D01*
X013308Y036931D01*
X013324Y036924D01*
X013338Y036914D01*
X013351Y036901D01*
X013361Y036887D01*
X013368Y036871D01*
X013372Y036854D01*
X013374Y036837D01*
X013374Y036237D01*
X013372Y036220D01*
X013368Y036203D01*
X013361Y036187D01*
X013351Y036173D01*
X013338Y036160D01*
X013324Y036150D01*
X013308Y036143D01*
X013291Y036139D01*
X013274Y036137D01*
X011574Y036137D01*
X011557Y036139D01*
X011540Y036143D01*
X011524Y036150D01*
X011510Y036160D01*
X011497Y036173D01*
X011487Y036187D01*
X011480Y036203D01*
X011476Y036220D01*
X011474Y036237D01*
X009308Y034622D02*
X009308Y034372D01*
X009308Y034122D01*
X009158Y034122D02*
X009158Y034622D01*
X008958Y034622D01*
X008958Y034122D01*
X009158Y034122D01*
X008808Y034122D02*
X008808Y034372D01*
X008808Y034622D01*
X004841Y034665D02*
X004841Y034165D01*
X004591Y033915D01*
X003091Y033915D01*
X002841Y034165D01*
X002841Y034665D01*
X003091Y034915D01*
X004591Y034915D01*
X004841Y034665D01*
X004591Y034915D02*
X004841Y035165D01*
X004841Y035665D01*
X004591Y035915D01*
X003091Y035915D01*
X002841Y035665D01*
X002841Y035165D01*
X003091Y034915D01*
X003091Y033915D02*
X002841Y033665D01*
X002841Y033165D01*
X003091Y032915D01*
X004591Y032915D01*
X004841Y032665D01*
X004841Y032165D01*
X004591Y031915D01*
X003091Y031915D01*
X002841Y032165D01*
X002841Y032665D01*
X003091Y032915D01*
X003091Y031915D02*
X002841Y031665D01*
X002841Y031165D01*
X003091Y030915D01*
X004591Y030915D01*
X004841Y030665D01*
X004841Y030165D01*
X004591Y029915D01*
X003091Y029915D01*
X002841Y030165D01*
X002841Y030665D01*
X003091Y030915D01*
X003091Y029915D02*
X002841Y029665D01*
X002841Y029165D01*
X003091Y028915D01*
X004591Y028915D01*
X004841Y028665D01*
X004841Y028165D01*
X004591Y027915D01*
X003091Y027915D01*
X002841Y028165D01*
X002841Y028665D01*
X003091Y028915D01*
X003091Y027915D02*
X002841Y027665D01*
X002841Y027165D01*
X003091Y026915D01*
X004591Y026915D01*
X004841Y026665D01*
X004841Y026165D01*
X004591Y025915D01*
X003091Y025915D01*
X002841Y026165D01*
X002841Y026665D01*
X003091Y026915D01*
X003091Y025915D02*
X002841Y025665D01*
X002841Y025165D01*
X003091Y024915D01*
X004591Y024915D01*
X004841Y024665D01*
X004841Y024165D01*
X004591Y023915D01*
X003091Y023915D01*
X002841Y024165D01*
X002841Y024665D01*
X003091Y024915D01*
X003091Y023915D02*
X002841Y023665D01*
X002841Y023165D01*
X003091Y022915D01*
X004591Y022915D01*
X004841Y022665D01*
X004841Y022165D01*
X004591Y021915D01*
X004841Y021665D01*
X004841Y021165D01*
X004591Y020915D01*
X004841Y020665D01*
X004841Y020165D01*
X004591Y019915D01*
X004841Y019665D01*
X004841Y019165D01*
X004591Y018915D01*
X004841Y018665D01*
X004841Y018165D01*
X004591Y017915D01*
X004841Y017665D01*
X004841Y017165D01*
X004591Y016915D01*
X004841Y016665D01*
X004841Y016165D01*
X004591Y015915D01*
X004841Y015665D01*
X004841Y015165D01*
X004591Y014915D01*
X004841Y014665D01*
X004841Y014165D01*
X004591Y013915D01*
X004841Y013665D01*
X004841Y013165D01*
X004591Y012915D01*
X004841Y012665D01*
X004841Y012165D01*
X004591Y011915D01*
X004841Y011665D01*
X004841Y011165D01*
X004591Y010915D01*
X003091Y010915D01*
X002841Y011165D01*
X002841Y011665D01*
X003091Y011915D01*
X004591Y011915D01*
X004591Y012915D02*
X003091Y012915D01*
X002841Y012665D01*
X002841Y012165D01*
X003091Y011915D01*
X003091Y012915D02*
X002841Y013165D01*
X002841Y013665D01*
X003091Y013915D01*
X004591Y013915D01*
X004591Y014915D02*
X003091Y014915D01*
X002841Y014665D01*
X002841Y014165D01*
X003091Y013915D01*
X003091Y014915D02*
X002841Y015165D01*
X002841Y015665D01*
X003091Y015915D01*
X004591Y015915D01*
X004591Y016915D02*
X003091Y016915D01*
X002841Y016665D01*
X002841Y016165D01*
X003091Y015915D01*
X003091Y016915D02*
X002841Y017165D01*
X002841Y017665D01*
X003091Y017915D01*
X004591Y017915D01*
X004591Y018915D02*
X003091Y018915D01*
X002841Y018665D01*
X002841Y018165D01*
X003091Y017915D01*
X003091Y018915D02*
X002841Y019165D01*
X002841Y019665D01*
X003091Y019915D01*
X004591Y019915D01*
X004591Y020915D02*
X003091Y020915D01*
X002841Y020665D01*
X002841Y020165D01*
X003091Y019915D01*
X003091Y020915D02*
X002841Y021165D01*
X002841Y021665D01*
X003091Y021915D01*
X004591Y021915D01*
X004591Y022915D02*
X004841Y023165D01*
X004841Y023665D01*
X004591Y023915D01*
X004591Y024915D02*
X004841Y025165D01*
X004841Y025665D01*
X004591Y025915D01*
X004591Y026915D02*
X004841Y027165D01*
X004841Y027665D01*
X004591Y027915D01*
X004591Y028915D02*
X004841Y029165D01*
X004841Y029665D01*
X004591Y029915D01*
X004591Y030915D02*
X004841Y031165D01*
X004841Y031665D01*
X004591Y031915D01*
X004591Y032915D02*
X004841Y033165D01*
X004841Y033665D01*
X004591Y033915D01*
X004591Y035915D02*
X004841Y036165D01*
X004841Y036665D01*
X004591Y036915D01*
X003091Y036915D01*
X002841Y036665D01*
X002841Y036165D01*
X003091Y035915D01*
X003091Y036915D02*
X002841Y037165D01*
X002841Y037665D01*
X003091Y037915D01*
X004591Y037915D01*
X004841Y037665D01*
X004841Y037165D01*
X004591Y036915D01*
X004591Y037915D02*
X004841Y038165D01*
X004841Y038665D01*
X004591Y038915D01*
X003091Y038915D01*
X002841Y038665D01*
X002841Y038165D01*
X003091Y037915D01*
X003091Y038915D02*
X002841Y039165D01*
X002841Y039665D01*
X003091Y039915D01*
X004591Y039915D01*
X004841Y039665D01*
X004841Y039165D01*
X004591Y038915D01*
X004591Y039915D02*
X004841Y040165D01*
X004841Y040665D01*
X004591Y040915D01*
X003091Y040915D01*
X002841Y040665D01*
X002841Y040165D01*
X003091Y039915D01*
X003091Y022915D02*
X002841Y022665D01*
X002841Y022165D01*
X003091Y021915D01*
X009351Y013029D02*
X009101Y012779D01*
X009101Y011279D01*
X009351Y011029D01*
X009851Y011029D01*
X010101Y011279D01*
X010101Y012779D01*
X010351Y013029D01*
X010851Y013029D01*
X011101Y012779D01*
X011101Y011279D01*
X011351Y011029D01*
X011851Y011029D01*
X012101Y011279D01*
X012101Y012779D01*
X012351Y013029D01*
X012851Y013029D01*
X013101Y012779D01*
X013101Y011279D01*
X013351Y011029D01*
X013851Y011029D01*
X014101Y011279D01*
X014101Y012779D01*
X014351Y013029D01*
X014851Y013029D01*
X015101Y012779D01*
X015351Y013029D01*
X015851Y013029D01*
X016101Y012779D01*
X016101Y011279D01*
X015851Y011029D01*
X015351Y011029D01*
X015101Y011279D01*
X015101Y012779D01*
X015101Y011279D02*
X014851Y011029D01*
X014351Y011029D01*
X014101Y011279D01*
X013851Y010561D02*
X014101Y010311D01*
X014101Y009811D01*
X013851Y009561D01*
X013351Y009561D01*
X013101Y009811D01*
X012851Y009561D01*
X012351Y009561D01*
X012101Y009811D01*
X011851Y009561D01*
X011351Y009561D01*
X011101Y009811D01*
X010851Y009561D01*
X010351Y009561D01*
X010101Y009811D01*
X009851Y009561D01*
X009351Y009561D01*
X009101Y009811D01*
X009101Y010311D01*
X009351Y010561D01*
X009851Y010561D01*
X010101Y010311D01*
X010351Y010561D01*
X010851Y010561D01*
X011101Y010311D01*
X011101Y009811D01*
X011101Y010311D02*
X011351Y010561D01*
X011851Y010561D01*
X012101Y010311D01*
X012351Y010561D01*
X012851Y010561D01*
X013101Y010311D01*
X013351Y010561D01*
X013851Y010561D01*
X014101Y010311D02*
X014351Y010561D01*
X014851Y010561D01*
X015101Y010311D01*
X015351Y010561D01*
X015851Y010561D01*
X016101Y010311D01*
X016101Y009811D01*
X015851Y009561D01*
X015351Y009561D01*
X015101Y009811D01*
X014851Y009561D01*
X014351Y009561D01*
X014101Y009811D01*
X013101Y009811D02*
X013101Y010311D01*
X012851Y011029D02*
X012351Y011029D01*
X012101Y011279D01*
X012851Y011029D02*
X013101Y011279D01*
X013101Y012779D02*
X013351Y013029D01*
X013851Y013029D01*
X014101Y012779D01*
X015101Y010311D02*
X015101Y009811D01*
X016983Y009614D02*
X016983Y010114D01*
X017233Y010364D01*
X017733Y010364D01*
X017983Y010114D01*
X018233Y010364D01*
X018733Y010364D01*
X018983Y010114D01*
X019233Y010364D01*
X019733Y010364D01*
X019983Y010114D01*
X020233Y010364D01*
X020733Y010364D01*
X020983Y010114D01*
X021233Y010364D01*
X021733Y010364D01*
X021983Y010114D01*
X022233Y010364D01*
X022733Y010364D01*
X022983Y010114D01*
X022983Y009614D01*
X022733Y009364D01*
X022233Y009364D01*
X021983Y009614D01*
X021733Y009364D01*
X021233Y009364D01*
X020983Y009614D01*
X020983Y010114D01*
X020983Y009614D02*
X020733Y009364D01*
X020233Y009364D01*
X019983Y009614D01*
X019733Y009364D01*
X019233Y009364D01*
X018983Y009614D01*
X018733Y009364D01*
X018233Y009364D01*
X017983Y009614D01*
X017733Y009364D01*
X017233Y009364D01*
X016983Y009614D01*
X017983Y009614D02*
X017983Y010114D01*
X018983Y010114D02*
X018983Y009614D01*
X019983Y009614D02*
X019983Y010114D01*
X020414Y010915D02*
X020164Y011165D01*
X020164Y011665D01*
X020414Y011915D01*
X021914Y011915D01*
X022164Y011665D01*
X022164Y011165D01*
X021914Y010915D01*
X020414Y010915D01*
X020414Y011915D02*
X020164Y012165D01*
X020164Y012665D01*
X020414Y012915D01*
X021914Y012915D01*
X022164Y012665D01*
X022164Y012165D01*
X021914Y011915D01*
X021914Y012915D02*
X022164Y013165D01*
X022164Y013665D01*
X021914Y013915D01*
X020414Y013915D01*
X020164Y013665D01*
X020164Y013165D01*
X020414Y012915D01*
X020414Y013915D02*
X020164Y014165D01*
X020164Y014665D01*
X020414Y014915D01*
X021914Y014915D01*
X022164Y014665D01*
X022164Y014165D01*
X021914Y013915D01*
X021914Y014915D02*
X022164Y015165D01*
X022164Y015665D01*
X021914Y015915D01*
X020414Y015915D01*
X020164Y015665D01*
X020164Y015165D01*
X020414Y014915D01*
X020414Y015915D02*
X020164Y016165D01*
X020164Y016665D01*
X020414Y016915D01*
X021914Y016915D01*
X022164Y016665D01*
X022164Y016165D01*
X021914Y015915D01*
X021914Y016915D02*
X022164Y017165D01*
X022164Y017665D01*
X021914Y017915D01*
X020414Y017915D01*
X020164Y017665D01*
X020164Y017165D01*
X020414Y016915D01*
X020414Y017915D02*
X020164Y018165D01*
X020164Y018665D01*
X020414Y018915D01*
X021914Y018915D01*
X022164Y018665D01*
X022164Y018165D01*
X021914Y017915D01*
X021914Y018915D02*
X022164Y019165D01*
X022164Y019665D01*
X021914Y019915D01*
X020414Y019915D01*
X020164Y019665D01*
X020164Y019165D01*
X020414Y018915D01*
X020414Y019915D02*
X020164Y020165D01*
X020164Y020665D01*
X020414Y020915D01*
X021914Y020915D01*
X022164Y020665D01*
X022164Y020165D01*
X021914Y019915D01*
X021914Y020915D02*
X022164Y021165D01*
X022164Y021665D01*
X021914Y021915D01*
X020414Y021915D01*
X020164Y021665D01*
X020164Y021165D01*
X020414Y020915D01*
X020414Y021915D02*
X020164Y022165D01*
X020164Y022665D01*
X020414Y022915D01*
X021914Y022915D01*
X022164Y022665D01*
X022164Y022165D01*
X021914Y021915D01*
X021914Y022915D02*
X022164Y023165D01*
X022164Y023665D01*
X021914Y023915D01*
X020414Y023915D01*
X020164Y024165D01*
X020164Y024665D01*
X020414Y024915D01*
X021914Y024915D01*
X022164Y024665D01*
X022164Y024165D01*
X021914Y023915D01*
X021914Y024915D02*
X022164Y025165D01*
X022164Y025665D01*
X021914Y025915D01*
X020414Y025915D01*
X020164Y026165D01*
X020164Y026665D01*
X020414Y026915D01*
X021914Y026915D01*
X022164Y026665D01*
X022164Y026165D01*
X021914Y025915D01*
X021914Y026915D02*
X022164Y027165D01*
X022164Y027665D01*
X021914Y027915D01*
X020414Y027915D01*
X020164Y028165D01*
X020164Y028665D01*
X020414Y028915D01*
X021914Y028915D01*
X022164Y028665D01*
X022164Y028165D01*
X021914Y027915D01*
X021914Y028915D02*
X022164Y029165D01*
X022164Y029665D01*
X021914Y029915D01*
X020414Y029915D01*
X020164Y030165D01*
X020164Y030665D01*
X020414Y030915D01*
X021914Y030915D01*
X022164Y030665D01*
X022164Y030165D01*
X021914Y029915D01*
X021914Y030915D02*
X022164Y031165D01*
X022164Y031665D01*
X021914Y031915D01*
X020414Y031915D01*
X020164Y032165D01*
X020164Y032665D01*
X020414Y032915D01*
X021914Y032915D01*
X022164Y032665D01*
X022164Y032165D01*
X021914Y031915D01*
X021914Y032915D02*
X022164Y033165D01*
X022164Y033665D01*
X021914Y033915D01*
X020414Y033915D01*
X020164Y034165D01*
X020164Y034665D01*
X020414Y034915D01*
X021914Y034915D01*
X022164Y034665D01*
X022164Y034165D01*
X021914Y033915D01*
X021914Y034915D02*
X022164Y035165D01*
X022164Y035665D01*
X021914Y035915D01*
X020414Y035915D01*
X020164Y035665D01*
X020164Y035165D01*
X020414Y034915D01*
X020414Y033915D02*
X020164Y033665D01*
X020164Y033165D01*
X020414Y032915D01*
X020414Y031915D02*
X020164Y031665D01*
X020164Y031165D01*
X020414Y030915D01*
X020414Y029915D02*
X020164Y029665D01*
X020164Y029165D01*
X020414Y028915D01*
X020414Y027915D02*
X020164Y027665D01*
X020164Y027165D01*
X020414Y026915D01*
X020414Y025915D02*
X020164Y025665D01*
X020164Y025165D01*
X020414Y024915D01*
X020414Y023915D02*
X020164Y023665D01*
X020164Y023165D01*
X020414Y022915D01*
X021983Y010114D02*
X021983Y009614D01*
X019151Y006935D02*
X019401Y006685D01*
X019401Y006185D01*
X019151Y005935D01*
X019401Y005685D01*
X019401Y005185D01*
X019151Y004935D01*
X019401Y004685D01*
X019401Y004185D01*
X019151Y003935D01*
X018651Y003935D01*
X018401Y004185D01*
X018401Y004685D01*
X018651Y004935D01*
X018401Y005185D01*
X018401Y005685D01*
X018651Y005935D01*
X018401Y006185D01*
X018401Y006685D01*
X018651Y006935D01*
X019151Y006935D01*
X019151Y005935D02*
X018651Y005935D01*
X018023Y005693D02*
X018023Y005193D01*
X017773Y004943D01*
X017273Y004943D01*
X017023Y005193D01*
X017023Y005693D01*
X017273Y005943D01*
X017023Y006193D01*
X017023Y006693D01*
X017273Y006943D01*
X017773Y006943D01*
X018023Y006693D01*
X018023Y006193D01*
X017773Y005943D01*
X018023Y005693D01*
X017773Y005943D02*
X017273Y005943D01*
X017273Y004943D02*
X017023Y004693D01*
X017023Y004193D01*
X017273Y003943D01*
X017023Y003693D01*
X017023Y003193D01*
X017273Y002943D01*
X017773Y002943D01*
X018023Y003193D01*
X018023Y003693D01*
X017773Y003943D01*
X017273Y003943D01*
X017773Y003943D02*
X018023Y004193D01*
X018023Y004693D01*
X017773Y004943D01*
X018651Y004935D02*
X019151Y004935D01*
X012101Y009811D02*
X012101Y010311D01*
X011101Y011279D02*
X010851Y011029D01*
X010351Y011029D01*
X010101Y011279D01*
X010101Y010311D02*
X010101Y009811D01*
X010101Y012779D02*
X009851Y013029D01*
X009351Y013029D01*
X011101Y012779D02*
X011351Y013029D01*
X011851Y013029D01*
X012101Y012779D01*
X020414Y035915D02*
X020164Y036165D01*
X020164Y036665D01*
X020414Y036915D01*
X021914Y036915D01*
X022164Y036665D01*
X022164Y036165D01*
X021914Y035915D01*
X021914Y036915D02*
X022164Y037165D01*
X022164Y037665D01*
X021914Y037915D01*
X020414Y037915D01*
X020164Y037665D01*
X020164Y037165D01*
X020414Y036915D01*
X020414Y037915D02*
X020164Y038165D01*
X020164Y038665D01*
X020414Y038915D01*
X021914Y038915D01*
X022164Y038665D01*
X022164Y038165D01*
X021914Y037915D01*
X021914Y038915D02*
X022164Y039165D01*
X022164Y039665D01*
X021914Y039915D01*
X020414Y039915D01*
X020164Y039665D01*
X020164Y039165D01*
X020414Y038915D01*
X020414Y039915D02*
X020164Y040165D01*
X020164Y040665D01*
X020414Y040915D01*
X021914Y040915D01*
X022164Y040665D01*
X022164Y040165D01*
X021914Y039915D01*
D17*
X022439Y039859D02*
X022439Y039709D01*
X022439Y039784D02*
X022814Y039784D01*
X022889Y039709D01*
X022889Y039634D01*
X022814Y039559D01*
X022739Y040019D02*
X022739Y040244D01*
X022664Y040319D01*
X022514Y040319D01*
X022439Y040244D01*
X022439Y040019D01*
X022889Y040019D01*
X022664Y040480D02*
X022439Y040705D01*
X022889Y040705D01*
X022664Y040780D02*
X022664Y040480D01*
X013239Y035787D02*
X012939Y035787D01*
X013164Y036012D01*
X013164Y035562D01*
X012779Y035562D02*
X012478Y035562D01*
X012628Y035562D02*
X012628Y036012D01*
X012478Y035862D01*
X012318Y036012D02*
X012168Y036012D01*
X012243Y036012D02*
X012243Y035637D01*
X012168Y035562D01*
X012093Y035562D01*
X012018Y035637D01*
X011858Y035637D02*
X011783Y035562D01*
X011633Y035562D01*
X011558Y035637D01*
X011633Y035787D02*
X011783Y035787D01*
X011858Y035712D01*
X011858Y035637D01*
X011633Y035787D02*
X011558Y035862D01*
X011558Y035937D01*
X011633Y036012D01*
X011783Y036012D01*
X011858Y035937D01*
X010522Y035737D02*
X010222Y035737D01*
X010222Y035512D01*
X010372Y035587D01*
X010447Y035587D01*
X010522Y035512D01*
X010522Y035361D01*
X010447Y035286D01*
X010297Y035286D01*
X010222Y035361D01*
X010062Y035286D02*
X009762Y035286D01*
X009912Y035286D02*
X009912Y035737D01*
X009762Y035587D01*
X009602Y035737D02*
X009452Y035737D01*
X009527Y035737D02*
X009527Y035361D01*
X009452Y035286D01*
X009376Y035286D01*
X009301Y035361D01*
X009141Y035361D02*
X009066Y035286D01*
X008916Y035286D01*
X008841Y035361D01*
X008916Y035512D02*
X009066Y035512D01*
X009141Y035437D01*
X009141Y035361D01*
X008916Y035512D02*
X008841Y035587D01*
X008841Y035662D01*
X008916Y035737D01*
X009066Y035737D01*
X009141Y035662D01*
X007594Y035497D02*
X007293Y035497D01*
X007444Y035497D02*
X007444Y035947D01*
X007293Y035797D01*
X007133Y035872D02*
X007133Y035572D01*
X007058Y035497D01*
X006908Y035497D01*
X006833Y035572D01*
X006833Y035872D01*
X006908Y035947D01*
X007058Y035947D01*
X007133Y035872D01*
X006983Y035647D02*
X007133Y035497D01*
X005491Y039559D02*
X005566Y039634D01*
X005566Y039709D01*
X005491Y039784D01*
X005116Y039784D01*
X005116Y039709D02*
X005116Y039859D01*
X005116Y040019D02*
X005116Y040244D01*
X005191Y040319D01*
X005341Y040319D01*
X005416Y040244D01*
X005416Y040019D01*
X005566Y040019D02*
X005116Y040019D01*
X005191Y040480D02*
X005116Y040555D01*
X005116Y040705D01*
X005191Y040780D01*
X005266Y040780D01*
X005341Y040705D01*
X005416Y040780D01*
X005491Y040780D01*
X005566Y040705D01*
X005566Y040555D01*
X005491Y040480D01*
X005341Y040630D02*
X005341Y040705D01*
X010825Y030940D02*
X010719Y030834D01*
X010719Y030728D01*
X010772Y030675D01*
X010878Y030675D01*
X010984Y030781D01*
X011091Y030781D01*
X011144Y030728D01*
X011144Y030622D01*
X011037Y030515D01*
X010931Y030515D01*
X010931Y030940D02*
X010825Y030940D01*
X011098Y031212D02*
X011204Y031319D01*
X011151Y031266D02*
X011416Y031000D01*
X011416Y030894D01*
X011363Y030841D01*
X011257Y030841D01*
X011476Y031273D02*
X011529Y031432D01*
X011582Y031485D01*
X011689Y031485D01*
X011795Y031379D01*
X011795Y031273D01*
X011689Y031166D01*
X011582Y031166D01*
X011476Y031273D02*
X011317Y031432D01*
X011529Y031644D01*
X010347Y013755D02*
X010047Y013755D01*
X010047Y013529D01*
X010197Y013604D01*
X010272Y013604D01*
X010347Y013529D01*
X010347Y013379D01*
X010272Y013304D01*
X010122Y013304D01*
X010047Y013379D01*
X009887Y013529D02*
X009812Y013454D01*
X009587Y013454D01*
X009587Y013304D02*
X009587Y013755D01*
X009812Y013755D01*
X009887Y013679D01*
X009887Y013529D01*
X009427Y013755D02*
X009276Y013755D01*
X009352Y013755D02*
X009352Y013379D01*
X009276Y013304D01*
X009201Y013304D01*
X009126Y013379D01*
X009246Y011256D02*
X009397Y011256D01*
X009322Y011256D02*
X009322Y010881D01*
X009246Y010806D01*
X009171Y010806D01*
X009096Y010881D01*
X009557Y010956D02*
X009782Y010956D01*
X009857Y011031D01*
X009857Y011181D01*
X009782Y011256D01*
X009557Y011256D01*
X009557Y010806D01*
X010017Y010881D02*
X010092Y010806D01*
X010242Y010806D01*
X010317Y010881D01*
X010317Y010956D01*
X010242Y011031D01*
X010017Y011031D01*
X010017Y010881D01*
X010017Y011031D02*
X010167Y011181D01*
X010317Y011256D01*
X017705Y005076D02*
X017705Y004925D01*
X017780Y004850D01*
X017780Y004690D02*
X017930Y004690D01*
X018005Y004615D01*
X018005Y004390D01*
X018156Y004390D02*
X017705Y004390D01*
X017705Y004615D01*
X017780Y004690D01*
X017705Y005076D02*
X017780Y005151D01*
X017855Y005151D01*
X018156Y004850D01*
X018156Y005151D01*
X018267Y005766D02*
X018267Y005917D01*
X018267Y005842D02*
X018643Y005842D01*
X018718Y005766D01*
X018718Y005691D01*
X018643Y005616D01*
X018718Y006077D02*
X018267Y006077D01*
X018267Y006302D01*
X018342Y006377D01*
X018492Y006377D01*
X018567Y006302D01*
X018567Y006077D01*
X018417Y006537D02*
X018267Y006687D01*
X018718Y006687D01*
X018718Y006537D02*
X018718Y006837D01*
X017705Y004230D02*
X017705Y004080D01*
X017705Y004155D02*
X018080Y004155D01*
X018156Y004080D01*
X018156Y004005D01*
X018080Y003930D01*
X021732Y008669D02*
X021807Y008669D01*
X021882Y008744D01*
X021882Y009119D01*
X021807Y009119D02*
X021957Y009119D01*
X022117Y009119D02*
X022117Y008669D01*
X022117Y008819D02*
X022343Y008819D01*
X022418Y008894D01*
X022418Y009044D01*
X022343Y009119D01*
X022117Y009119D01*
X022578Y009119D02*
X022878Y009119D01*
X022878Y009044D01*
X022578Y008744D01*
X022578Y008669D01*
X021732Y008669D02*
X021657Y008744D01*
D18*
X022483Y005631D02*
X023133Y005631D01*
X023133Y005435D01*
X022483Y005435D01*
X022633Y004844D02*
X019983Y004844D01*
X019983Y005435D01*
X020633Y005435D01*
X020633Y005631D02*
X019983Y005631D01*
X019983Y005435D01*
X019983Y004844D02*
X019786Y004844D01*
X019786Y000120D01*
X020298Y000120D01*
X020298Y000513D01*
X020298Y000120D02*
X022818Y000120D01*
X022818Y000513D01*
X022818Y000120D02*
X023330Y000120D01*
X023330Y003344D01*
X022818Y003269D02*
X022818Y003663D01*
X022050Y003663D01*
X021755Y003663D01*
X021361Y003663D02*
X021066Y003663D01*
X020298Y003663D01*
X020298Y003269D01*
X020298Y002876D02*
X020298Y002482D01*
X020298Y002088D02*
X020298Y001694D01*
X019983Y001498D02*
X019983Y004844D01*
X019983Y001498D02*
X019786Y001498D01*
X019983Y001498D02*
X023330Y001498D01*
X022818Y001694D02*
X022818Y002088D01*
X022818Y002482D02*
X022818Y002876D01*
X022818Y001301D02*
X022818Y000907D01*
X022050Y000907D02*
X022048Y000864D01*
X022043Y000822D01*
X022033Y000780D01*
X022020Y000739D01*
X022004Y000699D01*
X021984Y000661D01*
X021961Y000625D01*
X021935Y000591D01*
X021906Y000559D01*
X021874Y000530D01*
X021840Y000504D01*
X021804Y000481D01*
X021766Y000461D01*
X021726Y000445D01*
X021685Y000432D01*
X021643Y000422D01*
X021601Y000417D01*
X021558Y000415D01*
X021515Y000417D01*
X021473Y000422D01*
X021431Y000432D01*
X021390Y000445D01*
X021350Y000461D01*
X021312Y000481D01*
X021276Y000504D01*
X021242Y000530D01*
X021210Y000559D01*
X021181Y000591D01*
X021155Y000625D01*
X021132Y000661D01*
X021112Y000699D01*
X021096Y000739D01*
X021083Y000780D01*
X021073Y000822D01*
X021068Y000864D01*
X021066Y000907D01*
X020298Y000907D02*
X020298Y001301D01*
D19*
X010408Y033572D02*
X007708Y033572D01*
X007708Y033872D02*
X010408Y033872D01*
X010446Y033873D01*
X010483Y033878D01*
X010520Y033885D01*
X010556Y033894D01*
X010592Y033907D01*
X010626Y033922D01*
X011069Y034822D02*
X011037Y034867D01*
X011001Y034909D01*
X010962Y034949D01*
X010920Y034986D01*
X010877Y035020D01*
X010830Y035051D01*
X010782Y035079D01*
X010732Y035103D01*
X010681Y035124D01*
X010628Y035141D01*
X010574Y035155D01*
X010519Y035164D01*
X010464Y035170D01*
X010408Y035172D01*
X007708Y035172D01*
X007708Y034872D02*
X010408Y034872D01*
X011069Y033922D02*
X011037Y033877D01*
X011001Y033835D01*
X010962Y033795D01*
X010921Y033758D01*
X010877Y033724D01*
X010830Y033693D01*
X010782Y033665D01*
X010732Y033641D01*
X010681Y033620D01*
X010628Y033603D01*
X010574Y033589D01*
X010519Y033580D01*
X010464Y033574D01*
X010408Y033572D01*
X010626Y034822D02*
X010592Y034837D01*
X010556Y034850D01*
X010520Y034859D01*
X010483Y034866D01*
X010446Y034871D01*
X010408Y034872D01*
X009458Y034372D02*
X009308Y034372D01*
X008808Y034372D02*
X008658Y034372D01*
X007708Y035172D02*
X007652Y035170D01*
X007597Y035164D01*
X007542Y035155D01*
X007488Y035141D01*
X007435Y035124D01*
X007384Y035103D01*
X007334Y035079D01*
X007286Y035051D01*
X007239Y035020D01*
X007195Y034986D01*
X007154Y034949D01*
X007115Y034909D01*
X007079Y034867D01*
X007047Y034822D01*
X007047Y033922D02*
X007079Y033877D01*
X007115Y033835D01*
X007154Y033795D01*
X007196Y033758D01*
X007239Y033724D01*
X007286Y033693D01*
X007334Y033665D01*
X007384Y033641D01*
X007435Y033620D01*
X007488Y033603D01*
X007542Y033589D01*
X007597Y033580D01*
X007652Y033574D01*
X007708Y033572D01*
X007708Y033872D02*
X007670Y033873D01*
X007633Y033878D01*
X007596Y033885D01*
X007560Y033894D01*
X007524Y033907D01*
X007490Y033922D01*
X007490Y034822D02*
X007524Y034837D01*
X007560Y034850D01*
X007596Y034859D01*
X007633Y034866D01*
X007670Y034871D01*
X007708Y034872D01*
D20*
X007424Y008840D03*
X007739Y008624D03*
X008212Y008624D03*
X006952Y008840D03*
D21*
X007188Y008840D03*
X007975Y008624D03*
X018231Y038761D03*
X018271Y039411D03*
D22*
X009944Y016852D02*
X007582Y016852D01*
X007582Y014490D01*
X009944Y014490D01*
X009944Y016852D01*
X008074Y015671D02*
X008076Y015723D01*
X008082Y015775D01*
X008092Y015826D01*
X008105Y015876D01*
X008123Y015926D01*
X008144Y015973D01*
X008168Y016019D01*
X008197Y016063D01*
X008228Y016105D01*
X008262Y016144D01*
X008299Y016181D01*
X008339Y016214D01*
X008382Y016245D01*
X008426Y016272D01*
X008472Y016296D01*
X008521Y016316D01*
X008570Y016332D01*
X008621Y016345D01*
X008672Y016354D01*
X008724Y016359D01*
X008776Y016360D01*
X008828Y016357D01*
X008880Y016350D01*
X008931Y016339D01*
X008981Y016325D01*
X009030Y016306D01*
X009077Y016284D01*
X009122Y016259D01*
X009166Y016230D01*
X009207Y016198D01*
X009246Y016163D01*
X009281Y016125D01*
X009314Y016084D01*
X009344Y016042D01*
X009370Y015997D01*
X009393Y015950D01*
X009412Y015901D01*
X009428Y015851D01*
X009440Y015801D01*
X009448Y015749D01*
X009452Y015697D01*
X009452Y015645D01*
X009448Y015593D01*
X009440Y015541D01*
X009428Y015491D01*
X009412Y015441D01*
X009393Y015392D01*
X009370Y015345D01*
X009344Y015300D01*
X009314Y015258D01*
X009281Y015217D01*
X009246Y015179D01*
X009207Y015144D01*
X009166Y015112D01*
X009122Y015083D01*
X009077Y015058D01*
X009030Y015036D01*
X008981Y015017D01*
X008931Y015003D01*
X008880Y014992D01*
X008828Y014985D01*
X008776Y014982D01*
X008724Y014983D01*
X008672Y014988D01*
X008621Y014997D01*
X008570Y015010D01*
X008521Y015026D01*
X008472Y015046D01*
X008426Y015070D01*
X008382Y015097D01*
X008339Y015128D01*
X008299Y015161D01*
X008262Y015198D01*
X008228Y015237D01*
X008197Y015279D01*
X008168Y015323D01*
X008144Y015369D01*
X008123Y015416D01*
X008105Y015466D01*
X008092Y015516D01*
X008082Y015567D01*
X008076Y015619D01*
X008074Y015671D01*
D23*
X013310Y038259D03*
D24*
X018231Y038525D03*
X018231Y038998D03*
X018271Y039175D03*
X018271Y039647D03*
M02*
