G75*
%MOIN*%
%OFA0B0*%
%FSLAX24Y24*%
%IPPOS*%
%LPD*%
%AMOC8*
5,1,8,0,0,1.08239X$1,22.5*
%
%ADD10C,0.0000*%
D10*
X000692Y001990D02*
X000692Y041360D01*
X024314Y041360D01*
X024314Y001990D01*
X000692Y001990D01*
X010968Y004155D02*
X010970Y004181D01*
X010976Y004207D01*
X010986Y004232D01*
X010999Y004255D01*
X011015Y004275D01*
X011035Y004293D01*
X011057Y004308D01*
X011080Y004320D01*
X011106Y004328D01*
X011132Y004332D01*
X011158Y004332D01*
X011184Y004328D01*
X011210Y004320D01*
X011234Y004308D01*
X011255Y004293D01*
X011275Y004275D01*
X011291Y004255D01*
X011304Y004232D01*
X011314Y004207D01*
X011320Y004181D01*
X011322Y004155D01*
X011320Y004129D01*
X011314Y004103D01*
X011304Y004078D01*
X011291Y004055D01*
X011275Y004035D01*
X011255Y004017D01*
X011233Y004002D01*
X011210Y003990D01*
X011184Y003982D01*
X011158Y003978D01*
X011132Y003978D01*
X011106Y003982D01*
X011080Y003990D01*
X011056Y004002D01*
X011035Y004017D01*
X011015Y004035D01*
X010999Y004055D01*
X010986Y004078D01*
X010976Y004103D01*
X010970Y004129D01*
X010968Y004155D01*
X012700Y004155D02*
X012702Y004181D01*
X012708Y004207D01*
X012718Y004232D01*
X012731Y004255D01*
X012747Y004275D01*
X012767Y004293D01*
X012789Y004308D01*
X012812Y004320D01*
X012838Y004328D01*
X012864Y004332D01*
X012890Y004332D01*
X012916Y004328D01*
X012942Y004320D01*
X012966Y004308D01*
X012987Y004293D01*
X013007Y004275D01*
X013023Y004255D01*
X013036Y004232D01*
X013046Y004207D01*
X013052Y004181D01*
X013054Y004155D01*
X013052Y004129D01*
X013046Y004103D01*
X013036Y004078D01*
X013023Y004055D01*
X013007Y004035D01*
X012987Y004017D01*
X012965Y004002D01*
X012942Y003990D01*
X012916Y003982D01*
X012890Y003978D01*
X012864Y003978D01*
X012838Y003982D01*
X012812Y003990D01*
X012788Y004002D01*
X012767Y004017D01*
X012747Y004035D01*
X012731Y004055D01*
X012718Y004078D01*
X012708Y004103D01*
X012702Y004129D01*
X012700Y004155D01*
X020869Y005336D02*
X022247Y005336D01*
X022247Y005730D01*
X020869Y005730D01*
X020869Y005336D01*
X020967Y003328D02*
X022149Y003328D01*
X022149Y003013D01*
X020967Y003013D01*
X020967Y003328D01*
X023290Y003761D02*
X023605Y003761D01*
X023605Y004943D01*
X023290Y004943D01*
X023290Y003761D01*
X009550Y039254D02*
X009552Y039280D01*
X009558Y039306D01*
X009568Y039331D01*
X009581Y039354D01*
X009597Y039374D01*
X009617Y039392D01*
X009639Y039407D01*
X009662Y039419D01*
X009688Y039427D01*
X009714Y039431D01*
X009740Y039431D01*
X009766Y039427D01*
X009792Y039419D01*
X009816Y039407D01*
X009837Y039392D01*
X009857Y039374D01*
X009873Y039354D01*
X009886Y039331D01*
X009896Y039306D01*
X009902Y039280D01*
X009904Y039254D01*
X009902Y039228D01*
X009896Y039202D01*
X009886Y039177D01*
X009873Y039154D01*
X009857Y039134D01*
X009837Y039116D01*
X009815Y039101D01*
X009792Y039089D01*
X009766Y039081D01*
X009740Y039077D01*
X009714Y039077D01*
X009688Y039081D01*
X009662Y039089D01*
X009638Y039101D01*
X009617Y039116D01*
X009597Y039134D01*
X009581Y039154D01*
X009568Y039177D01*
X009558Y039202D01*
X009552Y039228D01*
X009550Y039254D01*
X007818Y039254D02*
X007820Y039280D01*
X007826Y039306D01*
X007836Y039331D01*
X007849Y039354D01*
X007865Y039374D01*
X007885Y039392D01*
X007907Y039407D01*
X007930Y039419D01*
X007956Y039427D01*
X007982Y039431D01*
X008008Y039431D01*
X008034Y039427D01*
X008060Y039419D01*
X008084Y039407D01*
X008105Y039392D01*
X008125Y039374D01*
X008141Y039354D01*
X008154Y039331D01*
X008164Y039306D01*
X008170Y039280D01*
X008172Y039254D01*
X008170Y039228D01*
X008164Y039202D01*
X008154Y039177D01*
X008141Y039154D01*
X008125Y039134D01*
X008105Y039116D01*
X008083Y039101D01*
X008060Y039089D01*
X008034Y039081D01*
X008008Y039077D01*
X007982Y039077D01*
X007956Y039081D01*
X007930Y039089D01*
X007906Y039101D01*
X007885Y039116D01*
X007865Y039134D01*
X007849Y039154D01*
X007836Y039177D01*
X007826Y039202D01*
X007820Y039228D01*
X007818Y039254D01*
M02*
