G75*
%MOIN*%
%OFA0B0*%
%FSLAX24Y24*%
%IPPOS*%
%LPD*%
%AMOC8*
5,1,8,0,0,1.08239X$1,22.5*
%
%ADD10C,0.0000*%
%ADD11R,0.0531X0.0138*%
%ADD12R,0.0591X0.0512*%
%ADD13R,0.2126X0.2441*%
%ADD14R,0.0394X0.0630*%
%ADD15R,0.0945X0.0945*%
%ADD16R,0.0551X0.1181*%
%ADD17C,0.0600*%
%ADD18R,0.0787X0.0984*%
%ADD19R,0.0787X0.1299*%
%ADD20R,0.0197X0.1220*%
%ADD21C,0.0354*%
%ADD22C,0.0860*%
%ADD23R,0.0591X0.0472*%
%ADD24R,0.0512X0.0591*%
%ADD25R,0.0630X0.0551*%
%ADD26R,0.0394X0.0394*%
%ADD27R,0.2100X0.0760*%
%ADD28R,0.0512X0.0748*%
%ADD29R,0.0460X0.0630*%
%ADD30R,0.0060X0.0720*%
%ADD31OC8,0.0600*%
%ADD32R,0.0472X0.0472*%
%ADD33R,0.0610X0.0512*%
%ADD34R,0.0157X0.0591*%
D10*
X000692Y001990D02*
X000692Y041360D01*
X024314Y041360D01*
X024314Y001990D01*
X000692Y001990D01*
X010968Y004155D02*
X010970Y004181D01*
X010976Y004207D01*
X010986Y004232D01*
X010999Y004255D01*
X011015Y004275D01*
X011035Y004293D01*
X011057Y004308D01*
X011080Y004320D01*
X011106Y004328D01*
X011132Y004332D01*
X011158Y004332D01*
X011184Y004328D01*
X011210Y004320D01*
X011234Y004308D01*
X011255Y004293D01*
X011275Y004275D01*
X011291Y004255D01*
X011304Y004232D01*
X011314Y004207D01*
X011320Y004181D01*
X011322Y004155D01*
X011320Y004129D01*
X011314Y004103D01*
X011304Y004078D01*
X011291Y004055D01*
X011275Y004035D01*
X011255Y004017D01*
X011233Y004002D01*
X011210Y003990D01*
X011184Y003982D01*
X011158Y003978D01*
X011132Y003978D01*
X011106Y003982D01*
X011080Y003990D01*
X011056Y004002D01*
X011035Y004017D01*
X011015Y004035D01*
X010999Y004055D01*
X010986Y004078D01*
X010976Y004103D01*
X010970Y004129D01*
X010968Y004155D01*
X012700Y004155D02*
X012702Y004181D01*
X012708Y004207D01*
X012718Y004232D01*
X012731Y004255D01*
X012747Y004275D01*
X012767Y004293D01*
X012789Y004308D01*
X012812Y004320D01*
X012838Y004328D01*
X012864Y004332D01*
X012890Y004332D01*
X012916Y004328D01*
X012942Y004320D01*
X012966Y004308D01*
X012987Y004293D01*
X013007Y004275D01*
X013023Y004255D01*
X013036Y004232D01*
X013046Y004207D01*
X013052Y004181D01*
X013054Y004155D01*
X013052Y004129D01*
X013046Y004103D01*
X013036Y004078D01*
X013023Y004055D01*
X013007Y004035D01*
X012987Y004017D01*
X012965Y004002D01*
X012942Y003990D01*
X012916Y003982D01*
X012890Y003978D01*
X012864Y003978D01*
X012838Y003982D01*
X012812Y003990D01*
X012788Y004002D01*
X012767Y004017D01*
X012747Y004035D01*
X012731Y004055D01*
X012718Y004078D01*
X012708Y004103D01*
X012702Y004129D01*
X012700Y004155D01*
X009550Y039254D02*
X009552Y039280D01*
X009558Y039306D01*
X009568Y039331D01*
X009581Y039354D01*
X009597Y039374D01*
X009617Y039392D01*
X009639Y039407D01*
X009662Y039419D01*
X009688Y039427D01*
X009714Y039431D01*
X009740Y039431D01*
X009766Y039427D01*
X009792Y039419D01*
X009816Y039407D01*
X009837Y039392D01*
X009857Y039374D01*
X009873Y039354D01*
X009886Y039331D01*
X009896Y039306D01*
X009902Y039280D01*
X009904Y039254D01*
X009902Y039228D01*
X009896Y039202D01*
X009886Y039177D01*
X009873Y039154D01*
X009857Y039134D01*
X009837Y039116D01*
X009815Y039101D01*
X009792Y039089D01*
X009766Y039081D01*
X009740Y039077D01*
X009714Y039077D01*
X009688Y039081D01*
X009662Y039089D01*
X009638Y039101D01*
X009617Y039116D01*
X009597Y039134D01*
X009581Y039154D01*
X009568Y039177D01*
X009558Y039202D01*
X009552Y039228D01*
X009550Y039254D01*
X007818Y039254D02*
X007820Y039280D01*
X007826Y039306D01*
X007836Y039331D01*
X007849Y039354D01*
X007865Y039374D01*
X007885Y039392D01*
X007907Y039407D01*
X007930Y039419D01*
X007956Y039427D01*
X007982Y039431D01*
X008008Y039431D01*
X008034Y039427D01*
X008060Y039419D01*
X008084Y039407D01*
X008105Y039392D01*
X008125Y039374D01*
X008141Y039354D01*
X008154Y039331D01*
X008164Y039306D01*
X008170Y039280D01*
X008172Y039254D01*
X008170Y039228D01*
X008164Y039202D01*
X008154Y039177D01*
X008141Y039154D01*
X008125Y039134D01*
X008105Y039116D01*
X008083Y039101D01*
X008060Y039089D01*
X008034Y039081D01*
X008008Y039077D01*
X007982Y039077D01*
X007956Y039081D01*
X007930Y039089D01*
X007906Y039101D01*
X007885Y039116D01*
X007865Y039134D01*
X007849Y039154D01*
X007836Y039177D01*
X007826Y039202D01*
X007820Y039228D01*
X007818Y039254D01*
D11*
G36*
X012176Y029568D02*
X011810Y029950D01*
X011910Y030046D01*
X012276Y029664D01*
X012176Y029568D01*
G37*
G36*
X012034Y029431D02*
X011668Y029813D01*
X011768Y029909D01*
X012134Y029527D01*
X012034Y029431D01*
G37*
G36*
X011892Y029295D02*
X011526Y029677D01*
X011626Y029773D01*
X011992Y029391D01*
X011892Y029295D01*
G37*
G36*
X011750Y029159D02*
X011384Y029541D01*
X011484Y029637D01*
X011850Y029255D01*
X011750Y029159D01*
G37*
G36*
X011607Y029023D02*
X011241Y029405D01*
X011341Y029501D01*
X011707Y029119D01*
X011607Y029023D01*
G37*
G36*
X011465Y028886D02*
X011099Y029268D01*
X011199Y029364D01*
X011565Y028982D01*
X011465Y028886D01*
G37*
G36*
X011323Y028750D02*
X010957Y029132D01*
X011057Y029228D01*
X011423Y028846D01*
X011323Y028750D01*
G37*
G36*
X011181Y028614D02*
X010815Y028996D01*
X010915Y029092D01*
X011281Y028710D01*
X011181Y028614D01*
G37*
G36*
X011039Y028478D02*
X010673Y028860D01*
X010773Y028956D01*
X011139Y028574D01*
X011039Y028478D01*
G37*
G36*
X010897Y028341D02*
X010531Y028723D01*
X010631Y028819D01*
X010997Y028437D01*
X010897Y028341D01*
G37*
G36*
X010755Y028205D02*
X010389Y028587D01*
X010489Y028683D01*
X010855Y028301D01*
X010755Y028205D01*
G37*
G36*
X010613Y028069D02*
X010247Y028451D01*
X010347Y028547D01*
X010713Y028165D01*
X010613Y028069D01*
G37*
G36*
X010471Y027933D02*
X010105Y028315D01*
X010205Y028411D01*
X010571Y028029D01*
X010471Y027933D01*
G37*
G36*
X010329Y027796D02*
X009963Y028178D01*
X010063Y028274D01*
X010429Y027892D01*
X010329Y027796D01*
G37*
G36*
X010187Y027660D02*
X009821Y028042D01*
X009921Y028138D01*
X010287Y027756D01*
X010187Y027660D01*
G37*
G36*
X010045Y027524D02*
X009679Y027906D01*
X009779Y028002D01*
X010145Y027620D01*
X010045Y027524D01*
G37*
G36*
X009903Y027388D02*
X009537Y027770D01*
X009637Y027866D01*
X010003Y027484D01*
X009903Y027388D01*
G37*
G36*
X009760Y027251D02*
X009394Y027633D01*
X009494Y027729D01*
X009860Y027347D01*
X009760Y027251D01*
G37*
G36*
X009618Y027115D02*
X009252Y027497D01*
X009352Y027593D01*
X009718Y027211D01*
X009618Y027115D01*
G37*
G36*
X009476Y026979D02*
X009110Y027361D01*
X009210Y027457D01*
X009576Y027075D01*
X009476Y026979D01*
G37*
G36*
X009334Y026843D02*
X008968Y027225D01*
X009068Y027321D01*
X009434Y026939D01*
X009334Y026843D01*
G37*
G36*
X009192Y026706D02*
X008826Y027088D01*
X008926Y027184D01*
X009292Y026802D01*
X009192Y026706D01*
G37*
G36*
X009050Y026570D02*
X008684Y026952D01*
X008784Y027048D01*
X009150Y026666D01*
X009050Y026570D01*
G37*
G36*
X008908Y026434D02*
X008542Y026816D01*
X008642Y026912D01*
X009008Y026530D01*
X008908Y026434D01*
G37*
G36*
X008766Y026298D02*
X008400Y026680D01*
X008500Y026776D01*
X008866Y026394D01*
X008766Y026298D01*
G37*
G36*
X008624Y026161D02*
X008258Y026543D01*
X008358Y026639D01*
X008724Y026257D01*
X008624Y026161D01*
G37*
G36*
X008482Y026025D02*
X008116Y026407D01*
X008216Y026503D01*
X008582Y026121D01*
X008482Y026025D01*
G37*
G36*
X008340Y025889D02*
X007974Y026271D01*
X008074Y026367D01*
X008440Y025985D01*
X008340Y025889D01*
G37*
G36*
X008198Y025753D02*
X007832Y026135D01*
X007932Y026231D01*
X008298Y025849D01*
X008198Y025753D01*
G37*
G36*
X008056Y025616D02*
X007690Y025998D01*
X007790Y026094D01*
X008156Y025712D01*
X008056Y025616D01*
G37*
G36*
X007913Y025480D02*
X007547Y025862D01*
X007647Y025958D01*
X008013Y025576D01*
X007913Y025480D01*
G37*
G36*
X007771Y025344D02*
X007405Y025726D01*
X007505Y025822D01*
X007871Y025440D01*
X007771Y025344D01*
G37*
G36*
X007629Y025208D02*
X007263Y025590D01*
X007363Y025686D01*
X007729Y025304D01*
X007629Y025208D01*
G37*
G36*
X007487Y025071D02*
X007121Y025453D01*
X007221Y025549D01*
X007587Y025167D01*
X007487Y025071D01*
G37*
G36*
X007345Y024935D02*
X006979Y025317D01*
X007079Y025413D01*
X007445Y025031D01*
X007345Y024935D01*
G37*
G36*
X007203Y024799D02*
X006837Y025181D01*
X006937Y025277D01*
X007303Y024895D01*
X007203Y024799D01*
G37*
G36*
X007287Y024127D02*
X006905Y023761D01*
X006809Y023861D01*
X007191Y024227D01*
X007287Y024127D01*
G37*
G36*
X007423Y023985D02*
X007041Y023619D01*
X006945Y023719D01*
X007327Y024085D01*
X007423Y023985D01*
G37*
G36*
X007560Y023843D02*
X007178Y023477D01*
X007082Y023577D01*
X007464Y023943D01*
X007560Y023843D01*
G37*
G36*
X007696Y023701D02*
X007314Y023335D01*
X007218Y023435D01*
X007600Y023801D01*
X007696Y023701D01*
G37*
G36*
X007832Y023559D02*
X007450Y023193D01*
X007354Y023293D01*
X007736Y023659D01*
X007832Y023559D01*
G37*
G36*
X007968Y023417D02*
X007586Y023051D01*
X007490Y023151D01*
X007872Y023517D01*
X007968Y023417D01*
G37*
G36*
X008105Y023275D02*
X007723Y022909D01*
X007627Y023009D01*
X008009Y023375D01*
X008105Y023275D01*
G37*
G36*
X008241Y023133D02*
X007859Y022767D01*
X007763Y022867D01*
X008145Y023233D01*
X008241Y023133D01*
G37*
G36*
X008377Y022991D02*
X007995Y022625D01*
X007899Y022725D01*
X008281Y023091D01*
X008377Y022991D01*
G37*
G36*
X008513Y022849D02*
X008131Y022483D01*
X008035Y022583D01*
X008417Y022949D01*
X008513Y022849D01*
G37*
G36*
X008650Y022706D02*
X008268Y022340D01*
X008172Y022440D01*
X008554Y022806D01*
X008650Y022706D01*
G37*
G36*
X008786Y022564D02*
X008404Y022198D01*
X008308Y022298D01*
X008690Y022664D01*
X008786Y022564D01*
G37*
G36*
X008922Y022422D02*
X008540Y022056D01*
X008444Y022156D01*
X008826Y022522D01*
X008922Y022422D01*
G37*
G36*
X009058Y022280D02*
X008676Y021914D01*
X008580Y022014D01*
X008962Y022380D01*
X009058Y022280D01*
G37*
G36*
X009195Y022138D02*
X008813Y021772D01*
X008717Y021872D01*
X009099Y022238D01*
X009195Y022138D01*
G37*
G36*
X009331Y021996D02*
X008949Y021630D01*
X008853Y021730D01*
X009235Y022096D01*
X009331Y021996D01*
G37*
G36*
X009467Y021854D02*
X009085Y021488D01*
X008989Y021588D01*
X009371Y021954D01*
X009467Y021854D01*
G37*
G36*
X009603Y021712D02*
X009221Y021346D01*
X009125Y021446D01*
X009507Y021812D01*
X009603Y021712D01*
G37*
G36*
X009740Y021570D02*
X009358Y021204D01*
X009262Y021304D01*
X009644Y021670D01*
X009740Y021570D01*
G37*
G36*
X009876Y021428D02*
X009494Y021062D01*
X009398Y021162D01*
X009780Y021528D01*
X009876Y021428D01*
G37*
G36*
X010012Y021286D02*
X009630Y020920D01*
X009534Y021020D01*
X009916Y021386D01*
X010012Y021286D01*
G37*
G36*
X010148Y021144D02*
X009766Y020778D01*
X009670Y020878D01*
X010052Y021244D01*
X010148Y021144D01*
G37*
G36*
X010285Y021002D02*
X009903Y020636D01*
X009807Y020736D01*
X010189Y021102D01*
X010285Y021002D01*
G37*
G36*
X010421Y020859D02*
X010039Y020493D01*
X009943Y020593D01*
X010325Y020959D01*
X010421Y020859D01*
G37*
G36*
X010557Y020717D02*
X010175Y020351D01*
X010079Y020451D01*
X010461Y020817D01*
X010557Y020717D01*
G37*
G36*
X010693Y020575D02*
X010311Y020209D01*
X010215Y020309D01*
X010597Y020675D01*
X010693Y020575D01*
G37*
G36*
X010830Y020433D02*
X010448Y020067D01*
X010352Y020167D01*
X010734Y020533D01*
X010830Y020433D01*
G37*
G36*
X010966Y020291D02*
X010584Y019925D01*
X010488Y020025D01*
X010870Y020391D01*
X010966Y020291D01*
G37*
G36*
X011102Y020149D02*
X010720Y019783D01*
X010624Y019883D01*
X011006Y020249D01*
X011102Y020149D01*
G37*
G36*
X011238Y020007D02*
X010856Y019641D01*
X010760Y019741D01*
X011142Y020107D01*
X011238Y020007D01*
G37*
G36*
X011375Y019865D02*
X010993Y019499D01*
X010897Y019599D01*
X011279Y019965D01*
X011375Y019865D01*
G37*
G36*
X011511Y019723D02*
X011129Y019357D01*
X011033Y019457D01*
X011415Y019823D01*
X011511Y019723D01*
G37*
G36*
X011647Y019581D02*
X011265Y019215D01*
X011169Y019315D01*
X011551Y019681D01*
X011647Y019581D01*
G37*
G36*
X011783Y019439D02*
X011401Y019073D01*
X011305Y019173D01*
X011687Y019539D01*
X011783Y019439D01*
G37*
G36*
X011920Y019297D02*
X011538Y018931D01*
X011442Y019031D01*
X011824Y019397D01*
X011920Y019297D01*
G37*
G36*
X012056Y019154D02*
X011674Y018788D01*
X011578Y018888D01*
X011960Y019254D01*
X012056Y019154D01*
G37*
G36*
X012728Y019239D02*
X013094Y018857D01*
X012994Y018761D01*
X012628Y019143D01*
X012728Y019239D01*
G37*
G36*
X012870Y019375D02*
X013236Y018993D01*
X013136Y018897D01*
X012770Y019279D01*
X012870Y019375D01*
G37*
G36*
X013012Y019511D02*
X013378Y019129D01*
X013278Y019033D01*
X012912Y019415D01*
X013012Y019511D01*
G37*
G36*
X013154Y019647D02*
X013520Y019265D01*
X013420Y019169D01*
X013054Y019551D01*
X013154Y019647D01*
G37*
G36*
X013296Y019784D02*
X013662Y019402D01*
X013562Y019306D01*
X013196Y019688D01*
X013296Y019784D01*
G37*
G36*
X013438Y019920D02*
X013804Y019538D01*
X013704Y019442D01*
X013338Y019824D01*
X013438Y019920D01*
G37*
G36*
X013580Y020056D02*
X013946Y019674D01*
X013846Y019578D01*
X013480Y019960D01*
X013580Y020056D01*
G37*
G36*
X013722Y020192D02*
X014088Y019810D01*
X013988Y019714D01*
X013622Y020096D01*
X013722Y020192D01*
G37*
G36*
X013864Y020329D02*
X014230Y019947D01*
X014130Y019851D01*
X013764Y020233D01*
X013864Y020329D01*
G37*
G36*
X014006Y020465D02*
X014372Y020083D01*
X014272Y019987D01*
X013906Y020369D01*
X014006Y020465D01*
G37*
G36*
X014148Y020601D02*
X014514Y020219D01*
X014414Y020123D01*
X014048Y020505D01*
X014148Y020601D01*
G37*
G36*
X014290Y020737D02*
X014656Y020355D01*
X014556Y020259D01*
X014190Y020641D01*
X014290Y020737D01*
G37*
G36*
X014433Y020874D02*
X014799Y020492D01*
X014699Y020396D01*
X014333Y020778D01*
X014433Y020874D01*
G37*
G36*
X014575Y021010D02*
X014941Y020628D01*
X014841Y020532D01*
X014475Y020914D01*
X014575Y021010D01*
G37*
G36*
X014717Y021146D02*
X015083Y020764D01*
X014983Y020668D01*
X014617Y021050D01*
X014717Y021146D01*
G37*
G36*
X014859Y021282D02*
X015225Y020900D01*
X015125Y020804D01*
X014759Y021186D01*
X014859Y021282D01*
G37*
G36*
X015001Y021419D02*
X015367Y021037D01*
X015267Y020941D01*
X014901Y021323D01*
X015001Y021419D01*
G37*
G36*
X015143Y021555D02*
X015509Y021173D01*
X015409Y021077D01*
X015043Y021459D01*
X015143Y021555D01*
G37*
G36*
X015285Y021691D02*
X015651Y021309D01*
X015551Y021213D01*
X015185Y021595D01*
X015285Y021691D01*
G37*
G36*
X015427Y021827D02*
X015793Y021445D01*
X015693Y021349D01*
X015327Y021731D01*
X015427Y021827D01*
G37*
G36*
X015569Y021964D02*
X015935Y021582D01*
X015835Y021486D01*
X015469Y021868D01*
X015569Y021964D01*
G37*
G36*
X015711Y022100D02*
X016077Y021718D01*
X015977Y021622D01*
X015611Y022004D01*
X015711Y022100D01*
G37*
G36*
X015853Y022236D02*
X016219Y021854D01*
X016119Y021758D01*
X015753Y022140D01*
X015853Y022236D01*
G37*
G36*
X015995Y022372D02*
X016361Y021990D01*
X016261Y021894D01*
X015895Y022276D01*
X015995Y022372D01*
G37*
G36*
X016138Y022509D02*
X016504Y022127D01*
X016404Y022031D01*
X016038Y022413D01*
X016138Y022509D01*
G37*
G36*
X016280Y022645D02*
X016646Y022263D01*
X016546Y022167D01*
X016180Y022549D01*
X016280Y022645D01*
G37*
G36*
X016422Y022781D02*
X016788Y022399D01*
X016688Y022303D01*
X016322Y022685D01*
X016422Y022781D01*
G37*
G36*
X016564Y022917D02*
X016930Y022535D01*
X016830Y022439D01*
X016464Y022821D01*
X016564Y022917D01*
G37*
G36*
X016706Y023054D02*
X017072Y022672D01*
X016972Y022576D01*
X016606Y022958D01*
X016706Y023054D01*
G37*
G36*
X016848Y023190D02*
X017214Y022808D01*
X017114Y022712D01*
X016748Y023094D01*
X016848Y023190D01*
G37*
G36*
X016990Y023326D02*
X017356Y022944D01*
X017256Y022848D01*
X016890Y023230D01*
X016990Y023326D01*
G37*
G36*
X017132Y023462D02*
X017498Y023080D01*
X017398Y022984D01*
X017032Y023366D01*
X017132Y023462D01*
G37*
G36*
X017274Y023599D02*
X017640Y023217D01*
X017540Y023121D01*
X017174Y023503D01*
X017274Y023599D01*
G37*
G36*
X017416Y023735D02*
X017782Y023353D01*
X017682Y023257D01*
X017316Y023639D01*
X017416Y023735D01*
G37*
G36*
X017558Y023871D02*
X017924Y023489D01*
X017824Y023393D01*
X017458Y023775D01*
X017558Y023871D01*
G37*
G36*
X017700Y024007D02*
X018066Y023625D01*
X017966Y023529D01*
X017600Y023911D01*
X017700Y024007D01*
G37*
G36*
X017616Y024679D02*
X017998Y025045D01*
X018094Y024945D01*
X017712Y024579D01*
X017616Y024679D01*
G37*
G36*
X017480Y024821D02*
X017862Y025187D01*
X017958Y025087D01*
X017576Y024721D01*
X017480Y024821D01*
G37*
G36*
X017344Y024963D02*
X017726Y025329D01*
X017822Y025229D01*
X017440Y024863D01*
X017344Y024963D01*
G37*
G36*
X017207Y025105D02*
X017589Y025471D01*
X017685Y025371D01*
X017303Y025005D01*
X017207Y025105D01*
G37*
G36*
X017071Y025247D02*
X017453Y025613D01*
X017549Y025513D01*
X017167Y025147D01*
X017071Y025247D01*
G37*
G36*
X016935Y025389D02*
X017317Y025755D01*
X017413Y025655D01*
X017031Y025289D01*
X016935Y025389D01*
G37*
G36*
X016799Y025532D02*
X017181Y025898D01*
X017277Y025798D01*
X016895Y025432D01*
X016799Y025532D01*
G37*
G36*
X016662Y025674D02*
X017044Y026040D01*
X017140Y025940D01*
X016758Y025574D01*
X016662Y025674D01*
G37*
G36*
X016526Y025816D02*
X016908Y026182D01*
X017004Y026082D01*
X016622Y025716D01*
X016526Y025816D01*
G37*
G36*
X016390Y025958D02*
X016772Y026324D01*
X016868Y026224D01*
X016486Y025858D01*
X016390Y025958D01*
G37*
G36*
X016254Y026100D02*
X016636Y026466D01*
X016732Y026366D01*
X016350Y026000D01*
X016254Y026100D01*
G37*
G36*
X016117Y026242D02*
X016499Y026608D01*
X016595Y026508D01*
X016213Y026142D01*
X016117Y026242D01*
G37*
G36*
X015981Y026384D02*
X016363Y026750D01*
X016459Y026650D01*
X016077Y026284D01*
X015981Y026384D01*
G37*
G36*
X015845Y026526D02*
X016227Y026892D01*
X016323Y026792D01*
X015941Y026426D01*
X015845Y026526D01*
G37*
G36*
X015709Y026668D02*
X016091Y027034D01*
X016187Y026934D01*
X015805Y026568D01*
X015709Y026668D01*
G37*
G36*
X015573Y026810D02*
X015955Y027176D01*
X016051Y027076D01*
X015669Y026710D01*
X015573Y026810D01*
G37*
G36*
X015436Y026952D02*
X015818Y027318D01*
X015914Y027218D01*
X015532Y026852D01*
X015436Y026952D01*
G37*
G36*
X015300Y027094D02*
X015682Y027460D01*
X015778Y027360D01*
X015396Y026994D01*
X015300Y027094D01*
G37*
G36*
X015164Y027236D02*
X015546Y027602D01*
X015642Y027502D01*
X015260Y027136D01*
X015164Y027236D01*
G37*
G36*
X015028Y027379D02*
X015410Y027745D01*
X015506Y027645D01*
X015124Y027279D01*
X015028Y027379D01*
G37*
G36*
X014891Y027521D02*
X015273Y027887D01*
X015369Y027787D01*
X014987Y027421D01*
X014891Y027521D01*
G37*
G36*
X014755Y027663D02*
X015137Y028029D01*
X015233Y027929D01*
X014851Y027563D01*
X014755Y027663D01*
G37*
G36*
X014619Y027805D02*
X015001Y028171D01*
X015097Y028071D01*
X014715Y027705D01*
X014619Y027805D01*
G37*
G36*
X014483Y027947D02*
X014865Y028313D01*
X014961Y028213D01*
X014579Y027847D01*
X014483Y027947D01*
G37*
G36*
X014346Y028089D02*
X014728Y028455D01*
X014824Y028355D01*
X014442Y027989D01*
X014346Y028089D01*
G37*
G36*
X014210Y028231D02*
X014592Y028597D01*
X014688Y028497D01*
X014306Y028131D01*
X014210Y028231D01*
G37*
G36*
X014074Y028373D02*
X014456Y028739D01*
X014552Y028639D01*
X014170Y028273D01*
X014074Y028373D01*
G37*
G36*
X013938Y028515D02*
X014320Y028881D01*
X014416Y028781D01*
X014034Y028415D01*
X013938Y028515D01*
G37*
G36*
X013801Y028657D02*
X014183Y029023D01*
X014279Y028923D01*
X013897Y028557D01*
X013801Y028657D01*
G37*
G36*
X013665Y028799D02*
X014047Y029165D01*
X014143Y029065D01*
X013761Y028699D01*
X013665Y028799D01*
G37*
G36*
X013529Y028941D02*
X013911Y029307D01*
X014007Y029207D01*
X013625Y028841D01*
X013529Y028941D01*
G37*
G36*
X013393Y029083D02*
X013775Y029449D01*
X013871Y029349D01*
X013489Y028983D01*
X013393Y029083D01*
G37*
G36*
X013256Y029226D02*
X013638Y029592D01*
X013734Y029492D01*
X013352Y029126D01*
X013256Y029226D01*
G37*
G36*
X013120Y029368D02*
X013502Y029734D01*
X013598Y029634D01*
X013216Y029268D01*
X013120Y029368D01*
G37*
G36*
X012984Y029510D02*
X013366Y029876D01*
X013462Y029776D01*
X013080Y029410D01*
X012984Y029510D01*
G37*
G36*
X012848Y029652D02*
X013230Y030018D01*
X013326Y029918D01*
X012944Y029552D01*
X012848Y029652D01*
G37*
D12*
X013684Y031970D03*
X013684Y032639D03*
X015751Y032836D03*
X015751Y032167D03*
X012306Y039450D03*
X012306Y040120D03*
X008861Y031557D03*
X008861Y030887D03*
X007877Y030887D03*
X007877Y031557D03*
X011223Y017679D03*
X011223Y017009D03*
X008467Y012265D03*
X008467Y011596D03*
X008074Y007541D03*
X008074Y006872D03*
X007188Y006872D03*
X007188Y007541D03*
X008960Y007246D03*
X008960Y006576D03*
X011715Y008151D03*
X011715Y008820D03*
D13*
X005318Y009175D03*
X002267Y009175D03*
D14*
X003164Y006301D03*
X004420Y006301D03*
X006215Y006301D03*
X001369Y006301D03*
D15*
X001578Y005139D03*
X001578Y003663D03*
X003546Y003663D03*
X003546Y005139D03*
D16*
X005515Y004903D03*
X005515Y003013D03*
X008271Y003013D03*
X008271Y004903D03*
D17*
X009601Y009761D02*
X009601Y010361D01*
X010601Y010361D02*
X010601Y009761D01*
X011601Y009761D02*
X011601Y010361D01*
X012601Y010361D02*
X012601Y009761D01*
X013601Y009761D02*
X013601Y010361D01*
X014601Y010361D02*
X014601Y009761D01*
X015601Y009761D02*
X015601Y010361D01*
X017483Y010164D02*
X017483Y009564D01*
X018483Y009564D02*
X018483Y010164D01*
X019483Y010164D02*
X019483Y009564D01*
X020483Y009564D02*
X020483Y010164D01*
X021483Y010164D02*
X021483Y009564D01*
X022483Y009564D02*
X022483Y010164D01*
X019201Y006435D02*
X018601Y006435D01*
X018601Y005435D02*
X019201Y005435D01*
X019201Y004435D02*
X018601Y004435D01*
X017823Y004443D02*
X017223Y004443D01*
X017223Y003443D02*
X017823Y003443D01*
X017823Y005443D02*
X017223Y005443D01*
X017223Y006443D02*
X017823Y006443D01*
D18*
X013763Y002974D03*
X010259Y002974D03*
X010613Y040435D03*
X007109Y040435D03*
D19*
X007109Y038112D03*
X010613Y038112D03*
X010259Y005297D03*
X013763Y005297D03*
D20*
X012641Y005336D03*
X012326Y005336D03*
X012011Y005336D03*
X011696Y005336D03*
X011381Y005336D03*
X009491Y038072D03*
X009176Y038072D03*
X008861Y038072D03*
X008546Y038072D03*
X008231Y038072D03*
D21*
X007995Y039254D03*
X009727Y039254D03*
X011145Y004155D03*
X012877Y004155D03*
D22*
X021128Y003171D02*
X021988Y003171D01*
X023448Y003922D02*
X023448Y004782D01*
X021988Y005533D02*
X021128Y005533D01*
D23*
X019767Y003466D03*
X018625Y003466D03*
D24*
X022208Y006813D03*
X022208Y007698D03*
X022877Y007698D03*
X022877Y006813D03*
X010082Y008880D03*
X009412Y008880D03*
X006932Y015769D03*
X006263Y015769D03*
G36*
X006651Y026199D02*
X006289Y025837D01*
X005873Y026253D01*
X006235Y026615D01*
X006651Y026199D01*
G37*
G36*
X007125Y026672D02*
X006763Y026310D01*
X006347Y026726D01*
X006709Y027088D01*
X007125Y026672D01*
G37*
G36*
X007873Y027415D02*
X007511Y027053D01*
X007095Y027469D01*
X007457Y027831D01*
X007873Y027415D01*
G37*
G36*
X008346Y027888D02*
X007984Y027526D01*
X007568Y027942D01*
X007930Y028304D01*
X008346Y027888D01*
G37*
G36*
X005559Y028828D02*
X005921Y029190D01*
X006337Y028774D01*
X005975Y028412D01*
X005559Y028828D01*
G37*
G36*
X005086Y028355D02*
X005448Y028717D01*
X005864Y028301D01*
X005502Y027939D01*
X005086Y028355D01*
G37*
X017641Y037718D03*
X018310Y037718D03*
X018290Y040159D03*
X018960Y040159D03*
D25*
G36*
X007287Y028659D02*
X007732Y029104D01*
X008121Y028715D01*
X007676Y028270D01*
X007287Y028659D01*
G37*
G36*
X007286Y027880D02*
X006841Y027435D01*
X006452Y027824D01*
X006897Y028269D01*
X007286Y027880D01*
G37*
G36*
X005909Y027281D02*
X006354Y027726D01*
X006743Y027337D01*
X006298Y026892D01*
X005909Y027281D01*
G37*
G36*
X005908Y026502D02*
X005463Y026057D01*
X005074Y026446D01*
X005519Y026891D01*
X005908Y026502D01*
G37*
D26*
X006597Y029746D03*
X007385Y029746D03*
D27*
X007158Y034372D03*
X010958Y034372D03*
D28*
X013684Y033840D03*
X013684Y035100D03*
X015849Y035100D03*
X015849Y033840D03*
D29*
X013024Y036537D03*
X012424Y036537D03*
X011824Y036537D03*
X010308Y036261D03*
X009708Y036261D03*
X009108Y036261D03*
G36*
X010657Y031888D02*
X010982Y032213D01*
X011427Y031768D01*
X011102Y031443D01*
X010657Y031888D01*
G37*
G36*
X010233Y031464D02*
X010558Y031789D01*
X011003Y031344D01*
X010678Y031019D01*
X010233Y031464D01*
G37*
D30*
G36*
X010555Y031849D02*
X010597Y031891D01*
X011105Y031383D01*
X011063Y031341D01*
X010555Y031849D01*
G37*
D31*
X004341Y031415D03*
X004341Y032415D03*
X004341Y033415D03*
X004341Y034415D03*
X004341Y035415D03*
X004341Y036415D03*
X004341Y037415D03*
X004341Y038415D03*
X004341Y039415D03*
X004341Y040415D03*
X003341Y040415D03*
X003341Y039415D03*
X003341Y038415D03*
X003341Y037415D03*
X003341Y036415D03*
X003341Y035415D03*
X003341Y034415D03*
X003341Y033415D03*
X003341Y032415D03*
X003341Y031415D03*
X003341Y030415D03*
X003341Y029415D03*
X003341Y028415D03*
X003341Y027415D03*
X003341Y026415D03*
X003341Y025415D03*
X003341Y024415D03*
X003341Y023415D03*
X003341Y022415D03*
X003341Y021415D03*
X003341Y020415D03*
X003341Y019415D03*
X003341Y018415D03*
X003341Y017415D03*
X003341Y016415D03*
X003341Y015415D03*
X003341Y014415D03*
X003341Y013415D03*
X003341Y012415D03*
X003341Y011415D03*
X004341Y011415D03*
X004341Y012415D03*
X004341Y013415D03*
X004341Y014415D03*
X004341Y015415D03*
X004341Y016415D03*
X004341Y017415D03*
X004341Y018415D03*
X004341Y019415D03*
X004341Y020415D03*
X004341Y021415D03*
X004341Y022415D03*
X004341Y023415D03*
X004341Y024415D03*
X004341Y025415D03*
X004341Y026415D03*
X004341Y027415D03*
X004341Y028415D03*
X004341Y029415D03*
X004341Y030415D03*
X009601Y012529D03*
X009601Y011529D03*
X010601Y011529D03*
X010601Y012529D03*
X011601Y012529D03*
X011601Y011529D03*
X012601Y011529D03*
X012601Y012529D03*
X013601Y012529D03*
X013601Y011529D03*
X014601Y011529D03*
X014601Y012529D03*
X015601Y012529D03*
X015601Y011529D03*
X020664Y011415D03*
X020664Y012415D03*
X020664Y013415D03*
X020664Y014415D03*
X020664Y015415D03*
X020664Y016415D03*
X020664Y017415D03*
X020664Y018415D03*
X020664Y019415D03*
X020664Y020415D03*
X020664Y021415D03*
X020664Y022415D03*
X020664Y023415D03*
X020664Y024415D03*
X020664Y025415D03*
X020664Y026415D03*
X020664Y027415D03*
X020664Y028415D03*
X020664Y029415D03*
X020664Y030415D03*
X020664Y031415D03*
X020664Y032415D03*
X020664Y033415D03*
X020664Y034415D03*
X020664Y035415D03*
X020664Y036415D03*
X020664Y037415D03*
X020664Y038415D03*
X020664Y039415D03*
X020664Y040415D03*
X021664Y040415D03*
X021664Y039415D03*
X021664Y038415D03*
X021664Y037415D03*
X021664Y036415D03*
X021664Y035415D03*
X021664Y034415D03*
X021664Y033415D03*
X021664Y032415D03*
X021664Y031415D03*
X021664Y030415D03*
X021664Y029415D03*
X021664Y028415D03*
X021664Y027415D03*
X021664Y026415D03*
X021664Y025415D03*
X021664Y024415D03*
X021664Y023415D03*
X021664Y022415D03*
X021664Y021415D03*
X021664Y020415D03*
X021664Y019415D03*
X021664Y018415D03*
X021664Y017415D03*
X021664Y016415D03*
X021664Y015415D03*
X021664Y014415D03*
X021664Y013415D03*
X021664Y012415D03*
X021664Y011415D03*
D32*
X007975Y008978D03*
X007975Y008151D03*
X007188Y008368D03*
X007188Y009194D03*
X017759Y038761D03*
X017798Y039411D03*
X018586Y038761D03*
X018625Y039411D03*
D33*
X010328Y016557D03*
X010328Y014785D03*
X007198Y014785D03*
X007198Y016557D03*
D34*
X013300Y037472D03*
X013556Y037472D03*
X013812Y037472D03*
X014068Y037472D03*
X014324Y037472D03*
X014580Y037472D03*
X014836Y037472D03*
X015091Y037472D03*
X015347Y037472D03*
X015603Y037472D03*
X015859Y037472D03*
X016115Y037472D03*
X016371Y037472D03*
X016627Y037472D03*
X016627Y040326D03*
X016371Y040326D03*
X016115Y040326D03*
X015859Y040326D03*
X015603Y040326D03*
X015347Y040326D03*
X015091Y040326D03*
X014836Y040326D03*
X014580Y040326D03*
X014324Y040326D03*
X014068Y040326D03*
X013812Y040326D03*
X013556Y040326D03*
X013300Y040326D03*
M02*
