G75*
%MOIN*%
%OFA0B0*%
%FSLAX25Y25*%
%IPPOS*%
%LPD*%
%AMOC8*
5,1,8,0,0,1.08239X$1,22.5*
%
%ADD10C,0.00000*%
%ADD11C,0.06000*%
%ADD12OC8,0.06000*%
%ADD13R,0.01181X0.05118*%
%ADD14R,0.07087X0.08661*%
%ADD15C,0.01200*%
%ADD16OC8,0.05000*%
D10*
X0001739Y0002810D02*
X0001739Y0395311D01*
X0238660Y0395811D01*
X0238660Y0003310D01*
X0001739Y0002810D01*
D11*
X0088721Y0098532D02*
X0094721Y0098532D01*
X0094721Y0108532D02*
X0088721Y0108532D01*
X0148682Y0108532D02*
X0154682Y0108532D01*
X0154682Y0098532D02*
X0148682Y0098532D01*
D12*
X0201957Y0097312D03*
X0201957Y0107312D03*
X0201957Y0117312D03*
X0201957Y0127312D03*
X0201957Y0137312D03*
X0201957Y0147312D03*
X0201957Y0157312D03*
X0201957Y0167312D03*
X0201957Y0177312D03*
X0201957Y0187312D03*
X0201957Y0197312D03*
X0201957Y0207312D03*
X0201957Y0217312D03*
X0201957Y0227312D03*
X0201957Y0237312D03*
X0201957Y0247312D03*
X0201957Y0257312D03*
X0201957Y0267312D03*
X0201957Y0277312D03*
X0201957Y0287312D03*
X0201957Y0297312D03*
X0201957Y0307312D03*
X0201957Y0317312D03*
X0201957Y0327312D03*
X0201957Y0337312D03*
X0201957Y0347312D03*
X0201957Y0357312D03*
X0201957Y0367312D03*
X0201957Y0377312D03*
X0201957Y0387312D03*
X0211957Y0387312D03*
X0211957Y0377312D03*
X0211957Y0367312D03*
X0211957Y0357312D03*
X0211957Y0347312D03*
X0211957Y0337312D03*
X0211957Y0327312D03*
X0211957Y0317312D03*
X0211957Y0307312D03*
X0211957Y0297312D03*
X0211957Y0287312D03*
X0211957Y0277312D03*
X0211957Y0267312D03*
X0211957Y0257312D03*
X0211957Y0247312D03*
X0211957Y0237312D03*
X0211957Y0227312D03*
X0211957Y0217312D03*
X0211957Y0207312D03*
X0211957Y0197312D03*
X0211957Y0187312D03*
X0211957Y0177312D03*
X0211957Y0167312D03*
X0211957Y0157312D03*
X0211957Y0147312D03*
X0211957Y0137312D03*
X0211957Y0127312D03*
X0211957Y0117312D03*
X0211957Y0107312D03*
X0211957Y0097312D03*
X0168139Y0369910D03*
X0168139Y0379910D03*
X0158139Y0379910D03*
X0158139Y0369910D03*
X0148139Y0369910D03*
X0148139Y0379910D03*
X0138139Y0379910D03*
X0138139Y0369910D03*
X0128139Y0369910D03*
X0128139Y0379910D03*
X0118139Y0379910D03*
X0118139Y0369910D03*
X0108139Y0369910D03*
X0108139Y0379910D03*
X0098139Y0379910D03*
X0098139Y0369910D03*
X0088139Y0369910D03*
X0088139Y0379910D03*
X0078139Y0379910D03*
X0078139Y0369910D03*
X0037784Y0367312D03*
X0037784Y0377312D03*
X0037784Y0387312D03*
X0027784Y0387312D03*
X0027784Y0377312D03*
X0027784Y0367312D03*
X0027784Y0357312D03*
X0027784Y0347312D03*
X0027784Y0337312D03*
X0027784Y0327312D03*
X0027784Y0317312D03*
X0027784Y0307312D03*
X0027784Y0297312D03*
X0027784Y0287312D03*
X0027784Y0277312D03*
X0027784Y0267312D03*
X0027784Y0257312D03*
X0027784Y0247312D03*
X0027784Y0237312D03*
X0027784Y0227312D03*
X0027784Y0217312D03*
X0027784Y0207312D03*
X0027784Y0197312D03*
X0027784Y0187312D03*
X0027784Y0177312D03*
X0027784Y0167312D03*
X0027784Y0157312D03*
X0027784Y0147312D03*
X0027784Y0137312D03*
X0027784Y0127312D03*
X0027784Y0117312D03*
X0027784Y0107312D03*
X0027784Y0097312D03*
X0037784Y0097312D03*
X0037784Y0107312D03*
X0037784Y0117312D03*
X0037784Y0127312D03*
X0037784Y0137312D03*
X0037784Y0147312D03*
X0037784Y0157312D03*
X0037784Y0167312D03*
X0037784Y0177312D03*
X0037784Y0187312D03*
X0037784Y0197312D03*
X0037784Y0207312D03*
X0037784Y0217312D03*
X0037784Y0227312D03*
X0037784Y0237312D03*
X0037784Y0247312D03*
X0037784Y0257312D03*
X0037784Y0267312D03*
X0037784Y0277312D03*
X0037784Y0287312D03*
X0037784Y0297312D03*
X0037784Y0307312D03*
X0037784Y0317312D03*
X0037784Y0327312D03*
X0037784Y0337312D03*
X0037784Y0347312D03*
X0037784Y0357312D03*
D13*
X0082253Y0060406D03*
X0084221Y0060406D03*
X0086190Y0060406D03*
X0088158Y0060406D03*
X0090127Y0060406D03*
X0092095Y0060406D03*
X0094064Y0060406D03*
X0096032Y0060406D03*
X0098001Y0060406D03*
X0099969Y0060406D03*
X0101938Y0060406D03*
X0103906Y0060406D03*
X0105875Y0060406D03*
X0107843Y0060406D03*
X0109812Y0060406D03*
X0111780Y0060406D03*
X0113749Y0060406D03*
X0115717Y0060406D03*
X0117686Y0060406D03*
X0119654Y0060406D03*
X0121623Y0060406D03*
X0123591Y0060406D03*
X0125560Y0060406D03*
X0127528Y0060406D03*
X0129497Y0060406D03*
X0131465Y0060406D03*
X0133434Y0060406D03*
X0135402Y0060406D03*
X0137371Y0060406D03*
X0139339Y0060406D03*
X0141308Y0060406D03*
X0143276Y0060406D03*
X0145245Y0060406D03*
X0147213Y0060406D03*
X0149182Y0060406D03*
X0151150Y0060406D03*
X0153119Y0060406D03*
X0155087Y0060406D03*
X0157056Y0060406D03*
X0159024Y0060406D03*
D14*
X0166505Y0047610D03*
X0074772Y0047610D03*
D15*
X0080516Y0042368D02*
X0079227Y0041080D01*
X0070318Y0041080D01*
X0069029Y0042368D01*
X0069029Y0052852D01*
X0070318Y0054141D01*
X0079227Y0054141D01*
X0080516Y0052852D01*
X0080516Y0042368D01*
X0080516Y0043057D02*
X0132602Y0043057D01*
X0132602Y0044255D02*
X0104330Y0044255D01*
X0104185Y0044110D02*
X0106939Y0046863D01*
X0106939Y0048210D01*
X0110139Y0048210D01*
X0110139Y0048063D01*
X0112892Y0045310D01*
X0116785Y0045310D01*
X0119539Y0048063D01*
X0119539Y0048910D01*
X0122685Y0048910D01*
X0124639Y0050863D01*
X0124639Y0047363D01*
X0127392Y0044610D01*
X0131285Y0044610D01*
X0132602Y0045927D01*
X0132602Y0039734D01*
X0132179Y0039310D01*
X0129492Y0039310D01*
X0126739Y0036557D01*
X0126739Y0032663D01*
X0129492Y0029910D01*
X0133385Y0029910D01*
X0136139Y0032663D01*
X0136139Y0035350D01*
X0137776Y0036988D01*
X0138202Y0038017D01*
X0138202Y0055646D01*
X0140476Y0055646D01*
X0140476Y0033895D01*
X0137839Y0031257D01*
X0137839Y0027363D01*
X0140592Y0024610D01*
X0143839Y0024610D01*
X0143839Y0021963D01*
X0146592Y0019210D01*
X0150485Y0019210D01*
X0153239Y0021963D01*
X0153239Y0024650D01*
X0153424Y0024836D01*
X0153850Y0025865D01*
X0153850Y0053502D01*
X0153890Y0056246D01*
X0153920Y0056246D01*
X0154103Y0056296D01*
X0154286Y0056246D01*
X0154954Y0056246D01*
X0155554Y0055646D01*
X0160526Y0055646D01*
X0161641Y0056761D01*
X0162392Y0056010D01*
X0166285Y0056010D01*
X0169039Y0058763D01*
X0169039Y0062657D01*
X0166285Y0065410D01*
X0162392Y0065410D01*
X0161336Y0064355D01*
X0160526Y0065165D01*
X0155554Y0065165D01*
X0154954Y0064565D01*
X0154286Y0064565D01*
X0154103Y0064516D01*
X0153920Y0064565D01*
X0153353Y0064565D01*
X0157198Y0068410D01*
X0166413Y0068410D01*
X0167442Y0068837D01*
X0196757Y0098152D01*
X0196757Y0096072D01*
X0181065Y0080379D01*
X0180639Y0079350D01*
X0180639Y0041509D01*
X0180539Y0041267D01*
X0180539Y0040257D01*
X0178639Y0038357D01*
X0178639Y0034463D01*
X0181392Y0031710D01*
X0185285Y0031710D01*
X0188039Y0034463D01*
X0188039Y0038357D01*
X0186210Y0040185D01*
X0186239Y0040253D01*
X0186239Y0041367D01*
X0186239Y0077633D01*
X0200717Y0092112D01*
X0204111Y0092112D01*
X0207157Y0095158D01*
X0207157Y0099466D01*
X0204311Y0102312D01*
X0206957Y0104958D01*
X0209804Y0102112D01*
X0214111Y0102112D01*
X0217157Y0105158D01*
X0217157Y0108552D01*
X0221912Y0113307D01*
X0222339Y0114336D01*
X0222339Y0120767D01*
X0221912Y0121796D01*
X0218925Y0124784D01*
X0217896Y0125210D01*
X0217157Y0125210D01*
X0217157Y0129466D01*
X0216813Y0129810D01*
X0218965Y0129810D01*
X0219448Y0129785D01*
X0219519Y0129810D01*
X0219596Y0129810D01*
X0220042Y0129995D01*
X0232519Y0134410D01*
X0232596Y0134410D01*
X0233042Y0134595D01*
X0233498Y0134756D01*
X0233554Y0134807D01*
X0233625Y0134837D01*
X0233966Y0135178D01*
X0234326Y0135502D01*
X0234358Y0135570D01*
X0234412Y0135624D01*
X0234597Y0136071D01*
X0234805Y0136507D01*
X0234809Y0136583D01*
X0234839Y0136653D01*
X0234839Y0137137D01*
X0234864Y0137619D01*
X0234839Y0137691D01*
X0234839Y0308318D01*
X0234869Y0308782D01*
X0234839Y0308872D01*
X0234839Y0308967D01*
X0234661Y0309397D01*
X0234511Y0309837D01*
X0234449Y0309909D01*
X0234412Y0309996D01*
X0234083Y0310325D01*
X0233777Y0310675D01*
X0233692Y0310717D01*
X0233625Y0310784D01*
X0233195Y0310962D01*
X0226192Y0314417D01*
X0226125Y0314484D01*
X0225695Y0314662D01*
X0225278Y0314868D01*
X0225183Y0314874D01*
X0225096Y0314910D01*
X0224630Y0314910D01*
X0224166Y0314941D01*
X0224077Y0314910D01*
X0217059Y0314910D01*
X0217126Y0314938D01*
X0226325Y0324137D01*
X0227112Y0324924D01*
X0227539Y0325953D01*
X0227539Y0353867D01*
X0227112Y0354896D01*
X0218112Y0363896D01*
X0217325Y0364684D01*
X0216871Y0364872D01*
X0217157Y0365158D01*
X0217157Y0369466D01*
X0214311Y0372312D01*
X0217157Y0375158D01*
X0217157Y0379466D01*
X0214311Y0382312D01*
X0217157Y0385158D01*
X0217157Y0389466D01*
X0214111Y0392512D01*
X0209804Y0392512D01*
X0206957Y0389666D01*
X0204111Y0392512D01*
X0199804Y0392512D01*
X0196757Y0389466D01*
X0196757Y0385158D01*
X0199604Y0382312D01*
X0196757Y0379466D01*
X0196757Y0376051D01*
X0181312Y0391496D01*
X0180525Y0392284D01*
X0179496Y0392710D01*
X0107482Y0392710D01*
X0106453Y0392284D01*
X0101853Y0387684D01*
X0101065Y0386896D01*
X0100639Y0385867D01*
X0100639Y0384764D01*
X0100292Y0385110D01*
X0095985Y0385110D01*
X0093139Y0382264D01*
X0090292Y0385110D01*
X0085985Y0385110D01*
X0085564Y0384689D01*
X0085312Y0385296D01*
X0084525Y0386084D01*
X0080325Y0390284D01*
X0079296Y0390710D01*
X0074182Y0390710D01*
X0073153Y0390284D01*
X0072365Y0389496D01*
X0054665Y0371796D01*
X0054239Y0370767D01*
X0054239Y0361270D01*
X0048179Y0355210D01*
X0042984Y0355210D01*
X0042984Y0359466D01*
X0040138Y0362312D01*
X0042984Y0365158D01*
X0042984Y0369466D01*
X0040138Y0372312D01*
X0042984Y0375158D01*
X0042984Y0379466D01*
X0040138Y0382312D01*
X0042984Y0385158D01*
X0042984Y0389466D01*
X0039938Y0392512D01*
X0035630Y0392512D01*
X0032784Y0389666D01*
X0029938Y0392512D01*
X0025630Y0392512D01*
X0022584Y0389466D01*
X0022584Y0385158D01*
X0025430Y0382312D01*
X0022584Y0379466D01*
X0022584Y0375158D01*
X0025430Y0372312D01*
X0022584Y0369466D01*
X0022584Y0365158D01*
X0025430Y0362312D01*
X0022584Y0359466D01*
X0022584Y0355158D01*
X0023055Y0354687D01*
X0022365Y0353996D01*
X0012565Y0344196D01*
X0012139Y0343167D01*
X0012139Y0099053D01*
X0012565Y0098024D01*
X0013353Y0097237D01*
X0024753Y0085837D01*
X0024775Y0085827D01*
X0027092Y0083510D01*
X0030985Y0083510D01*
X0033739Y0086263D01*
X0033739Y0090157D01*
X0030985Y0092910D01*
X0029888Y0092910D01*
X0032384Y0095406D01*
X0032384Y0096912D01*
X0028184Y0096912D01*
X0028184Y0097712D01*
X0032384Y0097712D01*
X0032384Y0099217D01*
X0032191Y0099410D01*
X0033377Y0099410D01*
X0033184Y0099217D01*
X0033184Y0097712D01*
X0037384Y0097712D01*
X0037384Y0096912D01*
X0033184Y0096912D01*
X0033184Y0095406D01*
X0035879Y0092712D01*
X0037384Y0092712D01*
X0037384Y0096912D01*
X0038184Y0096912D01*
X0038184Y0092712D01*
X0039690Y0092712D01*
X0042384Y0095406D01*
X0042384Y0096912D01*
X0038184Y0096912D01*
X0038184Y0097712D01*
X0042384Y0097712D01*
X0042384Y0099217D01*
X0042191Y0099410D01*
X0063939Y0099410D01*
X0063939Y0095963D01*
X0065342Y0094560D01*
X0064539Y0093757D01*
X0064539Y0089863D01*
X0067292Y0087110D01*
X0069339Y0087110D01*
X0069339Y0085363D01*
X0072092Y0082610D01*
X0074192Y0082610D01*
X0073639Y0082057D01*
X0073639Y0078163D01*
X0076392Y0075410D01*
X0080285Y0075410D01*
X0080832Y0075957D01*
X0083290Y0073499D01*
X0083290Y0073202D01*
X0083294Y0073192D01*
X0083359Y0064548D01*
X0083237Y0064516D01*
X0083054Y0064565D01*
X0082253Y0064565D01*
X0082253Y0063778D01*
X0082253Y0063778D01*
X0082253Y0064565D01*
X0081452Y0064565D01*
X0081045Y0064456D01*
X0080680Y0064245D01*
X0080382Y0063947D01*
X0080171Y0063582D01*
X0080062Y0063175D01*
X0080062Y0060406D01*
X0082253Y0060406D01*
X0084221Y0060406D01*
X0084221Y0056028D01*
X0096439Y0043810D01*
X0121739Y0043810D01*
X0121739Y0032910D01*
X0126439Y0028210D01*
X0131039Y0028210D01*
X0140439Y0018810D01*
X0151439Y0018810D01*
X0153119Y0020491D01*
X0153119Y0026310D01*
X0154419Y0027610D01*
X0187239Y0027610D01*
X0211957Y0052329D01*
X0211957Y0097312D01*
X0211557Y0096990D02*
X0207157Y0096990D01*
X0207357Y0096912D02*
X0207357Y0095406D01*
X0210052Y0092712D01*
X0211557Y0092712D01*
X0211557Y0096912D01*
X0207357Y0096912D01*
X0207357Y0097712D02*
X0211557Y0097712D01*
X0211557Y0096912D01*
X0212357Y0096912D01*
X0212357Y0092712D01*
X0213863Y0092712D01*
X0216557Y0095406D01*
X0216557Y0096912D01*
X0212358Y0096912D01*
X0212358Y0097712D01*
X0216557Y0097712D01*
X0216557Y0099217D01*
X0213863Y0101912D01*
X0212357Y0101912D01*
X0212357Y0097712D01*
X0211557Y0097712D01*
X0211557Y0101912D01*
X0210052Y0101912D01*
X0207357Y0099217D01*
X0207357Y0097712D01*
X0207357Y0098188D02*
X0207157Y0098188D01*
X0207157Y0099387D02*
X0207527Y0099387D01*
X0208725Y0100585D02*
X0206038Y0100585D01*
X0204839Y0101784D02*
X0209924Y0101784D01*
X0208933Y0102982D02*
X0204982Y0102982D01*
X0206180Y0104181D02*
X0207735Y0104181D01*
X0211557Y0101784D02*
X0212357Y0101784D01*
X0212357Y0100585D02*
X0211557Y0100585D01*
X0211557Y0099387D02*
X0212357Y0099387D01*
X0212357Y0098188D02*
X0211557Y0098188D01*
X0212358Y0096990D02*
X0236060Y0096990D01*
X0236060Y0098188D02*
X0216557Y0098188D01*
X0216388Y0099387D02*
X0236060Y0099387D01*
X0236060Y0100585D02*
X0215189Y0100585D01*
X0213991Y0101784D02*
X0236060Y0101784D01*
X0236060Y0102982D02*
X0214982Y0102982D01*
X0216180Y0104181D02*
X0236060Y0104181D01*
X0236060Y0105379D02*
X0217157Y0105379D01*
X0217157Y0106578D02*
X0236060Y0106578D01*
X0236060Y0107776D02*
X0217157Y0107776D01*
X0217580Y0108975D02*
X0236060Y0108975D01*
X0236060Y0110173D02*
X0218779Y0110173D01*
X0219977Y0111372D02*
X0236060Y0111372D01*
X0236060Y0112570D02*
X0221176Y0112570D01*
X0222104Y0113769D02*
X0236060Y0113769D01*
X0236060Y0114967D02*
X0222339Y0114967D01*
X0222339Y0116166D02*
X0236060Y0116166D01*
X0236060Y0117364D02*
X0222339Y0117364D01*
X0222339Y0118563D02*
X0236060Y0118563D01*
X0236060Y0119761D02*
X0222339Y0119761D01*
X0222259Y0120960D02*
X0236060Y0120960D01*
X0236060Y0122158D02*
X0221550Y0122158D01*
X0220352Y0123357D02*
X0236060Y0123357D01*
X0236060Y0124555D02*
X0219153Y0124555D01*
X0217157Y0125754D02*
X0236060Y0125754D01*
X0236060Y0126952D02*
X0217157Y0126952D01*
X0217157Y0128151D02*
X0236060Y0128151D01*
X0236060Y0129349D02*
X0217157Y0129349D01*
X0219039Y0132610D02*
X0232039Y0137210D01*
X0232039Y0308410D01*
X0224539Y0312110D01*
X0207739Y0312110D01*
X0206839Y0313010D01*
X0206839Y0320510D01*
X0208639Y0322310D01*
X0216339Y0322310D01*
X0221139Y0327110D01*
X0221139Y0346110D01*
X0214739Y0352510D01*
X0206759Y0352510D01*
X0201957Y0357312D01*
X0132837Y0357312D01*
X0128639Y0361510D01*
X0128639Y0369410D01*
X0128139Y0369910D01*
X0123239Y0373410D02*
X0123239Y0361910D01*
X0132539Y0352610D01*
X0162439Y0352610D01*
X0197737Y0317312D01*
X0201957Y0317312D01*
X0198403Y0321111D02*
X0197897Y0321111D01*
X0198150Y0320858D02*
X0164812Y0354196D01*
X0164497Y0354512D01*
X0197404Y0354512D01*
X0199604Y0352312D01*
X0196757Y0349466D01*
X0196757Y0345158D01*
X0199604Y0342312D01*
X0196757Y0339466D01*
X0196757Y0335158D01*
X0199604Y0332312D01*
X0196757Y0329466D01*
X0196757Y0325158D01*
X0199604Y0322312D01*
X0198150Y0320858D01*
X0196699Y0322310D02*
X0199602Y0322310D01*
X0198407Y0323508D02*
X0195500Y0323508D01*
X0194302Y0324707D02*
X0197209Y0324707D01*
X0196757Y0325905D02*
X0193103Y0325905D01*
X0191905Y0327104D02*
X0196757Y0327104D01*
X0196757Y0328302D02*
X0190706Y0328302D01*
X0189508Y0329501D02*
X0196793Y0329501D01*
X0197991Y0330699D02*
X0188309Y0330699D01*
X0187111Y0331898D02*
X0199190Y0331898D01*
X0198819Y0333096D02*
X0185912Y0333096D01*
X0184714Y0334295D02*
X0197620Y0334295D01*
X0196757Y0335493D02*
X0183515Y0335493D01*
X0182317Y0336692D02*
X0196757Y0336692D01*
X0196757Y0337890D02*
X0181118Y0337890D01*
X0179920Y0339089D02*
X0196757Y0339089D01*
X0197579Y0340287D02*
X0178721Y0340287D01*
X0177523Y0341486D02*
X0198778Y0341486D01*
X0199231Y0342684D02*
X0176324Y0342684D01*
X0175126Y0343883D02*
X0198032Y0343883D01*
X0196834Y0345081D02*
X0173927Y0345081D01*
X0172729Y0346280D02*
X0196757Y0346280D01*
X0196757Y0347479D02*
X0171530Y0347479D01*
X0170332Y0348677D02*
X0196757Y0348677D01*
X0197167Y0349876D02*
X0169133Y0349876D01*
X0167935Y0351074D02*
X0198366Y0351074D01*
X0199564Y0352273D02*
X0166736Y0352273D01*
X0165538Y0353471D02*
X0198444Y0353471D01*
X0197939Y0362310D02*
X0191339Y0368910D01*
X0191339Y0371910D01*
X0176739Y0386510D01*
X0144739Y0386510D01*
X0138139Y0379910D01*
X0132939Y0375110D02*
X0138139Y0369910D01*
X0132939Y0375110D02*
X0124939Y0375110D01*
X0123239Y0373410D01*
X0120439Y0364856D02*
X0120292Y0364710D01*
X0116139Y0364710D01*
X0116139Y0341170D01*
X0184312Y0272996D01*
X0184739Y0271967D01*
X0184739Y0236070D01*
X0195598Y0225210D01*
X0196757Y0225210D01*
X0196757Y0229466D01*
X0199604Y0232312D01*
X0196757Y0235158D01*
X0196757Y0239466D01*
X0199604Y0242312D01*
X0196757Y0245158D01*
X0196757Y0249466D01*
X0199604Y0252312D01*
X0196757Y0255158D01*
X0196757Y0259466D01*
X0199604Y0262312D01*
X0196757Y0265158D01*
X0196757Y0269410D01*
X0195582Y0269410D01*
X0194553Y0269837D01*
X0191953Y0272437D01*
X0191165Y0273224D01*
X0190739Y0274253D01*
X0190739Y0288467D01*
X0191165Y0289496D01*
X0195565Y0293896D01*
X0196353Y0294684D01*
X0196974Y0294941D01*
X0196757Y0295158D01*
X0196757Y0299466D01*
X0199604Y0302312D01*
X0196757Y0305158D01*
X0196757Y0309466D01*
X0199604Y0312312D01*
X0197404Y0314512D01*
X0197180Y0314512D01*
X0196151Y0314938D01*
X0161279Y0349810D01*
X0131982Y0349810D01*
X0130953Y0350237D01*
X0121653Y0359537D01*
X0120865Y0360324D01*
X0120439Y0361353D01*
X0120439Y0364856D01*
X0120439Y0364258D02*
X0116139Y0364258D01*
X0116139Y0363059D02*
X0120439Y0363059D01*
X0120439Y0361861D02*
X0116139Y0361861D01*
X0116139Y0360662D02*
X0120725Y0360662D01*
X0121725Y0359464D02*
X0116139Y0359464D01*
X0116139Y0358265D02*
X0122924Y0358265D01*
X0124122Y0357067D02*
X0116139Y0357067D01*
X0116139Y0355868D02*
X0125321Y0355868D01*
X0126519Y0354670D02*
X0116139Y0354670D01*
X0116139Y0353471D02*
X0127718Y0353471D01*
X0128916Y0352273D02*
X0116139Y0352273D01*
X0116139Y0351074D02*
X0130115Y0351074D01*
X0131824Y0349876D02*
X0116139Y0349876D01*
X0116139Y0348677D02*
X0162412Y0348677D01*
X0163610Y0347479D02*
X0116139Y0347479D01*
X0116139Y0346280D02*
X0164809Y0346280D01*
X0166008Y0345081D02*
X0116139Y0345081D01*
X0116139Y0343883D02*
X0167206Y0343883D01*
X0168405Y0342684D02*
X0116139Y0342684D01*
X0116139Y0341486D02*
X0169603Y0341486D01*
X0170802Y0340287D02*
X0117021Y0340287D01*
X0118220Y0339089D02*
X0172000Y0339089D01*
X0173199Y0337890D02*
X0119418Y0337890D01*
X0120617Y0336692D02*
X0174397Y0336692D01*
X0175596Y0335493D02*
X0121815Y0335493D01*
X0123014Y0334295D02*
X0176794Y0334295D01*
X0177993Y0333096D02*
X0124212Y0333096D01*
X0125411Y0331898D02*
X0179191Y0331898D01*
X0180390Y0330699D02*
X0126609Y0330699D01*
X0127808Y0329501D02*
X0181588Y0329501D01*
X0182787Y0328302D02*
X0129006Y0328302D01*
X0130205Y0327104D02*
X0183985Y0327104D01*
X0185184Y0325905D02*
X0131403Y0325905D01*
X0132602Y0324707D02*
X0186382Y0324707D01*
X0187581Y0323508D02*
X0133800Y0323508D01*
X0134999Y0322310D02*
X0188779Y0322310D01*
X0189978Y0321111D02*
X0136197Y0321111D01*
X0137396Y0319913D02*
X0191176Y0319913D01*
X0192375Y0318714D02*
X0138594Y0318714D01*
X0139793Y0317516D02*
X0193573Y0317516D01*
X0194772Y0316317D02*
X0140991Y0316317D01*
X0142190Y0315119D02*
X0195970Y0315119D01*
X0197995Y0313920D02*
X0143388Y0313920D01*
X0144587Y0312722D02*
X0199194Y0312722D01*
X0198815Y0311523D02*
X0145785Y0311523D01*
X0146984Y0310325D02*
X0197616Y0310325D01*
X0196757Y0309126D02*
X0148182Y0309126D01*
X0149381Y0307928D02*
X0196757Y0307928D01*
X0196757Y0306729D02*
X0150579Y0306729D01*
X0151778Y0305531D02*
X0196757Y0305531D01*
X0197583Y0304332D02*
X0152976Y0304332D01*
X0154175Y0303134D02*
X0198782Y0303134D01*
X0199227Y0301935D02*
X0155374Y0301935D01*
X0156572Y0300737D02*
X0198028Y0300737D01*
X0196830Y0299538D02*
X0157771Y0299538D01*
X0158969Y0298340D02*
X0196757Y0298340D01*
X0196757Y0297141D02*
X0160168Y0297141D01*
X0161366Y0295943D02*
X0196757Y0295943D01*
X0196498Y0294744D02*
X0162565Y0294744D01*
X0163763Y0293546D02*
X0195214Y0293546D01*
X0194016Y0292347D02*
X0164962Y0292347D01*
X0166160Y0291148D02*
X0192817Y0291148D01*
X0191619Y0289950D02*
X0167359Y0289950D01*
X0168557Y0288751D02*
X0190856Y0288751D01*
X0190739Y0287553D02*
X0169756Y0287553D01*
X0170954Y0286354D02*
X0190739Y0286354D01*
X0190739Y0285156D02*
X0172153Y0285156D01*
X0173351Y0283957D02*
X0190739Y0283957D01*
X0190739Y0282759D02*
X0174550Y0282759D01*
X0175748Y0281560D02*
X0190739Y0281560D01*
X0190739Y0280362D02*
X0176947Y0280362D01*
X0178145Y0279163D02*
X0190739Y0279163D01*
X0190739Y0277965D02*
X0179344Y0277965D01*
X0180542Y0276766D02*
X0190739Y0276766D01*
X0190739Y0275568D02*
X0181741Y0275568D01*
X0182939Y0274369D02*
X0190739Y0274369D01*
X0191218Y0273171D02*
X0184138Y0273171D01*
X0184736Y0271972D02*
X0192417Y0271972D01*
X0193615Y0270774D02*
X0184739Y0270774D01*
X0184739Y0269575D02*
X0195183Y0269575D01*
X0196757Y0268377D02*
X0184739Y0268377D01*
X0184739Y0267178D02*
X0196757Y0267178D01*
X0196757Y0265980D02*
X0184739Y0265980D01*
X0184739Y0264781D02*
X0197134Y0264781D01*
X0198333Y0263583D02*
X0184739Y0263583D01*
X0184739Y0262384D02*
X0199531Y0262384D01*
X0198477Y0261186D02*
X0184739Y0261186D01*
X0184739Y0259987D02*
X0197279Y0259987D01*
X0196757Y0258789D02*
X0184739Y0258789D01*
X0184739Y0257590D02*
X0196757Y0257590D01*
X0196757Y0256392D02*
X0184739Y0256392D01*
X0184739Y0255193D02*
X0196757Y0255193D01*
X0197921Y0253995D02*
X0184739Y0253995D01*
X0184739Y0252796D02*
X0199119Y0252796D01*
X0198889Y0251598D02*
X0184739Y0251598D01*
X0184739Y0250399D02*
X0197691Y0250399D01*
X0196757Y0249201D02*
X0184739Y0249201D01*
X0184739Y0248002D02*
X0196757Y0248002D01*
X0196757Y0246804D02*
X0184739Y0246804D01*
X0184739Y0245605D02*
X0196757Y0245605D01*
X0197509Y0244407D02*
X0184739Y0244407D01*
X0184739Y0243208D02*
X0198707Y0243208D01*
X0199301Y0242010D02*
X0184739Y0242010D01*
X0184739Y0240811D02*
X0198103Y0240811D01*
X0196904Y0239612D02*
X0184739Y0239612D01*
X0184739Y0238414D02*
X0196757Y0238414D01*
X0196757Y0237215D02*
X0184739Y0237215D01*
X0184792Y0236017D02*
X0196757Y0236017D01*
X0197097Y0234818D02*
X0185990Y0234818D01*
X0187189Y0233620D02*
X0198295Y0233620D01*
X0199494Y0232421D02*
X0188387Y0232421D01*
X0189586Y0231223D02*
X0198515Y0231223D01*
X0197316Y0230024D02*
X0190784Y0230024D01*
X0191983Y0228826D02*
X0196757Y0228826D01*
X0196757Y0227627D02*
X0193181Y0227627D01*
X0194380Y0226429D02*
X0196757Y0226429D01*
X0196757Y0225230D02*
X0195578Y0225230D01*
X0194439Y0222410D02*
X0181939Y0234910D01*
X0181939Y0271410D01*
X0113339Y0340010D01*
X0113339Y0374710D01*
X0108139Y0379910D01*
X0103439Y0375210D02*
X0098139Y0369910D01*
X0093339Y0375110D02*
X0098139Y0379910D01*
X0094308Y0383434D02*
X0091969Y0383434D01*
X0090770Y0384632D02*
X0095507Y0384632D01*
X0100639Y0385831D02*
X0084778Y0385831D01*
X0083579Y0387029D02*
X0101198Y0387029D01*
X0102396Y0388228D02*
X0082381Y0388228D01*
X0081182Y0389426D02*
X0103595Y0389426D01*
X0104793Y0390625D02*
X0079501Y0390625D01*
X0078739Y0387910D02*
X0082939Y0383710D01*
X0082939Y0375110D01*
X0088139Y0369910D01*
X0084040Y0366655D02*
X0082237Y0366655D01*
X0083139Y0367556D02*
X0085985Y0364710D01*
X0090292Y0364710D01*
X0090539Y0364956D01*
X0090539Y0352570D01*
X0090165Y0352196D01*
X0089665Y0351696D01*
X0089594Y0351526D01*
X0078965Y0340896D01*
X0078539Y0339867D01*
X0078539Y0271470D01*
X0047180Y0240112D01*
X0042338Y0240112D01*
X0040138Y0242312D01*
X0042984Y0245158D01*
X0042984Y0249466D01*
X0040138Y0252312D01*
X0042984Y0255158D01*
X0042984Y0259466D01*
X0040138Y0262312D01*
X0042984Y0265158D01*
X0042984Y0269466D01*
X0040138Y0272312D01*
X0042984Y0275158D01*
X0042984Y0279466D01*
X0040138Y0282312D01*
X0042984Y0285158D01*
X0042984Y0289466D01*
X0040138Y0292312D01*
X0042984Y0295158D01*
X0042984Y0299466D01*
X0040138Y0302312D01*
X0042984Y0305158D01*
X0042984Y0309466D01*
X0040138Y0312312D01*
X0042984Y0315158D01*
X0042984Y0319466D01*
X0040138Y0322312D01*
X0042984Y0325158D01*
X0042984Y0329466D01*
X0040138Y0332312D01*
X0042984Y0335158D01*
X0042984Y0339466D01*
X0040138Y0342312D01*
X0042984Y0345158D01*
X0042984Y0349466D01*
X0042840Y0349610D01*
X0049896Y0349610D01*
X0050925Y0350037D01*
X0058625Y0357737D01*
X0059412Y0358524D01*
X0059839Y0359553D01*
X0059839Y0369050D01*
X0075898Y0385110D01*
X0077579Y0385110D01*
X0078539Y0384150D01*
X0078539Y0380310D01*
X0077739Y0380310D01*
X0077739Y0384510D01*
X0076233Y0384510D01*
X0073539Y0381816D01*
X0073539Y0380310D01*
X0077738Y0380310D01*
X0077738Y0379510D01*
X0073539Y0379510D01*
X0073539Y0378005D01*
X0076233Y0375310D01*
X0077739Y0375310D01*
X0077739Y0379510D01*
X0078539Y0379510D01*
X0078539Y0375310D01*
X0080044Y0375310D01*
X0080139Y0375405D01*
X0080139Y0375110D01*
X0075985Y0375110D01*
X0072939Y0372064D01*
X0072939Y0367756D01*
X0075985Y0364710D01*
X0080292Y0364710D01*
X0083139Y0367556D01*
X0085239Y0365456D02*
X0081038Y0365456D01*
X0075239Y0365456D02*
X0059839Y0365456D01*
X0059839Y0364258D02*
X0090539Y0364258D01*
X0090539Y0363059D02*
X0059839Y0363059D01*
X0059839Y0361861D02*
X0090539Y0361861D01*
X0090539Y0360662D02*
X0059839Y0360662D01*
X0059801Y0359464D02*
X0090539Y0359464D01*
X0090539Y0358265D02*
X0059153Y0358265D01*
X0057955Y0357067D02*
X0090539Y0357067D01*
X0090539Y0355868D02*
X0056756Y0355868D01*
X0055558Y0354670D02*
X0090539Y0354670D01*
X0090539Y0353471D02*
X0054359Y0353471D01*
X0053161Y0352273D02*
X0090241Y0352273D01*
X0089143Y0351074D02*
X0051962Y0351074D01*
X0050536Y0349876D02*
X0087944Y0349876D01*
X0086746Y0348677D02*
X0042984Y0348677D01*
X0042984Y0347479D02*
X0085547Y0347479D01*
X0084349Y0346280D02*
X0042984Y0346280D01*
X0042908Y0345081D02*
X0083150Y0345081D01*
X0081952Y0343883D02*
X0041709Y0343883D01*
X0040511Y0342684D02*
X0080753Y0342684D01*
X0079555Y0341486D02*
X0040964Y0341486D01*
X0042163Y0340287D02*
X0078713Y0340287D01*
X0078539Y0339089D02*
X0042984Y0339089D01*
X0042984Y0337890D02*
X0078539Y0337890D01*
X0078539Y0336692D02*
X0042984Y0336692D01*
X0042984Y0335493D02*
X0078539Y0335493D01*
X0078539Y0334295D02*
X0042121Y0334295D01*
X0040923Y0333096D02*
X0078539Y0333096D01*
X0078539Y0331898D02*
X0040552Y0331898D01*
X0041751Y0330699D02*
X0078539Y0330699D01*
X0078539Y0329501D02*
X0042949Y0329501D01*
X0042984Y0328302D02*
X0078539Y0328302D01*
X0078539Y0327104D02*
X0042984Y0327104D01*
X0042984Y0325905D02*
X0078539Y0325905D01*
X0078539Y0324707D02*
X0042533Y0324707D01*
X0041335Y0323508D02*
X0078539Y0323508D01*
X0078539Y0322310D02*
X0040140Y0322310D01*
X0041339Y0321111D02*
X0078539Y0321111D01*
X0078539Y0319913D02*
X0042537Y0319913D01*
X0042984Y0318714D02*
X0078539Y0318714D01*
X0078539Y0317516D02*
X0042984Y0317516D01*
X0042984Y0316317D02*
X0078539Y0316317D01*
X0078539Y0315119D02*
X0042945Y0315119D01*
X0041747Y0313920D02*
X0078539Y0313920D01*
X0078539Y0312722D02*
X0040548Y0312722D01*
X0040927Y0311523D02*
X0078539Y0311523D01*
X0078539Y0310325D02*
X0042125Y0310325D01*
X0042984Y0309126D02*
X0078539Y0309126D01*
X0078539Y0307928D02*
X0042984Y0307928D01*
X0042984Y0306729D02*
X0078539Y0306729D01*
X0078539Y0305531D02*
X0042984Y0305531D01*
X0042158Y0304332D02*
X0078539Y0304332D01*
X0078539Y0303134D02*
X0040960Y0303134D01*
X0040515Y0301935D02*
X0078539Y0301935D01*
X0078539Y0300737D02*
X0041713Y0300737D01*
X0042912Y0299538D02*
X0078539Y0299538D01*
X0078539Y0298340D02*
X0042984Y0298340D01*
X0042984Y0297141D02*
X0078539Y0297141D01*
X0078539Y0295943D02*
X0042984Y0295943D01*
X0042570Y0294744D02*
X0078539Y0294744D01*
X0078539Y0293546D02*
X0041372Y0293546D01*
X0040173Y0292347D02*
X0078539Y0292347D01*
X0078539Y0291148D02*
X0041301Y0291148D01*
X0042500Y0289950D02*
X0078539Y0289950D01*
X0078539Y0288751D02*
X0042984Y0288751D01*
X0042984Y0287553D02*
X0078539Y0287553D01*
X0078539Y0286354D02*
X0042984Y0286354D01*
X0042982Y0285156D02*
X0078539Y0285156D01*
X0078539Y0283957D02*
X0041784Y0283957D01*
X0040585Y0282759D02*
X0078539Y0282759D01*
X0078539Y0281560D02*
X0040890Y0281560D01*
X0042088Y0280362D02*
X0078539Y0280362D01*
X0078539Y0279163D02*
X0042984Y0279163D01*
X0042984Y0277965D02*
X0078539Y0277965D01*
X0078539Y0276766D02*
X0042984Y0276766D01*
X0042984Y0275568D02*
X0078539Y0275568D01*
X0078539Y0274369D02*
X0042196Y0274369D01*
X0040997Y0273171D02*
X0078539Y0273171D01*
X0078539Y0271972D02*
X0040478Y0271972D01*
X0041676Y0270774D02*
X0077842Y0270774D01*
X0076644Y0269575D02*
X0042875Y0269575D01*
X0042984Y0268377D02*
X0075445Y0268377D01*
X0074247Y0267178D02*
X0042984Y0267178D01*
X0042984Y0265980D02*
X0073048Y0265980D01*
X0071850Y0264781D02*
X0042608Y0264781D01*
X0041409Y0263583D02*
X0070651Y0263583D01*
X0069453Y0262384D02*
X0040211Y0262384D01*
X0041264Y0261186D02*
X0068254Y0261186D01*
X0067056Y0259987D02*
X0042463Y0259987D01*
X0042984Y0258789D02*
X0065857Y0258789D01*
X0064659Y0257590D02*
X0042984Y0257590D01*
X0042984Y0256392D02*
X0063460Y0256392D01*
X0062262Y0255193D02*
X0042984Y0255193D01*
X0041821Y0253995D02*
X0061063Y0253995D01*
X0059865Y0252796D02*
X0040622Y0252796D01*
X0040852Y0251598D02*
X0058666Y0251598D01*
X0057468Y0250399D02*
X0042051Y0250399D01*
X0042984Y0249201D02*
X0056269Y0249201D01*
X0055071Y0248002D02*
X0042984Y0248002D01*
X0042984Y0246804D02*
X0053872Y0246804D01*
X0052674Y0245605D02*
X0042984Y0245605D01*
X0042233Y0244407D02*
X0051475Y0244407D01*
X0050277Y0243208D02*
X0041034Y0243208D01*
X0040440Y0242010D02*
X0049078Y0242010D01*
X0047880Y0240811D02*
X0041639Y0240811D01*
X0037784Y0237312D02*
X0048340Y0237312D01*
X0081339Y0270310D01*
X0081339Y0339310D01*
X0092039Y0350010D01*
X0092039Y0350110D01*
X0092539Y0350610D01*
X0092639Y0350610D01*
X0093339Y0351310D01*
X0093339Y0375110D01*
X0103439Y0375210D02*
X0103439Y0385310D01*
X0108039Y0389910D01*
X0178939Y0389910D01*
X0196439Y0372410D01*
X0206939Y0372410D01*
X0211957Y0367391D01*
X0211957Y0367312D01*
X0215174Y0371449D02*
X0236060Y0371449D01*
X0236060Y0372647D02*
X0214647Y0372647D01*
X0215845Y0373846D02*
X0236060Y0373846D01*
X0236060Y0375044D02*
X0217044Y0375044D01*
X0217157Y0376243D02*
X0236060Y0376243D01*
X0236060Y0377441D02*
X0217157Y0377441D01*
X0217157Y0378640D02*
X0236060Y0378640D01*
X0236060Y0379838D02*
X0216785Y0379838D01*
X0215586Y0381037D02*
X0236060Y0381037D01*
X0236060Y0382235D02*
X0214388Y0382235D01*
X0215433Y0383434D02*
X0236060Y0383434D01*
X0236060Y0384632D02*
X0216632Y0384632D01*
X0217157Y0385831D02*
X0236060Y0385831D01*
X0236060Y0387029D02*
X0217157Y0387029D01*
X0217157Y0388228D02*
X0236060Y0388228D01*
X0236060Y0389426D02*
X0217157Y0389426D01*
X0215998Y0390625D02*
X0236060Y0390625D01*
X0236060Y0391823D02*
X0214800Y0391823D01*
X0209115Y0391823D02*
X0204800Y0391823D01*
X0205998Y0390625D02*
X0207917Y0390625D01*
X0199115Y0391823D02*
X0180985Y0391823D01*
X0182184Y0390625D02*
X0197917Y0390625D01*
X0196757Y0389426D02*
X0183382Y0389426D01*
X0184581Y0388228D02*
X0196757Y0388228D01*
X0196757Y0387029D02*
X0185779Y0387029D01*
X0186978Y0385831D02*
X0196757Y0385831D01*
X0197283Y0384632D02*
X0188176Y0384632D01*
X0189375Y0383434D02*
X0198482Y0383434D01*
X0199527Y0382235D02*
X0190573Y0382235D01*
X0191772Y0381037D02*
X0198329Y0381037D01*
X0197130Y0379838D02*
X0192970Y0379838D01*
X0194169Y0378640D02*
X0196757Y0378640D01*
X0196757Y0377441D02*
X0195367Y0377441D01*
X0196566Y0376243D02*
X0196757Y0376243D01*
X0197939Y0362310D02*
X0215739Y0362310D01*
X0224739Y0353310D01*
X0224739Y0326510D01*
X0215540Y0317312D01*
X0211957Y0317312D01*
X0211940Y0317312D01*
X0217307Y0315119D02*
X0236060Y0315119D01*
X0236060Y0316317D02*
X0218505Y0316317D01*
X0219704Y0317516D02*
X0236060Y0317516D01*
X0236060Y0318714D02*
X0220902Y0318714D01*
X0222101Y0319913D02*
X0236060Y0319913D01*
X0236060Y0321111D02*
X0223299Y0321111D01*
X0224498Y0322310D02*
X0236060Y0322310D01*
X0236060Y0323508D02*
X0225696Y0323508D01*
X0226895Y0324707D02*
X0236060Y0324707D01*
X0236060Y0325905D02*
X0227519Y0325905D01*
X0227539Y0327104D02*
X0236060Y0327104D01*
X0236060Y0328302D02*
X0227539Y0328302D01*
X0227539Y0329501D02*
X0236060Y0329501D01*
X0236060Y0330699D02*
X0227539Y0330699D01*
X0227539Y0331898D02*
X0236060Y0331898D01*
X0236060Y0333096D02*
X0227539Y0333096D01*
X0227539Y0334295D02*
X0236060Y0334295D01*
X0236060Y0335493D02*
X0227539Y0335493D01*
X0227539Y0336692D02*
X0236060Y0336692D01*
X0236060Y0337890D02*
X0227539Y0337890D01*
X0227539Y0339089D02*
X0236060Y0339089D01*
X0236060Y0340287D02*
X0227539Y0340287D01*
X0227539Y0341486D02*
X0236060Y0341486D01*
X0236060Y0342684D02*
X0227539Y0342684D01*
X0227539Y0343883D02*
X0236060Y0343883D01*
X0236060Y0345081D02*
X0227539Y0345081D01*
X0227539Y0346280D02*
X0236060Y0346280D01*
X0236060Y0347479D02*
X0227539Y0347479D01*
X0227539Y0348677D02*
X0236060Y0348677D01*
X0236060Y0349876D02*
X0227539Y0349876D01*
X0227539Y0351074D02*
X0236060Y0351074D01*
X0236060Y0352273D02*
X0227539Y0352273D01*
X0227539Y0353471D02*
X0236060Y0353471D01*
X0236060Y0354670D02*
X0227206Y0354670D01*
X0226141Y0355868D02*
X0236060Y0355868D01*
X0236060Y0357067D02*
X0224942Y0357067D01*
X0223743Y0358265D02*
X0236060Y0358265D01*
X0236060Y0359464D02*
X0222545Y0359464D01*
X0221346Y0360662D02*
X0236060Y0360662D01*
X0236060Y0361861D02*
X0220148Y0361861D01*
X0218949Y0363059D02*
X0236060Y0363059D01*
X0236060Y0364258D02*
X0217751Y0364258D01*
X0217157Y0365456D02*
X0236060Y0365456D01*
X0236060Y0366655D02*
X0217157Y0366655D01*
X0217157Y0367853D02*
X0236060Y0367853D01*
X0236060Y0369052D02*
X0217157Y0369052D01*
X0216373Y0370250D02*
X0236060Y0370250D01*
X0236060Y0393022D02*
X0149068Y0393022D01*
X0113896Y0335493D02*
X0103282Y0335493D01*
X0104480Y0336692D02*
X0112697Y0336692D01*
X0111753Y0337637D02*
X0143779Y0305610D01*
X0141792Y0305610D01*
X0139039Y0302857D01*
X0136685Y0305210D01*
X0132792Y0305210D01*
X0130039Y0302457D01*
X0130039Y0299770D01*
X0119165Y0288896D01*
X0118739Y0287867D01*
X0118739Y0135170D01*
X0112865Y0129296D01*
X0112439Y0128267D01*
X0112439Y0125210D01*
X0109392Y0125210D01*
X0108939Y0124757D01*
X0108939Y0125767D01*
X0108512Y0126796D01*
X0097325Y0137984D01*
X0096296Y0138410D01*
X0044698Y0138410D01*
X0043425Y0139684D01*
X0042396Y0140110D01*
X0042340Y0140110D01*
X0040138Y0142312D01*
X0042984Y0145158D01*
X0042984Y0149466D01*
X0040138Y0152312D01*
X0042984Y0155158D01*
X0042984Y0159466D01*
X0040138Y0162312D01*
X0042984Y0165158D01*
X0042984Y0169466D01*
X0040138Y0172312D01*
X0042984Y0175158D01*
X0042984Y0179466D01*
X0040138Y0182312D01*
X0042984Y0185158D01*
X0042984Y0189466D01*
X0040138Y0192312D01*
X0042984Y0195158D01*
X0042984Y0199466D01*
X0040138Y0202312D01*
X0042984Y0205158D01*
X0042984Y0209466D01*
X0040138Y0212312D01*
X0042984Y0215158D01*
X0042984Y0219466D01*
X0040138Y0222312D01*
X0042338Y0224512D01*
X0049097Y0224512D01*
X0050126Y0224938D01*
X0091525Y0266337D01*
X0092312Y0267124D01*
X0092739Y0268153D01*
X0092739Y0324950D01*
X0109925Y0342137D01*
X0110539Y0342750D01*
X0110539Y0339453D01*
X0110965Y0338424D01*
X0111753Y0337637D01*
X0111499Y0337890D02*
X0105679Y0337890D01*
X0106877Y0339089D02*
X0110689Y0339089D01*
X0110539Y0340287D02*
X0108076Y0340287D01*
X0109274Y0341486D02*
X0110539Y0341486D01*
X0109925Y0342137D02*
X0109925Y0342137D01*
X0110473Y0342684D02*
X0110539Y0342684D01*
X0108339Y0344510D02*
X0108339Y0369710D01*
X0108139Y0369910D01*
X0105992Y0391823D02*
X0040627Y0391823D01*
X0041825Y0390625D02*
X0073976Y0390625D01*
X0072295Y0389426D02*
X0042984Y0389426D01*
X0042984Y0388228D02*
X0071096Y0388228D01*
X0069898Y0387029D02*
X0042984Y0387029D01*
X0042984Y0385831D02*
X0068699Y0385831D01*
X0067501Y0384632D02*
X0042459Y0384632D01*
X0041260Y0383434D02*
X0066302Y0383434D01*
X0065104Y0382235D02*
X0040215Y0382235D01*
X0041413Y0381037D02*
X0063905Y0381037D01*
X0062707Y0379838D02*
X0042612Y0379838D01*
X0042984Y0378640D02*
X0061508Y0378640D01*
X0060310Y0377441D02*
X0042984Y0377441D01*
X0042984Y0376243D02*
X0059111Y0376243D01*
X0057913Y0375044D02*
X0042871Y0375044D01*
X0041672Y0373846D02*
X0056714Y0373846D01*
X0055516Y0372647D02*
X0040474Y0372647D01*
X0041001Y0371449D02*
X0054521Y0371449D01*
X0054239Y0370250D02*
X0042200Y0370250D01*
X0042984Y0369052D02*
X0054239Y0369052D01*
X0054239Y0367853D02*
X0042984Y0367853D01*
X0042984Y0366655D02*
X0054239Y0366655D01*
X0054239Y0365456D02*
X0042984Y0365456D01*
X0042084Y0364258D02*
X0054239Y0364258D01*
X0054239Y0363059D02*
X0040885Y0363059D01*
X0040589Y0361861D02*
X0054239Y0361861D01*
X0053631Y0360662D02*
X0041788Y0360662D01*
X0042984Y0359464D02*
X0052432Y0359464D01*
X0051234Y0358265D02*
X0042984Y0358265D01*
X0042984Y0357067D02*
X0050035Y0357067D01*
X0048837Y0355868D02*
X0042984Y0355868D01*
X0049339Y0352410D02*
X0057039Y0360110D01*
X0057039Y0370210D01*
X0074739Y0387910D01*
X0078739Y0387910D01*
X0078057Y0384632D02*
X0075421Y0384632D01*
X0075157Y0383434D02*
X0074222Y0383434D01*
X0073958Y0382235D02*
X0073023Y0382235D01*
X0073539Y0381037D02*
X0071825Y0381037D01*
X0070626Y0379838D02*
X0077738Y0379838D01*
X0078139Y0379910D02*
X0069439Y0371210D01*
X0069439Y0356910D01*
X0074040Y0366655D02*
X0059839Y0366655D01*
X0059839Y0367853D02*
X0072939Y0367853D01*
X0072939Y0369052D02*
X0059840Y0369052D01*
X0061038Y0370250D02*
X0072939Y0370250D01*
X0072939Y0371449D02*
X0062237Y0371449D01*
X0063435Y0372647D02*
X0073522Y0372647D01*
X0074720Y0373846D02*
X0064634Y0373846D01*
X0065832Y0375044D02*
X0075919Y0375044D01*
X0075301Y0376243D02*
X0067031Y0376243D01*
X0068229Y0377441D02*
X0074102Y0377441D01*
X0073539Y0378640D02*
X0069428Y0378640D01*
X0077739Y0378640D02*
X0078539Y0378640D01*
X0078539Y0377441D02*
X0077739Y0377441D01*
X0077739Y0376243D02*
X0078539Y0376243D01*
X0078539Y0381037D02*
X0077739Y0381037D01*
X0077739Y0382235D02*
X0078539Y0382235D01*
X0078539Y0383434D02*
X0077739Y0383434D01*
X0049339Y0352410D02*
X0024739Y0352410D01*
X0014939Y0342610D01*
X0014939Y0099610D01*
X0026339Y0088210D01*
X0029039Y0088210D01*
X0032480Y0085005D02*
X0069697Y0085005D01*
X0069339Y0086203D02*
X0033678Y0086203D01*
X0033739Y0087402D02*
X0067000Y0087402D01*
X0065802Y0088600D02*
X0033739Y0088600D01*
X0033739Y0089799D02*
X0064603Y0089799D01*
X0064539Y0090997D02*
X0032898Y0090997D01*
X0031700Y0092196D02*
X0064539Y0092196D01*
X0064539Y0093394D02*
X0040372Y0093394D01*
X0041570Y0094593D02*
X0065309Y0094593D01*
X0064111Y0095791D02*
X0042384Y0095791D01*
X0042384Y0098188D02*
X0063939Y0098188D01*
X0063939Y0096990D02*
X0038184Y0096990D01*
X0037784Y0097312D02*
X0045346Y0097312D01*
X0053493Y0089165D01*
X0053493Y0089365D01*
X0060539Y0096410D01*
X0063939Y0099387D02*
X0042215Y0099387D01*
X0037784Y0097312D02*
X0027784Y0097312D01*
X0027384Y0096990D02*
X0021519Y0096990D01*
X0023184Y0096912D02*
X0023184Y0095406D01*
X0025879Y0092712D01*
X0026893Y0092712D01*
X0026345Y0092164D01*
X0017739Y0100770D01*
X0017739Y0102250D01*
X0019365Y0100624D01*
X0020153Y0099837D01*
X0021182Y0099410D01*
X0023377Y0099410D01*
X0023184Y0099217D01*
X0023184Y0097712D01*
X0027384Y0097712D01*
X0027384Y0096912D01*
X0023184Y0096912D01*
X0023184Y0095791D02*
X0022717Y0095791D01*
X0023916Y0094593D02*
X0023998Y0094593D01*
X0025114Y0093394D02*
X0025197Y0093394D01*
X0026313Y0092196D02*
X0026377Y0092196D01*
X0028184Y0096990D02*
X0037384Y0096990D01*
X0037384Y0095791D02*
X0038184Y0095791D01*
X0038184Y0094593D02*
X0037384Y0094593D01*
X0037384Y0093394D02*
X0038184Y0093394D01*
X0035197Y0093394D02*
X0030372Y0093394D01*
X0031570Y0094593D02*
X0033998Y0094593D01*
X0033184Y0095791D02*
X0032384Y0095791D01*
X0032384Y0098188D02*
X0033184Y0098188D01*
X0033354Y0099387D02*
X0032215Y0099387D01*
X0037784Y0107312D02*
X0049740Y0107312D01*
X0060539Y0107310D01*
X0065739Y0112410D02*
X0096032Y0082117D01*
X0096032Y0060406D01*
X0094064Y0060406D02*
X0093964Y0080585D01*
X0072339Y0102210D01*
X0021739Y0102210D01*
X0017739Y0106210D01*
X0017739Y0149210D01*
X0020739Y0152210D01*
X0033139Y0152210D01*
X0037784Y0156856D01*
X0037784Y0157312D01*
X0040741Y0161709D02*
X0118739Y0161709D01*
X0118739Y0160511D02*
X0041939Y0160511D01*
X0042984Y0159312D02*
X0118739Y0159312D01*
X0118739Y0158114D02*
X0042984Y0158114D01*
X0042984Y0156915D02*
X0118739Y0156915D01*
X0118739Y0155717D02*
X0042984Y0155717D01*
X0042345Y0154518D02*
X0118739Y0154518D01*
X0118739Y0153320D02*
X0041146Y0153320D01*
X0040329Y0152121D02*
X0118739Y0152121D01*
X0118739Y0150923D02*
X0041527Y0150923D01*
X0042726Y0149724D02*
X0118739Y0149724D01*
X0118739Y0148526D02*
X0042984Y0148526D01*
X0042984Y0147327D02*
X0118739Y0147327D01*
X0118739Y0146129D02*
X0042984Y0146129D01*
X0042756Y0144930D02*
X0118739Y0144930D01*
X0118739Y0143732D02*
X0041558Y0143732D01*
X0040359Y0142533D02*
X0118739Y0142533D01*
X0118739Y0141335D02*
X0041115Y0141335D01*
X0042314Y0140136D02*
X0118739Y0140136D01*
X0118739Y0138938D02*
X0044171Y0138938D01*
X0041839Y0137310D02*
X0043539Y0135610D01*
X0095739Y0135610D01*
X0106139Y0125210D01*
X0106139Y0077310D01*
X0101938Y0073109D01*
X0101938Y0060406D01*
X0103906Y0060406D02*
X0103906Y0051678D01*
X0102239Y0048810D01*
X0105529Y0045454D02*
X0112748Y0045454D01*
X0111550Y0046652D02*
X0106727Y0046652D01*
X0106939Y0047851D02*
X0110351Y0047851D01*
X0114839Y0050010D02*
X0111780Y0055269D01*
X0111780Y0060406D01*
X0109812Y0060406D02*
X0109812Y0064783D01*
X0110512Y0064783D01*
X0111539Y0065810D01*
X0111639Y0071810D01*
X0108598Y0075416D02*
X0108205Y0075416D01*
X0108512Y0075724D02*
X0107725Y0074937D01*
X0104898Y0072110D01*
X0106939Y0072110D01*
X0106939Y0073757D01*
X0109692Y0076510D01*
X0112917Y0076510D01*
X0112917Y0115810D01*
X0109392Y0115810D01*
X0108939Y0116263D01*
X0108939Y0076753D01*
X0108512Y0075724D01*
X0108881Y0076615D02*
X0112917Y0076615D01*
X0112917Y0077813D02*
X0108939Y0077813D01*
X0108939Y0079012D02*
X0112917Y0079012D01*
X0112917Y0080210D02*
X0108939Y0080210D01*
X0108939Y0081409D02*
X0112917Y0081409D01*
X0112917Y0082608D02*
X0108939Y0082608D01*
X0108939Y0083806D02*
X0112917Y0083806D01*
X0112917Y0085005D02*
X0108939Y0085005D01*
X0108939Y0086203D02*
X0112917Y0086203D01*
X0112917Y0087402D02*
X0108939Y0087402D01*
X0108939Y0088600D02*
X0112917Y0088600D01*
X0112917Y0089799D02*
X0108939Y0089799D01*
X0108939Y0090997D02*
X0112917Y0090997D01*
X0112917Y0092196D02*
X0108939Y0092196D01*
X0108939Y0093394D02*
X0112917Y0093394D01*
X0112917Y0094593D02*
X0108939Y0094593D01*
X0108939Y0095791D02*
X0112917Y0095791D01*
X0112917Y0096990D02*
X0108939Y0096990D01*
X0108939Y0098188D02*
X0112917Y0098188D01*
X0112917Y0099387D02*
X0108939Y0099387D01*
X0108939Y0100585D02*
X0112917Y0100585D01*
X0112917Y0101784D02*
X0108939Y0101784D01*
X0108939Y0102982D02*
X0112917Y0102982D01*
X0112917Y0104181D02*
X0108939Y0104181D01*
X0108939Y0105379D02*
X0112917Y0105379D01*
X0112917Y0106578D02*
X0108939Y0106578D01*
X0108939Y0107776D02*
X0112917Y0107776D01*
X0112917Y0108975D02*
X0108939Y0108975D01*
X0108939Y0110173D02*
X0112917Y0110173D01*
X0112917Y0111372D02*
X0108939Y0111372D01*
X0108939Y0112570D02*
X0112917Y0112570D01*
X0112917Y0113769D02*
X0108939Y0113769D01*
X0108939Y0114967D02*
X0112917Y0114967D01*
X0109036Y0116166D02*
X0108939Y0116166D01*
X0111339Y0120510D02*
X0115717Y0117631D01*
X0115717Y0060406D01*
X0113749Y0060406D02*
X0113749Y0056500D01*
X0115939Y0054310D01*
X0120639Y0054310D01*
X0120739Y0053610D01*
X0124023Y0050248D02*
X0124639Y0050248D01*
X0124639Y0049049D02*
X0122824Y0049049D01*
X0124639Y0047851D02*
X0119326Y0047851D01*
X0118127Y0046652D02*
X0125350Y0046652D01*
X0125560Y0046489D02*
X0125560Y0060406D01*
X0127528Y0060406D02*
X0127528Y0054320D01*
X0129339Y0049310D01*
X0133434Y0047215D02*
X0130429Y0044210D01*
X0127339Y0044210D01*
X0126139Y0045410D01*
X0126139Y0045910D01*
X0124039Y0043810D01*
X0121739Y0043810D01*
X0125560Y0046489D02*
X0126139Y0045910D01*
X0126548Y0045454D02*
X0116929Y0045454D01*
X0108239Y0052910D02*
X0105875Y0054074D01*
X0105875Y0060406D01*
X0107843Y0060406D02*
X0107843Y0065506D01*
X0105939Y0067410D01*
X0105808Y0073019D02*
X0106939Y0073019D01*
X0107006Y0074218D02*
X0107399Y0074218D01*
X0104139Y0078410D02*
X0104139Y0122310D01*
X0094439Y0132010D01*
X0094339Y0132010D01*
X0094039Y0132310D01*
X0079839Y0132310D01*
X0076239Y0132310D01*
X0032786Y0132310D01*
X0027784Y0137312D01*
X0025139Y0142410D02*
X0032883Y0142410D01*
X0037784Y0147312D01*
X0037784Y0137312D02*
X0037786Y0137310D01*
X0041839Y0137310D01*
X0040439Y0121910D02*
X0095039Y0121910D01*
X0101739Y0115210D01*
X0101739Y0079310D01*
X0098001Y0075572D01*
X0098001Y0060406D01*
X0099969Y0060406D02*
X0099969Y0074241D01*
X0104139Y0078410D01*
X0091995Y0078654D02*
X0092095Y0060406D01*
X0090127Y0060406D02*
X0090127Y0077322D01*
X0076239Y0091310D01*
X0075439Y0091910D01*
X0071539Y0091310D01*
X0068939Y0091810D01*
X0070439Y0092910D01*
X0069239Y0091810D01*
X0069639Y0097310D02*
X0068639Y0097910D01*
X0069639Y0097310D02*
X0073739Y0097310D01*
X0091995Y0078654D01*
X0087858Y0076491D02*
X0075839Y0088510D01*
X0074539Y0087710D01*
X0074039Y0087310D01*
X0074189Y0082608D02*
X0004339Y0082608D01*
X0004339Y0083806D02*
X0026796Y0083806D01*
X0025597Y0085005D02*
X0004339Y0085005D01*
X0004339Y0086203D02*
X0024386Y0086203D01*
X0023187Y0087402D02*
X0004339Y0087402D01*
X0004339Y0088600D02*
X0021989Y0088600D01*
X0020790Y0089799D02*
X0004339Y0089799D01*
X0004339Y0090997D02*
X0019592Y0090997D01*
X0018393Y0092196D02*
X0004339Y0092196D01*
X0004339Y0093394D02*
X0017195Y0093394D01*
X0015996Y0094593D02*
X0004339Y0094593D01*
X0004339Y0095791D02*
X0014798Y0095791D01*
X0013599Y0096990D02*
X0004339Y0096990D01*
X0004339Y0098188D02*
X0012497Y0098188D01*
X0012139Y0099387D02*
X0004339Y0099387D01*
X0004339Y0100585D02*
X0012139Y0100585D01*
X0012139Y0101784D02*
X0004339Y0101784D01*
X0004339Y0102982D02*
X0012139Y0102982D01*
X0012139Y0104181D02*
X0004339Y0104181D01*
X0004339Y0105379D02*
X0012139Y0105379D01*
X0012139Y0106578D02*
X0004339Y0106578D01*
X0004339Y0107776D02*
X0012139Y0107776D01*
X0012139Y0108975D02*
X0004339Y0108975D01*
X0004339Y0110173D02*
X0012139Y0110173D01*
X0012139Y0111372D02*
X0004339Y0111372D01*
X0004339Y0112570D02*
X0012139Y0112570D01*
X0012139Y0113769D02*
X0004339Y0113769D01*
X0004339Y0114967D02*
X0012139Y0114967D01*
X0012139Y0116166D02*
X0004339Y0116166D01*
X0004339Y0117364D02*
X0012139Y0117364D01*
X0012139Y0118563D02*
X0004339Y0118563D01*
X0004339Y0119761D02*
X0012139Y0119761D01*
X0012139Y0120960D02*
X0004339Y0120960D01*
X0004339Y0122158D02*
X0012139Y0122158D01*
X0012139Y0123357D02*
X0004339Y0123357D01*
X0004339Y0124555D02*
X0012139Y0124555D01*
X0012139Y0125754D02*
X0004339Y0125754D01*
X0004339Y0126952D02*
X0012139Y0126952D01*
X0012139Y0128151D02*
X0004339Y0128151D01*
X0004339Y0129349D02*
X0012139Y0129349D01*
X0012139Y0130548D02*
X0004339Y0130548D01*
X0004339Y0131746D02*
X0012139Y0131746D01*
X0012139Y0132945D02*
X0004339Y0132945D01*
X0004339Y0134144D02*
X0012139Y0134144D01*
X0012139Y0135342D02*
X0004339Y0135342D01*
X0004339Y0136541D02*
X0012139Y0136541D01*
X0012139Y0137739D02*
X0004339Y0137739D01*
X0004339Y0138938D02*
X0012139Y0138938D01*
X0012139Y0140136D02*
X0004339Y0140136D01*
X0004339Y0141335D02*
X0012139Y0141335D01*
X0012139Y0142533D02*
X0004339Y0142533D01*
X0004339Y0143732D02*
X0012139Y0143732D01*
X0012139Y0144930D02*
X0004339Y0144930D01*
X0004339Y0146129D02*
X0012139Y0146129D01*
X0012139Y0147327D02*
X0004339Y0147327D01*
X0004339Y0148526D02*
X0012139Y0148526D01*
X0012139Y0149724D02*
X0004339Y0149724D01*
X0004339Y0150923D02*
X0012139Y0150923D01*
X0012139Y0152121D02*
X0004339Y0152121D01*
X0004339Y0153320D02*
X0012139Y0153320D01*
X0012139Y0154518D02*
X0004339Y0154518D01*
X0004339Y0155717D02*
X0012139Y0155717D01*
X0012139Y0156915D02*
X0004339Y0156915D01*
X0004339Y0158114D02*
X0012139Y0158114D01*
X0012139Y0159312D02*
X0004339Y0159312D01*
X0004339Y0160511D02*
X0012139Y0160511D01*
X0012139Y0161709D02*
X0004339Y0161709D01*
X0004339Y0162908D02*
X0012139Y0162908D01*
X0012139Y0164106D02*
X0004339Y0164106D01*
X0004339Y0165305D02*
X0012139Y0165305D01*
X0012139Y0166503D02*
X0004339Y0166503D01*
X0004339Y0167702D02*
X0012139Y0167702D01*
X0012139Y0168900D02*
X0004339Y0168900D01*
X0004339Y0170099D02*
X0012139Y0170099D01*
X0012139Y0171297D02*
X0004339Y0171297D01*
X0004339Y0172496D02*
X0012139Y0172496D01*
X0012139Y0173694D02*
X0004339Y0173694D01*
X0004339Y0174893D02*
X0012139Y0174893D01*
X0012139Y0176091D02*
X0004339Y0176091D01*
X0004339Y0177290D02*
X0012139Y0177290D01*
X0012139Y0178488D02*
X0004339Y0178488D01*
X0004339Y0179687D02*
X0012139Y0179687D01*
X0012139Y0180885D02*
X0004339Y0180885D01*
X0004339Y0182084D02*
X0012139Y0182084D01*
X0012139Y0183282D02*
X0004339Y0183282D01*
X0004339Y0184481D02*
X0012139Y0184481D01*
X0012139Y0185679D02*
X0004339Y0185679D01*
X0004339Y0186878D02*
X0012139Y0186878D01*
X0012139Y0188077D02*
X0004339Y0188077D01*
X0004339Y0189275D02*
X0012139Y0189275D01*
X0012139Y0190474D02*
X0004339Y0190474D01*
X0004339Y0191672D02*
X0012139Y0191672D01*
X0012139Y0192871D02*
X0004339Y0192871D01*
X0004339Y0194069D02*
X0012139Y0194069D01*
X0012139Y0195268D02*
X0004339Y0195268D01*
X0004339Y0196466D02*
X0012139Y0196466D01*
X0012139Y0197665D02*
X0004339Y0197665D01*
X0004339Y0198863D02*
X0012139Y0198863D01*
X0012139Y0200062D02*
X0004339Y0200062D01*
X0004339Y0201260D02*
X0012139Y0201260D01*
X0012139Y0202459D02*
X0004339Y0202459D01*
X0004339Y0203657D02*
X0012139Y0203657D01*
X0012139Y0204856D02*
X0004339Y0204856D01*
X0004339Y0206054D02*
X0012139Y0206054D01*
X0012139Y0207253D02*
X0004339Y0207253D01*
X0004339Y0208451D02*
X0012139Y0208451D01*
X0012139Y0209650D02*
X0004339Y0209650D01*
X0004339Y0210848D02*
X0012139Y0210848D01*
X0012139Y0212047D02*
X0004339Y0212047D01*
X0004339Y0213245D02*
X0012139Y0213245D01*
X0012139Y0214444D02*
X0004339Y0214444D01*
X0004339Y0215642D02*
X0012139Y0215642D01*
X0012139Y0216841D02*
X0004339Y0216841D01*
X0004339Y0218039D02*
X0012139Y0218039D01*
X0012139Y0219238D02*
X0004339Y0219238D01*
X0004339Y0220436D02*
X0012139Y0220436D01*
X0012139Y0221635D02*
X0004339Y0221635D01*
X0004339Y0222833D02*
X0012139Y0222833D01*
X0012139Y0224032D02*
X0004339Y0224032D01*
X0004339Y0225230D02*
X0012139Y0225230D01*
X0012139Y0226429D02*
X0004339Y0226429D01*
X0004339Y0227627D02*
X0012139Y0227627D01*
X0012139Y0228826D02*
X0004339Y0228826D01*
X0004339Y0230024D02*
X0012139Y0230024D01*
X0012139Y0231223D02*
X0004339Y0231223D01*
X0004339Y0232421D02*
X0012139Y0232421D01*
X0012139Y0233620D02*
X0004339Y0233620D01*
X0004339Y0234818D02*
X0012139Y0234818D01*
X0012139Y0236017D02*
X0004339Y0236017D01*
X0004339Y0237215D02*
X0012139Y0237215D01*
X0012139Y0238414D02*
X0004339Y0238414D01*
X0004339Y0239612D02*
X0012139Y0239612D01*
X0012139Y0240811D02*
X0004339Y0240811D01*
X0004339Y0242010D02*
X0012139Y0242010D01*
X0012139Y0243208D02*
X0004339Y0243208D01*
X0004339Y0244407D02*
X0012139Y0244407D01*
X0012139Y0245605D02*
X0004339Y0245605D01*
X0004339Y0246804D02*
X0012139Y0246804D01*
X0012139Y0248002D02*
X0004339Y0248002D01*
X0004339Y0249201D02*
X0012139Y0249201D01*
X0012139Y0250399D02*
X0004339Y0250399D01*
X0004339Y0251598D02*
X0012139Y0251598D01*
X0012139Y0252796D02*
X0004339Y0252796D01*
X0004339Y0253995D02*
X0012139Y0253995D01*
X0012139Y0255193D02*
X0004339Y0255193D01*
X0004339Y0256392D02*
X0012139Y0256392D01*
X0012139Y0257590D02*
X0004339Y0257590D01*
X0004339Y0258789D02*
X0012139Y0258789D01*
X0012139Y0259987D02*
X0004339Y0259987D01*
X0004339Y0261186D02*
X0012139Y0261186D01*
X0012139Y0262384D02*
X0004339Y0262384D01*
X0004339Y0263583D02*
X0012139Y0263583D01*
X0012139Y0264781D02*
X0004339Y0264781D01*
X0004339Y0265980D02*
X0012139Y0265980D01*
X0012139Y0267178D02*
X0004339Y0267178D01*
X0004339Y0268377D02*
X0012139Y0268377D01*
X0012139Y0269575D02*
X0004339Y0269575D01*
X0004339Y0270774D02*
X0012139Y0270774D01*
X0012139Y0271972D02*
X0004339Y0271972D01*
X0004339Y0273171D02*
X0012139Y0273171D01*
X0012139Y0274369D02*
X0004339Y0274369D01*
X0004339Y0275568D02*
X0012139Y0275568D01*
X0012139Y0276766D02*
X0004339Y0276766D01*
X0004339Y0277965D02*
X0012139Y0277965D01*
X0012139Y0279163D02*
X0004339Y0279163D01*
X0004339Y0280362D02*
X0012139Y0280362D01*
X0012139Y0281560D02*
X0004339Y0281560D01*
X0004339Y0282759D02*
X0012139Y0282759D01*
X0012139Y0283957D02*
X0004339Y0283957D01*
X0004339Y0285156D02*
X0012139Y0285156D01*
X0012139Y0286354D02*
X0004339Y0286354D01*
X0004339Y0287553D02*
X0012139Y0287553D01*
X0012139Y0288751D02*
X0004339Y0288751D01*
X0004339Y0289950D02*
X0012139Y0289950D01*
X0012139Y0291148D02*
X0004339Y0291148D01*
X0004339Y0292347D02*
X0012139Y0292347D01*
X0012139Y0293546D02*
X0004339Y0293546D01*
X0004339Y0294744D02*
X0012139Y0294744D01*
X0012139Y0295943D02*
X0004339Y0295943D01*
X0004339Y0297141D02*
X0012139Y0297141D01*
X0012139Y0298340D02*
X0004339Y0298340D01*
X0004339Y0299538D02*
X0012139Y0299538D01*
X0012139Y0300737D02*
X0004339Y0300737D01*
X0004339Y0301935D02*
X0012139Y0301935D01*
X0012139Y0303134D02*
X0004339Y0303134D01*
X0004339Y0304332D02*
X0012139Y0304332D01*
X0012139Y0305531D02*
X0004339Y0305531D01*
X0004339Y0306729D02*
X0012139Y0306729D01*
X0012139Y0307928D02*
X0004339Y0307928D01*
X0004339Y0309126D02*
X0012139Y0309126D01*
X0012139Y0310325D02*
X0004339Y0310325D01*
X0004339Y0311523D02*
X0012139Y0311523D01*
X0012139Y0312722D02*
X0004339Y0312722D01*
X0004339Y0313920D02*
X0012139Y0313920D01*
X0012139Y0315119D02*
X0004339Y0315119D01*
X0004339Y0316317D02*
X0012139Y0316317D01*
X0012139Y0317516D02*
X0004339Y0317516D01*
X0004339Y0318714D02*
X0012139Y0318714D01*
X0012139Y0319913D02*
X0004339Y0319913D01*
X0004339Y0321111D02*
X0012139Y0321111D01*
X0012139Y0322310D02*
X0004339Y0322310D01*
X0004339Y0323508D02*
X0012139Y0323508D01*
X0012139Y0324707D02*
X0004339Y0324707D01*
X0004339Y0325905D02*
X0012139Y0325905D01*
X0012139Y0327104D02*
X0004339Y0327104D01*
X0004339Y0328302D02*
X0012139Y0328302D01*
X0012139Y0329501D02*
X0004339Y0329501D01*
X0004339Y0330699D02*
X0012139Y0330699D01*
X0012139Y0331898D02*
X0004339Y0331898D01*
X0004339Y0333096D02*
X0012139Y0333096D01*
X0012139Y0334295D02*
X0004339Y0334295D01*
X0004339Y0335493D02*
X0012139Y0335493D01*
X0012139Y0336692D02*
X0004339Y0336692D01*
X0004339Y0337890D02*
X0012139Y0337890D01*
X0012139Y0339089D02*
X0004339Y0339089D01*
X0004339Y0340287D02*
X0012139Y0340287D01*
X0012139Y0341486D02*
X0004339Y0341486D01*
X0004339Y0342684D02*
X0012139Y0342684D01*
X0012435Y0343883D02*
X0004339Y0343883D01*
X0004339Y0345081D02*
X0013450Y0345081D01*
X0014649Y0346280D02*
X0004339Y0346280D01*
X0004339Y0347479D02*
X0015847Y0347479D01*
X0017046Y0348677D02*
X0004339Y0348677D01*
X0004339Y0349876D02*
X0018244Y0349876D01*
X0019443Y0351074D02*
X0004339Y0351074D01*
X0004339Y0352273D02*
X0020641Y0352273D01*
X0021840Y0353471D02*
X0004339Y0353471D01*
X0004339Y0354670D02*
X0023038Y0354670D01*
X0022584Y0355868D02*
X0004339Y0355868D01*
X0004339Y0357067D02*
X0022584Y0357067D01*
X0022584Y0358265D02*
X0004339Y0358265D01*
X0004339Y0359464D02*
X0022584Y0359464D01*
X0023781Y0360662D02*
X0004339Y0360662D01*
X0004339Y0361861D02*
X0024979Y0361861D01*
X0024683Y0363059D02*
X0004339Y0363059D01*
X0004339Y0364258D02*
X0023484Y0364258D01*
X0022584Y0365456D02*
X0004339Y0365456D01*
X0004339Y0366655D02*
X0022584Y0366655D01*
X0022584Y0367853D02*
X0004339Y0367853D01*
X0004339Y0369052D02*
X0022584Y0369052D01*
X0023369Y0370250D02*
X0004339Y0370250D01*
X0004339Y0371449D02*
X0024567Y0371449D01*
X0025095Y0372647D02*
X0004339Y0372647D01*
X0004339Y0373846D02*
X0023896Y0373846D01*
X0022698Y0375044D02*
X0004339Y0375044D01*
X0004339Y0376243D02*
X0022584Y0376243D01*
X0022584Y0377441D02*
X0004339Y0377441D01*
X0004339Y0378640D02*
X0022584Y0378640D01*
X0022957Y0379838D02*
X0004339Y0379838D01*
X0004339Y0381037D02*
X0024155Y0381037D01*
X0025354Y0382235D02*
X0004339Y0382235D01*
X0004339Y0383434D02*
X0024308Y0383434D01*
X0023110Y0384632D02*
X0004339Y0384632D01*
X0004339Y0385831D02*
X0022584Y0385831D01*
X0022584Y0387029D02*
X0004339Y0387029D01*
X0004339Y0388228D02*
X0022584Y0388228D01*
X0022584Y0389426D02*
X0004339Y0389426D01*
X0004339Y0390625D02*
X0023743Y0390625D01*
X0024942Y0391823D02*
X0004339Y0391823D01*
X0004339Y0392717D02*
X0236060Y0393206D01*
X0236060Y0005905D01*
X0004339Y0005416D01*
X0004339Y0392717D01*
X0030627Y0391823D02*
X0034942Y0391823D01*
X0033743Y0390625D02*
X0031825Y0390625D01*
X0089939Y0326110D02*
X0108339Y0344510D01*
X0102083Y0334295D02*
X0115094Y0334295D01*
X0116293Y0333096D02*
X0100885Y0333096D01*
X0099686Y0331898D02*
X0117491Y0331898D01*
X0118690Y0330699D02*
X0098487Y0330699D01*
X0097289Y0329501D02*
X0119888Y0329501D01*
X0121087Y0328302D02*
X0096090Y0328302D01*
X0094892Y0327104D02*
X0122285Y0327104D01*
X0123484Y0325905D02*
X0093693Y0325905D01*
X0092739Y0324707D02*
X0124682Y0324707D01*
X0125881Y0323508D02*
X0092739Y0323508D01*
X0092739Y0322310D02*
X0127079Y0322310D01*
X0128278Y0321111D02*
X0092739Y0321111D01*
X0092739Y0319913D02*
X0129476Y0319913D01*
X0130675Y0318714D02*
X0092739Y0318714D01*
X0092739Y0317516D02*
X0131873Y0317516D01*
X0133072Y0316317D02*
X0092739Y0316317D01*
X0092739Y0315119D02*
X0134270Y0315119D01*
X0135469Y0313920D02*
X0092739Y0313920D01*
X0092739Y0312722D02*
X0136667Y0312722D01*
X0137866Y0311523D02*
X0092739Y0311523D01*
X0092739Y0310325D02*
X0139064Y0310325D01*
X0140263Y0309126D02*
X0092739Y0309126D01*
X0092739Y0307928D02*
X0141461Y0307928D01*
X0142660Y0306729D02*
X0092739Y0306729D01*
X0092739Y0305531D02*
X0141712Y0305531D01*
X0140514Y0304332D02*
X0137563Y0304332D01*
X0138762Y0303134D02*
X0139315Y0303134D01*
X0139039Y0302857D02*
X0139039Y0302857D01*
X0139439Y0298563D02*
X0140939Y0297063D01*
X0140939Y0283353D01*
X0141365Y0282324D01*
X0142153Y0281537D01*
X0166239Y0257450D01*
X0166239Y0213553D01*
X0166665Y0212524D01*
X0167453Y0211737D01*
X0183463Y0195726D01*
X0183463Y0195726D01*
X0184251Y0194938D01*
X0185280Y0194512D01*
X0196820Y0194512D01*
X0196753Y0194484D01*
X0195965Y0193696D01*
X0122454Y0120186D01*
X0122454Y0122279D01*
X0124239Y0124063D01*
X0124239Y0127957D01*
X0121842Y0130354D01*
X0123125Y0131637D01*
X0123912Y0132424D01*
X0124339Y0133453D01*
X0124339Y0286150D01*
X0133998Y0295810D01*
X0136685Y0295810D01*
X0139439Y0298563D01*
X0139439Y0298563D01*
X0139662Y0298340D02*
X0139215Y0298340D01*
X0138016Y0297141D02*
X0140861Y0297141D01*
X0140939Y0295943D02*
X0136818Y0295943D01*
X0132932Y0294744D02*
X0140939Y0294744D01*
X0140939Y0293546D02*
X0131734Y0293546D01*
X0130535Y0292347D02*
X0140939Y0292347D01*
X0140939Y0291148D02*
X0129337Y0291148D01*
X0128138Y0289950D02*
X0140939Y0289950D01*
X0140939Y0288751D02*
X0126940Y0288751D01*
X0125741Y0287553D02*
X0140939Y0287553D01*
X0140939Y0286354D02*
X0124543Y0286354D01*
X0124339Y0285156D02*
X0140939Y0285156D01*
X0140939Y0283957D02*
X0124339Y0283957D01*
X0124339Y0282759D02*
X0141185Y0282759D01*
X0142129Y0281560D02*
X0124339Y0281560D01*
X0124339Y0280362D02*
X0143327Y0280362D01*
X0142153Y0281537D02*
X0142153Y0281537D01*
X0143739Y0283910D02*
X0143739Y0300910D01*
X0151239Y0295110D02*
X0174639Y0271310D01*
X0174639Y0217910D01*
X0190339Y0202210D01*
X0206639Y0202210D01*
X0211537Y0197312D01*
X0211957Y0197312D01*
X0216539Y0192110D02*
X0221239Y0196810D01*
X0221239Y0265610D01*
X0214639Y0272210D01*
X0196139Y0272210D01*
X0193539Y0274810D01*
X0193539Y0287910D01*
X0197939Y0292310D01*
X0206956Y0292310D01*
X0211957Y0297312D01*
X0207256Y0302610D02*
X0201957Y0297312D01*
X0201957Y0287312D02*
X0207259Y0282010D01*
X0217339Y0282010D01*
X0223739Y0275610D01*
X0223739Y0188710D01*
X0217139Y0182110D01*
X0197739Y0182110D01*
X0123591Y0107963D01*
X0123591Y0060406D01*
X0121623Y0060406D02*
X0121623Y0115394D01*
X0198339Y0192110D01*
X0216539Y0192110D01*
X0201957Y0197312D02*
X0185837Y0197312D01*
X0169039Y0214110D01*
X0169039Y0258610D01*
X0143739Y0283910D01*
X0144526Y0279163D02*
X0124339Y0279163D01*
X0124339Y0277965D02*
X0145724Y0277965D01*
X0146923Y0276766D02*
X0124339Y0276766D01*
X0124339Y0275568D02*
X0148121Y0275568D01*
X0149320Y0274369D02*
X0124339Y0274369D01*
X0124339Y0273171D02*
X0150518Y0273171D01*
X0151717Y0271972D02*
X0124339Y0271972D01*
X0124339Y0270774D02*
X0152915Y0270774D01*
X0154114Y0269575D02*
X0124339Y0269575D01*
X0124339Y0268377D02*
X0155312Y0268377D01*
X0156511Y0267178D02*
X0124339Y0267178D01*
X0124339Y0265980D02*
X0157709Y0265980D01*
X0158908Y0264781D02*
X0124339Y0264781D01*
X0124339Y0263583D02*
X0160106Y0263583D01*
X0161305Y0262384D02*
X0124339Y0262384D01*
X0124339Y0261186D02*
X0162503Y0261186D01*
X0163702Y0259987D02*
X0124339Y0259987D01*
X0124339Y0258789D02*
X0164900Y0258789D01*
X0166099Y0257590D02*
X0124339Y0257590D01*
X0124339Y0256392D02*
X0166239Y0256392D01*
X0166239Y0255193D02*
X0124339Y0255193D01*
X0124339Y0253995D02*
X0166239Y0253995D01*
X0166239Y0252796D02*
X0124339Y0252796D01*
X0124339Y0251598D02*
X0166239Y0251598D01*
X0166239Y0250399D02*
X0124339Y0250399D01*
X0124339Y0249201D02*
X0166239Y0249201D01*
X0166239Y0248002D02*
X0124339Y0248002D01*
X0124339Y0246804D02*
X0166239Y0246804D01*
X0166239Y0245605D02*
X0124339Y0245605D01*
X0124339Y0244407D02*
X0166239Y0244407D01*
X0166239Y0243208D02*
X0124339Y0243208D01*
X0124339Y0242010D02*
X0166239Y0242010D01*
X0166239Y0240811D02*
X0124339Y0240811D01*
X0124339Y0239612D02*
X0166239Y0239612D01*
X0166239Y0238414D02*
X0124339Y0238414D01*
X0124339Y0237215D02*
X0166239Y0237215D01*
X0166239Y0236017D02*
X0124339Y0236017D01*
X0124339Y0234818D02*
X0166239Y0234818D01*
X0166239Y0233620D02*
X0124339Y0233620D01*
X0124339Y0232421D02*
X0166239Y0232421D01*
X0166239Y0231223D02*
X0124339Y0231223D01*
X0124339Y0230024D02*
X0166239Y0230024D01*
X0166239Y0228826D02*
X0124339Y0228826D01*
X0124339Y0227627D02*
X0166239Y0227627D01*
X0166239Y0226429D02*
X0124339Y0226429D01*
X0124339Y0225230D02*
X0166239Y0225230D01*
X0166239Y0224032D02*
X0124339Y0224032D01*
X0124339Y0222833D02*
X0166239Y0222833D01*
X0166239Y0221635D02*
X0124339Y0221635D01*
X0124339Y0220436D02*
X0166239Y0220436D01*
X0166239Y0219238D02*
X0124339Y0219238D01*
X0124339Y0218039D02*
X0166239Y0218039D01*
X0166239Y0216841D02*
X0124339Y0216841D01*
X0124339Y0215642D02*
X0166239Y0215642D01*
X0166239Y0214444D02*
X0124339Y0214444D01*
X0124339Y0213245D02*
X0166366Y0213245D01*
X0167142Y0212047D02*
X0124339Y0212047D01*
X0124339Y0210848D02*
X0168341Y0210848D01*
X0167453Y0211737D02*
X0167453Y0211737D01*
X0169539Y0209650D02*
X0124339Y0209650D01*
X0124339Y0208451D02*
X0170738Y0208451D01*
X0171936Y0207253D02*
X0124339Y0207253D01*
X0124339Y0206054D02*
X0173135Y0206054D01*
X0174333Y0204856D02*
X0124339Y0204856D01*
X0124339Y0203657D02*
X0175532Y0203657D01*
X0176730Y0202459D02*
X0124339Y0202459D01*
X0124339Y0201260D02*
X0177929Y0201260D01*
X0179127Y0200062D02*
X0124339Y0200062D01*
X0124339Y0198863D02*
X0180326Y0198863D01*
X0181524Y0197665D02*
X0124339Y0197665D01*
X0124339Y0196466D02*
X0182723Y0196466D01*
X0183921Y0195268D02*
X0124339Y0195268D01*
X0124339Y0194069D02*
X0196338Y0194069D01*
X0195139Y0192871D02*
X0124339Y0192871D01*
X0124339Y0191672D02*
X0193941Y0191672D01*
X0192742Y0190474D02*
X0124339Y0190474D01*
X0124339Y0189275D02*
X0191544Y0189275D01*
X0190345Y0188077D02*
X0124339Y0188077D01*
X0124339Y0186878D02*
X0189147Y0186878D01*
X0187948Y0185679D02*
X0124339Y0185679D01*
X0124339Y0184481D02*
X0186750Y0184481D01*
X0185551Y0183282D02*
X0124339Y0183282D01*
X0124339Y0182084D02*
X0184353Y0182084D01*
X0183154Y0180885D02*
X0124339Y0180885D01*
X0124339Y0179687D02*
X0181955Y0179687D01*
X0180757Y0178488D02*
X0124339Y0178488D01*
X0124339Y0177290D02*
X0179558Y0177290D01*
X0178360Y0176091D02*
X0124339Y0176091D01*
X0124339Y0174893D02*
X0177161Y0174893D01*
X0175963Y0173694D02*
X0124339Y0173694D01*
X0124339Y0172496D02*
X0174764Y0172496D01*
X0173566Y0171297D02*
X0124339Y0171297D01*
X0124339Y0170099D02*
X0172367Y0170099D01*
X0171169Y0168900D02*
X0124339Y0168900D01*
X0124339Y0167702D02*
X0169970Y0167702D01*
X0168772Y0166503D02*
X0124339Y0166503D01*
X0124339Y0165305D02*
X0167573Y0165305D01*
X0166375Y0164106D02*
X0124339Y0164106D01*
X0124339Y0162908D02*
X0165176Y0162908D01*
X0163978Y0161709D02*
X0124339Y0161709D01*
X0124339Y0160511D02*
X0162779Y0160511D01*
X0161581Y0159312D02*
X0124339Y0159312D01*
X0124339Y0158114D02*
X0160382Y0158114D01*
X0159184Y0156915D02*
X0124339Y0156915D01*
X0124339Y0155717D02*
X0157985Y0155717D01*
X0156787Y0154518D02*
X0124339Y0154518D01*
X0124339Y0153320D02*
X0155588Y0153320D01*
X0154390Y0152121D02*
X0124339Y0152121D01*
X0124339Y0150923D02*
X0153191Y0150923D01*
X0151993Y0149724D02*
X0124339Y0149724D01*
X0124339Y0148526D02*
X0150794Y0148526D01*
X0149596Y0147327D02*
X0124339Y0147327D01*
X0124339Y0146129D02*
X0148397Y0146129D01*
X0147199Y0144930D02*
X0124339Y0144930D01*
X0124339Y0143732D02*
X0146000Y0143732D01*
X0144802Y0142533D02*
X0124339Y0142533D01*
X0124339Y0141335D02*
X0143603Y0141335D01*
X0142405Y0140136D02*
X0124339Y0140136D01*
X0124339Y0138938D02*
X0141206Y0138938D01*
X0140008Y0137739D02*
X0124339Y0137739D01*
X0124339Y0136541D02*
X0138809Y0136541D01*
X0137611Y0135342D02*
X0124339Y0135342D01*
X0124339Y0134144D02*
X0136412Y0134144D01*
X0135214Y0132945D02*
X0124128Y0132945D01*
X0123235Y0131746D02*
X0134015Y0131746D01*
X0132817Y0130548D02*
X0122036Y0130548D01*
X0122846Y0129349D02*
X0131618Y0129349D01*
X0130420Y0128151D02*
X0124045Y0128151D01*
X0124239Y0126952D02*
X0129221Y0126952D01*
X0128022Y0125754D02*
X0124239Y0125754D01*
X0124239Y0124555D02*
X0126824Y0124555D01*
X0125625Y0123357D02*
X0123532Y0123357D01*
X0124427Y0122158D02*
X0122454Y0122158D01*
X0122454Y0120960D02*
X0123228Y0120960D01*
X0119654Y0123026D02*
X0119539Y0126010D01*
X0119654Y0123026D02*
X0119654Y0060406D01*
X0117686Y0060406D02*
X0117686Y0120263D01*
X0115239Y0122710D01*
X0115239Y0127710D01*
X0121539Y0134010D01*
X0121539Y0287310D01*
X0134739Y0300510D01*
X0131914Y0304332D02*
X0092739Y0304332D01*
X0092739Y0303134D02*
X0130715Y0303134D01*
X0130039Y0301935D02*
X0092739Y0301935D01*
X0092739Y0300737D02*
X0130039Y0300737D01*
X0129807Y0299538D02*
X0092739Y0299538D01*
X0092739Y0298340D02*
X0128608Y0298340D01*
X0127410Y0297141D02*
X0092739Y0297141D01*
X0092739Y0295943D02*
X0126211Y0295943D01*
X0125013Y0294744D02*
X0092739Y0294744D01*
X0092739Y0293546D02*
X0123814Y0293546D01*
X0122616Y0292347D02*
X0092739Y0292347D01*
X0092739Y0291148D02*
X0121417Y0291148D01*
X0120219Y0289950D02*
X0092739Y0289950D01*
X0092739Y0288751D02*
X0119105Y0288751D01*
X0118739Y0287553D02*
X0092739Y0287553D01*
X0092739Y0286354D02*
X0118739Y0286354D01*
X0118739Y0285156D02*
X0092739Y0285156D01*
X0092739Y0283957D02*
X0118739Y0283957D01*
X0118739Y0282759D02*
X0092739Y0282759D01*
X0092739Y0281560D02*
X0118739Y0281560D01*
X0118739Y0280362D02*
X0092739Y0280362D01*
X0092739Y0279163D02*
X0118739Y0279163D01*
X0118739Y0277965D02*
X0092739Y0277965D01*
X0092739Y0276766D02*
X0118739Y0276766D01*
X0118739Y0275568D02*
X0092739Y0275568D01*
X0092739Y0274369D02*
X0118739Y0274369D01*
X0118739Y0273171D02*
X0092739Y0273171D01*
X0092739Y0271972D02*
X0118739Y0271972D01*
X0118739Y0270774D02*
X0092739Y0270774D01*
X0092739Y0269575D02*
X0118739Y0269575D01*
X0118739Y0268377D02*
X0092739Y0268377D01*
X0092335Y0267178D02*
X0118739Y0267178D01*
X0118739Y0265980D02*
X0091168Y0265980D01*
X0089969Y0264781D02*
X0118739Y0264781D01*
X0118739Y0263583D02*
X0088771Y0263583D01*
X0087572Y0262384D02*
X0118739Y0262384D01*
X0118739Y0261186D02*
X0086374Y0261186D01*
X0085175Y0259987D02*
X0118739Y0259987D01*
X0118739Y0258789D02*
X0083977Y0258789D01*
X0082778Y0257590D02*
X0118739Y0257590D01*
X0118739Y0256392D02*
X0081580Y0256392D01*
X0080381Y0255193D02*
X0118739Y0255193D01*
X0118739Y0253995D02*
X0079183Y0253995D01*
X0077984Y0252796D02*
X0118739Y0252796D01*
X0118739Y0251598D02*
X0076786Y0251598D01*
X0075587Y0250399D02*
X0118739Y0250399D01*
X0118739Y0249201D02*
X0074389Y0249201D01*
X0073190Y0248002D02*
X0118739Y0248002D01*
X0118739Y0246804D02*
X0071992Y0246804D01*
X0070793Y0245605D02*
X0118739Y0245605D01*
X0118739Y0244407D02*
X0069595Y0244407D01*
X0068396Y0243208D02*
X0118739Y0243208D01*
X0118739Y0242010D02*
X0067198Y0242010D01*
X0065999Y0240811D02*
X0118739Y0240811D01*
X0118739Y0239612D02*
X0064801Y0239612D01*
X0063602Y0238414D02*
X0118739Y0238414D01*
X0118739Y0237215D02*
X0062404Y0237215D01*
X0061205Y0236017D02*
X0118739Y0236017D01*
X0118739Y0234818D02*
X0060007Y0234818D01*
X0058808Y0233620D02*
X0118739Y0233620D01*
X0118739Y0232421D02*
X0057610Y0232421D01*
X0056411Y0231223D02*
X0118739Y0231223D01*
X0118739Y0230024D02*
X0055213Y0230024D01*
X0054014Y0228826D02*
X0118739Y0228826D01*
X0118739Y0227627D02*
X0052816Y0227627D01*
X0051617Y0226429D02*
X0118739Y0226429D01*
X0118739Y0225230D02*
X0050419Y0225230D01*
X0048540Y0227312D02*
X0089939Y0268710D01*
X0089939Y0326110D01*
X0048540Y0227312D02*
X0037784Y0227312D01*
X0040660Y0222833D02*
X0118739Y0222833D01*
X0118739Y0221635D02*
X0040815Y0221635D01*
X0042014Y0220436D02*
X0118739Y0220436D01*
X0118739Y0219238D02*
X0042984Y0219238D01*
X0042984Y0218039D02*
X0118739Y0218039D01*
X0118739Y0216841D02*
X0042984Y0216841D01*
X0042984Y0215642D02*
X0118739Y0215642D01*
X0118739Y0214444D02*
X0042270Y0214444D01*
X0041072Y0213245D02*
X0118739Y0213245D01*
X0118739Y0212047D02*
X0040403Y0212047D01*
X0041602Y0210848D02*
X0118739Y0210848D01*
X0118739Y0209650D02*
X0042800Y0209650D01*
X0042984Y0208451D02*
X0118739Y0208451D01*
X0118739Y0207253D02*
X0042984Y0207253D01*
X0042984Y0206054D02*
X0118739Y0206054D01*
X0118739Y0204856D02*
X0042682Y0204856D01*
X0041483Y0203657D02*
X0118739Y0203657D01*
X0118739Y0202459D02*
X0040285Y0202459D01*
X0041190Y0201260D02*
X0118739Y0201260D01*
X0118739Y0200062D02*
X0042388Y0200062D01*
X0042984Y0198863D02*
X0118739Y0198863D01*
X0118739Y0197665D02*
X0042984Y0197665D01*
X0042984Y0196466D02*
X0118739Y0196466D01*
X0118739Y0195268D02*
X0042984Y0195268D01*
X0041895Y0194069D02*
X0118739Y0194069D01*
X0118739Y0192871D02*
X0040697Y0192871D01*
X0040778Y0191672D02*
X0118739Y0191672D01*
X0118739Y0190474D02*
X0041976Y0190474D01*
X0042984Y0189275D02*
X0118739Y0189275D01*
X0118739Y0188077D02*
X0042984Y0188077D01*
X0042984Y0186878D02*
X0118739Y0186878D01*
X0118739Y0185679D02*
X0042984Y0185679D01*
X0042307Y0184481D02*
X0118739Y0184481D01*
X0118739Y0183282D02*
X0041109Y0183282D01*
X0040366Y0182084D02*
X0118739Y0182084D01*
X0118739Y0180885D02*
X0041565Y0180885D01*
X0042763Y0179687D02*
X0118739Y0179687D01*
X0118739Y0178488D02*
X0042984Y0178488D01*
X0042984Y0177290D02*
X0118739Y0177290D01*
X0118739Y0176091D02*
X0042984Y0176091D01*
X0042719Y0174893D02*
X0118739Y0174893D01*
X0118739Y0173694D02*
X0041521Y0173694D01*
X0040322Y0172496D02*
X0118739Y0172496D01*
X0118739Y0171297D02*
X0041153Y0171297D01*
X0042351Y0170099D02*
X0118739Y0170099D01*
X0118739Y0168900D02*
X0042984Y0168900D01*
X0042984Y0167702D02*
X0118739Y0167702D01*
X0118739Y0166503D02*
X0042984Y0166503D01*
X0042984Y0165305D02*
X0118739Y0165305D01*
X0118739Y0164106D02*
X0041933Y0164106D01*
X0040734Y0162908D02*
X0118739Y0162908D01*
X0118739Y0137739D02*
X0097570Y0137739D01*
X0098768Y0136541D02*
X0118739Y0136541D01*
X0118739Y0135342D02*
X0099967Y0135342D01*
X0101165Y0134144D02*
X0117712Y0134144D01*
X0116514Y0132945D02*
X0102364Y0132945D01*
X0103562Y0131746D02*
X0115315Y0131746D01*
X0114117Y0130548D02*
X0104761Y0130548D01*
X0105959Y0129349D02*
X0112918Y0129349D01*
X0112439Y0128151D02*
X0107158Y0128151D01*
X0108356Y0126952D02*
X0112439Y0126952D01*
X0112439Y0125754D02*
X0108939Y0125754D01*
X0098939Y0114050D02*
X0098939Y0110388D01*
X0098656Y0110943D01*
X0098230Y0111529D01*
X0097718Y0112041D01*
X0097132Y0112467D01*
X0096487Y0112795D01*
X0095798Y0113019D01*
X0095083Y0113132D01*
X0092121Y0113132D01*
X0092121Y0108932D01*
X0091321Y0108932D01*
X0091321Y0108132D01*
X0092121Y0108132D01*
X0092121Y0103932D01*
X0095083Y0103932D01*
X0095798Y0104046D01*
X0096487Y0104269D01*
X0097132Y0104598D01*
X0097718Y0105024D01*
X0098230Y0105536D01*
X0098656Y0106121D01*
X0098939Y0106677D01*
X0098939Y0101669D01*
X0097667Y0102941D01*
X0095756Y0103732D01*
X0087687Y0103732D01*
X0085776Y0102941D01*
X0084313Y0101478D01*
X0083521Y0099567D01*
X0083521Y0098587D01*
X0067325Y0114784D01*
X0066296Y0115210D01*
X0042984Y0115210D01*
X0042984Y0119110D01*
X0093879Y0119110D01*
X0098939Y0114050D01*
X0098939Y0113769D02*
X0068340Y0113769D01*
X0069538Y0112570D02*
X0086514Y0112570D01*
X0086310Y0112467D02*
X0085725Y0112041D01*
X0085213Y0111529D01*
X0084787Y0110943D01*
X0084458Y0110298D01*
X0084235Y0109609D01*
X0084127Y0108932D01*
X0091321Y0108932D01*
X0091321Y0113132D01*
X0088359Y0113132D01*
X0087644Y0113019D01*
X0086955Y0112795D01*
X0086310Y0112467D01*
X0085098Y0111372D02*
X0070737Y0111372D01*
X0071935Y0110173D02*
X0084418Y0110173D01*
X0084134Y0108975D02*
X0073134Y0108975D01*
X0074332Y0107776D02*
X0084184Y0107776D01*
X0084235Y0107455D02*
X0084458Y0106766D01*
X0084787Y0106121D01*
X0085213Y0105536D01*
X0085725Y0105024D01*
X0086310Y0104598D01*
X0086955Y0104269D01*
X0087644Y0104046D01*
X0088359Y0103932D01*
X0091321Y0103932D01*
X0091321Y0108132D01*
X0084127Y0108132D01*
X0084235Y0107455D01*
X0084554Y0106578D02*
X0075531Y0106578D01*
X0076729Y0105379D02*
X0085369Y0105379D01*
X0087228Y0104181D02*
X0077928Y0104181D01*
X0079126Y0102982D02*
X0085876Y0102982D01*
X0084619Y0101784D02*
X0080325Y0101784D01*
X0081523Y0100585D02*
X0083943Y0100585D01*
X0083521Y0099387D02*
X0082722Y0099387D01*
X0078617Y0108532D02*
X0091721Y0108532D01*
X0091321Y0108975D02*
X0092121Y0108975D01*
X0092121Y0110173D02*
X0091321Y0110173D01*
X0091321Y0111372D02*
X0092121Y0111372D01*
X0092121Y0112570D02*
X0091321Y0112570D01*
X0091321Y0107776D02*
X0092121Y0107776D01*
X0092121Y0106578D02*
X0091321Y0106578D01*
X0091321Y0105379D02*
X0092121Y0105379D01*
X0092121Y0104181D02*
X0091321Y0104181D01*
X0096214Y0104181D02*
X0098939Y0104181D01*
X0098939Y0105379D02*
X0098074Y0105379D01*
X0098888Y0106578D02*
X0098939Y0106578D01*
X0098939Y0102982D02*
X0097566Y0102982D01*
X0098824Y0101784D02*
X0098939Y0101784D01*
X0098939Y0111372D02*
X0098344Y0111372D01*
X0098939Y0112570D02*
X0096929Y0112570D01*
X0098022Y0114967D02*
X0066882Y0114967D01*
X0065739Y0112410D02*
X0022039Y0112410D01*
X0020139Y0114310D01*
X0020139Y0145010D01*
X0022339Y0147210D01*
X0027683Y0147210D01*
X0027784Y0147312D01*
X0025139Y0142410D02*
X0022339Y0139610D01*
X0022339Y0124710D01*
X0025139Y0121910D01*
X0040439Y0121910D01*
X0040539Y0121810D01*
X0042984Y0118563D02*
X0094426Y0118563D01*
X0095625Y0117364D02*
X0042984Y0117364D01*
X0042984Y0116166D02*
X0096823Y0116166D01*
X0078617Y0108532D02*
X0069939Y0117210D01*
X0061539Y0117210D01*
X0062039Y0116810D01*
X0053493Y0089165D02*
X0082253Y0060406D01*
X0082253Y0060405D01*
X0080062Y0060405D01*
X0080062Y0057636D01*
X0080171Y0057229D01*
X0080382Y0056864D01*
X0080680Y0056566D01*
X0081045Y0056355D01*
X0081452Y0056246D01*
X0082253Y0056246D01*
X0083054Y0056246D01*
X0083237Y0056296D01*
X0083420Y0056246D01*
X0084088Y0056246D01*
X0084688Y0055646D01*
X0101106Y0055646D01*
X0101106Y0053510D01*
X0100292Y0053510D01*
X0097539Y0050757D01*
X0097539Y0046863D01*
X0100292Y0044110D01*
X0104185Y0044110D01*
X0100147Y0044255D02*
X0080516Y0044255D01*
X0080516Y0045454D02*
X0098948Y0045454D01*
X0097750Y0046652D02*
X0080516Y0046652D01*
X0080516Y0047851D02*
X0097539Y0047851D01*
X0097539Y0049049D02*
X0080516Y0049049D01*
X0080516Y0050248D02*
X0097539Y0050248D01*
X0098228Y0051446D02*
X0080516Y0051446D01*
X0080516Y0052645D02*
X0099426Y0052645D01*
X0101106Y0053843D02*
X0079525Y0053843D01*
X0082253Y0056246D02*
X0082253Y0057033D01*
X0082253Y0056246D01*
X0082253Y0057033D02*
X0082253Y0057033D01*
X0084094Y0056240D02*
X0004339Y0056240D01*
X0004339Y0055042D02*
X0101106Y0055042D01*
X0088158Y0060406D02*
X0087858Y0076491D01*
X0086090Y0074659D02*
X0081039Y0079710D01*
X0078339Y0080110D01*
X0075187Y0076615D02*
X0004339Y0076615D01*
X0004339Y0077813D02*
X0073989Y0077813D01*
X0073639Y0079012D02*
X0004339Y0079012D01*
X0004339Y0080210D02*
X0073639Y0080210D01*
X0073639Y0081409D02*
X0004339Y0081409D01*
X0004339Y0075416D02*
X0076386Y0075416D01*
X0080292Y0075416D02*
X0081373Y0075416D01*
X0082571Y0074218D02*
X0004339Y0074218D01*
X0004339Y0073019D02*
X0083295Y0073019D01*
X0083304Y0071821D02*
X0004339Y0071821D01*
X0004339Y0070622D02*
X0083313Y0070622D01*
X0083322Y0069424D02*
X0004339Y0069424D01*
X0004339Y0068225D02*
X0083331Y0068225D01*
X0083340Y0067027D02*
X0004339Y0067027D01*
X0004339Y0065828D02*
X0083349Y0065828D01*
X0083358Y0064630D02*
X0004339Y0064630D01*
X0004339Y0063431D02*
X0080131Y0063431D01*
X0080062Y0062233D02*
X0004339Y0062233D01*
X0004339Y0061034D02*
X0080062Y0061034D01*
X0080062Y0059836D02*
X0004339Y0059836D01*
X0004339Y0058637D02*
X0080062Y0058637D01*
X0080115Y0057439D02*
X0004339Y0057439D01*
X0004339Y0053843D02*
X0070020Y0053843D01*
X0069029Y0052645D02*
X0004339Y0052645D01*
X0004339Y0051446D02*
X0069029Y0051446D01*
X0069029Y0050248D02*
X0004339Y0050248D01*
X0004339Y0049049D02*
X0069029Y0049049D01*
X0069029Y0047851D02*
X0004339Y0047851D01*
X0004339Y0046652D02*
X0069029Y0046652D01*
X0069029Y0045454D02*
X0004339Y0045454D01*
X0004339Y0044255D02*
X0069029Y0044255D01*
X0069029Y0043057D02*
X0004339Y0043057D01*
X0004339Y0041858D02*
X0069539Y0041858D01*
X0080006Y0041858D02*
X0132602Y0041858D01*
X0132602Y0040660D02*
X0004339Y0040660D01*
X0004339Y0039461D02*
X0132330Y0039461D01*
X0135402Y0038574D02*
X0131439Y0034610D01*
X0134547Y0031072D02*
X0137839Y0031072D01*
X0137839Y0029873D02*
X0004339Y0029873D01*
X0004339Y0028675D02*
X0137839Y0028675D01*
X0137839Y0027476D02*
X0004339Y0027476D01*
X0004339Y0026277D02*
X0138925Y0026277D01*
X0140123Y0025079D02*
X0004339Y0025079D01*
X0004339Y0023880D02*
X0143839Y0023880D01*
X0143839Y0022682D02*
X0004339Y0022682D01*
X0004339Y0021483D02*
X0144319Y0021483D01*
X0145517Y0020285D02*
X0004339Y0020285D01*
X0004339Y0019086D02*
X0236060Y0019086D01*
X0236060Y0017888D02*
X0004339Y0017888D01*
X0004339Y0016689D02*
X0236060Y0016689D01*
X0236060Y0015491D02*
X0004339Y0015491D01*
X0004339Y0014292D02*
X0236060Y0014292D01*
X0236060Y0013094D02*
X0004339Y0013094D01*
X0004339Y0011895D02*
X0236060Y0011895D01*
X0236060Y0010697D02*
X0004339Y0010697D01*
X0004339Y0009498D02*
X0236060Y0009498D01*
X0236060Y0008300D02*
X0004339Y0008300D01*
X0004339Y0007101D02*
X0236060Y0007101D01*
X0235139Y0005903D02*
X0004339Y0005903D01*
X0004339Y0031072D02*
X0128330Y0031072D01*
X0127132Y0032270D02*
X0004339Y0032270D01*
X0004339Y0033469D02*
X0126739Y0033469D01*
X0126739Y0034667D02*
X0004339Y0034667D01*
X0004339Y0035866D02*
X0126739Y0035866D01*
X0127246Y0037064D02*
X0004339Y0037064D01*
X0004339Y0038263D02*
X0128444Y0038263D01*
X0132129Y0045454D02*
X0132602Y0045454D01*
X0133434Y0047215D02*
X0133434Y0060406D01*
X0133434Y0047706D01*
X0138202Y0047851D02*
X0140476Y0047851D01*
X0140476Y0049049D02*
X0138202Y0049049D01*
X0138202Y0050248D02*
X0140476Y0050248D01*
X0140476Y0051446D02*
X0138202Y0051446D01*
X0138202Y0052645D02*
X0140476Y0052645D01*
X0140476Y0053843D02*
X0138202Y0053843D01*
X0138202Y0055042D02*
X0140476Y0055042D01*
X0141239Y0060336D02*
X0141308Y0060406D01*
X0141239Y0060336D02*
X0141239Y0038410D01*
X0131039Y0028210D01*
X0135745Y0032270D02*
X0138852Y0032270D01*
X0140050Y0033469D02*
X0136139Y0033469D01*
X0136139Y0034667D02*
X0140476Y0034667D01*
X0140476Y0035866D02*
X0136654Y0035866D01*
X0137808Y0037064D02*
X0140476Y0037064D01*
X0140476Y0038263D02*
X0138202Y0038263D01*
X0138202Y0039461D02*
X0140476Y0039461D01*
X0140476Y0040660D02*
X0138202Y0040660D01*
X0138202Y0041858D02*
X0140476Y0041858D01*
X0140476Y0043057D02*
X0138202Y0043057D01*
X0138202Y0044255D02*
X0140476Y0044255D01*
X0140476Y0045454D02*
X0138202Y0045454D01*
X0138202Y0046652D02*
X0140476Y0046652D01*
X0135402Y0038574D02*
X0135402Y0060406D01*
X0137371Y0060406D02*
X0137371Y0070643D01*
X0184739Y0118010D01*
X0184739Y0128110D01*
X0199039Y0142410D01*
X0220639Y0142410D01*
X0229039Y0150810D01*
X0229039Y0304210D01*
X0226739Y0306510D01*
X0223339Y0306510D01*
X0222739Y0307110D01*
X0224639Y0302610D02*
X0225939Y0301310D01*
X0225939Y0164810D01*
X0216139Y0163010D01*
X0194539Y0163010D01*
X0131465Y0099937D01*
X0131465Y0060406D01*
X0129497Y0060406D02*
X0129497Y0104851D01*
X0201957Y0177312D01*
X0197502Y0160210D02*
X0196757Y0159466D01*
X0196757Y0155158D01*
X0199604Y0152312D01*
X0196757Y0149466D01*
X0196757Y0145158D01*
X0197292Y0144623D01*
X0196665Y0143996D01*
X0182365Y0129696D01*
X0181939Y0128667D01*
X0181939Y0119170D01*
X0159610Y0096841D01*
X0159882Y0097498D01*
X0159882Y0099567D01*
X0159090Y0101478D01*
X0157627Y0102941D01*
X0155716Y0103732D01*
X0147648Y0103732D01*
X0145736Y0102941D01*
X0144274Y0101478D01*
X0143482Y0099567D01*
X0143482Y0097498D01*
X0144274Y0095587D01*
X0145736Y0094124D01*
X0147648Y0093332D01*
X0155716Y0093332D01*
X0156373Y0093604D01*
X0134997Y0072229D01*
X0134571Y0071199D01*
X0134571Y0065165D01*
X0134265Y0065165D01*
X0134265Y0098777D01*
X0144420Y0108932D01*
X0151282Y0108932D01*
X0151282Y0108132D01*
X0152082Y0108132D01*
X0152082Y0103932D01*
X0155044Y0103932D01*
X0155759Y0104046D01*
X0156448Y0104269D01*
X0157093Y0104598D01*
X0157679Y0105024D01*
X0158191Y0105536D01*
X0158616Y0106121D01*
X0158945Y0106766D01*
X0159169Y0107455D01*
X0159276Y0108132D01*
X0152082Y0108132D01*
X0152082Y0108932D01*
X0159276Y0108932D01*
X0159169Y0109609D01*
X0158945Y0110298D01*
X0158616Y0110943D01*
X0158191Y0111529D01*
X0157679Y0112041D01*
X0157093Y0112467D01*
X0156448Y0112795D01*
X0155759Y0113019D01*
X0155044Y0113132D01*
X0152082Y0113132D01*
X0152082Y0108932D01*
X0151282Y0108932D01*
X0151282Y0113132D01*
X0148620Y0113132D01*
X0195698Y0160210D01*
X0197502Y0160210D01*
X0196757Y0159312D02*
X0194800Y0159312D01*
X0193602Y0158114D02*
X0196757Y0158114D01*
X0196757Y0156915D02*
X0192403Y0156915D01*
X0191205Y0155717D02*
X0196757Y0155717D01*
X0197397Y0154518D02*
X0190006Y0154518D01*
X0188808Y0153320D02*
X0198596Y0153320D01*
X0199413Y0152121D02*
X0187609Y0152121D01*
X0186411Y0150923D02*
X0198214Y0150923D01*
X0197016Y0149724D02*
X0185212Y0149724D01*
X0184014Y0148526D02*
X0196757Y0148526D01*
X0196757Y0147327D02*
X0182815Y0147327D01*
X0181617Y0146129D02*
X0196757Y0146129D01*
X0196985Y0144930D02*
X0180418Y0144930D01*
X0179220Y0143732D02*
X0196400Y0143732D01*
X0195202Y0142533D02*
X0178021Y0142533D01*
X0176823Y0141335D02*
X0194003Y0141335D01*
X0192805Y0140136D02*
X0175624Y0140136D01*
X0174426Y0138938D02*
X0191606Y0138938D01*
X0190408Y0137739D02*
X0173227Y0137739D01*
X0172029Y0136541D02*
X0189209Y0136541D01*
X0188011Y0135342D02*
X0170830Y0135342D01*
X0169632Y0134144D02*
X0186812Y0134144D01*
X0185614Y0132945D02*
X0168433Y0132945D01*
X0167235Y0131746D02*
X0184415Y0131746D01*
X0183217Y0130548D02*
X0166036Y0130548D01*
X0164838Y0129349D02*
X0182221Y0129349D01*
X0181939Y0128151D02*
X0163639Y0128151D01*
X0162441Y0126952D02*
X0181939Y0126952D01*
X0181939Y0125754D02*
X0161242Y0125754D01*
X0160044Y0124555D02*
X0181939Y0124555D01*
X0181939Y0123357D02*
X0158845Y0123357D01*
X0157647Y0122158D02*
X0181939Y0122158D01*
X0181939Y0120960D02*
X0156448Y0120960D01*
X0155249Y0119761D02*
X0181939Y0119761D01*
X0181331Y0118563D02*
X0154051Y0118563D01*
X0152852Y0117364D02*
X0180133Y0117364D01*
X0178934Y0116166D02*
X0151654Y0116166D01*
X0150455Y0114967D02*
X0177736Y0114967D01*
X0176537Y0113769D02*
X0149257Y0113769D01*
X0151282Y0112570D02*
X0152082Y0112570D01*
X0152082Y0111372D02*
X0151282Y0111372D01*
X0151282Y0110173D02*
X0152082Y0110173D01*
X0152082Y0108975D02*
X0151282Y0108975D01*
X0151282Y0108132D02*
X0144088Y0108132D01*
X0144195Y0107455D01*
X0144419Y0106766D01*
X0144748Y0106121D01*
X0145173Y0105536D01*
X0145685Y0105024D01*
X0146271Y0104598D01*
X0146916Y0104269D01*
X0147605Y0104046D01*
X0148320Y0103932D01*
X0151282Y0103932D01*
X0151282Y0108132D01*
X0151282Y0107776D02*
X0152082Y0107776D01*
X0152082Y0106578D02*
X0151282Y0106578D01*
X0151282Y0105379D02*
X0152082Y0105379D01*
X0152082Y0104181D02*
X0151282Y0104181D01*
X0147189Y0104181D02*
X0139669Y0104181D01*
X0140867Y0105379D02*
X0145330Y0105379D01*
X0144515Y0106578D02*
X0142066Y0106578D01*
X0143264Y0107776D02*
X0144144Y0107776D01*
X0145837Y0102982D02*
X0138470Y0102982D01*
X0137272Y0101784D02*
X0144579Y0101784D01*
X0143904Y0100585D02*
X0136073Y0100585D01*
X0134875Y0099387D02*
X0143482Y0099387D01*
X0143482Y0098188D02*
X0134265Y0098188D01*
X0134265Y0096990D02*
X0143692Y0096990D01*
X0144189Y0095791D02*
X0134265Y0095791D01*
X0134265Y0094593D02*
X0145268Y0094593D01*
X0147498Y0093394D02*
X0134265Y0093394D01*
X0134265Y0092196D02*
X0154964Y0092196D01*
X0155866Y0093394D02*
X0156163Y0093394D01*
X0153766Y0090997D02*
X0134265Y0090997D01*
X0134265Y0089799D02*
X0152567Y0089799D01*
X0151369Y0088600D02*
X0134265Y0088600D01*
X0134265Y0087402D02*
X0150170Y0087402D01*
X0148972Y0086203D02*
X0134265Y0086203D01*
X0134265Y0085005D02*
X0147773Y0085005D01*
X0146575Y0083806D02*
X0134265Y0083806D01*
X0134265Y0082608D02*
X0145376Y0082608D01*
X0144178Y0081409D02*
X0134265Y0081409D01*
X0134265Y0080210D02*
X0142979Y0080210D01*
X0141781Y0079012D02*
X0134265Y0079012D01*
X0134265Y0077813D02*
X0140582Y0077813D01*
X0139384Y0076615D02*
X0134265Y0076615D01*
X0134265Y0075416D02*
X0138185Y0075416D01*
X0136987Y0074218D02*
X0134265Y0074218D01*
X0134265Y0073019D02*
X0135788Y0073019D01*
X0134828Y0071821D02*
X0134265Y0071821D01*
X0134265Y0070622D02*
X0134571Y0070622D01*
X0134571Y0069424D02*
X0134265Y0069424D01*
X0134265Y0068225D02*
X0134571Y0068225D01*
X0134571Y0067027D02*
X0134265Y0067027D01*
X0134265Y0065828D02*
X0134571Y0065828D01*
X0139339Y0068311D02*
X0139339Y0060406D01*
X0143276Y0060406D02*
X0143276Y0030048D01*
X0142539Y0029310D01*
X0148539Y0023910D02*
X0151050Y0026422D01*
X0151050Y0053522D01*
X0151150Y0060406D01*
X0149182Y0060406D02*
X0149182Y0064354D01*
X0156039Y0071210D01*
X0165856Y0071210D01*
X0201957Y0107312D01*
X0199339Y0112310D02*
X0206956Y0112310D01*
X0211957Y0117312D01*
X0217339Y0122410D02*
X0219539Y0120210D01*
X0219539Y0114893D01*
X0211957Y0107312D01*
X0211557Y0095791D02*
X0212357Y0095791D01*
X0212357Y0094593D02*
X0211557Y0094593D01*
X0211557Y0093394D02*
X0212357Y0093394D01*
X0214545Y0093394D02*
X0236060Y0093394D01*
X0236060Y0092196D02*
X0204195Y0092196D01*
X0205394Y0093394D02*
X0209370Y0093394D01*
X0208171Y0094593D02*
X0206592Y0094593D01*
X0207157Y0095791D02*
X0207357Y0095791D01*
X0201957Y0097312D02*
X0183439Y0078793D01*
X0183439Y0040810D01*
X0183339Y0040710D01*
X0183339Y0036410D01*
X0186934Y0039461D02*
X0236060Y0039461D01*
X0236060Y0038263D02*
X0188039Y0038263D01*
X0188039Y0037064D02*
X0236060Y0037064D01*
X0236060Y0035866D02*
X0188039Y0035866D01*
X0188039Y0034667D02*
X0236060Y0034667D01*
X0236060Y0033469D02*
X0187044Y0033469D01*
X0185845Y0032270D02*
X0236060Y0032270D01*
X0236060Y0031072D02*
X0153850Y0031072D01*
X0153850Y0032270D02*
X0180832Y0032270D01*
X0179633Y0033469D02*
X0153850Y0033469D01*
X0153850Y0034667D02*
X0178639Y0034667D01*
X0178639Y0035866D02*
X0153850Y0035866D01*
X0153850Y0037064D02*
X0178639Y0037064D01*
X0178639Y0038263D02*
X0153850Y0038263D01*
X0153850Y0039461D02*
X0179743Y0039461D01*
X0180539Y0040660D02*
X0153850Y0040660D01*
X0153850Y0041858D02*
X0161272Y0041858D01*
X0160761Y0042368D02*
X0162050Y0041080D01*
X0170959Y0041080D01*
X0172248Y0042368D01*
X0172248Y0052852D01*
X0170959Y0054141D01*
X0162050Y0054141D01*
X0160761Y0052852D01*
X0160761Y0042368D01*
X0160761Y0043057D02*
X0153850Y0043057D01*
X0153850Y0044255D02*
X0160761Y0044255D01*
X0160761Y0045454D02*
X0153850Y0045454D01*
X0153850Y0046652D02*
X0160761Y0046652D01*
X0160761Y0047851D02*
X0153850Y0047851D01*
X0153850Y0049049D02*
X0160761Y0049049D01*
X0160761Y0050248D02*
X0153850Y0050248D01*
X0153850Y0051446D02*
X0160761Y0051446D01*
X0160761Y0052645D02*
X0153850Y0052645D01*
X0153855Y0053843D02*
X0161752Y0053843D01*
X0162162Y0056240D02*
X0161120Y0056240D01*
X0159024Y0060406D02*
X0157056Y0060406D01*
X0157361Y0060710D01*
X0164339Y0060710D01*
X0167714Y0057439D02*
X0180639Y0057439D01*
X0180639Y0058637D02*
X0168912Y0058637D01*
X0169039Y0059836D02*
X0180639Y0059836D01*
X0180639Y0061034D02*
X0169039Y0061034D01*
X0169039Y0062233D02*
X0180639Y0062233D01*
X0180639Y0063431D02*
X0168264Y0063431D01*
X0167066Y0064630D02*
X0180639Y0064630D01*
X0180639Y0065828D02*
X0154616Y0065828D01*
X0155019Y0064630D02*
X0153418Y0064630D01*
X0155815Y0067027D02*
X0180639Y0067027D01*
X0180639Y0068225D02*
X0157014Y0068225D01*
X0161061Y0064630D02*
X0161611Y0064630D01*
X0168029Y0069424D02*
X0180639Y0069424D01*
X0180639Y0070622D02*
X0169228Y0070622D01*
X0170426Y0071821D02*
X0180639Y0071821D01*
X0180639Y0073019D02*
X0171625Y0073019D01*
X0172823Y0074218D02*
X0180639Y0074218D01*
X0180639Y0075416D02*
X0174022Y0075416D01*
X0175220Y0076615D02*
X0180639Y0076615D01*
X0180639Y0077813D02*
X0176419Y0077813D01*
X0177617Y0079012D02*
X0180639Y0079012D01*
X0180995Y0080210D02*
X0178816Y0080210D01*
X0180014Y0081409D02*
X0182095Y0081409D01*
X0181213Y0082608D02*
X0183293Y0082608D01*
X0182411Y0083806D02*
X0184492Y0083806D01*
X0183610Y0085005D02*
X0185690Y0085005D01*
X0184809Y0086203D02*
X0186889Y0086203D01*
X0186007Y0087402D02*
X0188087Y0087402D01*
X0187206Y0088600D02*
X0189286Y0088600D01*
X0188404Y0089799D02*
X0190484Y0089799D01*
X0189603Y0090997D02*
X0191683Y0090997D01*
X0190801Y0092196D02*
X0192881Y0092196D01*
X0192000Y0093394D02*
X0194080Y0093394D01*
X0193198Y0094593D02*
X0195279Y0094593D01*
X0194397Y0095791D02*
X0196477Y0095791D01*
X0196757Y0096990D02*
X0195595Y0096990D01*
X0199603Y0090997D02*
X0236060Y0090997D01*
X0236060Y0089799D02*
X0198404Y0089799D01*
X0197206Y0088600D02*
X0236060Y0088600D01*
X0236060Y0087402D02*
X0196007Y0087402D01*
X0194809Y0086203D02*
X0236060Y0086203D01*
X0236060Y0085005D02*
X0193610Y0085005D01*
X0192411Y0083806D02*
X0236060Y0083806D01*
X0236060Y0082608D02*
X0191213Y0082608D01*
X0190014Y0081409D02*
X0236060Y0081409D01*
X0236060Y0080210D02*
X0188816Y0080210D01*
X0187617Y0079012D02*
X0236060Y0079012D01*
X0236060Y0077813D02*
X0186419Y0077813D01*
X0186239Y0076615D02*
X0236060Y0076615D01*
X0236060Y0075416D02*
X0186239Y0075416D01*
X0186239Y0074218D02*
X0236060Y0074218D01*
X0236060Y0073019D02*
X0186239Y0073019D01*
X0186239Y0071821D02*
X0236060Y0071821D01*
X0236060Y0070622D02*
X0186239Y0070622D01*
X0186239Y0069424D02*
X0236060Y0069424D01*
X0236060Y0068225D02*
X0186239Y0068225D01*
X0186239Y0067027D02*
X0236060Y0067027D01*
X0236060Y0065828D02*
X0186239Y0065828D01*
X0186239Y0064630D02*
X0236060Y0064630D01*
X0236060Y0063431D02*
X0186239Y0063431D01*
X0186239Y0062233D02*
X0236060Y0062233D01*
X0236060Y0061034D02*
X0186239Y0061034D01*
X0186239Y0059836D02*
X0236060Y0059836D01*
X0236060Y0058637D02*
X0186239Y0058637D01*
X0186239Y0057439D02*
X0236060Y0057439D01*
X0236060Y0056240D02*
X0186239Y0056240D01*
X0186239Y0055042D02*
X0236060Y0055042D01*
X0236060Y0053843D02*
X0186239Y0053843D01*
X0186239Y0052645D02*
X0236060Y0052645D01*
X0236060Y0051446D02*
X0186239Y0051446D01*
X0186239Y0050248D02*
X0236060Y0050248D01*
X0236060Y0049049D02*
X0186239Y0049049D01*
X0186239Y0047851D02*
X0236060Y0047851D01*
X0236060Y0046652D02*
X0186239Y0046652D01*
X0186239Y0045454D02*
X0236060Y0045454D01*
X0236060Y0044255D02*
X0186239Y0044255D01*
X0186239Y0043057D02*
X0236060Y0043057D01*
X0236060Y0041858D02*
X0186239Y0041858D01*
X0186239Y0040660D02*
X0236060Y0040660D01*
X0236060Y0029873D02*
X0153850Y0029873D01*
X0153850Y0028675D02*
X0236060Y0028675D01*
X0236060Y0027476D02*
X0153850Y0027476D01*
X0153850Y0026277D02*
X0236060Y0026277D01*
X0236060Y0025079D02*
X0153525Y0025079D01*
X0153239Y0023880D02*
X0236060Y0023880D01*
X0236060Y0022682D02*
X0153239Y0022682D01*
X0152759Y0021483D02*
X0236060Y0021483D01*
X0236060Y0020285D02*
X0151560Y0020285D01*
X0153119Y0026310D02*
X0153119Y0060406D01*
X0155087Y0060406D01*
X0154960Y0056240D02*
X0153890Y0056240D01*
X0153873Y0055042D02*
X0180639Y0055042D01*
X0180639Y0056240D02*
X0166515Y0056240D01*
X0171257Y0053843D02*
X0180639Y0053843D01*
X0180639Y0052645D02*
X0172248Y0052645D01*
X0172248Y0051446D02*
X0180639Y0051446D01*
X0180639Y0050248D02*
X0172248Y0050248D01*
X0172248Y0049049D02*
X0180639Y0049049D01*
X0180639Y0047851D02*
X0172248Y0047851D01*
X0172248Y0046652D02*
X0180639Y0046652D01*
X0180639Y0045454D02*
X0172248Y0045454D01*
X0172248Y0044255D02*
X0180639Y0044255D01*
X0180639Y0043057D02*
X0172248Y0043057D01*
X0171738Y0041858D02*
X0180639Y0041858D01*
X0160939Y0073910D02*
X0199339Y0112310D01*
X0199339Y0122410D02*
X0217339Y0122410D01*
X0221604Y0130548D02*
X0236060Y0130548D01*
X0236060Y0131746D02*
X0224991Y0131746D01*
X0228378Y0132945D02*
X0236060Y0132945D01*
X0236060Y0134144D02*
X0231766Y0134144D01*
X0234148Y0135342D02*
X0236060Y0135342D01*
X0236060Y0136541D02*
X0234807Y0136541D01*
X0234839Y0137739D02*
X0236060Y0137739D01*
X0236060Y0138938D02*
X0234839Y0138938D01*
X0234839Y0140136D02*
X0236060Y0140136D01*
X0236060Y0141335D02*
X0234839Y0141335D01*
X0234839Y0142533D02*
X0236060Y0142533D01*
X0236060Y0143732D02*
X0234839Y0143732D01*
X0234839Y0144930D02*
X0236060Y0144930D01*
X0236060Y0146129D02*
X0234839Y0146129D01*
X0234839Y0147327D02*
X0236060Y0147327D01*
X0236060Y0148526D02*
X0234839Y0148526D01*
X0234839Y0149724D02*
X0236060Y0149724D01*
X0236060Y0150923D02*
X0234839Y0150923D01*
X0234839Y0152121D02*
X0236060Y0152121D01*
X0236060Y0153320D02*
X0234839Y0153320D01*
X0234839Y0154518D02*
X0236060Y0154518D01*
X0236060Y0155717D02*
X0234839Y0155717D01*
X0234839Y0156915D02*
X0236060Y0156915D01*
X0236060Y0158114D02*
X0234839Y0158114D01*
X0234839Y0159312D02*
X0236060Y0159312D01*
X0236060Y0160511D02*
X0234839Y0160511D01*
X0234839Y0161709D02*
X0236060Y0161709D01*
X0236060Y0162908D02*
X0234839Y0162908D01*
X0234839Y0164106D02*
X0236060Y0164106D01*
X0236060Y0165305D02*
X0234839Y0165305D01*
X0234839Y0166503D02*
X0236060Y0166503D01*
X0236060Y0167702D02*
X0234839Y0167702D01*
X0234839Y0168900D02*
X0236060Y0168900D01*
X0236060Y0170099D02*
X0234839Y0170099D01*
X0234839Y0171297D02*
X0236060Y0171297D01*
X0236060Y0172496D02*
X0234839Y0172496D01*
X0234839Y0173694D02*
X0236060Y0173694D01*
X0236060Y0174893D02*
X0234839Y0174893D01*
X0234839Y0176091D02*
X0236060Y0176091D01*
X0236060Y0177290D02*
X0234839Y0177290D01*
X0234839Y0178488D02*
X0236060Y0178488D01*
X0236060Y0179687D02*
X0234839Y0179687D01*
X0234839Y0180885D02*
X0236060Y0180885D01*
X0236060Y0182084D02*
X0234839Y0182084D01*
X0234839Y0183282D02*
X0236060Y0183282D01*
X0236060Y0184481D02*
X0234839Y0184481D01*
X0234839Y0185679D02*
X0236060Y0185679D01*
X0236060Y0186878D02*
X0234839Y0186878D01*
X0234839Y0188077D02*
X0236060Y0188077D01*
X0236060Y0189275D02*
X0234839Y0189275D01*
X0234839Y0190474D02*
X0236060Y0190474D01*
X0236060Y0191672D02*
X0234839Y0191672D01*
X0234839Y0192871D02*
X0236060Y0192871D01*
X0236060Y0194069D02*
X0234839Y0194069D01*
X0234839Y0195268D02*
X0236060Y0195268D01*
X0236060Y0196466D02*
X0234839Y0196466D01*
X0234839Y0197665D02*
X0236060Y0197665D01*
X0236060Y0198863D02*
X0234839Y0198863D01*
X0234839Y0200062D02*
X0236060Y0200062D01*
X0236060Y0201260D02*
X0234839Y0201260D01*
X0234839Y0202459D02*
X0236060Y0202459D01*
X0236060Y0203657D02*
X0234839Y0203657D01*
X0234839Y0204856D02*
X0236060Y0204856D01*
X0236060Y0206054D02*
X0234839Y0206054D01*
X0234839Y0207253D02*
X0236060Y0207253D01*
X0236060Y0208451D02*
X0234839Y0208451D01*
X0234839Y0209650D02*
X0236060Y0209650D01*
X0236060Y0210848D02*
X0234839Y0210848D01*
X0234839Y0212047D02*
X0236060Y0212047D01*
X0236060Y0213245D02*
X0234839Y0213245D01*
X0234839Y0214444D02*
X0236060Y0214444D01*
X0236060Y0215642D02*
X0234839Y0215642D01*
X0234839Y0216841D02*
X0236060Y0216841D01*
X0236060Y0218039D02*
X0234839Y0218039D01*
X0234839Y0219238D02*
X0236060Y0219238D01*
X0236060Y0220436D02*
X0234839Y0220436D01*
X0234839Y0221635D02*
X0236060Y0221635D01*
X0236060Y0222833D02*
X0234839Y0222833D01*
X0234839Y0224032D02*
X0236060Y0224032D01*
X0236060Y0225230D02*
X0234839Y0225230D01*
X0234839Y0226429D02*
X0236060Y0226429D01*
X0236060Y0227627D02*
X0234839Y0227627D01*
X0234839Y0228826D02*
X0236060Y0228826D01*
X0236060Y0230024D02*
X0234839Y0230024D01*
X0234839Y0231223D02*
X0236060Y0231223D01*
X0236060Y0232421D02*
X0234839Y0232421D01*
X0234839Y0233620D02*
X0236060Y0233620D01*
X0236060Y0234818D02*
X0234839Y0234818D01*
X0234839Y0236017D02*
X0236060Y0236017D01*
X0236060Y0237215D02*
X0234839Y0237215D01*
X0234839Y0238414D02*
X0236060Y0238414D01*
X0236060Y0239612D02*
X0234839Y0239612D01*
X0234839Y0240811D02*
X0236060Y0240811D01*
X0236060Y0242010D02*
X0234839Y0242010D01*
X0234839Y0243208D02*
X0236060Y0243208D01*
X0236060Y0244407D02*
X0234839Y0244407D01*
X0234839Y0245605D02*
X0236060Y0245605D01*
X0236060Y0246804D02*
X0234839Y0246804D01*
X0234839Y0248002D02*
X0236060Y0248002D01*
X0236060Y0249201D02*
X0234839Y0249201D01*
X0234839Y0250399D02*
X0236060Y0250399D01*
X0236060Y0251598D02*
X0234839Y0251598D01*
X0234839Y0252796D02*
X0236060Y0252796D01*
X0236060Y0253995D02*
X0234839Y0253995D01*
X0234839Y0255193D02*
X0236060Y0255193D01*
X0236060Y0256392D02*
X0234839Y0256392D01*
X0234839Y0257590D02*
X0236060Y0257590D01*
X0236060Y0258789D02*
X0234839Y0258789D01*
X0234839Y0259987D02*
X0236060Y0259987D01*
X0236060Y0261186D02*
X0234839Y0261186D01*
X0234839Y0262384D02*
X0236060Y0262384D01*
X0236060Y0263583D02*
X0234839Y0263583D01*
X0234839Y0264781D02*
X0236060Y0264781D01*
X0236060Y0265980D02*
X0234839Y0265980D01*
X0234839Y0267178D02*
X0236060Y0267178D01*
X0236060Y0268377D02*
X0234839Y0268377D01*
X0234839Y0269575D02*
X0236060Y0269575D01*
X0236060Y0270774D02*
X0234839Y0270774D01*
X0234839Y0271972D02*
X0236060Y0271972D01*
X0236060Y0273171D02*
X0234839Y0273171D01*
X0234839Y0274369D02*
X0236060Y0274369D01*
X0236060Y0275568D02*
X0234839Y0275568D01*
X0234839Y0276766D02*
X0236060Y0276766D01*
X0236060Y0277965D02*
X0234839Y0277965D01*
X0234839Y0279163D02*
X0236060Y0279163D01*
X0236060Y0280362D02*
X0234839Y0280362D01*
X0234839Y0281560D02*
X0236060Y0281560D01*
X0236060Y0282759D02*
X0234839Y0282759D01*
X0234839Y0283957D02*
X0236060Y0283957D01*
X0236060Y0285156D02*
X0234839Y0285156D01*
X0234839Y0286354D02*
X0236060Y0286354D01*
X0236060Y0287553D02*
X0234839Y0287553D01*
X0234839Y0288751D02*
X0236060Y0288751D01*
X0236060Y0289950D02*
X0234839Y0289950D01*
X0234839Y0291148D02*
X0236060Y0291148D01*
X0236060Y0292347D02*
X0234839Y0292347D01*
X0234839Y0293546D02*
X0236060Y0293546D01*
X0236060Y0294744D02*
X0234839Y0294744D01*
X0234839Y0295943D02*
X0236060Y0295943D01*
X0236060Y0297141D02*
X0234839Y0297141D01*
X0234839Y0298340D02*
X0236060Y0298340D01*
X0236060Y0299538D02*
X0234839Y0299538D01*
X0234839Y0300737D02*
X0236060Y0300737D01*
X0236060Y0301935D02*
X0234839Y0301935D01*
X0234839Y0303134D02*
X0236060Y0303134D01*
X0236060Y0304332D02*
X0234839Y0304332D01*
X0234839Y0305531D02*
X0236060Y0305531D01*
X0236060Y0306729D02*
X0234839Y0306729D01*
X0234839Y0307928D02*
X0236060Y0307928D01*
X0236060Y0309126D02*
X0234773Y0309126D01*
X0234084Y0310325D02*
X0236060Y0310325D01*
X0236060Y0311523D02*
X0232057Y0311523D01*
X0229628Y0312722D02*
X0236060Y0312722D01*
X0236060Y0313920D02*
X0227198Y0313920D01*
X0224639Y0302610D02*
X0207256Y0302610D01*
X0207339Y0222410D02*
X0194439Y0222410D01*
X0207339Y0222410D02*
X0211957Y0217791D01*
X0211957Y0217312D01*
X0219039Y0132610D02*
X0199339Y0132610D01*
X0188139Y0121410D01*
X0188139Y0117110D01*
X0139339Y0068311D01*
X0145245Y0067617D02*
X0145245Y0060406D01*
X0147213Y0060406D02*
X0147213Y0066085D01*
X0155039Y0073910D01*
X0160939Y0073910D01*
X0153539Y0075910D02*
X0153539Y0076610D01*
X0199339Y0122410D01*
X0216557Y0095791D02*
X0236060Y0095791D01*
X0236060Y0094593D02*
X0215744Y0094593D01*
X0175339Y0112570D02*
X0156889Y0112570D01*
X0158305Y0111372D02*
X0174140Y0111372D01*
X0172942Y0110173D02*
X0158985Y0110173D01*
X0159269Y0108975D02*
X0171743Y0108975D01*
X0170545Y0107776D02*
X0159219Y0107776D01*
X0158849Y0106578D02*
X0169346Y0106578D01*
X0168148Y0105379D02*
X0158034Y0105379D01*
X0156175Y0104181D02*
X0166949Y0104181D01*
X0165751Y0102982D02*
X0157527Y0102982D01*
X0158784Y0101784D02*
X0164552Y0101784D01*
X0163354Y0100585D02*
X0159460Y0100585D01*
X0159882Y0099387D02*
X0162155Y0099387D01*
X0160957Y0098188D02*
X0159882Y0098188D01*
X0159758Y0096990D02*
X0159671Y0096990D01*
X0153539Y0075910D02*
X0145245Y0067617D01*
X0086090Y0073759D02*
X0086190Y0060406D01*
X0086090Y0073759D02*
X0086090Y0074659D01*
X0070896Y0083806D02*
X0031281Y0083806D01*
X0023184Y0098188D02*
X0020320Y0098188D01*
X0019122Y0099387D02*
X0023354Y0099387D01*
X0019404Y0100585D02*
X0017923Y0100585D01*
X0017739Y0101784D02*
X0018205Y0101784D01*
X0041858Y0224032D02*
X0118739Y0224032D01*
D16*
X0096139Y0213710D03*
X0109439Y0265110D03*
X0134739Y0300510D03*
X0143739Y0300910D03*
X0151239Y0295110D03*
X0172439Y0317310D03*
X0178539Y0344210D03*
X0188239Y0274910D03*
X0222739Y0307110D03*
X0152939Y0190410D03*
X0142439Y0158010D03*
X0131139Y0140210D03*
X0119539Y0126010D03*
X0111339Y0120510D03*
X0110739Y0085710D03*
X0111639Y0071810D03*
X0105939Y0067410D03*
X0108239Y0052910D03*
X0102239Y0048810D03*
X0114839Y0050010D03*
X0120739Y0053610D03*
X0129339Y0049310D03*
X0131439Y0034610D03*
X0142539Y0029310D03*
X0148539Y0023910D03*
X0164339Y0060710D03*
X0183339Y0036410D03*
X0078339Y0080110D03*
X0074039Y0087310D03*
X0069239Y0091810D03*
X0068639Y0097910D03*
X0060539Y0096410D03*
X0060539Y0107310D03*
X0062039Y0116810D03*
X0029039Y0088210D03*
X0034939Y0051210D03*
X0106539Y0321010D03*
X0069439Y0356910D03*
M02*
