%
M48
M72
T01C0.0236
T02C0.0315
T03C0.0354
T04C0.0394
T05C0.0400
%
T01
X5956Y14805
X7354Y16557
X7114Y17588
X6173Y20002
X6173Y23446
X5976Y25415
X7263Y24880
X8334Y24537
X8830Y23348
X9322Y22856
X9618Y22364
X9815Y24529
X9956Y25537
X9594Y25963
X10602Y24824
X11094Y24824
X11586Y24824
X11665Y23722
X12472Y21281
X13161Y21281
X13948Y24332
X14295Y25317
X14933Y26301
X15917Y24923
X16114Y24135
X15130Y22757
X13653Y26399
X12866Y26399
X12472Y26891
X11980Y26301
X11488Y26301
X11389Y27895
X11980Y27876
X12866Y28466
X12433Y28946
X13563Y27809
X12275Y31124
X11783Y30927
X11389Y32009
X10996Y31320
X10996Y30828
X10011Y30533
X9082Y29360
X8779Y29785
X8437Y30139
X7354Y32502
X6665Y31419
X6567Y30927
X6468Y30435
X5681Y30730
X5779Y28072
X7256Y26498
X7720Y26939
X8051Y27431
X12413Y33289
X14342Y34569
X14441Y32895
X14539Y31419
X16901Y36242
X17295Y36931
X16606Y38702
X16220Y39624
X16488Y40317
X16980Y40612
X15689Y39450
X14933Y39588
X14145Y36832
X14736Y36635
X13653Y36832
X12472Y38801
X12374Y40750
X10996Y38801
X11448Y37285
X9381Y38427
X8338Y39135
X7236Y37246
X1153Y38978
X917Y31911
X16803Y13407
X18181Y22856
X17787Y23348
X22787Y32954
X22885Y39037
T02
X1941Y2679
X4106Y3958
X4106Y4943
X4303Y5730
X5681Y4254
X6960Y5730
X8437Y4943
X8732Y5730
X7354Y10356
X6468Y10061
X5090Y10946
X6665Y12817
X2630Y7600
X1448Y10946
X12078Y7994
X12177Y15277
X16311Y10848
X19574Y4809
X21035Y3171
X22925Y4352
X23102Y9864
T03
X12354Y4155
X10622Y4155
X9204Y39254
X7472Y39254
T04
X21035Y5533
T05
X20960Y9864
X19960Y9864
X18960Y9864
X17960Y9864
X16960Y9864
X15078Y10061
X15078Y11529
X15078Y12529
X14078Y12529
X14078Y11529
X14078Y10061
X13078Y10061
X13078Y11529
X13078Y12529
X12078Y12529
X12078Y11529
X12078Y10061
X11078Y10061
X11078Y11529
X11078Y12529
X10078Y12529
X10078Y11529
X10078Y10061
X9078Y10061
X9078Y11529
X9078Y12529
X3819Y12415
X3819Y11415
X2819Y11415
X2819Y12415
X2819Y13415
X2819Y14415
X2819Y15415
X2819Y16415
X2819Y17415
X2819Y18415
X2819Y19415
X2819Y20415
X2819Y21415
X2819Y22415
X2819Y23415
X2819Y24415
X2819Y25415
X2819Y26415
X2819Y27415
X2819Y28415
X2819Y29415
X2819Y30415
X2819Y31415
X2819Y32415
X2819Y33415
X2819Y34415
X2819Y35415
X2819Y36415
X2819Y37415
X2819Y38415
X2819Y39415
X2819Y40415
X3819Y40415
X3819Y39415
X3819Y38415
X3819Y37415
X3819Y36415
X3819Y35415
X3819Y34415
X3819Y33415
X3819Y32415
X3819Y31415
X3819Y30415
X3819Y29415
X3819Y28415
X3819Y27415
X3819Y26415
X3819Y25415
X3819Y24415
X3819Y23415
X3819Y22415
X3819Y21415
X3819Y20415
X3819Y19415
X3819Y18415
X3819Y17415
X3819Y16415
X3819Y15415
X3819Y14415
X3819Y13415
X17000Y6443
X17000Y5443
X17000Y4443
X17000Y3443
X18378Y4435
X18378Y5435
X18378Y6435
X20141Y11415
X20141Y12415
X20141Y13415
X20141Y14415
X20141Y15415
X20141Y16415
X20141Y17415
X20141Y18415
X20141Y19415
X20141Y20415
X20141Y21415
X20141Y22415
X20141Y23415
X20141Y24415
X20141Y25415
X20141Y26415
X20141Y27415
X20141Y28415
X20141Y29415
X20141Y30415
X20141Y31415
X20141Y32415
X20141Y33415
X20141Y34415
X20141Y35415
X20141Y36415
X20141Y37415
X20141Y38415
X20141Y39415
X20141Y40415
X21141Y40415
X21141Y39415
X21141Y38415
X21141Y37415
X21141Y36415
X21141Y35415
X21141Y34415
X21141Y33415
X21141Y32415
X21141Y31415
X21141Y30415
X21141Y29415
X21141Y28415
X21141Y27415
X21141Y26415
X21141Y25415
X21141Y24415
X21141Y23415
X21141Y22415
X21141Y21415
X21141Y20415
X21141Y19415
X21141Y18415
X21141Y17415
X21141Y16415
X21141Y15415
X21141Y14415
X21141Y13415
X21141Y12415
X21141Y11415
X21960Y9864
M30
