G75*
%MOIN*%
%OFA0B0*%
%FSLAX24Y24*%
%IPPOS*%
%LPD*%
%AMOC8*
5,1,8,0,0,1.08239X$1,22.5*
%
%ADD10C,0.0000*%
%ADD11C,0.0120*%
%ADD12C,0.0030*%
%ADD13C,0.0060*%
%ADD14C,0.0040*%
%ADD15C,0.0080*%
%ADD16R,0.0340X0.0300*%
%ADD17C,0.0050*%
%ADD18C,0.0039*%
%ADD19C,0.0020*%
%ADD20R,0.0059X0.0118*%
%ADD21R,0.0118X0.0118*%
%ADD22C,0.0100*%
%ADD23C,0.0348*%
%ADD24R,0.0118X0.0059*%
D10*
X000169Y001990D02*
X000169Y041360D01*
X023791Y041360D01*
X023791Y001990D01*
X000169Y001990D01*
X010445Y004155D02*
X010447Y004181D01*
X010453Y004207D01*
X010463Y004232D01*
X010476Y004255D01*
X010492Y004275D01*
X010512Y004293D01*
X010534Y004308D01*
X010557Y004320D01*
X010583Y004328D01*
X010609Y004332D01*
X010635Y004332D01*
X010661Y004328D01*
X010687Y004320D01*
X010711Y004308D01*
X010732Y004293D01*
X010752Y004275D01*
X010768Y004255D01*
X010781Y004232D01*
X010791Y004207D01*
X010797Y004181D01*
X010799Y004155D01*
X010797Y004129D01*
X010791Y004103D01*
X010781Y004078D01*
X010768Y004055D01*
X010752Y004035D01*
X010732Y004017D01*
X010710Y004002D01*
X010687Y003990D01*
X010661Y003982D01*
X010635Y003978D01*
X010609Y003978D01*
X010583Y003982D01*
X010557Y003990D01*
X010533Y004002D01*
X010512Y004017D01*
X010492Y004035D01*
X010476Y004055D01*
X010463Y004078D01*
X010453Y004103D01*
X010447Y004129D01*
X010445Y004155D01*
X012177Y004155D02*
X012179Y004181D01*
X012185Y004207D01*
X012195Y004232D01*
X012208Y004255D01*
X012224Y004275D01*
X012244Y004293D01*
X012266Y004308D01*
X012289Y004320D01*
X012315Y004328D01*
X012341Y004332D01*
X012367Y004332D01*
X012393Y004328D01*
X012419Y004320D01*
X012443Y004308D01*
X012464Y004293D01*
X012484Y004275D01*
X012500Y004255D01*
X012513Y004232D01*
X012523Y004207D01*
X012529Y004181D01*
X012531Y004155D01*
X012529Y004129D01*
X012523Y004103D01*
X012513Y004078D01*
X012500Y004055D01*
X012484Y004035D01*
X012464Y004017D01*
X012442Y004002D01*
X012419Y003990D01*
X012393Y003982D01*
X012367Y003978D01*
X012341Y003978D01*
X012315Y003982D01*
X012289Y003990D01*
X012265Y004002D01*
X012244Y004017D01*
X012224Y004035D01*
X012208Y004055D01*
X012195Y004078D01*
X012185Y004103D01*
X012179Y004129D01*
X012177Y004155D01*
X009027Y039254D02*
X009029Y039280D01*
X009035Y039306D01*
X009045Y039331D01*
X009058Y039354D01*
X009074Y039374D01*
X009094Y039392D01*
X009116Y039407D01*
X009139Y039419D01*
X009165Y039427D01*
X009191Y039431D01*
X009217Y039431D01*
X009243Y039427D01*
X009269Y039419D01*
X009293Y039407D01*
X009314Y039392D01*
X009334Y039374D01*
X009350Y039354D01*
X009363Y039331D01*
X009373Y039306D01*
X009379Y039280D01*
X009381Y039254D01*
X009379Y039228D01*
X009373Y039202D01*
X009363Y039177D01*
X009350Y039154D01*
X009334Y039134D01*
X009314Y039116D01*
X009292Y039101D01*
X009269Y039089D01*
X009243Y039081D01*
X009217Y039077D01*
X009191Y039077D01*
X009165Y039081D01*
X009139Y039089D01*
X009115Y039101D01*
X009094Y039116D01*
X009074Y039134D01*
X009058Y039154D01*
X009045Y039177D01*
X009035Y039202D01*
X009029Y039228D01*
X009027Y039254D01*
X007295Y039254D02*
X007297Y039280D01*
X007303Y039306D01*
X007313Y039331D01*
X007326Y039354D01*
X007342Y039374D01*
X007362Y039392D01*
X007384Y039407D01*
X007407Y039419D01*
X007433Y039427D01*
X007459Y039431D01*
X007485Y039431D01*
X007511Y039427D01*
X007537Y039419D01*
X007561Y039407D01*
X007582Y039392D01*
X007602Y039374D01*
X007618Y039354D01*
X007631Y039331D01*
X007641Y039306D01*
X007647Y039280D01*
X007649Y039254D01*
X007647Y039228D01*
X007641Y039202D01*
X007631Y039177D01*
X007618Y039154D01*
X007602Y039134D01*
X007582Y039116D01*
X007560Y039101D01*
X007537Y039089D01*
X007511Y039081D01*
X007485Y039077D01*
X007459Y039077D01*
X007433Y039081D01*
X007407Y039089D01*
X007383Y039101D01*
X007362Y039116D01*
X007342Y039134D01*
X007326Y039154D01*
X007313Y039177D01*
X007303Y039202D01*
X007297Y039228D01*
X007295Y039254D01*
D11*
X011761Y029697D02*
X012318Y029686D01*
X017223Y024571D01*
X017211Y024014D01*
X012096Y019109D01*
X011540Y019121D01*
X006635Y024236D01*
X006646Y024792D01*
X011761Y029697D01*
X011753Y029274D02*
X011755Y029307D01*
X011761Y029339D01*
X011770Y029371D01*
X011784Y029401D01*
X011800Y029429D01*
X011820Y029455D01*
X011843Y029479D01*
X011869Y029500D01*
X011897Y029517D01*
X011927Y029532D01*
X011958Y029542D01*
X011990Y029549D01*
X012023Y029552D01*
X012056Y029551D01*
X012088Y029546D01*
X012120Y029537D01*
X012151Y029525D01*
X012179Y029509D01*
X012206Y029490D01*
X012230Y029468D01*
X012252Y029443D01*
X012270Y029415D01*
X012285Y029386D01*
X012297Y029355D01*
X012305Y029323D01*
X012309Y029290D01*
X012309Y029258D01*
X012305Y029225D01*
X012297Y029193D01*
X012285Y029162D01*
X012270Y029133D01*
X012252Y029105D01*
X012230Y029080D01*
X012206Y029058D01*
X012179Y029039D01*
X012151Y029023D01*
X012120Y029011D01*
X012088Y029002D01*
X012056Y028997D01*
X012023Y028996D01*
X011990Y028999D01*
X011958Y029006D01*
X011927Y029016D01*
X011897Y029031D01*
X011869Y029048D01*
X011843Y029069D01*
X011820Y029093D01*
X011800Y029119D01*
X011784Y029147D01*
X011770Y029177D01*
X011761Y029209D01*
X011755Y029241D01*
X011753Y029274D01*
X013850Y007895D02*
X013850Y005730D01*
X015130Y005730D01*
X015130Y007895D01*
X013850Y007895D01*
X014145Y007600D02*
X014145Y007009D01*
X014145Y006616D02*
X014145Y006517D01*
X014145Y006124D02*
X014145Y006025D01*
X013850Y005435D02*
X013850Y003269D01*
X015130Y003269D01*
X015130Y005435D01*
X013850Y005435D01*
X014145Y005139D02*
X014145Y005041D01*
X014145Y004647D02*
X014145Y004549D01*
X014145Y004155D02*
X014145Y003565D01*
X014736Y004057D02*
X014736Y004155D01*
X014736Y004549D02*
X014736Y005139D01*
X014736Y006517D02*
X014736Y007108D01*
X014736Y007502D02*
X014736Y007600D01*
D12*
X015341Y007207D02*
X015341Y006899D01*
X015403Y006837D01*
X015527Y006837D01*
X015588Y006899D01*
X015588Y007207D01*
X015710Y007146D02*
X015710Y007084D01*
X015771Y007022D01*
X015895Y007022D01*
X015957Y006960D01*
X015957Y006899D01*
X015895Y006837D01*
X015771Y006837D01*
X015710Y006899D01*
X015710Y007146D02*
X015771Y007207D01*
X015895Y007207D01*
X015957Y007146D01*
X016078Y007207D02*
X016078Y006837D01*
X016263Y006837D01*
X016325Y006899D01*
X016325Y006960D01*
X016263Y007022D01*
X016078Y007022D01*
X016263Y007022D02*
X016325Y007084D01*
X016325Y007146D01*
X016263Y007207D01*
X016078Y007207D01*
X015957Y006607D02*
X015957Y006360D01*
X015833Y006237D01*
X015710Y006360D01*
X015710Y006607D01*
X015588Y006607D02*
X015341Y006607D01*
X015341Y006422D01*
X015465Y006484D01*
X015527Y006484D01*
X015588Y006422D01*
X015588Y006299D01*
X015527Y006237D01*
X015403Y006237D01*
X015341Y006299D01*
X015341Y004845D02*
X015341Y004475D01*
X015588Y004475D01*
X015710Y004475D02*
X015957Y004845D01*
X016078Y004845D02*
X016325Y004845D01*
X016201Y004845D02*
X016201Y004475D01*
X015957Y004475D02*
X015710Y004845D01*
X015588Y004845D02*
X015341Y004845D01*
X015341Y004660D02*
X015465Y004660D01*
X015527Y004245D02*
X015341Y004245D01*
X015341Y003875D01*
X015527Y003875D01*
X015588Y003937D01*
X015588Y004183D01*
X015527Y004245D01*
X015710Y004183D02*
X015710Y003937D01*
X015771Y003875D01*
X015895Y003875D01*
X015957Y003937D01*
X015957Y004183D02*
X015895Y004245D01*
X015771Y004245D01*
X015710Y004183D01*
X016873Y007812D02*
X016935Y007812D01*
X016996Y007874D01*
X016996Y007997D01*
X017058Y008059D01*
X017120Y008059D01*
X017181Y007997D01*
X017181Y007874D01*
X017120Y007812D01*
X016873Y007812D02*
X016811Y007874D01*
X016811Y007997D01*
X016873Y008059D01*
X016811Y008180D02*
X017181Y008180D01*
X017058Y008304D01*
X017181Y008427D01*
X016811Y008427D01*
X016873Y008548D02*
X017120Y008548D01*
X017181Y008610D01*
X017181Y008734D01*
X017120Y008795D01*
X016873Y008795D01*
X016811Y008734D01*
X016811Y008610D01*
X016873Y008548D01*
X017795Y008537D02*
X017795Y008413D01*
X017857Y008352D01*
X017919Y008352D01*
X017981Y008413D01*
X017981Y008537D01*
X018042Y008599D01*
X018104Y008599D01*
X018166Y008537D01*
X018166Y008413D01*
X018104Y008352D01*
X018166Y008230D02*
X018042Y008107D01*
X018042Y008168D02*
X018042Y007983D01*
X018166Y007983D02*
X017795Y007983D01*
X017795Y008168D01*
X017857Y008230D01*
X017981Y008230D01*
X018042Y008168D01*
X018166Y007862D02*
X017795Y007862D01*
X017795Y007615D02*
X018166Y007862D01*
X018166Y007615D02*
X017795Y007615D01*
X017795Y008537D02*
X017857Y008599D01*
X017795Y008720D02*
X017795Y008967D01*
X017795Y008843D02*
X018166Y008843D01*
X018780Y008757D02*
X018841Y008819D01*
X019088Y008819D01*
X019150Y008757D01*
X019150Y008634D01*
X019088Y008572D01*
X018841Y008572D01*
X018780Y008634D01*
X018780Y008757D01*
X018780Y008450D02*
X018780Y008326D01*
X018780Y008388D02*
X019150Y008388D01*
X019150Y008326D02*
X019150Y008450D01*
X019088Y008205D02*
X018841Y008205D01*
X018780Y008143D01*
X018780Y007958D01*
X019150Y007958D01*
X019150Y008143D01*
X019088Y008205D01*
X019150Y007836D02*
X018780Y007836D01*
X018780Y007590D02*
X019150Y007590D01*
X019027Y007713D01*
X019150Y007836D01*
X019088Y007468D02*
X019150Y007406D01*
X019150Y007283D01*
X019088Y007221D01*
X018965Y007283D02*
X018965Y007406D01*
X019027Y007468D01*
X019088Y007468D01*
X018965Y007283D02*
X018903Y007221D01*
X018841Y007221D01*
X018780Y007283D01*
X018780Y007406D01*
X018841Y007468D01*
X019764Y007491D02*
X020134Y007491D01*
X020011Y007615D01*
X020134Y007738D01*
X019764Y007738D01*
X019826Y007860D02*
X020072Y007860D01*
X020134Y007921D01*
X020134Y008045D01*
X020072Y008106D01*
X020134Y008228D02*
X020134Y008475D01*
X020134Y008596D02*
X019764Y008596D01*
X019949Y008658D02*
X020134Y008843D01*
X020011Y008596D02*
X019764Y008843D01*
X019764Y008228D02*
X020134Y008228D01*
X019826Y008106D02*
X019764Y008045D01*
X019764Y007921D01*
X019826Y007860D01*
X019826Y007370D02*
X019764Y007308D01*
X019764Y007185D01*
X019826Y007123D01*
X019887Y007123D01*
X019949Y007185D01*
X019949Y007308D01*
X020011Y007370D01*
X020072Y007370D01*
X020134Y007308D01*
X020134Y007185D01*
X020072Y007123D01*
X020810Y007910D02*
X021057Y007910D01*
X021118Y007972D01*
X021118Y008095D01*
X021057Y008157D01*
X020933Y008157D01*
X020933Y008034D01*
X020810Y008157D02*
X020748Y008095D01*
X020748Y007972D01*
X020810Y007910D01*
X020748Y008279D02*
X021118Y008525D01*
X020748Y008525D01*
X020748Y008647D02*
X020748Y008832D01*
X020810Y008894D01*
X021057Y008894D01*
X021118Y008832D01*
X021118Y008647D01*
X020748Y008647D01*
X020748Y008279D02*
X021118Y008279D01*
X021831Y008267D02*
X021831Y008391D01*
X021893Y008452D01*
X021954Y008452D01*
X022016Y008391D01*
X022078Y008452D01*
X022139Y008452D01*
X022201Y008391D01*
X022201Y008267D01*
X022139Y008206D01*
X022016Y008329D02*
X022016Y008391D01*
X022078Y008574D02*
X021831Y008574D01*
X022078Y008574D02*
X022201Y008697D01*
X022078Y008821D01*
X021831Y008821D01*
X021893Y008942D02*
X021831Y009004D01*
X021831Y009127D01*
X021893Y009189D01*
X021954Y009189D01*
X022016Y009127D01*
X022078Y009189D01*
X022139Y009189D01*
X022201Y009127D01*
X022201Y009004D01*
X022139Y008942D01*
X022016Y009066D02*
X022016Y009127D01*
X021831Y008267D02*
X021893Y008206D01*
X021899Y011257D02*
X022023Y011257D01*
X022084Y011318D01*
X022084Y011442D01*
X021961Y011442D01*
X022084Y011565D02*
X022023Y011627D01*
X021899Y011627D01*
X021837Y011565D01*
X021837Y011318D01*
X021899Y011257D01*
X022206Y011257D02*
X022206Y011627D01*
X022453Y011257D01*
X022453Y011627D01*
X022574Y011627D02*
X022574Y011257D01*
X022759Y011257D01*
X022821Y011318D01*
X022821Y011565D01*
X022759Y011627D01*
X022574Y011627D01*
X022574Y012241D02*
X022821Y012241D01*
X022698Y012241D02*
X022698Y012611D01*
X022574Y012488D01*
X022453Y012488D02*
X022453Y012550D01*
X022391Y012611D01*
X022206Y012611D01*
X022206Y012241D01*
X022391Y012241D01*
X022453Y012303D01*
X022453Y012364D01*
X022391Y012426D01*
X022206Y012426D01*
X022084Y012426D02*
X022023Y012364D01*
X021837Y012364D01*
X021837Y012241D02*
X021837Y012611D01*
X022023Y012611D01*
X022084Y012550D01*
X022084Y012426D01*
X022391Y012426D02*
X022453Y012488D01*
X022942Y012550D02*
X023004Y012611D01*
X023128Y012611D01*
X023189Y012550D01*
X023189Y012488D01*
X023128Y012426D01*
X023189Y012364D01*
X023189Y012303D01*
X023128Y012241D01*
X023004Y012241D01*
X022942Y012303D01*
X023066Y012426D02*
X023128Y012426D01*
X023128Y013225D02*
X023004Y013225D01*
X022942Y013287D01*
X022942Y013410D02*
X023066Y013472D01*
X023128Y013472D01*
X023189Y013410D01*
X023189Y013287D01*
X023128Y013225D01*
X022942Y013410D02*
X022942Y013596D01*
X023189Y013596D01*
X022821Y013225D02*
X022574Y013225D01*
X022698Y013225D02*
X022698Y013596D01*
X022574Y013472D01*
X022453Y013472D02*
X022391Y013410D01*
X022206Y013410D01*
X022084Y013410D02*
X022023Y013349D01*
X021837Y013349D01*
X021837Y013225D02*
X021837Y013596D01*
X022023Y013596D01*
X022084Y013534D01*
X022084Y013410D01*
X022206Y013225D02*
X022206Y013596D01*
X022391Y013596D01*
X022453Y013534D01*
X022453Y013472D01*
X022391Y013410D02*
X022453Y013349D01*
X022453Y013287D01*
X022391Y013225D01*
X022206Y013225D01*
X022206Y014308D02*
X022391Y014308D01*
X022453Y014370D01*
X022453Y014617D01*
X022391Y014678D01*
X022206Y014678D01*
X022206Y014308D01*
X022023Y014431D02*
X022084Y014493D01*
X022084Y014617D01*
X022023Y014678D01*
X021837Y014678D01*
X021837Y014308D01*
X021837Y014431D02*
X022023Y014431D01*
X022206Y015292D02*
X022391Y015292D01*
X022453Y015354D01*
X022453Y015601D01*
X022391Y015662D01*
X022206Y015662D01*
X022206Y015292D01*
X022084Y015477D02*
X022023Y015416D01*
X021837Y015416D01*
X021837Y015292D02*
X021837Y015662D01*
X022023Y015662D01*
X022084Y015601D01*
X022084Y015477D01*
X022574Y015539D02*
X022698Y015662D01*
X022698Y015292D01*
X022821Y015292D02*
X022574Y015292D01*
X022942Y015292D02*
X023189Y015292D01*
X023066Y015292D02*
X023066Y015662D01*
X022942Y015539D01*
X023004Y016276D02*
X022942Y016338D01*
X023004Y016276D02*
X023128Y016276D01*
X023189Y016338D01*
X023189Y016400D01*
X023128Y016462D01*
X023066Y016462D01*
X023128Y016462D02*
X023189Y016523D01*
X023189Y016585D01*
X023128Y016647D01*
X023004Y016647D01*
X022942Y016585D01*
X022698Y016647D02*
X022698Y016276D01*
X022821Y016276D02*
X022574Y016276D01*
X022453Y016338D02*
X022453Y016585D01*
X022391Y016647D01*
X022206Y016647D01*
X022206Y016276D01*
X022391Y016276D01*
X022453Y016338D01*
X022574Y016523D02*
X022698Y016647D01*
X022698Y017261D02*
X022698Y017631D01*
X022574Y017508D01*
X022453Y017569D02*
X022391Y017631D01*
X022206Y017631D01*
X022206Y017261D01*
X022391Y017261D01*
X022453Y017322D01*
X022453Y017569D01*
X022574Y017261D02*
X022821Y017261D01*
X022942Y017322D02*
X023004Y017261D01*
X023128Y017261D01*
X023189Y017322D01*
X023189Y017446D01*
X023128Y017508D01*
X023066Y017508D01*
X022942Y017446D01*
X022942Y017631D01*
X023189Y017631D01*
X022759Y018245D02*
X022821Y018307D01*
X022821Y018368D01*
X022759Y018430D01*
X022698Y018430D01*
X022759Y018430D02*
X022821Y018492D01*
X022821Y018554D01*
X022759Y018615D01*
X022636Y018615D01*
X022574Y018554D01*
X022453Y018554D02*
X022391Y018615D01*
X022267Y018615D01*
X022206Y018554D01*
X022206Y018307D01*
X022267Y018245D01*
X022391Y018245D01*
X022453Y018307D01*
X022453Y018430D01*
X022329Y018430D01*
X022084Y018430D02*
X022023Y018368D01*
X021837Y018368D01*
X021837Y018245D02*
X021837Y018615D01*
X022023Y018615D01*
X022084Y018554D01*
X022084Y018430D01*
X022574Y018307D02*
X022636Y018245D01*
X022759Y018245D01*
X022084Y017569D02*
X022084Y017446D01*
X022023Y017384D01*
X021837Y017384D01*
X021837Y017261D02*
X021837Y017631D01*
X022023Y017631D01*
X022084Y017569D01*
X022023Y016647D02*
X022084Y016585D01*
X022084Y016462D01*
X022023Y016400D01*
X021837Y016400D01*
X021837Y016276D02*
X021837Y016647D01*
X022023Y016647D01*
X022636Y014678D02*
X022574Y014617D01*
X022574Y014555D01*
X022636Y014493D01*
X022821Y014493D01*
X022821Y014370D02*
X022821Y014617D01*
X022759Y014678D01*
X022636Y014678D01*
X022574Y014370D02*
X022636Y014308D01*
X022759Y014308D01*
X022821Y014370D01*
X022759Y019229D02*
X022636Y019229D01*
X022574Y019291D01*
X022453Y019291D02*
X022453Y019414D01*
X022329Y019414D01*
X022206Y019291D02*
X022267Y019229D01*
X022391Y019229D01*
X022453Y019291D01*
X022574Y019414D02*
X022698Y019476D01*
X022759Y019476D01*
X022821Y019414D01*
X022821Y019291D01*
X022759Y019229D01*
X022574Y019414D02*
X022574Y019599D01*
X022821Y019599D01*
X022453Y019538D02*
X022391Y019599D01*
X022267Y019599D01*
X022206Y019538D01*
X022206Y019291D01*
X022084Y019414D02*
X022023Y019353D01*
X021837Y019353D01*
X021837Y019229D02*
X021837Y019599D01*
X022023Y019599D01*
X022084Y019538D01*
X022084Y019414D01*
X022267Y020312D02*
X022391Y020312D01*
X022453Y020374D01*
X022453Y020497D01*
X022329Y020497D01*
X022206Y020374D02*
X022267Y020312D01*
X022206Y020374D02*
X022206Y020620D01*
X022267Y020682D01*
X022391Y020682D01*
X022453Y020620D01*
X022574Y020682D02*
X022821Y020682D01*
X022821Y020620D01*
X022574Y020374D01*
X022574Y020312D01*
X022084Y020497D02*
X022023Y020435D01*
X021837Y020435D01*
X021837Y020312D02*
X021837Y020682D01*
X022023Y020682D01*
X022084Y020620D01*
X022084Y020497D01*
X022267Y021296D02*
X022391Y021296D01*
X022453Y021358D01*
X022574Y021358D02*
X022636Y021296D01*
X022759Y021296D01*
X022821Y021358D01*
X022821Y021420D01*
X022759Y021481D01*
X022574Y021481D01*
X022574Y021358D01*
X022574Y021481D02*
X022698Y021605D01*
X022821Y021666D01*
X022453Y021605D02*
X022391Y021666D01*
X022267Y021666D01*
X022206Y021605D01*
X022206Y021358D01*
X022267Y021296D01*
X022084Y021481D02*
X022023Y021420D01*
X021837Y021420D01*
X021837Y021296D02*
X021837Y021666D01*
X022023Y021666D01*
X022084Y021605D01*
X022084Y021481D01*
X022267Y022280D02*
X022391Y022280D01*
X022453Y022342D01*
X022574Y022342D02*
X022574Y022404D01*
X022636Y022466D01*
X022759Y022466D01*
X022821Y022404D01*
X022821Y022342D01*
X022759Y022280D01*
X022636Y022280D01*
X022574Y022342D01*
X022636Y022466D02*
X022574Y022527D01*
X022574Y022589D01*
X022636Y022651D01*
X022759Y022651D01*
X022821Y022589D01*
X022821Y022527D01*
X022759Y022466D01*
X022453Y022589D02*
X022391Y022651D01*
X022267Y022651D01*
X022206Y022589D01*
X022206Y022342D01*
X022267Y022280D01*
X022084Y022466D02*
X022023Y022404D01*
X021837Y022404D01*
X021837Y022280D02*
X021837Y022651D01*
X022023Y022651D01*
X022084Y022589D01*
X022084Y022466D01*
X022206Y023265D02*
X022206Y023511D01*
X022329Y023635D01*
X022453Y023511D01*
X022453Y023265D01*
X022574Y023326D02*
X022574Y023388D01*
X022636Y023450D01*
X022759Y023450D01*
X022821Y023388D01*
X022821Y023326D01*
X022759Y023265D01*
X022636Y023265D01*
X022574Y023326D01*
X022636Y023450D02*
X022574Y023511D01*
X022574Y023573D01*
X022636Y023635D01*
X022759Y023635D01*
X022821Y023573D01*
X022821Y023511D01*
X022759Y023450D01*
X022453Y023450D02*
X022206Y023450D01*
X022084Y023450D02*
X022023Y023388D01*
X021837Y023388D01*
X021837Y023265D02*
X021837Y023635D01*
X022023Y023635D01*
X022084Y023573D01*
X022084Y023450D01*
X022206Y024249D02*
X022206Y024496D01*
X022329Y024619D01*
X022453Y024496D01*
X022453Y024249D01*
X022574Y024249D02*
X022821Y024249D01*
X022698Y024249D02*
X022698Y024619D01*
X022574Y024496D01*
X022453Y024434D02*
X022206Y024434D01*
X022084Y024434D02*
X022023Y024372D01*
X021837Y024372D01*
X021837Y024249D02*
X021837Y024619D01*
X022023Y024619D01*
X022084Y024557D01*
X022084Y024434D01*
X022206Y025233D02*
X022206Y025480D01*
X022329Y025603D01*
X022453Y025480D01*
X022453Y025233D01*
X022574Y025233D02*
X022821Y025233D01*
X022942Y025233D02*
X023189Y025480D01*
X023189Y025542D01*
X023128Y025603D01*
X023004Y025603D01*
X022942Y025542D01*
X022698Y025603D02*
X022698Y025233D01*
X022942Y025233D02*
X023189Y025233D01*
X023128Y024619D02*
X023189Y024557D01*
X022942Y024311D01*
X023004Y024249D01*
X023128Y024249D01*
X023189Y024311D01*
X023189Y024557D01*
X023128Y024619D02*
X023004Y024619D01*
X022942Y024557D01*
X022942Y024311D01*
X022453Y025418D02*
X022206Y025418D01*
X022084Y025418D02*
X022023Y025357D01*
X021837Y025357D01*
X021837Y025233D02*
X021837Y025603D01*
X022023Y025603D01*
X022084Y025542D01*
X022084Y025418D01*
X022574Y025480D02*
X022698Y025603D01*
X022698Y026316D02*
X022698Y026686D01*
X022574Y026563D01*
X022453Y026563D02*
X022453Y026316D01*
X022574Y026316D02*
X022821Y026316D01*
X022942Y026501D02*
X023189Y026501D01*
X023128Y026686D02*
X022942Y026501D01*
X023128Y026316D02*
X023128Y026686D01*
X023128Y027300D02*
X023004Y027300D01*
X022942Y027362D01*
X023189Y027609D01*
X023189Y027362D01*
X023128Y027300D01*
X022942Y027362D02*
X022942Y027609D01*
X023004Y027670D01*
X023128Y027670D01*
X023189Y027609D01*
X022821Y027300D02*
X022574Y027300D01*
X022698Y027300D02*
X022698Y027670D01*
X022574Y027547D01*
X022453Y027609D02*
X022391Y027670D01*
X022267Y027670D01*
X022206Y027609D01*
X022206Y027362D01*
X022267Y027300D01*
X022391Y027300D01*
X022453Y027362D01*
X022084Y027485D02*
X022084Y027609D01*
X022023Y027670D01*
X021837Y027670D01*
X021837Y027300D01*
X021837Y027423D02*
X022023Y027423D01*
X022084Y027485D01*
X022023Y026686D02*
X022084Y026624D01*
X022084Y026501D01*
X022023Y026439D01*
X021837Y026439D01*
X021837Y026316D02*
X021837Y026686D01*
X022023Y026686D01*
X022206Y026563D02*
X022329Y026686D01*
X022453Y026563D01*
X022453Y026501D02*
X022206Y026501D01*
X022206Y026563D02*
X022206Y026316D01*
X022267Y028284D02*
X022391Y028284D01*
X022453Y028346D01*
X022574Y028284D02*
X022821Y028284D01*
X022942Y028284D02*
X023189Y028531D01*
X023189Y028593D01*
X023128Y028655D01*
X023004Y028655D01*
X022942Y028593D01*
X022698Y028655D02*
X022698Y028284D01*
X022942Y028284D02*
X023189Y028284D01*
X022698Y028655D02*
X022574Y028531D01*
X022453Y028593D02*
X022391Y028655D01*
X022267Y028655D01*
X022206Y028593D01*
X022206Y028346D01*
X022267Y028284D01*
X022084Y028469D02*
X022023Y028408D01*
X021837Y028408D01*
X021837Y028284D02*
X021837Y028655D01*
X022023Y028655D01*
X022084Y028593D01*
X022084Y028469D01*
X022206Y029269D02*
X022391Y029269D01*
X022453Y029330D01*
X022453Y029577D01*
X022391Y029639D01*
X022206Y029639D01*
X022206Y029269D01*
X022023Y029392D02*
X022084Y029454D01*
X022084Y029577D01*
X022023Y029639D01*
X021837Y029639D01*
X021837Y029269D01*
X021837Y029392D02*
X022023Y029392D01*
X022206Y030253D02*
X022391Y030253D01*
X022453Y030315D01*
X022453Y030561D01*
X022391Y030623D01*
X022206Y030623D01*
X022206Y030253D01*
X022023Y030376D02*
X022084Y030438D01*
X022084Y030561D01*
X022023Y030623D01*
X021837Y030623D01*
X021837Y030253D01*
X021837Y030376D02*
X022023Y030376D01*
X022206Y031237D02*
X022391Y031237D01*
X022453Y031299D01*
X022453Y031546D01*
X022391Y031607D01*
X022206Y031607D01*
X022206Y031237D01*
X022023Y031360D02*
X021837Y031360D01*
X021837Y031237D02*
X021837Y031607D01*
X022023Y031607D01*
X022084Y031546D01*
X022084Y031422D01*
X022023Y031360D01*
X022206Y032221D02*
X022391Y032221D01*
X022453Y032283D01*
X022453Y032530D01*
X022391Y032592D01*
X022206Y032592D01*
X022206Y032221D01*
X022084Y032406D02*
X022023Y032345D01*
X021837Y032345D01*
X021837Y032221D02*
X021837Y032592D01*
X022023Y032592D01*
X022084Y032530D01*
X022084Y032406D01*
X022574Y032283D02*
X022574Y032221D01*
X022574Y032283D02*
X022821Y032530D01*
X022821Y032592D01*
X022574Y032592D01*
X022574Y033304D02*
X022821Y033304D01*
X022698Y033304D02*
X022698Y033674D01*
X022574Y033551D01*
X022453Y033613D02*
X022391Y033674D01*
X022267Y033674D01*
X022206Y033613D01*
X022206Y033366D01*
X022267Y033304D01*
X022391Y033304D01*
X022453Y033366D01*
X022453Y033489D01*
X022329Y033489D01*
X022084Y033489D02*
X022023Y033427D01*
X021837Y033427D01*
X021837Y033304D02*
X021837Y033674D01*
X022023Y033674D01*
X022084Y033613D01*
X022084Y033489D01*
X022267Y034288D02*
X022391Y034288D01*
X022453Y034350D01*
X022453Y034473D01*
X022329Y034473D01*
X022206Y034350D02*
X022267Y034288D01*
X022206Y034350D02*
X022206Y034597D01*
X022267Y034659D01*
X022391Y034659D01*
X022453Y034597D01*
X022574Y034535D02*
X022698Y034659D01*
X022698Y034288D01*
X022821Y034288D02*
X022574Y034288D01*
X022942Y034288D02*
X023189Y034535D01*
X023189Y034597D01*
X023128Y034659D01*
X023004Y034659D01*
X022942Y034597D01*
X022942Y034288D02*
X023189Y034288D01*
X023128Y033674D02*
X023189Y033613D01*
X022942Y033366D01*
X023004Y033304D01*
X023128Y033304D01*
X023189Y033366D01*
X023189Y033613D01*
X023128Y033674D02*
X023004Y033674D01*
X022942Y033613D01*
X022942Y033366D01*
X022023Y034412D02*
X022084Y034473D01*
X022084Y034597D01*
X022023Y034659D01*
X021837Y034659D01*
X021837Y034288D01*
X021837Y034412D02*
X022023Y034412D01*
X021837Y035272D02*
X021837Y035643D01*
X022023Y035643D01*
X022084Y035581D01*
X022084Y035458D01*
X022023Y035396D01*
X021837Y035396D01*
X022206Y035334D02*
X022206Y035581D01*
X022267Y035643D01*
X022391Y035643D01*
X022453Y035581D01*
X022453Y035458D02*
X022329Y035458D01*
X022453Y035458D02*
X022453Y035334D01*
X022391Y035272D01*
X022267Y035272D01*
X022206Y035334D01*
X022574Y035272D02*
X022821Y035272D01*
X022698Y035272D02*
X022698Y035643D01*
X022574Y035519D01*
X022942Y035458D02*
X023189Y035458D01*
X023128Y035643D02*
X022942Y035458D01*
X023128Y035643D02*
X023128Y035272D01*
X022759Y036257D02*
X022636Y036257D01*
X022574Y036318D01*
X022453Y036318D02*
X022391Y036257D01*
X022206Y036257D01*
X022206Y036627D01*
X022391Y036627D01*
X022453Y036565D01*
X022453Y036504D01*
X022391Y036442D01*
X022206Y036442D01*
X022084Y036442D02*
X022023Y036380D01*
X021837Y036380D01*
X021837Y036257D02*
X021837Y036627D01*
X022023Y036627D01*
X022084Y036565D01*
X022084Y036442D01*
X022391Y036442D02*
X022453Y036380D01*
X022453Y036318D01*
X022698Y036442D02*
X022759Y036442D01*
X022821Y036380D01*
X022821Y036318D01*
X022759Y036257D01*
X022759Y036442D02*
X022821Y036504D01*
X022821Y036565D01*
X022759Y036627D01*
X022636Y036627D01*
X022574Y036565D01*
X022489Y037241D02*
X022304Y037241D01*
X022304Y037611D01*
X022489Y037611D01*
X022551Y037550D01*
X022551Y037488D01*
X022489Y037426D01*
X022304Y037426D01*
X022183Y037426D02*
X022183Y037550D01*
X022121Y037611D01*
X021936Y037611D01*
X021936Y037241D01*
X021936Y037364D02*
X022121Y037364D01*
X022183Y037426D01*
X022489Y037426D02*
X022551Y037364D01*
X022551Y037303D01*
X022489Y037241D01*
X022672Y037303D02*
X022734Y037241D01*
X022858Y037241D01*
X022919Y037303D01*
X022919Y037426D01*
X022858Y037488D01*
X022796Y037488D01*
X022672Y037426D01*
X022672Y037611D01*
X022919Y037611D01*
X022672Y038324D02*
X022672Y038385D01*
X022919Y038632D01*
X022919Y038694D01*
X022672Y038694D01*
X022551Y038632D02*
X022551Y038571D01*
X022489Y038509D01*
X022304Y038509D01*
X022183Y038509D02*
X022121Y038447D01*
X021936Y038447D01*
X021936Y038324D02*
X021936Y038694D01*
X022121Y038694D01*
X022183Y038632D01*
X022183Y038509D01*
X022304Y038324D02*
X022304Y038694D01*
X022489Y038694D01*
X022551Y038632D01*
X022489Y038509D02*
X022551Y038447D01*
X022551Y038385D01*
X022489Y038324D01*
X022304Y038324D01*
X022304Y039308D02*
X022489Y039308D01*
X022551Y039370D01*
X022551Y039431D01*
X022489Y039493D01*
X022304Y039493D01*
X022183Y039493D02*
X022121Y039431D01*
X021936Y039431D01*
X021936Y039308D02*
X021936Y039678D01*
X022121Y039678D01*
X022183Y039617D01*
X022183Y039493D01*
X022304Y039308D02*
X022304Y039678D01*
X022489Y039678D01*
X022551Y039617D01*
X022551Y039555D01*
X022489Y039493D01*
X022672Y039431D02*
X022734Y039493D01*
X022858Y039493D01*
X022919Y039431D01*
X022919Y039370D01*
X022858Y039308D01*
X022734Y039308D01*
X022672Y039370D01*
X022672Y039431D01*
X022734Y039493D02*
X022672Y039555D01*
X022672Y039617D01*
X022734Y039678D01*
X022858Y039678D01*
X022919Y039617D01*
X022919Y039555D01*
X022858Y039493D01*
X022858Y040292D02*
X022734Y040292D01*
X022672Y040354D01*
X022919Y040601D01*
X022919Y040354D01*
X022858Y040292D01*
X022672Y040354D02*
X022672Y040601D01*
X022734Y040662D01*
X022858Y040662D01*
X022919Y040601D01*
X022551Y040662D02*
X022304Y040662D01*
X022304Y040292D01*
X022551Y040292D01*
X022428Y040477D02*
X022304Y040477D01*
X022183Y040477D02*
X022121Y040416D01*
X021936Y040416D01*
X021936Y040292D02*
X021936Y040662D01*
X022121Y040662D01*
X022183Y040601D01*
X022183Y040477D01*
X019553Y040528D02*
X019306Y040528D01*
X019185Y040528D02*
X018938Y040528D01*
X018938Y040899D01*
X019185Y040899D01*
X019306Y040775D02*
X019430Y040899D01*
X019430Y040528D01*
X019061Y040714D02*
X018938Y040714D01*
X018817Y040714D02*
X018755Y040652D01*
X018570Y040652D01*
X018570Y040528D02*
X018570Y040899D01*
X018755Y040899D01*
X018817Y040837D01*
X018817Y040714D01*
X018859Y039580D02*
X019044Y039580D01*
X019106Y039518D01*
X019106Y039456D01*
X019044Y039395D01*
X018859Y039395D01*
X018738Y039395D02*
X018676Y039333D01*
X018491Y039333D01*
X018491Y039209D02*
X018491Y039580D01*
X018676Y039580D01*
X018738Y039518D01*
X018738Y039395D01*
X018859Y039209D02*
X018859Y039580D01*
X019044Y039395D02*
X019106Y039333D01*
X019106Y039271D01*
X019044Y039209D01*
X018859Y039209D01*
X019228Y039271D02*
X019289Y039209D01*
X019413Y039209D01*
X019474Y039271D01*
X019474Y039518D01*
X019413Y039580D01*
X019289Y039580D01*
X019228Y039518D01*
X019228Y039456D01*
X019289Y039395D01*
X019474Y039395D01*
X019303Y038477D02*
X019365Y038416D01*
X019118Y038169D01*
X019180Y038107D01*
X019303Y038107D01*
X019365Y038169D01*
X019365Y038416D01*
X019303Y038477D02*
X019180Y038477D01*
X019118Y038416D01*
X019118Y038169D01*
X018873Y038107D02*
X018873Y038477D01*
X018996Y038477D02*
X018749Y038477D01*
X018628Y038416D02*
X018628Y038169D01*
X018566Y038107D01*
X018443Y038107D01*
X018381Y038169D01*
X018381Y038416D01*
X018443Y038477D01*
X018566Y038477D01*
X018628Y038416D01*
X018260Y038416D02*
X018260Y038169D01*
X018198Y038107D01*
X018075Y038107D01*
X018013Y038169D01*
X018013Y038416D01*
X018075Y038477D01*
X018198Y038477D01*
X018260Y038416D01*
X017891Y038416D02*
X017891Y038354D01*
X017830Y038292D01*
X017645Y038292D01*
X017830Y038292D02*
X017891Y038231D01*
X017891Y038169D01*
X017830Y038107D01*
X017645Y038107D01*
X017645Y038477D01*
X017830Y038477D01*
X017891Y038416D01*
X018393Y037611D02*
X018578Y037611D01*
X018639Y037550D01*
X018639Y037426D01*
X018578Y037364D01*
X018393Y037364D01*
X018393Y037241D02*
X018393Y037611D01*
X018761Y037611D02*
X018761Y037241D01*
X018946Y037241D01*
X019008Y037303D01*
X019008Y037364D01*
X018946Y037426D01*
X018761Y037426D01*
X018946Y037426D02*
X019008Y037488D01*
X019008Y037550D01*
X018946Y037611D01*
X018761Y037611D01*
X019129Y037426D02*
X019314Y037426D01*
X019376Y037364D01*
X019376Y037303D01*
X019314Y037241D01*
X019191Y037241D01*
X019129Y037303D01*
X019129Y037426D01*
X019253Y037550D01*
X019376Y037611D01*
X019314Y036627D02*
X019129Y036442D01*
X019376Y036442D01*
X019314Y036257D02*
X019314Y036627D01*
X019008Y036565D02*
X019008Y036504D01*
X018946Y036442D01*
X018761Y036442D01*
X018639Y036442D02*
X018578Y036380D01*
X018393Y036380D01*
X018393Y036257D02*
X018393Y036627D01*
X018578Y036627D01*
X018639Y036565D01*
X018639Y036442D01*
X018761Y036257D02*
X018761Y036627D01*
X018946Y036627D01*
X019008Y036565D01*
X018946Y036442D02*
X019008Y036380D01*
X019008Y036318D01*
X018946Y036257D01*
X018761Y036257D01*
X018859Y035643D02*
X018859Y035272D01*
X018982Y035272D02*
X018735Y035272D01*
X018614Y035334D02*
X018614Y035458D01*
X018491Y035458D01*
X018614Y035581D02*
X018552Y035643D01*
X018429Y035643D01*
X018367Y035581D01*
X018367Y035334D01*
X018429Y035272D01*
X018552Y035272D01*
X018614Y035334D01*
X018735Y035519D02*
X018859Y035643D01*
X019104Y035643D02*
X019104Y035458D01*
X019227Y035519D01*
X019289Y035519D01*
X019351Y035458D01*
X019351Y035334D01*
X019289Y035272D01*
X019166Y035272D01*
X019104Y035334D01*
X019104Y035643D02*
X019351Y035643D01*
X019289Y034659D02*
X019166Y034659D01*
X019104Y034597D01*
X019227Y034473D02*
X019289Y034473D01*
X019351Y034412D01*
X019351Y034350D01*
X019289Y034288D01*
X019166Y034288D01*
X019104Y034350D01*
X018982Y034288D02*
X018735Y034288D01*
X018859Y034288D02*
X018859Y034659D01*
X018735Y034535D01*
X018614Y034473D02*
X018491Y034473D01*
X018614Y034473D02*
X018614Y034350D01*
X018552Y034288D01*
X018429Y034288D01*
X018367Y034350D01*
X018367Y034597D01*
X018429Y034659D01*
X018552Y034659D01*
X018614Y034597D01*
X018246Y034597D02*
X018246Y034473D01*
X018184Y034412D01*
X017999Y034412D01*
X017999Y034288D02*
X017999Y034659D01*
X018184Y034659D01*
X018246Y034597D01*
X017999Y035272D02*
X017999Y035643D01*
X018184Y035643D01*
X018246Y035581D01*
X018246Y035458D01*
X018184Y035396D01*
X017999Y035396D01*
X018097Y033674D02*
X018282Y033674D01*
X018344Y033613D01*
X018344Y033489D01*
X018282Y033427D01*
X018097Y033427D01*
X018097Y033304D02*
X018097Y033674D01*
X018466Y033613D02*
X018466Y033366D01*
X018527Y033304D01*
X018651Y033304D01*
X018712Y033366D01*
X018712Y033489D01*
X018589Y033489D01*
X018466Y033613D02*
X018527Y033674D01*
X018651Y033674D01*
X018712Y033613D01*
X018834Y033551D02*
X018957Y033674D01*
X018957Y033304D01*
X018834Y033304D02*
X019081Y033304D01*
X019202Y033304D02*
X019449Y033304D01*
X019326Y033304D02*
X019326Y033674D01*
X019202Y033551D01*
X019191Y032690D02*
X019129Y032628D01*
X019129Y032567D01*
X019191Y032505D01*
X019376Y032505D01*
X019376Y032628D02*
X019376Y032381D01*
X019314Y032320D01*
X019191Y032320D01*
X019129Y032381D01*
X019008Y032381D02*
X019008Y032505D01*
X018884Y032505D01*
X018761Y032628D02*
X018761Y032381D01*
X018823Y032320D01*
X018946Y032320D01*
X019008Y032381D01*
X019008Y032628D02*
X018946Y032690D01*
X018823Y032690D01*
X018761Y032628D01*
X018639Y032628D02*
X018639Y032505D01*
X018578Y032443D01*
X018393Y032443D01*
X018393Y032320D02*
X018393Y032690D01*
X018578Y032690D01*
X018639Y032628D01*
X019191Y032690D02*
X019314Y032690D01*
X019376Y032628D01*
X019376Y031607D02*
X019253Y031546D01*
X019129Y031422D01*
X019314Y031422D01*
X019376Y031360D01*
X019376Y031299D01*
X019314Y031237D01*
X019191Y031237D01*
X019129Y031299D01*
X019129Y031422D01*
X019008Y031299D02*
X019008Y031546D01*
X018946Y031607D01*
X018761Y031607D01*
X018761Y031237D01*
X018946Y031237D01*
X019008Y031299D01*
X018639Y031422D02*
X018578Y031360D01*
X018393Y031360D01*
X018393Y031237D02*
X018393Y031607D01*
X018578Y031607D01*
X018639Y031546D01*
X018639Y031422D01*
X018578Y030623D02*
X018393Y030623D01*
X018393Y030253D01*
X018393Y030376D02*
X018578Y030376D01*
X018639Y030438D01*
X018639Y030561D01*
X018578Y030623D01*
X018761Y030623D02*
X018761Y030253D01*
X018946Y030253D01*
X019008Y030315D01*
X019008Y030561D01*
X018946Y030623D01*
X018761Y030623D01*
X019129Y030438D02*
X019376Y030438D01*
X019314Y030253D02*
X019314Y030623D01*
X019129Y030438D01*
X019191Y029639D02*
X019129Y029577D01*
X019191Y029639D02*
X019314Y029639D01*
X019376Y029577D01*
X019376Y029515D01*
X019129Y029269D01*
X019376Y029269D01*
X019008Y029330D02*
X019008Y029577D01*
X018946Y029639D01*
X018761Y029639D01*
X018761Y029269D01*
X018946Y029269D01*
X019008Y029330D01*
X018639Y029454D02*
X018578Y029392D01*
X018393Y029392D01*
X018393Y029269D02*
X018393Y029639D01*
X018578Y029639D01*
X018639Y029577D01*
X018639Y029454D01*
X018578Y028655D02*
X018393Y028655D01*
X018393Y028284D01*
X018393Y028408D02*
X018578Y028408D01*
X018639Y028469D01*
X018639Y028593D01*
X018578Y028655D01*
X018761Y028655D02*
X018761Y028284D01*
X018946Y028284D01*
X019008Y028346D01*
X019008Y028593D01*
X018946Y028655D01*
X018761Y028655D01*
X019129Y028593D02*
X019129Y028346D01*
X019376Y028593D01*
X019376Y028346D01*
X019314Y028284D01*
X019191Y028284D01*
X019129Y028346D01*
X019129Y028593D02*
X019191Y028655D01*
X019314Y028655D01*
X019376Y028593D01*
X019326Y027670D02*
X019326Y027300D01*
X019449Y027300D02*
X019202Y027300D01*
X019081Y027300D02*
X018834Y027300D01*
X018957Y027300D02*
X018957Y027670D01*
X018834Y027547D01*
X018712Y027609D02*
X018651Y027670D01*
X018527Y027670D01*
X018466Y027609D01*
X018466Y027362D01*
X018527Y027300D01*
X018651Y027300D01*
X018712Y027362D01*
X018344Y027485D02*
X018282Y027423D01*
X018097Y027423D01*
X018097Y027300D02*
X018097Y027670D01*
X018282Y027670D01*
X018344Y027609D01*
X018344Y027485D01*
X018282Y026686D02*
X018097Y026686D01*
X018097Y026316D01*
X018097Y026439D02*
X018282Y026439D01*
X018344Y026501D01*
X018344Y026624D01*
X018282Y026686D01*
X018466Y026563D02*
X018589Y026686D01*
X018712Y026563D01*
X018712Y026316D01*
X018834Y026316D02*
X019081Y026316D01*
X018957Y026316D02*
X018957Y026686D01*
X018834Y026563D01*
X018712Y026501D02*
X018466Y026501D01*
X018466Y026563D02*
X018466Y026316D01*
X018589Y025603D02*
X018712Y025480D01*
X018712Y025233D01*
X018834Y025233D02*
X019081Y025233D01*
X018957Y025233D02*
X018957Y025603D01*
X018834Y025480D01*
X018712Y025418D02*
X018466Y025418D01*
X018466Y025480D02*
X018466Y025233D01*
X018282Y025357D02*
X018097Y025357D01*
X018097Y025233D02*
X018097Y025603D01*
X018282Y025603D01*
X018344Y025542D01*
X018344Y025418D01*
X018282Y025357D01*
X018466Y025480D02*
X018589Y025603D01*
X018687Y024619D02*
X018811Y024496D01*
X018811Y024249D01*
X018932Y024249D02*
X019179Y024249D01*
X019301Y024249D02*
X019548Y024249D01*
X019424Y024249D02*
X019424Y024619D01*
X019301Y024496D01*
X019056Y024619D02*
X019056Y024249D01*
X018932Y024496D02*
X019056Y024619D01*
X018811Y024434D02*
X018564Y024434D01*
X018564Y024496D02*
X018687Y024619D01*
X018564Y024496D02*
X018564Y024249D01*
X018381Y024372D02*
X018196Y024372D01*
X018196Y024249D02*
X018196Y024619D01*
X018381Y024619D01*
X018443Y024557D01*
X018443Y024434D01*
X018381Y024372D01*
X018491Y023635D02*
X018676Y023635D01*
X018738Y023573D01*
X018738Y023450D01*
X018676Y023388D01*
X018491Y023388D01*
X018491Y023265D02*
X018491Y023635D01*
X018859Y023511D02*
X018859Y023265D01*
X018859Y023450D02*
X019106Y023450D01*
X019106Y023511D02*
X019106Y023265D01*
X019228Y023326D02*
X019289Y023265D01*
X019413Y023265D01*
X019474Y023326D01*
X019474Y023573D01*
X019413Y023635D01*
X019289Y023635D01*
X019228Y023573D01*
X019228Y023511D01*
X019289Y023450D01*
X019474Y023450D01*
X019106Y023511D02*
X018983Y023635D01*
X018859Y023511D01*
X018823Y022651D02*
X018761Y022589D01*
X018761Y022342D01*
X018823Y022280D01*
X018946Y022280D01*
X019008Y022342D01*
X019129Y022342D02*
X019191Y022280D01*
X019314Y022280D01*
X019376Y022342D01*
X019376Y022589D01*
X019314Y022651D01*
X019191Y022651D01*
X019129Y022589D01*
X019129Y022527D01*
X019191Y022466D01*
X019376Y022466D01*
X019008Y022589D02*
X018946Y022651D01*
X018823Y022651D01*
X018639Y022589D02*
X018639Y022466D01*
X018578Y022404D01*
X018393Y022404D01*
X018393Y022280D02*
X018393Y022651D01*
X018578Y022651D01*
X018639Y022589D01*
X018578Y021666D02*
X018393Y021666D01*
X018393Y021296D01*
X018393Y021420D02*
X018578Y021420D01*
X018639Y021481D01*
X018639Y021605D01*
X018578Y021666D01*
X018761Y021605D02*
X018761Y021358D01*
X018823Y021296D01*
X018946Y021296D01*
X019008Y021358D01*
X019129Y021358D02*
X019129Y021296D01*
X019129Y021358D02*
X019376Y021605D01*
X019376Y021666D01*
X019129Y021666D01*
X019008Y021605D02*
X018946Y021666D01*
X018823Y021666D01*
X018761Y021605D01*
X018823Y020682D02*
X018761Y020620D01*
X018761Y020374D01*
X018823Y020312D01*
X018946Y020312D01*
X019008Y020374D01*
X019008Y020497D01*
X018884Y020497D01*
X019008Y020620D02*
X018946Y020682D01*
X018823Y020682D01*
X018639Y020620D02*
X018639Y020497D01*
X018578Y020435D01*
X018393Y020435D01*
X018393Y020312D02*
X018393Y020682D01*
X018578Y020682D01*
X018639Y020620D01*
X019129Y020620D02*
X019129Y020559D01*
X019191Y020497D01*
X019314Y020497D01*
X019376Y020435D01*
X019376Y020374D01*
X019314Y020312D01*
X019191Y020312D01*
X019129Y020374D01*
X019129Y020435D01*
X019191Y020497D01*
X019314Y020497D02*
X019376Y020559D01*
X019376Y020620D01*
X019314Y020682D01*
X019191Y020682D01*
X019129Y020620D01*
X018946Y019599D02*
X018823Y019599D01*
X018761Y019538D01*
X018761Y019291D01*
X018823Y019229D01*
X018946Y019229D01*
X019008Y019291D01*
X019008Y019414D01*
X018884Y019414D01*
X019008Y019538D02*
X018946Y019599D01*
X019129Y019414D02*
X019314Y019414D01*
X019376Y019353D01*
X019376Y019291D01*
X019314Y019229D01*
X019191Y019229D01*
X019129Y019291D01*
X019129Y019414D01*
X019253Y019538D01*
X019376Y019599D01*
X019314Y018615D02*
X019129Y018430D01*
X019376Y018430D01*
X019314Y018245D02*
X019314Y018615D01*
X019008Y018554D02*
X018946Y018615D01*
X018823Y018615D01*
X018761Y018554D01*
X018761Y018307D01*
X018823Y018245D01*
X018946Y018245D01*
X019008Y018307D01*
X019008Y018430D01*
X018884Y018430D01*
X018639Y018430D02*
X018578Y018368D01*
X018393Y018368D01*
X018393Y018245D02*
X018393Y018615D01*
X018578Y018615D01*
X018639Y018554D01*
X018639Y018430D01*
X018578Y017631D02*
X018393Y017631D01*
X018393Y017261D01*
X018393Y017384D02*
X018578Y017384D01*
X018639Y017446D01*
X018639Y017569D01*
X018578Y017631D01*
X018761Y017569D02*
X018761Y017322D01*
X018823Y017261D01*
X018946Y017261D01*
X019008Y017322D01*
X019008Y017446D01*
X018884Y017446D01*
X018761Y017569D02*
X018823Y017631D01*
X018946Y017631D01*
X019008Y017569D01*
X019129Y017569D02*
X019191Y017631D01*
X019314Y017631D01*
X019376Y017569D01*
X019376Y017508D01*
X019129Y017261D01*
X019376Y017261D01*
X019387Y016647D02*
X019202Y016462D01*
X019449Y016462D01*
X019387Y016647D02*
X019387Y016276D01*
X019081Y016276D02*
X018834Y016276D01*
X018957Y016276D02*
X018957Y016647D01*
X018834Y016523D01*
X018712Y016585D02*
X018651Y016647D01*
X018466Y016647D01*
X018466Y016276D01*
X018651Y016276D01*
X018712Y016338D01*
X018712Y016585D01*
X018344Y016585D02*
X018344Y016462D01*
X018282Y016400D01*
X018097Y016400D01*
X018097Y016276D02*
X018097Y016647D01*
X018282Y016647D01*
X018344Y016585D01*
X018282Y015662D02*
X018097Y015662D01*
X018097Y015292D01*
X018097Y015416D02*
X018282Y015416D01*
X018344Y015477D01*
X018344Y015601D01*
X018282Y015662D01*
X018466Y015662D02*
X018466Y015292D01*
X018651Y015292D01*
X018712Y015354D01*
X018712Y015601D01*
X018651Y015662D01*
X018466Y015662D01*
X018834Y015539D02*
X018957Y015662D01*
X018957Y015292D01*
X018834Y015292D02*
X019081Y015292D01*
X019202Y015292D02*
X019449Y015539D01*
X019449Y015601D01*
X019387Y015662D01*
X019264Y015662D01*
X019202Y015601D01*
X019202Y015292D02*
X019449Y015292D01*
X019387Y014580D02*
X019449Y014518D01*
X019202Y014271D01*
X019264Y014209D01*
X019387Y014209D01*
X019449Y014271D01*
X019449Y014518D01*
X019387Y014580D02*
X019264Y014580D01*
X019202Y014518D01*
X019202Y014271D01*
X019081Y014209D02*
X018834Y014209D01*
X018957Y014209D02*
X018957Y014580D01*
X018834Y014456D01*
X018712Y014518D02*
X018651Y014580D01*
X018466Y014580D01*
X018466Y014209D01*
X018651Y014209D01*
X018712Y014271D01*
X018712Y014518D01*
X018344Y014518D02*
X018344Y014395D01*
X018282Y014333D01*
X018097Y014333D01*
X018097Y014209D02*
X018097Y014580D01*
X018282Y014580D01*
X018344Y014518D01*
X018393Y013596D02*
X018578Y013596D01*
X018639Y013534D01*
X018639Y013410D01*
X018578Y013349D01*
X018393Y013349D01*
X018393Y013225D02*
X018393Y013596D01*
X018761Y013596D02*
X018761Y013225D01*
X018946Y013225D01*
X019008Y013287D01*
X019008Y013534D01*
X018946Y013596D01*
X018761Y013596D01*
X019129Y013534D02*
X019129Y013472D01*
X019191Y013410D01*
X019314Y013410D01*
X019376Y013349D01*
X019376Y013287D01*
X019314Y013225D01*
X019191Y013225D01*
X019129Y013287D01*
X019129Y013349D01*
X019191Y013410D01*
X019314Y013410D02*
X019376Y013472D01*
X019376Y013534D01*
X019314Y013596D01*
X019191Y013596D01*
X019129Y013534D01*
X018957Y012611D02*
X018957Y012241D01*
X018834Y012241D02*
X019081Y012241D01*
X019202Y012426D02*
X019387Y012611D01*
X019387Y012241D01*
X019449Y012426D02*
X019202Y012426D01*
X018957Y012611D02*
X018834Y012488D01*
X018712Y012488D02*
X018651Y012426D01*
X018466Y012426D01*
X018344Y012426D02*
X018344Y012550D01*
X018282Y012611D01*
X018097Y012611D01*
X018097Y012241D01*
X018097Y012364D02*
X018282Y012364D01*
X018344Y012426D01*
X018466Y012241D02*
X018466Y012611D01*
X018651Y012611D01*
X018712Y012550D01*
X018712Y012488D01*
X018651Y012426D02*
X018712Y012364D01*
X018712Y012303D01*
X018651Y012241D01*
X018466Y012241D01*
X018466Y011627D02*
X018651Y011627D01*
X018712Y011565D01*
X018712Y011504D01*
X018651Y011442D01*
X018466Y011442D01*
X018344Y011442D02*
X018282Y011380D01*
X018097Y011380D01*
X018097Y011257D02*
X018097Y011627D01*
X018282Y011627D01*
X018344Y011565D01*
X018344Y011442D01*
X018466Y011257D02*
X018466Y011627D01*
X018651Y011442D02*
X018712Y011380D01*
X018712Y011318D01*
X018651Y011257D01*
X018466Y011257D01*
X018834Y011257D02*
X019081Y011257D01*
X019202Y011257D02*
X019449Y011504D01*
X019449Y011565D01*
X019387Y011627D01*
X019264Y011627D01*
X019202Y011565D01*
X018957Y011627D02*
X018957Y011257D01*
X019202Y011257D02*
X019449Y011257D01*
X018957Y011627D02*
X018834Y011504D01*
X016817Y011479D02*
X016817Y011417D01*
X016755Y011355D01*
X016632Y011355D01*
X016570Y011417D01*
X016449Y011479D02*
X016449Y011725D01*
X016570Y011664D02*
X016632Y011725D01*
X016755Y011725D01*
X016817Y011664D01*
X016817Y011602D01*
X016755Y011540D01*
X016817Y011479D01*
X016755Y011540D02*
X016694Y011540D01*
X016449Y011479D02*
X016325Y011355D01*
X016202Y011479D01*
X016202Y011725D01*
X016080Y011664D02*
X016080Y011602D01*
X016019Y011540D01*
X016080Y011479D01*
X016080Y011417D01*
X016019Y011355D01*
X015895Y011355D01*
X015834Y011417D01*
X015957Y011540D02*
X016019Y011540D01*
X016080Y011664D02*
X016019Y011725D01*
X015895Y011725D01*
X015834Y011664D01*
X015895Y012339D02*
X016019Y012339D01*
X016080Y012401D01*
X016080Y012525D01*
X015957Y012525D01*
X016080Y012648D02*
X016019Y012710D01*
X015895Y012710D01*
X015834Y012648D01*
X015834Y012401D01*
X015895Y012339D01*
X016202Y012339D02*
X016202Y012710D01*
X016449Y012339D01*
X016449Y012710D01*
X016570Y012710D02*
X016570Y012339D01*
X016755Y012339D01*
X016817Y012401D01*
X016817Y012648D01*
X016755Y012710D01*
X016570Y012710D01*
X018393Y019229D02*
X018393Y019599D01*
X018578Y019599D01*
X018639Y019538D01*
X018639Y019414D01*
X018578Y019353D01*
X018393Y019353D01*
X019264Y025233D02*
X019202Y025295D01*
X019264Y025233D02*
X019387Y025233D01*
X019449Y025295D01*
X019449Y025357D01*
X019387Y025418D01*
X019326Y025418D01*
X019387Y025418D02*
X019449Y025480D01*
X019449Y025542D01*
X019387Y025603D01*
X019264Y025603D01*
X019202Y025542D01*
X019264Y026316D02*
X019202Y026378D01*
X019264Y026316D02*
X019387Y026316D01*
X019449Y026378D01*
X019449Y026501D01*
X019387Y026563D01*
X019326Y026563D01*
X019202Y026501D01*
X019202Y026686D01*
X019449Y026686D01*
X019202Y027547D02*
X019326Y027670D01*
X022574Y029269D02*
X022821Y029269D01*
X022698Y029269D02*
X022698Y029639D01*
X022574Y029515D01*
X022636Y030253D02*
X022574Y030315D01*
X022636Y030253D02*
X022759Y030253D01*
X022821Y030315D01*
X022821Y030376D01*
X022759Y030438D01*
X022698Y030438D01*
X022759Y030438D02*
X022821Y030500D01*
X022821Y030561D01*
X022759Y030623D01*
X022636Y030623D01*
X022574Y030561D01*
X022636Y031237D02*
X022574Y031299D01*
X022636Y031237D02*
X022759Y031237D01*
X022821Y031299D01*
X022821Y031422D01*
X022759Y031484D01*
X022698Y031484D01*
X022574Y031422D01*
X022574Y031607D01*
X022821Y031607D01*
X019351Y034535D02*
X019289Y034473D01*
X019351Y034535D02*
X019351Y034597D01*
X019289Y034659D01*
X009286Y017690D02*
X009039Y017690D01*
X008918Y017690D02*
X008671Y017690D01*
X008671Y017320D01*
X008918Y017320D01*
X008794Y017505D02*
X008671Y017505D01*
X008549Y017443D02*
X008549Y017381D01*
X008488Y017320D01*
X008364Y017320D01*
X008302Y017381D01*
X008181Y017320D02*
X007934Y017320D01*
X007934Y017690D01*
X008181Y017690D01*
X008302Y017628D02*
X008302Y017567D01*
X008364Y017505D01*
X008488Y017505D01*
X008549Y017443D01*
X008549Y017628D02*
X008488Y017690D01*
X008364Y017690D01*
X008302Y017628D01*
X008058Y017505D02*
X007934Y017505D01*
X007813Y017505D02*
X007813Y017628D01*
X007751Y017690D01*
X007566Y017690D01*
X007566Y017320D01*
X007566Y017443D02*
X007751Y017443D01*
X007813Y017505D01*
X007689Y017443D02*
X007813Y017320D01*
X009162Y017320D02*
X009162Y017690D01*
X005805Y019229D02*
X005805Y019599D01*
X005620Y019414D01*
X005866Y019414D01*
X005498Y019229D02*
X005251Y019229D01*
X005375Y019229D02*
X005375Y019599D01*
X005251Y019476D01*
X005130Y019599D02*
X004883Y019599D01*
X004883Y019229D01*
X004883Y019414D02*
X005006Y019414D01*
X004761Y019414D02*
X004700Y019353D01*
X004515Y019353D01*
X004515Y019229D02*
X004515Y019599D01*
X004700Y019599D01*
X004761Y019538D01*
X004761Y019414D01*
X004700Y018615D02*
X004515Y018615D01*
X004515Y018245D01*
X004515Y018368D02*
X004700Y018368D01*
X004761Y018430D01*
X004761Y018554D01*
X004700Y018615D01*
X004883Y018554D02*
X004883Y018307D01*
X004945Y018245D01*
X005068Y018245D01*
X005130Y018307D01*
X005130Y018430D01*
X005006Y018430D01*
X004883Y018554D02*
X004945Y018615D01*
X005068Y018615D01*
X005130Y018554D01*
X005251Y018554D02*
X005313Y018615D01*
X005436Y018615D01*
X005498Y018554D01*
X005251Y018307D01*
X005313Y018245D01*
X005436Y018245D01*
X005498Y018307D01*
X005498Y018554D01*
X005251Y018554D02*
X005251Y018307D01*
X005251Y017631D02*
X005498Y017631D01*
X005498Y017569D01*
X005251Y017322D01*
X005251Y017261D01*
X005130Y017261D02*
X004883Y017261D01*
X004883Y017631D01*
X005130Y017631D01*
X005006Y017446D02*
X004883Y017446D01*
X004761Y017446D02*
X004761Y017569D01*
X004700Y017631D01*
X004515Y017631D01*
X004515Y017261D01*
X004515Y017384D02*
X004700Y017384D01*
X004761Y017446D01*
X004700Y016647D02*
X004515Y016647D01*
X004515Y016276D01*
X004515Y016400D02*
X004700Y016400D01*
X004761Y016462D01*
X004761Y016585D01*
X004700Y016647D01*
X004883Y016647D02*
X004883Y016276D01*
X005130Y016276D01*
X005251Y016338D02*
X005313Y016276D01*
X005436Y016276D01*
X005498Y016338D01*
X005498Y016585D01*
X005436Y016647D01*
X005313Y016647D01*
X005251Y016585D01*
X005251Y016523D01*
X005313Y016462D01*
X005498Y016462D01*
X005130Y016647D02*
X004883Y016647D01*
X004883Y016462D02*
X005006Y016462D01*
X004883Y015269D02*
X004883Y014898D01*
X005130Y014898D01*
X005251Y014898D02*
X005498Y014898D01*
X005620Y014898D02*
X005866Y014898D01*
X005743Y014898D02*
X005743Y015269D01*
X005620Y015145D01*
X005375Y015269D02*
X005375Y014898D01*
X005251Y015145D02*
X005375Y015269D01*
X005130Y015269D02*
X004883Y015269D01*
X004761Y015207D02*
X004761Y015084D01*
X004700Y015022D01*
X004515Y015022D01*
X004515Y014898D02*
X004515Y015269D01*
X004700Y015269D01*
X004761Y015207D01*
X004883Y015084D02*
X005006Y015084D01*
X004883Y014580D02*
X004883Y014209D01*
X005130Y014209D01*
X005251Y014209D02*
X005498Y014209D01*
X005375Y014209D02*
X005375Y014580D01*
X005251Y014456D01*
X005130Y014580D02*
X004883Y014580D01*
X004761Y014518D02*
X004761Y014395D01*
X004700Y014333D01*
X004515Y014333D01*
X004515Y014209D02*
X004515Y014580D01*
X004700Y014580D01*
X004761Y014518D01*
X004883Y014395D02*
X005006Y014395D01*
X004883Y013596D02*
X004883Y013225D01*
X005130Y013225D01*
X005251Y013225D02*
X005498Y013225D01*
X005375Y013225D02*
X005375Y013596D01*
X005251Y013472D01*
X005130Y013596D02*
X004883Y013596D01*
X004761Y013534D02*
X004761Y013410D01*
X004700Y013349D01*
X004515Y013349D01*
X004515Y013225D02*
X004515Y013596D01*
X004700Y013596D01*
X004761Y013534D01*
X004883Y013410D02*
X005006Y013410D01*
X005068Y012710D02*
X004883Y012710D01*
X004883Y012339D01*
X005068Y012339D01*
X005130Y012401D01*
X005130Y012463D01*
X005068Y012525D01*
X004883Y012525D01*
X004761Y012525D02*
X004700Y012463D01*
X004515Y012463D01*
X004515Y012339D02*
X004515Y012710D01*
X004700Y012710D01*
X004761Y012648D01*
X004761Y012525D01*
X005068Y012525D02*
X005130Y012586D01*
X005130Y012648D01*
X005068Y012710D01*
X005251Y012586D02*
X005375Y012710D01*
X005375Y012339D01*
X005498Y012339D02*
X005251Y012339D01*
X005620Y012339D02*
X005866Y012339D01*
X005743Y012339D02*
X005743Y012710D01*
X005620Y012586D01*
X005681Y013225D02*
X005620Y013287D01*
X005681Y013225D02*
X005805Y013225D01*
X005866Y013287D01*
X005866Y013410D01*
X005805Y013472D01*
X005743Y013472D01*
X005620Y013410D01*
X005620Y013596D01*
X005866Y013596D01*
X005805Y014209D02*
X005681Y014209D01*
X005620Y014271D01*
X005743Y014395D02*
X005805Y014395D01*
X005866Y014333D01*
X005866Y014271D01*
X005805Y014209D01*
X005805Y014395D02*
X005866Y014456D01*
X005866Y014518D01*
X005805Y014580D01*
X005681Y014580D01*
X005620Y014518D01*
X005436Y011627D02*
X005251Y011627D01*
X005251Y011257D01*
X005436Y011257D01*
X005498Y011318D01*
X005498Y011565D01*
X005436Y011627D01*
X005130Y011627D02*
X005130Y011257D01*
X004883Y011627D01*
X004883Y011257D01*
X004761Y011318D02*
X004761Y011442D01*
X004638Y011442D01*
X004515Y011565D02*
X004576Y011627D01*
X004700Y011627D01*
X004761Y011565D01*
X004515Y011565D02*
X004515Y011318D01*
X004576Y011257D01*
X004700Y011257D01*
X004761Y011318D01*
X002126Y012303D02*
X002065Y012241D01*
X001941Y012241D01*
X001879Y012303D01*
X002126Y012550D01*
X002126Y012303D01*
X002126Y012550D02*
X002065Y012611D01*
X001941Y012611D01*
X001879Y012550D01*
X001879Y012303D01*
X001758Y012241D02*
X001511Y012241D01*
X001635Y012241D02*
X001635Y012611D01*
X001511Y012488D01*
X001390Y012488D02*
X001390Y012550D01*
X001328Y012611D01*
X001143Y012611D01*
X001143Y012241D01*
X001328Y012241D01*
X001390Y012303D01*
X001390Y012364D01*
X001328Y012426D01*
X001143Y012426D01*
X001021Y012426D02*
X000960Y012364D01*
X000774Y012364D01*
X000774Y012241D02*
X000774Y012611D01*
X000960Y012611D01*
X001021Y012550D01*
X001021Y012426D01*
X001328Y012426D02*
X001390Y012488D01*
X001390Y013225D02*
X001143Y013225D01*
X001143Y013596D01*
X001390Y013596D01*
X001511Y013472D02*
X001635Y013596D01*
X001635Y013225D01*
X001758Y013225D02*
X001511Y013225D01*
X001266Y013410D02*
X001143Y013410D01*
X001021Y013410D02*
X000960Y013349D01*
X000774Y013349D01*
X000774Y013225D02*
X000774Y013596D01*
X000960Y013596D01*
X001021Y013534D01*
X001021Y013410D01*
X001143Y014209D02*
X001390Y014209D01*
X001511Y014209D02*
X001758Y014209D01*
X001879Y014209D02*
X002126Y014456D01*
X002126Y014518D01*
X002065Y014580D01*
X001941Y014580D01*
X001879Y014518D01*
X001635Y014580D02*
X001635Y014209D01*
X001879Y014209D02*
X002126Y014209D01*
X001635Y014580D02*
X001511Y014456D01*
X001390Y014580D02*
X001143Y014580D01*
X001143Y014209D01*
X001143Y014395D02*
X001266Y014395D01*
X001021Y014395D02*
X000960Y014333D01*
X000774Y014333D01*
X000774Y014209D02*
X000774Y014580D01*
X000960Y014580D01*
X001021Y014518D01*
X001021Y014395D01*
X001143Y015194D02*
X001390Y015194D01*
X001511Y015194D02*
X001758Y015194D01*
X001635Y015194D02*
X001635Y015564D01*
X001511Y015441D01*
X001390Y015564D02*
X001143Y015564D01*
X001143Y015194D01*
X001143Y015379D02*
X001266Y015379D01*
X001021Y015379D02*
X001021Y015502D01*
X000960Y015564D01*
X000774Y015564D01*
X000774Y015194D01*
X000774Y015317D02*
X000960Y015317D01*
X001021Y015379D01*
X001879Y015255D02*
X001879Y015502D01*
X001941Y015564D01*
X002065Y015564D01*
X002126Y015502D01*
X001879Y015255D01*
X001941Y015194D01*
X002065Y015194D01*
X002126Y015255D01*
X002126Y015502D01*
X001893Y016276D02*
X001770Y016276D01*
X001708Y016338D01*
X001708Y016400D01*
X001770Y016462D01*
X001893Y016462D01*
X001955Y016400D01*
X001955Y016338D01*
X001893Y016276D01*
X001893Y016462D02*
X001955Y016523D01*
X001955Y016585D01*
X001893Y016647D01*
X001770Y016647D01*
X001708Y016585D01*
X001708Y016523D01*
X001770Y016462D01*
X001586Y016647D02*
X001340Y016647D01*
X001340Y016276D01*
X001586Y016276D01*
X001463Y016462D02*
X001340Y016462D01*
X001218Y016462D02*
X001156Y016400D01*
X000971Y016400D01*
X000971Y016276D02*
X000971Y016647D01*
X001156Y016647D01*
X001218Y016585D01*
X001218Y016462D01*
X001401Y017261D02*
X001525Y017261D01*
X001586Y017322D01*
X001586Y017446D01*
X001463Y017446D01*
X001340Y017569D02*
X001340Y017322D01*
X001401Y017261D01*
X001218Y017446D02*
X001156Y017384D01*
X000971Y017384D01*
X000971Y017261D02*
X000971Y017631D01*
X001156Y017631D01*
X001218Y017569D01*
X001218Y017446D01*
X001340Y017569D02*
X001401Y017631D01*
X001525Y017631D01*
X001586Y017569D01*
X001708Y017508D02*
X001831Y017631D01*
X001831Y017261D01*
X001708Y017261D02*
X001955Y017261D01*
X001941Y018245D02*
X001879Y018307D01*
X001941Y018245D02*
X002065Y018245D01*
X002126Y018307D01*
X002126Y018430D01*
X002065Y018492D01*
X002003Y018492D01*
X001879Y018430D01*
X001879Y018615D01*
X002126Y018615D01*
X001758Y018245D02*
X001511Y018245D01*
X001635Y018245D02*
X001635Y018615D01*
X001511Y018492D01*
X001390Y018615D02*
X001143Y018615D01*
X001143Y018245D01*
X001143Y018430D02*
X001266Y018430D01*
X001021Y018430D02*
X000960Y018368D01*
X000774Y018368D01*
X000774Y018245D02*
X000774Y018615D01*
X000960Y018615D01*
X001021Y018554D01*
X001021Y018430D01*
X001143Y019229D02*
X001143Y019599D01*
X001390Y019599D01*
X001511Y019476D02*
X001635Y019599D01*
X001635Y019229D01*
X001758Y019229D02*
X001511Y019229D01*
X001266Y019414D02*
X001143Y019414D01*
X001021Y019414D02*
X000960Y019353D01*
X000774Y019353D01*
X000774Y019229D02*
X000774Y019599D01*
X000960Y019599D01*
X001021Y019538D01*
X001021Y019414D01*
X000873Y020312D02*
X000873Y020682D01*
X001058Y020682D01*
X001120Y020620D01*
X001120Y020497D01*
X001058Y020435D01*
X000873Y020435D01*
X001241Y020497D02*
X001365Y020497D01*
X001241Y020682D02*
X001488Y020682D01*
X001610Y020559D02*
X001733Y020682D01*
X001733Y020312D01*
X001610Y020312D02*
X001856Y020312D01*
X001978Y020312D02*
X002225Y020312D01*
X002101Y020312D02*
X002101Y020682D01*
X001978Y020559D01*
X001930Y021296D02*
X001930Y021666D01*
X001806Y021543D01*
X001685Y021543D02*
X001623Y021481D01*
X001438Y021481D01*
X001317Y021481D02*
X001255Y021420D01*
X001070Y021420D01*
X001070Y021296D02*
X001070Y021666D01*
X001255Y021666D01*
X001317Y021605D01*
X001317Y021481D01*
X001438Y021296D02*
X001623Y021296D01*
X001685Y021358D01*
X001685Y021420D01*
X001623Y021481D01*
X001685Y021543D02*
X001685Y021605D01*
X001623Y021666D01*
X001438Y021666D01*
X001438Y021296D01*
X001806Y021296D02*
X002053Y021296D01*
X001992Y022280D02*
X001868Y022280D01*
X001806Y022342D01*
X001685Y022342D02*
X001623Y022280D01*
X001500Y022280D01*
X001438Y022342D01*
X001438Y022589D01*
X001500Y022651D01*
X001623Y022651D01*
X001685Y022589D01*
X001806Y022651D02*
X001806Y022466D01*
X001930Y022527D01*
X001992Y022527D01*
X002053Y022466D01*
X002053Y022342D01*
X001992Y022280D01*
X002053Y022651D02*
X001806Y022651D01*
X001783Y023265D02*
X001783Y023511D01*
X001660Y023635D01*
X001536Y023511D01*
X001536Y023265D01*
X001536Y023450D02*
X001783Y023450D01*
X001905Y023326D02*
X001905Y023265D01*
X001905Y023326D02*
X002152Y023573D01*
X002152Y023635D01*
X001905Y023635D01*
X001415Y023573D02*
X001415Y023450D01*
X001353Y023388D01*
X001168Y023388D01*
X001168Y023265D02*
X001168Y023635D01*
X001353Y023635D01*
X001415Y023573D01*
X001536Y024249D02*
X001536Y024496D01*
X001660Y024619D01*
X001783Y024496D01*
X001783Y024249D01*
X001905Y024311D02*
X001966Y024249D01*
X002090Y024249D01*
X002152Y024311D01*
X002152Y024434D01*
X002090Y024496D01*
X002028Y024496D01*
X001905Y024434D01*
X001905Y024619D01*
X002152Y024619D01*
X001783Y024434D02*
X001536Y024434D01*
X001415Y024434D02*
X001353Y024372D01*
X001168Y024372D01*
X001168Y024249D02*
X001168Y024619D01*
X001353Y024619D01*
X001415Y024557D01*
X001415Y024434D01*
X001536Y025233D02*
X001536Y025480D01*
X001660Y025603D01*
X001783Y025480D01*
X001783Y025233D01*
X001905Y025295D02*
X001966Y025233D01*
X002090Y025233D01*
X002152Y025295D01*
X002152Y025357D01*
X002090Y025418D01*
X002028Y025418D01*
X002090Y025418D02*
X002152Y025480D01*
X002152Y025542D01*
X002090Y025603D01*
X001966Y025603D01*
X001905Y025542D01*
X001783Y025418D02*
X001536Y025418D01*
X001415Y025418D02*
X001415Y025542D01*
X001353Y025603D01*
X001168Y025603D01*
X001168Y025233D01*
X001168Y025357D02*
X001353Y025357D01*
X001415Y025418D01*
X001734Y026021D02*
X001734Y026166D01*
X001782Y026214D01*
X001879Y026214D01*
X001927Y026166D01*
X001927Y026021D01*
X002024Y026021D02*
X001734Y026021D01*
X001830Y026315D02*
X001734Y026412D01*
X001830Y026509D01*
X002024Y026509D01*
X002024Y026610D02*
X001830Y026803D01*
X001782Y026803D01*
X001734Y026755D01*
X001734Y026658D01*
X001782Y026610D01*
X001879Y026509D02*
X001879Y026315D01*
X001830Y026315D02*
X002024Y026315D01*
X002024Y026610D02*
X002024Y026803D01*
X002024Y027005D02*
X001734Y027005D01*
X001734Y027150D01*
X001782Y027198D01*
X001879Y027198D01*
X001927Y027150D01*
X001927Y027005D01*
X001879Y027299D02*
X001879Y027493D01*
X001830Y027493D02*
X002024Y027493D01*
X001976Y027594D02*
X001782Y027788D01*
X001976Y027788D01*
X002024Y027739D01*
X002024Y027642D01*
X001976Y027594D01*
X001782Y027594D01*
X001734Y027642D01*
X001734Y027739D01*
X001782Y027788D01*
X001734Y027989D02*
X001734Y028134D01*
X001782Y028183D01*
X001879Y028183D01*
X001927Y028134D01*
X001927Y027989D01*
X002024Y027989D02*
X001734Y027989D01*
X001782Y028284D02*
X001976Y028284D01*
X002024Y028332D01*
X002024Y028429D01*
X001976Y028477D01*
X002024Y028578D02*
X001830Y028772D01*
X001782Y028772D01*
X001734Y028723D01*
X001734Y028627D01*
X001782Y028578D01*
X001782Y028477D02*
X001734Y028429D01*
X001734Y028332D01*
X001782Y028284D01*
X001459Y028284D02*
X001265Y028284D01*
X001362Y028284D02*
X001362Y028575D01*
X001265Y028478D01*
X001164Y028526D02*
X001116Y028575D01*
X001019Y028575D01*
X000971Y028526D01*
X000971Y028333D01*
X001019Y028284D01*
X001116Y028284D01*
X001164Y028333D01*
X000870Y028429D02*
X000821Y028381D01*
X000676Y028381D01*
X000676Y028284D02*
X000676Y028575D01*
X000821Y028575D01*
X000870Y028526D01*
X000870Y028429D01*
X000821Y027590D02*
X000676Y027590D01*
X000676Y027300D01*
X000676Y027397D02*
X000821Y027397D01*
X000870Y027445D01*
X000870Y027542D01*
X000821Y027590D01*
X000971Y027542D02*
X000971Y027348D01*
X001019Y027300D01*
X001116Y027300D01*
X001164Y027348D01*
X001265Y027348D02*
X001314Y027300D01*
X001410Y027300D01*
X001459Y027348D01*
X001459Y027397D01*
X001410Y027445D01*
X001362Y027445D01*
X001410Y027445D02*
X001459Y027494D01*
X001459Y027542D01*
X001410Y027590D01*
X001314Y027590D01*
X001265Y027542D01*
X001164Y027542D02*
X001116Y027590D01*
X001019Y027590D01*
X000971Y027542D01*
X001734Y027396D02*
X001830Y027493D01*
X001734Y027396D02*
X001830Y027299D01*
X002024Y027299D01*
X001459Y026316D02*
X001265Y026316D01*
X001362Y026316D02*
X001362Y026606D01*
X001265Y026509D01*
X001164Y026509D02*
X001164Y026316D01*
X001164Y026461D02*
X000971Y026461D01*
X000971Y026509D02*
X001067Y026606D01*
X001164Y026509D01*
X000971Y026509D02*
X000971Y026316D01*
X000870Y026461D02*
X000821Y026413D01*
X000676Y026413D01*
X000676Y026316D02*
X000676Y026606D01*
X000821Y026606D01*
X000870Y026558D01*
X000870Y026461D01*
X002024Y028578D02*
X002024Y028772D01*
X001904Y029269D02*
X001904Y029639D01*
X001781Y029639D02*
X002028Y029639D01*
X001992Y030253D02*
X001868Y030253D01*
X001806Y030315D01*
X002053Y030561D01*
X002053Y030315D01*
X001992Y030253D01*
X001806Y030315D02*
X001806Y030561D01*
X001868Y030623D01*
X001992Y030623D01*
X002053Y030561D01*
X001685Y030623D02*
X001685Y030253D01*
X001685Y030438D02*
X001438Y030438D01*
X001317Y030438D02*
X001317Y030561D01*
X001255Y030623D01*
X001070Y030623D01*
X001070Y030253D01*
X001070Y030376D02*
X001255Y030376D01*
X001317Y030438D01*
X001438Y030253D02*
X001438Y030623D01*
X001438Y031237D02*
X001438Y031607D01*
X001685Y031607D01*
X001806Y031546D02*
X001806Y031484D01*
X001868Y031422D01*
X002053Y031422D01*
X002053Y031299D02*
X002053Y031546D01*
X001992Y031607D01*
X001868Y031607D01*
X001806Y031546D01*
X001806Y031299D02*
X001868Y031237D01*
X001992Y031237D01*
X002053Y031299D01*
X001561Y031422D02*
X001438Y031422D01*
X001317Y031422D02*
X001255Y031360D01*
X001070Y031360D01*
X001070Y031237D02*
X001070Y031607D01*
X001255Y031607D01*
X001317Y031546D01*
X001317Y031422D01*
X001438Y032221D02*
X001438Y032592D01*
X001685Y032592D01*
X001806Y032592D02*
X002053Y032592D01*
X002053Y032530D01*
X001806Y032283D01*
X001806Y032221D01*
X001561Y032406D02*
X001438Y032406D01*
X001317Y032406D02*
X001255Y032345D01*
X001070Y032345D01*
X001070Y032221D02*
X001070Y032592D01*
X001255Y032592D01*
X001317Y032530D01*
X001317Y032406D01*
X001438Y033206D02*
X001438Y033576D01*
X001685Y033576D01*
X001806Y033576D02*
X001806Y033391D01*
X001930Y033452D01*
X001992Y033452D01*
X002053Y033391D01*
X002053Y033267D01*
X001992Y033206D01*
X001868Y033206D01*
X001806Y033267D01*
X001561Y033391D02*
X001438Y033391D01*
X001317Y033391D02*
X001255Y033329D01*
X001070Y033329D01*
X001070Y033206D02*
X001070Y033576D01*
X001255Y033576D01*
X001317Y033514D01*
X001317Y033391D01*
X001806Y033576D02*
X002053Y033576D01*
X001992Y034288D02*
X001868Y034288D01*
X001806Y034350D01*
X001930Y034473D02*
X001992Y034473D01*
X002053Y034412D01*
X002053Y034350D01*
X001992Y034288D01*
X001992Y034473D02*
X002053Y034535D01*
X002053Y034597D01*
X001992Y034659D01*
X001868Y034659D01*
X001806Y034597D01*
X001685Y034659D02*
X001438Y034659D01*
X001438Y034288D01*
X001438Y034473D02*
X001561Y034473D01*
X001317Y034473D02*
X001255Y034412D01*
X001070Y034412D01*
X001070Y034288D02*
X001070Y034659D01*
X001255Y034659D01*
X001317Y034597D01*
X001317Y034473D01*
X001438Y035272D02*
X001438Y035643D01*
X001685Y035643D01*
X001806Y035519D02*
X001930Y035643D01*
X001930Y035272D01*
X002053Y035272D02*
X001806Y035272D01*
X001561Y035458D02*
X001438Y035458D01*
X001317Y035458D02*
X001255Y035396D01*
X001070Y035396D01*
X001070Y035272D02*
X001070Y035643D01*
X001255Y035643D01*
X001317Y035581D01*
X001317Y035458D01*
X001328Y036257D02*
X001390Y036318D01*
X001328Y036257D02*
X001204Y036257D01*
X001143Y036318D01*
X001143Y036565D01*
X001204Y036627D01*
X001328Y036627D01*
X001390Y036565D01*
X001511Y036504D02*
X001635Y036627D01*
X001635Y036257D01*
X001758Y036257D02*
X001511Y036257D01*
X001879Y036318D02*
X001941Y036257D01*
X002065Y036257D01*
X002126Y036318D01*
X002126Y036442D01*
X002065Y036504D01*
X002003Y036504D01*
X001879Y036442D01*
X001879Y036627D01*
X002126Y036627D01*
X002065Y037241D02*
X001941Y037241D01*
X001879Y037303D01*
X001758Y037241D02*
X001511Y037241D01*
X001635Y037241D02*
X001635Y037611D01*
X001511Y037488D01*
X001390Y037550D02*
X001328Y037611D01*
X001204Y037611D01*
X001143Y037550D01*
X001143Y037303D01*
X001204Y037241D01*
X001328Y037241D01*
X001390Y037303D01*
X001021Y037426D02*
X001021Y037550D01*
X000960Y037611D01*
X000774Y037611D01*
X000774Y037241D01*
X000774Y037364D02*
X000960Y037364D01*
X001021Y037426D01*
X000960Y036627D02*
X000774Y036627D01*
X000774Y036257D01*
X000774Y036380D02*
X000960Y036380D01*
X001021Y036442D01*
X001021Y036565D01*
X000960Y036627D01*
X001879Y037550D02*
X001941Y037611D01*
X002065Y037611D01*
X002126Y037550D01*
X002126Y037488D01*
X002065Y037426D01*
X002126Y037364D01*
X002126Y037303D01*
X002065Y037241D01*
X002065Y037426D02*
X002003Y037426D01*
X001992Y038324D02*
X001868Y038324D01*
X001806Y038385D01*
X001806Y038509D01*
X001992Y038509D01*
X002053Y038447D01*
X002053Y038385D01*
X001992Y038324D01*
X001806Y038509D02*
X001930Y038632D01*
X002053Y038694D01*
X001685Y038694D02*
X001438Y038694D01*
X001438Y038324D01*
X001685Y038324D01*
X001561Y038509D02*
X001438Y038509D01*
X001317Y038509D02*
X001255Y038447D01*
X001070Y038447D01*
X001070Y038324D02*
X001070Y038694D01*
X001255Y038694D01*
X001317Y038632D01*
X001317Y038509D01*
X001438Y039308D02*
X001685Y039308D01*
X001806Y039493D02*
X002053Y039493D01*
X001992Y039308D02*
X001992Y039678D01*
X001806Y039493D01*
X001685Y039678D02*
X001438Y039678D01*
X001438Y039308D01*
X001438Y039493D02*
X001561Y039493D01*
X001317Y039493D02*
X001255Y039431D01*
X001070Y039431D01*
X001070Y039308D02*
X001070Y039678D01*
X001255Y039678D01*
X001317Y039617D01*
X001317Y039493D01*
X001438Y040292D02*
X001685Y040292D01*
X001806Y040292D02*
X002053Y040539D01*
X002053Y040601D01*
X001992Y040662D01*
X001868Y040662D01*
X001806Y040601D01*
X001685Y040662D02*
X001438Y040662D01*
X001438Y040292D01*
X001438Y040477D02*
X001561Y040477D01*
X001317Y040477D02*
X001255Y040416D01*
X001070Y040416D01*
X001070Y040292D02*
X001070Y040662D01*
X001255Y040662D01*
X001317Y040601D01*
X001317Y040477D01*
X001806Y040292D02*
X002053Y040292D01*
X004475Y040253D02*
X004475Y040623D01*
X004660Y040623D01*
X004722Y040561D01*
X004722Y040438D01*
X004660Y040376D01*
X004475Y040376D01*
X004515Y039678D02*
X004700Y039678D01*
X004761Y039617D01*
X004761Y039493D01*
X004700Y039431D01*
X004515Y039431D01*
X004515Y039308D02*
X004515Y039678D01*
X004883Y039678D02*
X004883Y039308D01*
X005130Y039308D01*
X005251Y039370D02*
X005313Y039308D01*
X005436Y039308D01*
X005498Y039370D01*
X005498Y039493D01*
X005436Y039555D01*
X005375Y039555D01*
X005251Y039493D01*
X005251Y039678D01*
X005498Y039678D01*
X005130Y039678D02*
X004883Y039678D01*
X004883Y039493D02*
X005006Y039493D01*
X005090Y040253D02*
X004844Y040253D01*
X004844Y040623D01*
X005090Y040623D01*
X005212Y040561D02*
X005274Y040623D01*
X005397Y040623D01*
X005459Y040561D01*
X005459Y040500D01*
X005397Y040438D01*
X005459Y040376D01*
X005459Y040315D01*
X005397Y040253D01*
X005274Y040253D01*
X005212Y040315D01*
X005335Y040438D02*
X005397Y040438D01*
X004967Y040438D02*
X004844Y040438D01*
X004883Y038694D02*
X005068Y038694D01*
X005130Y038632D01*
X005130Y038571D01*
X005068Y038509D01*
X004883Y038509D01*
X004761Y038447D02*
X004638Y038324D01*
X004515Y038447D01*
X004515Y038694D01*
X004761Y038694D02*
X004761Y038447D01*
X004883Y038324D02*
X005068Y038324D01*
X005130Y038385D01*
X005130Y038447D01*
X005068Y038509D01*
X005251Y038509D02*
X005498Y038509D01*
X005498Y038571D02*
X005498Y038324D01*
X005743Y038324D02*
X005743Y038694D01*
X005620Y038694D02*
X005866Y038694D01*
X005498Y038571D02*
X005375Y038694D01*
X005251Y038571D01*
X005251Y038324D01*
X004883Y038324D02*
X004883Y038694D01*
X004945Y037710D02*
X004883Y037648D01*
X004883Y037401D01*
X004945Y037339D01*
X005068Y037339D01*
X005130Y037401D01*
X005251Y037339D02*
X005498Y037339D01*
X005375Y037339D02*
X005375Y037710D01*
X005251Y037586D01*
X005130Y037648D02*
X005068Y037710D01*
X004945Y037710D01*
X004761Y037648D02*
X004761Y037525D01*
X004700Y037463D01*
X004515Y037463D01*
X004515Y037339D02*
X004515Y037710D01*
X004700Y037710D01*
X004761Y037648D01*
X004700Y036627D02*
X004515Y036627D01*
X004515Y036257D01*
X004515Y036380D02*
X004700Y036380D01*
X004761Y036442D01*
X004761Y036565D01*
X004700Y036627D01*
X004883Y036627D02*
X004883Y036257D01*
X004883Y036442D02*
X005006Y036442D01*
X004883Y036627D02*
X005130Y036627D01*
X005251Y036565D02*
X005313Y036627D01*
X005436Y036627D01*
X005498Y036565D01*
X005251Y036318D01*
X005313Y036257D01*
X005436Y036257D01*
X005498Y036318D01*
X005498Y036565D01*
X005251Y036565D02*
X005251Y036318D01*
X005313Y035643D02*
X005251Y035581D01*
X005313Y035643D02*
X005436Y035643D01*
X005498Y035581D01*
X005498Y035519D01*
X005251Y035272D01*
X005498Y035272D01*
X005130Y035643D02*
X004883Y035643D01*
X004883Y035272D01*
X004883Y035458D02*
X005006Y035458D01*
X004761Y035458D02*
X004700Y035396D01*
X004515Y035396D01*
X004515Y035272D02*
X004515Y035643D01*
X004700Y035643D01*
X004761Y035581D01*
X004761Y035458D01*
X004700Y034659D02*
X004515Y034659D01*
X004515Y034288D01*
X004515Y034412D02*
X004700Y034412D01*
X004761Y034473D01*
X004761Y034597D01*
X004700Y034659D01*
X004883Y034659D02*
X004883Y034288D01*
X004883Y034473D02*
X005006Y034473D01*
X004883Y034659D02*
X005130Y034659D01*
X005251Y034473D02*
X005498Y034473D01*
X005436Y034288D02*
X005436Y034659D01*
X005251Y034473D01*
X005130Y033674D02*
X004883Y033674D01*
X004883Y033304D01*
X004883Y033489D02*
X005006Y033489D01*
X004761Y033489D02*
X004700Y033427D01*
X004515Y033427D01*
X004515Y033304D02*
X004515Y033674D01*
X004700Y033674D01*
X004761Y033613D01*
X004761Y033489D01*
X005251Y033489D02*
X005436Y033489D01*
X005498Y033427D01*
X005498Y033366D01*
X005436Y033304D01*
X005313Y033304D01*
X005251Y033366D01*
X005251Y033489D01*
X005375Y033613D01*
X005498Y033674D01*
X005436Y032690D02*
X005498Y032628D01*
X005498Y032567D01*
X005436Y032505D01*
X005313Y032505D01*
X005251Y032567D01*
X005251Y032628D01*
X005313Y032690D01*
X005436Y032690D01*
X005436Y032505D02*
X005498Y032443D01*
X005498Y032381D01*
X005436Y032320D01*
X005313Y032320D01*
X005251Y032381D01*
X005251Y032443D01*
X005313Y032505D01*
X005130Y032690D02*
X004883Y032690D01*
X004883Y032320D01*
X004883Y032505D02*
X005006Y032505D01*
X004761Y032505D02*
X004761Y032628D01*
X004700Y032690D01*
X004515Y032690D01*
X004515Y032320D01*
X004515Y032443D02*
X004700Y032443D01*
X004761Y032505D01*
X004700Y031607D02*
X004515Y031607D01*
X004515Y031237D01*
X004515Y031360D02*
X004700Y031360D01*
X004761Y031422D01*
X004761Y031546D01*
X004700Y031607D01*
X004883Y031607D02*
X004883Y031237D01*
X004883Y031422D02*
X005006Y031422D01*
X004883Y031607D02*
X005130Y031607D01*
X005251Y031484D02*
X005375Y031607D01*
X005375Y031237D01*
X005498Y031237D02*
X005251Y031237D01*
X005130Y030623D02*
X005130Y030253D01*
X005251Y030253D02*
X005498Y030253D01*
X005375Y030253D02*
X005375Y030623D01*
X005251Y030500D01*
X005130Y030438D02*
X004883Y030438D01*
X004761Y030438D02*
X004761Y030561D01*
X004700Y030623D01*
X004515Y030623D01*
X004515Y030253D01*
X004515Y030376D02*
X004700Y030376D01*
X004761Y030438D01*
X004883Y030253D02*
X004883Y030623D01*
X004945Y029836D02*
X004883Y029774D01*
X004883Y029527D01*
X004945Y029465D01*
X005068Y029465D01*
X005130Y029527D01*
X005251Y029527D02*
X005498Y029774D01*
X005498Y029527D01*
X005436Y029465D01*
X005313Y029465D01*
X005251Y029527D01*
X005251Y029774D01*
X005313Y029836D01*
X005436Y029836D01*
X005498Y029774D01*
X005130Y029774D02*
X005068Y029836D01*
X004945Y029836D01*
X004761Y029774D02*
X004761Y029651D01*
X004700Y029589D01*
X004515Y029589D01*
X004515Y029465D02*
X004515Y029836D01*
X004700Y029836D01*
X004761Y029774D01*
X005681Y031237D02*
X005620Y031299D01*
X005866Y031546D01*
X005866Y031299D01*
X005805Y031237D01*
X005681Y031237D01*
X005620Y031299D02*
X005620Y031546D01*
X005681Y031607D01*
X005805Y031607D01*
X005866Y031546D01*
X007756Y028266D02*
X007669Y028178D01*
X007669Y028091D01*
X007844Y027916D01*
X007931Y027916D01*
X008018Y028004D01*
X008018Y028091D01*
X008148Y028133D02*
X008148Y028482D01*
X008104Y028526D01*
X008017Y028526D01*
X007930Y028439D01*
X007930Y028351D01*
X007844Y028266D02*
X007756Y028266D01*
X008148Y028133D02*
X008322Y028308D01*
X008365Y028437D02*
X008452Y028437D01*
X008539Y028525D01*
X008539Y028612D01*
X008495Y028656D01*
X008408Y028656D01*
X008277Y028525D01*
X008365Y028437D01*
X008277Y028525D02*
X008277Y028699D01*
X008321Y028830D01*
X005360Y027714D02*
X005360Y027627D01*
X005272Y027539D01*
X005185Y027539D01*
X005098Y027627D02*
X005142Y027758D01*
X005185Y027801D01*
X005272Y027801D01*
X005360Y027714D01*
X005098Y027627D02*
X004967Y027758D01*
X005142Y027932D01*
X004925Y027628D02*
X004837Y027628D01*
X004750Y027541D01*
X004750Y027453D01*
X004664Y027368D02*
X004577Y027368D01*
X004490Y027280D01*
X004490Y027193D01*
X004664Y027018D01*
X004752Y027018D01*
X004839Y027106D01*
X004839Y027193D01*
X004968Y027235D02*
X004968Y027584D01*
X004925Y027628D01*
X005143Y027410D02*
X004968Y027235D01*
X005006Y025603D02*
X005130Y025480D01*
X005130Y025233D01*
X005130Y025418D02*
X004883Y025418D01*
X004883Y025480D02*
X004883Y025233D01*
X004700Y025357D02*
X004515Y025357D01*
X004515Y025233D02*
X004515Y025603D01*
X004700Y025603D01*
X004761Y025542D01*
X004761Y025418D01*
X004700Y025357D01*
X004883Y025480D02*
X005006Y025603D01*
X005251Y025418D02*
X005498Y025418D01*
X005436Y025233D02*
X005436Y025603D01*
X005251Y025418D01*
X005006Y024619D02*
X005130Y024496D01*
X005130Y024249D01*
X005251Y024311D02*
X005313Y024249D01*
X005436Y024249D01*
X005498Y024311D01*
X005498Y024372D01*
X005436Y024434D01*
X005251Y024434D01*
X005251Y024311D01*
X005251Y024434D02*
X005375Y024557D01*
X005498Y024619D01*
X005130Y024434D02*
X004883Y024434D01*
X004883Y024496D02*
X005006Y024619D01*
X004883Y024496D02*
X004883Y024249D01*
X004700Y024372D02*
X004515Y024372D01*
X004515Y024249D02*
X004515Y024619D01*
X004700Y024619D01*
X004761Y024557D01*
X004761Y024434D01*
X004700Y024372D01*
X004700Y023635D02*
X004515Y023635D01*
X004515Y023265D01*
X004515Y023388D02*
X004700Y023388D01*
X004761Y023450D01*
X004761Y023573D01*
X004700Y023635D01*
X004883Y023573D02*
X004883Y023326D01*
X004945Y023265D01*
X005068Y023265D01*
X005130Y023326D01*
X005251Y023450D02*
X005498Y023450D01*
X005436Y023635D02*
X005251Y023450D01*
X005130Y023573D02*
X005068Y023635D01*
X004945Y023635D01*
X004883Y023573D01*
X005436Y023635D02*
X005436Y023265D01*
X005436Y022651D02*
X005498Y022589D01*
X005251Y022342D01*
X005313Y022280D01*
X005436Y022280D01*
X005498Y022342D01*
X005498Y022589D01*
X005436Y022651D02*
X005313Y022651D01*
X005251Y022589D01*
X005251Y022342D01*
X005130Y022342D02*
X005068Y022280D01*
X004883Y022280D01*
X004883Y022651D01*
X005068Y022651D01*
X005130Y022589D01*
X005130Y022527D01*
X005068Y022466D01*
X004883Y022466D01*
X004761Y022466D02*
X004761Y022589D01*
X004700Y022651D01*
X004515Y022651D01*
X004515Y022280D01*
X004515Y022404D02*
X004700Y022404D01*
X004761Y022466D01*
X005068Y022466D02*
X005130Y022404D01*
X005130Y022342D01*
X005068Y021666D02*
X004883Y021666D01*
X004883Y021296D01*
X005068Y021296D01*
X005130Y021358D01*
X005130Y021420D01*
X005068Y021481D01*
X004883Y021481D01*
X004761Y021481D02*
X004700Y021420D01*
X004515Y021420D01*
X004515Y021296D02*
X004515Y021666D01*
X004700Y021666D01*
X004761Y021605D01*
X004761Y021481D01*
X005068Y021481D02*
X005130Y021543D01*
X005130Y021605D01*
X005068Y021666D01*
X005251Y021605D02*
X005313Y021666D01*
X005436Y021666D01*
X005498Y021605D01*
X005498Y021543D01*
X005251Y021296D01*
X005498Y021296D01*
X005375Y020584D02*
X005251Y020460D01*
X005130Y020584D02*
X004883Y020584D01*
X004883Y020213D01*
X004883Y020399D02*
X005006Y020399D01*
X004761Y020399D02*
X004761Y020522D01*
X004700Y020584D01*
X004515Y020584D01*
X004515Y020213D01*
X004515Y020337D02*
X004700Y020337D01*
X004761Y020399D01*
X005251Y020213D02*
X005498Y020213D01*
X005620Y020213D02*
X005866Y020460D01*
X005866Y020522D01*
X005805Y020584D01*
X005681Y020584D01*
X005620Y020522D01*
X005375Y020584D02*
X005375Y020213D01*
X005620Y020213D02*
X005866Y020213D01*
X002126Y019538D02*
X002126Y019476D01*
X002065Y019414D01*
X002126Y019353D01*
X002126Y019291D01*
X002065Y019229D01*
X001941Y019229D01*
X001879Y019291D01*
X002003Y019414D02*
X002065Y019414D01*
X002126Y019538D02*
X002065Y019599D01*
X001941Y019599D01*
X001879Y019538D01*
X001241Y020312D02*
X001241Y020682D01*
X001070Y022280D02*
X001070Y022651D01*
X001255Y022651D01*
X001317Y022589D01*
X001317Y022466D01*
X001255Y022404D01*
X001070Y022404D01*
X001044Y029269D02*
X001044Y029639D01*
X001229Y029639D01*
X001291Y029577D01*
X001291Y029454D01*
X001229Y029392D01*
X001044Y029392D01*
X001168Y029392D02*
X001291Y029269D01*
X001413Y029330D02*
X001474Y029269D01*
X001598Y029269D01*
X001660Y029330D01*
X001660Y029392D01*
X001598Y029454D01*
X001474Y029454D01*
X001413Y029515D01*
X001413Y029577D01*
X001474Y029639D01*
X001598Y029639D01*
X001660Y029577D01*
X000923Y029639D02*
X000923Y029269D01*
X000676Y029639D01*
X000676Y029269D01*
X005620Y037525D02*
X005866Y037525D01*
X005805Y037710D02*
X005805Y037339D01*
X005620Y037525D02*
X005805Y037710D01*
X002065Y013596D02*
X001879Y013410D01*
X002126Y013410D01*
X002065Y013225D02*
X002065Y013596D01*
X001795Y011627D02*
X001610Y011627D01*
X001610Y011257D01*
X001795Y011257D01*
X001856Y011318D01*
X001856Y011565D01*
X001795Y011627D01*
X001488Y011627D02*
X001488Y011257D01*
X001241Y011627D01*
X001241Y011257D01*
X001120Y011318D02*
X001120Y011442D01*
X000996Y011442D01*
X000873Y011565D02*
X000873Y011318D01*
X000935Y011257D01*
X001058Y011257D01*
X001120Y011318D01*
X001120Y011565D02*
X001058Y011627D01*
X000935Y011627D01*
X000873Y011565D01*
X001210Y006304D02*
X001148Y006242D01*
X001148Y005995D01*
X001210Y005934D01*
X001333Y005934D01*
X001395Y005995D01*
X001516Y005934D02*
X001763Y005934D01*
X001640Y005934D02*
X001640Y006304D01*
X001516Y006180D01*
X001395Y006242D02*
X001333Y006304D01*
X001210Y006304D01*
X001884Y006119D02*
X002131Y006119D01*
X002070Y005934D02*
X002070Y006304D01*
X001884Y006119D01*
X001501Y002898D02*
X001255Y002898D01*
X001255Y002713D01*
X001378Y002775D01*
X001440Y002775D01*
X001501Y002713D01*
X001501Y002590D01*
X001440Y002528D01*
X001316Y002528D01*
X001255Y002590D01*
X001133Y002528D02*
X000886Y002528D01*
X001010Y002528D02*
X001010Y002898D01*
X000886Y002775D01*
X000765Y002837D02*
X000703Y002898D01*
X000580Y002898D01*
X000518Y002837D01*
X000518Y002590D01*
X000580Y002528D01*
X000703Y002528D01*
X000765Y002590D01*
X005319Y005505D02*
X005381Y005443D01*
X005504Y005443D01*
X005566Y005505D01*
X005687Y005443D02*
X005934Y005443D01*
X006056Y005443D02*
X006056Y005505D01*
X006303Y005752D01*
X006303Y005814D01*
X006056Y005814D01*
X005811Y005814D02*
X005811Y005443D01*
X005687Y005690D02*
X005811Y005814D01*
X005566Y005752D02*
X005504Y005814D01*
X005381Y005814D01*
X005319Y005752D01*
X005319Y005505D01*
X007209Y005702D02*
X007271Y005640D01*
X007394Y005640D01*
X007456Y005702D01*
X007577Y005640D02*
X007824Y005640D01*
X007701Y005640D02*
X007701Y006011D01*
X007577Y005887D01*
X007456Y005949D02*
X007394Y006011D01*
X007271Y006011D01*
X007209Y005949D01*
X007209Y005702D01*
X007946Y005702D02*
X008007Y005640D01*
X008131Y005640D01*
X008192Y005702D01*
X008192Y005764D01*
X008131Y005825D01*
X007946Y005825D01*
X007946Y005702D01*
X007946Y005825D02*
X008069Y005949D01*
X008192Y006011D01*
X008254Y009879D02*
X008131Y010002D01*
X008131Y010249D01*
X008010Y010249D02*
X007763Y010249D01*
X007763Y010064D01*
X007886Y010126D01*
X007948Y010126D01*
X008010Y010064D01*
X008010Y009940D01*
X007948Y009879D01*
X007824Y009879D01*
X007763Y009940D01*
X008254Y009879D02*
X008378Y010002D01*
X008378Y010249D01*
D13*
X008578Y010311D02*
X008578Y009811D01*
X008828Y009561D01*
X009328Y009561D01*
X009578Y009811D01*
X009828Y009561D01*
X010328Y009561D01*
X010578Y009811D01*
X010578Y010311D01*
X010328Y010561D01*
X009828Y010561D01*
X009578Y010311D01*
X009578Y009811D01*
X009578Y010311D02*
X009328Y010561D01*
X008828Y010561D01*
X008578Y010311D01*
X008828Y011029D02*
X009328Y011029D01*
X009578Y011279D01*
X009578Y012779D01*
X009828Y013029D01*
X010328Y013029D01*
X010578Y012779D01*
X010578Y011279D01*
X010828Y011029D01*
X011328Y011029D01*
X011578Y011279D01*
X011578Y012779D01*
X011828Y013029D01*
X012328Y013029D01*
X012578Y012779D01*
X012578Y011279D01*
X012828Y011029D01*
X013328Y011029D01*
X013578Y011279D01*
X013578Y012779D01*
X013828Y013029D01*
X014328Y013029D01*
X014578Y012779D01*
X014828Y013029D01*
X015328Y013029D01*
X015578Y012779D01*
X015578Y011279D01*
X015328Y011029D01*
X014828Y011029D01*
X014578Y011279D01*
X014578Y012779D01*
X014578Y011279D02*
X014328Y011029D01*
X013828Y011029D01*
X013578Y011279D01*
X013328Y010561D02*
X013578Y010311D01*
X013578Y009811D01*
X013328Y009561D01*
X012828Y009561D01*
X012578Y009811D01*
X012328Y009561D01*
X011828Y009561D01*
X011578Y009811D01*
X011328Y009561D01*
X010828Y009561D01*
X010578Y009811D01*
X010578Y010311D02*
X010828Y010561D01*
X011328Y010561D01*
X011578Y010311D01*
X011828Y010561D01*
X012328Y010561D01*
X012578Y010311D01*
X012828Y010561D01*
X013328Y010561D01*
X013578Y010311D02*
X013828Y010561D01*
X014328Y010561D01*
X014578Y010311D01*
X014828Y010561D01*
X015328Y010561D01*
X015578Y010311D01*
X015578Y009811D01*
X015328Y009561D01*
X014828Y009561D01*
X014578Y009811D01*
X014328Y009561D01*
X013828Y009561D01*
X013578Y009811D01*
X012578Y009811D02*
X012578Y010311D01*
X012328Y011029D02*
X011828Y011029D01*
X011578Y011279D01*
X012328Y011029D02*
X012578Y011279D01*
X012578Y012779D02*
X012828Y013029D01*
X013328Y013029D01*
X013578Y012779D01*
X012478Y013823D02*
X012403Y013748D01*
X012478Y013823D02*
X012478Y013974D01*
X012101Y014352D01*
X011799Y014050D02*
X012026Y013823D01*
X012177Y013823D01*
X012403Y014050D01*
X011872Y013669D02*
X011721Y013820D01*
X011570Y013820D01*
X011343Y013594D01*
X011192Y013745D02*
X011645Y013292D01*
X011872Y013518D01*
X011872Y013669D01*
X011328Y013029D02*
X011578Y012779D01*
X011328Y013029D02*
X010828Y013029D01*
X010578Y012779D01*
X010578Y011279D02*
X010328Y011029D01*
X009828Y011029D01*
X009578Y011279D01*
X008828Y011029D02*
X008578Y011279D01*
X008578Y012779D01*
X008828Y013029D01*
X009328Y013029D01*
X009578Y012779D01*
X010812Y015051D02*
X010736Y015126D01*
X010736Y015277D01*
X010887Y015428D01*
X011038Y015428D01*
X011114Y015202D02*
X011265Y015202D01*
X011340Y015126D01*
X011340Y014975D01*
X011189Y014824D01*
X011038Y014824D01*
X010963Y015051D02*
X011114Y015202D01*
X010963Y015051D02*
X010812Y015051D01*
X011117Y015657D02*
X011419Y015959D01*
X011268Y015808D02*
X011721Y015355D01*
X012025Y015660D02*
X011572Y016113D01*
X011874Y016113D01*
X011874Y016415D01*
X012327Y015962D01*
X012406Y016192D02*
X012557Y016192D01*
X012708Y016342D01*
X012708Y016493D01*
X012632Y016569D01*
X012481Y016569D01*
X012406Y016493D01*
X012481Y016569D02*
X012481Y016720D01*
X012406Y016795D01*
X012255Y016795D01*
X012104Y016644D01*
X012104Y016493D01*
X012559Y016949D02*
X012559Y017100D01*
X012710Y017251D01*
X012861Y017251D01*
X012937Y017176D01*
X012937Y016572D01*
X013239Y016874D01*
X013393Y017028D02*
X012940Y017480D01*
X013242Y017782D01*
X013317Y017405D02*
X013166Y017254D01*
X013622Y017710D02*
X013622Y018163D01*
X014075Y017710D01*
X013924Y018012D02*
X013622Y017710D01*
X013927Y016631D02*
X014002Y016555D01*
X014153Y016404D02*
X014078Y016329D01*
X014153Y016404D02*
X014455Y016102D01*
X014380Y016027D02*
X014531Y016178D01*
X014608Y016406D02*
X014457Y016557D01*
X014457Y016708D01*
X014684Y016934D01*
X014533Y017085D02*
X014986Y016632D01*
X014759Y016406D01*
X014608Y016406D01*
X014151Y015948D02*
X013924Y016175D01*
X014151Y015948D02*
X014151Y015797D01*
X014000Y015797D01*
X014000Y015646D01*
X013849Y015646D01*
X013622Y015873D01*
X013544Y015644D02*
X013393Y015644D01*
X013242Y015493D01*
X013393Y015342D02*
X013619Y015568D01*
X013544Y015644D02*
X013770Y015417D01*
X013544Y015191D01*
X013393Y015191D01*
X013393Y015342D01*
X013239Y015037D02*
X012937Y015339D01*
X012786Y015339D01*
X012560Y015112D01*
X013013Y014659D01*
X013239Y014886D01*
X013239Y015037D01*
X015293Y017544D02*
X015444Y017544D01*
X015595Y017695D01*
X015746Y017695D01*
X015822Y017619D01*
X015822Y017468D01*
X015671Y017317D01*
X015520Y017317D01*
X015293Y017544D02*
X015218Y017619D01*
X015218Y017770D01*
X015369Y017921D01*
X015520Y017921D01*
X015749Y018000D02*
X016051Y018302D01*
X016051Y017698D01*
X016353Y018000D01*
X016507Y018154D02*
X016205Y018455D01*
X016356Y018305D02*
X016356Y018606D01*
X016431Y018682D01*
X016660Y018760D02*
X016660Y018911D01*
X016811Y019062D01*
X016962Y019062D01*
X017113Y018911D01*
X017113Y018760D01*
X016962Y018609D01*
X016811Y018609D01*
X016660Y018760D01*
X017040Y019291D02*
X017116Y019367D01*
X017267Y019367D01*
X017267Y019518D01*
X017418Y019518D01*
X017644Y019291D01*
X017493Y019140D02*
X017267Y019367D01*
X017040Y019291D02*
X017342Y018989D01*
X017723Y019520D02*
X017572Y019671D01*
X017572Y019822D01*
X017723Y019973D01*
X017874Y019973D01*
X017949Y019898D01*
X017647Y019596D01*
X017723Y019520D02*
X017874Y019520D01*
X018025Y019671D01*
X018254Y019901D02*
X017801Y020354D01*
X018178Y020429D02*
X018103Y020052D01*
X018480Y020127D01*
X019641Y020165D02*
X019641Y020665D01*
X019891Y020915D01*
X021391Y020915D01*
X021641Y020665D01*
X021641Y020165D01*
X021391Y019915D01*
X021641Y019665D01*
X021641Y019165D01*
X021391Y018915D01*
X021641Y018665D01*
X021641Y018165D01*
X021391Y017915D01*
X021641Y017665D01*
X021641Y017165D01*
X021391Y016915D01*
X021641Y016665D01*
X021641Y016165D01*
X021391Y015915D01*
X021641Y015665D01*
X021641Y015165D01*
X021391Y014915D01*
X021641Y014665D01*
X021641Y014165D01*
X021391Y013915D01*
X021641Y013665D01*
X021641Y013165D01*
X021391Y012915D01*
X021641Y012665D01*
X021641Y012165D01*
X021391Y011915D01*
X021641Y011665D01*
X021641Y011165D01*
X021391Y010915D01*
X019891Y010915D01*
X019641Y011165D01*
X019641Y011665D01*
X019891Y011915D01*
X021391Y011915D01*
X021391Y012915D02*
X019891Y012915D01*
X019641Y012665D01*
X019641Y012165D01*
X019891Y011915D01*
X019891Y012915D02*
X019641Y013165D01*
X019641Y013665D01*
X019891Y013915D01*
X021391Y013915D01*
X021391Y014915D02*
X019891Y014915D01*
X019641Y014665D01*
X019641Y014165D01*
X019891Y013915D01*
X019891Y014915D02*
X019641Y015165D01*
X019641Y015665D01*
X019891Y015915D01*
X021391Y015915D01*
X021391Y016915D02*
X019891Y016915D01*
X019641Y016665D01*
X019641Y016165D01*
X019891Y015915D01*
X019891Y016915D02*
X019641Y017165D01*
X019641Y017665D01*
X019891Y017915D01*
X021391Y017915D01*
X021391Y018915D02*
X019891Y018915D01*
X019641Y018665D01*
X019641Y018165D01*
X019891Y017915D01*
X019891Y018915D02*
X019641Y019165D01*
X019641Y019665D01*
X019891Y019915D01*
X021391Y019915D01*
X021391Y020915D02*
X021641Y021165D01*
X021641Y021665D01*
X021391Y021915D01*
X019891Y021915D01*
X019641Y021665D01*
X019641Y021165D01*
X019891Y020915D01*
X019641Y020165D02*
X019891Y019915D01*
X019891Y021915D02*
X019641Y022165D01*
X019641Y022665D01*
X019891Y022915D01*
X021391Y022915D01*
X021641Y022665D01*
X021641Y022165D01*
X021391Y021915D01*
X021391Y022915D02*
X021641Y023165D01*
X021641Y023665D01*
X021391Y023915D01*
X019891Y023915D01*
X019641Y024165D01*
X019641Y024665D01*
X019891Y024915D01*
X021391Y024915D01*
X021641Y024665D01*
X021641Y024165D01*
X021391Y023915D01*
X021391Y024915D02*
X021641Y025165D01*
X021641Y025665D01*
X021391Y025915D01*
X019891Y025915D01*
X019641Y026165D01*
X019641Y026665D01*
X019891Y026915D01*
X021391Y026915D01*
X021641Y026665D01*
X021641Y026165D01*
X021391Y025915D01*
X021391Y026915D02*
X021641Y027165D01*
X021641Y027665D01*
X021391Y027915D01*
X019891Y027915D01*
X019641Y028165D01*
X019641Y028665D01*
X019891Y028915D01*
X021391Y028915D01*
X021641Y028665D01*
X021641Y028165D01*
X021391Y027915D01*
X021391Y028915D02*
X021641Y029165D01*
X021641Y029665D01*
X021391Y029915D01*
X019891Y029915D01*
X019641Y030165D01*
X019641Y030665D01*
X019891Y030915D01*
X021391Y030915D01*
X021641Y030665D01*
X021641Y030165D01*
X021391Y029915D01*
X021391Y030915D02*
X021641Y031165D01*
X021641Y031665D01*
X021391Y031915D01*
X019891Y031915D01*
X019641Y032165D01*
X019641Y032665D01*
X019891Y032915D01*
X021391Y032915D01*
X021641Y032665D01*
X021641Y032165D01*
X021391Y031915D01*
X021391Y032915D02*
X021641Y033165D01*
X021641Y033665D01*
X021391Y033915D01*
X019891Y033915D01*
X019641Y034165D01*
X019641Y034665D01*
X019891Y034915D01*
X021391Y034915D01*
X021641Y034665D01*
X021641Y034165D01*
X021391Y033915D01*
X021391Y034915D02*
X021641Y035165D01*
X021641Y035665D01*
X021391Y035915D01*
X019891Y035915D01*
X019641Y035665D01*
X019641Y035165D01*
X019891Y034915D01*
X019891Y033915D02*
X019641Y033665D01*
X019641Y033165D01*
X019891Y032915D01*
X019891Y031915D02*
X019641Y031665D01*
X019641Y031165D01*
X019891Y030915D01*
X019891Y029915D02*
X019641Y029665D01*
X019641Y029165D01*
X019891Y028915D01*
X019891Y027915D02*
X019641Y027665D01*
X019641Y027165D01*
X019891Y026915D01*
X019891Y025915D02*
X019641Y025665D01*
X019641Y025165D01*
X019891Y024915D01*
X019891Y023915D02*
X019641Y023665D01*
X019641Y023165D01*
X019891Y022915D01*
X017113Y020899D02*
X017113Y020748D01*
X016887Y020522D01*
X016434Y020975D01*
X016660Y021201D01*
X016811Y021201D01*
X017113Y020899D01*
X016733Y020368D02*
X016431Y020066D01*
X015978Y020519D01*
X015824Y020365D02*
X015522Y020063D01*
X015975Y019610D01*
X016277Y019912D01*
X015900Y019988D02*
X015749Y019837D01*
X015369Y019910D02*
X015218Y019759D01*
X015294Y019835D02*
X015747Y019382D01*
X015822Y019457D02*
X015671Y019306D01*
X015518Y019153D02*
X015065Y019606D01*
X015291Y019379D02*
X014989Y019077D01*
X014911Y018848D02*
X014986Y018772D01*
X014986Y018621D01*
X014835Y018470D01*
X014684Y018470D01*
X014609Y018697D02*
X014760Y018848D01*
X014911Y018848D01*
X015216Y018851D02*
X014763Y019304D01*
X014684Y019074D02*
X014533Y019074D01*
X014382Y018923D01*
X014382Y018772D01*
X014458Y018697D01*
X014609Y018697D01*
X014578Y010311D02*
X014578Y009811D01*
X016460Y009614D02*
X016460Y010114D01*
X016710Y010364D01*
X017210Y010364D01*
X017460Y010114D01*
X017710Y010364D01*
X018210Y010364D01*
X018460Y010114D01*
X018710Y010364D01*
X019210Y010364D01*
X019460Y010114D01*
X019710Y010364D01*
X020210Y010364D01*
X020460Y010114D01*
X020710Y010364D01*
X021210Y010364D01*
X021460Y010114D01*
X021710Y010364D01*
X022210Y010364D01*
X022460Y010114D01*
X022460Y009614D01*
X022210Y009364D01*
X021710Y009364D01*
X021460Y009614D01*
X021210Y009364D01*
X020710Y009364D01*
X020460Y009614D01*
X020460Y010114D01*
X020460Y009614D02*
X020210Y009364D01*
X019710Y009364D01*
X019460Y009614D01*
X019210Y009364D01*
X018710Y009364D01*
X018460Y009614D01*
X018210Y009364D01*
X017710Y009364D01*
X017460Y009614D01*
X017210Y009364D01*
X016710Y009364D01*
X016460Y009614D01*
X017460Y009614D02*
X017460Y010114D01*
X018460Y010114D02*
X018460Y009614D01*
X019460Y009614D02*
X019460Y010114D01*
X021460Y010114D02*
X021460Y009614D01*
X018628Y006935D02*
X018878Y006685D01*
X018878Y006185D01*
X018628Y005935D01*
X018878Y005685D01*
X018878Y005185D01*
X018628Y004935D01*
X018878Y004685D01*
X018878Y004185D01*
X018628Y003935D01*
X018128Y003935D01*
X017878Y004185D01*
X017878Y004685D01*
X018128Y004935D01*
X017878Y005185D01*
X017878Y005685D01*
X018128Y005935D01*
X017878Y006185D01*
X017878Y006685D01*
X018128Y006935D01*
X018628Y006935D01*
X018628Y005935D02*
X018128Y005935D01*
X017500Y005693D02*
X017500Y005193D01*
X017250Y004943D01*
X016750Y004943D01*
X016500Y005193D01*
X016500Y005693D01*
X016750Y005943D01*
X016500Y006193D01*
X016500Y006693D01*
X016750Y006943D01*
X017250Y006943D01*
X017500Y006693D01*
X017500Y006193D01*
X017250Y005943D01*
X017500Y005693D01*
X017250Y005943D02*
X016750Y005943D01*
X016750Y004943D02*
X016500Y004693D01*
X016500Y004193D01*
X016750Y003943D01*
X016500Y003693D01*
X016500Y003193D01*
X016750Y002943D01*
X017250Y002943D01*
X017500Y003193D01*
X017500Y003693D01*
X017250Y003943D01*
X016750Y003943D01*
X017250Y003943D02*
X017500Y004193D01*
X017500Y004693D01*
X017250Y004943D01*
X018128Y004935D02*
X018628Y004935D01*
X011578Y009811D02*
X011578Y010311D01*
X004319Y011165D02*
X004069Y010915D01*
X002569Y010915D01*
X002319Y011165D01*
X002319Y011665D01*
X002569Y011915D01*
X004069Y011915D01*
X004319Y011665D01*
X004319Y011165D01*
X004069Y011915D02*
X004319Y012165D01*
X004319Y012665D01*
X004069Y012915D01*
X002569Y012915D01*
X002319Y012665D01*
X002319Y012165D01*
X002569Y011915D01*
X002569Y012915D02*
X002319Y013165D01*
X002319Y013665D01*
X002569Y013915D01*
X004069Y013915D01*
X004319Y013665D01*
X004319Y013165D01*
X004069Y012915D01*
X004069Y013915D02*
X004319Y014165D01*
X004319Y014665D01*
X004069Y014915D01*
X002569Y014915D01*
X002319Y014665D01*
X002319Y014165D01*
X002569Y013915D01*
X002569Y014915D02*
X002319Y015165D01*
X002319Y015665D01*
X002569Y015915D01*
X004069Y015915D01*
X004319Y015665D01*
X004319Y015165D01*
X004069Y014915D01*
X004069Y015915D02*
X004319Y016165D01*
X004319Y016665D01*
X004069Y016915D01*
X002569Y016915D01*
X002319Y016665D01*
X002319Y016165D01*
X002569Y015915D01*
X002569Y016915D02*
X002319Y017165D01*
X002319Y017665D01*
X002569Y017915D01*
X004069Y017915D01*
X004319Y017665D01*
X004319Y017165D01*
X004069Y016915D01*
X004069Y017915D02*
X004319Y018165D01*
X004319Y018665D01*
X004069Y018915D01*
X002569Y018915D01*
X002319Y018665D01*
X002319Y018165D01*
X002569Y017915D01*
X002569Y018915D02*
X002319Y019165D01*
X002319Y019665D01*
X002569Y019915D01*
X004069Y019915D01*
X004319Y019665D01*
X004319Y019165D01*
X004069Y018915D01*
X004069Y019915D02*
X004319Y020165D01*
X004319Y020665D01*
X004069Y020915D01*
X002569Y020915D01*
X002319Y020665D01*
X002319Y020165D01*
X002569Y019915D01*
X002569Y020915D02*
X002319Y021165D01*
X002319Y021665D01*
X002569Y021915D01*
X004069Y021915D01*
X004319Y021665D01*
X004319Y021165D01*
X004069Y020915D01*
X004069Y021915D02*
X004319Y022165D01*
X004319Y022665D01*
X004069Y022915D01*
X002569Y022915D01*
X002319Y023165D01*
X002319Y023665D01*
X002569Y023915D01*
X004069Y023915D01*
X004319Y023665D01*
X004319Y023165D01*
X004069Y022915D01*
X004069Y023915D02*
X004319Y024165D01*
X004319Y024665D01*
X004069Y024915D01*
X002569Y024915D01*
X002319Y025165D01*
X002319Y025665D01*
X002569Y025915D01*
X004069Y025915D01*
X004319Y025665D01*
X004319Y025165D01*
X004069Y024915D01*
X004069Y025915D02*
X004319Y026165D01*
X004319Y026665D01*
X004069Y026915D01*
X002569Y026915D01*
X002319Y027165D01*
X002319Y027665D01*
X002569Y027915D01*
X004069Y027915D01*
X004319Y027665D01*
X004319Y027165D01*
X004069Y026915D01*
X004069Y027915D02*
X004319Y028165D01*
X004319Y028665D01*
X004069Y028915D01*
X002569Y028915D01*
X002319Y029165D01*
X002319Y029665D01*
X002569Y029915D01*
X004069Y029915D01*
X004319Y029665D01*
X004319Y029165D01*
X004069Y028915D01*
X004069Y029915D02*
X004319Y030165D01*
X004319Y030665D01*
X004069Y030915D01*
X002569Y030915D01*
X002319Y031165D01*
X002319Y031665D01*
X002569Y031915D01*
X004069Y031915D01*
X004319Y031665D01*
X004319Y031165D01*
X004069Y030915D01*
X004069Y031915D02*
X004319Y032165D01*
X004319Y032665D01*
X004069Y032915D01*
X002569Y032915D01*
X002319Y033165D01*
X002319Y033665D01*
X002569Y033915D01*
X004069Y033915D01*
X004319Y033665D01*
X004319Y033165D01*
X004069Y032915D01*
X004069Y033915D02*
X004319Y034165D01*
X004319Y034665D01*
X004069Y034915D01*
X002569Y034915D01*
X002319Y034665D01*
X002319Y034165D01*
X002569Y033915D01*
X002569Y034915D02*
X002319Y035165D01*
X002319Y035665D01*
X002569Y035915D01*
X004069Y035915D01*
X004319Y035665D01*
X004319Y035165D01*
X004069Y034915D01*
X004069Y035915D02*
X004319Y036165D01*
X004319Y036665D01*
X004069Y036915D01*
X002569Y036915D01*
X002319Y036665D01*
X002319Y036165D01*
X002569Y035915D01*
X002569Y036915D02*
X002319Y037165D01*
X002319Y037665D01*
X002569Y037915D01*
X004069Y037915D01*
X004319Y037665D01*
X004319Y037165D01*
X004069Y036915D01*
X004069Y037915D02*
X004319Y038165D01*
X004319Y038665D01*
X004069Y038915D01*
X002569Y038915D01*
X002319Y038665D01*
X002319Y038165D01*
X002569Y037915D01*
X002569Y038915D02*
X002319Y039165D01*
X002319Y039665D01*
X002569Y039915D01*
X004069Y039915D01*
X004319Y039665D01*
X004319Y039165D01*
X004069Y038915D01*
X004069Y039915D02*
X004319Y040165D01*
X004319Y040665D01*
X004069Y040915D01*
X002569Y040915D01*
X002319Y040665D01*
X002319Y040165D01*
X002569Y039915D01*
X006385Y035322D02*
X010685Y035322D01*
X010702Y035320D01*
X010719Y035316D01*
X010735Y035309D01*
X010749Y035299D01*
X010762Y035286D01*
X010772Y035272D01*
X010779Y035256D01*
X010783Y035239D01*
X010785Y035222D01*
X010785Y034822D01*
X010785Y033922D02*
X010785Y033522D01*
X010783Y033505D01*
X010779Y033488D01*
X010772Y033472D01*
X010762Y033458D01*
X010749Y033445D01*
X010735Y033435D01*
X010719Y033428D01*
X010702Y033424D01*
X010685Y033422D01*
X006385Y033422D01*
X006368Y033424D01*
X006351Y033428D01*
X006335Y033435D01*
X006321Y033445D01*
X006308Y033458D01*
X006298Y033472D01*
X006291Y033488D01*
X006287Y033505D01*
X006285Y033522D01*
X006285Y033922D01*
X006285Y034822D02*
X006285Y035222D01*
X006287Y035239D01*
X006291Y035256D01*
X006298Y035272D01*
X006308Y035286D01*
X006321Y035299D01*
X006335Y035309D01*
X006351Y035316D01*
X006368Y035320D01*
X006385Y035322D01*
X008235Y035961D02*
X008235Y036561D01*
X008237Y036578D01*
X008241Y036595D01*
X008248Y036611D01*
X008258Y036625D01*
X008271Y036638D01*
X008285Y036648D01*
X008301Y036655D01*
X008318Y036659D01*
X008335Y036661D01*
X010035Y036661D01*
X010052Y036659D01*
X010069Y036655D01*
X010085Y036648D01*
X010099Y036638D01*
X010112Y036625D01*
X010122Y036611D01*
X010129Y036595D01*
X010133Y036578D01*
X010135Y036561D01*
X010135Y035961D01*
X010133Y035944D01*
X010129Y035927D01*
X010122Y035911D01*
X010112Y035897D01*
X010099Y035884D01*
X010085Y035874D01*
X010069Y035867D01*
X010052Y035863D01*
X010035Y035861D01*
X008335Y035861D01*
X008318Y035863D01*
X008301Y035867D01*
X008285Y035874D01*
X008271Y035884D01*
X008258Y035897D01*
X008248Y035911D01*
X008241Y035927D01*
X008237Y035944D01*
X008235Y035961D01*
X008285Y034622D02*
X008285Y034372D01*
X008285Y034122D01*
X008435Y034122D02*
X008635Y034122D01*
X008635Y034622D01*
X008435Y034622D01*
X008435Y034122D01*
X008785Y034122D02*
X008785Y034372D01*
X008785Y034622D01*
X010413Y032287D02*
X009635Y031510D01*
X009624Y031496D01*
X009615Y031481D01*
X009609Y031465D01*
X009606Y031448D01*
X009606Y031430D01*
X009609Y031413D01*
X009615Y031397D01*
X009624Y031382D01*
X009635Y031368D01*
X010059Y030944D01*
X010073Y030933D01*
X010088Y030924D01*
X010104Y030918D01*
X010121Y030915D01*
X010139Y030915D01*
X010156Y030918D01*
X010172Y030924D01*
X010187Y030933D01*
X010201Y030944D01*
X010978Y031722D01*
X010979Y031722D02*
X010990Y031736D01*
X010999Y031751D01*
X011005Y031767D01*
X011008Y031784D01*
X011008Y031802D01*
X011005Y031819D01*
X010999Y031835D01*
X010990Y031850D01*
X010979Y031864D01*
X010978Y031863D02*
X010554Y032287D01*
X010554Y032288D02*
X010540Y032299D01*
X010525Y032308D01*
X010509Y032314D01*
X010492Y032317D01*
X010474Y032317D01*
X010457Y032314D01*
X010441Y032308D01*
X010426Y032299D01*
X010412Y032288D01*
X011051Y036137D02*
X012751Y036137D01*
X012768Y036139D01*
X012785Y036143D01*
X012801Y036150D01*
X012815Y036160D01*
X012828Y036173D01*
X012838Y036187D01*
X012845Y036203D01*
X012849Y036220D01*
X012851Y036237D01*
X012851Y036837D01*
X012849Y036854D01*
X012845Y036871D01*
X012838Y036887D01*
X012828Y036901D01*
X012815Y036914D01*
X012801Y036924D01*
X012785Y036931D01*
X012768Y036935D01*
X012751Y036937D01*
X011051Y036937D01*
X011034Y036935D01*
X011017Y036931D01*
X011001Y036924D01*
X010987Y036914D01*
X010974Y036901D01*
X010964Y036887D01*
X010957Y036871D01*
X010953Y036854D01*
X010951Y036837D01*
X010951Y036237D01*
X010953Y036220D01*
X010957Y036203D01*
X010964Y036187D01*
X010974Y036173D01*
X010987Y036160D01*
X011001Y036150D01*
X011017Y036143D01*
X011034Y036139D01*
X011051Y036137D01*
X019641Y036165D02*
X019891Y035915D01*
X019641Y036165D02*
X019641Y036665D01*
X019891Y036915D01*
X021391Y036915D01*
X021641Y036665D01*
X021641Y036165D01*
X021391Y035915D01*
X021391Y036915D02*
X021641Y037165D01*
X021641Y037665D01*
X021391Y037915D01*
X019891Y037915D01*
X019641Y037665D01*
X019641Y037165D01*
X019891Y036915D01*
X019891Y037915D02*
X019641Y038165D01*
X019641Y038665D01*
X019891Y038915D01*
X021391Y038915D01*
X021641Y038665D01*
X021641Y038165D01*
X021391Y037915D01*
X021391Y038915D02*
X021641Y039165D01*
X021641Y039665D01*
X021391Y039915D01*
X019891Y039915D01*
X019641Y039665D01*
X019641Y039165D01*
X019891Y038915D01*
X019891Y039915D02*
X019641Y040165D01*
X019641Y040665D01*
X019891Y040915D01*
X021391Y040915D01*
X021641Y040665D01*
X021641Y040165D01*
X021391Y039915D01*
X002569Y032915D02*
X002319Y032665D01*
X002319Y032165D01*
X002569Y031915D01*
X002569Y030915D02*
X002319Y030665D01*
X002319Y030165D01*
X002569Y029915D01*
X002569Y028915D02*
X002319Y028665D01*
X002319Y028165D01*
X002569Y027915D01*
X002569Y026915D02*
X002319Y026665D01*
X002319Y026165D01*
X002569Y025915D01*
X002569Y024915D02*
X002319Y024665D01*
X002319Y024165D01*
X002569Y023915D01*
X002569Y022915D02*
X002319Y022665D01*
X002319Y022165D01*
X002569Y021915D01*
D14*
X005844Y017356D02*
X005921Y017356D01*
X005997Y017280D01*
X006074Y017356D01*
X006151Y017356D01*
X006228Y017280D01*
X006228Y017126D01*
X006151Y017049D01*
X006151Y016896D02*
X006228Y016819D01*
X006228Y016666D01*
X006151Y016589D01*
X006151Y016436D02*
X006228Y016359D01*
X006228Y016205D01*
X006151Y016129D01*
X005844Y016129D01*
X005767Y016205D01*
X005767Y016359D01*
X005844Y016436D01*
X005844Y016589D02*
X005767Y016666D01*
X005767Y016819D01*
X005844Y016896D01*
X005921Y016896D01*
X005997Y016819D01*
X006074Y016896D01*
X006151Y016896D01*
X005997Y016819D02*
X005997Y016742D01*
X005844Y017049D02*
X005767Y017126D01*
X005767Y017280D01*
X005844Y017356D01*
X005997Y017280D02*
X005997Y017203D01*
X006281Y012281D02*
X006205Y012204D01*
X006205Y011898D01*
X006281Y011821D01*
X006435Y011821D01*
X006512Y011898D01*
X006665Y011821D02*
X006972Y011821D01*
X006819Y011821D02*
X006819Y012281D01*
X006665Y012128D01*
X006512Y012204D02*
X006435Y012281D01*
X006281Y012281D01*
X006657Y011407D02*
X006657Y011100D01*
X006657Y011253D02*
X006196Y011253D01*
X006350Y011100D01*
X006273Y010946D02*
X006196Y010869D01*
X006196Y010639D01*
X006657Y010639D01*
X006657Y010869D01*
X006580Y010946D01*
X006273Y010946D01*
X006196Y010486D02*
X006196Y010179D01*
X006657Y010179D01*
X006657Y010486D01*
X006427Y010332D02*
X006427Y010179D01*
X006657Y010025D02*
X006657Y009718D01*
X006196Y009718D01*
X007063Y009805D02*
X007523Y009805D01*
X007523Y010112D01*
X007523Y010265D02*
X007523Y010495D01*
X007446Y010572D01*
X007139Y010572D01*
X007063Y010495D01*
X007063Y010265D01*
X007523Y010265D01*
X007293Y009958D02*
X007293Y009805D01*
X007063Y009805D02*
X007063Y010112D01*
X007139Y010726D02*
X007063Y010802D01*
X007063Y010956D01*
X007139Y011033D01*
X007216Y011033D01*
X007523Y010726D01*
X007523Y011033D01*
X007356Y011821D02*
X007202Y011821D01*
X007125Y011898D01*
X007279Y012051D02*
X007356Y012051D01*
X007432Y011974D01*
X007432Y011898D01*
X007356Y011821D01*
X007356Y012051D02*
X007432Y012128D01*
X007432Y012204D01*
X007356Y012281D01*
X007202Y012281D01*
X007125Y012204D01*
X007523Y009651D02*
X007523Y009344D01*
X007063Y009344D01*
X008009Y008404D02*
X008239Y008174D01*
X008239Y008481D01*
X008469Y008404D02*
X008009Y008404D01*
X008086Y008021D02*
X008239Y008021D01*
X008316Y007944D01*
X008316Y007714D01*
X008316Y007867D02*
X008469Y008021D01*
X008665Y008020D02*
X008742Y007943D01*
X008895Y007943D01*
X008972Y008020D01*
X009126Y007943D02*
X009433Y007943D01*
X009279Y007943D02*
X009279Y008403D01*
X009126Y008250D01*
X008972Y008326D02*
X008895Y008403D01*
X008742Y008403D01*
X008665Y008326D01*
X008665Y008020D01*
X008469Y007714D02*
X008009Y007714D01*
X008009Y007944D01*
X008086Y008021D01*
X009013Y007361D02*
X009090Y007438D01*
X009166Y007438D01*
X009243Y007361D01*
X009243Y007208D01*
X009166Y007131D01*
X009090Y007131D01*
X009013Y007208D01*
X009013Y007361D01*
X009243Y007361D02*
X009320Y007438D01*
X009397Y007438D01*
X009473Y007361D01*
X009473Y007208D01*
X009397Y007131D01*
X009320Y007131D01*
X009243Y007208D01*
X009243Y006977D02*
X009090Y006977D01*
X009013Y006901D01*
X009013Y006670D01*
X009473Y006670D01*
X009320Y006670D02*
X009320Y006901D01*
X009243Y006977D01*
X009320Y006824D02*
X009473Y006977D01*
X009663Y007943D02*
X009816Y007943D01*
X009893Y008020D01*
X009893Y008326D01*
X009816Y008403D01*
X009663Y008403D01*
X009586Y008326D01*
X009586Y008250D01*
X009663Y008173D01*
X009893Y008173D01*
X010212Y008236D02*
X010212Y008083D01*
X010289Y008006D01*
X010596Y008006D01*
X010673Y008083D01*
X010673Y008236D01*
X010596Y008313D01*
X010673Y008466D02*
X010366Y008773D01*
X010289Y008773D01*
X010212Y008696D01*
X010212Y008543D01*
X010289Y008466D01*
X010289Y008313D02*
X010212Y008236D01*
X010673Y008466D02*
X010673Y008773D01*
X010673Y008927D02*
X010673Y009234D01*
X010673Y009080D02*
X010212Y009080D01*
X010366Y008927D01*
X009586Y008020D02*
X009663Y007943D01*
X010179Y005313D02*
X010465Y005313D01*
X010465Y004868D01*
X010179Y004868D01*
X009973Y004542D02*
X009973Y003544D01*
X010323Y003440D02*
X010405Y003440D01*
X010507Y002500D01*
X010711Y002500D01*
X010813Y003440D01*
X010895Y003440D01*
X010793Y002356D01*
X010789Y002337D01*
X010783Y002318D01*
X010773Y002301D01*
X010761Y002285D01*
X010746Y002272D01*
X010729Y002261D01*
X010711Y002254D01*
X010486Y002254D02*
X010468Y002261D01*
X010451Y002272D01*
X010436Y002285D01*
X010424Y002301D01*
X010414Y002318D01*
X010408Y002337D01*
X010404Y002356D01*
X010405Y002356D02*
X010323Y003440D01*
X010487Y002255D02*
X010524Y002246D01*
X010561Y002240D01*
X010599Y002238D01*
X010637Y002240D01*
X010674Y002246D01*
X010711Y002255D01*
X010997Y002357D02*
X011079Y003951D01*
X011078Y003951D02*
X011081Y003969D01*
X011088Y003986D01*
X011097Y004001D01*
X011110Y004014D01*
X011125Y004023D01*
X011142Y004030D01*
X011160Y004033D01*
X011161Y004032D02*
X011815Y004032D01*
X011815Y004033D02*
X011833Y004030D01*
X011850Y004023D01*
X011865Y004014D01*
X011878Y004001D01*
X011887Y003986D01*
X011894Y003969D01*
X011897Y003951D01*
X011896Y003951D02*
X011978Y002357D01*
X011978Y002356D02*
X011976Y002340D01*
X011972Y002325D01*
X011964Y002310D01*
X011954Y002298D01*
X011942Y002288D01*
X011927Y002280D01*
X011912Y002276D01*
X011896Y002274D01*
X011880Y002276D01*
X011865Y002280D01*
X011850Y002288D01*
X011838Y002298D01*
X011828Y002310D01*
X011820Y002325D01*
X011816Y002340D01*
X011814Y002356D01*
X011815Y002356D02*
X011733Y003705D01*
X011242Y003705D01*
X011243Y003705D02*
X011161Y002356D01*
X011159Y002340D01*
X011155Y002325D01*
X011147Y002310D01*
X011137Y002298D01*
X011125Y002288D01*
X011110Y002280D01*
X011095Y002276D01*
X011079Y002274D01*
X011079Y002275D02*
X011079Y002275D01*
X011079Y002274D02*
X011063Y002276D01*
X011048Y002280D01*
X011033Y002288D01*
X011021Y002298D01*
X011011Y002310D01*
X011003Y002325D01*
X010999Y002340D01*
X010997Y002356D01*
X009975Y002417D02*
X009975Y001825D01*
X013000Y001825D01*
X013000Y002417D01*
X013000Y001825D02*
X013000Y001825D01*
X013002Y001823D02*
X009973Y001823D01*
X009218Y002425D02*
X008757Y002732D01*
X008911Y002886D02*
X008757Y003039D01*
X009218Y003039D01*
X009218Y002886D02*
X009218Y003192D01*
X009218Y002732D02*
X008757Y002425D01*
X009027Y002679D02*
X008122Y002679D01*
X007374Y002679D02*
X006468Y002679D01*
X006468Y004569D01*
X007137Y005238D01*
X007374Y005238D01*
X008122Y005238D02*
X008358Y005238D01*
X009027Y004569D01*
X009027Y002679D01*
X008122Y002797D02*
X008186Y002819D01*
X008249Y002846D01*
X008311Y002876D01*
X008370Y002909D01*
X008428Y002945D01*
X008484Y002985D01*
X008537Y003028D01*
X008588Y003073D01*
X008636Y003121D01*
X008681Y003172D01*
X008724Y003226D01*
X008763Y003282D01*
X008800Y003339D01*
X008833Y003399D01*
X008862Y003461D01*
X008888Y003524D01*
X008911Y003588D01*
X008930Y003654D01*
X008945Y003721D01*
X008956Y003788D01*
X008964Y003856D01*
X008968Y003924D01*
X008968Y003992D01*
X008964Y004060D01*
X008956Y004128D01*
X008945Y004195D01*
X008930Y004262D01*
X008911Y004328D01*
X008888Y004392D01*
X008862Y004455D01*
X008833Y004517D01*
X008800Y004577D01*
X008763Y004634D01*
X008724Y004690D01*
X008681Y004744D01*
X008636Y004795D01*
X008588Y004843D01*
X008537Y004888D01*
X008484Y004931D01*
X008428Y004971D01*
X008370Y005007D01*
X008311Y005040D01*
X008249Y005070D01*
X008186Y005097D01*
X008122Y005119D01*
X007374Y005119D02*
X007310Y005097D01*
X007247Y005070D01*
X007185Y005040D01*
X007126Y005007D01*
X007068Y004971D01*
X007012Y004931D01*
X006959Y004888D01*
X006908Y004843D01*
X006860Y004795D01*
X006815Y004744D01*
X006772Y004690D01*
X006733Y004634D01*
X006696Y004577D01*
X006663Y004517D01*
X006634Y004455D01*
X006608Y004392D01*
X006585Y004328D01*
X006566Y004262D01*
X006551Y004195D01*
X006540Y004128D01*
X006532Y004060D01*
X006528Y003992D01*
X006528Y003924D01*
X006532Y003856D01*
X006540Y003788D01*
X006551Y003721D01*
X006566Y003654D01*
X006585Y003588D01*
X006608Y003524D01*
X006634Y003461D01*
X006663Y003399D01*
X006696Y003339D01*
X006733Y003282D01*
X006772Y003226D01*
X006815Y003172D01*
X006860Y003121D01*
X006908Y003073D01*
X006959Y003028D01*
X007012Y002985D01*
X007068Y002945D01*
X007126Y002909D01*
X007185Y002876D01*
X007247Y002846D01*
X007310Y002819D01*
X007374Y002797D01*
X006271Y002679D02*
X006271Y004569D01*
X005602Y005238D01*
X005366Y005238D01*
X004618Y005238D02*
X004381Y005238D01*
X003712Y004569D01*
X003712Y002679D01*
X004618Y002679D01*
X005366Y002679D02*
X006271Y002679D01*
X004618Y002797D02*
X004554Y002819D01*
X004491Y002846D01*
X004429Y002876D01*
X004370Y002909D01*
X004312Y002945D01*
X004256Y002985D01*
X004203Y003028D01*
X004152Y003073D01*
X004104Y003121D01*
X004059Y003172D01*
X004016Y003226D01*
X003977Y003282D01*
X003940Y003339D01*
X003907Y003399D01*
X003878Y003461D01*
X003852Y003524D01*
X003829Y003588D01*
X003810Y003654D01*
X003795Y003721D01*
X003784Y003788D01*
X003776Y003856D01*
X003772Y003924D01*
X003772Y003992D01*
X003776Y004060D01*
X003784Y004128D01*
X003795Y004195D01*
X003810Y004262D01*
X003829Y004328D01*
X003852Y004392D01*
X003878Y004455D01*
X003907Y004517D01*
X003940Y004577D01*
X003977Y004634D01*
X004016Y004690D01*
X004059Y004744D01*
X004104Y004795D01*
X004152Y004843D01*
X004203Y004888D01*
X004256Y004931D01*
X004312Y004971D01*
X004370Y005007D01*
X004429Y005040D01*
X004491Y005070D01*
X004554Y005097D01*
X004618Y005119D01*
X005366Y005119D02*
X005430Y005097D01*
X005493Y005070D01*
X005555Y005040D01*
X005614Y005007D01*
X005672Y004971D01*
X005728Y004931D01*
X005781Y004888D01*
X005832Y004843D01*
X005880Y004795D01*
X005925Y004744D01*
X005968Y004690D01*
X006007Y004634D01*
X006044Y004577D01*
X006077Y004517D01*
X006106Y004455D01*
X006132Y004392D01*
X006155Y004328D01*
X006174Y004262D01*
X006189Y004195D01*
X006200Y004128D01*
X006208Y004060D01*
X006212Y003992D01*
X006212Y003924D01*
X006208Y003856D01*
X006200Y003788D01*
X006189Y003721D01*
X006174Y003654D01*
X006155Y003588D01*
X006132Y003524D01*
X006106Y003461D01*
X006077Y003399D01*
X006044Y003339D01*
X006007Y003282D01*
X005968Y003226D01*
X005925Y003172D01*
X005880Y003121D01*
X005832Y003073D01*
X005781Y003028D01*
X005728Y002985D01*
X005672Y002945D01*
X005614Y002909D01*
X005555Y002876D01*
X005493Y002846D01*
X005430Y002819D01*
X005366Y002797D01*
X005706Y006966D02*
X005706Y007196D01*
X005783Y007273D01*
X005936Y007273D01*
X006013Y007196D01*
X006013Y006966D01*
X006013Y007119D02*
X006166Y007273D01*
X006089Y007426D02*
X006166Y007503D01*
X006166Y007656D01*
X006089Y007733D01*
X006013Y007733D01*
X005936Y007656D01*
X005936Y007580D01*
X005936Y007656D02*
X005859Y007733D01*
X005783Y007733D01*
X005706Y007656D01*
X005706Y007503D01*
X005783Y007426D01*
X005706Y006966D02*
X006166Y006966D01*
X004362Y007155D02*
X004055Y007155D01*
X004209Y007155D02*
X004209Y007616D01*
X004055Y007462D01*
X003902Y007539D02*
X003825Y007616D01*
X003672Y007616D01*
X003595Y007539D01*
X003595Y007232D01*
X003672Y007155D01*
X003825Y007155D01*
X003902Y007232D01*
X003441Y007155D02*
X003288Y007155D01*
X003365Y007155D02*
X003365Y007616D01*
X003441Y007616D02*
X003288Y007616D01*
X001291Y007598D02*
X001215Y007675D01*
X001061Y007675D01*
X000984Y007598D01*
X000831Y007598D02*
X000754Y007675D01*
X000601Y007675D01*
X000524Y007598D01*
X000524Y007291D01*
X000601Y007214D01*
X000754Y007214D01*
X000831Y007291D01*
X000984Y007214D02*
X001291Y007521D01*
X001291Y007598D01*
X001291Y007214D02*
X000984Y007214D01*
X000371Y007214D02*
X000217Y007214D01*
X000294Y007214D02*
X000294Y007675D01*
X000217Y007675D02*
X000371Y007675D01*
X009720Y016941D02*
X009797Y016864D01*
X010104Y016864D01*
X010180Y016941D01*
X010180Y017094D01*
X010104Y017171D01*
X010180Y017324D02*
X009873Y017631D01*
X009797Y017631D01*
X009720Y017555D01*
X009720Y017401D01*
X009797Y017324D01*
X009797Y017171D02*
X009720Y017094D01*
X009720Y016941D01*
X010180Y017324D02*
X010180Y017631D01*
X010180Y017785D02*
X010104Y017785D01*
X009797Y018092D01*
X009720Y018092D01*
X009720Y017785D01*
X006386Y025442D02*
X006495Y025551D01*
X006495Y025659D01*
X006657Y025714D02*
X006657Y026148D01*
X006603Y026202D01*
X006495Y026202D01*
X006386Y026093D01*
X006386Y025985D01*
X006278Y025876D02*
X006169Y025876D01*
X006061Y025768D01*
X006061Y025659D01*
X006278Y025442D01*
X006386Y025442D01*
X006657Y025714D02*
X006874Y025931D01*
X006820Y026202D02*
X007037Y026419D01*
X006820Y026528D02*
X006820Y026202D01*
X007146Y026202D02*
X006820Y026528D01*
X006095Y028266D02*
X005769Y028591D01*
X005932Y028754D01*
X006040Y028754D01*
X006149Y028645D01*
X006149Y028537D01*
X005986Y028374D01*
X006095Y028483D02*
X006312Y028483D01*
X006420Y028591D02*
X006637Y028808D01*
X006529Y028700D02*
X006203Y029025D01*
X006203Y028808D01*
X007155Y029911D02*
X007462Y029911D01*
X007616Y029911D02*
X007923Y029911D01*
X007973Y029880D02*
X008081Y029988D01*
X008190Y029988D01*
X008244Y029934D01*
X008244Y029825D01*
X008353Y029825D01*
X008407Y029771D01*
X008407Y029663D01*
X008298Y029554D01*
X008190Y029554D01*
X008136Y029391D02*
X007919Y029174D01*
X007919Y029608D01*
X007864Y029663D01*
X007756Y029663D01*
X007647Y029554D01*
X007647Y029446D01*
X007539Y029337D02*
X007430Y029337D01*
X007322Y029229D01*
X007322Y029120D01*
X007539Y028903D01*
X007647Y028903D01*
X007756Y029012D01*
X007756Y029120D01*
X007973Y029771D02*
X007973Y029880D01*
X007769Y029911D02*
X007769Y030372D01*
X007616Y030218D01*
X007155Y030372D02*
X007155Y029911D01*
X008190Y029771D02*
X008244Y029825D01*
X008852Y030703D02*
X009159Y030703D01*
X009236Y030779D01*
X009236Y030933D01*
X009159Y031010D01*
X009159Y031163D02*
X009236Y031240D01*
X009236Y031393D01*
X009159Y031470D01*
X009082Y031470D01*
X009005Y031393D01*
X009005Y031317D01*
X009005Y031393D02*
X008929Y031470D01*
X008852Y031470D01*
X008775Y031393D01*
X008775Y031240D01*
X008852Y031163D01*
X008852Y031010D02*
X008775Y030933D01*
X008775Y030779D01*
X008852Y030703D01*
X008852Y031623D02*
X008775Y031700D01*
X008775Y031854D01*
X008852Y031930D01*
X009159Y031623D01*
X009236Y031700D01*
X009236Y031854D01*
X009159Y031930D01*
X008852Y031930D01*
X008852Y031623D02*
X009159Y031623D01*
X007051Y031972D02*
X007051Y032279D01*
X006974Y032356D01*
X006821Y032356D01*
X006744Y032279D01*
X006744Y032203D01*
X006821Y032126D01*
X007051Y032126D01*
X007051Y031972D02*
X006974Y031896D01*
X006821Y031896D01*
X006744Y031972D01*
X006591Y031896D02*
X006284Y031896D01*
X006591Y032203D01*
X006591Y032279D01*
X006514Y032356D01*
X006361Y032356D01*
X006284Y032279D01*
X006130Y032279D02*
X006054Y032356D01*
X005900Y032356D01*
X005823Y032279D01*
X005823Y031972D01*
X005900Y031896D01*
X006054Y031896D01*
X006130Y031972D01*
X007026Y038089D02*
X007275Y038089D01*
X007275Y038541D01*
X007029Y038541D01*
X006824Y038827D02*
X006824Y039885D01*
X007173Y039969D02*
X007255Y039969D01*
X007357Y040909D01*
X007562Y040909D01*
X007664Y039969D01*
X007746Y039969D01*
X007643Y041052D01*
X007644Y041052D02*
X007640Y041071D01*
X007634Y041090D01*
X007624Y041107D01*
X007612Y041123D01*
X007597Y041136D01*
X007580Y041147D01*
X007562Y041154D01*
X007337Y041154D02*
X007319Y041147D01*
X007302Y041136D01*
X007287Y041123D01*
X007275Y041107D01*
X007265Y041090D01*
X007259Y041071D01*
X007255Y041052D01*
X007173Y039969D01*
X007337Y041154D02*
X007374Y041163D01*
X007411Y041169D01*
X007449Y041171D01*
X007487Y041169D01*
X007524Y041163D01*
X007561Y041154D01*
X007848Y041052D02*
X007929Y039458D01*
X007932Y039440D01*
X007939Y039423D01*
X007948Y039408D01*
X007961Y039395D01*
X007976Y039386D01*
X007993Y039379D01*
X008011Y039376D01*
X008665Y039376D01*
X008666Y039376D02*
X008684Y039379D01*
X008701Y039386D01*
X008716Y039395D01*
X008729Y039408D01*
X008738Y039423D01*
X008745Y039440D01*
X008748Y039458D01*
X008747Y039458D02*
X008829Y041052D01*
X008827Y041068D01*
X008823Y041083D01*
X008815Y041098D01*
X008805Y041110D01*
X008793Y041120D01*
X008778Y041128D01*
X008763Y041132D01*
X008747Y041134D01*
X008747Y041134D01*
X008731Y041132D01*
X008716Y041128D01*
X008701Y041120D01*
X008689Y041110D01*
X008679Y041098D01*
X008671Y041083D01*
X008667Y041068D01*
X008665Y041052D01*
X008583Y039703D01*
X008584Y039703D02*
X008093Y039703D01*
X008011Y041052D01*
X008012Y041052D02*
X008010Y041068D01*
X008006Y041083D01*
X007998Y041098D01*
X007988Y041110D01*
X007976Y041120D01*
X007961Y041128D01*
X007946Y041132D01*
X007930Y041134D01*
X007929Y041134D02*
X007913Y041132D01*
X007898Y041128D01*
X007883Y041120D01*
X007871Y041110D01*
X007861Y041098D01*
X007853Y041083D01*
X007849Y041068D01*
X007847Y041052D01*
X006826Y040992D02*
X006826Y041584D01*
X009851Y041584D01*
X009851Y040992D01*
X009853Y041585D02*
X006824Y041585D01*
X006826Y041584D02*
X006826Y041584D01*
X009033Y041052D02*
X008931Y039969D01*
X009013Y039969D01*
X009115Y040909D01*
X009319Y040909D01*
X009421Y039969D01*
X009503Y039969D01*
X009421Y041052D01*
X009422Y041052D02*
X009418Y041071D01*
X009412Y041090D01*
X009402Y041107D01*
X009390Y041123D01*
X009375Y041136D01*
X009358Y041147D01*
X009340Y041154D01*
X009115Y041154D02*
X009097Y041147D01*
X009080Y041136D01*
X009065Y041123D01*
X009053Y041107D01*
X009043Y041090D01*
X009037Y041071D01*
X009033Y041052D01*
X009115Y041154D02*
X009152Y041163D01*
X009189Y041169D01*
X009227Y041171D01*
X009265Y041169D01*
X009302Y041163D01*
X009339Y041154D01*
X009853Y039865D02*
X009853Y038866D01*
X010135Y038922D02*
X010596Y039229D01*
X010803Y039382D02*
X010879Y039305D01*
X011186Y039305D01*
X011263Y039382D01*
X011263Y039535D01*
X011186Y039612D01*
X011186Y039765D02*
X011263Y039842D01*
X011263Y039996D01*
X011186Y040072D01*
X011110Y040072D01*
X011033Y039996D01*
X011033Y039919D01*
X011033Y039996D02*
X010956Y040072D01*
X010879Y040072D01*
X010803Y039996D01*
X010803Y039842D01*
X010879Y039765D01*
X010879Y039612D02*
X010803Y039535D01*
X010803Y039382D01*
X010596Y039612D02*
X010135Y039612D01*
X010366Y039382D01*
X010366Y039689D01*
X010135Y039229D02*
X010596Y038922D01*
X011033Y040226D02*
X011033Y040533D01*
X011263Y040456D02*
X010803Y040456D01*
X011033Y040226D01*
X011881Y038958D02*
X011958Y038958D01*
X012034Y038881D01*
X012111Y038958D01*
X012188Y038958D01*
X012265Y038881D01*
X012265Y038728D01*
X012188Y038651D01*
X012188Y038498D02*
X012265Y038421D01*
X012265Y038267D01*
X012188Y038191D01*
X011881Y038191D01*
X011804Y038267D01*
X011804Y038421D01*
X011881Y038498D01*
X011881Y038651D02*
X011804Y038728D01*
X011804Y038881D01*
X011881Y038958D01*
X012034Y038881D02*
X012034Y038805D01*
X011804Y038037D02*
X011804Y037884D01*
X011804Y037961D02*
X012265Y037961D01*
X012265Y038037D02*
X012265Y037884D01*
X013860Y036059D02*
X014014Y036059D01*
X014091Y035982D01*
X014091Y035675D01*
X014014Y035598D01*
X013860Y035598D01*
X013784Y035675D01*
X013784Y035982D01*
X013860Y036059D01*
X013937Y035752D02*
X014091Y035598D01*
X014244Y035598D02*
X014551Y035905D01*
X014551Y035982D01*
X014474Y036059D01*
X014321Y036059D01*
X014244Y035982D01*
X014244Y035598D02*
X014551Y035598D01*
X015820Y033171D02*
X015744Y033094D01*
X015744Y032940D01*
X015820Y032864D01*
X015820Y032710D02*
X015897Y032710D01*
X015974Y032633D01*
X016051Y032710D01*
X016127Y032710D01*
X016204Y032633D01*
X016204Y032480D01*
X016127Y032403D01*
X016127Y032250D02*
X016204Y032173D01*
X016204Y032020D01*
X016127Y031943D01*
X015820Y031943D01*
X015744Y032020D01*
X015744Y032173D01*
X015820Y032250D01*
X015820Y032403D02*
X015744Y032480D01*
X015744Y032633D01*
X015820Y032710D01*
X015974Y032633D02*
X015974Y032557D01*
X016204Y032864D02*
X015897Y033171D01*
X015820Y033171D01*
X016204Y033171D02*
X016204Y032864D01*
X016267Y036878D02*
X016267Y037339D01*
X016497Y037339D01*
X016574Y037262D01*
X016574Y037108D01*
X016497Y037032D01*
X016267Y037032D01*
X016420Y037032D02*
X016574Y036878D01*
X016727Y036955D02*
X016804Y036878D01*
X016957Y036878D01*
X017034Y036955D01*
X017034Y037262D01*
X016957Y037339D01*
X016804Y037339D01*
X016727Y037262D01*
X016727Y037185D01*
X016804Y037108D01*
X017034Y037108D01*
X016300Y038415D02*
X016147Y038415D01*
X016070Y038492D01*
X015917Y038492D02*
X015917Y038799D01*
X015840Y038876D01*
X015610Y038876D01*
X015610Y038415D01*
X015840Y038415D01*
X015917Y038492D01*
X016224Y038645D02*
X016300Y038645D01*
X016377Y038569D01*
X016377Y038492D01*
X016300Y038415D01*
X016300Y038645D02*
X016377Y038722D01*
X016377Y038799D01*
X016300Y038876D01*
X016147Y038876D01*
X016070Y038799D01*
X016121Y039065D02*
X016352Y039065D01*
X016428Y039142D01*
X016428Y039449D01*
X016352Y039525D01*
X016121Y039525D01*
X016121Y039065D01*
X015968Y039065D02*
X015661Y039065D01*
X015661Y039525D01*
X015968Y039525D01*
X015815Y039295D02*
X015661Y039295D01*
X015508Y039065D02*
X015201Y039065D01*
X015201Y039525D01*
X015149Y038876D02*
X015149Y038415D01*
X015456Y038415D01*
X015303Y038645D02*
X015149Y038645D01*
X015149Y038876D02*
X015456Y038876D01*
X014996Y038415D02*
X014689Y038415D01*
X014689Y038876D01*
X016582Y039295D02*
X016889Y039295D01*
X016812Y039065D02*
X016812Y039525D01*
X016582Y039295D01*
X017350Y040697D02*
X017350Y041158D01*
X017580Y041158D01*
X017656Y041081D01*
X017656Y040927D01*
X017580Y040851D01*
X017350Y040851D01*
X017503Y040851D02*
X017656Y040697D01*
X017810Y040774D02*
X017887Y040697D01*
X018040Y040697D01*
X018117Y040774D01*
X018117Y040927D01*
X018040Y041004D01*
X017963Y041004D01*
X017810Y040927D01*
X017810Y041158D01*
X018117Y041158D01*
X012641Y033052D02*
X012641Y032746D01*
X012641Y032899D02*
X012181Y032899D01*
X012334Y032746D01*
X012334Y032592D02*
X012411Y032515D01*
X012488Y032592D01*
X012564Y032592D01*
X012641Y032515D01*
X012641Y032362D01*
X012564Y032285D01*
X012564Y032132D02*
X012641Y032055D01*
X012641Y031901D01*
X012564Y031825D01*
X012257Y031825D01*
X012181Y031901D01*
X012181Y032055D01*
X012257Y032132D01*
X012257Y032285D02*
X012181Y032362D01*
X012181Y032515D01*
X012257Y032592D01*
X012334Y032592D01*
X012411Y032515D02*
X012411Y032439D01*
X009647Y038096D02*
X009361Y038096D01*
X009361Y038541D01*
X009647Y038541D01*
X022887Y008800D02*
X023194Y008494D01*
X023271Y008570D01*
X023271Y008724D01*
X023194Y008800D01*
X022887Y008800D01*
X022811Y008724D01*
X022811Y008570D01*
X022887Y008494D01*
X023194Y008494D01*
X023271Y008340D02*
X023271Y008033D01*
X022964Y008340D01*
X022887Y008340D01*
X022811Y008263D01*
X022811Y008110D01*
X022887Y008033D01*
X022887Y007880D02*
X022811Y007803D01*
X022811Y007649D01*
X022887Y007573D01*
X023194Y007573D01*
X023271Y007649D01*
X023271Y007803D01*
X023194Y007880D01*
X021204Y007425D02*
X021204Y007271D01*
X021127Y007194D01*
X021051Y007194D01*
X020974Y007271D01*
X020974Y007425D01*
X021051Y007501D01*
X021127Y007501D01*
X021204Y007425D01*
X020974Y007425D02*
X020897Y007501D01*
X020820Y007501D01*
X020744Y007425D01*
X020744Y007271D01*
X020820Y007194D01*
X020897Y007194D01*
X020974Y007271D01*
X021204Y007041D02*
X021204Y006734D01*
X021204Y006887D02*
X020744Y006887D01*
X020897Y006734D01*
X020820Y006580D02*
X020744Y006504D01*
X020744Y006350D01*
X020820Y006274D01*
X021127Y006274D01*
X021204Y006350D01*
X021204Y006504D01*
X021127Y006580D01*
X018830Y002620D02*
X018523Y002620D01*
X018677Y002620D02*
X018677Y003080D01*
X018523Y002927D01*
X018370Y003004D02*
X018370Y002697D01*
X018293Y002620D01*
X018063Y002620D01*
X018063Y003080D01*
X018293Y003080D01*
X018370Y003004D01*
X019015Y001139D02*
X019015Y000832D01*
X019015Y000986D02*
X018555Y000986D01*
X018708Y000832D01*
X018555Y000679D02*
X018555Y000525D01*
X018555Y000602D02*
X018938Y000602D01*
X019015Y000525D01*
X019015Y000449D01*
X018938Y000372D01*
X013002Y003524D02*
X013002Y004582D01*
X012797Y004868D02*
X012551Y004868D01*
X012551Y005319D01*
X012800Y005319D01*
X012653Y003440D02*
X012571Y003440D01*
X012469Y002500D01*
X012264Y002500D01*
X012162Y003440D01*
X012080Y003440D01*
X012183Y002356D01*
X012182Y002356D02*
X012186Y002337D01*
X012192Y002318D01*
X012202Y002301D01*
X012214Y002285D01*
X012229Y002272D01*
X012246Y002261D01*
X012264Y002254D01*
X012489Y002254D02*
X012507Y002261D01*
X012524Y002272D01*
X012539Y002285D01*
X012551Y002301D01*
X012561Y002318D01*
X012567Y002337D01*
X012571Y002356D01*
X012653Y003440D01*
X012489Y002255D02*
X012452Y002246D01*
X012415Y002240D01*
X012377Y002238D01*
X012339Y002240D01*
X012302Y002246D01*
X012265Y002255D01*
D15*
X006085Y007341D02*
X003505Y007341D01*
X003505Y009701D01*
X003034Y009701D02*
X003034Y007341D01*
X000454Y007341D01*
X000454Y009701D01*
X006085Y009701D02*
X006085Y007341D01*
X012708Y033880D02*
X012708Y035061D01*
X012748Y034667D02*
X012775Y034665D01*
X012801Y034660D01*
X012826Y034651D01*
X012850Y034638D01*
X012872Y034623D01*
X012892Y034604D01*
X012909Y034584D01*
X012923Y034561D01*
X012934Y034536D01*
X012941Y034510D01*
X012945Y034483D01*
X012945Y034457D01*
X012941Y034430D01*
X012934Y034404D01*
X012923Y034379D01*
X012909Y034356D01*
X012892Y034336D01*
X012872Y034317D01*
X012850Y034302D01*
X012826Y034289D01*
X012801Y034280D01*
X012775Y034275D01*
X012748Y034273D01*
X013693Y033880D02*
X014795Y033880D01*
X014795Y035061D02*
X013693Y035061D01*
X012433Y037876D02*
X012433Y039923D01*
X016448Y039923D01*
X016448Y037876D01*
X012433Y037876D01*
X015779Y035061D02*
X015779Y033880D01*
D16*
X004795Y007151D03*
X001744Y007151D03*
D17*
X001856Y010469D02*
X001931Y010469D01*
X002006Y010545D01*
X002006Y010920D01*
X001931Y010920D02*
X002081Y010920D01*
X002241Y010920D02*
X002241Y010469D01*
X002241Y010620D02*
X002466Y010620D01*
X002541Y010695D01*
X002541Y010845D01*
X002466Y010920D01*
X002241Y010920D01*
X002701Y010845D02*
X002776Y010920D01*
X002926Y010920D01*
X003002Y010845D01*
X003002Y010770D01*
X002926Y010695D01*
X003002Y010620D01*
X003002Y010545D01*
X002926Y010469D01*
X002776Y010469D01*
X002701Y010545D01*
X002851Y010695D02*
X002926Y010695D01*
X001856Y010469D02*
X001781Y010545D01*
X008603Y013379D02*
X008678Y013304D01*
X008753Y013304D01*
X008829Y013379D01*
X008829Y013755D01*
X008904Y013755D02*
X008753Y013755D01*
X009064Y013755D02*
X009064Y013304D01*
X009064Y013454D02*
X009289Y013454D01*
X009364Y013529D01*
X009364Y013679D01*
X009289Y013755D01*
X009064Y013755D01*
X009524Y013755D02*
X009524Y013529D01*
X009674Y013604D01*
X009749Y013604D01*
X009824Y013529D01*
X009824Y013379D01*
X009749Y013304D01*
X009599Y013304D01*
X009524Y013379D01*
X009524Y013755D02*
X009824Y013755D01*
X013101Y008873D02*
X013176Y008798D01*
X013251Y008798D01*
X013326Y008873D01*
X013326Y009248D01*
X013251Y009248D02*
X013401Y009248D01*
X013561Y009248D02*
X013561Y008798D01*
X013561Y008948D02*
X013786Y008948D01*
X013862Y009023D01*
X013862Y009173D01*
X013786Y009248D01*
X013561Y009248D01*
X014022Y009023D02*
X014247Y009023D01*
X014322Y008948D01*
X014322Y008873D01*
X014247Y008798D01*
X014097Y008798D01*
X014022Y008873D01*
X014022Y009023D01*
X014172Y009173D01*
X014322Y009248D01*
X015110Y008823D02*
X015185Y008748D01*
X015261Y008748D01*
X015336Y008823D01*
X015336Y009198D01*
X015261Y009198D02*
X015411Y009198D01*
X015571Y009198D02*
X015796Y009198D01*
X015871Y009123D01*
X015871Y008973D01*
X015796Y008898D01*
X015571Y008898D01*
X015571Y008748D02*
X015571Y009198D01*
X016031Y009198D02*
X016331Y009198D01*
X016331Y009123D01*
X016031Y008823D01*
X016031Y008748D01*
X018866Y006165D02*
X018941Y006090D01*
X019016Y006090D01*
X019092Y006165D01*
X019092Y006540D01*
X019167Y006540D02*
X019016Y006540D01*
X019327Y006540D02*
X019327Y006090D01*
X019327Y006240D02*
X019552Y006240D01*
X019627Y006315D01*
X019627Y006465D01*
X019552Y006540D01*
X019327Y006540D01*
X019787Y006465D02*
X019862Y006540D01*
X020012Y006540D01*
X020087Y006465D01*
X020087Y006390D01*
X019787Y006090D01*
X020087Y006090D01*
X021737Y010588D02*
X021813Y010588D01*
X021888Y010663D01*
X021888Y011038D01*
X021813Y011038D02*
X021963Y011038D01*
X022123Y011038D02*
X022123Y010588D01*
X022123Y010738D02*
X022348Y010738D01*
X022423Y010813D01*
X022423Y010963D01*
X022348Y011038D01*
X022123Y011038D01*
X022583Y010813D02*
X022883Y010813D01*
X022808Y010588D02*
X022808Y011038D01*
X022583Y010813D01*
X021737Y010588D02*
X021662Y010663D01*
X016590Y002715D02*
X016289Y002715D01*
X016440Y002715D02*
X016440Y003165D01*
X016289Y003015D01*
X016129Y002940D02*
X016054Y002865D01*
X015829Y002865D01*
X015829Y002715D02*
X015829Y003165D01*
X016054Y003165D01*
X016129Y003090D01*
X016129Y002940D01*
X015669Y003165D02*
X015519Y003165D01*
X015594Y003165D02*
X015594Y002790D01*
X015519Y002715D01*
X015444Y002715D01*
X015369Y002790D01*
X009648Y031815D02*
X009542Y031815D01*
X009648Y031815D02*
X009755Y031921D01*
X009755Y032027D01*
X009701Y032080D01*
X009595Y032080D01*
X009489Y031974D01*
X009383Y031974D01*
X009330Y032027D01*
X009330Y032133D01*
X009436Y032239D01*
X009542Y032239D01*
X009709Y032512D02*
X009815Y032618D01*
X009762Y032565D02*
X010027Y032299D01*
X010027Y032193D01*
X009974Y032140D01*
X009868Y032140D01*
X010193Y032466D02*
X010299Y032466D01*
X010406Y032572D01*
X010406Y032678D01*
X010299Y032784D01*
X010193Y032784D01*
X010140Y032731D01*
X010087Y032572D01*
X009928Y032731D01*
X010140Y032943D01*
X011110Y035562D02*
X011035Y035637D01*
X011110Y035562D02*
X011260Y035562D01*
X011335Y035637D01*
X011335Y035712D01*
X011260Y035787D01*
X011110Y035787D01*
X011035Y035862D01*
X011035Y035937D01*
X011110Y036012D01*
X011260Y036012D01*
X011335Y035937D01*
X011645Y036012D02*
X011795Y036012D01*
X011720Y036012D02*
X011720Y035637D01*
X011645Y035562D01*
X011570Y035562D01*
X011495Y035637D01*
X011955Y035562D02*
X012256Y035562D01*
X012106Y035562D02*
X012106Y036012D01*
X011955Y035862D01*
X012416Y035787D02*
X012716Y035787D01*
X012641Y035562D02*
X012641Y036012D01*
X012416Y035787D01*
X007913Y036346D02*
X007838Y036271D01*
X007688Y036271D01*
X007613Y036346D01*
X007613Y036496D02*
X007763Y036571D01*
X007838Y036571D01*
X007913Y036496D01*
X007913Y036346D01*
X007913Y036721D02*
X007613Y036721D01*
X007613Y036496D01*
X007452Y036271D02*
X007152Y036271D01*
X007302Y036271D02*
X007302Y036721D01*
X007152Y036571D01*
X006992Y036721D02*
X006842Y036721D01*
X006917Y036721D02*
X006917Y036346D01*
X006842Y036271D01*
X006767Y036271D01*
X006692Y036346D01*
X006532Y036346D02*
X006457Y036271D01*
X006307Y036271D01*
X006231Y036346D01*
X006307Y036496D02*
X006457Y036496D01*
X006532Y036421D01*
X006532Y036346D01*
X006307Y036496D02*
X006231Y036571D01*
X006231Y036646D01*
X006307Y036721D01*
X006457Y036721D01*
X006532Y036646D01*
X006535Y035947D02*
X006385Y035947D01*
X006310Y035872D01*
X006310Y035572D01*
X006385Y035497D01*
X006535Y035497D01*
X006610Y035572D01*
X006610Y035872D01*
X006535Y035947D01*
X006770Y035797D02*
X006921Y035947D01*
X006921Y035497D01*
X007071Y035497D02*
X006770Y035497D01*
X006610Y035497D02*
X006460Y035647D01*
D18*
X019460Y005631D02*
X020110Y005631D01*
X020110Y005435D02*
X019460Y005435D01*
X019460Y005631D01*
X019460Y005435D02*
X019460Y004844D01*
X022110Y004844D01*
X021960Y005435D02*
X022610Y005435D01*
X022610Y005631D01*
X021960Y005631D01*
X022295Y003663D02*
X021527Y003663D01*
X021232Y003663D01*
X020838Y003663D02*
X020543Y003663D01*
X019775Y003663D01*
X019775Y003269D01*
X019775Y002876D02*
X019775Y002482D01*
X019775Y002088D02*
X019775Y001694D01*
X019460Y001498D02*
X019460Y004844D01*
X019263Y004844D01*
X019263Y000120D01*
X019775Y000120D01*
X019775Y000513D01*
X019775Y000120D02*
X022295Y000120D01*
X022295Y000513D01*
X022295Y000120D02*
X022807Y000120D01*
X022807Y003344D01*
X022295Y003269D02*
X022295Y003663D01*
X022295Y002876D02*
X022295Y002482D01*
X022295Y002088D02*
X022295Y001694D01*
X022295Y001301D02*
X022295Y000907D01*
X022807Y001498D02*
X019460Y001498D01*
X019263Y001498D01*
X019775Y001301D02*
X019775Y000907D01*
X020543Y000907D02*
X020545Y000864D01*
X020550Y000822D01*
X020560Y000780D01*
X020573Y000739D01*
X020589Y000699D01*
X020609Y000661D01*
X020632Y000625D01*
X020658Y000591D01*
X020687Y000559D01*
X020719Y000530D01*
X020753Y000504D01*
X020789Y000481D01*
X020827Y000461D01*
X020867Y000445D01*
X020908Y000432D01*
X020950Y000422D01*
X020992Y000417D01*
X021035Y000415D01*
X021078Y000417D01*
X021120Y000422D01*
X021162Y000432D01*
X021203Y000445D01*
X021243Y000461D01*
X021281Y000481D01*
X021317Y000504D01*
X021351Y000530D01*
X021383Y000559D01*
X021412Y000591D01*
X021438Y000625D01*
X021461Y000661D01*
X021481Y000699D01*
X021497Y000739D01*
X021510Y000780D01*
X021520Y000822D01*
X021525Y000864D01*
X021527Y000907D01*
D19*
X009885Y033572D02*
X007185Y033572D01*
X007185Y033872D02*
X009885Y033872D01*
X009923Y033873D01*
X009960Y033878D01*
X009997Y033885D01*
X010033Y033894D01*
X010069Y033907D01*
X010103Y033922D01*
X010546Y034822D02*
X010514Y034867D01*
X010478Y034909D01*
X010439Y034949D01*
X010397Y034986D01*
X010354Y035020D01*
X010307Y035051D01*
X010259Y035079D01*
X010209Y035103D01*
X010158Y035124D01*
X010105Y035141D01*
X010051Y035155D01*
X009996Y035164D01*
X009941Y035170D01*
X009885Y035172D01*
X007185Y035172D01*
X007185Y034872D02*
X009885Y034872D01*
X010546Y033922D02*
X010514Y033877D01*
X010478Y033835D01*
X010439Y033795D01*
X010398Y033758D01*
X010354Y033724D01*
X010307Y033693D01*
X010259Y033665D01*
X010209Y033641D01*
X010158Y033620D01*
X010105Y033603D01*
X010051Y033589D01*
X009996Y033580D01*
X009941Y033574D01*
X009885Y033572D01*
X010103Y034822D02*
X010069Y034837D01*
X010033Y034850D01*
X009997Y034859D01*
X009960Y034866D01*
X009923Y034871D01*
X009885Y034872D01*
X008935Y034372D02*
X008785Y034372D01*
X008285Y034372D02*
X008135Y034372D01*
X007185Y035172D02*
X007129Y035170D01*
X007074Y035164D01*
X007019Y035155D01*
X006965Y035141D01*
X006912Y035124D01*
X006861Y035103D01*
X006811Y035079D01*
X006763Y035051D01*
X006716Y035020D01*
X006672Y034986D01*
X006631Y034949D01*
X006592Y034909D01*
X006556Y034867D01*
X006524Y034822D01*
X006524Y033922D02*
X006556Y033877D01*
X006592Y033835D01*
X006631Y033795D01*
X006673Y033758D01*
X006716Y033724D01*
X006763Y033693D01*
X006811Y033665D01*
X006861Y033641D01*
X006912Y033620D01*
X006965Y033603D01*
X007019Y033589D01*
X007074Y033580D01*
X007129Y033574D01*
X007185Y033572D01*
X007185Y033872D02*
X007147Y033873D01*
X007110Y033878D01*
X007073Y033885D01*
X007037Y033894D01*
X007001Y033907D01*
X006967Y033922D01*
X006967Y034822D02*
X007001Y034837D01*
X007037Y034850D01*
X007073Y034859D01*
X007110Y034866D01*
X007147Y034871D01*
X007185Y034872D01*
D20*
X006901Y008840D03*
X007216Y008624D03*
X007689Y008624D03*
X006429Y008840D03*
D21*
X006665Y008840D03*
X007452Y008624D03*
X017708Y038761D03*
X017748Y039411D03*
D22*
X009421Y016852D02*
X007059Y016852D01*
X007059Y014490D01*
X009421Y014490D01*
X009421Y016852D01*
X007551Y015671D02*
X007553Y015723D01*
X007559Y015775D01*
X007569Y015826D01*
X007582Y015876D01*
X007600Y015926D01*
X007621Y015973D01*
X007645Y016019D01*
X007674Y016063D01*
X007705Y016105D01*
X007739Y016144D01*
X007776Y016181D01*
X007816Y016214D01*
X007859Y016245D01*
X007903Y016272D01*
X007949Y016296D01*
X007998Y016316D01*
X008047Y016332D01*
X008098Y016345D01*
X008149Y016354D01*
X008201Y016359D01*
X008253Y016360D01*
X008305Y016357D01*
X008357Y016350D01*
X008408Y016339D01*
X008458Y016325D01*
X008507Y016306D01*
X008554Y016284D01*
X008599Y016259D01*
X008643Y016230D01*
X008684Y016198D01*
X008723Y016163D01*
X008758Y016125D01*
X008791Y016084D01*
X008821Y016042D01*
X008847Y015997D01*
X008870Y015950D01*
X008889Y015901D01*
X008905Y015851D01*
X008917Y015801D01*
X008925Y015749D01*
X008929Y015697D01*
X008929Y015645D01*
X008925Y015593D01*
X008917Y015541D01*
X008905Y015491D01*
X008889Y015441D01*
X008870Y015392D01*
X008847Y015345D01*
X008821Y015300D01*
X008791Y015258D01*
X008758Y015217D01*
X008723Y015179D01*
X008684Y015144D01*
X008643Y015112D01*
X008599Y015083D01*
X008554Y015058D01*
X008507Y015036D01*
X008458Y015017D01*
X008408Y015003D01*
X008357Y014992D01*
X008305Y014985D01*
X008253Y014982D01*
X008201Y014983D01*
X008149Y014988D01*
X008098Y014997D01*
X008047Y015010D01*
X007998Y015026D01*
X007949Y015046D01*
X007903Y015070D01*
X007859Y015097D01*
X007816Y015128D01*
X007776Y015161D01*
X007739Y015198D01*
X007705Y015237D01*
X007674Y015279D01*
X007645Y015323D01*
X007621Y015369D01*
X007600Y015416D01*
X007582Y015466D01*
X007569Y015516D01*
X007559Y015567D01*
X007553Y015619D01*
X007551Y015671D01*
D23*
X012787Y038259D03*
D24*
X017708Y038525D03*
X017708Y038998D03*
X017748Y039175D03*
X017748Y039647D03*
M02*
