G75*
%MOIN*%
%OFA0B0*%
%FSLAX25Y25*%
%IPPOS*%
%LPD*%
%AMOC8*
5,1,8,0,0,1.08239X$1,22.5*
%
%ADD10C,0.00000*%
%ADD11C,0.00300*%
%ADD12C,0.00400*%
%ADD13C,0.00600*%
%ADD14C,0.01200*%
%ADD15C,0.01600*%
%ADD16C,0.00800*%
D10*
X0001739Y0002810D02*
X0001739Y0395311D01*
X0238660Y0395811D01*
X0238660Y0003310D01*
X0001739Y0002810D01*
D11*
X0159874Y0097092D02*
X0160492Y0096475D01*
X0161726Y0096475D01*
X0162343Y0097092D01*
X0162343Y0097710D01*
X0161726Y0098327D01*
X0161109Y0098327D01*
X0161726Y0098327D02*
X0162343Y0098944D01*
X0162343Y0099561D01*
X0161726Y0100178D01*
X0160492Y0100178D01*
X0159874Y0099561D01*
X0163558Y0100178D02*
X0163558Y0097710D01*
X0164792Y0096475D01*
X0166026Y0097710D01*
X0166026Y0100178D01*
X0167241Y0099561D02*
X0167858Y0100178D01*
X0169092Y0100178D01*
X0169709Y0099561D01*
X0169709Y0098944D01*
X0169092Y0098327D01*
X0169709Y0097710D01*
X0169709Y0097092D01*
X0169092Y0096475D01*
X0167858Y0096475D01*
X0167241Y0097092D01*
X0168475Y0098327D02*
X0169092Y0098327D01*
X0169092Y0106318D02*
X0167241Y0106318D01*
X0167241Y0110021D01*
X0169092Y0110021D01*
X0169709Y0109404D01*
X0169709Y0106935D01*
X0169092Y0106318D01*
X0166026Y0106318D02*
X0166026Y0110021D01*
X0163558Y0110021D02*
X0163558Y0106318D01*
X0162343Y0106935D02*
X0162343Y0108169D01*
X0161109Y0108169D01*
X0162343Y0106935D02*
X0161726Y0106318D01*
X0160492Y0106318D01*
X0159874Y0106935D01*
X0159874Y0109404D01*
X0160492Y0110021D01*
X0161726Y0110021D01*
X0162343Y0109404D01*
X0163558Y0110021D02*
X0166026Y0106318D01*
D12*
X0180962Y0106518D02*
X0183264Y0106518D01*
X0184031Y0107285D01*
X0184031Y0108820D01*
X0183264Y0109587D01*
X0180962Y0109587D01*
X0180962Y0104983D01*
X0185566Y0104983D02*
X0187868Y0104983D01*
X0188635Y0105751D01*
X0188635Y0106518D01*
X0187868Y0107285D01*
X0185566Y0107285D01*
X0185566Y0104983D02*
X0185566Y0109587D01*
X0187868Y0109587D01*
X0188635Y0108820D01*
X0188635Y0108053D01*
X0187868Y0107285D01*
X0190170Y0108053D02*
X0191705Y0109587D01*
X0191705Y0104983D01*
X0193239Y0104983D02*
X0190170Y0104983D01*
X0194774Y0107285D02*
X0197843Y0107285D01*
X0197076Y0104983D02*
X0197076Y0109587D01*
X0194774Y0107285D01*
X0194890Y0115226D02*
X0194123Y0115993D01*
X0194123Y0116761D01*
X0194890Y0117528D01*
X0196425Y0117528D01*
X0197192Y0116761D01*
X0197192Y0115993D01*
X0196425Y0115226D01*
X0194890Y0115226D01*
X0194890Y0117528D02*
X0194123Y0118295D01*
X0194123Y0119063D01*
X0194890Y0119830D01*
X0196425Y0119830D01*
X0197192Y0119063D01*
X0197192Y0118295D01*
X0196425Y0117528D01*
X0192588Y0119063D02*
X0191821Y0119830D01*
X0189519Y0119830D01*
X0189519Y0115226D01*
X0191821Y0115226D01*
X0192588Y0115993D01*
X0192588Y0119063D01*
X0187984Y0119063D02*
X0187984Y0117528D01*
X0187217Y0116761D01*
X0184915Y0116761D01*
X0184915Y0115226D02*
X0184915Y0119830D01*
X0187217Y0119830D01*
X0187984Y0119063D01*
X0187768Y0124869D02*
X0188535Y0125636D01*
X0188535Y0128705D01*
X0187768Y0129472D01*
X0185466Y0129472D01*
X0185466Y0124869D01*
X0187768Y0124869D01*
X0190070Y0124869D02*
X0193139Y0124869D01*
X0191605Y0124869D02*
X0191605Y0129472D01*
X0190070Y0127938D01*
X0189470Y0134895D02*
X0192539Y0134895D01*
X0191005Y0134895D02*
X0191005Y0139499D01*
X0189470Y0137965D01*
X0187935Y0138732D02*
X0187168Y0139499D01*
X0184866Y0139499D01*
X0184866Y0134895D01*
X0187168Y0134895D01*
X0187935Y0135663D01*
X0187935Y0138732D01*
X0183331Y0138732D02*
X0183331Y0137197D01*
X0182564Y0136430D01*
X0180262Y0136430D01*
X0180262Y0134895D02*
X0180262Y0139499D01*
X0182564Y0139499D01*
X0183331Y0138732D01*
X0185066Y0145538D02*
X0187368Y0145538D01*
X0188135Y0146305D01*
X0188135Y0149374D01*
X0187368Y0150142D01*
X0185066Y0150142D01*
X0185066Y0145538D01*
X0183531Y0147840D02*
X0182764Y0147072D01*
X0180462Y0147072D01*
X0180462Y0145538D02*
X0180462Y0150142D01*
X0182764Y0150142D01*
X0183531Y0149374D01*
X0183531Y0147840D01*
X0189670Y0148607D02*
X0191205Y0150142D01*
X0191205Y0145538D01*
X0192739Y0145538D02*
X0189670Y0145538D01*
X0194274Y0147840D02*
X0197343Y0147840D01*
X0196576Y0150142D02*
X0194274Y0147840D01*
X0196576Y0145538D02*
X0196576Y0150142D01*
X0195892Y0155180D02*
X0192823Y0155180D01*
X0195892Y0158250D01*
X0195892Y0159017D01*
X0195125Y0159784D01*
X0193590Y0159784D01*
X0192823Y0159017D01*
X0191288Y0159017D02*
X0190521Y0159784D01*
X0188986Y0159784D01*
X0188219Y0159017D01*
X0188219Y0155948D01*
X0188986Y0155180D01*
X0190521Y0155180D01*
X0191288Y0155948D01*
X0191288Y0157482D01*
X0189754Y0157482D01*
X0186684Y0157482D02*
X0186684Y0159017D01*
X0185917Y0159784D01*
X0183615Y0159784D01*
X0183615Y0155180D01*
X0183615Y0156715D02*
X0185917Y0156715D01*
X0186684Y0157482D01*
X0188586Y0164823D02*
X0187819Y0165590D01*
X0187819Y0168659D01*
X0188586Y0169427D01*
X0190121Y0169427D01*
X0190888Y0168659D01*
X0190888Y0167125D02*
X0189354Y0167125D01*
X0190888Y0167125D02*
X0190888Y0165590D01*
X0190121Y0164823D01*
X0188586Y0164823D01*
X0186284Y0167125D02*
X0185517Y0166357D01*
X0183215Y0166357D01*
X0183215Y0164823D02*
X0183215Y0169427D01*
X0185517Y0169427D01*
X0186284Y0168659D01*
X0186284Y0167125D01*
X0192423Y0167125D02*
X0195492Y0167125D01*
X0194725Y0164823D02*
X0194725Y0169427D01*
X0192423Y0167125D01*
X0191121Y0175065D02*
X0189586Y0175065D01*
X0188819Y0175833D01*
X0188819Y0178902D01*
X0189586Y0179669D01*
X0191121Y0179669D01*
X0191888Y0178902D01*
X0191888Y0177367D02*
X0190354Y0177367D01*
X0191888Y0177367D02*
X0191888Y0175833D01*
X0191121Y0175065D01*
X0193423Y0175833D02*
X0194190Y0175065D01*
X0195725Y0175065D01*
X0196492Y0175833D01*
X0196492Y0176600D01*
X0195725Y0177367D01*
X0193423Y0177367D01*
X0193423Y0175833D01*
X0193423Y0177367D02*
X0194957Y0178902D01*
X0196492Y0179669D01*
X0196225Y0185492D02*
X0194690Y0185492D01*
X0193923Y0186259D01*
X0193923Y0187027D01*
X0194690Y0187794D01*
X0196225Y0187794D01*
X0196992Y0187027D01*
X0196992Y0186259D01*
X0196225Y0185492D01*
X0196225Y0187794D02*
X0196992Y0188561D01*
X0196992Y0189329D01*
X0196225Y0190096D01*
X0194690Y0190096D01*
X0193923Y0189329D01*
X0193923Y0188561D01*
X0194690Y0187794D01*
X0192388Y0187794D02*
X0192388Y0186259D01*
X0191621Y0185492D01*
X0190086Y0185492D01*
X0189319Y0186259D01*
X0189319Y0189329D01*
X0190086Y0190096D01*
X0191621Y0190096D01*
X0192388Y0189329D01*
X0192388Y0187794D02*
X0190854Y0187794D01*
X0187784Y0187794D02*
X0187017Y0187027D01*
X0184715Y0187027D01*
X0184715Y0185492D02*
X0184715Y0190096D01*
X0187017Y0190096D01*
X0187784Y0189329D01*
X0187784Y0187794D01*
X0189786Y0195635D02*
X0191321Y0195635D01*
X0192088Y0196402D01*
X0193623Y0196402D02*
X0193623Y0195635D01*
X0193623Y0196402D02*
X0196692Y0199471D01*
X0196692Y0200239D01*
X0193623Y0200239D01*
X0192088Y0199471D02*
X0191321Y0200239D01*
X0189786Y0200239D01*
X0189019Y0199471D01*
X0189019Y0196402D01*
X0189786Y0195635D01*
X0187484Y0197937D02*
X0187484Y0199471D01*
X0186717Y0200239D01*
X0184415Y0200239D01*
X0184415Y0195635D01*
X0184415Y0197169D02*
X0186717Y0197169D01*
X0187484Y0197937D01*
X0190086Y0205277D02*
X0191621Y0205277D01*
X0192388Y0206044D01*
X0193923Y0206044D02*
X0194690Y0205277D01*
X0196225Y0205277D01*
X0196992Y0206044D01*
X0196992Y0209114D01*
X0196225Y0209881D01*
X0194690Y0209881D01*
X0193923Y0209114D01*
X0193923Y0208346D01*
X0194690Y0207579D01*
X0196992Y0207579D01*
X0192388Y0209114D02*
X0191621Y0209881D01*
X0190086Y0209881D01*
X0189319Y0209114D01*
X0189319Y0206044D01*
X0190086Y0205277D01*
X0187784Y0207579D02*
X0187017Y0206812D01*
X0184715Y0206812D01*
X0184715Y0205277D02*
X0184715Y0209881D01*
X0187017Y0209881D01*
X0187784Y0209114D01*
X0187784Y0207579D01*
X0189403Y0215620D02*
X0189403Y0218689D01*
X0190938Y0220224D01*
X0192472Y0218689D01*
X0192472Y0215620D01*
X0194007Y0216387D02*
X0194774Y0215620D01*
X0196309Y0215620D01*
X0197076Y0216387D01*
X0197076Y0219456D01*
X0196309Y0220224D01*
X0194774Y0220224D01*
X0194007Y0219456D01*
X0194007Y0218689D01*
X0194774Y0217922D01*
X0197076Y0217922D01*
X0192472Y0217922D02*
X0189403Y0217922D01*
X0187868Y0217922D02*
X0187101Y0217154D01*
X0184799Y0217154D01*
X0184799Y0215620D02*
X0184799Y0220224D01*
X0187101Y0220224D01*
X0187868Y0219456D01*
X0187868Y0217922D01*
X0186450Y0225462D02*
X0186450Y0228531D01*
X0187985Y0230066D01*
X0189520Y0228531D01*
X0189520Y0225462D01*
X0191054Y0225462D02*
X0194124Y0225462D01*
X0195658Y0225462D02*
X0198728Y0225462D01*
X0197193Y0225462D02*
X0197193Y0230066D01*
X0195658Y0228531D01*
X0192589Y0230066D02*
X0192589Y0225462D01*
X0191054Y0228531D02*
X0192589Y0230066D01*
X0189520Y0227764D02*
X0186450Y0227764D01*
X0184916Y0227764D02*
X0184148Y0226997D01*
X0181846Y0226997D01*
X0181846Y0225462D02*
X0181846Y0230066D01*
X0184148Y0230066D01*
X0184916Y0229299D01*
X0184916Y0227764D01*
X0185466Y0235305D02*
X0185466Y0238374D01*
X0187001Y0239909D01*
X0188535Y0238374D01*
X0188535Y0235305D01*
X0190070Y0235305D02*
X0193139Y0235305D01*
X0191605Y0235305D02*
X0191605Y0239909D01*
X0190070Y0238374D01*
X0188535Y0237607D02*
X0185466Y0237607D01*
X0183931Y0237607D02*
X0183931Y0239141D01*
X0183164Y0239909D01*
X0180862Y0239909D01*
X0180862Y0235305D01*
X0180862Y0236839D02*
X0183164Y0236839D01*
X0183931Y0237607D01*
X0186166Y0245231D02*
X0186166Y0248301D01*
X0187701Y0249835D01*
X0189235Y0248301D01*
X0189235Y0245231D01*
X0190770Y0245231D02*
X0193839Y0245231D01*
X0192305Y0245231D02*
X0192305Y0249835D01*
X0190770Y0248301D01*
X0189235Y0247533D02*
X0186166Y0247533D01*
X0184631Y0247533D02*
X0183864Y0246766D01*
X0181562Y0246766D01*
X0181562Y0245231D02*
X0181562Y0249835D01*
X0183864Y0249835D01*
X0184631Y0249068D01*
X0184631Y0247533D01*
X0187133Y0255374D02*
X0188668Y0255374D01*
X0189435Y0256141D01*
X0190970Y0255374D02*
X0194039Y0255374D01*
X0192505Y0255374D02*
X0192505Y0259978D01*
X0190970Y0258443D01*
X0189435Y0259211D02*
X0188668Y0259978D01*
X0187133Y0259978D01*
X0186366Y0259211D01*
X0186366Y0256141D01*
X0187133Y0255374D01*
X0184831Y0257676D02*
X0184831Y0259211D01*
X0184064Y0259978D01*
X0181762Y0259978D01*
X0181762Y0255374D01*
X0181762Y0256909D02*
X0184064Y0256909D01*
X0184831Y0257676D01*
X0184915Y0265417D02*
X0184915Y0270020D01*
X0187217Y0270020D01*
X0187984Y0269253D01*
X0187984Y0267718D01*
X0187217Y0266951D01*
X0184915Y0266951D01*
X0189519Y0265417D02*
X0191821Y0265417D01*
X0192588Y0266184D01*
X0192588Y0269253D01*
X0191821Y0270020D01*
X0189519Y0270020D01*
X0189519Y0265417D01*
X0194123Y0266184D02*
X0197192Y0269253D01*
X0197192Y0266184D01*
X0196425Y0265417D01*
X0194890Y0265417D01*
X0194123Y0266184D01*
X0194123Y0269253D01*
X0194890Y0270020D01*
X0196425Y0270020D01*
X0197192Y0269253D01*
X0196992Y0277959D02*
X0193923Y0277959D01*
X0196992Y0281028D01*
X0196992Y0281796D01*
X0196225Y0282563D01*
X0194690Y0282563D01*
X0193923Y0281796D01*
X0192388Y0281796D02*
X0191621Y0282563D01*
X0189319Y0282563D01*
X0189319Y0277959D01*
X0191621Y0277959D01*
X0192388Y0278726D01*
X0192388Y0281796D01*
X0190721Y0285702D02*
X0188419Y0285702D01*
X0188419Y0290305D01*
X0190721Y0290305D01*
X0191488Y0289538D01*
X0191488Y0286469D01*
X0190721Y0285702D01*
X0193023Y0288004D02*
X0196092Y0288004D01*
X0195325Y0290305D02*
X0195325Y0285702D01*
X0193023Y0288004D02*
X0195325Y0290305D01*
X0195825Y0295344D02*
X0194290Y0295344D01*
X0193523Y0296111D01*
X0193523Y0297646D01*
X0195825Y0297646D01*
X0196592Y0296879D01*
X0196592Y0296111D01*
X0195825Y0295344D01*
X0193523Y0297646D02*
X0195057Y0299181D01*
X0196592Y0299948D01*
X0196025Y0305071D02*
X0194490Y0305071D01*
X0193723Y0305838D01*
X0192188Y0305838D02*
X0192188Y0307373D01*
X0190654Y0307373D01*
X0192188Y0308907D02*
X0191421Y0309675D01*
X0189886Y0309675D01*
X0189119Y0308907D01*
X0189119Y0305838D01*
X0189886Y0305071D01*
X0191421Y0305071D01*
X0192188Y0305838D01*
X0194490Y0307373D02*
X0196792Y0307373D01*
X0196792Y0308907D02*
X0196025Y0309675D01*
X0194490Y0309675D01*
X0193723Y0308907D01*
X0193723Y0308140D01*
X0194490Y0307373D01*
X0196792Y0305838D02*
X0196792Y0308907D01*
X0196792Y0305838D02*
X0196025Y0305071D01*
X0191221Y0299948D02*
X0188919Y0299948D01*
X0188919Y0295344D01*
X0191221Y0295344D01*
X0191988Y0296111D01*
X0191988Y0299181D01*
X0191221Y0299948D01*
X0187384Y0299181D02*
X0187384Y0297646D01*
X0186617Y0296879D01*
X0184315Y0296879D01*
X0184315Y0295344D02*
X0184315Y0299948D01*
X0186617Y0299948D01*
X0187384Y0299181D01*
X0184515Y0305071D02*
X0184515Y0309675D01*
X0186817Y0309675D01*
X0187584Y0308907D01*
X0187584Y0307373D01*
X0186817Y0306605D01*
X0184515Y0306605D01*
X0186633Y0316013D02*
X0188168Y0316013D01*
X0188935Y0316781D01*
X0188935Y0318315D01*
X0187401Y0318315D01*
X0185866Y0319850D02*
X0185866Y0316781D01*
X0186633Y0316013D01*
X0184331Y0318315D02*
X0183564Y0317548D01*
X0181262Y0317548D01*
X0181262Y0316013D02*
X0181262Y0320617D01*
X0183564Y0320617D01*
X0184331Y0319850D01*
X0184331Y0318315D01*
X0185866Y0319850D02*
X0186633Y0320617D01*
X0188168Y0320617D01*
X0188935Y0319850D01*
X0190470Y0319083D02*
X0192005Y0320617D01*
X0192005Y0316013D01*
X0193539Y0316013D02*
X0190470Y0316013D01*
X0195074Y0316013D02*
X0198143Y0316013D01*
X0196609Y0316013D02*
X0196609Y0320617D01*
X0195074Y0319083D01*
X0195757Y0325456D02*
X0194990Y0326223D01*
X0195757Y0325456D02*
X0197292Y0325456D01*
X0198059Y0326223D01*
X0198059Y0326991D01*
X0197292Y0327758D01*
X0196524Y0327758D01*
X0197292Y0327758D02*
X0198059Y0328525D01*
X0198059Y0329293D01*
X0197292Y0330060D01*
X0195757Y0330060D01*
X0194990Y0329293D01*
X0191920Y0330060D02*
X0191920Y0325456D01*
X0190386Y0325456D02*
X0193455Y0325456D01*
X0190386Y0328525D02*
X0191920Y0330060D01*
X0188851Y0329293D02*
X0188084Y0330060D01*
X0186549Y0330060D01*
X0185782Y0329293D01*
X0185782Y0326223D01*
X0186549Y0325456D01*
X0188084Y0325456D01*
X0188851Y0326223D01*
X0188851Y0327758D01*
X0187317Y0327758D01*
X0184247Y0327758D02*
X0183480Y0326991D01*
X0181178Y0326991D01*
X0181178Y0325456D02*
X0181178Y0330060D01*
X0183480Y0330060D01*
X0184247Y0329293D01*
X0184247Y0327758D01*
X0186749Y0335598D02*
X0188284Y0335598D01*
X0189051Y0336366D01*
X0189051Y0337900D01*
X0187517Y0337900D01*
X0189051Y0339435D02*
X0188284Y0340202D01*
X0186749Y0340202D01*
X0185982Y0339435D01*
X0185982Y0336366D01*
X0186749Y0335598D01*
X0184447Y0337900D02*
X0183680Y0337133D01*
X0181378Y0337133D01*
X0181378Y0335598D02*
X0181378Y0340202D01*
X0183680Y0340202D01*
X0184447Y0339435D01*
X0184447Y0337900D01*
X0185015Y0345441D02*
X0185015Y0350045D01*
X0187317Y0350045D01*
X0188084Y0349278D01*
X0188084Y0347743D01*
X0187317Y0346976D01*
X0185015Y0346976D01*
X0189619Y0347743D02*
X0191921Y0347743D01*
X0192688Y0346976D01*
X0192688Y0346208D01*
X0191921Y0345441D01*
X0189619Y0345441D01*
X0189619Y0350045D01*
X0191921Y0350045D01*
X0192688Y0349278D01*
X0192688Y0348510D01*
X0191921Y0347743D01*
X0194223Y0347743D02*
X0197292Y0347743D01*
X0196525Y0345441D02*
X0196525Y0350045D01*
X0194223Y0347743D01*
X0194790Y0354983D02*
X0196325Y0354983D01*
X0197092Y0355751D01*
X0197092Y0356518D01*
X0196325Y0357285D01*
X0194023Y0357285D01*
X0194023Y0355751D01*
X0194790Y0354983D01*
X0192488Y0355751D02*
X0191721Y0354983D01*
X0189419Y0354983D01*
X0189419Y0359587D01*
X0191721Y0359587D01*
X0192488Y0358820D01*
X0192488Y0358053D01*
X0191721Y0357285D01*
X0189419Y0357285D01*
X0187884Y0357285D02*
X0187117Y0356518D01*
X0184815Y0356518D01*
X0184815Y0354983D02*
X0184815Y0359587D01*
X0187117Y0359587D01*
X0187884Y0358820D01*
X0187884Y0357285D01*
X0191721Y0357285D02*
X0192488Y0356518D01*
X0192488Y0355751D01*
X0194023Y0357285D02*
X0195557Y0358820D01*
X0197092Y0359587D01*
X0196652Y0365045D02*
X0195118Y0365045D01*
X0194350Y0365812D01*
X0197420Y0368881D01*
X0197420Y0365812D01*
X0196652Y0365045D01*
X0194350Y0365812D02*
X0194350Y0368881D01*
X0195118Y0369649D01*
X0196652Y0369649D01*
X0197420Y0368881D01*
X0192816Y0369649D02*
X0189746Y0369649D01*
X0191281Y0369649D02*
X0191281Y0365045D01*
X0188212Y0365812D02*
X0188212Y0368881D01*
X0187444Y0369649D01*
X0185910Y0369649D01*
X0185142Y0368881D01*
X0185142Y0365812D01*
X0185910Y0365045D01*
X0187444Y0365045D01*
X0188212Y0365812D01*
X0183608Y0365812D02*
X0183608Y0368881D01*
X0182841Y0369649D01*
X0181306Y0369649D01*
X0180539Y0368881D01*
X0180539Y0365812D01*
X0181306Y0365045D01*
X0182841Y0365045D01*
X0183608Y0365812D01*
X0179004Y0365812D02*
X0178237Y0365045D01*
X0175935Y0365045D01*
X0175935Y0369649D01*
X0178237Y0369649D01*
X0179004Y0368881D01*
X0179004Y0368114D01*
X0178237Y0367347D01*
X0175935Y0367347D01*
X0178237Y0367347D02*
X0179004Y0366580D01*
X0179004Y0365812D01*
X0185499Y0374669D02*
X0185499Y0379272D01*
X0187801Y0379272D01*
X0188568Y0378505D01*
X0188568Y0376970D01*
X0187801Y0376203D01*
X0185499Y0376203D01*
X0190103Y0376970D02*
X0192405Y0376970D01*
X0193172Y0376203D01*
X0193172Y0375436D01*
X0192405Y0374669D01*
X0190103Y0374669D01*
X0190103Y0379272D01*
X0192405Y0379272D01*
X0193172Y0378505D01*
X0193172Y0377738D01*
X0192405Y0376970D01*
X0194707Y0377738D02*
X0195474Y0376970D01*
X0197776Y0376970D01*
X0197776Y0375436D02*
X0197776Y0378505D01*
X0197009Y0379272D01*
X0195474Y0379272D01*
X0194707Y0378505D01*
X0194707Y0377738D01*
X0194707Y0375436D02*
X0195474Y0374669D01*
X0197009Y0374669D01*
X0197776Y0375436D01*
X0197864Y0385157D02*
X0194794Y0385157D01*
X0193260Y0385157D02*
X0190191Y0385157D01*
X0190191Y0389761D01*
X0193260Y0389761D01*
X0194794Y0388227D02*
X0196329Y0389761D01*
X0196329Y0385157D01*
X0191725Y0387459D02*
X0190191Y0387459D01*
X0188656Y0387459D02*
X0187889Y0386692D01*
X0185587Y0386692D01*
X0185587Y0385157D02*
X0185587Y0389761D01*
X0187889Y0389761D01*
X0188656Y0388994D01*
X0188656Y0387459D01*
X0170347Y0357187D02*
X0165743Y0357187D01*
X0165743Y0354117D02*
X0170347Y0354117D01*
X0168813Y0355652D01*
X0170347Y0357187D01*
X0168045Y0352583D02*
X0168813Y0351815D01*
X0168813Y0349513D01*
X0170347Y0349513D02*
X0165743Y0349513D01*
X0165743Y0351815D01*
X0166511Y0352583D01*
X0168045Y0352583D01*
X0168713Y0347391D02*
X0167945Y0346623D01*
X0167945Y0345089D01*
X0167178Y0344321D01*
X0166411Y0344321D01*
X0165643Y0345089D01*
X0165643Y0346623D01*
X0166411Y0347391D01*
X0168713Y0347391D02*
X0169480Y0347391D01*
X0170247Y0346623D01*
X0170247Y0345089D01*
X0169480Y0344321D01*
X0170247Y0342787D02*
X0170247Y0339717D01*
X0165643Y0339717D01*
X0165643Y0342787D01*
X0167945Y0341252D02*
X0167945Y0339717D01*
X0167945Y0338183D02*
X0168713Y0337415D01*
X0168713Y0335113D01*
X0170247Y0335113D02*
X0165643Y0335113D01*
X0165643Y0337415D01*
X0166411Y0338183D01*
X0167945Y0338183D01*
X0168713Y0336648D02*
X0170247Y0338183D01*
X0160647Y0337315D02*
X0159880Y0338083D01*
X0156811Y0338083D01*
X0156043Y0337315D01*
X0156043Y0335013D01*
X0160647Y0335013D01*
X0160647Y0337315D01*
X0160647Y0339617D02*
X0160647Y0342687D01*
X0160647Y0341152D02*
X0156043Y0341152D01*
X0157578Y0339617D01*
X0155943Y0349313D02*
X0155943Y0351615D01*
X0156711Y0352383D01*
X0159780Y0352383D01*
X0160547Y0351615D01*
X0160547Y0349313D01*
X0155943Y0349313D01*
X0156711Y0353917D02*
X0155943Y0354685D01*
X0155943Y0356219D01*
X0156711Y0356987D01*
X0159780Y0353917D01*
X0160547Y0354685D01*
X0160547Y0356219D01*
X0159780Y0356987D01*
X0156711Y0356987D01*
X0156711Y0353917D02*
X0159780Y0353917D01*
X0150447Y0353917D02*
X0147378Y0356987D01*
X0146611Y0356987D01*
X0145843Y0356219D01*
X0145843Y0354685D01*
X0146611Y0353917D01*
X0146611Y0352383D02*
X0145843Y0351615D01*
X0145843Y0349313D01*
X0150447Y0349313D01*
X0150447Y0351615D01*
X0149680Y0352383D01*
X0146611Y0352383D01*
X0150447Y0353917D02*
X0150447Y0356987D01*
X0149780Y0342687D02*
X0149013Y0342687D01*
X0148245Y0341919D01*
X0148245Y0341152D01*
X0148245Y0341919D02*
X0147478Y0342687D01*
X0146711Y0342687D01*
X0145943Y0341919D01*
X0145943Y0340385D01*
X0146711Y0339617D01*
X0146711Y0338083D02*
X0145943Y0337315D01*
X0145943Y0335013D01*
X0150547Y0335013D01*
X0150547Y0337315D01*
X0149780Y0338083D01*
X0146711Y0338083D01*
X0149780Y0339617D02*
X0150547Y0340385D01*
X0150547Y0341919D01*
X0149780Y0342687D01*
X0140447Y0342019D02*
X0140447Y0340485D01*
X0139680Y0339717D01*
X0139680Y0338183D02*
X0136611Y0338183D01*
X0135843Y0337415D01*
X0135843Y0335113D01*
X0140447Y0335113D01*
X0140447Y0337415D01*
X0139680Y0338183D01*
X0138145Y0339717D02*
X0137378Y0341252D01*
X0137378Y0342019D01*
X0138145Y0342787D01*
X0139680Y0342787D01*
X0140447Y0342019D01*
X0138145Y0339717D02*
X0135843Y0339717D01*
X0135843Y0342787D01*
X0135943Y0349513D02*
X0135943Y0351815D01*
X0136711Y0352583D01*
X0139780Y0352583D01*
X0140547Y0351815D01*
X0140547Y0349513D01*
X0135943Y0349513D01*
X0138245Y0354117D02*
X0135943Y0356419D01*
X0140547Y0356419D01*
X0138245Y0357187D02*
X0138245Y0354117D01*
X0130447Y0354685D02*
X0130447Y0356219D01*
X0129680Y0356987D01*
X0128913Y0356987D01*
X0128145Y0356219D01*
X0128145Y0353917D01*
X0129680Y0353917D01*
X0130447Y0354685D01*
X0128145Y0353917D02*
X0126611Y0355452D01*
X0125843Y0356987D01*
X0126611Y0352383D02*
X0125843Y0351615D01*
X0125843Y0349313D01*
X0130447Y0349313D01*
X0130447Y0351615D01*
X0129680Y0352383D01*
X0126611Y0352383D01*
X0120647Y0351415D02*
X0120647Y0349113D01*
X0116043Y0349113D01*
X0116043Y0351415D01*
X0116811Y0352183D01*
X0119880Y0352183D01*
X0120647Y0351415D01*
X0119880Y0353717D02*
X0119113Y0353717D01*
X0118345Y0354485D01*
X0118345Y0356019D01*
X0119113Y0356787D01*
X0119880Y0356787D01*
X0120647Y0356019D01*
X0120647Y0354485D01*
X0119880Y0353717D01*
X0118345Y0354485D02*
X0117578Y0353717D01*
X0116811Y0353717D01*
X0116043Y0354485D01*
X0116043Y0356019D01*
X0116811Y0356787D01*
X0117578Y0356787D01*
X0118345Y0356019D01*
X0118445Y0342487D02*
X0118445Y0340185D01*
X0117678Y0339417D01*
X0116911Y0339417D01*
X0116143Y0340185D01*
X0116143Y0341719D01*
X0116911Y0342487D01*
X0119980Y0342487D01*
X0120747Y0341719D01*
X0120747Y0340185D01*
X0119980Y0339417D01*
X0119980Y0337883D02*
X0116911Y0337883D01*
X0116143Y0337115D01*
X0116143Y0334813D01*
X0120747Y0334813D01*
X0120747Y0337115D01*
X0119980Y0337883D01*
X0125743Y0337215D02*
X0125743Y0334913D01*
X0130347Y0334913D01*
X0130347Y0337215D01*
X0129580Y0337983D01*
X0126511Y0337983D01*
X0125743Y0337215D01*
X0125743Y0339517D02*
X0125743Y0342587D01*
X0126511Y0342587D01*
X0129580Y0339517D01*
X0130347Y0339517D01*
X0110647Y0340185D02*
X0110647Y0341719D01*
X0109880Y0342487D01*
X0110647Y0340185D02*
X0109880Y0339417D01*
X0106811Y0339417D01*
X0106043Y0340185D01*
X0106043Y0341719D01*
X0106811Y0342487D01*
X0106811Y0337883D02*
X0108345Y0337883D01*
X0109113Y0337115D01*
X0109113Y0334813D01*
X0110647Y0334813D02*
X0106043Y0334813D01*
X0106043Y0337115D01*
X0106811Y0337883D01*
X0105943Y0349113D02*
X0110547Y0352183D01*
X0109780Y0353717D02*
X0106711Y0353717D01*
X0105943Y0354485D01*
X0105943Y0356019D01*
X0106711Y0356787D01*
X0109780Y0356787D02*
X0110547Y0356019D01*
X0110547Y0354485D01*
X0109780Y0353717D01*
X0105943Y0352183D02*
X0110547Y0349113D01*
X0100647Y0349313D02*
X0096043Y0349313D01*
X0098345Y0349313D02*
X0098345Y0352383D01*
X0099113Y0353917D02*
X0099113Y0356219D01*
X0098345Y0356987D01*
X0096811Y0356987D01*
X0096043Y0356219D01*
X0096043Y0353917D01*
X0100647Y0353917D01*
X0100647Y0352383D02*
X0096043Y0352383D01*
X0099113Y0355452D02*
X0100647Y0356987D01*
X0099780Y0342587D02*
X0100547Y0341819D01*
X0100547Y0340285D01*
X0099780Y0339517D01*
X0099013Y0337983D02*
X0095943Y0337983D01*
X0096711Y0339517D02*
X0095943Y0340285D01*
X0095943Y0341819D01*
X0096711Y0342587D01*
X0098245Y0341819D02*
X0099013Y0342587D01*
X0099780Y0342587D01*
X0098245Y0341819D02*
X0098245Y0340285D01*
X0097478Y0339517D01*
X0096711Y0339517D01*
X0099013Y0337983D02*
X0100547Y0336448D01*
X0099013Y0334913D01*
X0095943Y0334913D01*
X0090947Y0335581D02*
X0090180Y0334813D01*
X0090947Y0335581D02*
X0090947Y0337115D01*
X0090180Y0337883D01*
X0089413Y0337883D01*
X0088645Y0337115D01*
X0088645Y0335581D01*
X0087878Y0334813D01*
X0087111Y0334813D01*
X0086343Y0335581D01*
X0086343Y0337115D01*
X0087111Y0337883D01*
X0087111Y0339417D02*
X0090180Y0339417D01*
X0090947Y0340185D01*
X0090947Y0341719D01*
X0090180Y0342487D01*
X0090947Y0344021D02*
X0090947Y0347091D01*
X0090080Y0349113D02*
X0090847Y0349881D01*
X0090847Y0351415D01*
X0090080Y0352183D01*
X0089313Y0352183D01*
X0088545Y0351415D01*
X0088545Y0349881D01*
X0087778Y0349113D01*
X0087011Y0349113D01*
X0086243Y0349881D01*
X0086243Y0351415D01*
X0087011Y0352183D01*
X0086243Y0353717D02*
X0086243Y0356019D01*
X0087011Y0356787D01*
X0090080Y0356787D01*
X0090847Y0356019D01*
X0090847Y0353717D01*
X0086243Y0353717D01*
X0087778Y0358321D02*
X0086243Y0359856D01*
X0087778Y0361391D01*
X0090847Y0361391D01*
X0088545Y0361391D02*
X0088545Y0358321D01*
X0087778Y0358321D02*
X0090847Y0358321D01*
X0080747Y0358321D02*
X0080747Y0360623D01*
X0079980Y0361391D01*
X0076911Y0361391D01*
X0076143Y0360623D01*
X0076143Y0358321D01*
X0080747Y0358321D01*
X0080747Y0356787D02*
X0076143Y0356787D01*
X0076143Y0353717D02*
X0080747Y0356787D01*
X0080747Y0353717D02*
X0076143Y0353717D01*
X0076911Y0352183D02*
X0076143Y0351415D01*
X0076143Y0349881D01*
X0076911Y0349113D01*
X0079980Y0349113D01*
X0080747Y0349881D01*
X0080747Y0351415D01*
X0079980Y0352183D01*
X0078445Y0352183D01*
X0078445Y0350648D01*
X0077778Y0347091D02*
X0077011Y0347091D01*
X0076243Y0346323D01*
X0076243Y0344789D01*
X0077011Y0344021D01*
X0076243Y0342487D02*
X0079313Y0342487D01*
X0080847Y0340952D01*
X0079313Y0339417D01*
X0076243Y0339417D01*
X0077011Y0337883D02*
X0077778Y0337883D01*
X0078545Y0337115D01*
X0079313Y0337883D01*
X0080080Y0337883D01*
X0080847Y0337115D01*
X0080847Y0335581D01*
X0080080Y0334813D01*
X0078545Y0336348D02*
X0078545Y0337115D01*
X0077011Y0337883D02*
X0076243Y0337115D01*
X0076243Y0335581D01*
X0077011Y0334813D01*
X0080080Y0344021D02*
X0080847Y0344789D01*
X0080847Y0346323D01*
X0080080Y0347091D01*
X0079313Y0347091D01*
X0078545Y0346323D01*
X0078545Y0345556D01*
X0078545Y0346323D02*
X0077778Y0347091D01*
X0086343Y0344021D02*
X0090947Y0344021D01*
X0087111Y0342487D02*
X0086343Y0341719D01*
X0086343Y0340185D01*
X0087111Y0339417D01*
X0062849Y0356368D02*
X0062849Y0360972D01*
X0060547Y0358670D01*
X0063616Y0358670D01*
X0059013Y0356368D02*
X0055943Y0356368D01*
X0057478Y0356368D02*
X0057478Y0360972D01*
X0055943Y0359437D01*
X0054409Y0360204D02*
X0053641Y0360972D01*
X0052107Y0360972D01*
X0051339Y0360204D01*
X0051339Y0357135D01*
X0052107Y0356368D01*
X0053641Y0356368D01*
X0054409Y0357135D01*
X0054409Y0350145D02*
X0051339Y0350145D01*
X0051339Y0345541D01*
X0051339Y0347843D02*
X0052874Y0347843D01*
X0049805Y0347843D02*
X0049037Y0347076D01*
X0046735Y0347076D01*
X0046735Y0345541D02*
X0046735Y0350145D01*
X0049037Y0350145D01*
X0049805Y0349378D01*
X0049805Y0347843D01*
X0049037Y0340302D02*
X0046735Y0340302D01*
X0046735Y0335698D01*
X0046735Y0337233D02*
X0049037Y0337233D01*
X0049805Y0338000D01*
X0049805Y0339535D01*
X0049037Y0340302D01*
X0051339Y0340302D02*
X0051339Y0335698D01*
X0051339Y0338000D02*
X0052874Y0338000D01*
X0051339Y0340302D02*
X0054409Y0340302D01*
X0055943Y0339535D02*
X0056711Y0340302D01*
X0058245Y0340302D01*
X0059013Y0339535D01*
X0059013Y0338768D01*
X0055943Y0335698D01*
X0059013Y0335698D01*
X0058245Y0330460D02*
X0055943Y0328158D01*
X0059013Y0328158D01*
X0058245Y0325856D02*
X0058245Y0330460D01*
X0054409Y0330460D02*
X0051339Y0330460D01*
X0051339Y0325856D01*
X0051339Y0328158D02*
X0052874Y0328158D01*
X0049805Y0328158D02*
X0049037Y0327391D01*
X0046735Y0327391D01*
X0046735Y0325856D02*
X0046735Y0330460D01*
X0049037Y0330460D01*
X0049805Y0329693D01*
X0049805Y0328158D01*
X0049037Y0320617D02*
X0046735Y0320617D01*
X0046735Y0316013D01*
X0046735Y0317548D02*
X0049037Y0317548D01*
X0049805Y0318315D01*
X0049805Y0319850D01*
X0049037Y0320617D01*
X0051339Y0320617D02*
X0051339Y0316013D01*
X0051339Y0318315D02*
X0052874Y0318315D01*
X0051339Y0320617D02*
X0054409Y0320617D01*
X0055943Y0318315D02*
X0055943Y0316781D01*
X0056711Y0316013D01*
X0058245Y0316013D01*
X0059013Y0316781D01*
X0059013Y0317548D01*
X0058245Y0318315D01*
X0055943Y0318315D01*
X0057478Y0319850D01*
X0059013Y0320617D01*
X0058245Y0310775D02*
X0056711Y0310775D01*
X0055943Y0310007D01*
X0055943Y0309240D01*
X0056711Y0308473D01*
X0058245Y0308473D01*
X0059013Y0307705D01*
X0059013Y0306938D01*
X0058245Y0306171D01*
X0056711Y0306171D01*
X0055943Y0306938D01*
X0055943Y0307705D01*
X0056711Y0308473D01*
X0058245Y0308473D02*
X0059013Y0309240D01*
X0059013Y0310007D01*
X0058245Y0310775D01*
X0054409Y0310775D02*
X0051339Y0310775D01*
X0051339Y0306171D01*
X0051339Y0308473D02*
X0052874Y0308473D01*
X0049805Y0308473D02*
X0049805Y0310007D01*
X0049037Y0310775D01*
X0046735Y0310775D01*
X0046735Y0306171D01*
X0046735Y0307705D02*
X0049037Y0307705D01*
X0049805Y0308473D01*
X0049037Y0299948D02*
X0046735Y0299948D01*
X0046735Y0295344D01*
X0046735Y0296879D02*
X0049037Y0296879D01*
X0049805Y0297646D01*
X0049805Y0299181D01*
X0049037Y0299948D01*
X0051339Y0299948D02*
X0051339Y0295344D01*
X0051339Y0297646D02*
X0052874Y0297646D01*
X0051339Y0299948D02*
X0054409Y0299948D01*
X0055943Y0298413D02*
X0057478Y0299948D01*
X0057478Y0295344D01*
X0055943Y0295344D02*
X0059013Y0295344D01*
X0060547Y0296111D02*
X0060547Y0299181D01*
X0061315Y0299948D01*
X0062849Y0299948D01*
X0063616Y0299181D01*
X0060547Y0296111D01*
X0061315Y0295344D01*
X0062849Y0295344D01*
X0063616Y0296111D01*
X0063616Y0299181D01*
X0057478Y0290105D02*
X0055943Y0288571D01*
X0054409Y0287804D02*
X0051339Y0287804D01*
X0049805Y0287804D02*
X0049037Y0287036D01*
X0046735Y0287036D01*
X0046735Y0285502D02*
X0046735Y0290105D01*
X0049037Y0290105D01*
X0049805Y0289338D01*
X0049805Y0287804D01*
X0051339Y0290105D02*
X0051339Y0285502D01*
X0054409Y0285502D02*
X0054409Y0290105D01*
X0057478Y0290105D02*
X0057478Y0285502D01*
X0055943Y0285502D02*
X0059013Y0285502D01*
X0057945Y0281131D02*
X0056411Y0281131D01*
X0055643Y0280364D01*
X0055643Y0277295D01*
X0058713Y0280364D01*
X0058713Y0277295D01*
X0057945Y0276528D01*
X0056411Y0276528D01*
X0055643Y0277295D01*
X0054109Y0277295D02*
X0053341Y0276528D01*
X0051807Y0276528D01*
X0051039Y0277295D01*
X0051039Y0280364D01*
X0051807Y0281131D01*
X0053341Y0281131D01*
X0054109Y0280364D01*
X0057945Y0281131D02*
X0058713Y0280364D01*
X0057902Y0270424D02*
X0056367Y0270424D01*
X0055600Y0269656D01*
X0054065Y0269656D02*
X0053298Y0270424D01*
X0051763Y0270424D01*
X0050996Y0269656D01*
X0050996Y0266587D01*
X0051763Y0265820D01*
X0053298Y0265820D01*
X0054065Y0266587D01*
X0055600Y0265820D02*
X0058669Y0268889D01*
X0058669Y0269656D01*
X0057902Y0270424D01*
X0058669Y0265820D02*
X0055600Y0265820D01*
X0056625Y0260224D02*
X0058159Y0260224D01*
X0058927Y0259456D01*
X0055857Y0256387D01*
X0056625Y0255620D01*
X0058159Y0255620D01*
X0058927Y0256387D01*
X0058927Y0259456D01*
X0056625Y0260224D02*
X0055857Y0259456D01*
X0055857Y0256387D01*
X0054323Y0255620D02*
X0054323Y0258689D01*
X0052788Y0260224D01*
X0051254Y0258689D01*
X0051254Y0255620D01*
X0051254Y0257922D02*
X0054323Y0257922D01*
X0056182Y0250724D02*
X0055415Y0249956D01*
X0056182Y0250724D02*
X0057717Y0250724D01*
X0058484Y0249956D01*
X0058484Y0249189D01*
X0055415Y0246120D01*
X0058484Y0246120D01*
X0058245Y0239909D02*
X0055943Y0237607D01*
X0059013Y0237607D01*
X0058245Y0235305D02*
X0058245Y0239909D01*
X0054409Y0238374D02*
X0054409Y0235305D01*
X0054409Y0237607D02*
X0051339Y0237607D01*
X0051339Y0238374D02*
X0052874Y0239909D01*
X0054409Y0238374D01*
X0051339Y0238374D02*
X0051339Y0235305D01*
X0049037Y0236839D02*
X0046735Y0236839D01*
X0046735Y0235305D02*
X0046735Y0239909D01*
X0049037Y0239909D01*
X0049805Y0239141D01*
X0049805Y0237607D01*
X0049037Y0236839D01*
X0048437Y0230066D02*
X0046135Y0230066D01*
X0046135Y0225462D01*
X0046135Y0226997D02*
X0048437Y0226997D01*
X0049205Y0227764D01*
X0049205Y0229299D01*
X0048437Y0230066D01*
X0050739Y0228531D02*
X0050739Y0225462D01*
X0050739Y0227764D02*
X0053809Y0227764D01*
X0053809Y0228531D02*
X0053809Y0225462D01*
X0055343Y0226230D02*
X0056111Y0225462D01*
X0057645Y0225462D01*
X0058413Y0226230D01*
X0058413Y0226997D01*
X0057645Y0227764D01*
X0055343Y0227764D01*
X0055343Y0226230D01*
X0055343Y0227764D02*
X0056878Y0229299D01*
X0058413Y0230066D01*
X0053809Y0228531D02*
X0052274Y0230066D01*
X0050739Y0228531D01*
X0051707Y0220224D02*
X0050939Y0219456D01*
X0050939Y0216387D01*
X0051707Y0215620D01*
X0053241Y0215620D01*
X0054009Y0216387D01*
X0055543Y0217922D02*
X0058613Y0217922D01*
X0057845Y0215620D02*
X0057845Y0220224D01*
X0055543Y0217922D01*
X0054009Y0219456D02*
X0053241Y0220224D01*
X0051707Y0220224D01*
X0049405Y0219456D02*
X0049405Y0217922D01*
X0048637Y0217154D01*
X0046335Y0217154D01*
X0046335Y0215620D02*
X0046335Y0220224D01*
X0048637Y0220224D01*
X0049405Y0219456D01*
X0048437Y0210381D02*
X0046135Y0210381D01*
X0046135Y0205777D01*
X0046135Y0207312D02*
X0048437Y0207312D01*
X0049205Y0208079D01*
X0049205Y0209614D01*
X0048437Y0210381D01*
X0050739Y0210381D02*
X0050739Y0205777D01*
X0053041Y0205777D01*
X0053809Y0206544D01*
X0053809Y0207312D01*
X0053041Y0208079D01*
X0050739Y0208079D01*
X0050739Y0210381D02*
X0053041Y0210381D01*
X0053809Y0209614D01*
X0053809Y0208846D01*
X0053041Y0208079D01*
X0055343Y0206544D02*
X0055343Y0209614D01*
X0056111Y0210381D01*
X0057645Y0210381D01*
X0058413Y0209614D01*
X0055343Y0206544D01*
X0056111Y0205777D01*
X0057645Y0205777D01*
X0058413Y0206544D01*
X0058413Y0209614D01*
X0057245Y0199639D02*
X0055711Y0199639D01*
X0054943Y0198871D01*
X0053409Y0198871D02*
X0053409Y0198104D01*
X0052641Y0197337D01*
X0050339Y0197337D01*
X0048805Y0197337D02*
X0048037Y0196569D01*
X0045735Y0196569D01*
X0045735Y0195035D02*
X0045735Y0199639D01*
X0048037Y0199639D01*
X0048805Y0198871D01*
X0048805Y0197337D01*
X0050339Y0195035D02*
X0050339Y0199639D01*
X0052641Y0199639D01*
X0053409Y0198871D01*
X0052641Y0197337D02*
X0053409Y0196569D01*
X0053409Y0195802D01*
X0052641Y0195035D01*
X0050339Y0195035D01*
X0054943Y0195035D02*
X0058013Y0198104D01*
X0058013Y0198871D01*
X0057245Y0199639D01*
X0058013Y0195035D02*
X0054943Y0195035D01*
X0053509Y0189712D02*
X0050439Y0189712D01*
X0050439Y0185108D01*
X0050439Y0187410D02*
X0051974Y0187410D01*
X0048905Y0187410D02*
X0048137Y0186643D01*
X0045835Y0186643D01*
X0045835Y0185108D02*
X0045835Y0189712D01*
X0048137Y0189712D01*
X0048905Y0188944D01*
X0048905Y0187410D01*
X0055043Y0188177D02*
X0056578Y0189712D01*
X0056578Y0185108D01*
X0055043Y0185108D02*
X0058113Y0185108D01*
X0059647Y0185108D02*
X0062716Y0188177D01*
X0062716Y0188944D01*
X0061949Y0189712D01*
X0060415Y0189712D01*
X0059647Y0188944D01*
X0059647Y0185108D02*
X0062716Y0185108D01*
X0061549Y0179869D02*
X0059247Y0177567D01*
X0062316Y0177567D01*
X0061549Y0175265D02*
X0061549Y0179869D01*
X0056178Y0179869D02*
X0056178Y0175265D01*
X0054643Y0175265D02*
X0057713Y0175265D01*
X0054643Y0178335D02*
X0056178Y0179869D01*
X0053109Y0179869D02*
X0050039Y0179869D01*
X0050039Y0175265D01*
X0050039Y0177567D02*
X0051574Y0177567D01*
X0048505Y0177567D02*
X0048505Y0179102D01*
X0047737Y0179869D01*
X0045435Y0179869D01*
X0045435Y0175265D01*
X0045435Y0176800D02*
X0047737Y0176800D01*
X0048505Y0177567D01*
X0047137Y0170027D02*
X0044835Y0170027D01*
X0044835Y0165423D01*
X0044835Y0166957D02*
X0047137Y0166957D01*
X0047905Y0167725D01*
X0047905Y0169259D01*
X0047137Y0170027D01*
X0049439Y0169259D02*
X0049439Y0166190D01*
X0050207Y0165423D01*
X0051741Y0165423D01*
X0052509Y0166190D01*
X0052509Y0167725D01*
X0050974Y0167725D01*
X0052509Y0169259D02*
X0051741Y0170027D01*
X0050207Y0170027D01*
X0049439Y0169259D01*
X0054043Y0169259D02*
X0054043Y0166190D01*
X0057113Y0169259D01*
X0057113Y0166190D01*
X0056345Y0165423D01*
X0054811Y0165423D01*
X0054043Y0166190D01*
X0054043Y0169259D02*
X0054811Y0170027D01*
X0056345Y0170027D01*
X0057113Y0169259D01*
X0057513Y0159984D02*
X0054443Y0159984D01*
X0052909Y0159984D02*
X0049839Y0159984D01*
X0049839Y0155380D01*
X0052909Y0155380D01*
X0054443Y0155380D02*
X0054443Y0156148D01*
X0057513Y0159217D01*
X0057513Y0159984D01*
X0051374Y0157682D02*
X0049839Y0157682D01*
X0048305Y0157682D02*
X0047537Y0156915D01*
X0045235Y0156915D01*
X0045235Y0155380D02*
X0045235Y0159984D01*
X0047537Y0159984D01*
X0048305Y0159217D01*
X0048305Y0157682D01*
X0049239Y0149942D02*
X0049239Y0145338D01*
X0052309Y0145338D01*
X0053843Y0146105D02*
X0054611Y0145338D01*
X0056145Y0145338D01*
X0056913Y0146105D01*
X0056913Y0149174D01*
X0056145Y0149942D01*
X0054611Y0149942D01*
X0053843Y0149174D01*
X0053843Y0148407D01*
X0054611Y0147640D01*
X0056913Y0147640D01*
X0052309Y0149942D02*
X0049239Y0149942D01*
X0047705Y0149174D02*
X0047705Y0147640D01*
X0046937Y0146872D01*
X0044635Y0146872D01*
X0044635Y0145338D02*
X0044635Y0149942D01*
X0046937Y0149942D01*
X0047705Y0149174D01*
X0049239Y0147640D02*
X0050774Y0147640D01*
X0049339Y0140162D02*
X0049339Y0135558D01*
X0052409Y0135558D01*
X0053943Y0135558D02*
X0057013Y0135558D01*
X0058547Y0135558D02*
X0061616Y0135558D01*
X0060082Y0135558D02*
X0060082Y0140162D01*
X0058547Y0138628D01*
X0055478Y0140162D02*
X0055478Y0135558D01*
X0053943Y0138628D02*
X0055478Y0140162D01*
X0052409Y0140162D02*
X0049339Y0140162D01*
X0047805Y0139395D02*
X0047805Y0137860D01*
X0047037Y0137093D01*
X0044735Y0137093D01*
X0044735Y0135558D02*
X0044735Y0140162D01*
X0047037Y0140162D01*
X0047805Y0139395D01*
X0049339Y0137860D02*
X0050874Y0137860D01*
X0051709Y0129872D02*
X0048639Y0129872D01*
X0048639Y0125269D01*
X0051709Y0125269D01*
X0053243Y0125269D02*
X0056313Y0125269D01*
X0054778Y0125269D02*
X0054778Y0129872D01*
X0053243Y0128338D01*
X0050174Y0127570D02*
X0048639Y0127570D01*
X0047105Y0127570D02*
X0046337Y0126803D01*
X0044035Y0126803D01*
X0044035Y0125269D02*
X0044035Y0129872D01*
X0046337Y0129872D01*
X0047105Y0129105D01*
X0047105Y0127570D01*
X0048139Y0121030D02*
X0048139Y0116426D01*
X0051209Y0116426D01*
X0052743Y0116426D02*
X0055813Y0116426D01*
X0054278Y0116426D02*
X0054278Y0121030D01*
X0052743Y0119495D01*
X0051209Y0121030D02*
X0048139Y0121030D01*
X0046605Y0120263D02*
X0046605Y0118728D01*
X0045837Y0117961D01*
X0043535Y0117961D01*
X0043535Y0116426D02*
X0043535Y0121030D01*
X0045837Y0121030D01*
X0046605Y0120263D01*
X0048139Y0118728D02*
X0049674Y0118728D01*
X0050441Y0110172D02*
X0048139Y0110172D01*
X0048139Y0105568D01*
X0050441Y0105568D01*
X0051209Y0106335D01*
X0051209Y0107102D01*
X0050441Y0107870D01*
X0048139Y0107870D01*
X0046605Y0107870D02*
X0045837Y0107102D01*
X0043535Y0107102D01*
X0043535Y0105568D02*
X0043535Y0110172D01*
X0045837Y0110172D01*
X0046605Y0109404D01*
X0046605Y0107870D01*
X0050441Y0107870D02*
X0051209Y0108637D01*
X0051209Y0109404D01*
X0050441Y0110172D01*
X0052743Y0108637D02*
X0054278Y0110172D01*
X0054278Y0105568D01*
X0052743Y0105568D02*
X0055813Y0105568D01*
X0057347Y0105568D02*
X0060416Y0105568D01*
X0058882Y0105568D02*
X0058882Y0110172D01*
X0057347Y0108637D01*
X0058115Y0116426D02*
X0057347Y0117193D01*
X0058115Y0116426D02*
X0059649Y0116426D01*
X0060416Y0117193D01*
X0060416Y0118728D01*
X0059649Y0119495D01*
X0058882Y0119495D01*
X0057347Y0118728D01*
X0057347Y0121030D01*
X0060416Y0121030D01*
X0060149Y0125269D02*
X0058615Y0125269D01*
X0057847Y0126036D01*
X0059382Y0127570D02*
X0060149Y0127570D01*
X0060916Y0126803D01*
X0060916Y0126036D01*
X0060149Y0125269D01*
X0060149Y0127570D02*
X0060916Y0128338D01*
X0060916Y0129105D01*
X0060149Y0129872D01*
X0058615Y0129872D01*
X0057847Y0129105D01*
X0055345Y0099645D02*
X0053043Y0099645D01*
X0053043Y0095041D01*
X0055345Y0095041D01*
X0056113Y0095808D01*
X0056113Y0098878D01*
X0055345Y0099645D01*
X0051509Y0099645D02*
X0051509Y0095041D01*
X0048439Y0099645D01*
X0048439Y0095041D01*
X0046905Y0095808D02*
X0046905Y0097343D01*
X0045370Y0097343D01*
X0043835Y0098878D02*
X0043835Y0095808D01*
X0044603Y0095041D01*
X0046137Y0095041D01*
X0046905Y0095808D01*
X0046905Y0098878D02*
X0046137Y0099645D01*
X0044603Y0099645D01*
X0043835Y0098878D01*
X0024315Y0117328D02*
X0021246Y0117328D01*
X0023548Y0119630D01*
X0023548Y0115026D01*
X0019711Y0115026D02*
X0016642Y0115026D01*
X0018176Y0115026D02*
X0018176Y0119630D01*
X0016642Y0118095D01*
X0015107Y0119630D02*
X0012038Y0119630D01*
X0012038Y0115026D01*
X0015107Y0115026D01*
X0013572Y0117328D02*
X0012038Y0117328D01*
X0010503Y0117328D02*
X0009736Y0116561D01*
X0007434Y0116561D01*
X0007434Y0115026D02*
X0007434Y0119630D01*
X0009736Y0119630D01*
X0010503Y0118863D01*
X0010503Y0117328D01*
X0009436Y0109987D02*
X0007134Y0109987D01*
X0007134Y0105383D01*
X0007134Y0106918D02*
X0009436Y0106918D01*
X0010203Y0107685D01*
X0010203Y0109220D01*
X0009436Y0109987D01*
X0011738Y0109987D02*
X0011738Y0105383D01*
X0014040Y0105383D01*
X0014807Y0106151D01*
X0014807Y0106918D01*
X0014040Y0107685D01*
X0011738Y0107685D01*
X0014040Y0107685D02*
X0014807Y0108453D01*
X0014807Y0109220D01*
X0014040Y0109987D01*
X0011738Y0109987D01*
X0016342Y0108453D02*
X0017876Y0109987D01*
X0017876Y0105383D01*
X0016342Y0105383D02*
X0019411Y0105383D01*
X0020946Y0106151D02*
X0024015Y0109220D01*
X0024015Y0106151D01*
X0023248Y0105383D01*
X0021713Y0105383D01*
X0020946Y0106151D01*
X0020946Y0109220D01*
X0021713Y0109987D01*
X0023248Y0109987D01*
X0024015Y0109220D01*
X0020228Y0100045D02*
X0017926Y0100045D01*
X0017926Y0095441D01*
X0020228Y0095441D01*
X0020995Y0096208D01*
X0020995Y0099278D01*
X0020228Y0100045D01*
X0016391Y0100045D02*
X0016391Y0095441D01*
X0013322Y0100045D01*
X0013322Y0095441D01*
X0011787Y0096208D02*
X0011787Y0097743D01*
X0010253Y0097743D01*
X0011787Y0099278D02*
X0011020Y0100045D01*
X0009485Y0100045D01*
X0008718Y0099278D01*
X0008718Y0096208D01*
X0009485Y0095441D01*
X0011020Y0095441D01*
X0011787Y0096208D01*
X0011938Y0124969D02*
X0015007Y0124969D01*
X0016542Y0124969D02*
X0019611Y0124969D01*
X0021146Y0124969D02*
X0024215Y0128038D01*
X0024215Y0128805D01*
X0023448Y0129572D01*
X0021913Y0129572D01*
X0021146Y0128805D01*
X0018076Y0129572D02*
X0018076Y0124969D01*
X0021146Y0124969D02*
X0024215Y0124969D01*
X0023448Y0134911D02*
X0021913Y0134911D01*
X0021146Y0135678D01*
X0024215Y0138748D01*
X0024215Y0135678D01*
X0023448Y0134911D01*
X0021146Y0135678D02*
X0021146Y0138748D01*
X0021913Y0139515D01*
X0023448Y0139515D01*
X0024215Y0138748D01*
X0019611Y0134911D02*
X0016542Y0134911D01*
X0018076Y0134911D02*
X0018076Y0139515D01*
X0016542Y0137980D01*
X0015007Y0139515D02*
X0011938Y0139515D01*
X0011938Y0134911D01*
X0015007Y0134911D01*
X0013472Y0137213D02*
X0011938Y0137213D01*
X0010403Y0137213D02*
X0009636Y0136446D01*
X0007334Y0136446D01*
X0007334Y0134911D02*
X0007334Y0139515D01*
X0009636Y0139515D01*
X0010403Y0138748D01*
X0010403Y0137213D01*
X0010802Y0144838D02*
X0010802Y0149442D01*
X0013104Y0149442D01*
X0013872Y0148674D01*
X0013872Y0147140D01*
X0013104Y0146372D01*
X0010802Y0146372D01*
X0015406Y0147140D02*
X0016941Y0147140D01*
X0018476Y0149442D02*
X0015406Y0149442D01*
X0015406Y0144838D01*
X0018476Y0144838D01*
X0020010Y0145605D02*
X0020010Y0146372D01*
X0020778Y0147140D01*
X0022312Y0147140D01*
X0023079Y0146372D01*
X0023079Y0145605D01*
X0022312Y0144838D01*
X0020778Y0144838D01*
X0020010Y0145605D01*
X0020778Y0147140D02*
X0020010Y0147907D01*
X0020010Y0148674D01*
X0020778Y0149442D01*
X0022312Y0149442D01*
X0023079Y0148674D01*
X0023079Y0147907D01*
X0022312Y0147140D01*
X0022479Y0154780D02*
X0019410Y0154780D01*
X0020945Y0154780D02*
X0020945Y0159384D01*
X0019410Y0157850D01*
X0017876Y0158617D02*
X0017108Y0159384D01*
X0015574Y0159384D01*
X0014806Y0158617D01*
X0014806Y0155548D01*
X0015574Y0154780D01*
X0017108Y0154780D01*
X0017876Y0155548D01*
X0017876Y0157082D01*
X0016341Y0157082D01*
X0013272Y0157082D02*
X0012504Y0156315D01*
X0010202Y0156315D01*
X0010202Y0154780D02*
X0010202Y0159384D01*
X0012504Y0159384D01*
X0013272Y0158617D01*
X0013272Y0157082D01*
X0011938Y0165423D02*
X0011938Y0170027D01*
X0015007Y0170027D01*
X0016542Y0168492D02*
X0018076Y0170027D01*
X0018076Y0165423D01*
X0016542Y0165423D02*
X0019611Y0165423D01*
X0021146Y0166190D02*
X0021913Y0165423D01*
X0023448Y0165423D01*
X0024215Y0166190D01*
X0024215Y0167725D01*
X0023448Y0168492D01*
X0022680Y0168492D01*
X0021146Y0167725D01*
X0021146Y0170027D01*
X0024215Y0170027D01*
X0023748Y0174765D02*
X0022213Y0174765D01*
X0021446Y0175533D01*
X0019911Y0174765D02*
X0016842Y0174765D01*
X0018376Y0174765D02*
X0018376Y0179369D01*
X0016842Y0177835D01*
X0015307Y0179369D02*
X0012238Y0179369D01*
X0012238Y0174765D01*
X0012238Y0177067D02*
X0013772Y0177067D01*
X0010703Y0177067D02*
X0009936Y0176300D01*
X0007634Y0176300D01*
X0007634Y0174765D02*
X0007634Y0179369D01*
X0009936Y0179369D01*
X0010703Y0178602D01*
X0010703Y0177067D01*
X0009636Y0170027D02*
X0007334Y0170027D01*
X0007334Y0165423D01*
X0007334Y0166957D02*
X0009636Y0166957D01*
X0010403Y0167725D01*
X0010403Y0169259D01*
X0009636Y0170027D01*
X0011938Y0167725D02*
X0013472Y0167725D01*
X0021446Y0178602D02*
X0022213Y0179369D01*
X0023748Y0179369D01*
X0024515Y0178602D01*
X0024515Y0177835D01*
X0023748Y0177067D01*
X0024515Y0176300D01*
X0024515Y0175533D01*
X0023748Y0174765D01*
X0023748Y0177067D02*
X0022980Y0177067D01*
X0023165Y0184992D02*
X0023165Y0189596D01*
X0021630Y0188061D01*
X0021630Y0184992D02*
X0024699Y0184992D01*
X0020095Y0184992D02*
X0017026Y0184992D01*
X0018561Y0184992D02*
X0018561Y0189596D01*
X0017026Y0188061D01*
X0015491Y0189596D02*
X0012422Y0189596D01*
X0012422Y0184992D01*
X0012422Y0187294D02*
X0013957Y0187294D01*
X0010887Y0187294D02*
X0010120Y0186527D01*
X0007818Y0186527D01*
X0007818Y0184992D02*
X0007818Y0189596D01*
X0010120Y0189596D01*
X0010887Y0188829D01*
X0010887Y0187294D01*
X0010887Y0194935D02*
X0010887Y0199539D01*
X0013189Y0199539D01*
X0013956Y0198771D01*
X0013956Y0197237D01*
X0013189Y0196469D01*
X0010887Y0196469D01*
X0015491Y0197237D02*
X0017792Y0197237D01*
X0018560Y0196469D01*
X0018560Y0195702D01*
X0017792Y0194935D01*
X0015491Y0194935D01*
X0015491Y0199539D01*
X0017792Y0199539D01*
X0018560Y0198771D01*
X0018560Y0198004D01*
X0017792Y0197237D01*
X0020094Y0198004D02*
X0021629Y0199539D01*
X0021629Y0194935D01*
X0020094Y0194935D02*
X0023164Y0194935D01*
X0021396Y0204677D02*
X0019862Y0204677D01*
X0019094Y0205444D01*
X0017560Y0205444D02*
X0016792Y0204677D01*
X0015258Y0204677D01*
X0014491Y0205444D01*
X0014491Y0208514D01*
X0015258Y0209281D01*
X0016792Y0209281D01*
X0017560Y0208514D01*
X0019094Y0209281D02*
X0019094Y0206979D01*
X0020629Y0207746D01*
X0021396Y0207746D01*
X0022164Y0206979D01*
X0022164Y0205444D01*
X0021396Y0204677D01*
X0022164Y0209281D02*
X0019094Y0209281D01*
X0019379Y0215020D02*
X0019379Y0215787D01*
X0022448Y0218856D01*
X0022448Y0219624D01*
X0019379Y0219624D01*
X0017844Y0218089D02*
X0017844Y0215020D01*
X0017844Y0217322D02*
X0014775Y0217322D01*
X0014775Y0218089D02*
X0016309Y0219624D01*
X0017844Y0218089D01*
X0014775Y0218089D02*
X0014775Y0215020D01*
X0013240Y0217322D02*
X0013240Y0218856D01*
X0012473Y0219624D01*
X0010171Y0219624D01*
X0010171Y0215020D01*
X0010171Y0216554D02*
X0012473Y0216554D01*
X0013240Y0217322D01*
X0012189Y0209281D02*
X0009887Y0209281D01*
X0009887Y0204677D01*
X0009887Y0206212D02*
X0012189Y0206212D01*
X0012956Y0206979D01*
X0012956Y0208514D01*
X0012189Y0209281D01*
X0010571Y0225262D02*
X0010571Y0229866D01*
X0012873Y0229866D01*
X0013640Y0229099D01*
X0013640Y0227564D01*
X0012873Y0226797D01*
X0010571Y0226797D01*
X0015175Y0227564D02*
X0018244Y0227564D01*
X0018244Y0228331D02*
X0018244Y0225262D01*
X0019779Y0226030D02*
X0020546Y0225262D01*
X0022081Y0225262D01*
X0022848Y0226030D01*
X0022848Y0227564D01*
X0022081Y0228331D01*
X0021313Y0228331D01*
X0019779Y0227564D01*
X0019779Y0229866D01*
X0022848Y0229866D01*
X0018244Y0228331D02*
X0016709Y0229866D01*
X0015175Y0228331D01*
X0015175Y0225262D01*
X0015775Y0235105D02*
X0015775Y0238174D01*
X0017309Y0239709D01*
X0018844Y0238174D01*
X0018844Y0235105D01*
X0020379Y0235872D02*
X0021146Y0235105D01*
X0022681Y0235105D01*
X0023448Y0235872D01*
X0023448Y0236639D01*
X0022681Y0237407D01*
X0021913Y0237407D01*
X0022681Y0237407D02*
X0023448Y0238174D01*
X0023448Y0238941D01*
X0022681Y0239709D01*
X0021146Y0239709D01*
X0020379Y0238941D01*
X0018844Y0237407D02*
X0015775Y0237407D01*
X0014240Y0237407D02*
X0014240Y0238941D01*
X0013473Y0239709D01*
X0011171Y0239709D01*
X0011171Y0235105D01*
X0011171Y0236639D02*
X0013473Y0236639D01*
X0014240Y0237407D01*
X0015554Y0244831D02*
X0015554Y0247901D01*
X0017088Y0249435D01*
X0018623Y0247901D01*
X0018623Y0244831D01*
X0020157Y0244831D02*
X0023227Y0244831D01*
X0021692Y0244831D02*
X0021692Y0249435D01*
X0020157Y0247901D01*
X0018623Y0247133D02*
X0015554Y0247133D01*
X0014019Y0247133D02*
X0013252Y0246366D01*
X0010950Y0246366D01*
X0010950Y0244831D02*
X0010950Y0249435D01*
X0013252Y0249435D01*
X0014019Y0248668D01*
X0014019Y0247133D01*
X0016021Y0254974D02*
X0017555Y0254974D01*
X0018323Y0255741D01*
X0019857Y0255741D02*
X0020625Y0254974D01*
X0022159Y0254974D01*
X0022927Y0255741D01*
X0022927Y0256509D01*
X0022159Y0257276D01*
X0021392Y0257276D01*
X0022159Y0257276D02*
X0022927Y0258043D01*
X0022927Y0258811D01*
X0022159Y0259578D01*
X0020625Y0259578D01*
X0019857Y0258811D01*
X0018323Y0258811D02*
X0017555Y0259578D01*
X0016021Y0259578D01*
X0015254Y0258811D01*
X0015254Y0255741D01*
X0016021Y0254974D01*
X0013719Y0257276D02*
X0013719Y0258811D01*
X0012952Y0259578D01*
X0010650Y0259578D01*
X0010650Y0254974D01*
X0010650Y0256509D02*
X0012952Y0256509D01*
X0013719Y0257276D01*
X0011350Y0265117D02*
X0011350Y0269720D01*
X0013652Y0269720D01*
X0014419Y0268953D01*
X0014419Y0267418D01*
X0013652Y0266651D01*
X0011350Y0266651D01*
X0015954Y0265884D02*
X0016721Y0265117D01*
X0018255Y0265117D01*
X0019023Y0265884D01*
X0020557Y0265117D02*
X0023627Y0265117D01*
X0022092Y0265117D02*
X0022092Y0269720D01*
X0020557Y0268186D01*
X0019023Y0268953D02*
X0018255Y0269720D01*
X0016721Y0269720D01*
X0015954Y0268953D01*
X0015954Y0265884D01*
X0015525Y0275459D02*
X0014757Y0276226D01*
X0015525Y0275459D02*
X0017059Y0275459D01*
X0017827Y0276226D01*
X0017827Y0276994D01*
X0017059Y0277761D01*
X0015525Y0277761D01*
X0014757Y0278528D01*
X0014757Y0279296D01*
X0015525Y0280063D01*
X0017059Y0280063D01*
X0017827Y0279296D01*
X0019361Y0280063D02*
X0022431Y0280063D01*
X0020896Y0280063D02*
X0020896Y0275459D01*
X0021496Y0285502D02*
X0019962Y0285502D01*
X0019194Y0286269D01*
X0022264Y0289338D01*
X0022264Y0286269D01*
X0021496Y0285502D01*
X0019194Y0286269D02*
X0019194Y0289338D01*
X0019962Y0290105D01*
X0021496Y0290105D01*
X0022264Y0289338D01*
X0017660Y0290105D02*
X0017660Y0285502D01*
X0017660Y0287804D02*
X0014591Y0287804D01*
X0013056Y0287804D02*
X0012289Y0287036D01*
X0009987Y0287036D01*
X0009987Y0285502D02*
X0009987Y0290105D01*
X0012289Y0290105D01*
X0013056Y0289338D01*
X0013056Y0287804D01*
X0014591Y0285502D02*
X0014591Y0290105D01*
X0015691Y0295344D02*
X0015691Y0299948D01*
X0018760Y0299948D01*
X0020294Y0299181D02*
X0020294Y0298413D01*
X0021062Y0297646D01*
X0023364Y0297646D01*
X0023364Y0296111D02*
X0023364Y0299181D01*
X0022596Y0299948D01*
X0021062Y0299948D01*
X0020294Y0299181D01*
X0020294Y0296111D02*
X0021062Y0295344D01*
X0022596Y0295344D01*
X0023364Y0296111D01*
X0017225Y0297646D02*
X0015691Y0297646D01*
X0014156Y0297646D02*
X0014156Y0299181D01*
X0013389Y0299948D01*
X0011087Y0299948D01*
X0011087Y0295344D01*
X0011087Y0296879D02*
X0013389Y0296879D01*
X0014156Y0297646D01*
X0015491Y0305187D02*
X0015491Y0309791D01*
X0018560Y0309791D01*
X0020094Y0309791D02*
X0023164Y0309791D01*
X0023164Y0309023D01*
X0020094Y0305954D01*
X0020094Y0305187D01*
X0017025Y0307489D02*
X0015491Y0307489D01*
X0013956Y0307489D02*
X0013189Y0306721D01*
X0010887Y0306721D01*
X0010887Y0305187D02*
X0010887Y0309791D01*
X0013189Y0309791D01*
X0013956Y0309023D01*
X0013956Y0307489D01*
X0015291Y0315029D02*
X0015291Y0319633D01*
X0018360Y0319633D01*
X0019894Y0319633D02*
X0019894Y0317331D01*
X0021429Y0318098D01*
X0022196Y0318098D01*
X0022964Y0317331D01*
X0022964Y0315796D01*
X0022196Y0315029D01*
X0020662Y0315029D01*
X0019894Y0315796D01*
X0019894Y0319633D02*
X0022964Y0319633D01*
X0022996Y0324756D02*
X0021462Y0324756D01*
X0020694Y0325523D01*
X0022229Y0327058D02*
X0022996Y0327058D01*
X0023764Y0326291D01*
X0023764Y0325523D01*
X0022996Y0324756D01*
X0022996Y0327058D02*
X0023764Y0327825D01*
X0023764Y0328593D01*
X0022996Y0329360D01*
X0021462Y0329360D01*
X0020694Y0328593D01*
X0019160Y0329360D02*
X0016091Y0329360D01*
X0016091Y0324756D01*
X0016091Y0327058D02*
X0017625Y0327058D01*
X0014556Y0327058D02*
X0013789Y0326291D01*
X0011487Y0326291D01*
X0011487Y0324756D02*
X0011487Y0329360D01*
X0013789Y0329360D01*
X0014556Y0328593D01*
X0014556Y0327058D01*
X0012989Y0319633D02*
X0010687Y0319633D01*
X0010687Y0315029D01*
X0010687Y0316564D02*
X0012989Y0316564D01*
X0013756Y0317331D01*
X0013756Y0318866D01*
X0012989Y0319633D01*
X0015291Y0317331D02*
X0016825Y0317331D01*
X0015391Y0335098D02*
X0015391Y0339702D01*
X0018460Y0339702D01*
X0019994Y0338168D02*
X0021529Y0339702D01*
X0021529Y0335098D01*
X0019994Y0335098D02*
X0023064Y0335098D01*
X0016925Y0337400D02*
X0015391Y0337400D01*
X0013856Y0337400D02*
X0013856Y0338935D01*
X0013089Y0339702D01*
X0010787Y0339702D01*
X0010787Y0335098D01*
X0010787Y0336633D02*
X0013089Y0336633D01*
X0013856Y0337400D01*
X0013840Y0344541D02*
X0014607Y0345308D01*
X0013840Y0344541D02*
X0012305Y0344541D01*
X0011538Y0345308D01*
X0011538Y0348378D01*
X0012305Y0349145D01*
X0013840Y0349145D01*
X0014607Y0348378D01*
X0016142Y0347610D02*
X0017676Y0349145D01*
X0017676Y0344541D01*
X0016142Y0344541D02*
X0019211Y0344541D01*
X0020746Y0345308D02*
X0021513Y0344541D01*
X0023048Y0344541D01*
X0023815Y0345308D01*
X0023815Y0346843D01*
X0023048Y0347610D01*
X0022280Y0347610D01*
X0020746Y0346843D01*
X0020746Y0349145D01*
X0023815Y0349145D01*
X0023448Y0354983D02*
X0021913Y0354983D01*
X0021146Y0355751D01*
X0019611Y0354983D02*
X0016542Y0354983D01*
X0018076Y0354983D02*
X0018076Y0359587D01*
X0016542Y0358053D01*
X0015007Y0358820D02*
X0014240Y0359587D01*
X0012705Y0359587D01*
X0011938Y0358820D01*
X0011938Y0355751D01*
X0012705Y0354983D01*
X0014240Y0354983D01*
X0015007Y0355751D01*
X0010403Y0357285D02*
X0009636Y0356518D01*
X0007334Y0356518D01*
X0007334Y0354983D02*
X0007334Y0359587D01*
X0009636Y0359587D01*
X0010403Y0358820D01*
X0010403Y0357285D01*
X0010287Y0365310D02*
X0010287Y0369914D01*
X0012589Y0369914D01*
X0013356Y0369147D01*
X0013356Y0367612D01*
X0012589Y0366845D01*
X0010287Y0366845D01*
X0014891Y0367612D02*
X0016425Y0367612D01*
X0014891Y0365310D02*
X0017960Y0365310D01*
X0019494Y0366078D02*
X0020262Y0365310D01*
X0021796Y0365310D01*
X0022564Y0366078D01*
X0022564Y0366845D01*
X0021796Y0367612D01*
X0019494Y0367612D01*
X0019494Y0366078D01*
X0019494Y0367612D02*
X0021029Y0369147D01*
X0022564Y0369914D01*
X0022496Y0375253D02*
X0022496Y0379857D01*
X0020194Y0377555D01*
X0023264Y0377555D01*
X0023464Y0385195D02*
X0020394Y0385195D01*
X0023464Y0388265D01*
X0023464Y0389032D01*
X0022696Y0389799D01*
X0021162Y0389799D01*
X0020394Y0389032D01*
X0018860Y0389799D02*
X0015791Y0389799D01*
X0015791Y0385195D01*
X0018860Y0385195D01*
X0017325Y0387497D02*
X0015791Y0387497D01*
X0014256Y0387497D02*
X0013489Y0386730D01*
X0011187Y0386730D01*
X0011187Y0385195D02*
X0011187Y0389799D01*
X0013489Y0389799D01*
X0014256Y0389032D01*
X0014256Y0387497D01*
X0013289Y0379857D02*
X0010987Y0379857D01*
X0010987Y0375253D01*
X0010987Y0376787D02*
X0013289Y0376787D01*
X0014056Y0377555D01*
X0014056Y0379089D01*
X0013289Y0379857D01*
X0015591Y0379857D02*
X0015591Y0375253D01*
X0018660Y0375253D01*
X0017125Y0377555D02*
X0015591Y0377555D01*
X0015591Y0379857D02*
X0018660Y0379857D01*
X0017960Y0369914D02*
X0014891Y0369914D01*
X0014891Y0365310D01*
X0021146Y0358820D02*
X0021913Y0359587D01*
X0023448Y0359587D01*
X0024215Y0358820D01*
X0024215Y0358053D01*
X0023448Y0357285D01*
X0024215Y0356518D01*
X0024215Y0355751D01*
X0023448Y0354983D01*
X0023448Y0357285D02*
X0022680Y0357285D01*
X0010003Y0348378D02*
X0010003Y0346843D01*
X0009236Y0346076D01*
X0006934Y0346076D01*
X0006934Y0344541D02*
X0006934Y0349145D01*
X0009236Y0349145D01*
X0010003Y0348378D01*
X0046735Y0356368D02*
X0046735Y0360972D01*
X0049037Y0360972D01*
X0049805Y0360204D01*
X0049805Y0358670D01*
X0049037Y0357902D01*
X0046735Y0357902D01*
X0048270Y0366210D02*
X0046735Y0367745D01*
X0046735Y0370814D01*
X0049805Y0370814D02*
X0049805Y0367745D01*
X0048270Y0366210D01*
X0051339Y0366210D02*
X0051339Y0370814D01*
X0053641Y0370814D01*
X0054409Y0370047D01*
X0054409Y0369280D01*
X0053641Y0368512D01*
X0051339Y0368512D01*
X0051339Y0366210D02*
X0053641Y0366210D01*
X0054409Y0366978D01*
X0054409Y0367745D01*
X0053641Y0368512D01*
X0055943Y0368512D02*
X0059013Y0368512D01*
X0059013Y0369280D02*
X0059013Y0366210D01*
X0062082Y0366210D02*
X0062082Y0370814D01*
X0063616Y0370814D02*
X0060547Y0370814D01*
X0059013Y0369280D02*
X0057478Y0370814D01*
X0055943Y0369280D01*
X0055943Y0366210D01*
X0056711Y0376053D02*
X0055943Y0376820D01*
X0056711Y0376053D02*
X0058245Y0376053D01*
X0059013Y0376820D01*
X0059013Y0378355D01*
X0058245Y0379122D01*
X0057478Y0379122D01*
X0055943Y0378355D01*
X0055943Y0380657D01*
X0059013Y0380657D01*
X0054409Y0380657D02*
X0051339Y0380657D01*
X0051339Y0376053D01*
X0054409Y0376053D01*
X0052874Y0378355D02*
X0051339Y0378355D01*
X0049805Y0378355D02*
X0049037Y0377587D01*
X0046735Y0377587D01*
X0046735Y0376053D02*
X0046735Y0380657D01*
X0049037Y0380657D01*
X0049805Y0379889D01*
X0049805Y0378355D01*
X0050946Y0385502D02*
X0054015Y0385502D01*
X0055550Y0386269D02*
X0056317Y0385502D01*
X0057852Y0385502D01*
X0058619Y0386269D01*
X0058619Y0387036D01*
X0057852Y0387804D01*
X0057084Y0387804D01*
X0057852Y0387804D02*
X0058619Y0388571D01*
X0058619Y0389338D01*
X0057852Y0390105D01*
X0056317Y0390105D01*
X0055550Y0389338D01*
X0054015Y0390105D02*
X0050946Y0390105D01*
X0050946Y0385502D01*
X0050946Y0387804D02*
X0052480Y0387804D01*
X0049411Y0387804D02*
X0048644Y0387036D01*
X0046342Y0387036D01*
X0046342Y0385502D02*
X0046342Y0390105D01*
X0048644Y0390105D01*
X0049411Y0389338D01*
X0049411Y0387804D01*
X0056711Y0350145D02*
X0058245Y0350145D01*
X0059013Y0349378D01*
X0055943Y0346308D01*
X0056711Y0345541D01*
X0058245Y0345541D01*
X0059013Y0346308D01*
X0059013Y0349378D01*
X0056711Y0350145D02*
X0055943Y0349378D01*
X0055943Y0346308D01*
X0097403Y0387541D02*
X0098937Y0387541D01*
X0099705Y0388308D01*
X0101239Y0387541D02*
X0101239Y0390610D01*
X0102774Y0392145D01*
X0104309Y0390610D01*
X0104309Y0387541D01*
X0105843Y0387541D02*
X0105843Y0392145D01*
X0107378Y0390610D01*
X0108913Y0392145D01*
X0108913Y0387541D01*
X0110447Y0386774D02*
X0113516Y0386774D01*
X0115051Y0388308D02*
X0115818Y0387541D01*
X0117353Y0387541D01*
X0118120Y0388308D01*
X0118120Y0391378D01*
X0117353Y0392145D01*
X0115818Y0392145D01*
X0115051Y0391378D01*
X0115051Y0388308D01*
X0119655Y0389076D02*
X0121190Y0387541D01*
X0122724Y0389076D01*
X0122724Y0392145D01*
X0124259Y0391378D02*
X0125026Y0392145D01*
X0126561Y0392145D01*
X0127328Y0391378D01*
X0127328Y0390610D01*
X0124259Y0387541D01*
X0127328Y0387541D01*
X0128863Y0388308D02*
X0128863Y0389843D01*
X0131165Y0389843D01*
X0131932Y0389076D01*
X0131932Y0388308D01*
X0131165Y0387541D01*
X0129630Y0387541D01*
X0128863Y0388308D01*
X0128863Y0389843D02*
X0130398Y0391378D01*
X0131932Y0392145D01*
X0133467Y0389843D02*
X0136536Y0389843D01*
X0138071Y0388308D02*
X0138071Y0391378D01*
X0138838Y0392145D01*
X0140373Y0392145D01*
X0141140Y0391378D01*
X0138071Y0388308D01*
X0138838Y0387541D01*
X0140373Y0387541D01*
X0141140Y0388308D01*
X0141140Y0391378D01*
X0135769Y0392145D02*
X0135769Y0387541D01*
X0133467Y0389843D02*
X0135769Y0392145D01*
X0119655Y0392145D02*
X0119655Y0389076D01*
X0104309Y0389843D02*
X0101239Y0389843D01*
X0099705Y0391378D02*
X0098937Y0392145D01*
X0097403Y0392145D01*
X0096635Y0391378D01*
X0096635Y0388308D01*
X0097403Y0387541D01*
X0048737Y0281131D02*
X0046435Y0281131D01*
X0046435Y0276528D01*
X0046435Y0278062D02*
X0048737Y0278062D01*
X0049505Y0278830D01*
X0049505Y0280364D01*
X0048737Y0281131D01*
X0048694Y0270424D02*
X0046392Y0270424D01*
X0046392Y0265820D01*
X0046392Y0267354D02*
X0048694Y0267354D01*
X0049461Y0268122D01*
X0049461Y0269656D01*
X0048694Y0270424D01*
X0048952Y0260224D02*
X0046650Y0260224D01*
X0046650Y0255620D01*
X0046650Y0257154D02*
X0048952Y0257154D01*
X0049719Y0257922D01*
X0049719Y0259456D01*
X0048952Y0260224D01*
X0048509Y0250724D02*
X0046207Y0250724D01*
X0046207Y0246120D01*
X0046207Y0247654D02*
X0048509Y0247654D01*
X0049276Y0248422D01*
X0049276Y0249956D01*
X0048509Y0250724D01*
X0050811Y0249189D02*
X0052346Y0250724D01*
X0053880Y0249189D01*
X0053880Y0246120D01*
X0053880Y0248422D02*
X0050811Y0248422D01*
X0050811Y0249189D02*
X0050811Y0246120D01*
X0013223Y0275459D02*
X0011688Y0276994D01*
X0012455Y0276994D02*
X0010154Y0276994D01*
X0010154Y0275459D02*
X0010154Y0280063D01*
X0012455Y0280063D01*
X0013223Y0279296D01*
X0013223Y0277761D01*
X0012455Y0276994D01*
X0008619Y0275459D02*
X0008619Y0280063D01*
X0005550Y0280063D02*
X0005550Y0275459D01*
X0008619Y0275459D02*
X0005550Y0280063D01*
X0007334Y0129572D02*
X0009636Y0129572D01*
X0010403Y0128805D01*
X0010403Y0127270D01*
X0009636Y0126503D01*
X0007334Y0126503D01*
X0007334Y0124969D02*
X0007334Y0129572D01*
X0011938Y0129572D02*
X0011938Y0124969D01*
X0011938Y0127270D02*
X0013472Y0127270D01*
X0015007Y0129572D02*
X0011938Y0129572D01*
X0016542Y0128038D02*
X0018076Y0129572D01*
X0135535Y0070678D02*
X0135535Y0067608D01*
X0136303Y0066841D01*
X0137837Y0066841D01*
X0138605Y0067608D01*
X0138605Y0069143D01*
X0137070Y0069143D01*
X0135535Y0070678D02*
X0136303Y0071445D01*
X0137837Y0071445D01*
X0138605Y0070678D01*
X0140139Y0071445D02*
X0140139Y0066841D01*
X0143209Y0066841D02*
X0140139Y0071445D01*
X0143209Y0071445D02*
X0143209Y0066841D01*
X0144743Y0066841D02*
X0144743Y0071445D01*
X0147045Y0071445D01*
X0147813Y0070678D01*
X0147813Y0067608D01*
X0147045Y0066841D01*
X0144743Y0066841D01*
X0181062Y0094641D02*
X0181062Y0099245D01*
X0183364Y0099245D01*
X0184131Y0098478D01*
X0184131Y0096943D01*
X0183364Y0096176D01*
X0181062Y0096176D01*
X0185666Y0096943D02*
X0187968Y0096943D01*
X0188735Y0096176D01*
X0188735Y0095408D01*
X0187968Y0094641D01*
X0185666Y0094641D01*
X0185666Y0099245D01*
X0187968Y0099245D01*
X0188735Y0098478D01*
X0188735Y0097710D01*
X0187968Y0096943D01*
X0190270Y0097710D02*
X0191805Y0099245D01*
X0191805Y0094641D01*
X0193339Y0094641D02*
X0190270Y0094641D01*
X0194874Y0094641D02*
X0197943Y0097710D01*
X0197943Y0098478D01*
X0197176Y0099245D01*
X0195641Y0099245D01*
X0194874Y0098478D01*
X0194874Y0094641D02*
X0197943Y0094641D01*
X0196976Y0124869D02*
X0195441Y0124869D01*
X0194674Y0125636D01*
X0197743Y0128705D01*
X0197743Y0125636D01*
X0196976Y0124869D01*
X0194674Y0125636D02*
X0194674Y0128705D01*
X0195441Y0129472D01*
X0196976Y0129472D01*
X0197743Y0128705D01*
X0197143Y0134895D02*
X0194074Y0134895D01*
X0197143Y0137965D01*
X0197143Y0138732D01*
X0196376Y0139499D01*
X0194841Y0139499D01*
X0194074Y0138732D01*
X0183931Y0128705D02*
X0183931Y0127170D01*
X0183164Y0126403D01*
X0180862Y0126403D01*
X0180862Y0124869D02*
X0180862Y0129472D01*
X0183164Y0129472D01*
X0183931Y0128705D01*
X0184215Y0175065D02*
X0184215Y0179669D01*
X0186517Y0179669D01*
X0187284Y0178902D01*
X0187284Y0177367D01*
X0186517Y0176600D01*
X0184215Y0176600D01*
X0219964Y0176800D02*
X0222266Y0176800D01*
X0223033Y0177567D01*
X0223033Y0179102D01*
X0222266Y0179869D01*
X0219964Y0179869D01*
X0219964Y0175265D01*
X0224568Y0176033D02*
X0225335Y0175265D01*
X0226870Y0175265D01*
X0227637Y0176033D01*
X0227637Y0177567D01*
X0226102Y0177567D01*
X0224568Y0176033D02*
X0224568Y0179102D01*
X0225335Y0179869D01*
X0226870Y0179869D01*
X0227637Y0179102D01*
X0229172Y0179869D02*
X0229172Y0177567D01*
X0230706Y0178335D01*
X0231474Y0178335D01*
X0232241Y0177567D01*
X0232241Y0176033D01*
X0231474Y0175265D01*
X0229939Y0175265D01*
X0229172Y0176033D01*
X0229172Y0179869D02*
X0232241Y0179869D01*
X0229172Y0186092D02*
X0229172Y0186859D01*
X0232241Y0189929D01*
X0232241Y0190696D01*
X0229172Y0190696D01*
X0227637Y0189929D02*
X0226870Y0190696D01*
X0225335Y0190696D01*
X0224568Y0189929D01*
X0224568Y0186859D01*
X0225335Y0186092D01*
X0226870Y0186092D01*
X0227637Y0186859D01*
X0227637Y0188394D01*
X0226102Y0188394D01*
X0223033Y0188394D02*
X0222266Y0187627D01*
X0219964Y0187627D01*
X0219964Y0186092D02*
X0219964Y0190696D01*
X0222266Y0190696D01*
X0223033Y0189929D01*
X0223033Y0188394D01*
X0225335Y0195935D02*
X0226870Y0195935D01*
X0227637Y0196702D01*
X0229172Y0196702D02*
X0229939Y0195935D01*
X0231474Y0195935D01*
X0232241Y0196702D01*
X0232241Y0197469D01*
X0231474Y0198237D01*
X0229172Y0198237D01*
X0229172Y0196702D01*
X0229172Y0198237D02*
X0230706Y0199771D01*
X0232241Y0200539D01*
X0231474Y0205777D02*
X0229939Y0205777D01*
X0229172Y0206544D01*
X0229172Y0207312D01*
X0229939Y0208079D01*
X0231474Y0208079D01*
X0232241Y0207312D01*
X0232241Y0206544D01*
X0231474Y0205777D01*
X0231474Y0208079D02*
X0232241Y0208846D01*
X0232241Y0209614D01*
X0231474Y0210381D01*
X0229939Y0210381D01*
X0229172Y0209614D01*
X0229172Y0208846D01*
X0229939Y0208079D01*
X0227637Y0206544D02*
X0226870Y0205777D01*
X0225335Y0205777D01*
X0224568Y0206544D01*
X0224568Y0209614D01*
X0225335Y0210381D01*
X0226870Y0210381D01*
X0227637Y0209614D01*
X0223033Y0209614D02*
X0223033Y0208079D01*
X0222266Y0207312D01*
X0219964Y0207312D01*
X0219964Y0205777D02*
X0219964Y0210381D01*
X0222266Y0210381D01*
X0223033Y0209614D01*
X0224568Y0215620D02*
X0224568Y0218689D01*
X0226102Y0220224D01*
X0227637Y0218689D01*
X0227637Y0215620D01*
X0229172Y0216387D02*
X0229172Y0217154D01*
X0229939Y0217922D01*
X0231474Y0217922D01*
X0232241Y0217154D01*
X0232241Y0216387D01*
X0231474Y0215620D01*
X0229939Y0215620D01*
X0229172Y0216387D01*
X0229939Y0217922D02*
X0229172Y0218689D01*
X0229172Y0219456D01*
X0229939Y0220224D01*
X0231474Y0220224D01*
X0232241Y0219456D01*
X0232241Y0218689D01*
X0231474Y0217922D01*
X0227637Y0217922D02*
X0224568Y0217922D01*
X0223033Y0217922D02*
X0223033Y0219456D01*
X0222266Y0220224D01*
X0219964Y0220224D01*
X0219964Y0215620D01*
X0219964Y0217154D02*
X0222266Y0217154D01*
X0223033Y0217922D01*
X0224568Y0225462D02*
X0224568Y0228531D01*
X0226102Y0230066D01*
X0227637Y0228531D01*
X0227637Y0225462D01*
X0229172Y0225462D02*
X0232241Y0225462D01*
X0230706Y0225462D02*
X0230706Y0230066D01*
X0229172Y0228531D01*
X0227637Y0227764D02*
X0224568Y0227764D01*
X0223033Y0227764D02*
X0222266Y0226997D01*
X0219964Y0226997D01*
X0219964Y0225462D02*
X0219964Y0230066D01*
X0222266Y0230066D01*
X0223033Y0229299D01*
X0223033Y0227764D01*
X0224568Y0235305D02*
X0224568Y0238374D01*
X0226102Y0239909D01*
X0227637Y0238374D01*
X0227637Y0235305D01*
X0229172Y0235305D02*
X0232241Y0235305D01*
X0233776Y0235305D02*
X0236845Y0238374D01*
X0236845Y0239141D01*
X0236078Y0239909D01*
X0234543Y0239909D01*
X0233776Y0239141D01*
X0233776Y0235305D02*
X0236845Y0235305D01*
X0236078Y0230066D02*
X0234543Y0230066D01*
X0233776Y0229299D01*
X0233776Y0226230D01*
X0236845Y0229299D01*
X0236845Y0226230D01*
X0236078Y0225462D01*
X0234543Y0225462D01*
X0233776Y0226230D01*
X0236845Y0229299D02*
X0236078Y0230066D01*
X0230706Y0235305D02*
X0230706Y0239909D01*
X0229172Y0238374D01*
X0227637Y0237607D02*
X0224568Y0237607D01*
X0223033Y0237607D02*
X0223033Y0239141D01*
X0222266Y0239909D01*
X0219964Y0239909D01*
X0219964Y0235305D01*
X0219964Y0236839D02*
X0222266Y0236839D01*
X0223033Y0237607D01*
X0224568Y0246131D02*
X0224568Y0249201D01*
X0226102Y0250735D01*
X0227637Y0249201D01*
X0227637Y0246131D01*
X0229172Y0246131D02*
X0232241Y0246131D01*
X0230706Y0246131D02*
X0230706Y0250735D01*
X0229172Y0249201D01*
X0227637Y0248433D02*
X0224568Y0248433D01*
X0223033Y0248433D02*
X0222266Y0247666D01*
X0219964Y0247666D01*
X0219964Y0246131D02*
X0219964Y0250735D01*
X0222266Y0250735D01*
X0223033Y0249968D01*
X0223033Y0248433D01*
X0225335Y0255974D02*
X0226870Y0255974D01*
X0227637Y0256741D01*
X0229172Y0255974D02*
X0232241Y0255974D01*
X0230706Y0255974D02*
X0230706Y0260578D01*
X0229172Y0259043D01*
X0227637Y0259811D02*
X0226870Y0260578D01*
X0225335Y0260578D01*
X0224568Y0259811D01*
X0224568Y0256741D01*
X0225335Y0255974D01*
X0223033Y0258276D02*
X0222266Y0257509D01*
X0219964Y0257509D01*
X0219964Y0255974D02*
X0219964Y0260578D01*
X0222266Y0260578D01*
X0223033Y0259811D01*
X0223033Y0258276D01*
X0225335Y0265817D02*
X0226870Y0265817D01*
X0227637Y0266584D01*
X0229172Y0265817D02*
X0232241Y0265817D01*
X0233776Y0265817D02*
X0236845Y0268886D01*
X0236845Y0269653D01*
X0236078Y0270420D01*
X0234543Y0270420D01*
X0233776Y0269653D01*
X0233776Y0265817D02*
X0236845Y0265817D01*
X0236078Y0260578D02*
X0234543Y0260578D01*
X0233776Y0259811D01*
X0233776Y0256741D01*
X0236845Y0259811D01*
X0236845Y0256741D01*
X0236078Y0255974D01*
X0234543Y0255974D01*
X0233776Y0256741D01*
X0236845Y0259811D02*
X0236078Y0260578D01*
X0236078Y0250735D02*
X0233776Y0248433D01*
X0236845Y0248433D01*
X0236078Y0246131D02*
X0236078Y0250735D01*
X0230706Y0265817D02*
X0230706Y0270420D01*
X0229172Y0268886D01*
X0227637Y0269653D02*
X0226870Y0270420D01*
X0225335Y0270420D01*
X0224568Y0269653D01*
X0224568Y0266584D01*
X0225335Y0265817D01*
X0223033Y0268118D02*
X0222266Y0267351D01*
X0219964Y0267351D01*
X0219964Y0265817D02*
X0219964Y0270420D01*
X0222266Y0270420D01*
X0223033Y0269653D01*
X0223033Y0268118D01*
X0224568Y0275659D02*
X0226870Y0275659D01*
X0227637Y0276426D01*
X0227637Y0279496D01*
X0226870Y0280263D01*
X0224568Y0280263D01*
X0224568Y0275659D01*
X0223033Y0277961D02*
X0223033Y0279496D01*
X0222266Y0280263D01*
X0219964Y0280263D01*
X0219964Y0275659D01*
X0219964Y0277194D02*
X0222266Y0277194D01*
X0223033Y0277961D01*
X0224568Y0285502D02*
X0226870Y0285502D01*
X0227637Y0286269D01*
X0227637Y0289338D01*
X0226870Y0290105D01*
X0224568Y0290105D01*
X0224568Y0285502D01*
X0223033Y0287804D02*
X0222266Y0287036D01*
X0219964Y0287036D01*
X0219964Y0285502D02*
X0219964Y0290105D01*
X0222266Y0290105D01*
X0223033Y0289338D01*
X0223033Y0287804D01*
X0224568Y0295344D02*
X0226870Y0295344D01*
X0227637Y0296111D01*
X0227637Y0299181D01*
X0226870Y0299948D01*
X0224568Y0299948D01*
X0224568Y0295344D01*
X0223033Y0297646D02*
X0223033Y0299181D01*
X0222266Y0299948D01*
X0219964Y0299948D01*
X0219964Y0295344D01*
X0219964Y0296879D02*
X0222266Y0296879D01*
X0223033Y0297646D01*
X0229172Y0297646D02*
X0230706Y0298413D01*
X0231474Y0298413D01*
X0232241Y0297646D01*
X0232241Y0296111D01*
X0231474Y0295344D01*
X0229939Y0295344D01*
X0229172Y0296111D01*
X0229172Y0297646D02*
X0229172Y0299948D01*
X0232241Y0299948D01*
X0231474Y0290105D02*
X0229939Y0290105D01*
X0229172Y0289338D01*
X0230706Y0287804D02*
X0231474Y0287804D01*
X0232241Y0287036D01*
X0232241Y0286269D01*
X0231474Y0285502D01*
X0229939Y0285502D01*
X0229172Y0286269D01*
X0231474Y0287804D02*
X0232241Y0288571D01*
X0232241Y0289338D01*
X0231474Y0290105D01*
X0230706Y0280263D02*
X0230706Y0275659D01*
X0229172Y0275659D02*
X0232241Y0275659D01*
X0229172Y0278728D02*
X0230706Y0280263D01*
X0228072Y0310987D02*
X0228072Y0311754D01*
X0231141Y0314823D01*
X0231141Y0315591D01*
X0228072Y0315591D01*
X0226537Y0314823D02*
X0225770Y0315591D01*
X0223468Y0315591D01*
X0223468Y0310987D01*
X0225770Y0310987D01*
X0226537Y0311754D01*
X0226537Y0314823D01*
X0225870Y0318213D02*
X0226637Y0318981D01*
X0226637Y0320515D01*
X0225102Y0320515D01*
X0223568Y0318981D02*
X0224335Y0318213D01*
X0225870Y0318213D01*
X0228172Y0318213D02*
X0231241Y0318213D01*
X0229706Y0318213D02*
X0229706Y0322817D01*
X0228172Y0321283D01*
X0226637Y0322050D02*
X0225870Y0322817D01*
X0224335Y0322817D01*
X0223568Y0322050D01*
X0223568Y0318981D01*
X0222033Y0320515D02*
X0221266Y0319748D01*
X0218964Y0319748D01*
X0218964Y0318213D02*
X0218964Y0322817D01*
X0221266Y0322817D01*
X0222033Y0322050D01*
X0222033Y0320515D01*
X0221166Y0315591D02*
X0221933Y0314823D01*
X0221933Y0313289D01*
X0221166Y0312521D01*
X0218864Y0312521D01*
X0218864Y0310987D02*
X0218864Y0315591D01*
X0221166Y0315591D01*
X0218864Y0325456D02*
X0218864Y0330060D01*
X0221166Y0330060D01*
X0221933Y0329293D01*
X0221933Y0327758D01*
X0221166Y0326991D01*
X0218864Y0326991D01*
X0223468Y0326223D02*
X0224235Y0325456D01*
X0225770Y0325456D01*
X0226537Y0326223D01*
X0226537Y0327758D01*
X0225002Y0327758D01*
X0223468Y0329293D02*
X0224235Y0330060D01*
X0225770Y0330060D01*
X0226537Y0329293D01*
X0228072Y0328525D02*
X0229606Y0330060D01*
X0229606Y0325456D01*
X0228072Y0325456D02*
X0231141Y0325456D01*
X0232676Y0325456D02*
X0235745Y0328525D01*
X0235745Y0329293D01*
X0234978Y0330060D01*
X0233443Y0330060D01*
X0232676Y0329293D01*
X0232676Y0325456D02*
X0235745Y0325456D01*
X0235078Y0322817D02*
X0235845Y0322050D01*
X0232776Y0318981D01*
X0233543Y0318213D01*
X0235078Y0318213D01*
X0235845Y0318981D01*
X0235845Y0322050D01*
X0235078Y0322817D02*
X0233543Y0322817D01*
X0232776Y0322050D01*
X0232776Y0318981D01*
X0223468Y0326223D02*
X0223468Y0329293D01*
X0224735Y0335698D02*
X0223968Y0336466D01*
X0223968Y0339535D01*
X0224735Y0340302D01*
X0226270Y0340302D01*
X0227037Y0339535D01*
X0227037Y0338000D02*
X0225502Y0338000D01*
X0227037Y0338000D02*
X0227037Y0336466D01*
X0226270Y0335698D01*
X0224735Y0335698D01*
X0222433Y0338000D02*
X0221666Y0337233D01*
X0219364Y0337233D01*
X0219364Y0335698D02*
X0219364Y0340302D01*
X0221666Y0340302D01*
X0222433Y0339535D01*
X0222433Y0338000D01*
X0228572Y0338768D02*
X0230106Y0340302D01*
X0230106Y0335698D01*
X0228572Y0335698D02*
X0231641Y0335698D01*
X0233176Y0338000D02*
X0236245Y0338000D01*
X0235478Y0335698D02*
X0235478Y0340302D01*
X0233176Y0338000D01*
X0230974Y0345741D02*
X0229439Y0345741D01*
X0228672Y0346508D01*
X0227137Y0346508D02*
X0226370Y0345741D01*
X0224068Y0345741D01*
X0224068Y0350345D01*
X0226370Y0350345D01*
X0227137Y0349578D01*
X0227137Y0348810D01*
X0226370Y0348043D01*
X0224068Y0348043D01*
X0222533Y0348043D02*
X0221766Y0347276D01*
X0219464Y0347276D01*
X0219464Y0345741D02*
X0219464Y0350345D01*
X0221766Y0350345D01*
X0222533Y0349578D01*
X0222533Y0348043D01*
X0226370Y0348043D02*
X0227137Y0347276D01*
X0227137Y0346508D01*
X0230206Y0348043D02*
X0230974Y0348043D01*
X0231741Y0347276D01*
X0231741Y0346508D01*
X0230974Y0345741D01*
X0230974Y0348043D02*
X0231741Y0348810D01*
X0231741Y0349578D01*
X0230974Y0350345D01*
X0229439Y0350345D01*
X0228672Y0349578D01*
X0229323Y0355583D02*
X0228556Y0356351D01*
X0229323Y0355583D02*
X0230858Y0355583D01*
X0231625Y0356351D01*
X0231625Y0357885D01*
X0230858Y0358653D01*
X0230091Y0358653D01*
X0228556Y0357885D01*
X0228556Y0360187D01*
X0231625Y0360187D01*
X0227021Y0359420D02*
X0227021Y0358653D01*
X0226254Y0357885D01*
X0223952Y0357885D01*
X0222417Y0357885D02*
X0221650Y0357118D01*
X0219348Y0357118D01*
X0219348Y0355583D02*
X0219348Y0360187D01*
X0221650Y0360187D01*
X0222417Y0359420D01*
X0222417Y0357885D01*
X0223952Y0355583D02*
X0223952Y0360187D01*
X0226254Y0360187D01*
X0227021Y0359420D01*
X0226254Y0357885D02*
X0227021Y0357118D01*
X0227021Y0356351D01*
X0226254Y0355583D01*
X0223952Y0355583D01*
X0223652Y0365610D02*
X0225954Y0365610D01*
X0226721Y0366378D01*
X0226721Y0367145D01*
X0225954Y0367912D01*
X0223652Y0367912D01*
X0222117Y0367912D02*
X0221350Y0367145D01*
X0219048Y0367145D01*
X0219048Y0365610D02*
X0219048Y0370214D01*
X0221350Y0370214D01*
X0222117Y0369447D01*
X0222117Y0367912D01*
X0223652Y0365610D02*
X0223652Y0370214D01*
X0225954Y0370214D01*
X0226721Y0369447D01*
X0226721Y0368680D01*
X0225954Y0367912D01*
X0228256Y0366378D02*
X0228256Y0365610D01*
X0228256Y0366378D02*
X0231325Y0369447D01*
X0231325Y0370214D01*
X0228256Y0370214D01*
X0226754Y0374953D02*
X0224452Y0374953D01*
X0224452Y0379557D01*
X0226754Y0379557D01*
X0227521Y0378789D01*
X0227521Y0378022D01*
X0226754Y0377255D01*
X0224452Y0377255D01*
X0222917Y0377255D02*
X0222917Y0378789D01*
X0222150Y0379557D01*
X0219848Y0379557D01*
X0219848Y0374953D01*
X0219848Y0376487D02*
X0222150Y0376487D01*
X0222917Y0377255D01*
X0226754Y0377255D02*
X0227521Y0376487D01*
X0227521Y0375720D01*
X0226754Y0374953D01*
X0229056Y0375720D02*
X0229056Y0376487D01*
X0229823Y0377255D01*
X0231358Y0377255D01*
X0232125Y0376487D01*
X0232125Y0375720D01*
X0231358Y0374953D01*
X0229823Y0374953D01*
X0229056Y0375720D01*
X0229823Y0377255D02*
X0229056Y0378022D01*
X0229056Y0378789D01*
X0229823Y0379557D01*
X0231358Y0379557D01*
X0232125Y0378789D01*
X0232125Y0378022D01*
X0231358Y0377255D01*
X0230558Y0385195D02*
X0229023Y0385195D01*
X0228256Y0385963D01*
X0231325Y0389032D01*
X0231325Y0385963D01*
X0230558Y0385195D01*
X0228256Y0385963D02*
X0228256Y0389032D01*
X0229023Y0389799D01*
X0230558Y0389799D01*
X0231325Y0389032D01*
X0226721Y0389799D02*
X0223652Y0389799D01*
X0223652Y0385195D01*
X0226721Y0385195D01*
X0225187Y0387497D02*
X0223652Y0387497D01*
X0222117Y0387497D02*
X0221350Y0386730D01*
X0219048Y0386730D01*
X0219048Y0385195D02*
X0219048Y0389799D01*
X0221350Y0389799D01*
X0222117Y0389032D01*
X0222117Y0387497D01*
X0198259Y0340202D02*
X0195190Y0340202D01*
X0195190Y0337900D01*
X0196724Y0338668D01*
X0197492Y0338668D01*
X0198259Y0337900D01*
X0198259Y0336366D01*
X0197492Y0335598D01*
X0195957Y0335598D01*
X0195190Y0336366D01*
X0193655Y0335598D02*
X0190586Y0335598D01*
X0192120Y0335598D02*
X0192120Y0340202D01*
X0190586Y0338668D01*
X0186117Y0290305D02*
X0183815Y0290305D01*
X0183815Y0285702D01*
X0183815Y0287236D02*
X0186117Y0287236D01*
X0186884Y0288004D01*
X0186884Y0289538D01*
X0186117Y0290305D01*
X0187017Y0282563D02*
X0184715Y0282563D01*
X0184715Y0277959D01*
X0184715Y0279494D02*
X0187017Y0279494D01*
X0187784Y0280261D01*
X0187784Y0281796D01*
X0187017Y0282563D01*
X0197109Y0259978D02*
X0197109Y0255374D01*
X0198643Y0255374D02*
X0195574Y0255374D01*
X0195574Y0258443D02*
X0197109Y0259978D01*
X0198443Y0249835D02*
X0195374Y0249835D01*
X0195374Y0247533D01*
X0196909Y0248301D01*
X0197676Y0248301D01*
X0198443Y0247533D01*
X0198443Y0245999D01*
X0197676Y0245231D01*
X0196141Y0245231D01*
X0195374Y0245999D01*
X0195441Y0239909D02*
X0194674Y0239141D01*
X0195441Y0239909D02*
X0196976Y0239909D01*
X0197743Y0239141D01*
X0197743Y0238374D01*
X0196976Y0237607D01*
X0197743Y0236839D01*
X0197743Y0236072D01*
X0196976Y0235305D01*
X0195441Y0235305D01*
X0194674Y0236072D01*
X0196209Y0237607D02*
X0196976Y0237607D01*
X0219964Y0200539D02*
X0219964Y0195935D01*
X0219964Y0197469D02*
X0222266Y0197469D01*
X0223033Y0198237D01*
X0223033Y0199771D01*
X0222266Y0200539D01*
X0219964Y0200539D01*
X0224568Y0199771D02*
X0224568Y0196702D01*
X0225335Y0195935D01*
X0224568Y0199771D02*
X0225335Y0200539D01*
X0226870Y0200539D01*
X0227637Y0199771D01*
X0226870Y0170027D02*
X0225335Y0170027D01*
X0224568Y0169259D01*
X0224568Y0166190D01*
X0225335Y0165423D01*
X0226870Y0165423D01*
X0227637Y0166190D01*
X0227637Y0167725D01*
X0226102Y0167725D01*
X0227637Y0169259D02*
X0226870Y0170027D01*
X0229172Y0169259D02*
X0229939Y0170027D01*
X0231474Y0170027D01*
X0232241Y0169259D01*
X0232241Y0168492D01*
X0231474Y0167725D01*
X0232241Y0166957D01*
X0232241Y0166190D01*
X0231474Y0165423D01*
X0229939Y0165423D01*
X0229172Y0166190D01*
X0230706Y0167725D02*
X0231474Y0167725D01*
X0230706Y0160184D02*
X0230706Y0155580D01*
X0229172Y0155580D02*
X0232241Y0155580D01*
X0233776Y0156348D02*
X0234543Y0155580D01*
X0236078Y0155580D01*
X0236845Y0156348D01*
X0236845Y0157882D01*
X0236078Y0158650D01*
X0235310Y0158650D01*
X0233776Y0157882D01*
X0233776Y0160184D01*
X0236845Y0160184D01*
X0230706Y0160184D02*
X0229172Y0158650D01*
X0227637Y0159417D02*
X0226870Y0160184D01*
X0224568Y0160184D01*
X0224568Y0155580D01*
X0226870Y0155580D01*
X0227637Y0156348D01*
X0227637Y0159417D01*
X0223033Y0159417D02*
X0223033Y0157882D01*
X0222266Y0157115D01*
X0219964Y0157115D01*
X0219964Y0155580D02*
X0219964Y0160184D01*
X0222266Y0160184D01*
X0223033Y0159417D01*
X0219964Y0165423D02*
X0219964Y0170027D01*
X0222266Y0170027D01*
X0223033Y0169259D01*
X0223033Y0167725D01*
X0222266Y0166957D01*
X0219964Y0166957D01*
X0219964Y0150342D02*
X0222266Y0150342D01*
X0223033Y0149574D01*
X0223033Y0148040D01*
X0222266Y0147272D01*
X0219964Y0147272D01*
X0219964Y0145738D02*
X0219964Y0150342D01*
X0224568Y0150342D02*
X0224568Y0145738D01*
X0226870Y0145738D01*
X0227637Y0146505D01*
X0227637Y0149574D01*
X0226870Y0150342D01*
X0224568Y0150342D01*
X0229172Y0148807D02*
X0230706Y0150342D01*
X0230706Y0145738D01*
X0229172Y0145738D02*
X0232241Y0145738D01*
X0233776Y0146505D02*
X0234543Y0145738D01*
X0236078Y0145738D01*
X0236845Y0146505D01*
X0236845Y0147272D01*
X0236078Y0148040D01*
X0235310Y0148040D01*
X0236078Y0148040D02*
X0236845Y0148807D01*
X0236845Y0149574D01*
X0236078Y0150342D01*
X0234543Y0150342D01*
X0233776Y0149574D01*
X0235310Y0140499D02*
X0235310Y0135895D01*
X0233776Y0135895D02*
X0236845Y0135895D01*
X0233776Y0138965D02*
X0235310Y0140499D01*
X0232241Y0135895D02*
X0229172Y0135895D01*
X0230706Y0135895D02*
X0230706Y0140499D01*
X0229172Y0138965D01*
X0227637Y0139732D02*
X0226870Y0140499D01*
X0224568Y0140499D01*
X0224568Y0135895D01*
X0226870Y0135895D01*
X0227637Y0136663D01*
X0227637Y0139732D01*
X0223033Y0139732D02*
X0223033Y0138197D01*
X0222266Y0137430D01*
X0219964Y0137430D01*
X0219964Y0135895D02*
X0219964Y0140499D01*
X0222266Y0140499D01*
X0223033Y0139732D01*
X0222266Y0130657D02*
X0219964Y0130657D01*
X0219964Y0126053D01*
X0219964Y0127587D02*
X0222266Y0127587D01*
X0223033Y0128355D01*
X0223033Y0129889D01*
X0222266Y0130657D01*
X0224568Y0130657D02*
X0224568Y0126053D01*
X0226870Y0126053D01*
X0227637Y0126820D01*
X0227637Y0129889D01*
X0226870Y0130657D01*
X0224568Y0130657D01*
X0229172Y0129889D02*
X0229172Y0129122D01*
X0229939Y0128355D01*
X0232241Y0128355D01*
X0232241Y0129889D02*
X0231474Y0130657D01*
X0229939Y0130657D01*
X0229172Y0129889D01*
X0232241Y0129889D02*
X0232241Y0126820D01*
X0231474Y0126053D01*
X0229939Y0126053D01*
X0229172Y0126820D01*
X0230706Y0119830D02*
X0230706Y0115226D01*
X0229172Y0115226D02*
X0232241Y0115226D01*
X0233776Y0115993D02*
X0234543Y0115226D01*
X0236078Y0115226D01*
X0236845Y0115993D01*
X0236845Y0117528D01*
X0236078Y0118295D01*
X0235310Y0118295D01*
X0233776Y0117528D01*
X0233776Y0119830D01*
X0236845Y0119830D01*
X0230706Y0119830D02*
X0229172Y0118295D01*
X0227637Y0118295D02*
X0226870Y0117528D01*
X0224568Y0117528D01*
X0223033Y0117528D02*
X0222266Y0116761D01*
X0219964Y0116761D01*
X0219964Y0115226D02*
X0219964Y0119830D01*
X0222266Y0119830D01*
X0223033Y0119063D01*
X0223033Y0117528D01*
X0224568Y0119830D02*
X0226870Y0119830D01*
X0227637Y0119063D01*
X0227637Y0118295D01*
X0226870Y0117528D02*
X0227637Y0116761D01*
X0227637Y0115993D01*
X0226870Y0115226D01*
X0224568Y0115226D01*
X0224568Y0119830D01*
X0224568Y0109987D02*
X0226870Y0109987D01*
X0227637Y0109220D01*
X0227637Y0108453D01*
X0226870Y0107685D01*
X0224568Y0107685D01*
X0223033Y0107685D02*
X0222266Y0106918D01*
X0219964Y0106918D01*
X0219964Y0105383D02*
X0219964Y0109987D01*
X0222266Y0109987D01*
X0223033Y0109220D01*
X0223033Y0107685D01*
X0224568Y0105383D02*
X0226870Y0105383D01*
X0227637Y0106151D01*
X0227637Y0106918D01*
X0226870Y0107685D01*
X0229172Y0108453D02*
X0230706Y0109987D01*
X0230706Y0105383D01*
X0229172Y0105383D02*
X0232241Y0105383D01*
X0233776Y0106151D02*
X0234543Y0105383D01*
X0236078Y0105383D01*
X0236845Y0106151D01*
X0236845Y0106918D01*
X0236078Y0107685D01*
X0235310Y0107685D01*
X0236078Y0107685D02*
X0236845Y0108453D01*
X0236845Y0109220D01*
X0236078Y0109987D01*
X0234543Y0109987D01*
X0233776Y0109220D01*
X0231474Y0100145D02*
X0229172Y0100145D01*
X0229172Y0095541D01*
X0231474Y0095541D01*
X0232241Y0096308D01*
X0232241Y0099378D01*
X0231474Y0100145D01*
X0227637Y0100145D02*
X0227637Y0095541D01*
X0224568Y0100145D01*
X0224568Y0095541D01*
X0223033Y0096308D02*
X0223033Y0097843D01*
X0221498Y0097843D01*
X0219964Y0099378D02*
X0219964Y0096308D01*
X0220731Y0095541D01*
X0222266Y0095541D01*
X0223033Y0096308D01*
X0223033Y0099378D02*
X0222266Y0100145D01*
X0220731Y0100145D01*
X0219964Y0099378D01*
X0224568Y0105383D02*
X0224568Y0109987D01*
D13*
X0216957Y0109812D02*
X0216957Y0104812D01*
X0214457Y0102312D01*
X0216957Y0099812D01*
X0216957Y0094812D01*
X0214457Y0092312D01*
X0199457Y0092312D01*
X0196957Y0094812D01*
X0196957Y0099812D01*
X0199457Y0102312D01*
X0214457Y0102312D01*
X0216957Y0109812D02*
X0214457Y0112312D01*
X0199457Y0112312D01*
X0196957Y0109812D01*
X0196957Y0104812D01*
X0199457Y0102312D01*
X0199457Y0112312D02*
X0196957Y0114812D01*
X0196957Y0119812D01*
X0199457Y0122312D01*
X0214457Y0122312D01*
X0216957Y0119812D01*
X0216957Y0114812D01*
X0214457Y0112312D01*
X0214457Y0122312D02*
X0216957Y0124812D01*
X0216957Y0129812D01*
X0214457Y0132312D01*
X0199457Y0132312D01*
X0196957Y0129812D01*
X0196957Y0124812D01*
X0199457Y0122312D01*
X0199457Y0132312D02*
X0196957Y0134812D01*
X0196957Y0139812D01*
X0199457Y0142312D01*
X0214457Y0142312D01*
X0216957Y0139812D01*
X0216957Y0134812D01*
X0214457Y0132312D01*
X0214457Y0142312D02*
X0216957Y0144812D01*
X0216957Y0149812D01*
X0214457Y0152312D01*
X0199457Y0152312D01*
X0196957Y0149812D01*
X0196957Y0144812D01*
X0199457Y0142312D01*
X0199457Y0152312D02*
X0196957Y0154812D01*
X0196957Y0159812D01*
X0199457Y0162312D01*
X0214457Y0162312D01*
X0216957Y0159812D01*
X0216957Y0154812D01*
X0214457Y0152312D01*
X0214457Y0162312D02*
X0216957Y0164812D01*
X0216957Y0169812D01*
X0214457Y0172312D01*
X0199457Y0172312D01*
X0196957Y0169812D01*
X0196957Y0164812D01*
X0199457Y0162312D01*
X0199457Y0172312D02*
X0196957Y0174812D01*
X0196957Y0179812D01*
X0199457Y0182312D01*
X0214457Y0182312D01*
X0216957Y0179812D01*
X0216957Y0174812D01*
X0214457Y0172312D01*
X0214457Y0182312D02*
X0216957Y0184812D01*
X0216957Y0189812D01*
X0214457Y0192312D01*
X0199457Y0192312D01*
X0196957Y0189812D01*
X0196957Y0184812D01*
X0199457Y0182312D01*
X0199457Y0192312D02*
X0196957Y0194812D01*
X0196957Y0199812D01*
X0199457Y0202312D01*
X0214457Y0202312D01*
X0216957Y0199812D01*
X0216957Y0194812D01*
X0214457Y0192312D01*
X0214457Y0202312D02*
X0216957Y0204812D01*
X0216957Y0209812D01*
X0214457Y0212312D01*
X0199457Y0212312D01*
X0196957Y0214812D01*
X0196957Y0219812D01*
X0199457Y0222312D01*
X0214457Y0222312D01*
X0216957Y0219812D01*
X0216957Y0214812D01*
X0214457Y0212312D01*
X0214457Y0222312D02*
X0216957Y0224812D01*
X0216957Y0229812D01*
X0214457Y0232312D01*
X0199457Y0232312D01*
X0196957Y0234812D01*
X0196957Y0239812D01*
X0199457Y0242312D01*
X0214457Y0242312D01*
X0216957Y0239812D01*
X0216957Y0234812D01*
X0214457Y0232312D01*
X0214457Y0242312D02*
X0216957Y0244812D01*
X0216957Y0249812D01*
X0214457Y0252312D01*
X0199457Y0252312D01*
X0196957Y0254812D01*
X0196957Y0259812D01*
X0199457Y0262312D01*
X0214457Y0262312D01*
X0216957Y0259812D01*
X0216957Y0254812D01*
X0214457Y0252312D01*
X0214457Y0262312D02*
X0216957Y0264812D01*
X0216957Y0269812D01*
X0214457Y0272312D01*
X0199457Y0272312D01*
X0196957Y0274812D01*
X0196957Y0279812D01*
X0199457Y0282312D01*
X0214457Y0282312D01*
X0216957Y0279812D01*
X0216957Y0274812D01*
X0214457Y0272312D01*
X0214457Y0282312D02*
X0216957Y0284812D01*
X0216957Y0289812D01*
X0214457Y0292312D01*
X0199457Y0292312D01*
X0196957Y0294812D01*
X0196957Y0299812D01*
X0199457Y0302312D01*
X0214457Y0302312D01*
X0216957Y0299812D01*
X0216957Y0294812D01*
X0214457Y0292312D01*
X0214457Y0302312D02*
X0216957Y0304812D01*
X0216957Y0309812D01*
X0214457Y0312312D01*
X0199457Y0312312D01*
X0196957Y0314812D01*
X0196957Y0319812D01*
X0199457Y0322312D01*
X0214457Y0322312D01*
X0216957Y0319812D01*
X0216957Y0314812D01*
X0214457Y0312312D01*
X0214457Y0322312D02*
X0216957Y0324812D01*
X0216957Y0329812D01*
X0214457Y0332312D01*
X0199457Y0332312D01*
X0196957Y0329812D01*
X0196957Y0324812D01*
X0199457Y0322312D01*
X0199457Y0332312D02*
X0196957Y0334812D01*
X0196957Y0339812D01*
X0199457Y0342312D01*
X0214457Y0342312D01*
X0216957Y0339812D01*
X0216957Y0334812D01*
X0214457Y0332312D01*
X0214457Y0342312D02*
X0216957Y0344812D01*
X0216957Y0349812D01*
X0214457Y0352312D01*
X0199457Y0352312D01*
X0196957Y0349812D01*
X0196957Y0344812D01*
X0199457Y0342312D01*
X0199457Y0352312D02*
X0196957Y0354812D01*
X0196957Y0359812D01*
X0199457Y0362312D01*
X0214457Y0362312D01*
X0216957Y0359812D01*
X0216957Y0354812D01*
X0214457Y0352312D01*
X0214457Y0362312D02*
X0216957Y0364812D01*
X0216957Y0369812D01*
X0214457Y0372312D01*
X0199457Y0372312D01*
X0196957Y0369812D01*
X0196957Y0364812D01*
X0199457Y0362312D01*
X0199457Y0372312D02*
X0196957Y0374812D01*
X0196957Y0379812D01*
X0199457Y0382312D01*
X0214457Y0382312D01*
X0216957Y0379812D01*
X0216957Y0374812D01*
X0214457Y0372312D01*
X0214457Y0382312D02*
X0216957Y0384812D01*
X0216957Y0389812D01*
X0214457Y0392312D01*
X0199457Y0392312D01*
X0196957Y0389812D01*
X0196957Y0384812D01*
X0199457Y0382312D01*
X0173139Y0382410D02*
X0173139Y0367410D01*
X0170639Y0364910D01*
X0165639Y0364910D01*
X0163139Y0367410D01*
X0163139Y0382410D01*
X0165639Y0384910D01*
X0170639Y0384910D01*
X0173139Y0382410D01*
X0163139Y0382410D02*
X0160639Y0384910D01*
X0155639Y0384910D01*
X0153139Y0382410D01*
X0153139Y0367410D01*
X0150639Y0364910D01*
X0145639Y0364910D01*
X0143139Y0367410D01*
X0143139Y0382410D01*
X0145639Y0384910D01*
X0150639Y0384910D01*
X0153139Y0382410D01*
X0143139Y0382410D02*
X0140639Y0384910D01*
X0135639Y0384910D01*
X0133139Y0382410D01*
X0133139Y0367410D01*
X0135639Y0364910D01*
X0140639Y0364910D01*
X0143139Y0367410D01*
X0153139Y0367410D02*
X0155639Y0364910D01*
X0160639Y0364910D01*
X0163139Y0367410D01*
X0133139Y0367410D02*
X0130639Y0364910D01*
X0125639Y0364910D01*
X0123139Y0367410D01*
X0123139Y0382410D01*
X0125639Y0384910D01*
X0130639Y0384910D01*
X0133139Y0382410D01*
X0123139Y0382410D02*
X0120639Y0384910D01*
X0115639Y0384910D01*
X0113139Y0382410D01*
X0113139Y0367410D01*
X0115639Y0364910D01*
X0120639Y0364910D01*
X0123139Y0367410D01*
X0113139Y0367410D02*
X0110639Y0364910D01*
X0105639Y0364910D01*
X0103139Y0367410D01*
X0103139Y0382410D01*
X0105639Y0384910D01*
X0110639Y0384910D01*
X0113139Y0382410D01*
X0103139Y0382410D02*
X0100639Y0384910D01*
X0095639Y0384910D01*
X0093139Y0382410D01*
X0093139Y0367410D01*
X0095639Y0364910D01*
X0100639Y0364910D01*
X0103139Y0367410D01*
X0093139Y0367410D02*
X0090639Y0364910D01*
X0085639Y0364910D01*
X0083139Y0367410D01*
X0083139Y0382410D01*
X0085639Y0384910D01*
X0090639Y0384910D01*
X0093139Y0382410D01*
X0083139Y0382410D02*
X0080639Y0384910D01*
X0075639Y0384910D01*
X0073139Y0382410D01*
X0073139Y0367410D01*
X0075639Y0364910D01*
X0080639Y0364910D01*
X0083139Y0367410D01*
X0042784Y0369812D02*
X0042784Y0364812D01*
X0040284Y0362312D01*
X0025284Y0362312D01*
X0022784Y0359812D01*
X0022784Y0354812D01*
X0025284Y0352312D01*
X0040284Y0352312D01*
X0042784Y0349812D01*
X0042784Y0344812D01*
X0040284Y0342312D01*
X0025284Y0342312D01*
X0022784Y0339812D01*
X0022784Y0334812D01*
X0025284Y0332312D01*
X0040284Y0332312D01*
X0042784Y0329812D01*
X0042784Y0324812D01*
X0040284Y0322312D01*
X0025284Y0322312D01*
X0022784Y0324812D01*
X0022784Y0329812D01*
X0025284Y0332312D01*
X0025284Y0322312D02*
X0022784Y0319812D01*
X0022784Y0314812D01*
X0025284Y0312312D01*
X0040284Y0312312D01*
X0042784Y0309812D01*
X0042784Y0304812D01*
X0040284Y0302312D01*
X0025284Y0302312D01*
X0022784Y0304812D01*
X0022784Y0309812D01*
X0025284Y0312312D01*
X0025284Y0302312D02*
X0022784Y0299812D01*
X0022784Y0294812D01*
X0025284Y0292312D01*
X0040284Y0292312D01*
X0042784Y0289812D01*
X0042784Y0284812D01*
X0040284Y0282312D01*
X0025284Y0282312D01*
X0022784Y0284812D01*
X0022784Y0289812D01*
X0025284Y0292312D01*
X0025284Y0282312D02*
X0022784Y0279812D01*
X0022784Y0274812D01*
X0025284Y0272312D01*
X0040284Y0272312D01*
X0042784Y0269812D01*
X0042784Y0264812D01*
X0040284Y0262312D01*
X0025284Y0262312D01*
X0022784Y0264812D01*
X0022784Y0269812D01*
X0025284Y0272312D01*
X0025284Y0262312D02*
X0022784Y0259812D01*
X0022784Y0254812D01*
X0025284Y0252312D01*
X0040284Y0252312D01*
X0042784Y0249812D01*
X0042784Y0244812D01*
X0040284Y0242312D01*
X0025284Y0242312D01*
X0022784Y0244812D01*
X0022784Y0249812D01*
X0025284Y0252312D01*
X0025284Y0242312D02*
X0022784Y0239812D01*
X0022784Y0234812D01*
X0025284Y0232312D01*
X0040284Y0232312D01*
X0042784Y0229812D01*
X0042784Y0224812D01*
X0040284Y0222312D01*
X0025284Y0222312D01*
X0022784Y0224812D01*
X0022784Y0229812D01*
X0025284Y0232312D01*
X0025284Y0222312D02*
X0022784Y0219812D01*
X0022784Y0214812D01*
X0025284Y0212312D01*
X0040284Y0212312D01*
X0042784Y0209812D01*
X0042784Y0204812D01*
X0040284Y0202312D01*
X0042784Y0199812D01*
X0042784Y0194812D01*
X0040284Y0192312D01*
X0042784Y0189812D01*
X0042784Y0184812D01*
X0040284Y0182312D01*
X0042784Y0179812D01*
X0042784Y0174812D01*
X0040284Y0172312D01*
X0042784Y0169812D01*
X0042784Y0164812D01*
X0040284Y0162312D01*
X0042784Y0159812D01*
X0042784Y0154812D01*
X0040284Y0152312D01*
X0042784Y0149812D01*
X0042784Y0144812D01*
X0040284Y0142312D01*
X0042784Y0139812D01*
X0042784Y0134812D01*
X0040284Y0132312D01*
X0042784Y0129812D01*
X0042784Y0124812D01*
X0040284Y0122312D01*
X0042784Y0119812D01*
X0042784Y0114812D01*
X0040284Y0112312D01*
X0042784Y0109812D01*
X0042784Y0104812D01*
X0040284Y0102312D01*
X0042784Y0099812D01*
X0042784Y0094812D01*
X0040284Y0092312D01*
X0025284Y0092312D01*
X0022784Y0094812D01*
X0022784Y0099812D01*
X0025284Y0102312D01*
X0040284Y0102312D01*
X0040284Y0112312D02*
X0025284Y0112312D01*
X0022784Y0109812D01*
X0022784Y0104812D01*
X0025284Y0102312D01*
X0025284Y0112312D02*
X0022784Y0114812D01*
X0022784Y0119812D01*
X0025284Y0122312D01*
X0040284Y0122312D01*
X0040284Y0132312D02*
X0025284Y0132312D01*
X0022784Y0129812D01*
X0022784Y0124812D01*
X0025284Y0122312D01*
X0025284Y0132312D02*
X0022784Y0134812D01*
X0022784Y0139812D01*
X0025284Y0142312D01*
X0040284Y0142312D01*
X0040284Y0152312D02*
X0025284Y0152312D01*
X0022784Y0149812D01*
X0022784Y0144812D01*
X0025284Y0142312D01*
X0025284Y0152312D02*
X0022784Y0154812D01*
X0022784Y0159812D01*
X0025284Y0162312D01*
X0040284Y0162312D01*
X0040284Y0172312D02*
X0025284Y0172312D01*
X0022784Y0169812D01*
X0022784Y0164812D01*
X0025284Y0162312D01*
X0025284Y0172312D02*
X0022784Y0174812D01*
X0022784Y0179812D01*
X0025284Y0182312D01*
X0040284Y0182312D01*
X0040284Y0192312D02*
X0025284Y0192312D01*
X0022784Y0189812D01*
X0022784Y0184812D01*
X0025284Y0182312D01*
X0025284Y0192312D02*
X0022784Y0194812D01*
X0022784Y0199812D01*
X0025284Y0202312D01*
X0040284Y0202312D01*
X0040284Y0212312D02*
X0042784Y0214812D01*
X0042784Y0219812D01*
X0040284Y0222312D01*
X0040284Y0232312D02*
X0042784Y0234812D01*
X0042784Y0239812D01*
X0040284Y0242312D01*
X0040284Y0252312D02*
X0042784Y0254812D01*
X0042784Y0259812D01*
X0040284Y0262312D01*
X0040284Y0272312D02*
X0042784Y0274812D01*
X0042784Y0279812D01*
X0040284Y0282312D01*
X0040284Y0292312D02*
X0042784Y0294812D01*
X0042784Y0299812D01*
X0040284Y0302312D01*
X0040284Y0312312D02*
X0042784Y0314812D01*
X0042784Y0319812D01*
X0040284Y0322312D01*
X0040284Y0332312D02*
X0042784Y0334812D01*
X0042784Y0339812D01*
X0040284Y0342312D01*
X0040284Y0352312D02*
X0042784Y0354812D01*
X0042784Y0359812D01*
X0040284Y0362312D01*
X0042784Y0369812D02*
X0040284Y0372312D01*
X0025284Y0372312D01*
X0022784Y0369812D01*
X0022784Y0364812D01*
X0025284Y0362312D01*
X0025284Y0372312D02*
X0022784Y0374812D01*
X0022784Y0379812D01*
X0025284Y0382312D01*
X0040284Y0382312D01*
X0042784Y0379812D01*
X0042784Y0374812D01*
X0040284Y0372312D01*
X0040284Y0382312D02*
X0042784Y0384812D01*
X0042784Y0389812D01*
X0040284Y0392312D01*
X0025284Y0392312D01*
X0022784Y0389812D01*
X0022784Y0384812D01*
X0025284Y0382312D01*
X0025284Y0352312D02*
X0022784Y0349812D01*
X0022784Y0344812D01*
X0025284Y0342312D01*
X0025284Y0212312D02*
X0022784Y0209812D01*
X0022784Y0204812D01*
X0025284Y0202312D01*
X0089221Y0113532D02*
X0086721Y0111032D01*
X0086721Y0106032D01*
X0089221Y0103532D01*
X0094221Y0103532D01*
X0096721Y0106032D01*
X0096721Y0111032D01*
X0094221Y0113532D01*
X0089221Y0113532D01*
X0089221Y0103532D02*
X0086721Y0101032D01*
X0086721Y0096032D01*
X0089221Y0093532D01*
X0094221Y0093532D01*
X0096721Y0096032D01*
X0096721Y0101032D01*
X0094221Y0103532D01*
X0090893Y0030192D02*
X0088758Y0028057D01*
X0086623Y0030192D01*
X0086623Y0023787D01*
X0084448Y0023787D02*
X0084448Y0028057D01*
X0082313Y0030192D01*
X0080178Y0028057D01*
X0080178Y0023787D01*
X0078002Y0024854D02*
X0076935Y0023787D01*
X0074800Y0023787D01*
X0073732Y0024854D01*
X0073732Y0029125D01*
X0074800Y0030192D01*
X0076935Y0030192D01*
X0078002Y0029125D01*
X0080178Y0026989D02*
X0084448Y0026989D01*
X0090893Y0023787D02*
X0090893Y0030192D01*
X0091228Y0014090D02*
X0092296Y0013022D01*
X0093364Y0014090D01*
X0094431Y0013022D01*
X0094431Y0009820D01*
X0092296Y0009820D02*
X0092296Y0013022D01*
X0091228Y0014090D02*
X0090161Y0014090D01*
X0090161Y0009820D01*
X0087986Y0010887D02*
X0087986Y0013022D01*
X0086918Y0014090D01*
X0084783Y0014090D01*
X0083715Y0013022D01*
X0083715Y0010887D01*
X0084783Y0009820D01*
X0086918Y0009820D01*
X0087986Y0010887D01*
X0081547Y0014090D02*
X0080479Y0014090D01*
X0078344Y0011955D01*
X0078344Y0009820D02*
X0078344Y0014090D01*
X0076169Y0014090D02*
X0071899Y0009820D01*
X0076169Y0009820D01*
X0076169Y0014090D02*
X0071899Y0014090D01*
X0069723Y0015158D02*
X0068656Y0016225D01*
X0066521Y0016225D01*
X0065453Y0015158D01*
X0065453Y0014090D01*
X0066521Y0013022D01*
X0068656Y0013022D01*
X0069723Y0011955D01*
X0069723Y0010887D01*
X0068656Y0009820D01*
X0066521Y0009820D01*
X0065453Y0010887D01*
X0065111Y0023787D02*
X0060841Y0028057D01*
X0060841Y0029125D01*
X0061909Y0030192D01*
X0062976Y0029125D01*
X0062976Y0028057D01*
X0060841Y0025922D01*
X0060841Y0024854D01*
X0061909Y0023787D01*
X0062976Y0023787D01*
X0065111Y0025922D01*
X0056832Y0016225D02*
X0056832Y0009820D01*
X0053630Y0009820D01*
X0052562Y0010887D01*
X0052562Y0013022D01*
X0053630Y0014090D01*
X0056832Y0014090D01*
X0051153Y0023787D02*
X0052220Y0024854D01*
X0052220Y0029125D01*
X0051153Y0030192D01*
X0047950Y0030192D01*
X0047950Y0023787D01*
X0051153Y0023787D01*
X0049333Y0017293D02*
X0049333Y0016225D01*
X0049333Y0014090D02*
X0049333Y0009820D01*
X0050400Y0009820D02*
X0048265Y0009820D01*
X0046090Y0010887D02*
X0046090Y0014090D01*
X0048265Y0014090D02*
X0049333Y0014090D01*
X0046090Y0010887D02*
X0045022Y0009820D01*
X0043955Y0010887D01*
X0042887Y0009820D01*
X0041820Y0010887D01*
X0041820Y0014090D01*
X0039644Y0013022D02*
X0039644Y0009820D01*
X0036442Y0009820D01*
X0035374Y0010887D01*
X0036442Y0011955D01*
X0039644Y0011955D01*
X0039644Y0013022D02*
X0038577Y0014090D01*
X0036442Y0014090D01*
X0033199Y0015158D02*
X0033199Y0010887D01*
X0032131Y0009820D01*
X0028929Y0009820D01*
X0028929Y0016225D01*
X0032131Y0016225D01*
X0033199Y0015158D01*
X0035059Y0023787D02*
X0039329Y0023787D01*
X0041505Y0024854D02*
X0042572Y0023787D01*
X0044707Y0023787D01*
X0045775Y0024854D01*
X0045775Y0029125D02*
X0044707Y0030192D01*
X0042572Y0030192D01*
X0041505Y0029125D01*
X0041505Y0024854D01*
X0035059Y0023787D02*
X0035059Y0030192D01*
X0026438Y0030192D02*
X0022168Y0030192D01*
X0022168Y0023787D01*
X0026438Y0023787D01*
X0024303Y0026989D02*
X0022168Y0026989D01*
X0019993Y0025922D02*
X0019993Y0024854D01*
X0018925Y0023787D01*
X0015723Y0023787D01*
X0015723Y0030192D01*
X0018925Y0030192D01*
X0019993Y0029125D01*
X0019993Y0028057D01*
X0018925Y0026989D01*
X0015723Y0026989D01*
X0018925Y0026989D02*
X0019993Y0025922D01*
X0013547Y0023787D02*
X0013547Y0030192D01*
X0011412Y0028057D01*
X0009277Y0030192D01*
X0009277Y0023787D01*
X0009592Y0016225D02*
X0009592Y0009820D01*
X0012795Y0009820D01*
X0013862Y0010887D01*
X0013862Y0013022D01*
X0012795Y0014090D01*
X0009592Y0014090D01*
X0016038Y0014090D02*
X0016038Y0010887D01*
X0017105Y0009820D01*
X0020308Y0009820D01*
X0020308Y0008752D02*
X0019240Y0007685D01*
X0018173Y0007685D01*
X0020308Y0008752D02*
X0020308Y0014090D01*
X0096606Y0013022D02*
X0096606Y0010887D01*
X0097674Y0009820D01*
X0099809Y0009820D01*
X0100877Y0011955D02*
X0096606Y0011955D01*
X0096606Y0013022D02*
X0097674Y0014090D01*
X0099809Y0014090D01*
X0100877Y0013022D01*
X0100877Y0011955D01*
X0103052Y0011955D02*
X0106255Y0014090D01*
X0103052Y0011955D02*
X0106255Y0009820D01*
X0103052Y0009820D02*
X0103052Y0016225D01*
X0149182Y0093532D02*
X0146682Y0096032D01*
X0146682Y0101032D01*
X0149182Y0103532D01*
X0146682Y0106032D01*
X0146682Y0111032D01*
X0149182Y0113532D01*
X0154182Y0113532D01*
X0156682Y0111032D01*
X0156682Y0106032D01*
X0154182Y0103532D01*
X0156682Y0101032D01*
X0156682Y0096032D01*
X0154182Y0093532D01*
X0149182Y0093532D01*
X0149182Y0103532D02*
X0154182Y0103532D01*
X0199457Y0202312D02*
X0196957Y0204812D01*
X0196957Y0209812D01*
X0199457Y0212312D01*
X0199457Y0222312D02*
X0196957Y0224812D01*
X0196957Y0229812D01*
X0199457Y0232312D01*
X0199457Y0242312D02*
X0196957Y0244812D01*
X0196957Y0249812D01*
X0199457Y0252312D01*
X0199457Y0262312D02*
X0196957Y0264812D01*
X0196957Y0269812D01*
X0199457Y0272312D01*
X0199457Y0282312D02*
X0196957Y0284812D01*
X0196957Y0289812D01*
X0199457Y0292312D01*
X0199457Y0302312D02*
X0196957Y0304812D01*
X0196957Y0309812D01*
X0199457Y0312312D01*
D14*
X0173339Y0332610D02*
X0163539Y0332610D01*
X0163339Y0332610D01*
X0163339Y0363010D01*
X0153739Y0363010D01*
X0153739Y0332810D01*
X0143639Y0332810D01*
X0143639Y0363210D01*
X0133439Y0363210D01*
X0133439Y0332810D01*
X0122939Y0332810D01*
X0122939Y0363210D01*
X0113239Y0363210D01*
X0113239Y0332910D01*
X0103739Y0332910D01*
X0103739Y0363310D01*
X0093639Y0363310D01*
X0093639Y0332610D01*
X0083339Y0332610D01*
X0083339Y0362610D01*
X0073139Y0363210D02*
X0073139Y0332610D01*
X0083339Y0332610D01*
X0093639Y0332610D02*
X0163339Y0332610D01*
X0173339Y0332610D02*
X0173339Y0347310D01*
X0073339Y0347310D01*
X0073139Y0363210D02*
X0113239Y0363210D01*
X0122939Y0363210D02*
X0133439Y0363210D01*
X0143639Y0363210D02*
X0173339Y0363210D01*
X0173339Y0347310D01*
D15*
X0001800Y0395501D02*
X0001800Y0001800D01*
X0238020Y0001800D01*
X0238020Y0395501D01*
X0001800Y0395501D01*
D16*
X0075560Y0057453D02*
X0080284Y0057453D01*
X0075560Y0057453D02*
X0075560Y0053516D01*
X0075560Y0041705D02*
X0075560Y0040130D01*
X0076741Y0040130D01*
X0164536Y0040130D01*
X0165717Y0040130D01*
X0165717Y0041705D01*
X0164536Y0040130D02*
X0164536Y0038949D01*
X0165717Y0038949D01*
X0165717Y0036193D01*
X0075560Y0036193D01*
X0075560Y0038949D01*
X0076741Y0038949D01*
X0076741Y0040130D01*
X0081465Y0038949D02*
X0083040Y0038949D01*
X0082253Y0037374D01*
X0081465Y0038949D01*
X0081820Y0038239D02*
X0082685Y0038239D01*
X0082286Y0037440D02*
X0082220Y0037440D01*
X0160993Y0057453D02*
X0165717Y0057453D01*
X0165717Y0053516D01*
M02*
