G75*
%MOIN*%
%OFA0B0*%
%FSLAX25Y25*%
%IPPOS*%
%LPD*%
%AMOC8*
5,1,8,0,0,1.08239X$1,22.5*
%
%ADD10C,0.00000*%
%ADD11C,0.00400*%
D10*
X0001739Y0002810D02*
X0001739Y0395311D01*
X0238660Y0395811D01*
X0238660Y0003310D01*
X0001739Y0002810D01*
D11*
X0111764Y0099701D02*
X0112531Y0098934D01*
X0115600Y0098934D01*
X0116368Y0099701D01*
X0116368Y0101236D01*
X0115600Y0102003D01*
X0116764Y0102746D02*
X0117531Y0102746D01*
X0120600Y0105815D01*
X0121368Y0105815D01*
X0121368Y0102746D01*
X0122531Y0102003D02*
X0121764Y0101236D01*
X0121764Y0099701D01*
X0122531Y0098934D01*
X0125600Y0098934D01*
X0126368Y0099701D01*
X0126368Y0101236D01*
X0125600Y0102003D01*
X0126368Y0103538D02*
X0124066Y0103538D01*
X0124833Y0105072D01*
X0124833Y0105840D01*
X0124066Y0106607D01*
X0122531Y0106607D01*
X0121764Y0105840D01*
X0121764Y0104305D01*
X0122531Y0103538D01*
X0120600Y0101211D02*
X0121368Y0100444D01*
X0121368Y0098909D01*
X0120600Y0098142D01*
X0117531Y0098142D01*
X0116764Y0098909D01*
X0116764Y0100444D01*
X0117531Y0101211D01*
X0114066Y0103538D02*
X0114066Y0105840D01*
X0113298Y0106607D01*
X0112531Y0106607D01*
X0111764Y0105840D01*
X0111764Y0104305D01*
X0112531Y0103538D01*
X0114066Y0103538D01*
X0115600Y0105072D01*
X0116368Y0106607D01*
X0112531Y0102003D02*
X0111764Y0101236D01*
X0111764Y0099701D01*
X0126368Y0103538D02*
X0126368Y0106607D01*
M02*
